<?xml version="1.0" encoding="UTF-8"?>
<svg xmlns="http://www.w3.org/2000/svg" viewBox="0 0 1024 1024">
  <defs>
    <style>
      .cls-1 {
        fill: #c5c6c7;
      }

      .cls-2 {
        fill: #404142;
      }

      .cls-3 {
        fill: #28292a;
      }

      .cls-4 {
        fill: #7f7373;
      }

      .cls-5 {
        fill: #a5a5a7;
      }

      .cls-6 {
        fill: #f9fafa;
      }

      .cls-7 {
        fill: #e0e1e3;
      }

      .cls-8 {
        fill: #e1e3e4;
      }

      .cls-9 {
        fill: #363637;
      }

      .cls-10 {
        fill: #dcdee0;
      }

      .cls-11 {
        fill: #2b2b2d;
      }

      .cls-12 {
        fill: #d3d4d6;
      }

      .cls-13 {
        fill: #fefefe;
      }

      .cls-14 {
        fill: #585a5a;
      }

      .cls-15 {
        fill: #fcfcfc;
      }

      .cls-16 {
        fill: #fdfdfd;
      }
    </style>
  </defs>
  <g id="_검은색_배경" data-name="검은색 배경">
    <rect class="cls-4" x="0" y="0" width="1024" height="1024"/>
  </g>
  <g id="_레이어_1" data-name="레이어 1">
    <path class="cls-1" d="M281.47,307.94c15.43-2.47,23.81,17.54,10.39,26.28-4.27,2.78-11.46,2.49-15.75-.15-11.07-6.81-7.44-24.08,5.36-26.13ZM291.99,329.5c10.55-11.2-9.05-25.43-16.87-12.9-6.93,11.09,8.76,21.52,16.87,12.9Z"/>
    <g>
      <path class="cls-3" d="M824.68,503.67c.06,1.9.89,3.71.92,5.7.37,23.2-.46,46.44.09,69.64.91,2.78,9.64.93,12.24,1.45v-101.06c0-3.17,6.94-4.19,8.86-1.62.03,12.02-.15,24.05-.07,36.07.02,2.62.88,5.28.92,8.35,0,.59.01,1.18,0,1.77-.02.88,0,1.77,0,2.65,0,.16-.91,1.14-.94,3-.11,5.83-.5,12.64.94,18.18-1.16,6.21-1.95,24.49-.88,30.44.62,3.43,4.01,3.2,4.45-.83,1.15-10.35,1.63-20.95,1.72-31.38,3.93-13.62-.11-29.44,8.83-41.48,15.02-3.49,22.44,1.7,22.06,17.2l-5.28,58.7h12.8c.16,0,2.21,2.05,2.21,2.21v61.34h13.69c5.11,0,2.62,13.37,1.59,16.59-.81,2.53-2.4,3.97-2.91,6.35h105.51c1.12,0,2.09,2.76,2.25,3.93,1.45,10.76-1.04,24.94-.19,36.08-1.32,3.92-13,1.86-16.63,2.35H26.96c-8.41-.69-4.88-10.16-4.81-15.41.09-6.32-.32-12.72-.04-19.01.15-3.22-1.04-7.13,3.12-7.92,27.51-.14,55.03.1,82.53-.03,6.46-.03,12.96.03,19.42,0-4.85-6.65-6.59-15.86-4.41-23.82,1.76-.07,3.54.03,5.3,0,4.7-.08,9.43.06,14.13,0l-.04-85.21c-.35-3.59,1.39-4.47,3.57-6.58,47.6-1.26,95.42.94,143.03,0,1.16,1.11,4.41,4.25,4.41,5.74v86.05c2.15.78,4.71-.79,6.18-.88,4.41-.27,7.87.86,11.88.92,43.06.71,86.33.1,129.39-.04,11.76-.04,23.56.03,35.32,0l.88-45.02c2.63,0,6.09,0,8.83,0-.14,4.69.2,9.44,0,14.12-.43,10.24-1.48,20.55-.89,30.89l92.72-.46c.55-.25.61-.91.87-1.31.23-.36.91-.65.85-1.34,1.15-13.97.74-27.91.91-41.91.1-7.89-1.81-20.95,3.52-26.93,4.79-5.38,7.46-3.12,12.78-3.04,24.85.37,50.13-1.02,74.64-.92,13.82.05,34.96-.54,48.12.88,5.89.64,10.55,4.94,11.04,11.03l.12,62.54c1.28,3.91,12.67-2.11,13.08,5.47.08,1.46-.73,8.66-1.05,10.33-.65,3.41-2.96,6.11-3.32,9.47,7.64-.03,15.31.05,22.95,0,5.58-.04,11.2.03,16.78,0-3.87-6.73-5.66-14.35-3.53-22.06,1.46-.21,2.79-.76,4.41-.88,3.76-.28,7.7.2,11.48,0v-138.57c2.91-10.66,17.2-16.69,26.48-10.59,2.13,1.4,5.29,6.69,7.06,8.83ZM799.96,580.45h15.45c.09,0,1.32-1.23,1.32-1.32v-71.49c0-2.77-6.37-6.6-9.31-6.5-2.18.08-7.47,3.99-7.47,5.62v73.7ZM868.53,512.61c-2.23.73-2.77,6.13-3.23,8.27l-4.93,58.73c10.81,3.64,9.27-1.81,10.22-10.2,1.93-16.97,2.03-34.24,4.48-51.17-.2-3.5-2.7-6.89-6.53-5.63ZM283.46,643.11c-.68-3.52.82-6.88.96-10.15.07-1.64-.92-3.26-.88-4.51.7-18.96,3-46.93.84-65.26-.1-.89-.4-3.04-1.37-3.04h-131.99v82.96h132.44ZM721.38,643.11v-63.1c0-.54-3.52-3.69-4.81-3.14-41.56.53-83.33-.84-124.77.7-2.14,1.07-2.61,2.86-2.88,5.07-1.95,16.49.6,38.35.06,55.66-.05,1.7-.69,3.18-.93,4.81h133.32ZM802.61,589.28l-2.64-.88-.02,55.08,2.66.53c.06-4.11-.06-8.25,0-12.36,2.67-.49,1.7,1.35,1.77,3.05.11,2.8-.08,5.64,0,8.43l80.35.88v-54.72h-82.11ZM734.62,652.83l-603.92.45c.74,7.88,7.06,12.15,14.55,12.82,192.86-.48,385.85.79,578.62-.64,5.94-1.59,10.38-6.39,10.76-12.63ZM901.49,652.82h-118.31c1.17,7.35,5.56,11.92,12.88,13.16,29.58-1.53,61.61,2.29,90.9.11,7.92-.59,14.03-4.85,14.53-13.28ZM1004.79,675.77H30.95v23.83h973.85v-23.83Z"/>
      <path class="cls-2" d="M332.9,403.93c-.89,3.14,2.92,1.16,3.54,1.76.27.26-.19,4.21,0,5.3h-15.89v1.77h28.25v105.47c0,4.76,6.39,10.88,10.99,11.96,73.09,1.95,146.63.28,219.89.84,2.72-.31,6.11-1.56,8.33-3.15,1.25-.89,6.24-7.3,6.24-7.88v-108.12c3.23-.03,6.49.05,9.71,0,16.46-.24,32.98.17,49.45,0l.88-7.95c9.15.72,14.68,5.68,16.7,14.64l.08,148.64c-24.51-.1-49.79,1.29-74.64.92-5.32-.08-7.99-2.34-12.78,3.04-5.33,5.98-3.42,19.04-3.52,26.93h-94.47c-2.74,0-6.2,0-8.83,0l-153.22.03c-3.11-.68-10.69-.4-10.12-5.33,1.08-.38,3.7-3.92,3.52-4.79-1.25-2.6-4.79-1.7-6.16-2.27-4.25-1.76-8.29-6.35-8.85-11.01l-.02-156.28c.19-1.88,1.75-7,2.69-8.34,5.66-8.02,19.68-6.09,28.25-6.18ZM312.6,578.69v-158.42c0-.43.49-4.39.58-4.63.4-1.04,1.84-.99,2.05-1.71.18-.6.62-3.72-1.29-2.92-2.62,1.1-5.07,8.12-4.9,10.99v153.64c-.06,2.52,1.1,3.43,3.56,3.04Z"/>
      <path class="cls-8" d="M22.12,674.89c-.29,6.29.12,12.7.04,19.01-.07,5.25-3.6,14.72,4.81,15.42h969.89c-1.17,7.76,4.2,22.54-7.46,22.97H11.92c-3.07-.18-6.07-3.89-6.52-6.71-1.13-7.1-1.1-39.52,0-46.67,1.11-7.16,11.41-2.96,16.72-4.03Z"/>
      <path class="cls-11" d="M587.18,350.1c1.95,2.35,7.06,8.04,7.06,11.03v42.81c2.93.04,5.9-.05,8.83,0,.29,0,.59,0,.88,0v7.94c-3.23.05-6.49-.03-9.71,0v108.12c0,.59-4.99,6.99-6.24,7.88-2.22,1.59-5.6,2.84-8.33,3.15-73.26-.56-146.8,1.11-219.89-.84-4.61-1.08-10.99-7.2-10.99-11.96v-105.47h-28.25v-1.77h15.89c-.19-1.09.27-5.04,0-5.3-.62-.6-4.43,1.38-3.54-1.76,1.49-.02,2.92.02,4.41,0,3.81-.06,7.66.04,11.48,0v-41.92c0-3.85,4.63-9.12,7.06-11.91,1.65,0,3.82-1.67,6.58-1.81,71.3-3.64,145.67,2.87,217.29,0,2.7.19,4.72,1.27,7.46,1.81ZM585.41,381.87v-18.09c0-2.82-3.94-7.62-7.46-6.66h-212.86c-3.08-.68-7.46,2.95-7.46,5.78v18.98h227.79ZM357.62,394.23c-1.2,41.31.52,83.18.46,124.43,1.78,2.58,4.84,3.52,7.9,3.58h211.95c11.04-1.32,6.69-14.53,6.57-21.62-.59-33.52.97-66.57-.03-99.76-.1-3.21,1.23-6.05-.02-9.19-47.33-.14-94.72-.13-142.06-.09-28.24.02-56.52-.02-84.76,0-.03.88.03,1.77,0,2.65Z"/>
      <path class="cls-1" d="M304.65,410.11c-.94,1.34-2.51,6.46-2.69,8.34l.02,156.28c.56,4.66,4.6,9.25,8.85,11.01.18,1.03-.27,2.68,0,3.53-6.1.51-3.86,4.14,1.77,3.53.31-.03.66.08.88,0-.56,4.93,7.01,4.65,10.12,5.33l153.22-.03-.88,45.02c-11.76.02-23.56-.04-35.32,0v-30.89h-141.27v30.01c-1.47.09-4.03,1.66-6.18.88v-86.05c0-1.48-3.25-4.62-4.41-5.74v-124.88c.55-11.05,3.38-17.88,15.89-16.34Z"/>
      <path class="cls-12" d="M791.13,505.43v138.57c-3.78.2-7.72-.29-11.48,0v-131.95c.92-8.14,4.51-6.7,11.48-6.62Z"/>
      <path class="cls-1" d="M145.73,551.33c-2.18,2.11-3.91,2.99-3.57,6.58l.04,85.21c-4.7.05-9.44-.08-14.13,0l.25-81.39c1.6-12.79,6.87-10.12,17.41-10.4Z"/>
      <path class="cls-12" d="M355.86,350.1c-2.44,2.8-7.06,8.06-7.06,11.91v41.92c-3.81.04-7.66-.06-11.48,0,2.44-15.18-8.27-52.59,14.69-54.65,2.56-.23,3.64.81,3.85.81Z"/>
      <path class="cls-10" d="M603.07,403.93c-2.93-.05-5.9.04-8.83,0v-42.81c0-2.99-5.12-8.68-7.06-11.03.09.02.45-.76,1.73-.54,10.46,1.85,13.49,10.97,14.2,20.36.82,10.96-.68,22.94-.03,34.01Z"/>
      <path class="cls-9" d="M654.28,403.93l-.88,7.95c-16.46.17-32.99-.24-49.45,0v-7.94c16.18.22,34.52-1.25,50.33,0Z"/>
      <path class="cls-1" d="M122.77,643.11c-2.17,7.97-.43,17.17,4.41,23.82-6.46.04-12.96-.02-19.42,0,.58-7.96-3-21.91,7.72-23.62,2.48-.4,4.84-.11,7.29-.21Z"/>
      <path class="cls-1" d="M775.24,644.88c-2.12,7.71-.34,15.32,3.53,22.06-5.58.04-11.2-.03-16.78,0,.02-6.67-1.44-17.5,5.94-20.98,2.86-1.35,4.71-.71,7.3-1.09Z"/>
      <path class="cls-1" d="M861.76,504.55c-8.94,12.04-4.9,27.86-8.83,41.48-1.72-.56-1.01-6.29-3.08-5.29-1.09.53-1.93,5.47-2.22,7.05-1.44-5.55-1.05-12.35-.94-18.18.03-1.86.94-2.84.94-3,1.08-.59,1.53-2.46,0-2.65.01-.59,0-1.18,0-1.77l5.78-11.44c3.02-3.11,4.01-5.21,8.35-6.22Z"/>
      <path class="cls-1" d="M817.62,494.84c3.75-7.51,7.91-2.89,8,3.95.03,2.23-.95,4.62-.94,4.88-1.77-2.14-4.94-7.43-7.06-8.83Z"/>
      <rect class="cls-7" x="30.95" y="675.77" width="973.85" height="23.83"/>
      <path class="cls-10" d="M734.62,652.83c-.38,6.24-4.82,11.04-10.76,12.63-192.77,1.43-385.76.16-578.62.64-7.48-.67-13.81-4.94-14.55-12.82l603.92-.45Z"/>
      <path class="cls-6" d="M721.38,643.11h-133.32c.24-1.63.88-3.11.93-4.81.54-17.32-2.01-39.18-.06-55.66.26-2.21.73-4,2.88-5.07,41.44-1.54,83.21-.17,124.77-.7,1.29-.56,4.81,2.6,4.81,3.14v63.1ZM701.07,597.22h-91.38c-1.92,0-1.92,8.83,0,8.83h91.38c.62,0,1.31-7.99,0-8.83ZM701.07,618.4h-91.38c-1.92,0-1.92,8.83,0,8.83h91.38v-8.83Z"/>
      <path class="cls-7" d="M901.49,652.82c-.5,8.42-6.62,12.69-14.53,13.28-29.29,2.18-61.32-1.64-90.9-.11-7.32-1.25-11.71-5.81-12.88-13.16h118.31Z"/>
      <path class="cls-1" d="M580.12,598.1c-.17,14,.24,27.94-.91,41.91.06.68-.63.98-.85,1.34l-1.76-29.13h-90.94c.2-4.68-.14-9.43,0-14.12h94.47Z"/>
      <path class="cls-6" d="M799.96,580.45v-73.7c0-1.62,5.28-5.54,7.47-5.62,2.94-.1,9.31,3.73,9.31,6.5v71.49c0,.09-1.23,1.32-1.32,1.32h-15.45Z"/>
      <path class="cls-8" d="M868.53,512.61c3.84-1.26,6.33,2.13,6.53,5.63-2.45,16.93-2.54,34.2-4.48,51.17-.96,8.39.59,13.84-10.22,10.2l4.93-58.73c.46-2.14,1.01-7.54,3.23-8.27Z"/>
      <path class="cls-5" d="M847.64,547.8c.29-1.58,1.13-6.52,2.22-7.05,2.07-1,1.36,4.73,3.08,5.29-.1,10.42-.58,21.02-1.72,31.38-.45,4.04-3.83,4.27-4.45.83-1.08-5.96-.28-24.24.88-30.44Z"/>
      <path class="cls-6" d="M802.61,589.28c.42,10.26-.96,20.77.88,30.89-1.48.96-.86,3.63-.88,5.3-.03,2.06.03,4.12,0,6.18-.06,4.11.05,8.25,0,12.36l-2.66-.53.02-55.08,2.64.88Z"/>
      <path class="cls-13" d="M847.64,526.61c0-.88-.02-1.77,0-2.65,1.53.19,1.08,2.06,0,2.65Z"/>
      <path class="cls-8" d="M312.6,578.69c-2.46.39-3.63-.52-3.58-3.04v-153.64c-.15-2.88,2.3-9.89,4.91-10.99,1.91-.8,1.47,2.32,1.29,2.92-.22.72-1.66.67-2.05,1.71-.09.24-.58,4.21-.58,4.63v158.42Z"/>
      <path class="cls-14" d="M313.48,592.81c-.22.08-.57-.03-.88,0,.4-1.57-1.58-2.95-1.77-3.53-.27-.85.18-2.5,0-3.53,1.37.57,4.91-.33,6.16,2.27.19.87-2.43,4.41-3.52,4.79Z"/>
      <path class="cls-16" d="M442.38,391.58c47.34-.04,94.72-.05,142.06.09,1.26,3.13-.07,5.98.02,9.19,1,33.18-.56,66.24.03,99.76.12,7.09,4.47,20.3-6.57,21.61h-211.95c-3.06-.04-6.12-.99-7.9-3.57.06-41.25-1.66-83.12-.46-124.43,19.55-.39,39.19.5,58.75.04,7.5-.18,15.36-.62,22.96-.92,1.7-.07,3.54.91,3.05-1.77ZM467.77,431.53c-29.67,3.82-26.68,48.81,4.15,48.33s30.51-52.79-4.15-48.33Z"/>
      <path class="cls-15" d="M585.41,381.87h-227.79v-18.98c0-2.83,4.38-6.46,7.46-5.78h212.86c3.52-.96,7.46,3.84,7.46,6.66v18.09ZM371.08,373.72c5.27,5.28,14.18-4.54,7.35-8.67s-11.1,4.92-7.35,8.67ZM399.79,365.31c-5.27-5.28-14.18,4.54-7.35,8.67,6.62,4,11.1-4.92,7.35-8.67ZM413.88,364.4c-3.94,1.17-4.9,9.03-.9,10.23,10.99,3.3,10.41-13.05.9-10.23Z"/>
      <path class="cls-12" d="M442.38,391.58c.49,2.67-1.35,1.7-3.05,1.77-7.6.3-15.46.74-22.96.92-19.56.47-39.2-.42-58.75-.04.03-.88-.04-1.77,0-2.65,28.24-.01,56.52.03,84.76,0Z"/>
      <path class="cls-8" d="M310.83,589.28c.18.58,2.16,1.96,1.77,3.53-5.62.61-7.86-3.02-1.77-3.53Z"/>
      <path class="cls-15" d="M740.57,442.96c14.66-1.31,18.55,22.51,3.24,24.44-17.81,2.25-19.16-23.02-3.24-24.44ZM740.57,450.84c-5.17,1.37-3.8,9.86,1.42,9.39,6.1-.55,5.52-11.23-1.42-9.39Z"/>
      <path class="cls-6" d="M218.82,588.58c14.42-1.43,25.01,15.54,17.18,27.83-5.82,9.14-17.52,12.39-26.63,5.89-14.53-10.38-7.39-32.05,9.45-33.72ZM230.22,600.85c-2.17.56-11.78,11.69-13.6,12.17-2.91.76-7.96-7.77-10.92-3.94-.65.85-1.04,1.42-.74,2.55.44,1.67,10.14,8,12.3,7.32,1.21-.38,15.9-12.83,16.34-13.8,1.1-2.43-1.14-4.87-3.38-4.29Z"/>
      <path class="cls-3" d="M701.07,597.22c1.31.84.62,8.83,0,8.83h-91.38c-1.92,0-1.92-8.83,0-8.83h91.38Z"/>
      <path class="cls-3" d="M701.07,618.4v8.83h-91.38c-1.92,0-1.92-8.83,0-8.83h91.38Z"/>
      <path class="cls-3" d="M803.49,620.17c.36,1.98,2.76,5.84-.88,5.3.02-1.67-.6-4.34.88-5.3Z"/>
      <path class="cls-9" d="M413.88,364.4c9.51-2.82,10.09,13.53-.9,10.23-4.01-1.2-3.04-9.06.9-10.23Z"/>
      <path class="cls-9" d="M399.79,365.31c3.75,3.75-.73,12.66-7.35,8.67-6.83-4.12,2.08-13.94,7.35-8.67Z"/>
      <path class="cls-9" d="M371.08,373.72c-3.75-3.75.73-12.66,7.35-8.67s-2.08,13.94-7.35,8.67Z"/>
      <path class="cls-9" d="M230.22,600.85c2.24-.58,4.48,1.87,3.38,4.29-.44.97-15.13,13.42-16.34,13.8-2.16.68-11.86-5.65-12.3-7.32-.3-1.13.09-1.7.74-2.55,2.96-3.83,8.01,4.7,10.92,3.94,1.82-.48,11.43-11.61,13.6-12.17Z"/>
      <path class="cls-6" d="M484.54,444.67c2.7-.54,4.84,2.76,3.33,5.17l-24.35,18.99c-3.19,1.11-12.08-9.35-10.17-11.99,5.58-4.23,6.74,5.25,10.44,4.34,4.38-1.08,16.71-15.7,20.74-16.51Z"/>
    </g>
  </g>
</svg>