<?xml version="1.0" encoding="UTF-8"?>
<svg xmlns="http://www.w3.org/2000/svg" viewBox="0 0 1024 1024">
  <defs>
    <style>
      .cls-1 {
        fill: #e4e5e7;
      }

      .cls-2 {
        fill: #e7e8ea;
      }

      .cls-3 {
        fill: #eaeced;
      }

      .cls-4 {
        fill: #dddee0;
      }

      .cls-5 {
        fill: #2f3030;
      }

      .cls-6 {
        fill: #7f7373;
      }

      .cls-7 {
        fill: #fbfcfc;
      }

      .cls-8 {
        fill: #343434;
      }

      .cls-9 {
        fill: #f1f3f4;
      }

      .cls-10 {
        fill: #e3e3e5;
      }

      .cls-11 {
        fill: #252526;
      }

      .cls-12 {
        fill: #fbfbfb;
      }

      .cls-13 {
        fill: #bdbec0;
      }

      .cls-14 {
        fill: #babcbe;
      }

      .cls-15 {
        fill: #fcfdfd;
      }
    </style>
  </defs>
  <g id="_검은색_배경" data-name="검은색 배경">
    <rect class="cls-6" x="0" y="0" width="1024" height="1024"/>
  </g>
  <g id="_레이어_1" data-name="레이어 1">
    <g>
      <path class="cls-5" d="M96.2,753.19c-.3-2.97-.07-6.05,3.35-6.61l77.25-.02-.93-67.74c1-5.22,10.94-3.15,15.14-4.76-4.89-6.11-18.89-8.31-15.71-18.52s21.16-4.65,27.08.04c-1.33-6.12-6.74-24.78,1.63-27.3,7.04-2.12,11.26,7.24,11.66,13.07l6.69-6.09,5.66-3.07-.03-179.9c.76-7.56,5.58-15.34,12-19.29,1.93-1.19,8.26-3.19,8.72-4.55l.18-44.34c-26.59-3.15-52.05-22.11-58.37-48.88-14.72-62.27,58.45-107.15,106.17-64.43,42.64,38.17,17.18,111.03-40.27,112.76v45.49h122.31v-36.49c0-.58,3.7-9.57,4.38-10.79,3.32-6.01,8.92-10.15,15.97-10.57l145.02.12c4.65.93,9.03,3.25,11.93,7.03,1.6,2.08,5.69,11.09,5.69,13.26v37.44h132.26c.37,0,5.92,2.23,6.81,2.67,5.31,2.65,14.52,12.62,14.52,18.65v39.33c30.68,2.02,61.6.41,92.38,1.01,2.7.42,7.76,3.76,9.12,6.05s.55,3.38.9,5.26c-1.7-.26-4.18.37-5.69,0-1.79-.44-4.07-4.49-7.09-3.81l-89.62.02c-.01,35.37.04,70.78,0,106.15,0,10.41.03,20.87,0,31.28-.07,27.96,2.67,63.58,0,90.5-.92,9.31-5.2,14.09-11.37,20.39h87.7c.58,0,9.97-3.25,10.9-3.79-.71,3,1.88,1.42,3.84,2.33.92.43,1.6,1.36,1.85,1.46,4.75,1.84,4.58.1,7.58,0,28.19-.91,56.56.75,84.77-.09,5.45-.76,10.06-5.69,10.04-11.28-1.57-.06-3.17.06-4.74,0l-.03-1.26c-2.97-1.11-1.74-3.58-1.87-6.32,7.02.21,14.77-1.77,14.15,7.91-.48,7.55-3.49,12.35-9.41,16.73-3.13-.12-5.79,2.16-8.97,1.93-267.77-1.76-536.03,2.63-803.56-.99ZM247.71,261.58c-39.29,3.87-63.38,46.74-46.13,82.52,19.63,40.71,79.9,43.29,101.8,3.47,22.34-40.61-9.53-90.53-55.68-85.98ZM399.32,379.03l-3.56,4.07c-.02,4.84,14.06,3.15,17.62,3.26,9.36.27,19.23,1.72,28.37,1.98,34.42.97,68.99-.84,103.43,0,8.48-1.15,2.31-9.65-3.81-9.54-39.48-.7-79.28.58-118.49,1.01-7.88.09-15.68-1.1-23.56-.78ZM554.14,395.89h-167.82v33.17h167.82v-33.17ZM366.42,436.64h-42.67c.52,1.22,1.68,7.24,1.95,7.52.37.38,7.92-.12,9.82.13,6.27.84,13.46,3.09,19.97,2.83,7.36-.29,5.02-5.38,6.6-7.7,1.25-1.83,5.08.61,4.32-2.79ZM392.01,436.64h-21.81c-.13,0,.33,1.62-.3,2.5-.46.64-1.58.45-2.14,2.14-2.56,7.72,6.89,3.24,11.39,3.93,2.01.31,3.5,1.99,5.67,1.85.49-.03,6.95-2.57,7.18-2.88s-1.73-5.65,0-7.54ZM412.68,436.86c-.59-.37-10.75-.58-11.14-.18-.31.31-1.4,7.14-1.93,8.48,3.56.89,7.63-1.15,10.79-.92,4.22.31,8.32,3.33,13.86.92-.99-9.68-5.94-4.41-9.84-5.8-1.23-.44-1.27-2.21-1.74-2.5ZM257.38,450.86c-.13-.12-1.35.32-1.71-.17-2.77-3.8-4.96-15.59-13.41-8.79s-4.79,15.36-4.75,24.64c.04,8.76,1.01,17.86.99,26.49,0,3.75-2.36,7.64-2.82,11.48-1.31,11.01,2.51,20.84,3.63,31.27.15,1.36-1.19,3.5-.81,4.04.19.27,1.93.54,2.77,1.51,2.14,2.47,3.07,5.34,6.61,6.7,9.66,3.71,16.21,9.81,25.43,13.44,30.75,12.08,70.49,21.45,102.57,31.1,20.11,6.05,40.35,11.64,60.21,18.47.72-5.17.41-9.56,5.31-12.73,1.18-.77,4.29-1.24,4.54-1.62.77-1.17-.26-10.73.18-13.56,1.02-6.48,7.69-15.19,14.15-17.13,12.29-3.7,22.91-1.02,31.28,8.57.75.86,5.45,7.32,5.57,7.78.63,2.48-1.95,11.63.59,14.49,1.2,1.35,3.55.69,5.2,1.43,4.4,1.98,7.16,9.77,12.78,9.01,21.35-6.03,42.62-12.33,63.87-18.7,32.32-9.69,69.12-18.92,100.66-30.17,3.19-1.14,12.86-4.98,15.18-6.65,1.75-1.26,9.04-12.05,9.28-13.34.21-1.16-.92-2.95-.77-4.59.93-10.31-1.43-12.05-1.66-19.95-.26-8.88,2.79-20.79,2.73-30.32-.05-7.11-4.39-13.75.1-21.67.82-1.45,2.85-1.15,2.78-2.97-.07-1.92-1.55-3.07-1.94-4.82-.31-1.37.14-3.05-.3-4.44-2-6.3-6.34-11.13-13.03-12.56-3.64-.78-29.55-1.26-32.52-.47-.82.22-6.63,7.67-8.75,7.65s-3.69-5.41-6.6-4.8c-2.21.46.49,5.34-4.89,5.65-3.44.2-1.92-1.71-4.17-3.23-5.13-3.47-8.84,3.11-14.79,3.22-2.99.06-4.77-2.71-8.21-1.69-2.07.62-2.48,3.71-5.9,3.73-2.36.01-2.82-4.82-4.28-6.24-2.43-2.37-10.09-1.33-13.71-1.45-5.32-.18-10.66-.83-16.18-.04-3.89.55-6.5,4.41-10.8,5.31-2.42.51-10.08.09-10.44.47-.22.23.12,5.09-2.43,5.63-3.11.66-3.55-11.91-12.56-7.9-1.83.81-1.05,3.35-4.4,3.19-4.11-.2-4.83-4.29-5.42-4.63-2.89-1.69-4.15,3.49-5.98,4.67-5.08,3.29-4.51-1.63-6.77-4.74-6.39-8.79-7.4,1.49-11.35,1.89-3.19.32-3.59-5.23-10.27-4.75-6.17.44-8.39,6.12-11.34,10.08-1.08,1.45-3.83,4.28-4.42,5.04-.11.15.1.96-.38,1.5-6.4,7.09-5.99,1.07-11.41.34-24.18-3.28-55.73,2.63-80.72-.03-3.14,3.59-2.73.55-6.51.03-24.84,2.04-53.48-2.52-77.85,0-2.92.3-9.54,3.95-10.72.39-.26-.79-1.38-6.92,1.76-6.03.62,1.85-.66,4.03,3.27,3.84l182.56-.05c.29-2.86.05-4.95-3.27-4.78l-182.56.05c-.69-3.01-2.76-11.23-6.92-11.19-1.43.01-5.32,1.92-6.38,3.1-.56.62-3.54,8.06-3.76,9.03-4.16-1.09-13.03-2.59-16.12.95ZM296.25,443.28c-1.6-1.42-4.27,1.21-2.83,2.83.89,1.01,3.85-1.93,2.83-2.83ZM695.41,741.82c5.16-.47,12.33-10.06,12.33-14.69v-175.81c-1.7.55-2.04,2.6-3.32,3.79-1.49,1.38-9,5.62-9,6.16v180.55ZM235.58,566.48c-.69,53.2.51,106.47.01,159.69.54,4.14,1.87,8.33,4.49,11.62,1.04,1.31,8.52,8.48,8.78,4.52-2.17-55.31,2.88-112.79.04-167.84-.1-1.86-.88-3.17-.99-4.2-.25-2.41.68-6.68-.46-8.55-.95-1.56-9.63-4.73-10.46-8.51-2.15-.39-1.31.93-1.41,2.35-.26,3.54.05,7.34,0,10.91ZM499.15,642.3c-.22,6.93-1.05,14.15-.99,21.37.05,5.6,2.42,8.14-1.05,14.03s-20.86,11.45-27.79,11.06c-5.86-.33-21.07-7.46-22.84-13.23-.92-13.26-.23-26.59-.42-39.86-.04-2.58.7-11.77-.9-12.84-.97-.65-2.92-.21-4.04-.7-6.22-2.77-12.2-6-18.98-7.56-55.29-16.08-110.01-34.48-165.69-49.03.29,3.24-.75,6.29-.95,9.48-3.36,52.58,2.5,108.63,0,161.58l.93,9.02,8.97.98h409.67s12.34-1.87,12.34-1.87c.5-54.25.76-108.76.41-163.08-.04-5.68.03-11.39,0-17.06-58.32,15.95-116.01,35.11-174.22,51.88l-15.01,6.84c.69,6.27.77,12.69.57,19ZM488.72,596.81c3.27-32.68-38.59-33.28-36.03,0h36.03ZM499.15,604.39h-54.99v10.43h54.52c2.37,0,1.34-9.88.47-10.43ZM453.64,622.4v49.76c0,2.52,11.74,7.74,14.69,8.06,5.13.55,19.07-2.11,21.81-6.64.38-.63,1.37-12.51,1.47-14.64.42-9,1.01-24.72,0-33.26-.11-.95-.43-3.27-1.47-3.27h-36.5ZM209.97,655.57c.64-6.12,1.2-11.02-.42-17.1-.68-2.56-1.12-4.29-4.3-3.74-2.42,1.59,1.17,18.77,4.72,20.85ZM227.99,639.46c-4.38-.54-12.33,10.44-12.33,13.74v14.22c0,.17,1.51,1.68,1.88,1.42-.85-4.33,10.44-10.13,10.44-10.9v-18.48ZM192.9,656.53c-4.34-1.33-10.25-3.32-12.25,2.23.98,1.48,4.77,5.67,6.55,4.39.15-.11.3-2.46,1.23-3.52,1.11-1.26,4.17-1.31,4.46-3.1ZM211.88,675.47c1.14-7.01-8.85-13.95-14.81-14.2-9.14-.38.25,12.37,3.45,13.71s7.92.09,11.36.49ZM228.93,665.05c-3.87-1.88-9.2,9.81-8.52,10.42,10.08,1.27,8.79-1.88,8.52-10.42ZM227.99,683.06h-44.56l.9,60.23c-.21.97.69,3.27,1.47,3.27h51.67c-3.02-4.07-9.48-12.48-9.48-17.53v-45.97Z"/>
      <path class="cls-4" d="M908.73,752.24c.19,0,1.46,1.04,3.21,1.02,16.95-.2,33.95-.35,50.88.36,5.27,1.71,4.32,17.55-4.27,15.73H63.45c-8.33,1.92-9.61-13.27-4.2-15.66,3.4-1.5,30.92-.58,36.95-.5,267.53,3.62,535.79-.77,803.56.99,3.18.22,5.83-2.05,8.97-1.93Z"/>
      <path class="cls-11" d="M817.72,502.04c.21,1.15,1.38,2.62.99,4.2l-.05,221.38c28.39.63,56.96-.86,85.33,0,.14,2.74-1.1,5.21,1.87,6.32l.03,1.26c-24.97-1.08-53.64-.77-78.69,0-2.5.08-7.67-.6-9.48.48s-5.64,9.9-9.49,10.89c-.25-.1-.93-1.03-1.85-1.46-1.96-.91-4.55.66-3.84-2.33,3.31-1.91,9.48-9.87,9.48-13.74v-218.93c0-.27.79-.98.8-1.86.02-1.88-1.3-4.08-.8-6.2,1.51.37,3.99-.26,5.69,0Z"/>
      <path class="cls-8" d="M476.4,453.7c.59-.76,3.34-3.6,4.42-5.04,2.95-3.96,5.17-9.64,11.34-10.08,6.69-.48,7.09,5.08,10.27,4.75,3.95-.4,4.96-10.68,11.35-1.89,2.26,3.11,1.7,8.03,6.77,4.74,1.82-1.18,3.08-6.37,5.98-4.67.59.35,1.31,4.43,5.42,4.63,3.34.17,2.56-2.37,4.4-3.19,9.02-4.01,9.45,8.56,12.56,7.9,2.56-.54,2.21-5.4,2.43-5.63.36-.38,8.02.04,10.44-.47,4.31-.91,6.91-4.76,10.8-5.31,5.51-.79,10.85-.14,16.18.04,3.61.12,11.28-.91,13.71,1.45,1.46,1.42,1.92,6.25,4.28,6.24,3.42-.02,3.83-3.12,5.9-3.73,3.43-1.02,5.22,1.74,8.21,1.69,5.95-.11,9.66-6.69,14.79-3.22,2.24,1.52.73,3.43,4.17,3.23,5.38-.31,2.68-5.19,4.89-5.65,2.91-.61,4.53,4.78,6.6,4.8s7.94-7.43,8.75-7.65c2.97-.79,28.88-.31,32.52.47,6.69,1.43,11.04,6.26,13.03,12.56.44,1.39-.01,3.07.3,4.44.39,1.75,1.87,2.9,1.94,4.82s-1.96,1.52-2.78,2.97c-4.49,7.92-.14,14.56-.1,21.67.06,9.53-2.98,21.44-2.73,30.32.23,7.9,2.6,9.64,1.66,19.95-.15,1.63.98,3.43.77,4.59-.24,1.29-7.53,12.08-9.28,13.34-2.32,1.67-11.98,5.51-15.18,6.65-31.53,11.25-68.34,20.48-100.66,30.17-21.25,6.37-42.51,12.67-63.87,18.7-5.62.76-8.39-7.03-12.78-9.01-1.65-.74-4-.09-5.2-1.43-2.55-2.86.04-12.01-.59-14.49-.12-.46-4.82-6.92-5.57-7.78-8.38-9.59-18.99-12.26-31.28-8.57-6.46,1.94-13.13,10.65-14.15,17.13-.44,2.83.59,12.39-.18,13.56-.25.38-3.36.86-4.54,1.62-4.9,3.17-4.58,7.56-5.31,12.73-19.86-6.84-40.11-12.42-60.21-18.47-32.08-9.66-71.82-19.02-102.57-31.1-9.22-3.62-15.77-9.73-25.43-13.44-3.54-1.36-4.47-4.23-6.61-6.7-.85-.98-2.58-1.25-2.77-1.51-.38-.54.95-2.68.81-4.04-1.11-10.43-4.94-20.25-3.63-31.27.46-3.83,2.81-7.72,2.82-11.48.02-8.63-.94-17.73-.99-26.49-.04-9.28-3.46-18.02,4.75-24.64s10.64,4.99,13.41,8.79c.35.48,1.58.04,1.71.17.17.17-.11,1.37,0,1.9-4.57-.24-7.75,12.11.48,12.4,2.25.08,1.54-2.46,2.88-3.82,3.69-3.76,8.33-5.74,13.71-4.8.78-1.54-.92-3.34-.95-3.79-.05-.8-.15-2.18,0-2.84.22-.97,3.21-8.42,3.76-9.03,1.06-1.18,4.95-3.09,6.38-3.1,4.16-.04,6.23,8.18,6.92,11.19.07.31-.09.68,0,.95-3.14-.89-2.02,5.24-1.76,6.03,1.18,3.56,7.79-.09,10.72-.39,24.37-2.52,53.01,2.03,77.85,0,3.78.53,3.37,3.56,6.51-.03,24.98,2.66,56.53-3.25,80.72.03,5.42.73,5.01,6.75,11.41-.34.49-.54.27-1.35.38-1.5Z"/>
      <path class="cls-3" d="M446.06,635.67c.19,13.27-.49,26.6.42,39.86,1.77,5.77,16.99,12.91,22.84,13.23,6.93.39,24.17-4.91,27.79-11.06s1.09-8.43,1.05-14.03c-.06-7.22.77-14.44.99-21.37l188.67-60.66c.34,54.32.09,108.83-.41,163.08l-12.34,1.88h-409.67s-8.97-.99-8.97-.99l-.93-9.02c2.49-52.95-3.37-109.01,0-161.58l190.57,60.66Z"/>
      <path class="cls-15" d="M812.03,502.04c-.5,2.12.82,4.32.8,6.2-.01.88-.8,1.58-.8,1.86v218.93c0,3.87-6.18,11.84-9.48,13.74-.94.54-10.33,3.79-10.9,3.79h-87.7c6.17-6.29,10.44-11.08,11.37-20.39,2.67-26.92-.06-62.55,0-90.5l66.78-.06c16.15-4.51,15.68-26.51-.16-30.99l-66.62-.22c.03-35.37-.02-70.78,0-106.15l89.62-.02c3.02-.68,5.3,3.37,7.09,3.81Z"/>
      <path class="cls-12" d="M247.71,261.58c46.14-4.54,78.02,45.37,55.68,85.98-21.91,39.82-82.17,37.25-101.8-3.47-17.25-35.78,6.84-78.65,46.13-82.52ZM272.55,285c-1.59-.12-2.92-1.51-4.28-.09l-43.6,44.64c-1.57,3.17,1.53,5,3.84,2.89l39.3-39.85v56.39c0,1.78,4.74,1.78,4.74,0v-63.97ZM257.38,313.43h-4.75c.67,5.22-.56,10.64-.75,15.64-.06,1.62.89,3.58.85,5.69-.07,3.4-3.94,17.92,3.1,15.52.5-.17,1.55-.99,1.55-1.3v-35.54ZM242.22,336.17h-4.75c.48,2.61-1.25,13.37,1.44,14.21,5.4,1.7,2.71-11.57,3.31-14.21Z"/>
      <path class="cls-13" d="M499.15,642.3c.2-6.31.12-12.73-.57-19l15.01-6.84c58.21-16.77,115.9-35.93,174.22-51.88.04,5.68-.03,11.39,0,17.06l-188.67,60.66Z"/>
      <path class="cls-13" d="M227.99,683.06v45.97c0,5.06,6.46,13.47,9.48,17.53h-51.67c-.79,0-1.68-2.3-1.47-3.27l-.9-60.23h44.56Z"/>
      <path class="cls-14" d="M446.06,635.67l-190.57-60.66c.2-3.19,1.24-6.24.95-9.48,55.68,14.56,110.4,32.95,165.69,49.03,6.79,1.56,12.77,4.79,18.98,7.56,1.11.5,3.07.06,4.04.7,1.6,1.07.87,10.26.9,12.84Z"/>
      <path class="cls-1" d="M247.9,570.27c.11,1.03.89,2.33.99,4.2,2.84,55.05-2.21,112.53-.04,167.84-.25,3.96-7.74-3.21-8.78-4.52-2.62-3.3-3.94-7.48-4.49-11.62.5-53.21-.7-106.49-.01-159.69,4.63-.65,7.72,3.8,12.33,3.79Z"/>
      <path class="cls-10" d="M695.41,741.82v-180.55c0-.55,7.51-4.79,9-6.16,1.28-1.19,1.63-3.24,3.32-3.79v175.81c0,4.63-7.17,14.22-12.33,14.69Z"/>
      <path class="cls-8" d="M399.32,379.03c7.88-.31,15.68.87,23.56.78,39.21-.43,79.01-1.71,118.49-1.01,6.13-.11,12.3,8.4,3.81,9.54-34.44-.85-69.01.96-103.43,0-9.13-.26-19.01-1.71-28.37-1.98-3.57-.1-17.65,1.59-17.62-3.26l3.56-4.07Z"/>
      <path class="cls-7" d="M905.89,735.18c1.57.07,3.17-.06,4.74,0,.02,5.59-4.58,10.52-10.04,11.28-28.21.84-56.58-.82-84.77.09l9.05-7.54,2.33-3.83c25.06-.77,53.72-1.08,78.69,0Z"/>
      <path class="cls-9" d="M476.4,453.7l-182.56.05c-3.93.19-2.65-1.99-3.27-3.84-.09-.27.07-.63,0-.95l182.56-.05c3.32-.16,3.56,1.92,3.27,4.78Z"/>
      <path class="cls-12" d="M499.15,604.39c.87.55,1.9,10.43-.47,10.43h-54.52v-10.43h54.99Z"/>
      <path class="cls-8" d="M366.42,436.64c.75,3.4-3.08.96-4.32,2.79-1.58,2.32.76,7.41-6.6,7.7-6.51.26-13.7-1.99-19.97-2.83-1.91-.25-9.46.25-9.82-.13-.27-.28-1.43-6.31-1.95-7.52h42.67Z"/>
      <path class="cls-9" d="M227.99,639.46v18.48c0,.77-11.29,6.57-10.44,10.9-.38.26-1.88-1.25-1.88-1.42v-14.22c0-3.3,7.95-14.28,12.33-13.74Z"/>
      <path class="cls-8" d="M392.01,436.64c-1.74,1.88.22,7.22,0,7.54s-6.69,2.85-7.18,2.88c-2.17.13-3.66-1.54-5.67-1.85-4.5-.69-13.95,3.79-11.39-3.93.56-1.69,1.68-1.49,2.14-2.14.63-.88.17-2.5.3-2.5h21.81Z"/>
      <path class="cls-9" d="M211.88,675.47c-3.44-.4-8.2.84-11.36-.49s-12.59-14.09-3.45-13.71c5.95.25,15.94,7.19,14.81,14.2Z"/>
      <path class="cls-8" d="M412.68,436.86c.47.29.5,2.06,1.74,2.5,3.9,1.39,8.85-3.88,9.84,5.8-5.54,2.41-9.64-.61-13.86-.92-3.17-.23-7.23,1.81-10.79.92.53-1.35,1.63-8.17,1.93-8.48.39-.4,10.55-.19,11.14.18Z"/>
      <path class="cls-13" d="M247.9,570.27c-4.6,0-7.69-4.44-12.33-3.79.05-3.58-.26-7.37,0-10.91.1-1.42-.74-2.74,1.41-2.35.83,3.78,9.5,6.95,10.46,8.51,1.14,1.86.21,6.14.46,8.55Z"/>
      <path class="cls-13" d="M827.2,735.18l-2.33,3.83-9.05,7.54c-3.01.1-2.83,1.84-7.58,0,3.85-.99,7.69-9.82,9.49-10.89s6.98-.4,9.48-.48Z"/>
      <path class="cls-2" d="M209.97,655.57c-3.55-2.07-7.14-19.25-4.72-20.85,3.18-.55,3.62,1.19,4.3,3.74,1.62,6.08,1.06,10.99.42,17.1Z"/>
      <path class="cls-3" d="M273.5,449.91c-.15.66-.05,2.04,0,2.84-5.09,2.5-11.34.25-16.12,0-.11-.53.17-1.73,0-1.9,3.09-3.54,11.96-2.03,16.12-.95Z"/>
      <path class="cls-2" d="M228.93,665.05c.26,8.54,1.55,11.69-8.52,10.42-.68-.61,4.66-12.3,8.52-10.42Z"/>
      <path class="cls-3" d="M192.9,656.53c-.29,1.78-3.35,1.83-4.46,3.1-.93,1.06-1.08,3.41-1.23,3.52-1.78,1.28-5.57-2.91-6.55-4.39,2-5.55,7.9-3.56,12.25-2.23Z"/>
      <path class="cls-8" d="M296.25,443.28c1.02.91-1.94,3.85-2.83,2.83-1.43-1.62,1.24-4.26,2.83-2.83Z"/>
      <path class="cls-5" d="M257.38,452.75c4.78.25,11.03,2.5,16.12,0,.03.45,1.73,2.25.95,3.79-5.37-.94-10.02,1.04-13.71,4.8-1.33,1.36-.63,3.9-2.88,3.82-8.23-.29-5.05-12.65-.48-12.4Z"/>
      <path class="cls-8" d="M272.55,285v63.97c0,1.78-4.74,1.78-4.74,0v-56.39l-39.3,39.85c-2.31,2.12-5.41.28-3.84-2.89l43.6-44.64c1.36-1.42,2.69-.03,4.28.09Z"/>
      <path class="cls-8" d="M257.38,313.43v35.54c0,.31-1.05,1.13-1.55,1.3-7.04,2.41-3.17-12.12-3.1-15.52.04-2.11-.91-4.07-.85-5.69.19-5,1.42-10.41.75-15.64h4.75Z"/>
      <path class="cls-8" d="M242.22,336.17c-.6,2.64,2.08,15.91-3.31,14.21-2.68-.84-.95-11.6-1.44-14.21h4.75Z"/>
      <path class="cls-8" d="M470.38,658.62c5.72-.53,6.71,9.48.65,10.02s-6.57-9.47-.65-10.02Z"/>
    </g>
  </g>
</svg>