<?xml version="1.0" encoding="UTF-8"?>
<svg xmlns="http://www.w3.org/2000/svg" viewBox="0 0 1024 1024">
  <defs>
    <style>
      .cls-1 {
        fill: #323232;
      }

      .cls-2 {
        fill: #fafafb;
      }

      .cls-3 {
        fill: #c3c6c7;
      }

      .cls-4 {
        fill: #f6f6f7;
      }

      .cls-5 {
        fill: #7f7373;
      }

      .cls-6 {
        fill: #fff;
        opacity: .5;
      }

      .cls-7 {
        fill: #313232;
      }

      .cls-8 {
        fill: #f8f9f9;
      }

      .cls-9 {
        fill: #ececed;
      }

      .cls-10 {
        fill: #e2e3e3;
      }

      .cls-11 {
        fill: #818282;
      }

      .cls-12 {
        fill: #c7c9cb;
      }

      .cls-13 {
        fill: #313131;
      }

      .cls-14 {
        fill: #333;
      }
    </style>
  </defs>
  <g id="_검은색_배경" data-name="검은색 배경">
    <rect class="cls-5" x="0" y="0" width="1024" height="1024"/>
  </g>
  <g id="_레이어_1" data-name="레이어 1">
    <path class="cls-13" d="M644.4,406.62c-7,6.39-13.08,13.84-20.51,19.95-17.6,14.47-41.21,29.88-64.43,30.99,1.16,10.51-5.03,18.3-8.07,27.35,35.31,15.55,76.03,22.32,109.66,41.41,9.5,5.39,14.42,9.07,21.32,17.15-.83,1.37-1.63,4.62-.87,5.86.52.86,6.37,2.38,4.86-.87,1.03,1.84,1.03,1.45,2,4-2.55-.23-7.82,3.7-8.89,5.6-2.37,4.18-5.62,16.99-6.13,21.84-.27,2.57-.49,8.19,1.04,10.01.6.71,8.57,5.58,9.43,5.57.71,0,1.13-3.72,3.55-3.07-6.11,28.52-16.05,55.53-24.98,82.91-3.37-.3-4.51-5.24-6.7-5.87-8.86-2.56-9.06,12.1-13.09,16.53.61,1.27,3.51,7.98,3.88,8.25,1.19.86,8.26-3.41,10.92-1.93-3.39,10.13-7.55,20.13-10.99,29.97-2.54-3.7-15.99.25-16.83,2.66-.98,2.82,1.24,8.01,3.57,9.39,2.58,1.54,6.38-.76,9.26-.07-5.54,15.51-10.43,31.35-16.13,46.81-5.99.99-19.6-3.01-12.84,6.63,6.1,8.69,35.04,12.3,45.28,19.66,6.38,4.58,7.66,9.51,9.25,16.86,12.5-.69,25.41,1.16,37.7-1,16.33-20.66,33.62-40.56,49.69-61.46,1.33-1.73,4.23-3.51,4.97-4.53,2.17,1.82,3.48-1.88,6.37-.93s.81,7.35,4.62,6.93c-.33,8.17-1.03,16.93-1,24.97l-5-1c-.04-8.48.02-16.98,0-25.47.12-.87-1.92-.58-2-.5-2.58-.11-3.27,1.66-3,4-12.78,14.86-34.22,39.29-44.38,55.02-.79,1.23-1.87,2.26-1.58,3.91,16.97.03,33.98-.02,50.96,0,1.99,0,4.01,0,6,0,15.97-.03,31.99.02,47.96,0,.54-.48-2.39-5.04-2.99-5.99l1.01-4.99h-4c-.38-2.51,1.99-3.27,4-3,1.47,1.9,9.66,12.5,10.42,13.06,4.4,3.2,27.8-.81,35.07-.1,18.05,1.74,36.5.17,54.93,1.04,2.51.12,7.81-2.68,10.04.98,1.42,2.34-.49,3.85-.54,5H100.81c.02-1.07-1.85-4.06-1-5.99l94.93-1v-43.45c0-.38,2.27-3.5,2.5-3.5h31.48c.49-12.27-8.68-26.35,11-22.97,0-26.96,0-53.96,0-80.91h6.99c.04,26.96-.03,53.96,0,80.91,2.34-.36,9.97,1.41,9.8-2.26-.07-1.49-.96-3.14-.89-5.22.76-20.56-.95-41.61.04-61.99.16-3.34.79-15.9,3.07-16.99.86-.41,3.98.36,3.98.56v85.9c4.37.46,9.61-1.09,13.55.93,2.39,3.44-3.32,17.47-3.56,22.04h32.48c2.65,0,1.5,4.86,1.5,5.49v41.45h73.95s32.97-230.74,32.97-230.74c.21-5.58.14-5.83-5.99-5.99l1,5.99c-3.11,0-6.25,0-9.37.04-1.22-.24-.42-1.54-.62-2.04,1.68-1.57,1.67-6.46,0-7.99.31-3.61,1.18-8.27-3-6.99.72-1.09,1.41-3.64,2-4.99.65-.27,1.38-1.65,2-2,.29-.16.6-1.23,1.28-1.69,1.65-1.11,5.77.08,5.71-4.31,1.88-.02,10.55.33,10.99,0,2.12.24,2.24.13,2-2,17.23-3.67,32.69-16.63,42.78-30.65,10.18-14.15,14.15-34.29,34.67-36.27,13.66-1.32,22.69,4.52,36.79-3.18,18.94-10.36,24.35-31.3,15.67-50.77,1.7-4.11,5.76-.06,8.99-1l-.99-6.99c19.99-6.94,40.48-19.76,60.91-26.53,1.79-.44,1.64-2.96,2.04-3.43,3.27-3.84,8.85-8.8,14.44-8.02,2.92.41,2.96,2.94,4.54,4.52,2.68,2.67,5.83,3.18,5,8.49ZM509.5,499.51c-5.55-.02-13.47-.88-18.39,1.1-4.56,1.83-11.54,9.72-12.1,14.86,9.06-7.33,20.55-13.57,32.49-13.96.53-.02,6.08.85,7.99,1,22.85,1.8,64.47,12.41,87.15,19.26,22.82,6.89,40.03,18.16,41.74,44.18.57,8.75-1.7,25.79-10.97,29.45.28,2.92-.95,3.25-2,4.99-2.67-.06-3.38-1.51-3-3.99,1.62-.14,3.5-.42,5-1.01-.81-8.35-6.92,1.75-7.63,1.95-2.25.66-3.34-2.85-6.34-1.49-.46.21-6.96,6.24-7.33,6.82-2.41,3.78-.43,4.88-.73,8.07-.74,8.03-6.04,4.29-10.91,8.16-.59.47-5.31,6.04-5.51,6.47-2.02,4.31,1,5.67,1.2,8.28.47,6.25-5.58,2.24-7.28,4.62-.85,1.2-.79,4.71.5,5.64,6.06,4.35,9.28-15.1,17.06-11.56-10.65,14.29-20.28,29.44-31.98,42.95.21-.72,1.16-7.57.92-7.89-1.56-2.12-7.79-2.43-9.42.89-2.8,5.7,2.14,9.04,7.5,9-4.59,9.67-21.76,28.56-28.98,37.96-.75-2.62-7.66-6.94-8.98-3.48-1.08,2.8,5.57,6.22,7.98,5.48-2.1,2.71-11.25,16.19-12.99,16.98-1.23.56-3.65-1.16-3,1.49.29,1.18,2.34.15,3,.51.45.25,3.07,3.94,4.51,4.99,2.89,2.11,30.51,13.23,32.97,13.03.85-.07,1.56-.21,2.03-1.01,2.16-10.5,4.84-20.91,7.74-31.21,5.44-19.33,12.18-49.54,19.97-66.94,16.95-37.84,65.57-57.3,47.69-106.65,3.55.53,2.96-4.18-1-3-.29-.62-.67-1.4-1-2,3.18-3.31-1.16-6.61-1-2-12.71-19.54-36.89-24.95-58.13-30.29-14.51-3.65-41.79-11.22-55.58-12.45-4.7-.42-8.74,1.96-13.2,1.79-3.04-.12-6.25-.99-9.99-1ZM560.32,516.69c-.17-.3-4.8-4.1-5.33-4.2-1.45-.27-9.74-1.14-11.02-1.07s-2.88.3-3.48,1.6c-.87,1.87,4.49,2.64,4.88,5.12.21,1.35-3.54,3.91-1.41,7.36.92,1.5,4.42,1.91,5.78,2.95,2.04,1.56,2.1,4.68,6.34,5.04.61.05,8.09-1.71,8.39-2.02,2.67-2.69-5.47-5.05-5.83-6.57-.39-1.65,2.29-7.14,1.68-8.22ZM498.51,513.5h-3.99s0,2.99,0,2.99c1.84.23,2.93.06,3.98-1.51v-1.48ZM522.44,525.54c-2.63-2.1-12.94,1.54-11.94-2.54l4-4c-1.96-1.89-6.13-4.83-8.78-3.27-.59.34-.8,2.65-3.17,3.38-2.14.66-7.39-2.01-8.02.9-.58,2.68,10.49,8.24,12.54,8.44,1.46.15,3.03-.95,4.7-.74,4.74.61,11.74,6.26,10.68-2.17ZM493.51,519.49c.09-4.1-5.07-4.1-4.99,0h4.99ZM525.48,518.51c-.76-1.11-7.27-1.87-5.98,2.47,1.04,3.47,8.19.77,5.98-2.47ZM446.55,557.45c-2.96-.26-5.98.12-7.97,2.5,0,2.69,38.02,12.03,42.74,13.2,15.58,3.86,31.42,6.86,47.07,10.38,2.8,12.42-7.1,8.71-15.88,8.89-2.71.06-5.33,0-7.99,0-14.64.04-29.33-.05-43.97,0-1.23-5.62,5.28-1.59,8.02-3.48,1.05-.72,1.45-2.66.93-3.46-.42-.64-13.14-4.92-14.55-5.02-3.52-.26-7.96,2.24-10.84,1.94-1.83-.2-2.97-2.24-6.03-2.09-2.36.12-7.01,5.53-10.48,6.63-.46,2.29,3.19,1.7,4.84,2.17,2.54.73,2.45.3,2.15,3.31-4.44.08-8.92-.02-13.37-.06l-.66.7-16.94,117.23h105.92c.2,0-.04-2.68.48-3.98,5.38-13.46,9.55-15.04,7.51-30.98,1.97-2.15,1.41-11.6-2-10.99-.02-1.31-.1-2.69,0-4s3.21-4.52-1-4c-.35-2.61-.59-5.41-1-7.99,2.74-5.06-.93-11.78-.73-17.24.1-2.59.65-4.53,3.72-3.74.06.6.07,1.4,0,2-.19,1.71-3.25,5.57,1,4.99-.05.99.08,2.01,0,3,0,.11-1.4.91-.99,1.99.58.11,1.86-.16,1.99,0,.13.15.08,3.36,0,4-.22,1.78-3.22,5.56,1,4.99.37,2.98.62,6.03,1,8.99-1.91,1.72-1.67,4.83,1,4,.3,3.01,1.19,6.07,1,8.99-.01.2-2.17,2.45-.97,3.98.12.15,3.47,1.32,2.97.02,13.6-30.15,28.96-59.45,43.97-88.9.14-.28,1.55-.13.99-1.99-1.38-.47-1.88.98-1.99.99-2.8.37-3.95-.91-5-1-.52-2.31,1.9-2.07,2.78-3.67,3.82-6.99,1.66-5.16-1.78-8.81-1.66-1.75-1.46-3.86-4.51-4.48-1.66-.34-10.8.26-11.45,1.01-.75.87.95,4.21.88,5.52-.11,1.89-2.75,4.75-.9,8.43-4.1-.73-8.03-2.22-11.99-3,.53-6.31,9.84-1.77,8.99-8.98-5.16-1.46-4.59,1.57-5.97,2.51-1.02.69-9.47-2.36-9.85-2.73-.46-.43.18-2.2-.74-2.88-.72-.53-9.92-2.09-10.74-1.81-1.37.46-1.52,2.35-2.23,2.88-1.25.95-6.7,1.92-1.91,2.98,3.32.74,5.6.13,5.47,5.03-23.32-4.9-45.95-11.11-68.95-16.98-.03-4.33,5.01-2.42,7.35-3.96.7-.46.69-3.58,2.62-2.02.2.16-.11,1.91,1.69,2.79s10.51,3.25,11.89,1.26c2.49-3.57-1.55-4.27-1.6-4.56-.68-4.16,4.28-3.71,4.87-4.65.81-1.28-.37-5.77.35-8.14.78-2.55,4.94-3.13,1.68-8.12-1.33-2.03-4.28-1.35-2.88-6.57-8.72-1.35-7.91,7.03-11.01,12.48-3.58,6.3-7.87,5.56-11.52,9.46-2.3,2.45-4.51,7.95-6.45,11.04ZM539.99,527.49c-2.45.55-1.96,6.64.97,5.98,2.45-.55,1.96-6.64-.97-5.98ZM616.42,530.48c-1.09-1.09-3.08.9-1.99,1.99s3.08-.9,1.99-1.99ZM514.58,532.56c-2.42,3.34,3.61,5.87,4.95,7.38,1.47,1.65,1.39,6.82,5.98,4.05,3.27-1.97,1.43-9.66-1.01-11.09-1.1-.64-2.71.59-4.26.35-.85-.13-4.03-2.94-5.66-.68ZM664.38,531.48c-.96-1.07-4.06,2.04-2.99,2.99,1.71,1.51,4.49-1.3,2.99-2.99ZM608.43,543.48c-.12-.14-2.49-.2-3.69-.79-3.11-1.54-5.04-4.32-8.3-4.21,2.89,10.58-8.68,5.09-11.85,7.14-.48.31-.54,2.42-1.26,3.24-.91,1.02-2.36,1.52-2.9,2.33-2.56,3.89,1.03,3.35,2.05,5s1.47,4.46,2.91,5.83,3.66,1.27,3.91,1.56c.84.97-1.57,8.83,4.54,6.78,2.2-.74,1.57-4.04,1.6-5.92,4.89-1.24,5.57,4.54,9.98,4.01-.44-7.07,6.63-7.2,2.42-14.91-.82-1.5-4.42-3.55-3.41-5.05.2-.3,6.35-2.26,3.99-5ZM629.2,540.74c-3.01-1.49-2.53,1.46-3.48,1.7-2.29.57-10.63-.16-7.85,5.05,2.47,4.64,14.68,2.92,14.6-2.55,0-.5-3.04-4.08-3.28-4.2ZM577.17,561.18c6.2-6.32-13.42-7.18-7.7,3.25.87.6,6.95-2.49,7.7-3.25ZM582.44,565.45c-1.93-1.93-6.17,3.17-2.48,3.99,2.1.46,3.2-3.26,2.48-3.99ZM603.43,593.4c-.44-2.69,3.37-3.67,3.84-5.67.36-1.55-1.02-3.64-.85-5.71.24-2.93,7.09-12.09-1.27-10.41-5.08,1.02-6.9,8.12-9.06,11.5-.3.47-1.52.69-2.07,1.42-.87,1.15-.28,4.8-2.67,2.27-.81-.85-1-2.96-2.94-3.84-.81-.36-8.65-1.86-8.96-1.53-.13.15.1,2.61-.56,3.93-.85,1.71-3.44,3.86-3.43,5.56.01,2.03,4.32,5.69,2.54,8.5-2.15,3.42-13.31,1.88-12.55,5.47,5.24,4.42,14.5,4.66,21.26,3.29,4.03-.82,7.75-4.84,13.44-4.5,1.7.1,2.93,2.2,4.75,1.73,2.37-.6.3-3.88.96-4.99s4.01-1.42,3.55-3.49c-1.49-1.86-3.55-3.31-5.99-3.53ZM641.92,571.44c-3.23.69-4.04,8.73,1.9,6.92,2.95-.9.34-7.4-1.9-6.92ZM447.54,575.43c-1.58-1.58-4.57,1.4-2.99,2.99s4.57-1.4,2.99-2.99ZM506.5,588.41c1-8.31-11.86-3.02-8.99,0h8.99ZM404.57,585.42c-1.09-1.09-3.08.9-1.99,1.99s3.08-.9,1.99-1.99ZM672.28,615.47c-3.89-2.48-2.51,2.48-1.89,4.91,3.35.85,3.19-4.08,1.89-4.91ZM621.41,689.3c.46-4.24-1.27-15.21-5-17.47-.54-.33-10.79-1.36-12.63-1.46-4.64-.25-3.82,7.12-3.43,10.5.17,1.49,3.73,2.56,2.07,4.43-.34.39-7.14-3.03-6,4.99,3.98-1.68,4.65,2.8,5.53,3.01,1,.24,2.16-1.48,3.24-1.74,3.44-.84,7.56-3.09,8.77-3.29,2.59-.43,4.91,1.08,7.44,1.02ZM562.45,687.31c-.19-.15-1.36.06-1.98,0,.32,9.87,5.48,2.9,1.98,0ZM505.5,717.27h-102.92l-14.99,106.88h150.89l-6-42.95h-46.97c2.85-12.12,5.88-24.91,9.73-36.72,3.02-9.27,7.24-17.97,10.26-27.21ZM526.49,735.27l-17.36-8.95c-3.55,4.45-6.51,10.03-5.56,15.88,8.34,1.31,20.5,3.86,22.92-6.92ZM621.41,737.25h-2.99v1.99h2.99v-1.99ZM269.68,759.22h-35.97c.25,2.74.65,15.65,1.94,16.54h30.1s3.94-16.54,3.94-16.54ZM575.45,781.2h-35.97l6,42.95h24.98c-.46-14.6.79-29.03,5-42.95ZM604.43,781.2h-21.48c-.79,0-4.81,8.25-3.41,9.91.37.44,10.06,2.16,11.38,2.12,6.49-.21,12.45-5.75,13.52-12.03ZM300.66,783.2h-98.93v40.95h97.43c.11,0,1.5-1.39,1.5-1.5v-39.46ZM599.42,810.17c-2.29-2.02-4.66,3.29-5.71,4.03-2.85,2.01-12.78,5.02-9.33,9.53,1.44,1.88,5.25,2.9,7.55,2.47,3.33-.62,1.56-5.1,8.94-4,3.39.51,4.91,3.75,8.59-.51,2.96-3.43-3.28-3.07-6.53-5.52-3.22-2.42-3.24-5.76-3.51-6Z"/>
    <path class="cls-7" d="M387.59,458.56c-21.08-9.29-43.17-19.41-62.47-31.94-20.09-13.04-39.22-27.34-23.09-53.09,17.76-28.35,80.69-71.83,112.79-81.04,4.39-1.26,17.23-2.66,19.2-4.78,1.41-1.53,9.4-18.57,9.53-20.5.2-2.9-8.06-14.66-8.9-20.98-.95-7.12,1.14-10.91,1.81-17,1.22-11.17.03-22.78,10.6-30.36,5.53-3.97,9.13-2.74,14.53-4.46,9.75-3.1,13.59-7.44,24.95-4.06,5.48,1.64,9.32,5.52,14.28,7.7,6.78,2.98,14.32,3.32,20.07,8.9,8.93,8.68,9.01,27.41,1.13,36.87-3.26,3.91-9.02,4.79-9.61,5.61-.88,1.23-1.74,11.82-2.63,15.13-3.33,12.4-12.38,26.66-25.84,29.1-1.81.33-6.73-.33-7.32.18-.4.35-.23,2.74-.78,3.67-1.02,1.73-2.74.6-2.31,2.71,38.31,19.05,51.79,63.53,73.43,97.49.8,2.34-2.48,3.47,3.5,3.26,25.33-11.84,52.48-20.39,77.84-31.91,8.84-4.02,5.55-4.04,9.64-10.34,1.03-1.59,5.65-6.04,7.39-6.59,7.73-2.42,11.38,3.33,16.46,2.53,1.1-.17,6.34-2.76,7.54-3.52,1.55-.99,3.62-4.24,4.04-4.45,1.23-.64,5.64-1.97,7.99-3,1.46-.64,4.07-.55,5-1,.39-.19.66-.77,1-1,2.39-.5,4.61-1.45,6.99-2,1.21-.28,3.07.38,4.31.03,1.16-.33.59-1.97.68-2.02.64-.39,2.94-.69,4-1,3.21-.94,2.63-.88,5-2,.82-.38,3.86-.85,3.99-1.01.34-.43-5.95-8.91-1.34-10.03,8.43-2.06,2.77,8.18,8.34,8.04l1.37.92.63-.92c1.11.25,1.78.95,2,1-.2,5.12-8.54,2.7-9.98,5.51-1.83,3.56,8.85-1.58,7.98,2.97-.17.7-10.31,7.54-11.75,8.24-2.8,1.37-17.36,6.67-19.87,6.95-3.14.36-6.1-.98-3.32-4.16.93-1.05,3.55-1.03,2.95-3.53-4.57,1.41-24.9,1.78-21.98,9.98-7.73.83-3.47,9.49,2,4,1.07,1.87,2.89,2.02,3.49,3.03.76,1.27.27,3.63.55,3.91.55.55,8.06-1.1,6.95,6.05-14.86-.73-9.57,7.78-14.98,16.22-3.22,5.02-9.41,4.81-12.93,7.32-.81.58-6.54,6.04-8.06,7.43.83-5.31-2.32-5.82-5-8.49-1.58-1.58-1.63-4.12-4.54-4.52-5.59-.78-11.17,4.18-14.44,8.02l-4.78-.35-64.15,27.37c.52,4.98,1.83,4.39,5.98,2.95l.99,6.99c-3.23.94-7.29-3.1-8.99,1-.7-1.57-3.61-6.62-5.05-6.58l-41.73,16.75c-.97,14.96-14.08,25.91-29.24,22.37-3.84-.9-11.63-7.24-14.39-6.6-3.2.74-3.76,7.35-6.61,10.43-1.29,1.4-10.01,6.47-11.87,7.12-7.35,2.54-15.12.44-22.01-2.53-.31,4.92,6.83,13.17,4.07,17.31-.47.71-14.92,6.46-15.77,6.47-5.09.06-11.95-21.57-14.09-26.47-2.89-6.59-7.07-7.99-5.19-16.29l4.76,1.25c2.22,4.02,12.84,32.58,14.39,33.54,2.45,1.51,7.4-1.25,9.85-2.34-3.97-6-8.37-23.97-12.55-28.41-2.22-2.36-12.81-5.43-16.45-7.03ZM505.37,247.93c-6.21-1.4-26.91-10.65-31.86-7.64-1.72,1.05-1.34,5.27-4.5,5.58-3.93.38-5.43-7.36-11.89-7.04-7.67.37-3.73,10.6-3.96,15.3-.84,17.06-8.05,21.2-12.8,34.94-7.12,20.59,11.34,33.54,24.4,15.4,1.48-2.06,6-10.03,5.58-12.09-.44-2.21-13.98-8.41-6.81-12.15,3.13-1.63,6.87,4.48,10.27,5.76,20.9,7.86,32.44-21.77,31.56-38.05ZM662.39,372.66c5.57-.96,3.09-6.04-2-4.99-2.32-5.45-7.78-12.94-14.55-9.04-5.06,2.92-9.89,21.51-8,27.09.34.99,5.9,6.71,6.82,7.18,2.3,1.16,9.07.11,11.44-1.04,6.49-3.15,7.29-12.85,6.28-19.19ZM487.52,433.59c-4.19,1.72-33.53,12.55-33.97,14.5-.14,1.59,1.12,2.33,2.52,2.53,2.84.4,24.61-8.93,29.21-10.82,1.35-.55,2.06-2.14,2.24-2.21,13.35-5.52,27.68-10.04,40.97-15.48,34.11-13.97,67.96-28.87,102.01-42.86.98-1.25,2.11-5.12-.61-4.62-47.68,18.89-94.9,39.43-142.38,58.97ZM533.45,408.57c1.7-1.96-10.62-18.25-12.93-20.45-12.55-11.94-30.23-14-45.29-5.27-19.94,11.56-17.13,34.2-47.06,30.66-7.56-.89-16.77-5.98-24.38-6.68-2.96-.27-5.1,1-7.45.63-1.93-.3-12.18-6.29-13.01-8.06-1.73-3.69.7-16.15-2.26-16.74-1.06-.21-17.44,9.47-17.44,10.49,19.86,12.68,40.08,29.02,60.63,40.26,7.29,3.99,9.16,2.94,15.85,5.13,2.65.87,6.39,4.47,9.07,4.75,7.47.78,6.43-6.7,10.35-11.21,5.34-6.15,13.63-8.44,21.57-7.54,4.25.48,6.56,3.49,11.09,1.23l41.26-17.19ZM466.53,453.57c-2.24.98-5.55.98-7.55,2.94-1.14,1.12-2.2,4.26-1.43,5.05,1.53,1.59,8.59-3.42,9.99-3.99,53.38-21.9,106.77-43.42,159.57-66.74,1.58-.7,7.52-2.79,5.31-5.18-.87-.93-16.38,5.72-18.77,6.69-49.06,20.06-98.54,40.03-147.1,61.22ZM448.54,401.63l-12.98,5.98c4.2.39,7.78-1.07,11.11-3.39.56-.39,3.6-1.12,1.87-2.58ZM418.15,469.91c5.08,9.3,16.58,9.98,25.45,5.18,21.95-11.86-5.64-43.67-20.48-27.46-3.74,4.09-7.41,16.04-6.5,21.3.14.8,1.34.64,1.52.98Z"/>
    <path class="cls-14" d="M817.27,810.17c-2.01-.27-4.38.49-4,3h4s-1.01,4.99-1.01,4.99c-.83-1.31-2.57-4.42-3-4.99-12.51-16.85-28.84-33.45-40.96-51.45-1.46-1.33-.97.59-1.01,1.51-3.81.43-1.6-5.94-4.62-6.93s-4.2,2.75-6.37.93c.63-.87,2.16-6.34,4.55-7.94l.49-223.35-1.05-5.45h-79.44c-.71,0-3.06-3.08-2.46-4.35l20.77-97.21c.68-3.17,2.3-4.95,5.62-5.37,21.18-2.72,48.22,2.1,70.04.09,5.38-2.18,10.11,0,14.91,0,19.38.03,46.77-2.29,65.04-.09,4.87.59,3.71,4.11,3.19,8.29-3.74,30.19-15.13,62.32-19,92.88.03,1.41-2.16,5.76-3.23,5.76h-66.95c-.11,0-1.5,1.39-1.5,1.5v226.75c15.26,20.43,30.47,41.41,45.97,61.43ZM778.3,420.6h-67.45l-19.48,87.9,86.93-87.9ZM854.25,420.6h-64.95l47.46,86.91,17.49-86.91ZM776.8,432.59v1c.65-.33.65-.67,0-1ZM832.26,513.5l-45.96-80.91-14,80.91h59.96ZM697.36,513.5h65.95l12.48-78.92-78.43,78.92Z"/>
    <path class="cls-6" d="M652.15,187.12c34.17-4.65,61.19,27.79,48.39,60.35-14.12,35.89-66.41,36.84-81.98,1.68-11.61-26.23,4.93-58.13,33.59-62.03ZM656.39,209.34c-1.83,5.89,1.37,21.43,0,28.47-22.33-5.84-22.63,28.26-.97,22.5,11.18-2.97,7.07-12.44,6.92-19.96-.17-8.16.2-16.36.05-24.51,6.08.55,16.41,7.1,14.55,13.99-.73,2.71-7.5,8.51-2.94,9.9,2.85.87,5.32-1.87,6.8-3.99,6.32-9.01,1.16-16.67-6.69-22.13-2.8-1.95-16.28-8.87-17.72-4.27Z"/>
    <path class="cls-9" d="M166.26,220.82h95.93c.11,0,1.5,1.39,1.5,1.5v111.88c0,.11-1.39,1.5-1.5,1.5h-95.93c-.11,0-1.5-1.39-1.5-1.5v-111.88c0-.27,1.17-.99,1.5-1.5ZM253.69,232.81h-78.94v90.9h78.94v-90.9Z"/>
    <path class="cls-3" d="M325.64,434.59c.45.91,3.02,2.03,3,4-1.48,1.22-4.44,14.81-4.86,17.62-6.98,46.69,27.12,104.99,75.81,112.24-.62.35-1.35,1.73-2,2-27.94,11.6-58.6-16.56-71.47-38.94-16.71-29.06-26.09-70.28-.48-96.91Z"/>
    <path class="cls-13" d="M726.34,332.7c-.11,3.1,2.4,3.27,5,3,1.41,1.16,1.86,1.27,3,3l-.99.51c-.85,3.68,1.46,2.04,1.99,2.49.66.57.68,1.37,1,2-2.98-.88-3.18,3.77,0,3-.64,5.4-1.11,6.38-4.95,10.54-.99,1.08-5.02,3.55-5.03,3.94,0,.25,2.38,2.34,2.79,4.22.93,4.16-.88,6.38-5.21,5.33-1.2-.29-.39-1.61-.6-2.05,6.81,1.12,5.13-5.54-1-2-.31-.7-1.22-3.07-1.49-2.99-1.98,1.46-3.84,1.27-2.51,3.99-5.7-.96-3.44,6.43,2,4.99-.27,1.56-2.61,3.44-4.37,2.94-3.12-.89-.76-8.09-7.62-6.93-.74.12-4.67,1.82-5.72,2.31-.46.21-.2,1.64-.27,1.68-.86.44-2.83.64-4,1-1.68.52-4,.51-5.26,1.04-1.16.48-.65,1.91-.74,1.96-2.03,1.25-9.89-.9-11.99-1,1.11-7.15-6.4-5.49-6.95-6.05-.28-.28.21-2.64-.55-3.91-.6-1-2.43-1.16-3.49-3.03-.19-.33.13-1.5-.22-2.32-.49-1.15-1.74-1.56-1.78-1.67-2.92-8.2,17.41-8.58,21.98-9.98.6,2.51-2.03,2.48-2.95,3.53-2.79,3.17.18,4.51,3.32,4.16,2.51-.29,17.06-5.59,19.87-6.95,1.44-.7,11.58-7.54,11.75-8.24.87-4.55-9.81.59-7.98-2.97,1.44-2.81,9.79-.39,9.98-5.51.85.21,2.28-.25,3,0ZM675.37,354.68c-2-.97-5.16,1.78-3.99,2.99.53.54,5.47-1.1,3.99-2.99ZM711.35,358.68c-.31-.29-4.79.77-4.99,1.01-2.84,3.44,7.63,1.44,4.99-1.01Z"/>
    <path class="cls-1" d="M325.64,434.59c-25.61,26.63-16.23,67.85.48,96.91,12.87,22.38,43.53,50.53,71.47,38.94-.59,1.36-1.28,3.9-2,4.99-.84,1.28-.59,1.62-2.5,1.98-2.7.51-12.58,1.52-14.83,1-.44-.1-2.25-.83-4.65-1.37-51.39-11.63-88.22-92.36-59.77-137.76,1.4-2.24,8.46-12.76,11.32-8.69.89,1.27.19,3.43.47,4Z"/>
    <path class="cls-1" d="M328.64,438.58c1.86-1.54,5.59-1.48,6.05,1.53.36,2.36-2.87,9.13-3.58,12.42-8.67,39.99,18.22,94.09,57.96,106.95,3.87,1.25,7.76,1.13,10.83,2,.85.24.68,1.96,1.27,1.99,1.04.05,3.3-1,5.42-1.02.05,4.38-4.06,3.2-5.71,4.31-.68.46-.99,1.52-1.28,1.69-48.68-7.25-82.79-65.55-75.81-112.24.42-2.8,3.39-16.4,4.86-17.62Z"/>
    <path class="cls-14" d="M269.68,611.39c6.55-3.49,28.38.81,26.04,10.34-1.26,5.13-9.52-3.43-11-3.9-2.63-.83-5.38-.37-8.05-.44v34.46c0,.83-3.03,4.25-4.04,4.96-16.98,11.86-28.5-21.09-2.96-17.44v-27.97Z"/>
    <path class="cls-1" d="M688.37,552.45c5.81,15.21,2.22,24.95-1,39.96-2.42-.66-2.84,3.06-3.55,3.07-.86,0-8.84-4.86-9.43-5.57-1.52-1.82-1.31-7.44-1.04-10.01.51-4.85,3.76-17.66,6.13-21.84,1.07-1.9,6.34-5.82,8.89-5.6Z"/>
    <path class="cls-14" d="M245.7,656.34c-1.96-.14-4.05.21-6,0-5.46-.58-9.92-5.3-12.66-5.75s-9.45,4.34-13.33,2.75c-2.13-8.01,6.92-6.23,9.74-9.24,1.63-1.74.98-5.5,4.29-8.2,8.47-6.9,22.58.85,20.91,11.88-.51,3.36-3.37,4.17-2.97,8.56ZM233.45,639.54c-11.71,2.34,5.45,12.46,8.28,10.37,4.09-3.02-1.28-11.77-8.28-10.37Z"/>
    <path class="cls-3" d="M387.59,458.56c3.63,1.6,14.22,4.67,16.45,7.03,4.18,4.44,8.58,22.41,12.55,28.41-2.45,1.09-7.4,3.85-9.85,2.34-1.55-.96-12.17-29.52-14.39-33.54l-4.76-1.25c.19-.85-.13-2.05,0-3Z"/>
    <path class="cls-1" d="M662.39,675.32c-1.78,5.45-3.12,11.38-5,16.98-2.65-1.48-9.73,2.79-10.92,1.93-.37-.27-3.27-6.98-3.88-8.25,4.03-4.44,4.24-19.09,13.09-16.53,2.19.63,3.33,5.57,6.7,5.87Z"/>
    <path class="cls-1" d="M646.4,722.27c-1.39,3.96-2.57,7.98-4,11.99-2.88-.69-6.69,1.6-9.26.07-2.33-1.39-4.54-6.57-3.57-9.39.84-2.42,14.28-6.37,16.83-2.66Z"/>
    <path class="cls-11" d="M245.7,656.34c.48,5.32.99,10.31,1,15.98h-6.99v-15.98c1.94.21,4.03-.14,6,0Z"/>
    <path class="cls-14" d="M699.36,337.69c-.09.06.48,1.69-.68,2.02-1.24.36-3.11-.3-4.31-.03-3.69-1.88-6.03-9.48-1.29-10.84,5.91-1.7,4.42,5.83,6.29,8.84Z"/>
    <path class="cls-14" d="M673.38,346.68c.72-2.58-2.51-9.52-.4-11.09,1.25-.93,3.59-1.15,4.98,0,3.18,2.63-.85,8.23,3.42,8.1-2.35,1.03-6.77,2.36-7.99,3Z"/>
    <path class="cls-14" d="M708.35,334.7c-2.37,1.11-1.78,1.06-5,2-9.51-11.14,4.89-16.84,5-2Z"/>
    <path class="cls-14" d="M702.36,372.66c.08-.04-.18-1.47.27-1.68,1.06-.49,4.99-2.19,5.72-2.31,7.5,10.85-1.79,17.15-6,4Z"/>
    <path class="cls-14" d="M698.36,373.65c2.72,2.78,5.78,11.23-.37,10.69-4.36-.38-2.63-5.39-5.63-7.69.09-.05-.42-1.48.74-1.96,1.26-.52,3.58-.51,5.26-1.04Z"/>
    <path class="cls-14" d="M686.37,342.69c-5.8-1.72-8.02-11.59-.5-11.04,2.74.2,5.22,7.53,1.5,10.04-.34.23-.61.81-1,1Z"/>
    <path class="cls-1" d="M408.58,592.41l-1-5.99c6.13.16,6.2.41,5.99,5.99-1.67,0-3.33,0-5,0Z"/>
    <path class="cls-1" d="M682.37,543.46c1.67,1.96,1.78,1.03,4,4.99,1.51,3.25-4.34,1.72-4.86.87-.76-1.24.04-4.49.87-5.86Z"/>
    <path class="cls-7" d="M718.35,367.66c.69,1.42,2.51,2.08,2,4.99-5.43,1.44-7.7-5.95-2-4.99Z"/>
    <path class="cls-1" d="M398.58,590.41c-1.99-4.98-.28-4.71,0-7.99,1.67,1.53,1.68,6.42,0,7.99Z"/>
    <path class="cls-7" d="M722.34,366.66c6.13-3.54,7.81,3.11,1,2-.34-.68-.68-1.28-1-2Z"/>
    <path class="cls-7" d="M731.34,335.7c-2.59.27-5.11.11-5-3,3.33,1.16,2.62,1.04,5,3Z"/>
    <path class="cls-7" d="M736.33,343.69c1.47,2.89.13,1.92,0,3-3.18.77-2.98-3.87,0-3Z"/>
    <path class="cls-7" d="M735.33,341.69c-.52-.45-2.84,1.19-1.99-2.49l.99-.51c.66,1.01,1.24,1.59,1,3Z"/>
    <path class="cls-14" d="M721.34,331.7l-.63.92-1.37-.92c.6-.01-.42-.53,2,0Z"/>
    <path class="cls-1" d="M419.57,560.45c.24,2.12.12,2.24-2,2,.77-.58-1.86-1.18,2-2Z"/>
    <path class="cls-12" d="M300.66,783.2v39.46c0,.11-1.39,1.5-1.5,1.5h-97.43v-40.95h98.93ZM280.81,791.33c-4.2,2.67,2.4,9.2,5.42,4.92,2.58-3.65-2.6-6.71-5.42-4.92ZM282.28,801.27c-3.84,1.23-.89,8.5,3.45,5.46,2.46-1.72.87-6.84-3.45-5.46Z"/>
    <path class="cls-4" d="M610.43,632.37c7.42-9.96,18.93-21.87,24.98-31.96,1.05-1.75,2.28-2.07,2-4.99,9.28-3.66,11.55-20.7,10.97-29.45-1.71-26.02-18.92-37.29-41.74-44.18-22.68-6.85-64.3-17.46-87.15-19.26v-2c4.46.17,8.5-2.21,13.2-1.79,13.79,1.23,41.06,8.8,55.58,12.45,21.24,5.35,45.42,10.76,58.13,30.29.28.43.63,1.34,1,2,.33.6.71,1.37,1,2,.34.75.65,2.04,1,3,17.88,49.35-30.75,68.81-47.69,106.65"/>
    <path class="cls-8" d="M512.5,592.41c8.99,0,18.68,3.53,15.88-8.89-15.65-3.52-31.49-6.51-47.07-10.38-4.71-1.17-42.74-10.5-42.74-13.2,1.99-2.38,5.02-2.76,7.97-2.5.52.05,2.06.76,3,1,23,5.87,45.63,12.08,68.95,16.98,5.65,1.19,11.44,1.91,16.99,3,3.97.78,7.89,2.27,11.99,3,5.6,1,9.27,1.53,14.99,2,1.04.09,5.95-.09,6,2l-4.89,9.57"/>
    <path class="cls-8" d="M519.49,648.35c-.19-1.55.72-4.13-1-4.99.08-.64.13-3.84,0-4l-1-2c.08-.99-.05-2.01,0-3,.08-1.56.51-4.2-1-4.99.07-.6.06-1.4,0-2-.13-1.24.24-1.24-1-2,0-1,0-2,0-3"/>
    <path class="cls-1" d="M603.43,593.4c2.44.22,4.5,1.67,5.99,3.53.46,2.06-2.88,2.36-3.55,3.49s1.41,4.38-.96,4.99c-1.82.46-3.05-1.63-4.75-1.73-5.69-.33-9.41,3.69-13.44,4.5-6.76,1.37-16.02,1.13-21.26-3.29-.76-3.59,10.4-2.05,12.55-5.47,1.78-2.82-2.53-6.47-2.54-8.5-.01-1.71,2.57-3.85,3.43-5.56.66-1.32.42-3.78.56-3.93.31-.33,8.16,1.16,8.96,1.53,1.94.88,2.14,2.98,2.94,3.84,2.39,2.53,1.8-1.11,2.67-2.27.55-.73,1.76-.94,2.07-1.42,2.16-3.38,3.98-10.48,9.06-11.5,8.36-1.67,1.51,7.48,1.27,10.41-.17,2.07,1.21,4.16.85,5.71-.47,2-4.28,2.98-3.84,5.67Z"/>
    <path class="cls-1" d="M637.41,595.41c-1.5.59-3.38.87-5,1.01-.38,2.48.33,3.93,3,3.99-6.05,10.09-17.56,22.01-24.98,31.96-7.78-3.55-11,15.91-17.06,11.56-1.29-.93-1.35-4.44-.5-5.64,1.7-2.39,7.76,1.63,7.28-4.62-.2-2.61-3.22-3.97-1.2-8.28.2-.43,4.92-6,5.51-6.47,4.87-3.87,10.17-.13,10.91-8.16.3-3.19-1.68-4.29.73-8.07.37-.59,6.88-6.62,7.33-6.82,2.99-1.36,4.09,2.15,6.34,1.49.7-.21,6.82-10.3,7.63-1.95Z"/>
    <path class="cls-3" d="M269.68,759.22l-3.94,16.54h-30.1c-1.28-.89-1.69-13.8-1.94-16.54h35.97Z"/>
    <path class="cls-1" d="M608.43,543.48c2.36,2.74-3.79,4.71-3.99,5-1.01,1.5,2.59,3.55,3.41,5.05,4.21,7.72-2.86,7.84-2.42,14.91-4.41.54-5.1-5.25-9.98-4.01-.03,1.87.6,5.18-1.6,5.92-6.11,2.05-3.7-5.81-4.54-6.78-.25-.29-2.51-.22-3.91-1.56s-1.88-4.18-2.91-5.83-4.61-1.11-2.05-5c.53-.81,1.99-1.31,2.9-2.33.72-.82.78-2.93,1.26-3.24,3.17-2.05,14.74,3.44,11.85-7.14,3.26-.11,5.2,2.67,8.3,4.21,1.19.59,3.56.65,3.69.79Z"/>
    <path class="cls-1" d="M446.55,557.45c1.94-3.08,4.15-8.59,6.45-11.04,3.66-3.9,7.94-3.15,11.52-9.46,3.1-5.45,2.28-13.83,11.01-12.48-1.4,5.22,1.55,4.54,2.88,6.57,3.26,4.99-.9,5.57-1.68,8.12-.72,2.37.45,6.87-.35,8.14-.59.94-5.55.49-4.87,4.65.05.29,4.09.99,1.6,4.56-1.39,1.99-10.03-.36-11.89-1.26s-1.49-2.63-1.69-2.79c-1.93-1.56-1.92,1.56-2.62,2.02-2.34,1.54-7.38-.38-7.35,3.96-.94-.24-2.48-.95-3-1Z"/>
    <path class="cls-1" d="M621.41,689.3c-2.53.06-4.85-1.45-7.44-1.02-1.21.2-5.34,2.45-8.77,3.29-1.08.26-2.24,1.98-3.24,1.74-.88-.21-1.54-4.69-5.53-3.01-1.14-8.02,5.65-4.61,6-4.99,1.66-1.87-1.9-2.94-2.07-4.43-.39-3.38-1.21-10.75,3.43-10.5,1.84.1,12.08,1.13,12.63,1.46,3.73,2.25,5.46,13.23,5,17.47Z"/>
    <path class="cls-1" d="M434.56,592.41c.3-3.01.4-2.58-2.15-3.31-1.65-.47-5.3.11-4.84-2.17,3.48-1.1,8.12-6.51,10.48-6.63,3.06-.15,4.2,1.9,6.03,2.09,2.89.31,7.32-2.19,10.84-1.94,1.42.1,14.13,4.38,14.55,5.02.52.79.12,2.74-.93,3.46-2.74,1.88-9.24-2.14-8.02,3.48-5.98.02-12-.04-17.99,0,1.57-4.74-7.78-4.42-6,0-.67,0-1.33-.01-2,0Z"/>
    <path class="cls-9" d="M620.42,401.62c-.4.48-.26,3-2.04,3.43-20.43,6.77-40.92,19.6-60.91,26.53-4.15,1.44-5.46,2.03-5.98-2.95l64.15-27.37,4.78.35Z"/>
    <path class="cls-1" d="M560.32,516.69c.6,1.08-2.07,6.57-1.68,8.22.36,1.52,8.51,3.88,5.83,6.57-.3.31-7.78,2.07-8.39,2.02-4.24-.36-4.3-3.49-6.34-5.04-1.36-1.04-4.85-1.45-5.78-2.95-2.13-3.46,1.62-6.01,1.41-7.36-.4-2.49-5.75-3.25-4.88-5.12.6-1.3,2.18-1.53,3.48-1.6s9.57.8,11.02,1.07c.53.1,5.16,3.91,5.33,4.2Z"/>
    <path class="cls-14" d="M512.5,592.41c-2.19,4.73.36,6.95.91,10.58.91,6.02,2.14,13.39,2.08,19.39-1.99-.46-2.65.45-2.01,2.49.35,1.1,1.51.2,2.01.5,1.24.76.87.76,1,2-3.08-.79-3.63,1.15-3.72,3.74-.2,5.45,3.46,12.18.73,17.24-2.98-18.62-6.38-37.25-8.99-55.94,2.66,0,5.28.06,7.99,0Z"/>
    <path class="cls-1" d="M547.47,581.42c-1.85-3.68.8-6.54.9-8.43.08-1.31-1.63-4.65-.88-5.52.65-.75,9.79-1.34,11.45-1.01,3.05.62,2.85,2.73,4.51,4.48,3.45,3.64,5.61,1.82,1.78,8.81-.88,1.61-3.3,1.36-2.78,3.67-5.72-.47-9.39-1-14.99-2Z"/>
    <path class="cls-4" d="M526.49,735.27c-2.43,10.78-14.58,8.23-22.92,6.92-.95-5.85,2.01-11.43,5.56-15.88l17.36,8.95Z"/>
    <path class="cls-4" d="M604.43,781.2c-1.07,6.28-7.03,11.82-13.52,12.03-1.31.04-11.01-1.67-11.38-2.12-1.39-1.67,2.63-9.91,3.41-9.91h21.48Z"/>
    <path class="cls-1" d="M518.5,575.43c.13-4.9-2.15-4.3-5.47-5.03-4.78-1.06.66-2.03,1.91-2.98.71-.54.85-2.42,2.23-2.88.82-.28,10.03,1.29,10.74,1.81.92.68.28,2.45.74,2.88.39.36,8.83,3.42,9.85,2.73,1.38-.94.81-3.96,5.97-2.51.85,7.22-8.46,2.68-8.99,8.98-5.55-1.09-11.34-1.81-16.99-3Z"/>
    <path class="cls-1" d="M599.42,810.17c.27.24.29,3.58,3.51,6,3.26,2.45,9.49,2.09,6.53,5.52-3.68,4.27-5.2,1.02-8.59.51-7.38-1.1-5.61,3.38-8.94,4-2.3.43-6.11-.59-7.55-2.47-3.45-4.5,6.48-7.52,9.33-9.53,1.05-.74,3.43-6.05,5.71-4.03Z"/>
    <path class="cls-14" d="M770.31,788.19c0,.66,1.03,2.54,1.04,4.42.06,10.51-.13,21.04-.04,31.54-1.99,0-4.01,0-6,0-.04-12.31.06-24.65,0-36.96l5,1Z"/>
    <path class="cls-1" d="M522.44,525.54c1.05,8.43-5.94,2.78-10.68,2.17-1.68-.21-3.24.89-4.7.74-2.04-.21-13.12-5.76-12.54-8.44.63-2.91,5.89-.24,8.02-.9,2.38-.73,2.59-3.04,3.17-3.38,2.65-1.55,6.82,1.38,8.78,3.27l-4,4c-1,4.08,9.31.44,11.94,2.54Z"/>
    <path class="cls-1" d="M514.58,532.56c1.63-2.25,4.81.55,5.66.68,1.55.24,3.16-.99,4.26-.35,2.44,1.42,4.28,9.11,1.01,11.09-4.59,2.77-4.52-2.4-5.98-4.05-1.34-1.51-7.37-4.03-4.95-7.38Z"/>
    <path class="cls-1" d="M629.2,540.74c.24.12,3.27,3.71,3.28,4.2.08,5.47-12.13,7.18-14.6,2.55-2.78-5.22,5.56-4.48,7.85-5.05.95-.24.47-3.18,3.48-1.7Z"/>
    <path class="cls-1" d="M577.45,677.32c-5.35.04-10.29-3.29-7.5-9,1.63-3.32,7.86-3.01,9.42-.89.24.32-.72,7.16-.92,7.89-.18.62-.69,1.35-1,2Z"/>
    <path class="cls-1" d="M577.17,561.18c-.75.77-6.83,3.85-7.7,3.25-5.72-10.43,13.9-9.57,7.7-3.25Z"/>
    <path class="cls-1" d="M548.47,715.27c-.27.36-.43,1.26-1,2-2.41.73-9.06-2.68-7.98-5.48,1.33-3.45,8.24.86,8.98,3.48Z"/>
    <path class="cls-1" d="M506.5,588.41h-8.99c-2.87-3.02,10-8.31,8.99,0Z"/>
    <path class="cls-1" d="M641.92,571.44c2.24-.48,4.85,6.03,1.9,6.92-5.94,1.81-5.14-6.23-1.9-6.92Z"/>
    <path class="cls-1" d="M519.49,500.51v2c-1.91-.15-7.46-1.02-7.99-1l-2-2c3.75.01,6.95.88,9.99,1Z"/>
    <path class="cls-1" d="M525.48,518.51c2.21,3.24-4.94,5.94-5.98,2.47-1.29-4.34,5.22-3.58,5.98-2.47Z"/>
    <path class="cls-14" d="M515.5,664.33c3.41-.61,3.97,8.84,2,10.99-.46-3.59-1.93-6.6-2-10.99Z"/>
    <path class="cls-1" d="M539.99,527.49c2.93-.66,3.42,5.43.97,5.98-2.93.66-3.42-5.43-.97-5.98Z"/>
    <path class="cls-1" d="M672.28,615.47c1.3.83,1.46,5.76-1.89,4.91-.62-2.43-2-7.39,1.89-4.91Z"/>
    <path class="cls-1" d="M582.44,565.45c.73.73-.37,4.45-2.48,3.99-3.69-.81.55-5.91,2.48-3.99Z"/>
    <path class="cls-1" d="M493.51,519.49h-4.99c-.09-4.1,5.07-4.1,4.99,0Z"/>
    <path class="cls-1" d="M562.45,687.31c3.5,2.9-1.66,9.87-1.98,0,.62.06,1.79-.16,1.98,0Z"/>
    <path class="cls-1" d="M498.51,513.5v1.48c-1.06,1.57-2.15,1.74-3.99,1.51v-2.99s3.99,0,3.99,0Z"/>
    <path class="cls-14" d="M517.5,634.36c-4.24.58-1.19-3.28-1-4.99,1.51.8,1.08,3.43,1,4.99Z"/>
    <path class="cls-14" d="M519.49,648.35c-4.22.57-1.22-3.22-1-4.99,1.72.86.81,3.44,1,4.99Z"/>
    <path class="cls-1" d="M447.54,575.43c1.58,1.58-1.4,4.57-2.99,2.99s1.4-4.57,2.99-2.99Z"/>
    <path class="cls-1" d="M648.4,545.46c3.96-1.18,4.55,3.52,1,3-.35-.96-.66-2.25-1-3Z"/>
    <path class="cls-14" d="M521.49,661.33c-2.67.84-2.91-2.28-1-4,.1.77.8,2.02,1,4Z"/>
    <path class="cls-1" d="M646.4,541.47c-.16-4.61,4.18-1.31,1,2-.36-.66-.72-1.57-1-2Z"/>
    <path class="cls-14" d="M524.49,674.32c.5,1.3-2.86.13-2.97-.02-1.19-1.52.96-3.77.97-3.98l2,4Z"/>
    <path class="cls-1" d="M664.38,531.48c1.5,1.68-1.28,4.49-2.99,2.99-1.07-.94,2.03-4.06,2.99-2.99Z"/>
    <path class="cls-14" d="M763.31,761.22c-.11.1-.18,1.71-.96,2.52-.68.7-1.73,1.11-2.03,1.47-.27-2.33.42-4.1,3-4Z"/>
    <path class="cls-14" d="M514.5,656.34c4.21-.53,1.09,2.76,1,4-1.6-.71-.83-2.73-1-4Z"/>
    <path class="cls-1" d="M534.48,734.25v2c-.66-.36-2.72.67-3-.51-.64-2.65,1.78-.93,3-1.49Z"/>
    <rect class="cls-1" x="618.43" y="737.25" width="2.99" height="1.99"/>
    <path class="cls-14" d="M518.5,639.36c-.14-.17-1.42.11-1.99,0-.41-1.08.98-1.88.99-1.99l1,2Z"/>
    <path class="cls-1" d="M404.57,585.42c1.09,1.09-.9,3.08-1.99,1.99s.9-3.08,1.99-1.99Z"/>
    <path class="cls-1" d="M567.46,584.42c.11-.01.61-1.47,1.99-.99.55,1.86-.85,1.71-.99,1.99l-1-1Z"/>
    <path class="cls-1" d="M616.42,530.48c1.09,1.09-.9,3.08-1.99,1.99s.9-3.08,1.99-1.99Z"/>
    <path class="cls-9" d="M509.5,499.51l2,2c-11.94.4-23.43,6.63-32.49,13.96.56-5.14,7.54-13.03,12.1-14.86,4.92-1.97,12.84-1.12,18.39-1.1Z"/>
    <path class="cls-2" d="M381.91,405.51c1.15-.87-.31-9.81,1.42-6.12.83,1.78,11.07,7.76,13.01,8.06,2.36.37,4.49-.91,7.45-.63,7.61.7,16.82,5.79,24.38,6.68,29.93,3.54,27.12-19.1,47.06-30.66,15.06-8.73,32.74-6.67,45.29,5.27,2.31,2.2,14.63,18.49,12.93,20.45l-41.26,17.19c-4.53,2.26-6.84-.75-11.09-1.23-7.94-.9-16.23,1.39-21.57,7.54-3.92,4.51-2.87,11.99-10.35,11.21-2.68-.28-6.41-3.88-9.07-4.75-6.69-2.19-10.21-2.55-17.92-5.62"/>
    <path class="cls-2" d="M505.37,247.93c.88,16.27-10.66,45.9-31.56,38.05-3.39-1.28-7.13-7.39-10.27-5.76-7.18,3.74,6.36,9.94,6.81,12.15.41,2.07-4.1,10.04-5.58,12.09-13.06,18.14-31.52,5.18-24.4-15.4,4.75-13.74,11.95-17.89,12.8-34.94.23-4.69-3.71-14.92,3.96-15.3,6.46-.31,7.95,7.42,11.89,7.04,3.16-.3,2.78-4.53,4.5-5.58,4.95-3.02,25.65,6.24,31.86,7.64Z"/>
    <path class="cls-8" d="M418.15,469.91c-.19-.34-1.38-.19-1.52-.98-.91-5.25,2.76-17.21,6.5-21.3,14.84-16.21,42.43,15.6,20.48,27.46-8.88,4.8-20.38,4.12-25.45-5.18Z"/>
    <path class="cls-10" d="M466.53,453.57c48.56-21.2,98.03-41.17,147.1-61.22,2.39-.98,17.91-7.63,18.77-6.69,2.21,2.39-3.72,4.48-5.31,5.18-52.8,23.32-106.19,44.84-159.57,66.74l-1-4Z"/>
    <path class="cls-9" d="M487.52,433.59c47.48-19.54,94.69-40.08,142.38-58.97,2.72-.5,1.59,3.38.61,4.62-34.05,14-67.9,28.89-102.01,42.86-13.29,5.45-27.62,9.96-40.97,15.48v-4Z"/>
    <path class="cls-8" d="M660.39,367.66c.35.81,1.96,4.73,2,4.99,1.01,6.33.21,16.04-6.28,19.19-2.37,1.15-9.14,2.2-11.44,1.04-.93-.47-6.49-6.19-6.82-7.18-1.89-5.58,2.94-24.17,8-27.09,6.77-3.9,12.22,3.59,14.55,9.04Z"/>
    <path class="cls-12" d="M487.52,433.59v4c-.18.07-.89,1.66-2.24,2.21-4.6,1.89-26.37,11.22-29.21,10.82-1.4-.2-2.67-.94-2.52-2.53.44-1.95,29.78-12.77,33.97-14.5Z"/>
    <path class="cls-12" d="M466.53,453.57l1,4c-1.4.57-8.46,5.58-9.99,3.99-.76-.79.29-3.93,1.43-5.05,2-1.96,5.32-1.96,7.55-2.94Z"/>
    <path class="cls-3" d="M669.38,362.67c-5.47,5.49-9.73-3.17-2-4,.04.11,1.28.52,1.78,1.67.35.82.03,2,.22,2.32Z"/>
    <path class="cls-3" d="M448.54,401.63c1.73,1.46-1.31,2.19-1.87,2.58-3.33,2.32-6.91,3.78-11.11,3.39l12.98-5.98Z"/>
    <path class="cls-13" d="M662.39,372.66c-.04-.27-1.65-4.18-2-4.99,5.08-1.05,7.57,4.04,2,4.99Z"/>
    <polygon class="cls-12" points="778.3 420.6 691.38 508.5 710.85 420.6 778.3 420.6"/>
    <polygon class="cls-12" points="854.25 420.6 836.76 507.52 789.29 420.6 854.25 420.6"/>
    <polygon class="cls-12" points="697.36 513.5 775.79 434.58 763.31 513.5 697.36 513.5"/>
    <polygon class="cls-12" points="832.26 513.5 772.31 513.5 786.31 432.59 832.26 513.5"/>
    <path class="cls-12" d="M776.8,432.59c.65.33.65.67,0,1v-1Z"/>
    <path class="cls-13" d="M656.39,209.34c1.44-4.61,14.91,2.32,17.72,4.27,7.85,5.46,13.01,13.13,6.69,22.13-1.48,2.11-3.96,4.86-6.8,3.99-4.55-1.4,2.21-7.19,2.94-9.9,1.86-6.89-8.47-13.44-14.55-13.99.16,8.15-.21,16.35-.05,24.51.15,7.52,4.26,16.99-6.92,19.96-21.67,5.76-21.37-28.34.97-22.5,1.37-7.03-1.83-22.58,0-28.47Z"/>
    <path class="cls-7" d="M711.35,358.68c2.64,2.45-7.83,4.45-4.99,1.01.2-.24,4.67-1.3,4.99-1.01Z"/>
    <path class="cls-7" d="M675.37,354.68c1.49,1.89-3.46,3.52-3.99,2.99-1.18-1.2,1.99-3.95,3.99-2.99Z"/>
    <path class="cls-10" d="M233.45,639.54c7-1.4,12.37,7.35,8.28,10.37-2.83,2.09-19.99-8.03-8.28-10.37Z"/>
    <path class="cls-13" d="M436.56,592.41c-1.79-4.42,7.57-4.74,6,0-2,.01-4-.02-6,0Z"/>
    <path class="cls-11" d="M280.81,791.33c2.82-1.79,8,1.27,5.42,4.92-3.02,4.28-9.62-2.25-5.42-4.92Z"/>
    <path class="cls-11" d="M282.28,801.27c4.32-1.38,5.9,3.74,3.45,5.46-4.34,3.04-7.29-4.23-3.45-5.46Z"/>
    <path class="cls-13" d="M515.5,622.38c0,1,0,2,0,3-.5-.31-1.66.6-2.01-.5-.64-2.04.02-2.95,2.01-2.49Z"/>
    <rect class="cls-9" x="186.74" y="245.8" width="54.96" height="64.93"/>
  </g>
</svg>