<?xml version="1.0" encoding="UTF-8"?>
<svg xmlns="http://www.w3.org/2000/svg" viewBox="0 0 1024 1024">
  <defs>
    <style>
      .cls-1 {
        fill: #252728;
      }

      .cls-2 {
        fill: #fafafb;
      }

      .cls-3 {
        fill: #424547;
      }

      .cls-4 {
        fill: #7f7373;
      }

      .cls-5 {
        fill: #555758;
      }

      .cls-6 {
        fill: #f1f2f2;
      }

      .cls-7 {
        fill: none;
        stroke: #252728;
        stroke-miterlimit: 10;
        stroke-width: 5px;
      }

      .cls-8 {
        fill: #414445;
      }

      .cls-9 {
        fill: #f4f5f5;
      }

      .cls-10 {
        fill: #e2e2e3;
      }

      .cls-11 {
        fill: #f6f7f7;
      }

      .cls-12 {
        fill: #181b1c;
      }

      .cls-13 {
        fill: #3b3e3f;
      }

      .cls-14 {
        fill: #ededed;
      }

      .cls-15 {
        fill: #eaeaeb;
      }
    </style>
  </defs>
  <g id="_검은색_배경" data-name="검은색 배경">
    <rect class="cls-4" x="0" y="0" width="1024" height="1024"/>
  </g>
  <g id="_레이어_1" data-name="레이어 1">
    <path class="cls-1" d="M314.65,465.55c.65,1.76.88,2.44,1.04,4.43,1.45,17.78-1.17,37.52-.05,55.51,2.24.27,5.3-.56,7.35.15,1.59.55,1.58,2.98,3.33,3.66,4.22,1.64,11.42.91,16.99,3,9.58,3.59,14.81,11.44,15.1,21.66.37,12.94-3.93,29.23-3.84,42.98.1,14.6,5.38,55.47,14.52,66.42,8.62,10.33,17.65,1.13,20.06-8.96,4.22-17.68-.25-45.69-.59-64.44-.39-20.95-1.04-51.72,7-71,1.44-3.45,6.83-10.52,7.01-13.01.22-3.15-5.27-15.22-5.85-21.04-2.42-24.19,6.01-41.35,24.78-55.96-10.81-12.7-23.38-20.84-21.89-39.8,1.37-17.41,15.52-59.3,22.48-76.41,8.64-21.22,20.33-19.92,39.45-25.49,2.6-.76,18.48-5.33,19.08-6.14.32-.43,3.95-9.37,3.94-9.9-.06-2.41-2.83-1.48-3.11-3.9-1-8.46-.63-32.69,1.36-40.72,1.96-7.93,8.87-15.72,17.31-16.68,3.41-.39,6.36,1.02,8.68.72,2.94-.38,8.95-5.65,13.16-6.84,13.68-3.88,24.44,8.49,35.22,14.84,7.62,4.49,15.13,5.07,20.72,13.25,13.62,19.91-9.02,48.62-29.92,32.92-4.56,3.61-4.97,21.05-6.96,22.98s-6.01.21-8.93,2.07c-1.58,1.01-2.87,4.53-4.54,6.45s-5.68,2.51-3.42,4.52c.72.64,2.98,1.47,4.28,2.51,6.13,4.91,12.97,10.01,14.84,18.13,1.45,29.62-2.04,59.66,2.4,88.99.62.96,20.33,4.09,22.46,4.09s36.04-15.18,38.69-17.05c4.47-3.17,5.54-10.59,11.93-14.04,2.71-1.47,16.76-6.43,18.55-3.64.78,1.22-1.05,4.6,1.61,3.83l75.44-37.46c12.83-5.2,32.27,10.16,23.46,23.44-6.73,10.14-23.51,2.98-32.92,12.04-2.03,1.96-2.87,5.84-5.42,6.56-5.75,1.61-10.38-.75-15.52-.6-5.6.17-26.08,8.23-30.06,11.99-3.13,2.96-3.13,12.52-9.45,9.53-2.65-1.25-5.31-8.79-12-6.5,1.8,4.55,8.75,9.12,5.89,14.31-4.18,7.56-16.54,13.9-24.72,15.81-.61,28.71-38.71,12.55-56.64,14.8-1.75.22-13.85,5.55-14.27,6.21-.2.31-1.26,6.62-1.24,7.36.15,7.56,17.96,8.53,21.8,16.16,5.39,10.7-15.1,23.56-24.75,22.24,4.47,22.11,10.82,43.84,15.51,65.91,7.53,35.48,6.39,48.03,2.61,83.54-3.53,33.2-6.37,66.65-11.97,99.52,7.25,16.52,35.79,11.78,44.25,23.79,3.27,4.64,2.12,11.48,2.56,11.92,1.42,1.43,35.35-1,40.35-.13l1.43-1.56,16.73-56.2c3.78-5.92,16.16-3.15,17.33-4.15,2.72-2.33-.66-21.24,2.04-25.43,3.63-5.64,26.05-4.12,26.05,1.07v29.97c0,1.09-2.44,1.43-3.45,1.55-7.22.85-31.99-2.67-35.59,1.38l-15.83,51.11-.09,2.39c2.32.06,4.67-.06,7,0,62.17,1.77,124.67-1.33,186.87,0,.91-5.7-2.02-10.23-4-14.99-.71-1.69,1.24-5.39-3.45-5.04l-161.76-.11c-2.35-.79-2.52-4.19-2.71-6.28-.28-3.09-.74-21.52,2.55-21.52h149.39c1.74-4.33-5.72-6.62-3.55-10.02,3.38-5.29,10.96,2.34,11.57,7.5.45,3.84-.94,20.72,1.1,22.37.35.29,3.73.26,3.87.13.49-.46-1.32-15.35,3.49-9.98,3.66,4.08,10.32,35.55,12.17,35.99,36.96,2.35,41.33-33.25,29.8-60.96-11.18-26.88-47.14-59.23-72.42-28.47-.9,2.19,2.89,1.21,4.57,2.4.45.32,2.42,3.34,2.42,3.57v27.97c0,3.44-24.59,3.41-26.74,1.26-2.89-2.89-.27-9.05-.23-12.25.02-1.93-1.17-3.8-1.04-5.95.17-3.04,1.05-11.81,2.46-13.61,3.79-4.82,12.92-2.21,13.57-2.92.17-.18-.18-3.23.53-4.96,1.87-4.52,10.83-10.75,15.47-12.51,35.99-13.68,71.09,34.38,73.8,66.04,1.54,18.02-2.98,30.76-16.86,42.32h65.45c1.17,0,4.57,6.8-3.09,6.89-12.7.15-26.01-.97-38.92-.94-265.59.61-530.26.22-796.35.05-12.73,0-26-.23-39.03-.06-2.49.03-4.99,1.11-6.89,1.01-5.97-.33-5.13-6.95-3.05-6.95h60.46l1.5-231.74h29.48v-85.9c2.4.27,6.51-1.36,6,2l.99,83.91h5.01c.04-12.64-.07-25.33,0-37.96,2.9-.09,5.5-.91,8.45-1.05,46.24-2.12,94.27,1.48,140.69.29,1.1.4,2.93.54,3.75,1.24,2.54,2.16.02,30.4,1.13,35.83.68,2.09,2.99,1.69,4.85,1.64v-78.92c.57-.11.71-.72,1-1,.22-.22,1.71.5,2.02-.49.62-2.03-.04-2.97-2.02-2.5v-1c.89-2.17,2.64-3.25,5-3ZM536.48,212.83c-1.69-1.11,1.71-.52-4.29-2.02-.94-.23-.33-2.06-2.13-2.06-8.63,0-14.75,7.42-20.53,8.62-3.13.65-5.88-1.38-10.75.22-5.6,1.85-10.26,10.17-10.26,15.71v17.48c2.41-1.36,4.68-3.6,7.59-3.97,3.82-.48,7.01,2.42,8.74,1.89,1.3-.39,2.26-3.28,3.61-4.46,9.21-8.05,20.38-7.17,29.5.56,4.41,3.74,7.2,7.68,10.51,11.96,14.68,18.97,36.35-6.19,23.43-22.92-4.05-5.25-12.34-6.7-18.1-9.87-5.21-2.87-12.21-7.81-17.32-11.16ZM507.32,297.92c-.19-.33-2.03-.87-2.82-1.63-1.86-1.79-10.58-9.66-7.02-12.08,3.97-2.69,7.8,5.49,11.11,7.94,14.33,10.62,14.05-6.95,25.85-9.95.92-2.8,8.21-21.54,7.9-22.71-.4-1.53-7.68-9.49-9.36-10.7-9.33-6.72-18.27-4.46-23.35,5.61-.85,1.68-4.04,13.87-7.65,8.4-1.38-2.09,1.27-12.96-6.21-9.29-7.23,3.54-.05,11.71-.37,13.62-.13.78-3.14,3.25-4.08,4.94-5.2,9.35-12.56,24.59-2.3,32.65,9.34,7.33,21.71-1.02,18.3-6.8ZM477.53,295.74c-.11-2.59.42-4.54,1-6.99-14.12,5.23-36.81,5.63-46.38,18.06-5.97,7.76-16.48,43.62-19.84,55.09-3.04,10.36-8.97,28.18-5.95,38.44,2.51,8.51,21.49,25.89,28.72,32.22,9.1,7.96,19.15,14.87,28.51,22.52,4.89,1.21,3.42-2.69,3.94-3.52.07-.11,1.68-.16,2.48-.97,2.62-2.62,12.41-12.61,11.04-15.97l-46.53-46.56,22.44-55.45c2.19-1.98,4.41-.46,5.43,1.78l-19.65,48.99.73,4.82,40.61,39.35c2.03.45,8.66-11.3,10.45-13.43,5.69-6.79,12.66-11.73,21.96-11.51v-64.43c0-2.04,6.99-2.04,6.99,0v64.93c0,1.2,7.11,4.55,8.99,2.5.34,4.47,1.23,5.77,5.99,6.99-1.98-30.32-.4-60.79-1.2-91.18-.87-3.84-15.18-16.43-19.06-17.91-5.88-2.25-4.73.5-6.71,3.22-10.51,14.44-33.24,5.55-33.97-10.99ZM652.4,392.63c10.1-3.76,19.28-10.44,30.43-11.01,3.75-.19,11.77,1.61,13.86.89.96-.33,3.97-4.9,5.66-6.36,4.64-4.01,10.65-5.46,16.62-6.36,4.43-.67,12.04,1.66,13.93-4.06,3.14-9.51-9.49-16.53-17.58-13.57l-61.94,30.98c-1.98,2.22-.65,6.6-.98,9.5ZM631.41,386.65c-5.23-.24-11.36,1.88-13.97,6.49,4.76-.62,10.63-2.84,13.97-6.49ZM646.4,387.64l-129.9,58.95c1.41,3.92,4.02,6.26,3,10.97,1.45.29,2.46-.33,3.71-.78,30.31-10.96,62.89-34.55,92.86-48.02,2.16-.97,9.91-2.82,10.25-3.23.9-1.1-1.73-6,3.35-8.14,12.07-5.07,20.17,14.71,16.72-9.75ZM541.48,428.58c-6.61-14.68-26.02-27.36-39.86-13.37-1.69,1.71-9.89,12.69-11.14,14.83s-1.92,4.12.72,5.36c4.73-.19,17.76,7.32,20.71,7.18,5.91-.29,22.25-12.91,29.57-14.01ZM603.44,422.62c2.28,11.56,26-1.72,28.48-7.03,1.73-3.71-1.99-7.3-5.51-6.55-6.79,1.44-16.31,10.88-22.97,13.58ZM557.47,419.61l-14.99-2c2.73,9.46,9.02,7.71,14.99,2ZM602.43,431.59c-2.75-1.55-4.66-4.41-8.24-3.84-1.2.19-11.83,5.52-13.5,6.54-2.12,1.28-1.2,2.27-1.24,4.3-4.68.21-9.86-.71-12.99,3.99,11.44-.45,23.22,2.54,34.45.98,3.9-.71,8.37-8.5,5.09-11.03-1.4-1.08-3.05-.63-3.56-.93ZM535.48,457.57c-1.56-1.54-28.58,15.01-33.72,15.74-9.37,1.34-14.95-5.98-18.65-5.77-1.77.1-18.85,8.6-20.96,10.13-.93.67-1.53.77-1.45,2.17.39,7.19,13.31,16.67,2.54,22.87-3.55,2.05-8.92,4.24-12.14.75-2.11-2.3-14.5-30.35-15.61-34.4-1.6-5.82,5.15-10.04,10.06-11.08,7.73-1.63,10.16,14.74,13.32,14.44,1-.09,16.61-7.98,18.02-9.01.85-.62,1.96-.96,1.6-2.29l-4.59-4.49c-2.24-.39-5.14,6.55-8.75,4.92-6.5-.67-36.57-28.28-38.94-27.87-18.98,13.43-26.87,31.81-22.16,54.87,6.47,31.7,41.11,72.19,76.52,54.44,16.51-8.28,17.42-20.78,25.13-34.81,13.35-24.31,29.7-7.92,45.69-19.25,15.65-11.1-2.88-12.5-10.24-17.56-4.9-3.37-8.06-7.82-5.66-13.81ZM484.72,440.78c-.54.32-7.26,8.99-7.03,10.14.73,3.64,13.19,14.42,17.26,15.69,11.54,3.6,26.21-9.32,13.49-18.47-3.49-2.51-20.59-9.2-23.72-7.35ZM447.47,464.62c-1.35-.98-6.11.94-5.76,4.17.21,1.92,11.04,25.95,12.63,28.43,2.49,3.87,3.81,1.47,7.25-.27-2.7-4.24-12.16-30.91-14.12-32.32ZM525.49,499.51c-15.12,1.63-18.82,28.58-27.7,38.57,3.21,23.64,13.13,46.39,18.02,69.5,5.5,25.96,1.22,52.04,1.72,78.27l-3.1,47.79c.37,1.34,22.59,3.84,25.98,3.55l10.67-93.55c.32-1.1-.64-2.46-.62-3.28,1.81-1.04,1.72-2.74,1.99-4.51,2.24-14.67,2.77-28.95.72-43.65-4.21-30.22-15.38-60.89-20.88-91-.83-2.32-4.6-1.92-6.81-1.69ZM315.65,552.45h24.48c.11,0,1.5,1.39,1.5,1.5v230.24h84.94c-.46-14.66,11.99-25.46,9.06-40.41-.24-1.2-2.9.11-3.13-1.09-.45-39.93.82-79.94.11-119.86-.16-9.1-1.83-19.75-2.08-28.89s1.66-47.21-.69-52.25c-.69-1.48-8.66-7.82-10.77-10.21-2.5-2.83-9.75-14.52-11.46-15.52-3.23-1.89-5.33,3.66-6.51,6.53-13.36,32.61-.82,91.74-4.63,128.22-2.12,20.3-21.62,34.8-34.89,13.14-11.41-18.61-14.17-61.29-12.94-82.93,1-17.67,11.44-41.95-15.62-44.33-9.89-.87-6.95,2.66-10.02,3.71-1.77.6-6.98-.22-7.35.15-.42.42.32,10.1,0,11.99ZM297.66,520.49h-140.9v31.96h139.4c.11,0,1.5-1.39,1.5-1.5v-30.47ZM492.51,543.47l-12.03,6.66c-.89,31.01,1.33,62.79.03,93.72-.83,19.79-2.66,40.14-4,59.93-.9,13.29-1.9,27.06-3.92,40.03-1.46,1-4.88-.26-5.09,1-1.75,10.67,2.18,13.8,4.54,22.39,1.53,5.56,1.38,11.53,3.04,17.04,4.43-.75,28.43,1.25,29.97-.97,1.82-2.63-.66-8.5-.64-11.55.05-9.59,4.69-12.87,5.87-18.18.23-1.03,1.36-11.06,1.28-11.64-.15-1.02-3.18-1-3.89-3.33-.57-1.86-.3-5.69-.22-7.85,1.43-37.4,9.84-88.88,1.74-124.52-4.72-20.78-14.11-41.29-16.7-62.72ZM474.52,552.46c-9.07,1.61-18.47,1.86-27.25-1.23-1.74-.61-10.09-5.46-10.71-4.76l3.66,190.82,27.32.96c1.43-18.42,1.72-36.99,3-55.43,1.03-14.9,3.41-30.02,4.03-44.92,1.17-28.18-.95-57.19-.05-85.44ZM335.63,563.44c-.08-1.66.07-3.34,0-5H112.79s0,225.76,0,225.76c1.99.05,4.01-.08,6,0l215.79-.05,1.1-8.39c-2.46-70.17,3.12-142.39-.05-212.31ZM688.37,704.29c.09-.89,1.56-2.47,1-3.99-2.95.49-13.13-1.1-14.55.93-1.66,2.38.33,17.1-.44,21.05,1.32.07,2.68-.09,4,0,3.63.22,7.36-.15,11,0-.53-5.95-1.57-11.96-1-17.98ZM800.29,704.29c-.08-1.33.07-2.68,0-4-2.84.48-12.16-1.06-13.56.94-1.66,2.38.33,17.1-.44,21.05,1.32.07,2.68-.09,4,0,3.3.2,6.69-.14,10,0-.27-5.95.35-12.04,0-17.99ZM516.5,754.23c5.85-2.1,25.4.83,21.85-9.36-1.1-3.16-17.09-2.97-20.82-3.57l-1.04,12.93ZM673.38,758.23h143.89c.57-.54-2.37-10.25-2.99-11.99-.39-1.08-.91-3.87-1.61-4.06l-143.29.06c1.07,4.89-3.09,16.57,4,15.99ZM460.54,744.24h-17.99v8.99h17.99v-8.99ZM538.48,757.23c-1.66.05-3.76-.34-5.24.02-1.1.27-1.25,1.66-1.75,1.98-6.08-.39-12.04.53-18.03,1.46-2.53,3.13-1.59,7.05-1.96,10.53-.09.85-1.36,2.03-1.11,4.51.22,2.21,2.47.72,2.11,3.48-.12.91-1.92,3.03-1,4.99h73.95s0-5,0-5c-10.5-.07-21.04.1-31.55.05-1.89,0-3.77-1.04-4.42-1.04-1.74-7.84,7.74-2.78,7.99-7.99,7.44,2.48,15.26,3.13,22.98,3.99,2.57-1.91-19.78-6.67-21.26-7.21-2.88-1.05-6.68-3.06-9.41-4.58-2.5-1.39-5.81-5.08-8.3-5.77-1.8-.5-2.43.56-3,.58ZM444.55,759.22c-5.93.7-8.41,8.76-8.99,13.98,1.41.59,3.33-1.01,3.99-.99,8.19.14,16.54,1.36,24.98,1,.66-.03,1.33.05,1.99,0,.33-3.74-3.02-12.65-6.71-13.77-1.93-.59-4.26-.11-6.28-.21-2.66-.13-6.45-.3-8.99,0ZM467.53,779.2h-33.48c-1.88,0-1.88,4.99,0,4.99h33.48v-4.99Z"/>
    <rect class="cls-15" x="96.81" y="800.18" width="804.4" height="4.99"/>
    <rect class="cls-7" x="822.27" y="353.68" width="45.97" height="78.91"/>
    <path class="cls-14" d="M870.23,813.16c.3,3.01.05,5.22-3.45,5.04H149.22c-3.5.17-3.75-2.03-3.45-5.04h724.46Z"/>
    <path class="cls-15" d="M820.27,825.15v4.99H204.23c-1.31,0-1.83-3.69-1.5-4.99h617.54Z"/>
    <path class="cls-3" d="M830.26,769.21c1.98,4.76,4.92,9.28,4,14.99-62.2-1.33-124.69,1.77-186.87,0,.09-2.29,2.08-14.65,3.65-15.03l179.21.05Z"/>
    <path class="cls-12" d="M207.73,462.56c12.2,1.31,26.53-.98,38.98,0,.24-1.01-.33-3.48,0-4,.13-.22,4.14-.97,5-1,.55.8,5.35,4.75,6.52,4.97h54.77c.87.19,1.34,2.12,1.67,3.02-2.36-.26-4.11.82-5,3h-165.88c.51-3.36-3.6-1.72-6-2,.48-3.02,1.53-3.66,4.45-4.04,15.66-2.08,35.82,1.67,51.99.03,1.3-.25,5.69-3.95,6.52-4.97,1.89,3.95,2.72,4.54,6.99,4.99Z"/>
    <path class="cls-3" d="M179.75,342.69c-.81,4.96.97,9.78,1.09,14.48.07,2.6-1.02,4.71-1.1,6.99-.1,2.97,1.51,6.72,0,10.49h-32.98v-30.47c0-.11,1.39-1.5,1.5-1.5h31.48Z"/>
    <path class="cls-1" d="M742.33,698.79c.1-.47,1.96-3.23,2.43-3.57,2.2-1.58,21.27-1.57,23.3.33,3.97,3.73,2.32,26.67,1.25,32.7h-25.48c-.11,0-1.5-1.39-1.5-1.5,0-7.04-1.24-22.12,0-27.97ZM763.31,704.29c-.08-1.33.07-2.68,0-4-2.95.5-13.14-1.09-14.56.94-1.66,2.38.33,17.1-.44,21.05,1.32.07,2.68-.09,4,0,3.63.22,7.36-.16,11,0-.27-5.95.35-12.04,0-17.99Z"/>
    <path class="cls-1" d="M732.34,728.26h-25.48c-.11,0-1.5-1.39-1.5-1.5v-27.97c0-6.55,24.72-5.51,26.49-2.51.79,10.58.68,21.55.49,31.98ZM726.34,704.29c-.08-1.33.07-2.68,0-4-2.95.5-13.14-1.09-14.56.94-1.66,2.38.33,17.1-.44,21.05,1.32.07,2.68-.09,4,0,3.63.22,7.36-.16,11,0-.27-5.95.35-12.04,0-17.99Z"/>
    <path class="cls-5" d="M726.34,548.46v-6.99h65.45c2.04,0,2.04,6.99,0,6.99h-65.45Z"/>
    <rect class="cls-3" x="726.34" y="525.48" width="65.95" height="5.99"/>
    <rect class="cls-3" x="726.34" y="492.52" width="65.95" height="5.99"/>
    <path class="cls-1" d="M251.69,457.56c-.86.03-4.86.78-5,1-5.31-6.72-19.42-5.7-27.46-4.98-4.64.42-14.92,2.29-11.51,8.97-4.28-.46-5.11-1.05-6.99-4.99.3-.37.31-2.29,1.12-3.33,4.25-5.48,8.57-6.19,15.33-6.7,7.44-.56,25.93-1.14,31.44,3.61,2.7,2.33,2.33,5.32,3.08,6.42Z"/>
    <path class="cls-5" d="M792.29,508.5v6.99h-46.97c-.17-1.41-.27-6.99,1.5-6.99h45.47Z"/>
    <rect class="cls-3" x="746.33" y="558.45" width="45.97" height="5.99"/>
    <path class="cls-1" d="M968.16,790.19h-21.48c-1.98,0-1.98-5.99,0-5.99h19.99c1.53,0,1.76,4.57,1.5,5.99Z"/>
    <path class="cls-13" d="M618.12,580.62c7.93-2.39,9.92,7.6,3.32,9.39-5.41,1.46-8.83-7.73-3.32-9.39Z"/>
    <path class="cls-1" d="M669.04,281.97c6.53-.62,7.64,12.47-1.95,9.58-4.76-1.44-3-9.11,1.95-9.58Z"/>
    <path class="cls-1" d="M681.13,349.93c4.08,4.1-1.06,12.07-6.35,7.84-4.84-3.87,1.32-12.89,6.35-7.84Z"/>
    <path class="cls-1" d="M696.11,350.43c-3.78,3.74-11.76-1.42-7.2-6.7s11.04,2.9,7.2,6.7Z"/>
    <path class="cls-13" d="M250.84,391.78c5.37-3.36,11.46,3.93,6.45,7.94-6.23,4.98-9.95-5.74-6.45-7.94Z"/>
    <path class="cls-13" d="M702.07,336.87c6.47-1.93,8.39,6.28,4.29,8.32-6.61,3.3-9.56-6.75-4.29-8.32Z"/>
    <rect class="cls-5" x="327.63" y="296.74" width="8" height="8"/>
    <rect class="cls-5" x="327.63" y="279.75" width="8" height="8"/>
    <path class="cls-5" d="M286.67,287.75h-8s0-8,0-8c7.65-.76,8.76.34,8,8Z"/>
    <path class="cls-5" d="M286.67,304.74h-8s0-8,0-8c7.65-.76,8.76.34,8,8Z"/>
    <rect class="cls-5" x="295.66" y="279.75" width="7.01" height="8"/>
    <rect class="cls-5" x="311.64" y="296.74" width="7.01" height="8"/>
    <rect class="cls-5" x="295.66" y="296.74" width="7.01" height="8"/>
    <rect class="cls-5" x="311.64" y="279.75" width="7.01" height="8"/>
    <path class="cls-3" d="M335.63,563.44c3.17,69.91-2.41,142.14.05,212.31l-1.1,8.39-215.79.05.44-219.82,216.4-.94ZM311.65,584.42v110.38c0,2.04,6.99,2.04,6.99,0v-114.87c0-.11-1.39-1.5-1.5-1.5h-181.86l-.5,131.86h6v-125.86h170.87ZM163.76,767.22c.05-1.86.45-4.17-1.64-4.85-1.55-.5-17.72-.83-20.71-.77-5.53.12-5.08,5.62-3.13,5.62h25.48ZM241.7,767.22h27.48c.84,0,1.87-2.26,1.48-3.48-.81-2.58-15.1-1.41-18.51-1.47-5.14-.08-11.99-3.58-10.45,4.95ZM283.42,761.4c-1.88.35-4.48,1.95-3.73,4.28,3.77,4.19,8.16,1.36,12.46,1.45,2.9.06,12.07,3.04,13.43-1.51,1.87-6.31-9.88-3.3-12.41-3.32-3.31-.02-6.97-1.43-9.76-.9ZM174.25,762.22c-2.32.89-1.53,4.99,0,4.99h25.98c1.88,0,1.88-4.99,0-4.99h-25.98ZM232.71,762.22c-.71-.74-17.57,0-20.48,0-1.88,0-1.88,4.99,0,4.99h18.99c1.27,0,2.05-4.43,1.5-4.99Z"/>
    <path class="cls-8" d="M477.53,295.74c.73,16.54,23.46,25.43,33.97,10.99,13.88,4.05,19.94,10.9,21.02,25.43,1.77,23.69-1.83,49.76-.04,73.46-1.88,2.05-8.99-1.3-8.99-2.5v-64.93c0-2.04-6.99-2.04-6.99,0v64.43c-9.3-.22-16.28,4.72-21.96,11.51-1.79,2.13-8.42,13.88-10.45,13.43l-40.61-39.35-.73-4.82,19.65-48.99c-1.03-2.24-3.24-3.76-5.43-1.78l-22.44,55.45,46.53,46.56c1.37,3.36-8.42,13.35-11.04,15.97-.8.8-2.41.85-2.48.97-7.03-4.6-13.9-9.75-20.46-15.01-10.85-8.71-36.72-28.64-36.53-43.37.11-8.72,6.12-26.21,8.76-35.28,2.89-9.94,11.91-42.06,17.41-48.53,7.96-9.37,29.47-9.87,40.82-13.64Z"/>
    <path class="cls-2" d="M535.48,457.57c-2.4,6,.77,10.45,5.66,13.81,7.36,5.06,25.89,6.47,10.24,17.56-15.99,11.34-32.34-5.06-45.69,19.25-7.71,14.03-8.62,26.53-25.13,34.81-35.41,17.75-70.05-22.74-76.52-54.44-4.71-23.07,3.18-41.44,22.16-54.87,2.36-.42,32.44,27.2,38.94,27.87,3.61,1.63,6.52-5.31,8.75-4.92l4.59,4.49c.36,1.32-.75,1.67-1.6,2.29-1.42,1.03-17.02,8.91-18.02,9.01-3.16.3-5.59-16.07-13.32-14.44-4.9,1.03-11.65,5.25-10.06,11.08,1.11,4.05,13.5,32.11,15.61,34.4,3.21,3.49,8.59,1.3,12.14-.75,10.77-6.21-2.14-15.69-2.54-22.87-.08-1.4.52-1.49,1.45-2.17,2.11-1.52,19.19-10.03,20.96-10.13,3.7-.2,9.29,7.11,18.65,5.77,5.14-.74,32.15-17.29,33.72-15.74Z"/>
    <path class="cls-3" d="M525.49,499.51c13.22,46.18,26.28,92.24,24.98,140.84-.02.82.94,2.18.62,3.28l-10.67,93.55c-3.39.29-25.62-2.21-25.98-3.55l3.1-47.79c-.51-26.23,3.77-52.31-1.72-78.27-4.89-23.11-14.81-45.85-18.02-69.5,8.88-9.99,12.58-36.94,27.7-38.57Z"/>
    <path class="cls-3" d="M308.65,473.54v78.92c-1.87.05-4.18.44-4.86-1.64-1.11-5.43,1.41-33.67-1.13-35.83-.82-.7-2.66-.84-3.75-1.24-46.42,1.19-94.45-2.42-140.69-.29-2.95.14-5.55.96-8.45,1.05.06-11.44-.85-24.37-.07-35.58.14-1.97.49-2.02,1.07-3.38l.98-.5-.98-.5,157.88-1Z"/>
    <path class="cls-8" d="M474.52,552.46c-.9,28.25,1.21,57.26.05,85.44-.62,14.9-2.99,30.02-4.03,44.92-1.28,18.44-1.57,37.01-3,55.43l-27.32-.96-3.66-190.82c.62-.69,8.98,4.15,10.71,4.76,8.78,3.09,18.18,2.84,27.25,1.23Z"/>
    <path class="cls-11" d="M297.66,520.49v30.47c0,.11-1.39,1.5-1.5,1.5h-139.4v-31.96h140.9ZM176.49,525.74c-8.86,2.28-8.98,17.41.2,20.27,18.56,5.79,19.98-25.46-.2-20.27ZM283.67,530.48h-82.94v5.99h82.94v-5.99Z"/>
    <path class="cls-6" d="M118.79,784.2c-1.99-.07-4.01.06-6,0v-225.76s222.85,0,222.85,0c.06,1.66-.08,3.34,0,5l-216.4.94-.44,219.82Z"/>
    <path class="cls-3" d="M548.47,256.78c-3.31-4.28-6.11-8.23-10.51-11.96-9.12-7.73-20.29-8.62-29.5-.56-1.35,1.18-2.31,4.07-3.61,4.46-1.74.52-4.92-2.38-8.74-1.89-2.91.37-5.18,2.61-7.59,3.97v-17.48c0-5.54,4.66-13.86,10.26-15.71,4.87-1.61,7.62.43,10.75-.22,5.78-1.2,11.91-8.62,20.53-8.62,1.8,0,1.19,1.83,2.13,2.06,6,1.5,2.6.91,4.29,2.02l4.48,5.96c8.35,10.84,27.94,10.5,31.04,24.94,1.27,5.93.26,10.69-5.2,13.89-8.02,4.71-10.68.06-18.33-.85Z"/>
    <path class="cls-2" d="M507.32,297.92c3.42,5.78-8.96,14.14-18.3,6.8-10.26-8.06-2.9-23.3,2.3-32.65.94-1.69,3.95-4.15,4.08-4.94.32-1.91-6.86-10.07.37-13.62,7.48-3.67,4.83,7.2,6.21,9.29,3.61,5.48,6.8-6.72,7.65-8.4,5.08-10.08,14.02-12.33,23.35-5.61,1.68,1.21,8.95,9.17,9.36,10.7.31,1.17-6.98,19.91-7.9,22.71-11.8,3-11.52,20.57-25.85,9.95-3.31-2.46-7.14-10.64-11.11-7.94-3.56,2.42,5.16,10.28,7.02,12.08.79.76,2.63,1.3,2.82,1.63Z"/>
    <path class="cls-9" d="M646.4,387.64c3.44,24.46-4.66,4.68-16.72,9.75-5.09,2.14-2.45,7.03-3.35,8.14-.34.42-8.09,2.26-10.25,3.23-29.97,13.47-62.55,37.06-92.86,48.02-1.25.45-2.25,1.07-3.71.78,1.02-4.72-1.59-7.05-3-10.97l129.9-58.95Z"/>
    <path class="cls-6" d="M309.65,468.55v4c-.29.28-.43.89-1,1l-157.88,1c-.15.16.13.69,0,1-.58,1.36-.93,1.41-1.07,3.38-.78,11.21.13,24.13.07,35.58-.07,12.64.04,25.32,0,37.96h-5.01s-.99-83.91-.99-83.91h165.88Z"/>
    <path class="cls-14" d="M467.53,451.57c-.52.83.95,4.72-3.94,3.52-9.35-7.65-19.41-14.56-28.51-22.52-7.23-6.33-26.22-23.71-28.72-32.22-3.02-10.26,2.91-28.08,5.95-38.44,3.36-11.46,13.87-47.33,19.84-55.09,9.56-12.43,32.26-12.83,46.38-18.06-.57,2.44-1.11,4.4-1,6.99-11.35,3.76-32.86,4.27-40.82,13.64-5.49,6.47-14.51,38.58-17.41,48.53-2.64,9.07-8.65,26.56-8.76,35.28-.19,14.73,25.68,34.67,36.53,43.37,6.56,5.26,13.43,10.4,20.46,15.01Z"/>
    <path class="cls-11" d="M652.4,392.63c.33-2.9-1-7.28.98-9.5l61.94-30.98c8.09-2.96,20.72,4.06,17.58,13.57-1.89,5.72-9.5,3.39-13.93,4.06-5.96.91-11.97,2.35-16.62,6.36-1.69,1.46-4.7,6.03-5.66,6.36-2.09.72-10.11-1.08-13.86-.89-11.15.57-20.33,7.26-30.43,11.01ZM712.06,355.82c-3.59,1-3.7,6.57,0,7.67,8.08,2.41,6.43-9.46,0-7.67Z"/>
    <path class="cls-2" d="M541.48,428.58c-7.32,1.1-23.65,13.72-29.57,14.01-2.95.14-15.98-7.37-20.71-7.18-2.64-1.24-1.93-3.28-.72-5.36s9.45-13.13,11.14-14.83c13.84-13.99,33.26-1.31,39.86,13.37Z"/>
    <path class="cls-14" d="M550.47,640.36c1.3-48.6-11.77-94.66-24.98-140.84,2.21-.24,5.98-.64,6.81,1.69,5.5,30.11,16.67,60.78,20.88,91,2.05,14.7,1.52,28.98-.72,43.65-.27,1.77-.18,3.47-1.99,4.51Z"/>
    <path class="cls-3" d="M538.48,757.23l9.67,8.81c2.98,1.63,6.1,3.1,9.31,4.18-.25,5.21-9.73.15-7.99,7.99-3.14,0-5.71,1.03-8.46,1.04-9.5.03-19.02-.11-28.52-.04.35-2.76-1.9-1.27-2.11-3.48-.24-2.48,1.02-3.66,1.11-4.51,3.15-1.09,4.06-4.01,7.47-6.02,4.07-2.39,8.09-3.09,12.52-5.97.5-.32.65-1.72,1.75-1.98,1.48-.36,3.59.03,5.24-.02Z"/>
    <path class="cls-11" d="M484.72,440.78c3.13-1.84,20.24,4.84,23.72,7.35,12.72,9.15-1.95,22.07-13.49,18.47-4.07-1.27-16.53-12.05-17.26-15.69-.23-1.14,6.49-9.82,7.03-10.14Z"/>
    <path class="cls-6" d="M673.38,758.23c-7.09.59-2.94-11.1-4-15.99l143.29-.06c.7.19,1.22,2.98,1.61,4.06l-134.38.02c-3.68.7-6.75,8.44-6.52,11.97Z"/>
    <path class="cls-10" d="M511.5,306.73c1.98-2.72.83-5.47,6.71-3.22,3.88,1.49,18.19,14.07,19.06,17.91.81,30.39-.77,60.87,1.2,91.18-4.76-1.22-5.65-2.52-5.99-6.99-1.79-23.7,1.81-49.77.04-73.46-1.08-14.53-7.14-21.38-21.02-25.43Z"/>
    <path class="cls-14" d="M549.47,778.2c.65,0,2.54,1.03,4.42,1.04,10.52.05,21.05-.12,31.55-.05v5h-73.95c-.91-1.97.89-4.09,1-5,9.49-.07,19.01.07,28.52.04,2.74,0,5.32-1.04,8.46-1.04Z"/>
    <path class="cls-10" d="M536.48,212.83c5.11,3.35,12.11,8.28,17.32,11.16,5.77,3.18,14.05,4.62,18.1,9.87,12.92,16.73-8.75,41.89-23.43,22.92,7.65.9,10.32,5.55,18.33.85,5.46-3.2,6.47-7.97,5.2-13.89-3.1-14.45-22.7-14.1-31.04-24.94l-4.48-5.96Z"/>
    <path class="cls-9" d="M603.44,422.62c6.66-2.7,16.18-12.15,22.97-13.58,3.52-.75,7.24,2.84,5.51,6.55-2.48,5.31-26.2,18.59-28.48,7.03Z"/>
    <path class="cls-8" d="M453.54,759.22c6.89,3.07,7.39,8.26,10.99,13.98-8.44.36-16.79-.86-24.98-1l5-12.99c2.55-.3,6.33-.13,8.99,0Z"/>
    <path class="cls-6" d="M447.47,464.62c1.96,1.41,11.42,28.08,14.12,32.32-3.43,1.74-4.76,4.14-7.25.27-1.59-2.48-12.42-26.51-12.63-28.43-.35-3.23,4.4-5.14,5.76-4.17Z"/>
    <path class="cls-6" d="M516.5,754.23l1.04-12.93c3.73.6,19.72.42,20.82,3.57,3.54,10.19-16,7.26-21.85,9.36Z"/>
    <path class="cls-15" d="M602.43,431.59c.52.29,2.16-.16,3.56.93,3.28,2.53-1.19,10.32-5.09,11.03-11.23,1.56-23-1.43-34.45-.98,3.13-4.7,8.31-3.77,12.99-3.99,7.39-.33,25.18,3.67,22.98-6.99Z"/>
    <path class="cls-3" d="M602.43,431.59c2.2,10.66-15.6,6.66-22.98,6.99.04-2.03-.87-3.02,1.24-4.3,1.68-1.02,12.3-6.34,13.5-6.54,3.57-.57,5.49,2.29,8.24,3.84Z"/>
    <path class="cls-3" d="M688.37,704.29c-.57,6.01.48,12.03,1,17.98-3.64-.15-7.37.22-11,0,.71-9.58-4.12-19.97,9.99-17.98Z"/>
    <path class="cls-14" d="M467.53,779.2v4.99h-33.48c-1.88,0-1.88-4.99,0-4.99h33.48Z"/>
    <path class="cls-3" d="M800.29,704.29c.36,5.94-.26,12.03,0,17.99-3.31-.15-6.7.19-10,0,.61-2.99-.91-14.25.13-15.85.44-.67,8.2-2.28,9.86-2.13Z"/>
    <rect class="cls-9" x="442.55" y="744.24" width="17.99" height="8.99"/>
    <path class="cls-10" d="M538.48,757.23c.56-.02,1.2-1.08,3-.58,2.5.69,5.8,4.38,8.3,5.77,2.73,1.52,6.53,3.53,9.41,4.58,1.48.54,23.83,5.3,21.26,7.21-7.73-.86-15.55-1.51-22.98-3.99-3.21-1.07-6.34-2.55-9.31-4.18l-9.67-8.81Z"/>
    <path class="cls-15" d="M790.29,722.27c-1.33-.08-2.68.07-4,0,.77-3.94-1.22-18.67.44-21.05,1.4-2,10.72-.46,13.56-.94.07,1.32-.09,2.67,0,4-1.66-.15-9.43,1.46-9.86,2.13-1.04,1.6.48,12.86-.13,15.85Z"/>
    <path class="cls-15" d="M678.38,722.27c-1.33-.08-2.68.07-4,0,.77-3.94-1.22-18.67.44-21.05,1.42-2.03,11.6-.44,14.55-.93.56,1.52-.91,3.1-1,3.99-14.11-1.99-9.28,8.4-9.99,17.98Z"/>
    <path class="cls-15" d="M531.49,759.22c-4.43,2.87-8.45,3.57-12.52,5.97-3.41,2.01-4.32,4.93-7.47,6.02.37-3.48-.57-7.4,1.96-10.53,5.99-.92,11.94-1.85,18.03-1.46Z"/>
    <path class="cls-10" d="M453.54,759.22c2.02.1,4.35-.38,6.28.21,3.68,1.12,7.04,10.04,6.71,13.77-.66.05-1.33-.02-1.99,0-3.61-5.73-4.1-10.91-10.99-13.98Z"/>
    <path class="cls-13" d="M557.47,419.61c-5.97,5.71-12.26,7.46-14.99-2l14.99,2Z"/>
    <path class="cls-10" d="M444.55,759.22l-5,12.99c-.66-.01-2.58,1.58-3.99.99.58-5.22,3.06-13.28,8.99-13.98Z"/>
    <path class="cls-10" d="M631.41,386.65c-3.34,3.66-9.21,5.87-13.97,6.49,2.61-4.61,8.74-6.73,13.97-6.49Z"/>
    <path class="cls-12" d="M309.65,469.55c1.98-.47,2.64.48,2.02,2.5-.31,1-1.79.28-2.02.49v-3Z"/>
    <path class="cls-6" d="M207.73,462.56c-3.41-6.68,6.87-8.56,11.51-8.97,8.04-.72,22.16-1.74,27.46,4.98-.32.53.25,2.99,0,4-12.45-.98-26.78,1.3-38.98,0Z"/>
    <path class="cls-3" d="M763.31,704.29c.36,5.94-.26,12.03,0,17.99-3.64-.16-7.37.21-11,0-.13-2.48.17-17.09,1.01-17.97.39-.41,8.26.26,9.98,0Z"/>
    <path class="cls-15" d="M752.32,722.27c-1.33-.08-2.68.07-4,0,.77-3.94-1.22-18.67.44-21.05,1.41-2.03,11.6-.44,14.56-.94.07,1.32-.09,2.67,0,4-1.73.27-9.6-.4-9.98,0-.83.88-1.14,15.5-1.01,17.97Z"/>
    <path class="cls-3" d="M726.34,704.29c.36,5.94-.26,12.03,0,17.99-3.64-.16-7.37.21-11,0l.99-17.99h10Z"/>
    <path class="cls-15" d="M715.35,722.27c-1.33-.08-2.68.07-4,0,.77-3.94-1.22-18.67.44-21.05,1.41-2.03,11.6-.44,14.56-.94.07,1.32-.09,2.67,0,4h-10s-.99,17.98-.99,17.98Z"/>
    <path class="cls-13" d="M311.65,584.42h-170.87v125.86h-6s.5-131.85.5-131.85h181.86c.11,0,1.5,1.39,1.5,1.5v114.87c0,2.04-6.99,2.04-6.99,0v-110.38Z"/>
    <path class="cls-9" d="M283.42,761.4c2.79-.52,6.45.88,9.76.9,2.53.01,14.28-3,12.41,3.32-1.35,4.55-10.52,1.57-13.43,1.51-4.31-.09-8.7,2.74-12.46-1.45-.75-2.33,1.84-3.93,3.73-4.28Z"/>
    <path class="cls-11" d="M241.7,767.22c-1.53-8.53,5.31-5.03,10.45-4.95,3.4.06,17.7-1.11,18.51,1.47.38,1.21-.64,3.48-1.48,3.48h-27.48Z"/>
    <path class="cls-11" d="M174.25,762.22h25.98c1.88,0,1.88,4.99,0,4.99h-25.98c-1.53,0-2.32-4.1,0-4.99Z"/>
    <path class="cls-11" d="M163.76,767.22h-25.48c-1.95,0-2.4-5.5,3.13-5.62,3-.06,19.17.27,20.71.77,2.09.68,1.69,2.99,1.64,4.85Z"/>
    <path class="cls-11" d="M232.71,762.22c.55.57-.23,4.99-1.5,4.99h-18.99c-1.88,0-1.88-4.99,0-4.99,2.91,0,19.77-.74,20.48,0Z"/>
    <path class="cls-1" d="M150.77,475.54c.13-.31-.15-.84,0-1l.98.5-.98.5Z"/>
    <rect class="cls-1" x="200.73" y="530.48" width="82.94" height="5.99"/>
    <path class="cls-1" d="M176.49,525.74c20.17-5.19,18.76,26.06.2,20.27-9.17-2.86-9.06-18-.2-20.27ZM184.6,539.32c3.34-5.32-3.86-11.47-7.95-6.43-4.65,5.74,5.73,9.96,7.95,6.43Z"/>
    <path class="cls-1" d="M712.06,355.82c6.42-1.79,8.07,10.08,0,7.67-3.69-1.1-3.58-6.67,0-7.67Z"/>
    <path class="cls-14" d="M184.6,539.32c-2.22,3.53-12.6-.7-7.95-6.43,4.09-5.04,11.29,1.12,7.95,6.43Z"/>
  </g>
</svg>