<?xml version="1.0" encoding="UTF-8"?>
<svg xmlns="http://www.w3.org/2000/svg" viewBox="0 0 1024 1024">
  <defs>
    <style>
      .cls-1 {
        fill: #464b4a;
      }

      .cls-2 {
        fill: #454a49;
      }

      .cls-3 {
        fill: #7f7373;
      }

      .cls-4 {
        fill: #f8f9f9;
      }

      .cls-5 {
        fill: #181b1b;
      }

      .cls-6 {
        fill: #e2e2e3;
      }

      .cls-7 {
        fill: #edeeef;
      }

      .cls-8 {
        fill: #373b3a;
      }

      .cls-9 {
        fill: #f6f7f7;
      }

      .cls-10 {
        fill: #fbfbfb;
      }

      .cls-11 {
        fill: #151819;
      }

      .cls-12 {
        fill: #fafbfb;
      }

      .cls-13 {
        fill: #101513;
      }

      .cls-14 {
        fill: #b2b2b2;
      }
    </style>
  </defs>
  <g id="_검은색_배경" data-name="검은색 배경">
    <rect class="cls-3" x="0" y="0" width="1024" height="1024"/>
  </g>
  <g id="_레이어_1" data-name="레이어 1">
    <path class="cls-11" d="M95.81,717.27c-1.51-1.8-.62-6.99,1.5-6.99h245.32l-11-96.89-131.33,87.93-3.98-3.12-71.99-104.83-.55-4.41,162.62-114.28c2.32-.67,3.95.52,5.25,2.37l27.98,41.43-7.99-72.9c-10.64.05-16.67,1.98-19.53-9.95-4.4-18.38-1.85-25.18,18.53-23.03.04-9.12,4.23-18.37,10.99-24.47,2.28-2.06,10.04-5.87,10.75-6.74,1.06-1.3.98-5.68,1.76-7.73,7.36-19.22,25-26.45,44.42-21.01,3.45-21.26,25.25-33.15,45.28-24.72,3.34,1.41,5.58,4.15,8.71,4.77,12.81-36.7,66.63-23.49,62.97,14.98.76.86,5.97-3.54,7.31-4.17,24.15-11.28,49.6,8.54,47.64,34.15,18.37.14,33.22,16.85,32.99,34.95,3.98-.22,12.49-.38,14.46,4.02,1.57,3.5-1.35,21.09-3.45,24.48-4.78,7.74-16.64,2.19-17.87,6.11l-16.13,139.2h273.3c2.09,0,5.09,4.31,5.44,6.55,1.07,6.86.82,27.66.11,34.95-1.02,10.58-7.89,8.92-9.55,12.43-1.03,2.17-1.56,10.72-2.56,14.42-4.58,16.9-14.54,30.96-27.43,42.5l-20.46,13.02h126.41c3.64,0,2.08,4.22,2.5,5.99l-5.45,1.04-806.95-.04ZM457.28,318.95c-9.36,1.59-21.68,14.41-19.76,24.23.56,2.85,10.87,5.53,13.57,8.55,2.5.23,5.89-3.41,8.45-4.54,6.43-2.86,13.42-3.02,20.4-2.42,3.75.32,9.04,5.16,8.35-2.28-1.51-16.29-14.94-26.26-31.01-23.54ZM429.56,343.68c-6.43-14.98-28-13.95-37.94-2.47-2.8,3.23-7.07,11.5-5.86,15.74.19.65,7.52,9.76,8.4,10.64.82.81.86,1.45,2.42,1.07,2.29-14.57,18.34-25.62,32.98-24.97ZM542.38,378.55c3.22-19.7-15.39-36.31-34.56-29.05-3.53,1.34-5.91,3.94-9.3,5.2-.45.63,4.88,8.06,5.72,9.74,1.07,2.14,1.71,6.99,2.76,8.22.57.66,9.36,3.48,11.83,5.15,2.59,1.76,5.85,6.48,7.68,7.39,1.94.97,11.63-7.7,15.87-6.66ZM441.48,372.58c.35-.32,1.6-7.22,2.28-9.2.74-2.17,3.23-3.89,2.35-5.69-3.73-7.67-20.97-7.59-27.84-4.8-6.01,2.44-19.67,16.07-15.53,22.61.34.54,8.71,4.63,10.87,6.61,1.74,1.6,2.52,4.06,4.46,5.51,4.23-6.16,11.22-12.3,18.44-14.52,1.39-.43,4.71-.26,4.98-.51ZM498.51,372.65c-4.18-27.42-42.89-28.41-49.98-1.51,9.24,2.44,19.44,5.7,24.51,14.51,7.49-6,15.28-12.73,25.47-13ZM388.59,372.65c-10.9-22.28-43.84-17.33-47.96,7,4.64-3.09,21.18,6.1,22.34,5.9.86-.15,4.67-4.57,6.31-5.72,5.51-3.89,12.39-7.31,19.31-7.17ZM443.31,378.91c-9.99,1.21-20.79,10.31-22.5,20.46-2.88,17.04,1.97,12.41,14.24,13.26,1.98.14,3.84.96,5.96,1.03,9.89.32,19.74-.69,29.59-.47,6.55-17.56-8.62-36.54-27.29-34.27ZM364.61,413.61h48.96v-19.48c0-1.95-7.62-9.1-9.66-10.33-21.75-13.09-44.92,6.46-39.3,29.8ZM526.49,413.61c5.89-24.56-22.6-45.34-42.98-27.48-9.56,8.37-4.14,9.54-3.99,18.99.04,2.54-1.71,5.6-.99,8.49h47.96ZM575.45,413.61c1.91-19.06-17.51-34.3-35.67-27.17-12.6,4.95-6.54,8.68-5.31,18.69.33,2.73-.18,5.71.02,8.48h40.97ZM356.62,413.61c.14-3.43-.28-6.93.12-10.37,1.02-8.64,6.65-11.18-3.57-14.66-14.07-4.78-29.96,2.39-34.04,17.01-.42,1.51-2.27,8.01.02,8.01h37.47ZM590.44,420.6h-292.78c1.82,5.92-.67,18.01,7.48,18l281.32-.51c2.65-1.32,3.9-14,3.99-17.49ZM320.64,454.56c9.84,85.25,19.21,170.59,29.98,255.71h18.99l-7.98-119.38c-2.97-45.38-4.33-91.07-8-136.34-.2-2.47-1.91-5.86-1-8.99h-32.98c-.4,3.09.65,6,1,8.99ZM404.58,445.57h-43.97l16.99,264.7h26.98v-264.7ZM411.57,454.56c-1.66,85.16,1.24,170.54,0,255.71h67.95c.03-6.96,2.61-17.4.56-24.03-.78-2.51-7.38-9.92-9.37-13.61-3.37-6.22-6.13-14.23-7.88-21.09-.7-2.74-1.02-9.91-1.78-11.21-1.7-2.9-9.62-1.94-11.27-11.71-1-5.91-1.12-28.77-.18-34.66.31-1.93,4.25-7.55,5.44-7.55h25.48l.07-128.48c.58-1.26-1.04-2.99-1.07-3.38-.16-1.7.59-8.83-.58-9.01h-67.38c-.04,3,.06,6.02,0,9.01ZM487.52,454.56c-.85,43.9.64,87.94,0,131.85h31.98c2.08-43.94,5.92-87.91,7.99-131.85.03-.69,2.59-8.69.42-9.01h-40.4c-.04,3,.06,6.02,0,9.01ZM535.48,454.56c-2.8,43.98-5.36,87.98-8.99,131.85h26.98l14.99-131.85v-8.99h-31.98c-.3,3.03-.8,5.93-1,8.99ZM310.65,519.49c-6.5-9.64-12.2-19.91-19.17-29.28-1.14-1.54-4.32-6.71-5.86-6.29l-152.87,106.94,69.62,101.36c38.92-27.91,79.55-53.68,118.27-81.84,6.81-4.95,9.53-3.91,8.98-13.48-1.16-20.1-6.23-41.23-7.41-61.51-1.15-4.64-8.9-11.96-11.57-15.91ZM832.26,594.41l-374.72.5v33.96c0,1.54,6.63,3.99,7.95,5.03,4.11,3.24,3.37,11.22,4.69,16.28,21.36,81.76,144.3,77.89,161.72,1.16,2.88-12.68-.94-21.73,17.04-20.02,11.2,1.06,8.38,11.93,10.73,21.23,18.03,71.45,128.31,77.78,157.08,9.76,3.59-8.5,3.57-19.03,6.27-25.7,1.71-4.24,9.24-5.19,9.24-9.74v-32.46ZM590.44,710.28h110.92l-18.9-11.57c-18.35-14.03-31.51-35.81-32.06-59.35-2.09.43-7.53-.68-8.86.14-.77.48-2,11.41-2.63,13.86-4.65,18.23-13.9,31.69-28.02,43.91l-20.46,13.02ZM487.52,694.3v15.98h23.98l-23.98-15.98Z"/>
    <path class="cls-5" d="M629.2,306.94c23.71-1.9,25.93,39.25-3.22,34.69-17.53-2.74-17.24-33.05,3.22-34.69ZM628.16,314.93c-14.96,2.87-5.36,26.98,7.75,17.77,9.28-6.52,3.31-19.89-7.75-17.77Z"/>
    <path class="cls-5" d="M687.06,329.01c9.8,11.08-7.44,26.58-17.09,15.59-10.14-11.53,7.64-26.28,17.09-15.59ZM677.04,332.8c-3.96,1.28-3.24,9.38,2.62,7.75,4.91-1.37,2.63-9.44-2.62-7.75Z"/>
    <path class="cls-14" d="M699.86,494.52h50.96c1.98,0,1.98,5.99,0,5.99h-50.96c-1.64,0-2.41-5.02,0-5.99Z"/>
    <path class="cls-14" d="M240.7,356.67h-50.46c-1.01,0-4.22-5.09,2.08-5.89,9.72-1.23,34.03-1.14,43.95-.16,4.54.45,6.19,1.3,4.44,6.05Z"/>
    <path class="cls-14" d="M699.86,436.58h50.96c1.88,0,1.88,4.99,0,4.99h-50.96c-1.53,0-2.32-4.1,0-4.99Z"/>
    <path class="cls-14" d="M751.32,485.53h-51.46c-1.88,0-1.88-4.99,0-4.99h50.96c1.95,0,1.05,3.64.5,4.99Z"/>
    <path class="cls-14" d="M751.32,465.55v4.99h-51.46c-1.88,0-1.88-4.99,0-4.99h51.46Z"/>
    <path class="cls-14" d="M751.32,450.57v4.99h-51.46c-1.88,0-1.88-4.99,0-4.99h51.46Z"/>
    <path class="cls-14" d="M240.7,321.71c.51.34,1.44,4.99-.5,4.99h-51.46c-.33-1.31.19-4.99,1.5-4.99,6.5,0,48.37-1.41,50.46,0Z"/>
    <path class="cls-14" d="M240.7,336.7v4.99h-50.46c-1.88,0-1.88-4.99,0-4.99h50.46Z"/>
    <path class="cls-5" d="M266.41,387.8c7.51-1.15,10.73,11.91,1.68,12.82-9.58.95-9.08-11.68-1.68-12.82Z"/>
    <path class="cls-5" d="M653.14,511.66c8.39-1.5,9.99,11.59,2.7,12.84-8.95,1.53-10.35-11.47-2.7-12.84Z"/>
    <path class="cls-10" d="M310.65,519.49l9.99,90.9c-38.72,28.16-79.35,53.92-118.27,81.84l-69.62-101.36,152.87-106.94c1.54-.42,4.72,4.75,5.86,6.29,6.97,9.37,12.67,19.64,19.17,29.28ZM252.01,555.75c-3.09,3.74.25,8.24,4.38,5.93,4.96-4.64,38.12-24.26,39.13-27.92,1.23-4.46-3.21-6.61-6.52-3.44l-36.98,25.43ZM193.37,568.56c-1.25.42-1.51,1.21-1.69,2.41-.73,4.88,14.59,20.39,13.92,23.81-.28,1.44-7.23,6.24-8.87,5.19-3.42-2.19-11.99-20.25-15.5-20.6-2.42-.24-20.77,12.7-21.33,14.76s.24,2.99,1.02,4.62c1.35,2.83,15.85,23.07,17.53,23.49,1.53.39,2.41-.38,3.64-1.01,5.21-2.67,26.01-17.38,30.54-21.41.97-.87,2.61-1.78,2.95-3.12.88-3.48-15.34-22.49-17.36-27.25-1.17-1.29-3.35-1.4-4.86-.89ZM260.55,589.55c-1.23-.79-4.16.08-5.58.65-3.07,1.22-26.82,17.7-29.6,20.34-4.54,4.29-2.34,9.29,3.05,7.08,3.53-1.45,26.78-17.75,30.19-20.8,1.81-1.62,4.98-5.33,1.95-7.27ZM203.92,661.13l6.17-.94c24.15-19.89,55.78-35.69,79.49-55.39,3.98-3.31,7.44-8.19-.34-8.4l-81.18,55.84c-1.57.14-9.47-11.85-9.2-13.25,2.44-3.93,16.5-10.41,16.81-14.09.27-3.16-2.73-5.01-5.64-3.8-1.71.71-16.31,11.17-18.2,12.85s-3.7,2.34-2.7,5.44c1.82,5.61,12.65,15.18,14.79,21.75Z"/>
    <path class="cls-1" d="M479.52,454.56c.04.39,1.65,2.12,1.07,3.38l-.07,128.48h-25.48c-1.19,0-5.13,5.62-5.44,7.55-.94,5.89-.81,28.75.18,34.66,1.64,9.77,9.57,8.81,11.27,11.71.76,1.3,1.08,8.47,1.78,11.21,1.75,6.86,4.51,14.88,7.88,21.09,1.99,3.68,8.59,11.1,9.37,13.61,2.05,6.63-.53,17.07-.56,24.03h-67.95c1.24-85.17-1.66-170.56,0-255.71h67.95Z"/>
    <path class="cls-2" d="M832.26,594.41v32.46c0,4.55-7.53,5.5-9.24,9.74-2.69,6.67-2.67,17.2-6.27,25.7-28.76,68.02-139.04,61.69-157.08-9.76-2.35-9.3.47-20.17-10.73-21.23-17.97-1.7-14.16,7.34-17.04,20.02-17.42,76.73-140.36,80.6-161.72-1.16-1.32-5.06-.59-13.04-4.69-16.28-1.32-1.04-7.95-3.49-7.95-5.03v-33.96l374.72-.5ZM491.24,607.62c-4.99,1.46-8.11,4.99-8.75,10.24-1.54,12.82-.02,29.71,5.53,41.46,27.28,57.68,127.22,45.11,132.37-21.47.7-9.08,2.25-27.07-8.95-29.98l-120.21-.24ZM681.1,607.62c-15.47,3.13-9.65,37.36-5.49,47.98,19.89,50.76,98.78,54.15,125.47,7.03,6.77-11.94,9.21-31.21,7.13-44.69-1-6.46-7.12-10.54-13.38-10.59l-113.73.27Z"/>
    <polygon class="cls-12" points="404.58 445.57 404.58 710.28 377.6 710.28 360.61 445.57 404.58 445.57"/>
    <path class="cls-1" d="M353.62,454.56c3.67,45.27,5.03,90.96,8,136.34l7.98,119.38h-18.99c-10.77-85.12-20.14-170.47-29.98-255.71h32.98Z"/>
    <path class="cls-10" d="M590.44,420.6c-.08,3.49-1.34,16.17-3.99,17.49l-281.32.51c-8.14,0-5.65-12.07-7.48-18h292.78Z"/>
    <path class="cls-10" d="M527.49,454.56c-2.07,43.95-5.91,87.91-7.99,131.85h-31.98c.64-43.91-.85-87.95,0-131.85h39.97Z"/>
    <path class="cls-1" d="M568.46,454.56l-14.99,131.85h-26.98c3.64-43.88,6.19-87.87,8.99-131.85h32.98Z"/>
    <path class="cls-9" d="M443.31,378.91c18.67-2.27,33.84,16.71,27.29,34.27-9.85-.21-19.7.79-29.59.47-2.12-.07-3.99-.89-5.96-1.03-12.27-.85-17.12,3.78-14.24-13.26,1.71-10.14,12.52-19.24,22.5-20.46Z"/>
    <path class="cls-9" d="M364.61,413.61c-5.62-23.35,17.55-42.89,39.3-29.8,2.04,1.23,9.66,8.37,9.66,10.33v19.48h-48.96Z"/>
    <path class="cls-9" d="M526.49,413.61h-47.96c-.72-2.89,1.03-5.95.99-8.49-.15-9.45-5.56-10.62,3.99-18.99,20.38-17.86,48.87,2.92,42.98,27.48Z"/>
    <path class="cls-4" d="M457.28,318.95c16.08-2.72,29.5,7.25,31.01,23.54.69,7.44-4.6,2.6-8.35,2.28-6.98-.6-13.97-.44-20.4,2.42-2.56,1.14-5.95,4.78-8.45,4.54-2.7-3.01-13.01-5.69-13.57-8.55-1.92-9.83,10.39-22.65,19.76-24.23Z"/>
    <path class="cls-4" d="M542.38,378.55c-4.24-1.04-13.93,7.62-15.87,6.66-1.83-.92-5.09-5.64-7.68-7.39s-11.27-4.49-11.83-5.15c-1.06-1.23-1.7-6.09-2.76-8.22-.84-1.68-6.17-9.12-5.72-9.74,3.39-1.26,5.77-3.86,9.3-5.2,19.17-7.25,37.78,9.36,34.56,29.05Z"/>
    <path class="cls-9" d="M575.45,413.61h-40.97c-.19-2.76.32-5.75-.02-8.48-1.23-10.02-7.29-13.75,5.31-18.69,18.17-7.13,37.59,8.11,35.67,27.17Z"/>
    <path class="cls-4" d="M498.51,372.65c-10.19.27-17.98,7-25.47,13-5.07-8.82-15.28-12.07-24.51-14.51,7.09-26.9,45.81-25.91,49.98,1.51Z"/>
    <path class="cls-4" d="M441.48,372.58c-.27.25-3.59.08-4.98.51-7.22,2.22-14.2,8.36-18.44,14.52-1.94-1.46-2.71-3.91-4.46-5.51-2.15-1.98-10.53-6.07-10.87-6.61-4.14-6.54,9.52-20.17,15.53-22.61,6.87-2.79,24.11-2.87,27.84,4.8.88,1.81-1.61,3.52-2.35,5.69-.68,1.98-1.94,8.88-2.28,9.2Z"/>
    <path class="cls-9" d="M356.62,413.61h-37.47c-2.29,0-.44-6.5-.02-8.01,4.08-14.62,19.97-21.79,34.04-17.01,10.22,3.47,4.59,6.02,3.57,14.66-.41,3.43.02,6.93-.12,10.37Z"/>
    <path class="cls-6" d="M320.64,610.39l-9.99-90.9c2.66,3.95,10.42,11.27,11.57,15.91,1.18,20.28,6.24,41.41,7.41,61.51.55,9.57-2.17,8.53-8.98,13.48Z"/>
    <path class="cls-9" d="M388.59,372.65c-6.93-.13-13.81,3.29-19.31,7.17-1.64,1.16-5.45,5.58-6.31,5.72-1.15.2-17.69-8.99-22.34-5.9,4.12-24.33,37.06-29.28,47.96-7Z"/>
    <path class="cls-9" d="M429.56,343.68c-14.63-.65-30.69,10.4-32.98,24.97-1.56.38-1.6-.25-2.42-1.07-.89-.88-8.22-9.99-8.4-10.64-1.21-4.23,3.06-12.51,5.86-15.74,9.94-11.48,31.51-12.51,37.94,2.47Z"/>
    <path class="cls-8" d="M411.57,454.56c.06-2.99-.04-6.01,0-9h67.38c1.16.16.42,7.3.58,9h-67.95Z"/>
    <path class="cls-6" d="M487.52,454.56c.06-2.99-.04-6.01,0-9h40.4c2.17.31-.39,8.31-.42,9h-39.97Z"/>
    <path class="cls-8" d="M320.64,454.56c-.35-2.99-1.4-5.9-1-8.99h32.98c-.91,3.13.8,6.52,1,8.99h-32.98Z"/>
    <path class="cls-8" d="M535.48,454.56c.2-3.06.7-5.96,1-8.99h31.98v8.99h-32.98Z"/>
    <polygon class="cls-9" points="487.52 694.3 511.5 710.28 487.52 710.28 487.52 694.3"/>
    <path class="cls-5" d="M203.92,661.13c-2.14-6.57-12.97-16.14-14.79-21.75-1-3.1.75-3.7,2.7-5.44s16.49-12.14,18.2-12.85c2.91-1.21,5.91.64,5.64,3.8-.31,3.67-14.37,10.16-16.81,14.09-.28,1.4,7.62,13.39,9.2,13.25l81.18-55.84c7.78.21,4.32,5.1.34,8.4-23.71,19.7-55.34,35.5-79.49,55.39l-6.17.94Z"/>
    <path class="cls-5" d="M193.37,568.56c1.51-.51,3.69-.4,4.86.89,2.02,4.75,18.24,23.77,17.36,27.25-.34,1.34-1.98,2.25-2.95,3.12-4.53,4.04-25.33,18.75-30.54,21.41-1.22.63-2.11,1.4-3.64,1.01-1.68-.43-16.18-20.66-17.53-23.49-.78-1.63-1.56-2.6-1.02-4.62s18.91-15,21.33-14.76c3.51.35,12.08,18.41,15.5,20.6,1.64,1.05,8.59-3.75,8.87-5.19.66-3.41-14.65-18.93-13.92-23.81.18-1.2.45-1.99,1.69-2.41ZM178.93,612.2c2.58,1.5,11.76-5.37,11.83-7.26s-9.81-15.45-11.53-15.6c-2.03-.19-10.51,5.34-10.49,7.55,0,.92,9.39,14.85,10.19,15.31Z"/>
    <path class="cls-5" d="M252.01,555.75l36.98-25.43c3.31-3.17,7.75-1.01,6.52,3.44-1.01,3.66-34.17,23.29-39.13,27.92-4.13,2.31-7.47-2.19-4.38-5.93Z"/>
    <path class="cls-5" d="M260.55,589.55c3.03,1.94-.14,5.65-1.95,7.27-3.41,3.05-26.65,19.35-30.19,20.8-5.39,2.21-7.59-2.79-3.05-7.08,2.79-2.64,26.53-19.12,29.6-20.34,1.43-.57,4.35-1.43,5.58-.65Z"/>
    <path class="cls-13" d="M491.24,607.62l120.21.24c11.2,2.92,9.65,20.9,8.95,29.98-5.15,66.58-105.1,79.15-132.37,21.47-5.56-11.75-7.08-28.64-5.53-41.46.63-5.25,3.75-8.78,8.75-10.24ZM488.52,625.37c-1.34,27.92,15.76,55.22,43.77,61.63,43.73,10.02,83.35-14.76,81.14-61.63-.19-3.94.72-7.76-3-10.49l-117.39-.47c-4.73.92-4.34,7.13-4.52,10.96Z"/>
    <path class="cls-13" d="M681.1,607.62l113.73-.27c6.26.05,12.39,4.14,13.38,10.59,2.09,13.48-.36,32.75-7.13,44.69-26.69,47.12-105.58,43.73-125.47-7.03-4.16-10.62-9.98-44.85,5.49-47.98ZM678.38,625.37c-.18,4.69-.4,10.81.11,15.38,7.12,63.88,126.03,69.86,122.8-15.38-.2-5.32,1.37-9.61-5.55-10.93l-114.33.46c-4.16,2.46-2.87,6.4-3.02,10.47Z"/>
    <path class="cls-9" d="M178.93,612.2c-.79-.46-10.18-14.39-10.19-15.31-.02-2.2,8.45-7.73,10.49-7.55,1.72.16,11.59,13.74,11.53,15.6s-9.25,8.76-11.83,7.26Z"/>
    <path class="cls-1" d="M801.28,625.37c3.23,85.23-115.68,79.26-122.8,15.38-.51-4.57-.28-10.69-.11-15.38h122.91ZM734.86,634.36c-2.3.45-1.55,3.89-.57,5.55.72,1.23,17.91,18.39,19.51,19.48,2.61,1.8,5.12-1,4.08-3.05-2.67-5.3-16.07-13.35-19.03-19.99-.85-.75-2.99-2.19-3.98-1.99Z"/>
    <path class="cls-8" d="M801.28,625.37h-122.91c.15-4.06-1.14-8,3.02-10.47l114.33-.46c6.93,1.32,5.35,5.61,5.55,10.93Z"/>
    <path class="cls-9" d="M570.45,659.33c-.67.67-3.45-.3-4.54-.94s-17.82-17.35-18.49-18.47c-.98-1.67-1.73-5.05.57-5.55,1.94-.42,18.38,18.19,21.52,20.42.93.79,1.35,4.14.94,4.54Z"/>
    <path class="cls-7" d="M734.86,634.36c1-.2,3.14,1.24,3.98,1.99,2.96,6.65,16.36,14.7,19.03,19.99,1.04,2.05-1.48,4.85-4.08,3.05-1.59-1.1-18.78-18.26-19.51-19.48-.98-1.66-1.72-5.1.57-5.55Z"/>
  </g>
</svg>