<?xml version="1.0" encoding="UTF-8"?>
<svg xmlns="http://www.w3.org/2000/svg" viewBox="0 0 1024 1024">
  <defs>
    <style>
      .cls-1 {
        fill: #575c5e;
      }

      .cls-2 {
        fill: #7f7373;
      }

      .cls-3 {
        fill: #dedfdf;
      }

      .cls-4 {
        fill: #d8d8d8;
      }

      .cls-5 {
        fill: #373737;
      }

      .cls-6 {
        fill: #f1f1f2;
      }

      .cls-7 {
        fill: #d4d5d4;
      }

      .cls-8 {
        fill: #c4cbb7;
      }

      .cls-9 {
        fill: #f7f7f7;
      }

      .cls-10 {
        fill: #383939;
      }

      .cls-11 {
        fill: #3a3b3a;
      }

      .cls-12 {
        fill: #fcfcfc;
      }

      .cls-13 {
        fill: #eee;
      }

      .cls-14 {
        fill: #e8e8e8;
      }
    </style>
  </defs>
  <g id="_검은색_배경" data-name="검은색 배경">
    <rect class="cls-2" x="0" y="0" width="1024" height="1024"/>
  </g>
  <g id="_레이어_1" data-name="레이어 1">
    <path class="cls-5" d="M488.52,236.81c-.03,7.3,1.38,27.82-.21,33.26-1.83,6.28-15.44,8.02-16.78-3.79-1.44-12.71-1.4-46.13.11-58.82,1.04-8.72,6.88-14.2,15.91-12.12,39.36,25.23,76.06,54.67,114.57,81.25,78.79,54.39,143.86,77.41,149.19,187.48v281.6c.17,1.14,3.72.47,5.01.58,1.91.16,1.92.01,3,0,2.65-.03,5.33-.03,7.98.03.25.92-.19,2.18.02,2.96-5.86-1.57-14.46.71-19.69,3.79-4.08,2.4-13.76,15.89-12.19,20.55.4,1.19,2.2,1.25,2.62,1.9.62.95.26,2.74,1.21,4.28,3.7,5.97,15.13.62,14.06,9.44-20.64-.02-41.32.01-61.95,0,1.67-3.02-7.62-2.28-8-2-.16.12.1,1.44,0,2-7.98,0-16,0-23.98,0,.56-3.02-1.53-1.93-3.45-2s-4.09-.08-6.09,0-4.01-1.03-3.45,2c-6.98,0-14,0-20.98,0,.56-3.02-1.53-1.93-3.45-2-5.82-.19-12.27-.23-18.08,0-1.92.08-4.01-1.03-3.45,2-73.26.03-146.58-.02-219.84,0,.13,5.97-.16,12.01,0,17.99.14,4.88,2.31,17.33,1,20.98-.51,1.41-5.34,4.23-7.5,4.1-1.19-.07-8.07-4.14-9.49-5.1-2.74-1.86-7.67-8.4-11.44-8.04-2.36.22-8.27,6.48-10.54,8.04-1.71,1.17-9.13,5.91-10.48,5.92-1.84.02-6.14-3.78-6.5-4.93-.87-2.76,0-16.7,0-20.98v-17.98c3.59-.79,5.83-6.14,6.03-9.47.09-1.5.1-1.81-1.55-1.53-3.39.57-6.28,7.77-6.49,11-4.09.37-8.78-.08-12.99,0,.56-3.02-1.53-1.93-3.45-2-9.64-.32-20.45-.38-30.07,0-1.92.08-4.01-1.03-3.45,2-1.67,0-3.33,0-5,0,1-3.27-6.27-2.95-5,0-2.66,0-5.33,0-7.99,0,1.67-3.02-7.62-2.28-8-2-.16.12.1,1.44,0,2-3.99,0-8,0-11.99,0-.09-.92.53-1.75-.63-2.02-2.03-.48-9.87-.78-8.36,2.02-1.33,0-2.66,0-4,0,.55-3.13-2.61-2.97-2,0-10.98.01-22-.02-32.98,0,.55-3.13-2.61-2.97-2,0-8.31.02-16.67-.02-24.98,0,.56-3.02-1.53-1.93-3.45-2s-4.09-.08-6.09,0-4.01-1.03-3.45,2c-6.98.02-14-.04-20.98,0,1.08-3.29-7.42-2.96-6,0-4.54.02-31.6-.91-32.98,0-2.52-2.86-3.09-3.39-4-6.99,1.5-.14,1.5-2.86,0-3,1.18-4.17,1.78-5.46,6.48-6.01,37.14,0,74.3.07,111.44.02,4.66,0,9.18-.88,12.99-1,1.32-.04,3.45,1.04,5.45,1.04l105.47-.04v-15.98c-5.98-.03-12.01.04-17.99,0-.09-.92.53-1.75-.63-2.02-2.03-.48-9.87-.78-8.36,2.02-2.99,0-6,.01-8.99,0-.09-.92.54-1.74-.63-2.02-2.01-.47-10.95-.82-9.36,2.02-5.98-.02-12,0-17.99,0,.56-3.02-1.53-1.93-3.45-2-2.33-.08-4.75-.09-7.09,0-1.92.08-4.01-1.03-3.45,2h-30.98c.05-3.15-1.59-3.58-2,0-.15,1.29.04,2.68,0,4-5.65-1.23-7.17,5.08-11.99,4.99.45-6.65-.61-13.4,1-19.98h19.49c4.43,0,3.4-9.17,3.5-11.99h2c.69,4.87,2.73,8.63,7.99,5.99,0,.34,1.27,5,1.58,5.05,32.06.66,64.32-1.09,96.35-.06,10.65.34,26.42.66,36.97,2,22.35,2.82,51.87,12.51,72.3,22.12,2.01.95,4.56,1.75,5.64,3.85-1.32,2.9-5.97,5.71-.42,6.95,3.72.84,3.97-.74,4.42,5.03,3.11.98,7.35-4.23,5.09-6.57-1.2-1.25-3.5-1.15-3.89-1.63-.57-.7-.05-2.9-1.12-4.4-.85-1.18-2.81-1.1-3.09-1.38-.93-.92-2.14-3.34-3-4,4.72-.48,4.08-6.32,4-9.99,3.59,2.45,9.68,7.64,12.99,8.99,3.52,1.43,7.41,1.71,10.99,3v-39.46c0-4.48-8.09-9.72-11.68-12.3-7.03-5.06-15.33-9.77-23.3-13.17-.84-3.35,1.96-3.33,2.96-4.53,5.82-6.99-7.57-5-6.96,2.54-5.67-2.16-14.93-4.56-20.98-5.99-.87-6.34,9.18-1.05,6.99-9.99,8.83.78,30.17,10.49,38.28,15.18,7.3,4.23,13.5,10.27,21.25,13.83,2.04.18,14.02-8.99,17.11-10.88,1.18-.72,2.67-.76,3.31-1.14l4,9.99c-4.18,2.4-8.11,6.57-12.99,7.99,0-.9-.6-1.38-.28-3.71.29-2.13-1.07-2-1.71-1.28-.58.64-1.66,7.55-2.01,8.99-.52,2.17-1.74,3.76-2,6.49-1.19,12.17.89,26.09.01,38.45,3.68-1.21,7.53-2.21,10.99-3.99,16.99-8.75,30.2-21.86,50-30.43,55.25-23.93,112.03-18.03,170.84-18.52-1.84-2.51-5.87-5.18-8.99-4.98-.72-1.41-1.77-2.51-3.06-3.43-5.91-4.21-26.38-17.56-32.19-19.77-3.54-1.34-8.87-.9-12.71-.78l2.99-6.48c-7.37-4.1-5.13-1.16-6,2.79-.12.53-3.7,2.13-2.99,4.7-41.1,1.11-91.58-1.29-129.9,13.98,1.58-6.81-6.45-3.73-6.99-8.99,36.32-15.15,70.12-14.9,108.92-15.98-2.91,7.94,9.08,8.56,9.99,4.48.43-1.9-1.94-1.9-2.77-2.72-.56-.55-.13-1.68-.23-1.76,12.21-1.16,26.65-1.84,38.97-1-.04,4.37-6.63.66-5,5.99,3.42-1.5,11.58,5.29,14,3.01.64-.6-1.6-4.87,1.99-4,12.01,7.3,24.11,14.44,35.97,21.98,1.83,1.16,12.42,9.61,13.98,7.99l.05-241.27c-.73-7.81-2.16-15.87-3.04-23.43-2.79-24.07-4.99-35.36-16.99-56.94-25.37-45.65-84.24-73.78-126.22-103.07-33.79-23.57-66.31-49.15-100.11-72.73-.93,7.23-.46,14.68-.49,21.97ZM604.43,682.32c-1.09-1.09-3.08.9-1.99,1.99s3.08-.9,1.99-1.99ZM690.36,687.31h-2.99v1.99h2.99v-1.99ZM720.34,729.26c0-3.21-2.08-3.02-4.49-3.09-4.61-.14-11.72.93-17.03,1.09-1.92.06-4.01-1.01-3.45,2-4.32-.02-8.67.01-12.99,0,.77-3.17-3.88-2.98-3,0-61.94-.16-116.97-.17-166.88,41.95-.75.63-.74-1.2-2,2-.66.02-1.33-.05-1.99,0-.66,1.68.78,2.94,1.97,1.96.28-.23-.16-1.5.02-1.96,6.06-.2,3.36-1.62,4-2,20.86-12.2,79.19-26.63,102.92-24.97.85.06,3.5,3.07,3-1,35.88-1.2,72.02.89,107.92,0-.27-5.12.76-10.47-.89-15.41-.86-1.2-5.38-.52-7.11-.58ZM623.42,757.23c-12.99.56-24.21,1.06-37.16,3.31-14.63,2.54-28.83,6.78-42.78,11.67-.38-.22-.34-1.9-2.39-1.93-1.34-.02-6.94,0-7.89.12-5.29.66-4.55,5.86,1.3,4.81,1.21,2.84-1.9,2.99-2.03,3.59-1.91,9.17,13.44,1.63,12.02-5.59h187.87s1-15.99,1-15.99c-13.64-.03-27.33.05-40.97,0,1.67-3.02-7.62-2.28-8-2-.16.12.1,1.44,0,2-2.96-.02-6.06,0-8.99,0,.56-3.02-1.53-1.93-3.45-2-5.77-.19-13.12-.7-18.53,1-3.32.02-6.67-.04-9.99,0-4.7-1.72-11.43-1.17-16.53-1-1.92.06-4.01-1.02-3.45,2ZM337.63,814.16c.26,1.88,1.3.09,2.09-.41,5.55-3.52,10.93-9.43,17.86-7.03,3.08,1.06,7.78,6.61,10.59,7.4,2.3.64,1.11-1.07,1.44-1.95.8-2.14,2.35-4.95,0-6.99v-29.97c3.47-2.61,7.02-1.86,10.99-2,12.95-.44,26.01.33,38.97-.01l-8.99-4.98c1.02-5.76-2.25-4.8-6-2-7.36-2.25-16.36-3.54-23.98-4.99-3.33-.63-7.09-1.57-10.99-2-.33-.04-.67.03-1,0-1.31-.13-1.73.02-2,0-9.63-.68-19.24-1.54-28.98-1v55.94ZM462.54,778.2c2.28,2.23,9.29-4.13,4.48-5.98-3.13-1.2-5.06,5.42-4.48,5.98Z"/>
    <path class="cls-1" d="M596.44,433.59h-186.86l36.8-130.63c1.24-5.07-6.39-6.05-5.83-11.22,32.96-.37,66.01-.11,98.97.46l55.7,136.12c1.01,1.56.74,3.8,1.22,5.26Z"/>
    <path class="cls-13" d="M947.18,789.19c4.27,1.68,5.17,2.01,10.05,3.44,18.74,5.49,20.84,30.75,2.46,36.54l-571.64.02-6.45-1.04c1.31-3.65-.86-16.1-1-20.98l566.12.05c8.07-1.05,5.4-13.87-3.54-11.04-.29-2.96,4.65-3.68,1.99-6.99.64.08,1.58-.16,2,0Z"/>
    <path class="cls-13" d="M69.83,803.18l2.99,3.5c84.14,1.14,168.59.17,252.82.49,0,4.28-.87,18.22,0,20.98-3.24-.14-6.18.88-9.45,1.05-77.4,3.94-158.13-3.05-235.87-.04-10.64-.8-14.16-11.1-13.47-20.47.42-5.74,2.52-4.78,2.98-5.51Z"/>
    <path class="cls-10" d="M440.55,291.75c-.56,5.16,7.07,6.14,5.83,11.22l-36.8,130.63h-46.97v-1l58.06-139.24c.51-1.09,1.27-1.39,2.39-1.6,4.33-.8,12.54.06,17.49,0Z"/>
    <path class="cls-4" d="M715.35,390.64c-1.18,4.71-5.61,16.12-11.32,10.03-1.01-1.07-1.64-1.95-2.67-3.04-4.77-5.08-8.34-11.27-12.96-16.51-25.05-28.39-67.36-50.23-98.87-71.98-34.08-23.52-66.29-49.75-101.01-72.33.03-7.29-.43-14.74.49-21.97,33.81,23.58,66.32,49.16,100.11,72.73,41.98,29.28,100.85,57.42,126.22,103.07Z"/>
    <path class="cls-3" d="M120.79,789.19c2-.01,4,.01,6,0,6.98-.04,14,.02,20.98,0,4.32-.02,8.67.01,12.99,0,8.31-.02,16.67.02,24.98,0,.67,0,1.33,0,2,0,10.98-.02,22,.01,32.98,0,.67,0,1.33,0,2,0,1.33,0,2.66,0,4,0,2.99,0,6,0,8.99,0,3.99,0,8,0,11.99,0,2.66,0,5.33,0,7.99,0s5.33,0,7.99,0c1.67,0,3.33,0,5,0s3.33,0,5,0c12.3-.05,24.68.22,36.97,0,4.21-.08,8.9.37,12.99,0,.65-.06,1.43.12,2,0v17.98c-84.24-.32-168.68.65-252.82-.49l-2.99-3.5c.29-.45.05-2.79,1.12-4.35,2.66-3.86,6.03-6.3,10.6-7.41,1.92-.47,4.09.17,5.61-.22,1.07-.27.57-1.95.66-2.01,1.38-.91,28.43.02,32.98,0Z"/>
    <path class="cls-7" d="M409.58,433.59h26.98l7.48,9c17.54,21.9,48.87,28.71,69.01,6.02,1.25-1.41,1.47-3.46,2.46-4.54,3.21-3.52,7.79-6.41,9.99-10.49h65.95c.3,3.78,2.9,10.63,6.99,11.99-.93,3.1,0,4.22-4.56,4.93h-68.9c-1.13-.01-2.1,1.16-2.48,2.07-6.54-.72-9.47.2-14.47,4.02-2.33,1.78-5.48,6.4-7.57,7.42-5.56,2.7-25.77,1.83-32.17.3-9.89-2.36-18.6-10.73-28.73-10.73-2.39,2.29,8.49,10.07,10.26,11.21,10.55,6.8,23.62,9.87,36.18,8.75,3.3-.29,14.18-4.1,14.93-3.92,2.73.66,1.93,8.22-.43,9.93-.68.25-1.32.78-2,1-3.8,1.22-8.55,1.99-12.5,2.99h-20.48c-17.17-5.43-24.28-16.71-30.48-32.95h-72.95c-4.79,0-.92-14.19-.5-16.98h47.96Z"/>
    <path class="cls-10" d="M801.09,211.07c14.45-1.08-.39,11.9-3.22,15.83-23.4,32.49-11.37,81.29,31.02,85.7,4.38.46,27.57-2.29,18.27,7.53-16.62,17.56-49.91,16.38-69.53,4.75-50.29-29.82-33.75-109.52,23.45-113.8ZM784.29,228.82c-1.49-1.47-11.48,6.94-12.98,8.49-19.93,20.69-17.02,55.05,4.52,73.38,13.38,11.39,29.28,14.07,46.43,11.01l-16.65-7.81c-24.37-14.92-33.53-41.62-26.82-69.1,1.34-5.51,4.43-10.42,5.5-15.97Z"/>
    <path class="cls-14" d="M732.34,447.57c.88,7.56,2.31,15.62,3.04,23.43l-.05,241.27c-1.56,1.63-12.16-6.82-13.98-7.99,1.14-1.66.97-3.54,1.04-5.44,2.49-71.07,1.93-150.8-1.08-221.76-.26-6.05.51-12.55.04-18.52,5.01-.17,8.23-7.48,10.99-10.99Z"/>
    <path class="cls-5" d="M293.66,681.31c-.53,6.02,2.16,6.39,6.99,7.99-8.67,4.07-26.2,15.2-34.65,20.8-1.37.91-2.7,1.46-3.32,3.17-2.82,0-5.44,1.79-7.99,3-.6.28-1.66-.58-2,.51-.95,3.02,1.82.51,2,.49,13.78-1.84,37.17-.19,51.96,0-.56,3.02,1.53,1.93,3.45,2,3.97.13,8.11.16,12.08,0,1.92-.08,4.01,1.03,3.45-2,8.98.27,58.65,3.8,62.95,8.99.21.25-.28,1.7.02,1.99.68.68,1.87-.98,1.98-.99,10.87-1.01,46.82,20.26,56.96,26.97-.79,1.32-.57,5.11-1.18,5.81-.9,1.03-5.81-.11-4.82,3.18-20.55-13.76-45.85-23.91-69.95-28.97-12.43-2.61-23.97-4.46-36.97-4.99-31.98-1.33-64.86.99-96.93,0-2.78-6.52-5.54-.26-8.99,1,.53-16.33,4.37-10.28,14.99-11.99,3.54-.57,8.75-5.26,8.03-9.33-.14-.78-2.77-.62-2.03-2.66,14.58-8.47,29.27-16.7,43.97-24.97Z"/>
    <path class="cls-5" d="M953.17,779.2c-3.17-.78-2.7,2.94,0,4-1.28,3.35-2.5,4.66-6,5.99-.42-.16-1.36.08-2,0-4.48-.53-10.27.07-14.99,0,1.15-3.31-8.54-2.97-6.99,0-14.64-.15-29.33.05-43.97,0,.56-3.02-1.53-1.93-3.45-2-11.86-.4-25.22-.47-37.06,0-1.93.08-4.01-1.03-3.45,2-1.67,0-3.33,0-5,0,1.67-3.02-7.62-2.28-8-2-.16.12.1,1.44,0,2-2.66,0-5.33,0-7.99,0,1.15-3.31-8.54-2.97-6.99,0-2.99,0-6,0-8.99,0,.56-3.02-1.53-1.93-3.45-2-3.32-.11-6.77-.13-10.08,0-1.92.08-4.01-1.03-3.45,2-7.65,0-15.34,0-22.98,0-2.43-6.33,9.27-4.49,10.85-7.12,2.07-3.46-2.85-5.03-2.92-5.41-.45-2.53,1.99-3.25,2.06-3.45l178.42-.05c3.58.23,5.25,2.97,6.44,6.05Z"/>
    <path class="cls-5" d="M419.57,686.31c-.09.06.4,1.73-.66,2.01-1.59.42-6.9-.46-7.34,0l1,6.99c-34.62-7.41-74.61-4.58-109.92-6.99-1.16-4.96,4.42-2.53,7.41-3.08.95-.17,6.34-1.68,6.57-1.93,3.12-3.23-10.23-2.36-8.99-5.98,34.69.96,73.52-.41,107.46,6.95,1.67.36,3.46.31,4.45,2.04Z"/>
    <path class="cls-11" d="M767.31,749.24c.94,3.56,1.98,21.13,1,23.97-.07.2-2.51.92-2.06,3.45.07.39,4.99,1.96,2.92,5.41-1.58,2.63-13.27.78-10.85,7.12-1.67,0-3.33,0-5,0,1.06-8.82-10.36-3.46-14.06-9.44-.95-1.53-.59-3.32-1.21-4.28-.42-.65-2.22-.71-2.62-1.9-1.57-4.66,8.11-18.15,12.19-20.55,5.23-3.08,13.83-5.35,19.69-3.79Z"/>
    <path class="cls-3" d="M732.34,447.57c-2.77,3.51-5.99,10.82-10.99,10.99-.64-8.21-2.73-18.5-4.98-26.49-3.43-12.18-9.37-23.24-15.01-34.45,1.02,1.09,1.66,1.97,2.67,3.04,5.71,6.08,10.15-5.32,11.32-10.03,12,21.58,14.2,32.86,16.99,56.94Z"/>
    <path class="cls-5" d="M472.76,580.19c2.12,2.11,10.34,1.14,9.8,6.68-.43,4.45-7.85,5.44-8.81,6.77-1.94,2.7-.02,12.35-3.21,14.29-4.58,2.78-9.79-5.94-13.56-6.55-3.05-.49-10.98,2.88-13.01.09-2.49-3.41,4.7-10.49,4.42-12.37-.46-3.12-10.1-9.23-5.42-12.75,2.86-2.15,8.38-.08,11.86-1.12,3.3-.98,7.1-9.25,11.17-8.86,4.63.44,4.52,11.6,6.75,13.82ZM469.53,588.39c-3.69-2.66-4.33-5.25-6.5-8.95-1.1,2.91-6.12,2.72-7.09,3.92-1.21,1.5,2.32,6.59-1.4,9.04,5.1-1.18,6.92,2.71,10.99,4,.16-3.05.19-7.66,4-8.01Z"/>
    <path class="cls-3" d="M522.49,452.57c-.68,1.64-.69,4.25-1.83,6.67-4.17,8.86-11.02,17-20.16,20.3,2.36-1.72,3.15-9.28.43-9.93-.75-.18-11.63,3.63-14.93,3.92-12.56,1.12-25.63-1.95-36.18-8.75-1.77-1.14-12.65-8.92-10.26-11.21,10.13,0,18.84,8.37,28.73,10.73,6.4,1.53,26.61,2.4,32.17-.3,2.09-1.01,5.24-5.63,7.57-7.42,4.99-3.82,7.93-4.74,14.47-4.02Z"/>
    <path class="cls-11" d="M543.22,621.59c10.31-.96,16.22,13.71,6.76,19.77-15.48,9.93-25.52-18.03-6.76-19.77Z"/>
    <path class="cls-11" d="M519.49,694.3c.55,5.26,8.58,2.18,6.99,8.99-5.85,2.33-14.46,6.81-19.99,9.99l-4-9.99c7.08-4.23,9.07-5.69,16.99-8.99Z"/>
    <path class="cls-11" d="M528.21,497.69c9.09-2.65,15.1,13.31,4.55,15.61-12.14,2.65-12.8-13.21-4.55-15.61Z"/>
    <path class="cls-11" d="M307.65,677.32c-1.24,3.62,12.11,2.75,8.99,5.98-.24.25-5.62,1.76-6.57,1.93-2.99.55-8.57-1.88-7.41,3.08-.51.72-1.37.7-2,1-4.83-1.6-7.53-1.97-6.99-7.99,1.61-.91,4.3-4.16,6.74-4.75,2.46-1.44,5.68.72,7.25.76Z"/>
    <path class="cls-14" d="M364.61,827.15c.56,3.03-1.53,1.92-3.45,2-5.42.21-14.21,1.24-18.53-2,2.27-1.56,8.19-7.82,10.54-8.04,3.77-.36,8.7,6.18,11.44,8.04Z"/>
    <path class="cls-11" d="M214.72,761.22c-.11,3.65.08,7.34,0,10.99-3.82.12-8.33.99-12.99,1-.16-2.41.84-4.63,1-6.99,4.82.09,6.35-6.22,11.99-4.99Z"/>
    <path class="cls-11" d="M685.37,682.31c-3.59-.87-1.36,3.4-1.99,4-2.42,2.28-10.58-4.51-14-3.01-1.63-5.33,4.97-1.62,5-5.99,7.85.54,5.88,1.89,10.99,4.99Z"/>
    <path class="cls-11" d="M521.25,543.22c-5.78,5.83-13.35-5.79-5.73-9.25,5.47-2.48,9.26,5.69,5.73,9.25Z"/>
    <path class="cls-11" d="M249.7,706.28c-.73,2.03,1.89,1.88,2.03,2.66.72,4.07-4.48,8.76-8.03,9.33.82-4.01-5.87-1.21-5-4.99,3.55-2.13,7.22-4.8,10.99-6.99Z"/>
    <path class="cls-1" d="M238.7,713.28c-.87,3.79,5.81.99,5,4.99-10.61,1.7-14.46-4.35-14.99,11.99-.04,1.23-.16,2.85,0,4h-2c.11-3.24-.7-13.07.48-15,.25-.4,6.68-4.55,7.81-5.22,1.25-.75,3.24-.48,3.7-.75Z"/>
    <path class="cls-11" d="M396.83,602.64c5.13-5.15,12.49,4.85,6.77,8.25s-10.88-4.12-6.77-8.25Z"/>
    <path class="cls-3" d="M498.51,480.54c.57,2.63-2.53,2.72-4.23,3.25-10.31,3.24-18.67,2.95-28.75-.25h20.48c3.95-1.01,8.7-1.78,12.5-3Z"/>
    <path class="cls-11" d="M839.96,262.96c8.14-2.44,8.14,11.07,0,8.63-3.75-1.12-3.75-7.51,0-8.63Z"/>
    <path class="cls-14" d="M596.44,433.59c1.81,5.49,4.21,4.63,2,11.99-4.09-1.35-6.69-8.21-6.99-11.99h5Z"/>
    <path class="cls-11" d="M422.57,686.31c2.18,8.94-7.86,3.65-6.99,9.99-1.09-.26-2.15-.82-3-1l-1-6.99c.44-.45,5.75.43,7.34,0,1.05-.28.57-1.95.66-2.01.15-.11,2.36-.06,3,0Z"/>
    <path class="cls-11" d="M635.41,678.31c.1.08-.33,1.21.23,1.76.82.82,3.19.81,2.77,2.72-.91,4.08-12.9,3.45-9.99-4.48,1.08-.03,4.5-2.08,6.99,0Z"/>
    <path class="cls-11" d="M848.51,247.05c3.02-3.01,7.4-.3,6.77,4.18-1.1,7.72-11.52.57-6.77-4.18Z"/>
    <path class="cls-11" d="M853.1,237.66c-2.5,4-11.22-1.61-6.37-5.86,4.6-4.03,8.66,2.19,6.37,5.86Z"/>
    <path class="cls-10" d="M827.01,285.01c4.96,4.96-6.95,11.02-6.84,3.24.05-3.75,4.47-5.61,6.84-3.24Z"/>
    <path class="cls-10" d="M811.42,278.9c1.06-1.67,5.81-1.43,6.69,1.56,2.19,7.39-10.61,4.59-6.69-1.56Z"/>
    <path class="cls-11" d="M953.17,779.2c.12.31.96.67,1.04,1.61.13,1.61-.83,1.83-1.04,2.39-2.7-1.06-3.17-4.77,0-4Z"/>
    <path class="cls-11" d="M83.82,782.2c-.07-.26-.97-.68-.96-1.52.01-.89.89-1.24.96-1.48,1.5.14,1.5,2.86,0,3Z"/>
    <path class="cls-11" d="M759.32,746.24c-1.07.01-1.09.16-3,0,1-1.2,2-1.2,3,0Z"/>
    <path class="cls-1" d="M362.61,433.59h-1c.07-.46.53-.88,1-1v1Z"/>
    <path class="cls-3" d="M600.43,789.19c8.31,0,16.67,0,24.98,0,6.98,0,14,0,20.98,0,4.32,0,8.67,0,12.99,0,7.98,0,16,0,23.98,0,2.66,0,5.33,0,7.99,0,20.64.01,41.32-.02,61.95,0,1.67,0,3.33,0,5,0,7.65,0,15.34,0,22.98,0,5.65,0,11.34,0,16.99,0,2.99,0,6,0,8.99,0,2.33,0,4.67,0,6.99,0,2.66,0,5.33,0,7.99,0s5.33,0,7.99,0c1.67,0,3.33,0,5,0,14.64.03,29.33-.05,43.97,0s29.33-.15,43.97,0c2.33.02,4.67-.03,6.99,0,4.72.07,10.51-.53,14.99,0,2.65,3.31-2.29,4.02-1.99,6.99,8.94-2.83,11.61,9.99,3.54,11.04l-566.12-.05c-.17-5.97.12-12.01,0-17.99,73.26-.01,146.58.03,219.84,0Z"/>
    <path class="cls-12" d="M662.39,688.3c3.84-.12,9.17-.56,12.71.78,5.82,2.2,26.28,15.56,32.19,19.77,1.29.92,2.34,2.02,3.06,3.43-41.22,2.62-84.34-2.97-124.94,6.46-22.15,5.15-46.29,15.35-65.44,27.48-4.91,3.11-17.43,11.05-20.8,14.91-1.34,1.54-.53,3.34-.66,5.08-3.45,1.78-7.31,2.79-10.99,3.99.88-12.36-1.2-26.29-.01-38.45.27-2.73,1.48-4.32,2-6.49,2.11-1.77,3.97-1.02,4-4,4.88-1.42,8.81-5.59,12.99-7.99,5.53-3.18,14.13-7.66,19.99-9.99,38.32-15.28,88.81-12.88,129.9-13.98,2.3-.06,4.33-.95,6-1Z"/>
    <path class="cls-12" d="M412.57,695.3c.85.18,1.91.74,3,1,6.05,1.44,15.32,3.83,20.98,5.99.8.31,2.54,1.37,4,2,7.96,3.4,16.27,8.11,23.3,13.17,3.59,2.58,11.68,7.82,11.68,12.3v39.46c-3.58-1.29-7.47-1.56-10.99-3,1.29-1.8,1.19-2.68.07-4.53-2.76-4.56-28.33-20.36-34.37-23.61-55.82-30.02-106.71-24.78-167.55-24.8.61-1.71,1.95-2.27,3.32-3.17,8.46-5.61,25.99-16.73,34.65-20.8.63-.3,1.49-.28,2-1,35.31,2.41,75.29-.41,109.92,6.99Z"/>
    <path class="cls-6" d="M679.38,729.26c1,0,2,0,3,0,4.32.01,8.67-.02,12.99,0,8.29.05,16.7-.3,24.98,0,1.72.06,6.24-.61,7.11.58,1.65,4.94.62,10.28.89,15.41-35.9.88-72.04-1.2-107.92,0-1.1.04-2.52-.3-3,1-23.74-1.66-82.07,12.77-102.92,24.97h-2c49.9-42.12,104.93-42.11,166.88-41.95Z"/>
    <path class="cls-9" d="M653.39,756.23c6.74-.04,14.77.98,21.98,1,2.93,0,6.04-.02,8.99,0,2.66.02,5.33,0,7.99,0,13.64.05,27.33-.03,40.97,0l-1,15.99h-187.87c-.53-.13-.76-.87-1-1,13.96-4.89,28.15-9.13,42.78-11.67,12.94-2.25,24.16-2.75,37.16-3.31,6.46-.28,13.91-.93,19.99-1,3.32-.04,6.67.02,9.99,0Z"/>
    <path class="cls-9" d="M216.72,757.23h44.97c5.98,0,12-.02,17.99,0,3.32,0,6.67-.01,9.99,0,2.99.01,6,0,8.99,0s6-.02,8.99,0c5.98.04,12.01-.03,17.99,0v15.98l-105.47.04c-1.99,0-4.12-1.08-5.45-1.04.08-3.65-.11-7.34,0-10.99.04-1.31-.15-2.7,0-4h2Z"/>
    <path class="cls-6" d="M371.6,734.25v12.99c-32.04-1.03-101.26-1.28-133.32-1.94-.3-.05-1.58-4.71-1.58-5.05.02-2.59,2.02-7.5,1-10.99,32.07.99,102.31-4,133.9,4.99Z"/>
    <path class="cls-13" d="M710.35,712.28c3.12-.2,7.15,2.47,8.99,4.98-58.81.5-115.59-5.41-170.84,18.52-19.79,8.57-33,21.68-50,30.43.13-1.75-.68-3.55.66-5.08,3.37-3.86,15.89-11.81,20.8-14.91,19.15-12.12,43.3-22.33,65.44-27.48,40.59-9.44,83.72-3.85,124.94-6.46Z"/>
    <path class="cls-13" d="M262.69,713.28c60.83.02,111.73-5.22,167.55,24.8,6.04,3.25,31.62,19.05,34.37,23.61,1.12,1.85,1.22,2.73-.07,4.53-3.31-1.35-9.4-6.54-12.99-8.99-1.25-.85-2.33-1.9-4-3-10.14-6.71-46.09-27.98-56.96-26.97l-2-1c-4.3-5.19-53.97-8.72-62.95-8.99-6.3-.19-12.68.08-18.99,0-14.79-.19-38.18-1.84-51.96,0v-1c2.55-1.21,5.17-3,7.99-3Z"/>
    <path class="cls-13" d="M441.55,763.22c1.4.93,5.1,3.31,6,4s2.07,3.08,3,4c0,.84-.73,1.41-1,2-1.08-2.1-3.63-2.9-5.64-3.85-20.43-9.61-49.95-19.29-72.3-22.12v-12.99c24.1,5.05,49.39,15.2,69.95,28.97Z"/>
    <path class="cls-13" d="M404.58,766.22c1.58.48,3.54,2.54,6,2l8.99,4.98c-12.95.34-26.02-.43-38.97.01v-11.99c7.63,1.45,16.62,2.74,23.98,4.99Z"/>
    <path class="cls-11" d="M380.6,761.22v11.99c-3.97.13-7.52-.61-10.99,2v-15.98c3.9.43,7.66,1.36,10.99,2Z"/>
    <path class="cls-11" d="M543.48,772.21c.24.14.47.88,1,1,1.43,7.22-13.92,14.77-12.02,5.59.13-.6,3.23-.75,2.03-3.59-5.85,1.04-6.59-4.15-1.3-4.81.94-.12,6.55-.14,7.89-.12,2.06.04,2.01,1.71,2.39,1.93Z"/>
    <path class="cls-11" d="M228.71,730.26c3.45-1.26,6.21-7.52,8.99-1,1.02,3.48-.98,8.4-1,10.99-5.26,2.64-7.3-1.12-7.99-5.99-.16-1.15-.04-2.76,0-4Z"/>
    <path class="cls-11" d="M450.55,771.21c.28.28,2.24.2,3.09,1.38,1.07,1.5.55,3.7,1.12,4.4.4.48,2.69.39,3.89,1.63,2.26,2.34-1.99,7.55-5.09,6.57-.45-5.78-.7-4.2-4.42-5.03-5.55-1.25-.91-4.06.42-6.95.27-.58.99-1.16,1-2Z"/>
    <path class="cls-11" d="M447.55,754.23c1.66,1.1,2.75,2.15,4,3,.08,3.67.73,9.51-4,9.99-.9-.68-4.6-3.06-6-4-.99-3.29,3.92-2.15,4.82-3.18.61-.7.39-4.49,1.18-5.81Z"/>
    <path class="cls-11" d="M273.68,789.19c-.56-3.03,1.53-1.92,3.45-2,9.62-.38,20.43-.32,30.07,0,1.92.06,4.01-1.02,3.45,2-12.3.22-24.67-.05-36.97,0Z"/>
    <path class="cls-11" d="M720.34,729.26c-8.28-.3-16.69.05-24.98,0-.56-3.01,1.53-1.94,3.45-2,5.32-.16,12.43-1.23,17.03-1.09,2.41.07,4.49-.12,4.49,3.09Z"/>
    <path class="cls-11" d="M323.64,789.19c.21-3.24,3.09-10.44,6.49-11,1.64-.27,1.64.03,1.55,1.53-.2,3.33-2.44,8.68-6.03,9.47-.57.12-1.35-.06-2,0Z"/>
    <path class="cls-11" d="M600.43,789.19c-.56-3.03,1.53-1.92,3.45-2,5.81-.23,12.26-.19,18.08,0,1.92.06,4.01-1.02,3.45,2-8.31,0-16.67,0-24.98,0Z"/>
    <path class="cls-11" d="M656.39,689.3c-.71-2.57,2.87-4.16,2.99-4.7.87-3.94-1.37-6.89,6-2.79l-2.99,6.48c-1.67.05-3.69.94-6,1Z"/>
    <path class="cls-11" d="M653.39,756.23c5.41-1.7,12.76-1.19,18.53-1,1.92.06,4.01-1.02,3.45,2-7.22-.02-15.25-1.04-21.98-1Z"/>
    <path class="cls-11" d="M436.56,702.29c-.61-7.54,12.78-9.53,6.96-2.54-1,1.21-3.8,1.19-2.96,4.53-1.46-.62-3.2-1.69-4-2Z"/>
    <path class="cls-11" d="M643.4,756.23c-6.07.07-13.53.72-19.99,1-.56-3.02,1.53-1.93,3.45-2,5.1-.17,11.83-.72,16.53,1Z"/>
    <path class="cls-11" d="M247.7,757.23c-.56-3.03,1.53-1.92,3.45-2,2.33-.09,4.75-.08,7.09,0,1.92.07,4.01-1.02,3.45,2h-13.99Z"/>
    <path class="cls-11" d="M462.54,778.2c-.58-.56,1.36-7.18,4.48-5.98,4.81,1.85-2.2,8.2-4.48,5.98Z"/>
    <path class="cls-11" d="M646.4,789.19c-.56-3.03,1.53-1.92,3.45-2s4.09-.07,6.09,0,4.01-1.02,3.45,2c-4.32,0-8.67,0-12.99,0Z"/>
    <path class="cls-11" d="M147.77,789.19c-.56-3.03,1.53-1.92,3.45-2s4.09-.07,6.09,0,4.01-1.02,3.45,2c-4.32.01-8.67-.02-12.99,0Z"/>
    <path class="cls-11" d="M489.52,725.26c.35-1.44,1.43-8.35,2.01-8.99.64-.71,2-.85,1.71,1.28-.32,2.33.29,2.81.28,3.71-.03,2.98-1.88,2.22-4,4Z"/>
    <path class="cls-11" d="M279.67,757.23c-1.58-2.83,7.35-2.49,9.36-2.02,1.17.27.54,1.09.63,2.02-3.32-.01-6.67,0-9.99,0Z"/>
    <path class="cls-11" d="M404.58,766.22c3.74-2.8,7.02-3.76,6,2-2.45.54-4.41-1.51-6-2Z"/>
    <path class="cls-11" d="M226.71,789.19c-1.5-2.8,6.33-2.49,8.36-2.02,1.16.27.53,1.09.63,2.02-2.99,0-6,0-8.99,0Z"/>
    <path class="cls-11" d="M298.66,757.23c-1.5-2.8,6.33-2.49,8.36-2.02,1.16.27.53,1.09.63,2.02-2.99-.02-6,0-8.99,0Z"/>
    <path class="cls-11" d="M683.37,789.19c.09-.56-.17-1.87,0-2,.38-.28,9.67-1.02,8,2-2.66,0-5.33,0-7.99,0Z"/>
    <path class="cls-11" d="M684.37,757.23c.09-.56-.17-1.87,0-2,.38-.28,9.67-1.02,8,2-2.66,0-5.33.02-7.99,0Z"/>
    <path class="cls-11" d="M247.7,789.19c.09-.56-.17-1.87,0-2,.38-.28,9.67-1.02,8,2-2.66,0-5.33,0-7.99,0Z"/>
    <path class="cls-11" d="M120.79,789.19c-1.42-2.96,7.08-3.29,6,0-2,.01-4-.01-6,0Z"/>
    <path class="cls-11" d="M263.68,789.19c-1.27-2.95,5.99-3.27,5,0-1.67,0-3.33,0-5,0Z"/>
    <path class="cls-11" d="M512.5,771.21h2c-.64.37,2.06,1.8-4,2-.18.46.26,1.74-.02,1.96-1.19.98-2.63-.28-1.97-1.96.66-.06,1.33.02,1.99,0,1.26-3.2,1.25-1.36,2-2Z"/>
    <path class="cls-11" d="M369.61,812.16v-6.99c2.35,2.04.8,4.85,0,6.99Z"/>
    <path class="cls-11" d="M620.42,745.24c.5,4.07-2.15,1.06-3,1,.48-1.3,1.9-.96,3-1Z"/>
    <path class="cls-11" d="M679.38,729.26c-.88-2.98,3.77-3.17,3,0-1,0-2,0-3,0Z"/>
    <rect class="cls-11" x="687.37" y="687.31" width="2.99" height="1.99"/>
    <path class="cls-11" d="M185.74,789.19c-.61-2.97,2.55-3.13,2,0-.67,0-1.33,0-2,0Z"/>
    <path class="cls-11" d="M220.72,789.19c-.61-2.97,2.55-3.13,2,0-.67,0-1.33,0-2,0Z"/>
    <path class="cls-11" d="M214.72,757.23c.41-3.58,2.05-3.15,2,0h-2Z"/>
    <path class="cls-11" d="M604.43,682.32c1.09,1.09-.9,3.08-1.99,1.99s.9-3.08,1.99-1.99Z"/>
    <path class="cls-11" d="M368.61,759.22h-2c.27.02.69-.13,2,0Z"/>
    <path class="cls-8" d="M452.54,433.59c1.06,21.02,31.56,28.39,46.47,17.99,4.36-3.04,12.64-12.3,9.49-17.99h16.99c-2.2,4.08-6.78,6.97-9.99,10.49-.99,1.08-1.21,3.13-2.46,4.54-20.14,22.69-51.46,15.87-69.01-6.02l-7.48-9h15.99Z"/>
    <path class="cls-9" d="M784.29,228.82c-1.07,5.55-4.16,10.46-5.5,15.97-6.71,27.48,2.45,54.18,26.82,69.1l16.65,7.81c-17.16,3.06-33.05.38-46.43-11.01-21.54-18.33-24.45-52.69-4.52-73.38,1.49-1.55,11.49-9.96,12.98-8.49Z"/>
    <path class="cls-11" d="M325.64,717.27c.56,3.03-1.53,1.92-3.45,2-3.97.16-8.11.13-12.08,0-1.92-.06-4.01,1.02-3.45-2,6.31.08,12.68-.19,18.99,0Z"/>
    <path class="cls-11" d="M390.59,727.26c-.11.01-1.31,1.68-1.98.99-.29-.3.2-1.74-.02-1.99l2,1Z"/>
    <path class="cls-11" d="M254.69,716.27v1c-.18.02-2.96,2.53-2-.49.34-1.09,1.41-.23,2-.51Z"/>
    <path class="cls-11" d="M835.26,789.19c-.56-3.03,1.53-1.92,3.45-2,11.84-.47,25.2-.4,37.06,0,1.93.06,4.01-1.02,3.45,2-14.64-.05-29.33.03-43.97,0Z"/>
    <path class="cls-11" d="M781.3,789.19c-.56-3.03,1.53-1.92,3.45-2,3.32-.13,6.77-.11,10.08,0,1.92.06,4.01-1.02,3.45,2-5.65,0-11.34,0-16.99,0Z"/>
    <path class="cls-11" d="M822.27,789.19c.09-.56-.17-1.87,0-2,.38-.28,9.67-1.02,8,2-2.66,0-5.33,0-7.99,0Z"/>
    <path class="cls-11" d="M807.28,789.19c-1.54-2.97,8.14-3.31,6.99,0-2.33,0-4.67,0-6.99,0Z"/>
    <path class="cls-11" d="M923.19,789.19c-1.54-2.97,8.14-3.31,6.99,0-2.33-.03-4.67.02-6.99,0Z"/>
    <path class="cls-13" d="M469.53,588.39c-3.81.35-3.85,4.96-4,8.01-4.07-1.29-5.89-5.18-10.99-4,3.73-2.44.19-7.54,1.4-9.04.97-1.2,5.99-1.01,7.09-3.92,2.17,3.7,2.81,6.3,6.5,8.95Z"/>
  </g>
</svg>