<?xml version="1.0" encoding="UTF-8"?>
<svg xmlns="http://www.w3.org/2000/svg" viewBox="0 0 1024 1024">
  <defs>
    <style>
      .cls-1 {
        fill: #dfe1e3;
      }

      .cls-2 {
        fill: #1c2323;
      }

      .cls-3 {
        fill: #efc55a;
      }

      .cls-4 {
        fill: #2a3131;
      }

      .cls-5 {
        fill: #242a2a;
      }

      .cls-6 {
        fill: #7f7373;
      }

      .cls-7 {
        fill: #fff;
        opacity: .5;
      }

      .cls-8 {
        fill: #212728;
      }

      .cls-9 {
        fill: #f9fafa;
      }

      .cls-10 {
        fill: #33393b;
      }

      .cls-11 {
        fill: #f6f7f7;
      }

      .cls-12 {
        fill: #f1f2f3;
      }

      .cls-13 {
        fill: #1f2526;
      }

      .cls-14 {
        fill: #fcfdfd;
      }
    </style>
  </defs>
  <g id="_검은색_배경" data-name="검은색 배경">
    <rect class="cls-6" x="0" y="0" width="1024" height="1024"/>
  </g>
  <g id="_레이어_1" data-name="레이어 1">
    <path class="cls-13" d="M439.55,676.32c-5.77-.16-10.6,1.5-13.78-4.7l-.16-54.58c-18.69-5.73-8.3-30.22-11.2-44.94-54.89-35.49-81.19-100.38-61.81-164,27.19-89.23,134.35-129.06,213.17-77.2,88.53,58.25,85.28,186.27-4.14,241.21-1.71,10.39,1.82,25.86-.38,35.58-1.28,5.66-8.22,7.07-9.32,8.66-2.59,3.75,1.19,45.39-.7,53.24-1.21,6.73-4.74,6.24-10.27,6.75-1.9.18-4.03-1.17-3.48,1.97-.44-.89-1.28-2.19-2.47-2.07-31.78-.52-63.7.95-95.45.07ZM497.51,316.72c-107.11-6.59-179.36,109.56-123.72,202.08,12.43,20.67,29.41,35.41,49.07,48.92.33,4.22-2.2,39.67,2.2,39.67h42.47v-65.43c0-.44-2.09-2.77-2.03-3.96-6.13-27.36-23.56-59.63-28.49-86.39-3.25-17.64,19.67-23.6,28.05-9.04,7.14-5.33,9.81-7.79,18.52-3.55,1.54.75,4.16,3.49,4.44,3.49.35,0,3.87-3.52,5.6-4.33,7.14-3.36,12.19-.88,17.38,4.37,7.66-13.22,27.9-9.48,28.44,6.39l-30.94,93.01v65.43c7.65-.06,15.34.08,22.98,0,5.49-.06,14.66.88,19.48,0,.83-.15,2.5-.8,2.5-1.5v-37.96c24.58-16.72,45.01-36.06,57.13-63.76,37.1-84.82-20.79-181.78-113.09-187.46ZM483.52,465.55c-8.29,4.75-17.74.39-21.72-7.76-2.05-4.21-2.69-12.36-7.51-14.46-4.09-1.79-8.31-.43-9.49,3.89l28.62,86.67,10.11.59v-68.92ZM502.41,534.37l27.88-84.56c1.22-5.86-4.03-8.51-9.05-6-6.65,3.32-4.74,14.88-11.79,20.18-6.18,4.65-11.1,3.49-17.92,1.56v68.91c2.01-.39,10.06.62,10.89-.1ZM474.24,445.77c-5.31,1.58-6.47,10.43-.46,13.04,12.48,5.43,13.3-16.85.46-13.04ZM497.24,445.77c-6.2,1.36-6.43,11.47-.79,13.34,11.87,3.94,14.35-16.33.79-13.34ZM500.51,543.46h-24.98v63.43c0,.11,1.39,1.5,1.5,1.5h21.98c.11,0,1.5-1.39,1.5-1.5v-63.43ZM522.49,616.38c-29.3-.14-58.64.11-87.94,0v11.42c29.24.94,58.65.73,87.94.58,6.65-.03,13.34.02,19.99,0v-11.42c-.14-1.02-17.74-.56-19.99-.58ZM521.49,637.36c-29.3-.14-58.64.11-87.94,0v10c29.63-.12,59.31.15,88.94,0,6.65-.03,13.34.02,19.99,0v-10c-6.98-.02-14.01.04-20.99,0ZM542.48,655.34h-108.92c.71,3.65-2.05,12.15,2.5,12.99l105.49-.44c1.97-1.38.49-9.79.94-12.55Z"/>
    <path class="cls-8" d="M659.39,759.22l.99,66.93c6.98.02,14.01-.04,20.99,0,75.44.36,150.92-.23,226.37-.04,7.21-1.19,8.87,8.27,2.01,9.09-76.13-.08-152.27-.09-228.39-.06-120.56.05-241.17,0-361.73,0-21.59,0-42.86.78-64.29.63-21.54-3.09-48.23,2.24-69.16-.58-7.36-.99-4.09-9.04-.95-9.04h130.4v-67.42c0-.17,1.54-1.76,2.01-1.98l335.3-.58c3-1.02,4.79,2.66,6.43,3.06ZM324.64,815.16c.05,3.65-.04,7.34,0,10.99h327.76v-60.93c-3.29-.19-6.71.26-9.99,0-1.95-.16-4.21-1.47-6.45-1.04l-311.32.04c.19,16.96-.24,33.99,0,50.95Z"/>
    <path class="cls-2" d="M537.48,680.31c1,2.5,2.34,2.3,1.96,6.38-1.01,10.76-11.53,22.23-21.72,25.31-8.2,2.48-43,2.23-52.67,1.27-13.81-1.37-28.39-14.04-28.33-28.52.01-3.13,2.57-3.6,2.84-4.43,7.38.77,5.58,7.68,8.44,13.04,4.34,8.12,13.3,11.38,21.99,11.98,9.62.66,39.25,1.18,47.05-2.01,3.2-1.31,7.95-5.25,9.89-8.09,3.91-5.75,2.24-14.96,10.56-14.92Z"/>
    <path class="cls-5" d="M299.37,255.96c1.69-.5,3.44-.4,4.84.78l56.45,56.43c3.55,6.05-2.74,10.16-7.54,5.55l-55.51-55.38c-1.91-2.35-1.18-6.51,1.76-7.38Z"/>
    <path class="cls-5" d="M675.12,255.93c4.7-.93,6.8,3.72,4.31,7.4l-56.99,56.9c-3.48,3.9-8.61,2.94-8.02-2.92.47-4.71,5.7-6.76,8.52-9.56,14.62-14.5,28.38-29.34,43.44-43.48,2.47-2.32,4.56-7.51,8.74-8.34Z"/>
    <path class="cls-13" d="M235.21,650.35h26.98c.11,0,1.5,1.39,1.5,1.5v24.97c0,.18-2.32,2.5-2.5,2.5h-25.98c-.11,0-1.5-1.39-1.5-1.5v-25.97c0-.27,1.17-.99,1.5-1.5ZM254.7,658.33h-12v13h12v-13Z"/>
    <path class="cls-4" d="M483.52,199.35c1.28-4.42,8.99-3.22,8.99,0v69.92c0,3.16-8.99,3.16-8.99,0v-69.92Z"/>
    <path class="cls-2" d="M226.21,454.56c-3.43-1.06-3.27-7.85,2.25-8.86,2.17-.4,3.22.87,3.74.87h71.95c3.05,0,3.05,7.99,0,7.99h-77.94Z"/>
    <path class="cls-2" d="M671.88,446.57h77.94c3.05,0,3.05,7.99,0,7.99h-77.94c-1.82,0-2.43-7.02,0-7.99Z"/>
    <path class="cls-2" d="M716.35,501.51c0-1.79-.58-8.99,1.5-8.99h20.98c3.94,0,1.46,10.66,1.46,12.44,0,2.75,1.6,16.52-1.46,16.52h-22.48c-1.1-2.49.99-6.86,1-7.99h14.99s0-11.99,0-11.99h-15.99Z"/>
    <path class="cls-5" d="M87.54,826.37c3.9-.84,28.73-.95,32.73-.2,5.33,1,5.84,8.07,1.03,8.97-3.9.73-30.05.71-33.95-.03-4.77-.9-5.24-7.56.19-8.74Z"/>
    <path class="cls-8" d="M673.73,330.06c9.2-9.2,22.12,5.58,13.17,13.66-9.39,8.48-21.5-5.34-13.17-13.66Z"/>
    <path class="cls-4" d="M372.89,253.48c-5.53-4.49.04-13.16,6.68-10.17,7.39,3.32.7,16.16-6.68,10.17Z"/>
    <path class="cls-4" d="M708.1,387.8c10.38-1.89,9.03,16.07-1.5,11.09-4.98-2.35-3.8-10.12,1.5-11.09Z"/>
    <path class="cls-4" d="M266.41,387.8c8.13-1.25,10.54,14.13-.99,11.61-6.24-1.36-4.72-10.74.99-11.61Z"/>
    <path class="cls-4" d="M539.72,236.05c4.38-4.39,14.53,1.89,8.78,8.27-6.02,6.67-13.83-3.21-8.78-8.27Z"/>
    <path class="cls-4" d="M137.02,828.39c2.33-2.24,7.6-2.34,7.84,2.25.53,10.3-13.07,2.78-7.84-2.25Z"/>
    <path class="cls-14" d="M497.51,316.72c-.56,2.6,1.3,2.04,2.97,2.48,104.13,27.1,139.3,157.18,58,228.78-7.6,6.69-25.82,15.94-27.02,25.93-1.24,10.31.96,22.91.02,33.49-7.65.08-15.34-.06-22.98,0v-65.43l30.94-93.01c-.54-15.88-20.79-19.61-28.44-6.39-5.19-5.25-10.25-7.73-17.38-4.37-1.73.81-5.25,4.33-5.6,4.33-.28,0-2.9-2.74-4.44-3.49-8.71-4.24-11.38-1.78-18.52,3.55-8.38-14.56-31.3-8.6-28.05,9.04,4.93,26.76,22.36,59.03,28.49,86.39-.06,1.2,2.03,3.53,2.03,3.96v65.43h-42.47c-4.4,0-1.87-35.45-2.2-39.67-19.66-13.52-36.64-28.25-49.07-48.92-55.65-92.52,16.61-208.68,123.72-202.08Z"/>
    <path class="cls-1" d="M531.49,607.39c.94-10.58-1.26-23.18-.02-33.49,1.2-9.99,19.41-19.24,27.02-25.93,81.3-71.6,46.13-201.68-58-228.78-1.67-.44-3.53.12-2.97-2.48,92.3,5.68,150.19,102.64,113.09,187.46-12.12,27.7-32.56,47.04-57.13,63.76v37.96c0,.7-1.67,1.35-2.5,1.5-4.82.88-13.99-.06-19.48,0Z"/>
    <path class="cls-11" d="M502.41,534.37c-.83.71-8.88-.3-10.89.1v-68.91c6.83,1.93,11.74,3.09,17.92-1.56,7.05-5.31,5.14-16.86,11.79-20.18,5.03-2.51,10.28.14,9.05,6l-27.88,84.56Z"/>
    <path class="cls-9" d="M483.52,465.55v68.92l-10.11-.59-28.62-86.67c1.18-4.32,5.4-5.67,9.49-3.89,4.82,2.1,5.46,10.26,7.51,14.46,3.98,8.15,13.43,12.51,21.72,7.76Z"/>
    <path class="cls-11" d="M500.51,543.46v63.43c0,.11-1.39,1.5-1.5,1.5h-21.98c-.11,0-1.5-1.39-1.5-1.5v-63.43h24.98Z"/>
    <path class="cls-12" d="M542.48,655.34c-.44,2.76,1.04,11.17-.94,12.55l-105.49.44c-4.54-.84-1.79-9.33-2.5-12.99h108.92Z"/>
    <path class="cls-9" d="M522.49,616.38v11.99c-29.29.15-58.7.36-87.95-.58v-11.42c29.31.11,58.66-.14,87.95,0Z"/>
    <path class="cls-14" d="M521.49,637.36l1,9.99c-29.63.15-59.31-.12-88.94,0v-10c29.3.11,58.64-.13,87.94,0Z"/>
    <path class="cls-1" d="M522.49,616.38c2.26.01,19.85-.44,20,.58v11.42c-6.66.02-13.35-.04-20,0v-11.99Z"/>
    <path class="cls-1" d="M521.49,637.36c6.98.03,14.01-.02,20.99,0v10c-6.65.02-13.34-.04-19.99,0l-1-9.99Z"/>
    <path class="cls-3" d="M497.24,445.77c13.56-2.98,11.08,17.29-.79,13.34-5.64-1.87-5.41-11.98.79-13.34Z"/>
    <path class="cls-3" d="M474.24,445.77c12.83-3.81,12.02,18.47-.46,13.04-6.01-2.61-4.84-11.47.46-13.04Z"/>
    <path class="cls-7" d="M652.39,765.46v60.69s-327.75,0-327.75,0c-.25-20.61.19-41.29,0-61.9l321.1-.05c2.31-.52,4.64,1.08,6.65,1.27Z"/>
    <rect class="cls-10" x="242.7" y="658.33" width="12" height="13"/>
  </g>
</svg>