<?xml version="1.0" encoding="UTF-8"?>
<svg xmlns="http://www.w3.org/2000/svg" viewBox="0 0 1024 1024">
  <defs>
    <style>
      .cls-1 {
        fill: #f1f1f1;
      }

      .cls-2 {
        fill: #f4f5f4;
      }

      .cls-3 {
        fill: #5f5f5f;
      }

      .cls-4 {
        fill: #7f7373;
      }

      .cls-5 {
        fill: #eff0f0;
      }

      .cls-6 {
        fill: #323231;
      }

      .cls-7 {
        fill: #636363;
      }

      .cls-8 {
        fill: #343434;
      }

      .cls-9 {
        fill: #323332;
      }

      .cls-10 {
        fill: #f2f2f2;
      }

      .cls-11 {
        fill: #f7f8f7;
      }

      .cls-12 {
        fill: #333;
      }

      .cls-13 {
        fill: #f5f6f6;
      }

      .cls-14 {
        fill: #e8e8e8;
      }

      .cls-15 {
        fill: #fdfdfd;
      }
    </style>
  </defs>
  <g id="_검은색_배경" data-name="검은색 배경">
    <rect class="cls-4" x="0" y="0" width="1024" height="1024"/>
  </g>
  <g id="_레이어_1" data-name="레이어 1">
    <path class="cls-12" d="M528,221c3.32.51,9.95,2.18,14,3,1.06.22,2.61.69,4,1,3.85.86,9.45,2.03,13,3,1.36.37,2.95.68,4,1,.94.28,2.51,1.52,4,2,3.16,1.02,7.18,1.97,10,3,4.35,1.59,9.41,4.2,14,6,2.73,1.07,5.21,2.01,8,3,.6.21,1.59,1.8,3,2,.31.04.69.02,1,0,1.13,1.83,3.09,1.84,5,2,.63,3,3.38,2.8,6,4,1.28.59,2.51,2.7,5,2h1c-.13,3.72,3.35,2.97,5,4,1.55.96,3.79,2.2,5,3s2.49,1.96,4,3c.77.53,1.62.73,2,1,2.12,1.49,4.98,3.49,7,5,9.86,7.38,20.04,16.51,29,25,.34.32.66.67,1,1,2.09,2,5.93,4.9,7,6,.81.84,2.19,2.13,3,3,.91.97,3.86,4.65,5,6,.36.42.99,1.76,2,3,2.42,2.96,5.64,6.83,8,10,.28.37.46,1.26,1,2,5.34,7.26,11.4,15.3,16,23,.7,1.18,1.63,2.35,2,3,39.39,69.06,43.99,156.6,14,230-.28.69-.71,1.32-1,2-1.83,4.34-3.92,8.77-6,13-.33.67-.66,1.34-1,2-.99,1.95-1.97,4.1-3,6-.46.85-1.35,1.83-2,3-6.11,10.97-13.62,21.24-19,32v1c-3.31.64-1.58,1.75-2,2-.81.48-3.77-1.23-3,2v1c-2.55.14-5.02,4.78-7,7-1.52,1.7-3.14,4.07-4,5-3.36,3.63-9.08,10.25-12,13-2.66,2.5-6.16,5.46-9,8-.25.23-2.1.4-3,1-1.3.87-1.91,1.24-2,3-1.27-.05-2.96,1.24-4,2-2.18,1.59-3.47,3.19-6,5-1.36.97-2.66,2.06-4,3-.38.27-.65.75-1,1-3.94,2.76-9.12,6.55-13,9-5.26,3.32-11.54,7.14-17,10-56.71,29.72-124.64,38.08-187,23-84.05-20.32-157.98-89.46-185.27-171.23-61.53-184.39,96.35-372.04,288.27-342.77ZM410,252c-7.16,2.5-12.47,5.1-19,8-.82.36-2.44.26-4,1-3.05,1.44-4.95,2.94-7,4-.26.14-.74-.14-1,0-2.37,1.27-4.43,3.13-6,4-2.04,1.13-2.8,1.89-3,2-3.63,2.11-6.68,3.28-11,6-1.93,1.22-2.93,2.29-4,3-4.72,3.11-7.2,3.9-12,8-.9.77-3.73.75-4,4-2.82,0-6.9,3.48-9.06,5.48-.79.74-.76,2.35-.94,2.52-1.79,1.62-2.77,2.85-4,4-95.69,89.83-107,230.9-21.33,331.34,1.42,1.66,3.42,8.04,7.33,7.66l1,1c-.21,4.17,3.41,5.57,6,8,2.38,2.23,1.63,2.17,5,4,.81.44,1.83,1.91,3,2l1,1c.07,2.63,1.68,2.78,3,4,2.48,2.29,4.25,2.56,6,4,4.44,3.66,7.18,5.53,12,9s9.19,7.51,15,11c.73.44,1.4.66,2,1,.9.51,1.79,1.34,3,2,.7.38,1.27.67,2,1,.92.42,1.64,1.3,3,1,1.5,3.76,21.44,11.49,26,13,.67.22,1.35.82,2,1,1.01.27,3.48-.33,4,0,.15.09-.99.73,2,2,.59.25,1.29.68,2,1,3.01,1.37,4.92,1.99,8,3,.53.17,1.46-.17,2,0,3.45,1.09,6.45,2.08,10,3,8.62,2.23,17.08,4.89,25.98,6,.71-.5,2.22-16.54,1.95-17.37-.57-1.77-13.84-3.4-16.94-4.13-6.75-1.58-13.37-3.49-19.99-5.51-1.21-.37-2.48-.5-4-1-1.29-.43-2.72-.55-4-1-.72-.26-2.38-1.37-4-2-.55-.22-1.23-.69-2-1-1.03-.42-2.16-.64-3-1-2.26-.98-4.82-1.98-7-3-1.91-.9-4.07-2.03-6-3-5.77-2.89-13.61-6.76-19-10-1.53-.92-4.22-2.83-6-4-1.79-1.18-3.74-2.11-5-3-3.58-2.51-10.29-7.98-14-11-.75-.61-1.75-1.95-3-3-3.74-3.15-8.61-6.94-12-10-.55-.5-.65-2.43-2.07-3.46-.99-.71-2.83-.44-2.93-.54-5.54-5.76-16.7-20.52-22-28-.97-1.37-2.37-3.06-3-4-61.9-91.84-43.14-213.06,34-289,.61-.6,2.8-2.87,3-3,4.62-3.02,5.11-3.95,9-7,.34-.27,1.27-.43,2-1,1.27-.99,2.69-2.01,4-3,.96-.72,1.55-1.66,2-2,2.82-2.12,6.65-5.3,9-7,.19-.14,2.59-1.14,4-2,1.26-.77,3.42-.56,4-3,1.92-.25,1.72-.46,3-1,2.1-.89,2.28-1.61,3-2,3.81-2.07,8.07-4.18,12-6,3.27-1.51,7.18-3.81,10-5,63.23-26.57,136.81-22.2,197,10,.66.35,1.38.65,2,1,7.18,3.98,16.52,10.29,23,15,2.95,2.14,6.05,4.85,9,7,1.9,1.38,3.83,1.83,4,2,.13.13-.19,1.94,1.01,3.45,1.63,2.03,7.6,6.19,9.99,8.55.99.98,2.03,2.01,3,3,.68.69,1.81.81,2,1,.33.34.68.66,1,1,2.17,2.27,8.18,8.78,10,11,66.05,80.77,67.43,193.6,7,278-2.68,3.75-6.11,7.35-9,11-.42.52-1.27,1.04-2,2-1.45,1.9-2.42,2.25-3,5-2.55-.76-1.8,1.82-2,2-.37.33-1.53.59-3,2-.71.68-1.32,1.31-2,2-.33.33-.67.67-1,1-1.53,1.51-2.46,3.51-3,4-.58.53-1.94,1.05-3,2-.77.69-1.43,1.5-2,2-.28.24-1.29.41-2,1-1.3,1.09-2.18,2.31-3,3-2.15,1.81-5.89,2.6-6,6-4.84.61-7.32,4.51-11,7-.4.27-.67.78-1,1-1.03.68-1.97,1.29-3,2-3.25,2.23-12.76,5.52-13,9h-1c-3.5-1.08-2.8,1.89-3,2-.25.14-3.55,1.33-5,2-1.76.82-10.95,2.97-11,6h-1c-5.04-.33-9.58,3.49-14,5-.72.24-1.56.11-2,1l-42.04,9.46c-2.88,2.04,1.27,13.89.04,17.55,17.12-1.1,34.42-6.17,50.52-11.99,4.12-1.49,7.54-3.36,11.49-5.02.77-.32,1.39-.74,2-1,1.59-.68,3.06-1.11,5-2,.82-.37,1.95-.51,3-1,7.21-3.36,12.56-7.17,19-11,4.75-2.82,13.48-5.17,16-11,6.86-1.05,14.74-10.33,20-15,1.03-.91,2.38-1.5,4-3s1.87-2.88,2-3c1.36-1.28,2.78-2.8,4-4,1.71-1.67,3.33-3.28,5-5,.51-.53,1.43-1.41,2-2,3.11-3.23,3.81.39,5-7,3.32-.09,4.2-2.08,6-4,3.94-4.2,5.83-8.7,9-13,67.76-91.93,59.9-213.16-14-299-1.11-1.29-2.16-2.06-3-3-3.21-3.57-5.25-6.29-9-10-.67-.66-1.32-1.35-2-2-10-9.6-16.63-14.62-28-22-.56-.37-3.35-3.23-6-5-2.93-1.96-5.16-3.25-8-5-62.61-38.64-134.77-47.54-205-23ZM460,278c-1.86.25-3.04.84-4,1-33.56,5.47-56.31,14.56-84,34-.32.23-1.13.37-2,1-1.01.73-1.54,1.66-2,2-1.65,1.23-4.01,2.41-6,4-2.87,2.3-6.24,5.46-9,8-2.24,2.07-3.27,4.29-4,5-3.75,3.64-7.93,6.57-12,11-1.56,1.7-2.31,3.23-3,4-1.33,1.49-2.78,2.51-4,4-1.11,1.35-1.54,2.42-2,3-.62.78-1.87,1.49-3,3-.23.31-.42,1.2-1,2-5,6.89-7.86,11.81-12,19-47.08,81.78-36.18,184.6,35,249,1.08.98,1.48,3.13,4,3,.62,1.8,2.19,2.09,3,3,2.49,2.79,5.14,5.92,9,7,3.11,3.44,11.58,9.47,16.08,12.42,18.49,12.09,48.17,24.97,69.92,28.58,1.51.25,3.41-.18,5,0,.59.07,2.32,1.82,3.99,1,.24-3.1.92-5.83,1.01-9,.05-1.95.14-4.07,0-6,1.3-.48.96-1.9,1-3,.11-3.28-.27-6.76,0-10,.66-7.99,2.3-16.75,3-25,.4-4.63.61-9.35,1-14,.98-11.66,1.88-23.35,3-35,.49-5.09.33-10.88,1-16,.45-3.47.71-8.15,2.22-11.28,1.72-3.58,7.27-6.05,8.27-7.73s.42-4.1.5-5.99c.59-13.47.29-28.45,0-42-.06-2.65.12-5.32-.04-7.96-3.72-.43-8.56-1.6-11.96-3.04-.61-.26-1.36-.69-2-1-4.27-2.09-5.63-4.63-11-6-1.72-4.67-3.28-3.73-5.65-6.35-6.1-6.75-11.77-15.9-14.35-24.65-.38-1.3-.73-2.67-1-4-.39-1.94-.84-4.03-1-6s.08-4.01,0-6c-.67-17.61-.54-37.36,0-55,.09-3.03-.49-7.32,0-10,.89-4.88,8.17-7.72,12.53-6.1,6.85,2.56,6.25,8.33,6.47,14.1.22,5.63-.05,11.36,0,17,.02,1.67-.02,3.33,0,5,.1,10.57-.5,21.49,0,32,.13,2.76.72,4.6,1,7,.86,7.38.49,10.72,5.01,17.49,19.13,28.67,63.97,19.14,68.79-15.33.19-1.38-.81-2.05-.8-2.16.63-7.07.88-12.83,1-20,.16-8.97.08-18.03,0-27,0-1,0-2,0-3-.02-2.33.04-4.67,0-7-.04-2.16.35-12.45,0-13,1.58-.22,2.37-2.58,3-3,5.43-3.63,13.4-3.07,15.97,3.53-1.05,22.95,1.49,47.22.07,70.01-.14,2.24-.61,7.54-1.04,9.46-.12.53-.72,2.07-1,3-1.39,4.61-7.97,17.24-11,21-7.76,9.62-22.1,16.97-34.06,19.58,1.24,16.41-1.48,34.74.07,50.91.81,8.46,9.51,7.85,10.87,19.12,4.71,38.85,4.41,79.86,9.21,118.81.15,1.2.62,2.37.99,3.5,16.16-1.89,31.82-6.96,46.91-12.92,2.44-.96,4.62-1.95,7-3,.71-.31,1.33-.69,2-1,8.89-4.11,13.25-7.29,21-12,.87-.53,2.09-.78,4-2,11.95-7.64,28.37-17.75,36-30,4.88-1.9,6.69-6.13,10-10,1.21-1.41,1.52-2.41,2-3,9.82-12.09,16.79-21.89,24-36,1.18-2.31,1.94-4.71,3-7,2.02-4.36,4.28-8.45,6-13,.59-1.56.62-2.91,1-4,.55-1.57,1.37-2.98,2-5,.31-1,.7-1.97,1-3,1.49-5.04,1.94-9.16,3-14,.59-2.68,1.41-4.84,2-8,.02-.11.87-.24,1-2,.09-1.25.09-2.75,0-4,.98-.27.93-1.15,1-2,.13-1.64-.18-3.37,0-5,1.72-15.69,2.26-25.92,1-42-.08-.99.1-2.02,0-3-.8-8.24-2.39-14.27-4-22-.4-1.91-.49-3.88-1-6-7.87-32.58-18.86-52.56-39-78-.28-.35-.27-2.11-1-3-13.74-16.78-29.79-31.66-48.08-43.42-3.53-2.27-17.91-11.3-20.92-11.58-.52-.05-1.68-.12-2,0-1.24-2.22-4.12-3.18-6.33-4.17-34.58-15.55-73.26-19.83-110.67-14.83ZM475.5,723c3.4,1.01,19.01,0,24,0,3.43,0,2.63-5.12,2.48-7.49-2.31-36.35-6.37-72.68-8.97-109.02-.36-5.08-1.04-43.84-3.58-44.55-.85-.24-2.36.24-3.43.05-2.79,53-6.72,105.83-11.96,158.61-.16.87.81,2.21,1.45,2.4Z"/>
    <path class="cls-9" d="M607,783c-1.38.03-3.18.97-5,1-96.01,1.83-193.85-3.39-289.55-.04-1.9.07-3.79-.1-5.45,1.04-2.65-.72-7.55-3.99-8-4-3.38-7.41-1.56-14.95,7.48-16.02l295.07-.02c9.68-.26,11.13,12.4,5.45,18.05Z"/>
    <path class="cls-9" d="M716,782c-4.31-4.4-3.18-14.64,2.95-16.55,6.09-1.9,27.65-.39,35.59-.4,3.99,0,10.19-1.28,13.92-1.09,7.17.36,15.69,1.57,15.64,10.55-.02,4.38-2.1,7.85-6.1,9.5-18.49-.22-37.03.28-55.53.04-3.47-.04-5.13-1.84-6.47-2.04Z"/>
    <path class="cls-8" d="M271,782c-9.58,1.46-10.39,1.28-20,1-8.45-14.13,1.4-20.13,15.44-17.94,7.59,1.18,8.53,11.62,4.56,16.94Z"/>
    <path class="cls-15" d="M460,278c.54,8.71,14.86,4.07,20.46,3.96,7.78-.16,42.96-1.3,47.55,1.58.72.45.68,2.22,1.69,2.49,4.36,1.15,14.91-1.87,18.28,1.49,1.09,1.09,1.11,3.04,1.96,4.04,2.01,2.36,11.65,1.62,15.34,2.66,3.39.96,7.05,5.86,10.67,4.31.62-.26.86-1.46,1.05-1.53.32-.12,1.48-.05,2,0-1.37,7.46,8.35,4.34,10.52,7.98,1.34,2.24-.57,7.17,1.43,8.6l11.04-1.58c1.15,4.65-2.43,2.39-2.99,3-.1.11-.11,2.88,0,2.99.82.85,5.91-1.26,8.54-.12,4.96,2.17,4.71,6.25,7.38,8.71,1.88,1.72,4.78,1.88,6.82,3.13,3.24,2,9.97,12.04,12.89,15.16.99,1.06,6.94,7.36,7.39,7.63,1.85,1.11,4.03-.63,5.99-.51.73.89.72,2.65,1,3l-2.99,6,4.99-2.99c-1.73,5.69,2.79,4.85,4.26,8.25,1.84,4.27-.04,10.95,4.26,15.74,1.34,1.49,3.3.56,4.28,1.2.56.37.77,2.62,1.75,3.74,2.74,3.14,6.04,6.81,6.44,11.6.13,1.59-1.19,3.22-.84,4.77.25,1.08,10.28,15.13,11.41,18.63,1.75,5.43-2.74,11.35,5.44,11.06.51,2.12.6,4.09,1,6-3.16-.57-1.69,1.56-2.01,3.43-1.45,8.35.1,5.61,2.46,11.62,1.05,2.67-.66,6.94,3.55,6.95.1.98-.08,2.01,0,3-5.26.47-1.87,8.21-1.91,11.5-.09,8.12-1.56,17.96-1.15,26.06.1,1.87-.22,3.74,2.05,4.44-.18,1.63.13,3.36,0,5-3.95-.4-1.04,1.53-1,2,.09,1.25.09,2.75,0,4-2.3-.35-2.79.38-1,2-.59,3.16-1.41,5.32-2,8-4.15-.02-5.42,7.88-5.61,10.99-.15,2.47.02,2.85,2.61,3.01-.3,1.03-.69,2-1,3-4.95-1.2-5.71,2.45-2,5-.38,1.09-.41,2.44-1,4-1.24-.1-5.43.41-5.87,1.14-.31.51-1.56,10.56-.13,11.86-1.06,2.29-1.82,4.69-3,7-10.5,1.27-8.95,8.37-12.14,15.36-.26.57-4.49,7.72-4.83,8.17-2.81,3.65-8.93,5.46-7.03,12.47-.48.59-.79,1.59-2,3-6.18-1.06-7.79,6.44-10,10-1.92.75-4.19.14-6.53,1.98-1.6,1.26-3.15,5.53-3.67,5.82-1.59.9-6.86-.58-8.56,1.45-.82.97-.55,3.97-1.43,4.58s-3.02-.3-4.32,1.15c-2.42,2.68.88,7.87-5.9,8.13l-5.58,6.89c-1.91,1.22-3.13,1.47-4,2-4.85-6.21-7.09,1.28-9.06,2.48-1.44.88-3.65,2.14-5.01,2.91-3.16,1.78-8.25.97-6.93,6.61-.67.31-1.29.69-2,1,1.7-5.95-9.08-1.88-7,3-15.09,5.96-30.75,11.03-46.91,12.92-.37-1.13-.84-2.3-.99-3.5-4.81-38.95-4.51-79.97-9.21-118.81-1.36-11.27-10.06-10.66-10.87-19.12-1.55-16.17,1.17-34.5-.07-50.91,11.96-2.61,26.29-9.96,34.06-19.58,5.79.94,6.45-4.19,8.97-7.53.82-1.09,2.96-1.51,3.53-2.47.43-.71,2.88-12.1-1.5-11,.28-.93.88-2.47,1-3,10.45-1.87,2.03-8.83,2.02-9.5,0-.27,2.66-2.44,3.22-3.75,3.48-8.18.02-34.06.12-44.09.03-3.38,1.74-7.02,1.71-11.18-.04-5.69-3.07-17.61-9.01-19.05-3.86-.94-15.11-2.1-13.07,4.57-.63.42-1.42,2.78-3,3-.25-.39-6.16-2.34-5.13-6.87-3.42.66-6.41-2.15-9.25-2.08-2.04.05-4.37,1.55-6.42,1.75-2.97.29-7.68-.99-10.63,1.08-1.17.82.72,7.79-6.02,7.12-7.68-.76-4.25-7.5-4.57-7.95-2.59-3.58-14.66.4-18.99-1.06,1.36,6.67-1.72,5.98-6.48,9.01-1.34-1.79-10.74-9.91-12.03-10.02-1.55-.13-3.26,1.01-4.99,1.01-3.39.02-8.42-1.58-11.52,1.47-1.81,1.78-1.92,7.79,2.03,7.53-.49,2.68.09,6.97,0,10-3.03-.56-1.92,1.53-2,3.45-.61,15.34-.51,32.73,0,48.09.06,1.93-1.02,4.01,2,3.45.08,1.99-.16,4.03,0,6-5.84,1.2-5.33,6.93,1,6,.27,1.33.62,2.7,1,4-2.9-.52-2.23,1.37-1.78,3.27,3,12.54,3.87,11.24,11.34,19.68,1.83,2.07,2.16,5.5,4.89,7.11,2.55,1.5,3.82.51,5.55.95.65,1.77-1.01,3.27,2.06,5.44,1.58,1.12,8.07,4.23,8.94.56.64.31,1.39.74,2,1-.85,7.55,1.06,3.72,4.98,5.51,2.19,1,3.7,5.48,7.02,5.49.29,13.55.59,28.53,0,42-6.31-.79-5.14,4.82-7.95,7.55-1.48,1.44-4.33,1.4-4.92,3.08-.63,1.8-.22,8.43-.13,10.92.07,1.92-1.02,4.01,2,3.46-.67,5.12-.51,10.91-1,16-2.62.07-5.47.64-6,3.5-.99,5.32-.48,22.99,0,29.05.24,3.07-.49,2.57,3,2.45-.39,4.65-.6,9.37-1,14-7.54-.62-5.19,15.91-5,21.55.06,1.93-1.02,4.01,2,3.45-.27,3.24.11,6.72,0,10-4.07-.5-1.06,2.14-1,3,.14,1.93.05,4.05,0,6-4.31-1.33-3.1,4.72-5,8-1.59-.18-3.49.25-5,0,1.4-6.53-4.35-3.07-8.94-4.56-1.34-.43-7.9-4.88-8.99-6.01-1.33-1.39-1.37-4.08-3.06-4.98-3.24-1.74-6.55,2.14-8.98,1.09-.96-.42-1.9-2.33-3.06-3.01-1.94-1.12-4.58-1.49-6.02-2.97-1.67-1.73-1.76-5.48-3.34-6.66-1.68-1.25-3.97-.5-5.57-1.43-1.02-.59-1.39-2.82-3.29-3.77-2.91-1.46-5.78,1.1-9.02.12-1.5-.45-2.34-2.38-3.78-3.26-1.22-.74-3.16-.37-4.45-1.55-2.49-2.29-.53-8.27-2.42-9.58-1.74-1.21-6.8.36-9.41-1.34-1.28-.83-.97-2.86-1.94-3.8-1.37-1.32-6.6-4.23-7.21-5.29-1.2-2.09-1.25-9.75-3.94-12.14-.99-.88-11.66-.48-12.56-1.88-2.62-4.06,4.71-3.74,5-3.99.23-.2-1.08-5.23-1.56-5.95-2.2-3.31-7.68-.7-10.5-3.49-4.27-4.22,1.17-11.24-1.43-15.58-1.14-1.9-5.9-1.89-7.27-3.23-.3-.29-4.56-6.38-4.73-6.77-1.19-2.63.24-7.87-1.74-9.76-1.53-1.46-5.97-.6-7.29-3.21-1.52-3.01.62-9.79-1.37-12.42-1.2-1.59-4.76,1.33-5.87-5.35-2.45-14.75,10.28-5.74,18.03-7.43.61-.13,10.62-5.87,10.77-6.48,1.59-6.41-4-7.15-4.12-7.98-.08-.53,1.05-9.67,1.28-10.66.51-2.2,3.13-3.7,2.89-6.2-.21-2.18-2.34-1.95-3.05-3.3-3.6-6.85-.36-11.11-.13-17.81.06-1.75-.93-3.29-.91-4.9.06-4.82,3.04-13.95-3.99-16.5.08-.65-.09-1.35,0-2,1.55-.1,8.92-4.17,9.04-4.67.53-2.17.25-15.02-.13-17.74-.79-5.58-7.7-13.68-12.91-7.59-.62-.15-2.26-.09-3,0,.84-3.46-4.77-2.04-5.99-1.49-1.3.59-2.77,4.28-4.54,1.52-.61-.95.56-17.26,1.03-18.03.67-1.09,2.94-1.34,3.96-3.04,2.15-3.58,2.73-8.96,4.05-11.95.9-2.05,4.94-2.82,5.92-6.04s.56-5.84.58-8.97c3.12-.36,2.1,3.32,5.73,3.86,6.44.95,4.21-11.4,6.17-14.23,1.11-1.59,7.07-1.7,9.09-1.64-.31-4.09-3.42-5.27-1.26-9.77,2.89-6.02,11.07-4.51,12.78-6.21.36-.36,5.14-8.23,5.28-8.72.73-2.58-.56-8.33,1.45-10.05,1.61-1.38,6.64-.7,8.75-1.74,1.82-.9,4.69-7.52,7.71-8.36,3.96-1.1,4.47,3.54,8.28,2.85-.05-4.65.08-9.34,0-14-2.78-.42-3.34-1.11-2.99-3.99,4.06-.61,2.94.64,2.99,3.99,7.11,1.08,10.83-4.27,18-2.01.63-4.53-6.46-2.46-7-3-.98-8.54,5.86-3.52,8.43-4.09,3-.67.11-4.83.98-5.95.92-1.19,5.03-1.26,6.88-2.17,3.23-1.59,4.22-5.39,9.72-3.78v2.99c-.3.31-8.86-1.09-6.54,3.04.25.45,5.66,4.58,6.25,4.76,9.09,2.76,8.08-10.3,10.29-15.79.55-.38,6.6,1.9,6.83,2.18.49.61-.51,6.69,5.54,4.75,2.35-.75,1.37-5.41,2.53-7.28,1.01-1.62,6.19-1.23,5.1-6.65.96-.16,2.14-.75,4-1ZM587.79,468.29c-27.82,2.69-52.22,23.22-58.3,50.7-2.85,12.87-4.15,41.5-2.4,54.42.82,6.05,3.28,9.08,9.36,9.64,39.16,3.57,81.9-.1,99.41-40.69,9.27-21.48,4.05-47.4,4.65-70.36-2.04-2.23-5-3.66-7.98-4.02-10.59-1.28-33.82-.74-44.73.32Z"/>
    <path class="cls-11" d="M456,279c1.1,5.42-4.09,5.03-5.1,6.65-1.17,1.87-.19,6.53-2.53,7.28-6.04,1.94-5.04-4.14-5.54-4.75-.22-.28-6.28-2.56-6.83-2.18-2.21,5.49-1.2,18.55-10.29,15.79-.59-.18-6-4.32-6.25-4.76-2.32-4.13,6.24-2.73,6.54-3.04v-2.99c-5.5-1.61-6.49,2.19-9.72,3.78-1.85.91-5.96.98-6.88,2.17-.86,1.12,2.02,5.28-.98,5.95-2.57.57-9.41-4.46-8.43,4.09.54.54,7.63-1.53,7,3-7.16-2.27-10.89,3.09-18,2.01-.06-3.35,1.06-4.6-2.99-3.99-.34,2.88.22,3.57,2.99,3.99.08,4.65-.05,9.34,0,14-3.81.69-4.32-3.95-8.28-2.85-3.03.84-5.89,7.46-7.71,8.36-2.12,1.04-7.15.36-8.75,1.74-2.01,1.73-.73,7.47-1.45,10.05-.14.49-4.92,8.36-5.28,8.72-1.71,1.7-9.89.2-12.78,6.21-2.16,4.5.95,5.68,1.26,9.77-2.02-.06-7.98.05-9.09,1.64-1.97,2.82.27,15.17-6.17,14.23-3.63-.53-2.61-4.22-5.73-3.86-.02,3.13.36,5.87-.58,8.97s-5.02,3.99-5.92,6.04c-1.32,2.99-1.9,8.37-4.05,11.95-1.02,1.7-3.29,1.95-3.96,3.04-.47.77-1.64,17.09-1.03,18.03,1.78,2.76,3.24-.93,4.54-1.52,1.22-.55,6.83-1.98,5.99,1.49-3.03.37-6.48,2.98-7.74,5.76-3.03,6.68-5.86,28.8-6.3,36.7-.5,8.87.14,38.76,4.58,45.51,3.95,6.02,13.8,5.5,16.53-1.39,2.4-6.06-1.73-20.59-2.12-28.03-.49-9.45.89-17.39,2.05-26.55,7.03,2.55,4.05,11.67,3.99,16.5-.02,1.6.97,3.15.91,4.9-.23,6.7-3.47,10.96.13,17.81.71,1.35,2.85,1.12,3.05,3.3.24,2.5-2.39,4-2.89,6.2-.23.98-1.36,10.13-1.28,10.66.12.83,5.71,1.57,4.12,7.98-.15.61-10.16,6.35-10.77,6.48-7.75,1.69-20.48-7.32-18.03,7.43,1.11,6.67,4.67,3.76,5.87,5.35,1.99,2.63-.14,9.41,1.37,12.42,1.31,2.61,5.76,1.76,7.29,3.21,1.98,1.89.55,7.13,1.74,9.76.17.38,4.43,6.47,4.73,6.77,1.38,1.34,6.14,1.33,7.27,3.23,2.6,4.34-2.84,11.35,1.43,15.58,2.82,2.79,8.31.18,10.5,3.49.48.72,1.79,5.74,1.56,5.95-.29.25-7.62-.07-5,3.99.9,1.4,11.57,1,12.56,1.88,2.69,2.39,2.74,10.05,3.94,12.14.61,1.06,5.84,3.97,7.21,5.29.97.94.67,2.97,1.94,3.8,2.61,1.7,7.67.13,9.41,1.34,1.88,1.31-.07,7.29,2.42,9.58,1.29,1.18,3.22.81,4.45,1.55,1.44.87,2.28,2.8,3.78,3.26,3.24.97,6.11-1.58,9.02-.12,1.9.95,2.27,3.18,3.29,3.77,1.6.92,3.89.18,5.57,1.43,1.58,1.18,1.67,4.93,3.34,6.66,1.44,1.49,4.08,1.85,6.02,2.97,1.16.67,2.1,2.59,3.06,3.01,2.43,1.05,5.74-2.83,8.98-1.09,1.69.91,1.72,3.6,3.06,4.98,1.09,1.13,7.65,5.58,8.99,6.01,4.59,1.49,10.34-1.98,8.94,4.56-21.75-3.62-51.42-16.49-69.92-28.58-4.5-2.94-12.98-8.97-16.08-12.42-1.99-2.21-2.45-1.77-2.81-2.14-1.14-1.17,1.2-6.45-6.19-4.86-.81-.91-2.38-1.2-3-3-.85-2.47,1.97-3.53-4-3-71.18-64.4-82.08-167.22-35-249,8.96.81,4.53-4.43,6.43-7.08.86-1.2,3.64-.3,5.48-2.52.91-1.1,2.16-4.47,2.19-5.95.05-1.97-2.72-1.14-2.1-3.45.58-.8.77-1.69,1-2l1.35.02c4.41,5.79,3,.33,3.65-1.02.62-1.27,5.2-4.99,0-5,1.22-1.49,2.67-2.51,4-4,4.54,7.16,9.42-.57,3-4,4.07-4.43,8.25-7.36,12-11,1.12,2.34,1.34,2.4,3.51,1.02,3.15-1.99,7.11-3.64,6.48-8.02l-5.99,2c2.76-2.54,6.13-5.7,9-8-.46,4.78,8.09-.09,6-4,.46-.34.99-1.27,2-2l.51.99c1.86.36,1.6-.3,1.49-1.99,27.69-19.44,50.44-28.53,84-34ZM348.99,338.01c-1.09-1.09-3.08.9-1.99,1.99s3.08-.9,1.99-1.99Z"/>
    <path class="cls-10" d="M325,304c3.16-.48,1.89,1.28,1.71,3.2-.15,1.71-1.62,6.53-.59,7.69.22.25,6.03,2.15,6.36,2.17.26.02.99-4.23,2.52-1.06-77.14,75.94-95.9,197.16-34,289,1.1,3.4-1.85,2.84-1.98,3.01-2.15,2.94,3.19,1.29,4.98.99,5.3,7.48,16.46,22.24,22,28-1.06-1.06-3.11.88-1.99,1.99,1.11,1.11,3.06-.93,1.99-1.99.1.11,1.94-.17,2.93.54,1.42,1.02,1.52,2.96,2.07,3.46l-2.98,2.98c3.97-.88,2.36,1.81,3.65,3.07,1.13,1.09,6.8,5.58,7.98,5.87,1.92.48.97-2.65,3.35-1.92,1.25,1.05,2.25,2.39,3,3-5.07,3.4-.35,2.51.92,3.53,3.39,2.73,1.03,5.94,1.08,9.46,3.56-.66,9.79,1.85,12-2,1.26.89,3.21,1.82,5,3l-.98.52c-1.88,2.13,6.57,5.79,6.98,5.48.15-.12-.08-1.42,0-1.99,5.39,3.24,13.23,7.11,19,10-2.24,4.64,6.71,7,6,3,2.18,1.02,4.74,2.02,7,3-.94,6.34-7.52-.95-9.97,5.53-.76,2,2.09,1.55,3.04,2.86.19.27,2.73,5.15,2.93,5.6.26.58-.18,2.16,0,3-4.56-1.51-24.5-9.24-26-13-.25-.63.17-2.11,0-2.99-1.67-.35-2.34.57-2.99,1.99-.73-.33-1.3-.62-2-1l1-3.99c-1.68-.28-2.94.76-4,1.99-.6-.34-1.27-.56-2-1,1.32-3.38-1.56-3.76-1.96-4.79-.33-.87.27-2.68-.11-3.13-.23-.27-4.91-.33-6.89-1.63-1.51-.99-5.96-9.32-6.04-1.45-4.82-3.47-7.56-5.34-12-9,3.2-4.63-.07-3.33-1.62-4.36-1.29-.86-1.9-3.99-4.38.36-1.32-1.22-2.93-1.37-3-4,0-.13,2.28-.71.99-1.99-1.28-1.28-1.87,1-1.99.99-1.17-.09-2.19-1.56-3-2-.91-1.9-.38-7.83-2.99-5.98-.14.1.35,2.77-2.01,1.98-2.59-2.43-6.21-3.83-6-8,0-.19,2.66-2.78-.49-1.99-.7.18-.45.98-.51.99-3.91.37-5.91-6-7.33-7.66-85.66-100.44-74.35-241.51,21.33-331.34ZM282.99,578c.5-4.16-1.48-4.16-.98,0h.98Z"/>
    <path class="cls-13" d="M615,275v6s4.99-2.99,4.99-2.99l1.52,5.99,1.48-3.99c2.65,1.77,5.44,4.63,6,5-5.62,3.07,2.86,4.42,5.26,6.03,2.12,1.43,13.58,12.42,14.82,14.39,2.58,4.11-.89,7.59,7.92,1.58.68.65,1.33,1.34,2,2-2.19,4.63,3.89,13.41,9,10,.84.94,1.89,1.71,3,3-5.1,8.34,1.48,6.48,2.86,8.13.58.69-.17,3.04.18,4.29.48,1.71,3.31,5.82.95,7.57s-5.05-5.63-5.7-6.02c-.97-.59-9.4-3.98-7.29,1.02-1.82-2.22-7.83-8.73-10-11,5.21.41-1.42-6.2-1-1-.19-.19-1.32-.31-2-1,.3-1.8,1.96-7.11-.99-4.98-.15.11.36,2.77-2.01,1.98-2.38-2.36-8.36-6.52-9.99-8.55-1.21-1.51-.89-3.32-1.01-3.45,1.06,1.06,3.11-.88,1.99-1.99s-3.06.93-1.99,1.99c-.17-.17-2.1-.62-4-2,3.55-2.65-3.9-8.26-5.71-8.8s-3.86-1.02-3.29,1.8c-6.48-4.71-15.82-11.02-23-15-.59-2.88,2.88-.99,1.99-3.99-3.56-.1-4.51-.87-3.99,2.99-60.19-32.2-133.77-36.57-197-10-1.75-4.15-3.39-.06-6.49.1-2.25.12-4.26-1.25-6.51-1.1l2.99,5.99c-3.93,1.82-8.19,3.93-12,6l-1.01-3c-3.42-.11-3.12,2.37-1.99,5-1.28.54-1.08.75-3,1-.83.11-6-2.46-4.98,2.48l.98.52c-1.41.86-3.81,1.86-4,2-.58-7.54-10.27,4.13-9,7-.45.34-1.04,1.28-2,2-3.46-.06-4.55-.9-4,3-.73.57-1.66.73-2,1,.7-6.33-3.6-.85-5.74-.24-4.83,1.37-5.13-2.16-5.26,3.75-.04,1.9-.95,4.06,2,3.49-.2.13-2.39,2.4-3,3-1.53-3.17-2.25,1.08-2.52,1.06-.34-.02-6.14-1.92-6.36-2.17-1.02-1.16.44-5.98.59-7.69.17-1.92,1.45-3.67-1.71-3.2,1.23-1.15,2.21-2.38,4-4,8.48,12.84,4.56-.22,5.07-.93.37-.51,12.28-3.48,7.91-6.58-.87-.62-1.98-.49-2.98-.49.27-3.25,3.1-3.23,4-4,2.45,7.7,3.98-1.72,7.99-2l1.99,3.99,2.01-10c1.07-.71,2.07-1.78,4-3-.39,6.97,4.34.64,6.07-.43,2.99-1.85,6.02-.13,4.93-5.57.2-.11.96-.87,3-2,1.41,1.91,4.8.75,7,.99l-1-4.99c.26-.14.74.14,1,0l5.99,5,1.01-9c1.56-.74,3.18-.64,4-1,2.27,4.58,6.63-.88,8.74-1.76,2.62-1.1,5.55-1.65,8.1-2.93,1.87-.94,2.74.3,2.16-3.3,70.23-24.54,142.39-15.64,205,23ZM385,278.01c-2.87-.39-5.24,1.08-2.5,2.97l2.5-2.97Z"/>
    <path class="cls-1" d="M685,621c-5.14,1.31-1.78-5.28-1.92-8.52-.66-14.68-7.98,4.29-14.08,2.52,60.43-84.4,59.05-197.23-7-278-2.11-5.01,6.32-1.61,7.29-1.02.65.39,3.25,7.84,5.7,6.02s-.47-5.86-.95-7.57c-.35-1.26.4-3.6-.18-4.29-1.38-1.65-7.96.21-2.86-8.13,73.9,85.84,81.76,207.07,14,299Z"/>
    <path class="cls-2" d="M669,615c6.1,1.77,13.42-17.2,14.08-2.52.14,3.23-3.21,9.83,1.92,8.52-3.17,4.3-5.06,8.8-9,13-1.97-.85-2.78-3.38-4.99-3-1.06,2.31-.66,4.81-1.01,7-1.19,7.39-1.89,3.77-5,7,.1-6.87-7.05-4.39-7,.99l5,1.01c-1.67,1.72-3.29,3.33-5,5-3.43-3.52-4.24,1.84-6.98,2.02l2.98,1.98c-.13.12-.45,1.56-2,3-2.37.79-1.87-1.88-2.01-1.98-2.53-1.82-2.09,3.01-1.99,4.98-5.26,4.67-13.14,13.95-20,15-.1.02-.57-1.05-1.97-.63-2.32.7-4.07,3.93-6.77,4.47-2.25.45-6.02-1.06-6.25-.85-.29.28-1.19,6.73-1.01,8.01-6.44,3.83-11.79,7.64-19,11-.04-1.84-.99-3.36-2.99-3v4c-1.95.89-3.42,1.32-5.01,2,.91-5.38-4.17-3.14-2,1-3.95,1.65-7.36,3.53-11.49,5.02-16.1,5.82-33.4,10.89-50.52,11.99,1.24-3.65-2.91-15.51-.04-17.55l42.04-9.46c1.62,1.79,2.35,1.3,2-1,4.42-1.51,8.96-5.33,14-5-.1,1.7-.36,2.32,1.49,2.01,1.41-.25-.49-1.74-.49-2.01.05-3.03,9.24-5.18,11-6,1.3,2.01,3.8,2.15,6,1.99l-1-3.99c.2-.11-.5-3.08,3-2-.1,1.7-.36,2.32,1.49,2.01,1.43-.29-.5-1.87-.49-2.01.24-3.48,9.75-6.77,13-9,.98,5.37-4.28.8-3.01,6,7.72,1.08,12.49-1.09,6.01-8,.33-.22.6-.73,1-1,2.03-.74,1.91,1.88,2.62,2.02,5.1,1,3.74-3.2,4.52-3.86.62-.53,6.67.13,7.85-3.67.63-2.3-2.84-1.63-3.99-1.49.11-3.4,3.85-4.19,6-6h1.36c1.31,4.59,6.22-.36,1.64-1.64v-1.36c.71-.59,1.72-.76,2-1,3.89,1.92,6.12.61,2-2,1.06-.95,2.42-1.47,3-2-.27,3.3.64,1.95,2.55,1,5.32-2.65,1.01-1.71.45-5,.33-.33.67-.67,1-1,2.65,4.87,8.5-.71,2-2,1.47-1.41,2.63-1.67,3-2l.51.99c3.98-.57,1.45-2.78,1.49-2.99.58-2.75,1.55-3.1,3-5h1.36c1.71,4.83,6.7-1.05.64-2,2.89-3.65,6.32-7.25,9-11ZM668.99,619.01c-1.09-1.09-3.08.9-1.99,1.99s3.08-.9,1.99-1.99ZM644.5,661v1c.65-.33.65-.67,0-1ZM625.99,670.01c-1.09-1.09-3.08.9-1.99,1.99s3.08-.9,1.99-1.99Z"/>
    <path class="cls-3" d="M475.5,723c-.65-.19-1.61-1.53-1.45-2.4,5.23-52.78,9.16-105.61,11.96-158.61,1.06.19,2.58-.29,3.43-.05,2.54.7,3.21,39.46,3.58,44.55,2.6,36.33,6.66,72.66,8.97,109.02.15,2.37.95,7.49-2.48,7.49-4.99,0-20.6,1.01-24,0Z"/>
    <path class="cls-11" d="M432,368c-3.95.26-3.84-5.76-2.03-7.53,3.1-3.05,8.14-1.45,11.52-1.47,1.74,0,3.44-1.14,4.99-1.01,1.29.11,10.68,8.23,12.03,10.02,4.76-3.03,7.84-2.34,6.48-9.01,4.33,1.46,16.4-2.52,18.99,1.06.32.44-3.11,7.19,4.57,7.95,6.74.66,4.85-6.3,6.02-7.12,2.95-2.08,7.67-.79,10.63-1.08,2.05-.2,4.38-1.7,6.42-1.75,2.83-.07,5.83,2.74,9.25,2.08-1.03,4.53,4.88,6.48,5.13,6.87.35.55-.04,10.84,0,13h-3c.46,3.45-1.92,8.11,3,7,0,1,0,2,0,3-3.59-.34-2.49-.24-3.15,2.3-1.35,5.13-1.94,17.74-.12,22.52.86,2.25-.16,2.62,3.28,2.18-.12,7.17-.37,12.93-1,20-4.61,3.68-8.11-.04-10,0-2.32-22.21-.3-45.02-1.06-67.44-1.52-9.61-17.36-10.68-18.88-1-.12,20.66-.07,41.33-.02,61.99,0,1.8-1.19,4.58-1.04,5.45-3.11,2.89-7.89,2.89-11,0-.1-14.86-.86-29.66-1.05-44.55-.09-7.32,1.19-15.06,0-22.9-1.59-10.38-17.1-9.49-18.88,2.01-2.98,19.21,2.09,45.47-.06,65.44-4.14,3.53-6.34,3.61-11,1-.28-2.4-.87-4.24-1-7,3.81.63,4.53-2.69,4.9-5.6,1.16-9.02-.69-19.72.14-28.95-2.68-5.3,3.03-18.89-5.05-19.45-.22-5.77.38-11.54-6.47-14.1-4.35-1.62-11.64,1.22-12.53,6.1Z"/>
    <path class="cls-7" d="M483,436c3.11,2.89,7.89,2.89,11,0,.36,2.14,5.96,7.72,8.54,7.98,6.83.67,10.72-6.94,12.46-6.98,1.89-.04,5.39,3.68,10,0-.01.11.99.78.8,2.16-4.81,34.48-49.66,44-68.79,15.33-4.52-6.77-4.15-10.11-5.01-17.49,4.66,2.61,6.86,2.53,11-1,3.21,11.29,16.39,10.62,20,0Z"/>
    <path class="cls-2" d="M420,694c6.62,2.02,13.24,3.93,19.99,5.51,3.1.73,16.37,2.36,16.94,4.13.27.83-1.23,16.86-1.95,17.37-8.9-1.11-17.36-3.78-25.98-6-1.06-5.55-2.2-9.22-8.52-7.07-2.75.94-1.23,1.8-1.48,4.07-.54-.17-1.47.17-2,0,1.79-5.75-6.12-6.05-1.06-11.58,2.17-2.37,5.39.22,4.06-6.42Z"/>
    <path class="cls-11" d="M577,297c-.19.07-.43,1.27-1.05,1.53-3.62,1.54-7.28-3.35-10.67-4.31-3.68-1.04-13.33-.31-15.34-2.66-.85-1-.87-2.95-1.96-4.04-3.37-3.37-13.93-.35-18.28-1.49-1.01-.27-.97-2.04-1.69-2.49-4.59-2.88-39.77-1.74-47.55-1.58-5.6.11-19.92,4.76-20.46-3.96,37.41-5,76.09-.72,110.67,14.83,2.21.99,5.09,1.95,6.33,4.17Z"/>
    <path class="cls-11" d="M544,447c.43-1.93.9-7.23,1.04-9.46,1.42-22.79-1.12-47.06-.07-70.01-2.57-6.59-10.54-7.15-15.97-3.53-2.05-6.67,9.2-5.5,13.07-4.57,5.94,1.44,8.97,13.36,9.01,19.05.03,4.16-1.68,7.79-1.71,11.18-.1,10.03,3.36,35.91-.12,44.09-.56,1.31-3.22,3.49-3.22,3.75,0,.67,8.43,7.63-2.02,9.5Z"/>
    <path class="cls-11" d="M649,355c20.14,25.44,31.13,45.42,39,78-8.19.29-3.69-5.63-5.44-11.06-1.13-3.5-11.17-17.56-11.41-18.63-.35-1.55.97-3.18.84-4.77-.4-4.79-3.7-8.46-6.44-11.6-.98-1.12-1.19-3.37-1.75-3.74-.98-.64-2.94.29-4.28-1.2-4.3-4.8-2.42-11.47-4.26-15.74-1.47-3.4-5.99-2.55-4.26-8.25l-4.99,2.99,2.99-6Z"/>
    <path class="cls-11" d="M648,352c-1.96-.11-4.14,1.62-5.99.51-.46-.27-6.4-6.57-7.39-7.63-2.92-3.12-9.65-13.17-12.89-15.16-2.03-1.25-4.94-1.41-6.82-3.13-2.68-2.45-2.42-6.54-7.38-8.71-2.62-1.15-7.71.97-8.54.12-.1-.11-.1-2.88,0-2.99.56-.61,4.14,1.65,2.99-3l-11.04,1.58c-2-1.43-.09-6.36-1.43-8.6-2.18-3.64-11.89-.52-10.52-7.98,3.01.29,17.38,9.32,20.92,11.58,18.29,11.76,34.35,26.64,48.08,43.42Z"/>
    <path class="cls-11" d="M406,689c-.85,3.74,2.29,4.68,2,1,1.62.63,3.28,1.74,4,2-7.8,7.35,4.78,9.86,4,1,1.52.5,2.79.63,4,1,1.32,6.64-1.89,4.05-4.06,6.42-5.05,5.52,2.85,5.82,1.06,11.58-3.08-1.01-4.99-1.63-8-3v-2c2.93-1.16,5.56-4.97,2.99-7-.25-.2-4.29,1.76-5.99,2-.91.13-2.03,0-3,0-1.33,0-2.67,0-4,0-.2-.45-2.74-5.34-2.93-5.6-.95-1.31-3.8-.87-3.04-2.86,2.45-6.48,9.03.8,9.97-5.53.84.36,1.97.58,3,1Z"/>
    <path class="cls-15" d="M451,430c-.5-10.51.1-21.43,0-32,2.95,1.27,3.27-6,0-5-.05-5.64.22-11.37,0-17,8.07.56,2.37,14.15,5.05,19.45-.84,9.23,1.02,19.93-.14,28.95-.37,2.9-1.09,6.23-4.9,5.6Z"/>
    <path class="cls-11" d="M646,612c-3.31,3.87-5.12,8.1-10,10-7.63,12.25-24.05,22.36-36,30l5.58-6.89c6.78-.27,3.48-5.45,5.9-8.13,1.31-1.45,3.48-.57,4.32-1.15.89-.61.61-3.61,1.43-4.58,1.71-2.02,6.97-.55,8.56-1.45.52-.29,2.07-4.56,3.67-5.82,2.34-1.84,4.6-1.23,6.53-1.98,2.21-3.56,3.82-11.06,10-10Z"/>
    <path class="cls-11" d="M672,573c-7.21,14.11-14.18,23.91-24,36-1.89-7.01,4.23-8.81,7.03-12.47.34-.45,4.57-7.6,4.83-8.17,3.18-7,1.64-14.1,12.14-15.36Z"/>
    <path class="cls-11" d="M467,581c-1.12,11.65-2.02,23.34-3,35-3.5.12-2.76.62-3-2.45-.48-6.06-.98-23.73,0-29.05.53-2.86,3.38-3.42,6-3.5Z"/>
    <path class="cls-1" d="M657,307c-8.81,6.01-5.34,2.53-7.92-1.58-1.24-1.97-12.7-12.97-14.82-14.39-2.4-1.61-10.87-2.95-5.26-6.03,11.37,7.38,18,12.4,28,22Z"/>
    <path class="cls-11" d="M693,464c1.26,16.08.72,26.31-1,42-2.28-.7-1.96-2.58-2.05-4.44-.42-8.09,1.05-17.94,1.15-26.06.04-3.29-3.35-11.03,1.91-11.5Z"/>
    <path class="cls-11" d="M434,449c2.58,8.75,8.25,17.9,14.35,24.65,2.37,2.62,3.93,1.68,5.65,6.35,5.37,1.37,6.73,3.91,11,6-.87,3.67-7.36.56-8.94-.56-3.06-2.17-1.41-3.67-2.06-5.44-1.72-.44-3,.55-5.55-.95-2.73-1.61-3.07-5.04-4.89-7.11-7.46-8.44-8.34-7.14-11.34-19.68-.45-1.9-1.13-3.79,1.78-3.27Z"/>
    <path class="cls-11" d="M432,378c-.54,17.64-.67,37.39,0,55-3.02.56-1.94-1.53-2-3.45-.51-15.37-.61-32.75,0-48.09.08-1.93-1.03-4.01,2-3.45Z"/>
    <path class="cls-11" d="M479,540c-.08,1.89.5,4.33-.5,5.99s-6.55,4.15-8.27,7.73c-1.51,3.13-1.77,7.81-2.22,11.28-3.02.56-1.93-1.53-2-3.46-.09-2.49-.5-9.12.13-10.92.59-1.67,3.44-1.64,4.92-3.08,2.81-2.73,1.65-8.34,7.95-7.55Z"/>
    <path class="cls-15" d="M526,390c.08,8.97.16,18.03,0,27-3.44.44-2.42.07-3.28-2.18-1.81-4.78-1.22-17.39.12-22.52.67-2.54-.44-2.65,3.15-2.3Z"/>
    <path class="cls-11" d="M532,471c3.03-3.76,9.61-16.39,11-21,4.38-1.09,1.93,10.29,1.5,11-.57.96-2.71,1.38-3.53,2.47-2.52,3.34-3.18,8.46-8.97,7.53Z"/>
    <path class="cls-5" d="M360,665c-2.21,3.84-8.44,1.34-12,2-.05-3.52,2.31-6.73-1.08-9.46-1.27-1.02-5.98-.13-.92-3.53,3.71,3.02,10.42,8.49,14,11Z"/>
    <path class="cls-11" d="M596,654c-7.75,4.71-12.11,7.89-21,12-1.31-5.64,3.77-4.84,6.93-6.61,1.36-.77,3.57-2.03,5.01-2.91,1.97-1.2,4.2-8.69,9.06-2.48Z"/>
    <path class="cls-2" d="M324,360c-.62,2.32,2.15,1.49,2.1,3.45-.04,1.48-1.28,4.85-2.19,5.95-1.84,2.22-4.62,1.32-5.48,2.52-1.9,2.65,2.53,7.88-6.43,7.08,4.14-7.19,7-12.11,12-19Z"/>
    <path class="cls-11" d="M463,630c-.7,8.25-2.34,17.01-3,25-3.02.56-1.94-1.53-2-3.45-.19-5.64-2.54-22.16,5-21.55Z"/>
    <path class="cls-10" d="M339,292c1,0,2.11-.13,2.98.49,4.38,3.1-7.54,6.08-7.91,6.58-.51.71,3.42,13.77-5.07.93.19-.17.15-1.78.94-2.52,2.16-2,6.24-5.48,9.06-5.48Z"/>
    <path class="cls-11" d="M689,439c1.61,7.73,3.2,13.76,4,22-4.21-.01-2.5-4.28-3.55-6.95-2.36-6.01-3.91-3.27-2.46-11.62.32-1.87-1.15-4,2.01-3.43Z"/>
    <path class="cls-5" d="M348,676c.09-7.87,4.53.46,6.04,1.45,1.98,1.3,6.66,1.36,6.89,1.63.39.46-.22,2.26.11,3.13.39,1.03,3.28,1.4,1.96,4.79-5.81-3.49-10.31-7.62-15-11Z"/>
    <path class="cls-1" d="M628,677c-2.52,5.83-11.25,8.18-16,11-.18-1.28.71-7.73,1.01-8.01.23-.22,4,1.29,6.25.85,2.7-.54,4.45-3.77,6.77-4.47,1.4-.42,1.87.64,1.97.63Z"/>
    <path class="cls-5" d="M331,641c3.39,3.06,8.26,6.85,12,10-2.38-.73-1.43,2.39-3.35,1.92-1.18-.29-6.85-4.77-7.98-5.87-1.29-1.25.32-3.94-3.65-3.07l2.98-2.98Z"/>
    <path class="cls-10" d="M338,313c-2.95.57-2.04-1.58-2-3.49.12-5.92.43-2.39,5.26-3.75,2.15-.61,6.45-6.09,5.74.24-3.89,3.05-4.38,3.98-9,7Z"/>
    <path class="cls-11" d="M467,487c3.39,1.44,8.24,2.61,11.96,3.04.16,2.64-.01,5.31.04,7.96-3.32-.01-4.83-4.49-7.02-5.49-3.92-1.79-5.83,2.03-4.98-5.51Z"/>
    <path class="cls-10" d="M355,280l-2.01,10-1.99-3.99c-4.01.28-5.54,9.69-7.99,2,4.8-4.1,7.28-4.89,12-8Z"/>
    <path class="cls-1" d="M628,658c1.15-.15,4.62-.82,3.99,1.49-1.18,3.8-7.23,3.14-7.85,3.67-.78.67.58,4.87-4.52,3.86-.71-.14-.59-2.75-2.62-2.02,3.68-2.49,6.16-6.39,11-7Z"/>
    <path class="cls-10" d="M410,252c.58,3.61-.29,2.37-2.16,3.3-2.55,1.28-5.48,1.84-8.1,2.93-2.11.88-6.47,6.34-8.74,1.76,6.53-2.9,11.84-5.5,19-8Z"/>
    <path class="cls-11" d="M419,712c.25-2.26-1.27-3.13,1.48-4.07,6.32-2.15,7.46,1.51,8.52,7.07-3.55-.92-6.55-1.91-10-3Z"/>
    <path class="cls-1" d="M616,666c6.49,6.9,1.71,9.08-6.01,8-1.28-5.19,3.99-.62,3.01-6,1.03-.71,1.97-1.32,3-2Z"/>
    <path class="cls-1" d="M668,319c-5.11,3.41-11.19-5.37-9-10,3.75,3.71,5.79,6.43,9,10Z"/>
    <path class="cls-1" d="M622,300c-.58-2.82,1.51-2.32,3.29-1.8s9.26,6.15,5.71,8.8c-2.95-2.15-6.05-4.86-9-7Z"/>
    <path class="cls-10" d="M370,271c1.1,5.44-1.94,3.72-4.93,5.57-1.73,1.07-6.46,7.4-6.07.43,4.32-2.72,7.37-3.89,11-6Z"/>
    <path class="cls-11" d="M688,527c-1.06,4.84-1.51,8.96-3,14-2.59-.16-2.76-.54-2.61-3.01.19-3.11,1.45-11.01,5.61-10.99Z"/>
    <path class="cls-11" d="M681,553c-1.72,4.55-3.98,8.64-6,13-1.43-1.31-.18-11.36.13-11.86.44-.72,4.63-1.24,5.87-1.14Z"/>
    <path class="cls-10" d="M390,279l-2.99-5.99c2.24-.15,4.26,1.21,6.51,1.1,3.1-.16,4.74-4.25,6.49-.1-2.82,1.19-6.73,3.49-10,5Z"/>
    <path class="cls-10" d="M364,293c-2.35,1.7-6.18,4.88-9,7-1.27-2.87,8.42-14.54,9-7Z"/>
    <path class="cls-10" d="M353,328l5.99-2c.63,4.38-3.34,6.03-6.48,8.02-2.17,1.38-2.39,1.32-3.51-1.02.73-.71,1.76-2.93,4-5Z"/>
    <path class="cls-2" d="M409,707c-.65.26-1.67-.05-2,1-2.99-1.27-1.85-1.91-2-2l1-4c1.7-.24,5.74-2.2,5.99-2,2.57,2.03-.06,5.84-2.99,7Z"/>
    <path class="cls-10" d="M387,261l-1.01,9-5.99-5c2.05-1.06,3.95-2.56,7-4Z"/>
    <path class="cls-1" d="M665,645c-.57.59-1.49,1.47-2,2l-5-1.01c-.05-5.38,7.1-7.86,7-.99Z"/>
    <path class="cls-2" d="M416,693c.78,8.86-11.8,6.35-4-1,1.28.45,2.71.57,4,1Z"/>
    <path class="cls-2" d="M334,348c.69-.77,1.44-2.3,3-4,6.42,3.43,1.54,11.16-3,4Z"/>
    <path class="cls-11" d="M459,674c-.09,3.18-.76,5.9-1.01,9-1.68.81-3.4-.94-3.99-1,1.9-3.28.69-9.33,5-8Z"/>
    <path class="cls-11" d="M566,670c-2.08-4.88,8.7-8.95,7-3-2.38,1.05-4.56,2.04-7,3Z"/>
    <path class="cls-1" d="M676,634c-1.8,1.92-2.68,3.91-6,4,.35-2.19-.05-4.68,1.01-7,2.21-.39,3.02,2.14,4.99,3Z"/>
    <path class="cls-1" d="M658,652c-1.22,1.2-2.64,2.72-4,4l-2.98-1.98c2.74-.18,3.55-5.54,6.98-2.02Z"/>
    <path class="cls-5" d="M330,663c2.48-4.35,3.1-1.23,4.38-.36,1.55,1.04,4.82-.27,1.62,4.36-1.75-1.44-3.52-1.71-6-4Z"/>
    <path class="cls-10" d="M379,265l1,4.99c-2.19-.24-5.59.91-7-.99,1.57-.87,3.63-2.73,6-4Z"/>
    <path class="cls-11" d="M432,439c.16,1.97.61,4.06,1,6-6.33.93-6.84-4.8-1-6Z"/>
    <path class="cls-5" d="M371,672c-.09.57.14,1.88,0,1.99-.4.31-8.85-3.35-6.98-5.48l.98-.52c1.78,1.17,4.47,3.08,6,4Z"/>
    <path class="cls-10" d="M368,316c2.09,3.91-6.46,8.78-6,4,1.99-1.59,4.35-2.77,6-4Z"/>
    <path class="cls-5" d="M396,685c.71,4-8.24,1.64-6-3,1.93.97,4.09,2.1,6,3Z"/>
    <path class="cls-15" d="M526,380c.04,2.33-.02,4.67,0,7-4.92,1.11-2.54-3.55-3-7.01h3Z"/>
    <path class="cls-1" d="M596,679l1,3.99c-2.19.15-4.69.01-6-1.99,1.45-.67,4.75-1.86,5-2Z"/>
    <path class="cls-1" d="M623,280l-1.48,3.99-1.52-5.99-4.99,2.99v-6c2.83,1.75,5.07,3.04,7.99,5Z"/>
    <path class="cls-1" d="M354,634c7.39-1.59,5.05,3.68,6.19,4.86.36.37.81-.07,2.81,2.14-3.86-1.08-6.51-4.21-9-7Z"/>
    <path class="cls-1" d="M647,640c.56,3.28,4.87,2.35-.45,5-1.91.95-2.81,2.3-2.55-1,.54-.49,1.47-2.49,3-4Z"/>
    <path class="cls-11" d="M684,544c-.63,2.02-1.45,3.43-2,5-3.71-2.55-2.95-6.2,2-5Z"/>
    <path class="cls-2" d="M330,357c-.66,1.34.76,6.81-3.65,1.02l-1.35-.02c1.13-1.51,2.38-2.22,3-3l2,2Z"/>
    <path class="cls-5" d="M318,652c2.37.79,1.87-1.88,2.01-1.98,2.6-1.85,2.07,4.08,2.99,5.98-3.37-1.83-2.62-1.77-5-4Z"/>
    <path class="cls-10" d="M372,288c-.58,2.44-2.74,2.23-4,3l-.98-.52c-1.02-4.93,4.15-2.37,4.98-2.48Z"/>
    <path class="cls-1" d="M650,637c6.5,1.29.65,6.87-2,2,.68-.69,1.29-1.32,2-2Z"/>
    <path class="cls-10" d="M406,702l-1,4c-.52-.33-2.99.27-4,0l2-4c.97,0,2.09.13,3,0Z"/>
    <path class="cls-14" d="M330,352c5.2.01.62,3.73,0,5l-2-2c.46-.58.89-1.65,2-3Z"/>
    <path class="cls-5" d="M304,609c-1.8.31-7.13,1.95-4.98-.99.13-.18,3.08.39,1.98-3.01.63.94,2.03,2.63,3,4Z"/>
    <path class="cls-10" d="M375,287c-1.13-2.63-1.43-5.11,1.99-5l1.01,3c-.72.39-.9,1.11-3,2Z"/>
    <path class="cls-1" d="M637,649v1.36c4.58,1.28-.33,6.23-1.64,1.64h-1.36c.82-.69,1.7-1.91,3-3Z"/>
    <path class="cls-1" d="M648,662c-.11-1.97-.54-6.8,1.99-4.98.15.11-.36,2.77,2.01,1.98-1.62,1.5-2.97,2.09-4,3Z"/>
    <path class="cls-1" d="M597,284c-.52-3.87.43-3.1,3.99-2.99.88,3-2.59,1.12-1.99,3.99-.62-.35-1.34-.65-2-1Z"/>
    <path class="cls-1" d="M660,626c6.06.95,1.08,6.83-.64,2h-1.36c.73-.96,1.58-1.47,2-2Z"/>
    <path class="cls-5" d="M403,702l-2,4c-.65-.18-1.33-.78-2-1-.18-.84.26-2.42,0-3,1.33,0,2.67,0,4,0Z"/>
    <path class="cls-1" d="M593,699c-1.05.49-2.18.63-3,1v-4c2.01-.37,2.96,1.15,3,3Z"/>
    <path class="cls-11" d="M451,393c3.27-1,2.95,6.27,0,5-.02-1.67.02-3.33,0-5Z"/>
    <path class="cls-5" d="M365,688c1.06-1.23,2.32-2.27,4-1.99l-1,3.99c-1.21-.66-2.1-1.49-3-2Z"/>
    <path class="cls-1" d="M646,321c2.37.79,1.87-1.88,2.01-1.98,2.95-2.12,1.29,3.18.99,4.98-.97-.99-2.01-2.02-3-3Z"/>
    <path class="cls-1" d="M347,628c5.97-.53,3.15.53,4,3-2.52.13-2.92-2.02-4-3Z"/>
    <path class="cls-1" d="M583,703c-2.17-4.14,2.91-6.38,2-1-.61.26-1.23.68-2,1Z"/>
    <path class="cls-10" d="M353,302c-1.31.99-2.73,2.01-4,3-.55-3.9.54-3.06,4-3Z"/>
    <path class="cls-1" d="M641,646c4.12,2.61,1.89,3.92-2,2,.57-.5,1.23-1.31,2-2Z"/>
    <path class="cls-1" d="M655,633c-.04.21,2.49,2.43-1.49,2.99l-.51-.99c.2-.18-.55-2.76,2-2Z"/>
    <path class="cls-5" d="M370,691c.66-1.43,1.33-2.35,2.99-1.99.18.89-.25,2.36,0,2.99-1.36.3-2.08-.58-3-1Z"/>
    <path class="cls-1" d="M651,325c-.42-5.2,6.21,1.41,1,1-.32-.34-.67-.66-1-1Z"/>
    <path class="cls-5" d="M408,690c.29,3.68-2.85,2.74-2-1,.77.31,1.45.78,2,1Z"/>
    <path class="cls-11" d="M460,665c-.04,1.1.3,2.52-1,3-.06-.86-3.07-3.5,1-3Z"/>
    <path class="cls-1" d="M600,677c0,.13,1.92,1.72.49,2.01-1.85.32-1.59-.31-1.49-2.01h1Z"/>
    <path class="cls-1" d="M565,692c.35,2.3-.38,2.79-2,1,.44-.89,1.28-.76,2-1Z"/>
    <path class="cls-10" d="M372,313c.11,1.69.37,2.35-1.49,1.99l-.51-.99c.87-.63,1.68-.77,2-1Z"/>
    <path class="cls-5" d="M311,643c.06,0-.19-.82.51-.99,3.15-.79.5,1.8.49,1.99l-1-1Z"/>
    <path class="cls-10" d="M409,707v2c-.71-.32-1.41-.75-2-1,.33-1.05,1.35-.74,2-1Z"/>
    <path class="cls-5" d="M326,658c.13,0,.71-2.28,1.99-.99,1.28,1.28-1,1.87-.99,1.99l-1-1Z"/>
    <path class="cls-11" d="M691,517c-.13,1.76-.98,1.89-1,2-1.79-1.62-1.3-2.35,1-2Z"/>
    <path class="cls-11" d="M692,511c-.07.85-.02,1.73-1,2-.04-.47-2.95-2.4,1-2Z"/>
    <path class="cls-1" d="M580,687c0,.27,1.9,1.75.49,2.01-1.85.32-1.59-.31-1.49-2.01h1Z"/>
    <path class="cls-6" d="M587.79,468.29c10.91-1.06,34.14-1.59,44.73-.32,2.99.36,5.94,1.78,7.98,4.02-.6,22.96,4.62,48.88-4.65,70.36-17.51,40.59-60.24,44.26-99.41,40.69-6.09-.55-8.55-3.59-9.36-9.64-1.75-12.92-.45-41.55,2.4-54.42,6.09-27.48,30.48-48,58.3-50.7ZM609,487h-17.5c-3.88,0-15.07,3.3-18.88,5.12-19.1,9.16-27.22,30.59-25.61,50.88,12.15-13.39,28.57-21.76,42-33.49,4.59-4.01,13.98-12.9,17.5-17.5,1.14-1.49,2.69-2.95,2.48-5.02ZM623,502c-2.36-.63-1.69.61-2.29,1.28-18.89,21.23-36.84,30.95-55.73,49.21-1.91,1.85-8.63,8.95-9,11s.25,1.34,1.5,1.51c21.93.81,45.55-4.29,57.71-24.31,2.95-4.85,7.81-17.8,7.81-23.19v-15.5Z"/>
    <path class="cls-8" d="M320,428c.74-.09,2.38-.15,3,0,3.82.93,7.47,4.66,7.78,8.73.27,3.43-3.09,16.16-3.78,21.27-.09.65.08,1.35,0,2-1.16,9.16-2.54,17.1-2.05,26.55.38,7.43,4.52,21.97,2.12,28.03-2.73,6.89-12.58,7.41-16.53,1.39-4.43-6.75-5.08-36.64-4.58-45.51.45-7.9,3.27-30.01,6.3-36.7,1.26-2.78,4.71-5.39,7.74-5.76Z"/>
    <path class="cls-11" d="M323,428c5.21-6.09,12.12,2.01,12.91,7.59.39,2.72.66,15.57.13,17.74-.12.49-7.49,4.57-9.04,4.67.69-5.11,4.05-17.83,3.78-21.27-.31-4.07-3.96-7.8-7.78-8.73Z"/>
    <path class="cls-10" d="M348.99,338.01c1.09,1.09-.9,3.08-1.99,1.99s.9-3.08,1.99-1.99Z"/>
    <path class="cls-5" d="M326,637c1.06,1.06-.88,3.11-1.99,1.99-1.11-1.11.93-3.06,1.99-1.99Z"/>
    <path class="cls-14" d="M282.99,578h-.98c-.5-4.16,1.48-4.16.98,0Z"/>
    <path class="cls-10" d="M385,278.01l-2.5,2.97c-2.74-1.89-.37-3.36,2.5-2.97Z"/>
    <path class="cls-1" d="M635,309c-1.06-1.06.88-3.11,1.99-1.99s-.93,3.06-1.99,1.99Z"/>
    <path class="cls-1" d="M668.99,619.01c1.09,1.09-.9,3.08-1.99,1.99s.9-3.08,1.99-1.99Z"/>
    <path class="cls-1" d="M625.99,670.01c1.09,1.09-.9,3.08-1.99,1.99s.9-3.08,1.99-1.99Z"/>
    <path class="cls-1" d="M644.5,661c.65.33.65.67,0,1v-1Z"/>
    <path class="cls-12" d="M483,436c-3.61,10.62-16.79,11.29-20,0,2.15-19.97-2.91-46.22.06-65.44,1.78-11.5,17.29-12.39,18.88-2.01,1.2,7.83-.08,15.58,0,22.9.19,14.89.94,29.69,1.05,44.55Z"/>
    <path class="cls-6" d="M515,437c-1.74.03-5.64,7.64-12.46,6.98-2.57-.25-8.18-5.84-8.54-7.98-.15-.87,1.05-3.65,1.04-5.45-.05-20.66-.1-41.33.02-61.99,1.52-9.68,17.37-8.61,18.88,1,.76,22.42-1.26,45.23,1.06,67.44Z"/>
  </g>
</svg>