<?xml version="1.0" encoding="UTF-8"?>
<svg xmlns="http://www.w3.org/2000/svg" viewBox="0 0 1024 1024">
  <defs>
    <style>
      .cls-1 {
        fill: #d6d6d6;
      }

      .cls-2 {
        fill: #efefef;
      }

      .cls-3 {
        fill: #7f7373;
      }

      .cls-4 {
        fill: #fff;
        opacity: .5;
      }

      .cls-5 {
        fill: #c0c2c2;
      }

      .cls-6 {
        fill: #313231;
      }

      .cls-7 {
        fill: #eceded;
      }

      .cls-8 {
        fill: #f4f5f5;
      }

      .cls-9 {
        fill: #edeeed;
      }

      .cls-10 {
        fill: #e5e6e5;
      }

      .cls-11 {
        fill: #fefefe;
      }

      .cls-12 {
        fill: #e2e4e3;
      }

      .cls-13 {
        fill: #f3f3f3;
      }

      .cls-14 {
        fill: #313131;
      }

      .cls-15 {
        fill: #e8e8e8;
      }

      .cls-16 {
        fill: #e1e3e2;
      }
    </style>
  </defs>
  <g id="_검은색_배경" data-name="검은색 배경">
    <rect class="cls-3" x="0" y="0" width="1024" height="1024"/>
  </g>
  <g id="_레이어_1" data-name="레이어 1">
    <polygon class="cls-2" points="708.16 669.6 753.84 523.51 695.5 530.61 698.86 672.81 708.16 669.6"/>
    <path class="cls-14" d="M270.68,549.46c139.51-2.66,282.02-1.11,421.69,0,2.99.02,6-.03,8.99,0,2.66.03,5.34-.06,7.99,0,1.99.04,4-.07,6,0,1.65.06,3.35-.13,5,0,4.32.35,11.64,2.18,12.99,6.99.26.93.06,3.74,0,4.99-.35,6.71-5.49,19.55-7.73,26.74-13.62,43.82-29.24,87.07-42.95,130.88-3.07,6.85-6,9.56-13.74,10.24l-362.27-.04c-3.83-1.81-6.58-3.11-8.02-7.47-15.55-47.48-31.09-94.96-46.24-142.57-1.2-3.78-3.81-8.54-4.7-11.78-1.88-6.84-1.43-12.39,5.04-16.44,4.3-2.69,12.65-1.44,17.94-1.54ZM329.64,574.43c-16.85-2.34-35.96-1.04-52.96,0l42.47,127.85h15.49v-127.86c-1.29-.13-2.73.18-4,0-.33-.05-.67.05-1,0ZM689.37,574.43c-6.61-.22-12.06.11-18.53.04-7.53-.09-15.46-2.45-23.44-.04v126.36c0,2.8,8.94.33,10.99.5.29.02,1.68,1.64,2.99,1l40.75-124.6.23-3.26c-4.31-.11-8.68.14-12.99,0ZM403.58,574.43h-44.97v127.86h43.47c.11,0,1.5-1.39,1.5-1.5v-126.36ZM477.53,574.43h-50.96v126.36c0,.11,1.39,1.5,1.5,1.5h49.46v-127.86ZM553.47,574.43h-51.96v126.36c0,.11,1.39,1.5,1.5,1.5h50.46v-127.86ZM623.42,574.43h-46.97v126.36c0,.11,1.39,1.5,1.5,1.5h45.47v-127.86Z"/>
    <path class="cls-6" d="M726.34,339.69c8.32,3.27,11.16,10.67,15.99,16.98.7,4.73,1.27,9.15,1,13.98-.21,3.83-1.16,8.54-2.27,12.21-.8,2.64-3.62,6.12-3.73,8.35-.16,3.11,2.37,3.86,3.01,5.41.24.58.94,2.55,1,3,1.43,9.94-2.92,21.03-11.99,25.97-.85.46-5.79,2.24-4.98-.48,1.43-4.82,7.31-10.25,5.97-16.5l-5.46,8.01c-7.79,8.55-10.43,3.18-18.51,3.97-.85-.95-1.84-.93-3-1-1.65-.1-3.34.07-5,0-11.83-4.91-18.81,8.41-22.98,16.98-1.53.16-3.04,2.96-4,4-1.01,1.1-3.22,1.47-3,4-.94.15-2.03-.07-3,0-.38-4.77-1.72-31.94-3.92-33.54-5.37-3.9-6.19,4.95-6.06,8.05.43,10.2,4.77,26.65,3.95,35.85-.87,9.74-16.25,28.8-20.93,38.1-.86,2.78,5.75,1.06,7.31,1.52l43.06-66.03c3.04-1.84,10.04-.24,13.92.21,5.19.6,14.32,1.58,19.05,2.94.63.18,4.4,1.74,4.58,1.92,1.98,1.97,1.79,11.89,1,14.98-3.47,13.58-18.01,21.94-29.62,27.83-13.79,6.99-28.73,12.09-43.32,17.14-.24,1.74,2.27.94,3.48.99,5.47.2,11.03-.02,16.5,0,1,0,2,0,3,0,2.83.01,5.69,0,8.49,0h71.95c1.49,0,9,8.1,9.49,9.99.23.87.13,3.9,0,4.99-.77,6.66-6.77,13.2-13.47,14.01-163.63-1.7-327.78,1.75-491.16.98-3.13-.01-5.7-1.01-8.46-1.04-8.22-.08-31.46,2.17-36.51-3.95-1.46-1.77-4.09-9.82-3.82-12.22.45-3.97,6.19-12.75,10.31-12.75h33.48c-2.92-4.72-7.81-11.18-8.76-16.72-.83-4.86,1.23-13.2.62-15.52-.4-1.52-7.42-6.57-9.36-8.71-19.74-21.7-10.35-50.77,19.5-51.95-.18-10.05-1.24-37.25,14.98-32.97-.11,1.67.99,3.4.74,5.22-1.34,10.08-6.09,17.21-4.76,28.26.52,4.32,2.56,4.39,3.76,7.23,1.11,2.65.61,6.97,3.76,9.21,5.02-4.81,11.43-8.47,18.49-8.97,21-1.48,31.22,17.24,30.99,35.96,16.83-21.59,42.08-47.33,71.26-29.79,8.22,4.94,13.35,12.82,18.32,20.7,3,.87,27.41-11.28,35.83-9.9,2,.33,2.34,1.96,2.49,2.01.85,3.48-.68,7.26-3.73,9.02-5.71,3.29-24.79,6.52-28.26,9.45-1.69,1.42-.78,3.75-.98,5.51-.31,2.67-.32,5.36-1,7.99-1.97-.73-6.58-.64-8.99-2-2.52-5.02-5.07-12.94-7.99-16.98-1.99-9.68-14.02-19.24-23.63-19.91-12.08-.84-27.81,11.85-35.3,20.44-9.75,11.18-20.15,31.98-18.1,46.99.26,1.94,2.07,1.25,2.09,2.02s-1.15,2.16-1.01,2.4c.49.84,6.57.94,8,1,31.4,1.35,63.6-.58,94.95-.51,1.06-.47,1.36-1.71,1.98-2.48,3.16-3.95,5.96-11.37,4.98-16.45-.45-2.32-7.68-8.94-9.98-10.52l3.01-5.98,1,2.98c1.84.44.34-2,1.5-2,1.84,0,2.81,2.44,3.47,2,.07-.05-.23-1.16.38-1.59.66-.48,3.09-2.1,3.64-2.4.41-.22,2.06.48,2.78-.18.33-.3,2.19-6.88,3.04-8.49,3.61-6.84,8.51-13.13,14.16-18.31,12.2-11.18,28.31-17.11,45.02-14.54,7.17,1.1,13.23,5.26,19.93,7.54.2-20.34,8.47-42.87,24.52-55.9,9.75-7.91,16.63-10.63,28.45-5.02,12.85,26.37-18.3,40.93-34.97,53.94-2.39,1.87-3.4.19-5,4.99-.75,2.25-1.17,4.6-1,6.99,8.25.33,15.68-3.4,23.99-4,16.39-1.17,28.5,4.5,38.97,16.98,10.19,12.14,16.73,26.22,15.04,42.51-.4,3.89-2.55,6.49-2.05,10.43h19.99c-6.33-13.69-11.23-27.9-16.07-42.18-.74-2.19-3.02-6.45-3.92-9.76-4.21-15.4-6.16-31.37,5.49-43.96,2.23-2.41,12.16-8.85,12.39-9.63.39-1.33-2.2-8.93-1.63-13.57,2.58-21.16,26.41-30.67,44.11-19.82,10.27-15.18,34.57-22.58,51.56-15.9ZM729.33,380.64c12.49-30.56-18.35-38.82-39.95-23.95,1.25,2.55,6.34.07,8.5,0,11-.38,23.74,2.14,29.67,12.27l1.78,11.69ZM667.38,365.68c-1.74-1.73-11.57-2.42-14.28-1.8-1.21.27-8.28,4.37-6.7,5.78,4.73-.74,9.78-2.63,14.6-2.89.48-.03,9.59,2.11,6.38-1.09ZM644.9,369.66v1c.65-.33.65-.67,0-1ZM571.45,371.66c-15.16,2.18-25.9,18.13-29.97,31.96l22.52-15.94c3.39-5.11,8.67-9.21,7.45-16.02ZM273.68,437.57c-1.59-3.29-10.33-22.47-11.98-23.47-7.24-4.4-19.42,5.59-20.03,14.01-.47,6.49,6.34,19.39,12.05,21.99,2.9,1.32,9.09-3.92,9.95-6.04s-7.84-2.81-8.49-5.47c-3.97-13.56,16.02.95,18.49-1.02ZM287.67,437.58c2.39,4.9,5.48,8.65,7.99,12.99,5.43,9.39,10.35,19.25,15.83,28.63.56.95,2.6,5.76,4.14,4.32-.66-6.19,6.43-21.02,6.06-25.47s-16.25-3.18-15.07-11.92c.71-5.24,7.48-3.02,8.03-3.56.31-.3-.05-5.07-.25-6.26-2-12.01-13.78-19.9-24.67-12.16-7.38,5.25-5.01,7.39-2.07,13.42ZM594.44,494.52c1.92-.07,4.7.42,6.35-.14,2.24-.75,4.64-12.81,4.67-15.4.2-16.58-16.01-40.87-33.47-42.44-10.68-.96-19.21,3.19-29.14,3.9-17.43,1.26-25.95-12.09-42.8-12.89-31.88-1.52-60.04,38.27-41.28,66.75l1.76.21c44.5-1.18,89.45,1.58,133.9,0ZM272.68,453.57c-3.69,2.27-2.53,1.66-5,4s-1.79.86-4,4.99c-3.48,6.53-4.5,9.38-1.5,16.98,1.86,4.7,11.07,14.98,15.99,14.98h29.48c-.69-3.2-3.69-5.85-5-7.99-.61-1.01-.73-3.29-1.75-4.73-3.23-4.54-11.75-3.82-16.23-5.26-3.24-1.04-9.55-4.84-6.56-9.06,1.87-2.64,9.49.94,12.56.07.57.95,1.28,2.56,1.98,1.51l-1.98-1.51c-.29-3.94-3.02-7.98-5.17-11.31-1.05-1.63-3.71-3.44-3.82-3.68-.68-1.52,1.37-3.17-1.45-2.97-4.05.3-5.19,2.52-7.54,3.96Z"/>
    <path class="cls-14" d="M749.32,755.23c11.56.04,24.2.61,35.97,1,6.47.22,10.16-1.99,11.99,4.99.2.78-.1,2.05,0,3l-1,2c-2.11.91-3.84,2.38-6.45,2.05l-592.11-.05c-.27-1.47-4.79-3.63-3.59-8.01,1.3-4.74,4.97-3.75,8.59-3.98,1.32-.08,2.67.03,4,0,36.19-.94,72.7.05,108.92,0,117.89-.16,235.84-.08,353.74,0,4.65,0,9.34,0,13.99,0,16.64.01,33.32-.03,49.96,0,5.58,0,10.88-1.02,15.99-1Z"/>
    <path class="cls-9" d="M262.69,524.49l-.05,5.53c2.12,1.29,12.4-.19,13.03.47.28.29-.17,6.04,1.49,8s22.6.8,27.03.95c87.08,2.81,175.13.59,261.6.42,35.9-.07,71.45-1.1,107.13-.42,6.59.13,13.52,2.51,20.44.04-.47,3.01-.33,6.82-1,9.99-139.67-1.11-282.18-2.66-421.69,0,.5-2.79-3.27-14.39-4.95-15.53-3.42-2.32-33.91.98-40.31-.66-3.57-1.05-13.51-10.29-7.7-13.78,5.05,6.12,28.29,3.87,36.51,3.95,2.76.03,5.32,1.03,8.46,1.04Z"/>
    <path class="cls-14" d="M412.57,353.68c-.13-1.67-1.26-3.57-1.04-5.44,1.98-21.75-2.51-47.77.02-69,.46-3.9,3.39-8.04,7.46-8.52,23.1,2.06,50.44-2.56,73.02.03,2.36.27,6.53,1.78,7.47,4.02.5,1.18.93,4.95,1.04,6.45,1.28,17.28,1.59,48.97,0,66.01-.52,5.61-2.25,9.74-8.51,10.47-23.06-1.43-48.2,1.83-71,.01-4.24-.34-5.86-.66-8.46-4.03ZM427.56,287.75c.09.95.05,2.04,0,3,0,.19-1.02,1.58-1.07,3.38-.51,16.48.53,33.09.07,49.56h58.96c-.04-10.31,0-20.7,0-30.97,0-1.33,0-2.66,0-4,0-.67,0-1.33,0-2-.01-1.66.01-3.33,0-4.99-.02-3.27-.98-6.82-1-8.99-.01-1.6,2.01-5.47,1-8-7.29.91-53.32-1.57-55.96,1-5.11-2.56-2.17.17-2,2Z"/>
    <path class="cls-6" d="M663.39,247.79c.96,6.12-.88,13.49-8.44,12.96-.52-.04-5.34-1.77-5.55-1.97-.26-.24-2.67-5.96-2.72-6.65-.3-4.8,4.31-9.28,9.05-9.05,4.43.22,7,4.47,7.65,4.7Z"/>
    <path class="cls-6" d="M325.64,262.78c2.67,5.63-.13,11.61-6.51,12.05-2.44.17-5.18-1.21-6.48-1.07-9.78-10.89,7.26-23.06,12.99-10.99Z"/>
    <path class="cls-6" d="M811.28,636.36c8.57,5.46-1.42,22.03-10.99,13.98-8.52-7.16,2.66-19.29,10.99-13.98Z"/>
    <path class="cls-6" d="M154.77,533.48c5.4,1.42,6.93,14.65-1.57,15.93-1.82.27-7.12.04-8.43-.94-.29-.22-2.72-5.08-2.81-5.72-.94-6.71,6.8-10.85,12.8-9.26Z"/>
    <path class="cls-6" d="M192.74,355.67c1.58,10.11-4.54,14.38-13.99,10.99-.05-1.24-2.58-4.36-2.71-6.65-.35-6.44,5.39-9.46,11.18-8.32,2.59.51,3.34,2.97,5.52,3.98Z"/>
    <path class="cls-10" d="M767.31,509.5c3.01-.59,1.78,1.45,2.13,3.3,1.05,5.51.88,10.93-2.65,15.65-1.97,2.63-5.58,1.84-5.48,5.02-8.4.44-17.49,0-25.98,0,.48-2.1-1.06-2.31-2.58-2.86-6.42-2.33-12,.59-18.78.01-1.71.54-1.26,1.76-1.63,2.85-.79,2.36-.05,3.44-.45,5.02-.74,2.92-4.28,5.99-2.55,10.96-2.66-.06-5.34.03-7.99,0l3.99-19.97c-2.06.98-8.9.55-9.86,1.12-.39.24-1.91,7.48-2.13,8.86-6.93,2.47-13.86.08-20.44-.04-35.68-.68-71.23.35-107.13.42-86.46.17-174.51,2.39-261.6-.42-4.43-.14-25.36,1-27.03-.95s-1.21-7.7-1.49-8c-.63-.65-10.91.82-13.03-.47l.05-5.53c163.38.78,327.52-2.68,491.16-.98,6.7-.8,12.7-7.35,13.47-14.01Z"/>
    <path class="cls-16" d="M553.47,574.43v127.86h-50.46c-.11,0-1.5-1.39-1.5-1.5v-126.36h51.96Z"/>
    <path class="cls-12" d="M477.53,574.43v127.86h-49.46c-.11,0-1.5-1.39-1.5-1.5v-126.36h50.96Z"/>
    <path class="cls-16" d="M623.42,574.43v127.86h-45.47c-.11,0-1.5-1.39-1.5-1.5v-126.36h46.97Z"/>
    <path class="cls-16" d="M403.58,574.43v126.36c0,.11-1.39,1.5-1.5,1.5h-43.47v-127.86h44.97Z"/>
    <path class="cls-10" d="M329.64,574.43c-5.42,5.46-16.47,1.99-23.99,5-.74,3.11,2.68,1.73,4.79,2.67,2.26,1.01,4.28,1.93,6.96,3.06,2.14.9,3.65,4.24,5.73,4.26,2.31-7.5,12.21-3.91,7.5-14.99,1.27.18,2.71-.14,4,0v127.86h-15.49l-42.47-127.85c17-1.05,36.11-2.35,52.96,0ZM299.66,579.42c-5.94,1.29-10.22-.57-15.99-.99-.23,2.61-.21,5.94,2.7,6.79.64.19,11.14,1.22,11.71,1.08,2.25-.54,1.54-4.99,1.58-6.88ZM293.66,598.41c-1.74-1.74-5.1,1.6-1.48,2.98,2.12.81,1.77-2.69,1.48-2.98ZM330.63,598.41h-2.99v1.99h2.99v-1.99ZM302.5,632.22c1.59-.95.65-7.39-.35-8.86s-4.28-.22-4.47.05c-.97,1.33,3.21,6.43.98,8.95,1.16-.15,2.95.39,3.84-.14Z"/>
    <path class="cls-15" d="M733.34,561.44c10.96-.51.41,11.77-.04,16.46-.29,3.08,2.37.39,4.03.53,1.16,1.35-9.3,29.51-10.69,33.75-.67,2.03-1.93,9.83-2.3,10.2-.57.58-4.64-1.35-5.98-1.01l-11.99,38.96c2.35.64,2.95-2.26,3.64-3.82,3.81-8.64,5.46-20.19,9.35-29.14,1.68.04,2.15-.65,1.8,1.29-1.24,6.85-7.22,25.59-10.39,31.59-.75,1.43-2.89,2.36-3.28,3.8-.51,1.9.89,3.66.68,5.56-.81,7-10.56,26.64-13.31,34.67-1.72,5-2.81,13.73-4.66,18.32-.75,1.86-3.03,1.49-4.28,2.72-2.1,2.06-2.97,5.8-6.03,7.95-2.76,1.94-8.56,3.72-11.96,4.03-112.18-.71-224.9.79-336.75,0-5.08-.04-11.23.47-16.08,0-1.45-.14-9.08-2.72-9.41-3.09-.56-.63.77-3.82.96-4.95l362.27.04c7.74-.68,10.66-3.39,13.74-10.24,13.7-43.8,29.33-87.05,42.95-130.88,2.23-7.19,7.38-20.03,7.73-26.74Z"/>
    <path class="cls-16" d="M689.37,574.43l-30.98,126.86c-2.06-.17-10.99,2.3-10.99-.5v-126.36c7.97-2.42,15.91-.05,23.44.04,6.47.08,11.93-.26,18.53-.04Z"/>
    <path class="cls-8" d="M689.37,574.43c4.31.14,8.68-.11,12.99,0l-.23,3.26-40.75,124.6c-1.31.64-2.7-.97-2.99-1l30.98-126.86Z"/>
    <path class="cls-12" d="M330.63,574.43c4.71,11.08-5.2,7.49-7.5,14.99-2.08-.02-3.6-3.36-5.73-4.26-2.68-1.13-4.7-2.05-6.96-3.06-2.11-.95-5.53.44-4.79-2.67,7.52-3.01,18.57.46,23.99-5,.33.05.67-.05,1,0Z"/>
    <path class="cls-13" d="M693.37,539.47c.22-1.38,1.74-8.62,2.13-8.86.95-.57,7.79-.14,9.86-1.12l-3.99,19.97c-2.99-.03-6,.02-8.99,0,.67-3.17.53-6.98,1-9.99Z"/>
    <path class="cls-4" d="M336.63,494.52c-3.61-20.85,26.21-56.16,45.55-58.85,6.61-.92,18.25.19,22.4,5.91,2.92,4.04,5.48,11.96,7.99,16.98,1.91,3.81,4.14,9.6,6.58,12.9,3.08,4.17,8.86,6.56,11.25,10.72,1.81,3.15,1.46,6.41,3.15,9.34-.61.77-.92,2.01-1.98,2.48-31.35-.06-63.55,1.86-94.95.51Z"/>
    <path class="cls-2" d="M594.44,494.52c-.9-15.24-7.24-33.24-20.65-41.79-11.16-7.12-21.7-.39-32.68-1.24-8.93-.69-16.96-8.37-25.35-9.67-29.95-4.66-59.07,22.23-55.22,52.7l-1.76-.21c-18.76-28.48,9.4-68.27,41.28-66.75,16.84.8,25.37,14.15,42.8,12.89,9.93-.72,18.47-4.87,29.14-3.9,17.45,1.57,33.66,25.86,33.47,42.44-.03,2.58-2.43,14.65-4.67,15.4-1.65.55-4.43.07-6.35.14Z"/>
    <path class="cls-9" d="M404.58,441.58c-4.14-5.72-15.79-6.82-22.4-5.91-19.35,2.68-49.16,38-45.55,58.85-1.43-.06-7.51-.16-8-1-.14-.24,1.03-1.66,1.01-2.4s-1.82-.08-2.09-2.02c-2.05-15.01,8.35-35.81,18.1-46.99,7.49-8.59,23.22-21.28,35.3-20.44,9.61.67,21.64,10.23,23.63,19.91Z"/>
    <path class="cls-16" d="M706.36,420.6c8.08-.8,10.71,4.58,18.51-3.97l5.46-8.01c1.34,6.25-4.54,11.68-5.97,16.5-.81,2.72,4.13.94,4.98.48-.04,2.36-.67,3.46,2,3-.1.06.14,1.43-.27,1.68-2.07,1.25-5.05.59-4.73,3.32-.18-.18-3.95-1.74-4.58-1.92-4.72-1.35-13.85-2.34-19.05-2.94-3.88-.45-10.88-2.05-13.92-.21l-43.06,66.03c-1.56-.46-8.17,1.25-7.31-1.52,4.68-9.31,20.06-28.36,20.93-38.1.82-9.2-3.51-25.64-3.95-35.85-.13-3.1.69-11.95,6.06-8.05,2.2,1.6,3.54,28.77,3.92,33.54.97-.08,2.06.14,3,0,2.74-.42,3.18-1.11,3-4,.95-1.03,2.47-3.84,4-4,6.47-.67,5.04-4.13,8.97-8.51.78-.86,6.05-6.3,6.44-6.55,2.66-1.73,5.51.07,7.57-1.92,1.66.07,3.34-.1,5,0-.42,4.21,2.72,1.03,3,1Z"/>
    <path class="cls-2" d="M287.67,437.58c-2.94-6.03-5.32-8.17,2.07-13.42,10.9-7.74,22.68.15,24.67,12.16.2,1.19.56,5.96.25,6.26-.55.53-7.32-1.68-8.03,3.56-1.18,8.74,14.69,7.43,15.07,11.92s-6.72,19.28-6.06,25.47c-1.54,1.43-3.59-3.37-4.14-4.32-5.48-9.38-10.39-19.25-15.83-28.63,2.22-2.98-2.23-9.9-4.13-12.35-1.07-1.38-2.73-2.96-3.86-.64Z"/>
    <path class="cls-13" d="M290.66,467.55c-3.07.88-10.69-2.7-12.56-.07-2.99,4.22,3.33,8.02,6.56,9.06.62,5.89,12.57,12.41,17.99,9.99,1.3,2.14,4.31,4.8,5,7.99h-29.48c-4.91,0-14.13-10.29-15.99-14.98-3.01-7.6-1.98-10.45,1.5-16.98l6.99,1.99c-8.53-10.82,4.66.31,5.99-.99-.27-3.85-5.68-5.79-8.99-5.99,2.46-2.34,1.31-1.73,5-4,1.12,5.54,10.55,5.98,8.99-1,.11.24,2.76,2.05,3.82,3.68,2.15,3.33,4.88,7.37,5.17,11.31Z"/>
    <path class="cls-9" d="M273.68,437.57c-2.48,1.97-22.46-12.54-18.49,1.02.66,2.66,9.33,3.41,8.49,5.47s-7.05,7.36-9.95,6.04c-5.71-2.6-12.52-15.5-12.05-21.99.61-8.42,12.78-18.41,20.03-14.01,1.65,1,10.39,20.18,11.98,23.47Z"/>
    <path class="cls-15" d="M731.34,442.58c-.67,9.51-1.8,22.55-11.99,26.97-1.82.79-4.57-.77-4,4-.58.47-.84,1.27-2,2,1.61-2.59-3.42-3.3-1.99-4.98.23-.26,4.39-2.05,6-3.51,3.48-3.14,10.67-11.23,11.55-15.44.4-1.93,1.49-3.51-1.57-3.05.79-3.09.98-13.01-1-14.98-.32-2.73,2.66-2.07,4.73-3.32.4-.24.17-1.62.27-1.68.3-.19,1.6-.04,3-1,1.79-1.23,4.82-1.22,5-4.99,6.44-3.91,5.48-13.82,5-20.53-.22-3.09.43-2.56-3-2.44-.06-.45-.76-2.41-1-3,1.09-5.97,4.98-12.86,5.91-18.56.38-2.3,1.56-8.86-2.91-7.41.27-4.84-.3-9.25-1-13.98.1.13,1.48-.13,2.87,1.6.72.9,5.89,11.83,6.07,12.93,1.65,9.86-4.89,16.21-5.03,23.94-.08,4.87,3.42,9,3.03,14.83-.12,1.73-2.03,9.84-2.71,11.36-3.4,7.62-14.4,9.64-15.22,21.24Z"/>
    <path class="cls-1" d="M727.34,448.57c3.06-.46,1.97,1.12,1.57,3.05-.88,4.21-8.07,12.3-11.55,15.44-1.61,1.45-5.77,3.24-6,3.51-1.43,1.68,3.6,2.39,1.99,4.98-9.26,5.81-20.38,8.73-29.87,13.64-1.46.76-3.56,1.15-3.11,3.34-.99.03-2.01-.08-3,0-2.27.18-3.46-.92-3,2-5.47-.02-11.02.2-16.5,0-1.21-.05-3.72.75-3.48-.99,14.59-5.04,29.53-10.15,43.32-17.14,11.61-5.88,26.15-14.25,29.62-27.83Z"/>
    <path class="cls-15" d="M729.33,380.64l-1.78-11.69c-5.93-10.13-18.68-12.65-29.67-12.27-2.16.07-7.25,2.56-8.5,0,21.6-14.87,52.44-6.6,39.95,23.95Z"/>
    <path class="cls-7" d="M571.45,371.66c1.22,6.81-4.06,10.91-7.45,16.02l-22.52,15.94c4.07-13.83,14.81-29.78,29.97-31.96Z"/>
    <path class="cls-2" d="M421.57,460.56c.76.28,6.03,3.34,6.99,4,2.3,1.57,9.53,8.2,9.98,10.52.98,5.09-1.82,12.5-4.98,16.45-1.69-2.93-1.34-6.19-3.15-9.34-2.4-4.17-8.17-6.56-11.25-10.72-2.44-3.29-4.67-9.09-6.58-12.9,2.41,1.35,7.03,1.27,8.99,2Z"/>
    <path class="cls-2" d="M767.31,504.51c5.44-1.29,10.7,5.21,11.59,9.96s-3.49,13.09-7.1,16c-4.44,3.57-5.26,2.73-10.48,3.01-.1-3.17,3.51-2.39,5.48-5.02,3.53-4.72,3.71-10.14,2.65-15.65-.35-1.85.87-3.89-2.13-3.3.13-1.09.23-4.12,0-4.99Z"/>
    <path class="cls-1" d="M741.33,399.63c3.44-.11,2.79-.64,3,2.44.48,6.71,1.44,16.62-5,20.53-2.18,1.32-4.95,0-5,4.99-1.4.96-2.7.81-3,1-2.67.47-2.04-.63-2-3,9.07-4.94,13.42-16.04,11.99-25.97Z"/>
    <path class="cls-12" d="M302.66,486.53c-5.42,2.43-17.37-4.1-17.99-9.99,4.48,1.44,13,.72,16.23,5.26,1.02,1.44,1.14,3.72,1.75,4.73Z"/>
    <path class="cls-5" d="M698.36,419.6c-2.06,1.99-4.91.19-7.57,1.92-.39.25-5.66,5.69-6.44,6.55-3.94,4.38-2.51,7.84-8.97,8.51,4.17-8.57,11.15-21.89,22.98-16.98Z"/>
    <path class="cls-1" d="M743.33,370.66c4.47-1.46,3.29,5.1,2.91,7.41-.93,5.71-4.82,12.6-5.91,18.56-.64-1.54-3.16-2.29-3.01-5.41.11-2.23,2.94-5.71,3.73-8.35,1.11-3.67,2.06-8.38,2.27-12.21Z"/>
    <path class="cls-1" d="M667.38,365.68c3.21,3.2-5.9,1.06-6.38,1.09-4.81.26-9.87,2.15-14.6,2.89-1.58-1.4,5.49-5.5,6.7-5.78,2.71-.62,12.54.06,14.28,1.8Z"/>
    <path class="cls-15" d="M272.68,453.57c2.35-1.44,3.49-3.67,7.54-3.96,2.82-.21.77,1.44,1.45,2.97,1.56,6.97-7.88,6.53-8.99,1Z"/>
    <path class="cls-15" d="M267.68,457.56c3.31.2,8.72,2.14,8.99,5.99-1.33,1.3-14.52-9.82-5.99.99l-6.99-1.99c2.2-4.13,1.47-2.6,4-4.99Z"/>
    <path class="cls-16" d="M295.66,450.57c-2.51-4.34-5.6-8.08-7.99-12.99,1.13-2.32,2.79-.74,3.86.64,1.9,2.45,6.35,9.37,4.13,12.35Z"/>
    <path class="cls-5" d="M668.38,444.58c-.23-2.52,1.98-2.9,3-4,.19,2.88-.26,3.57-3,4Z"/>
    <path class="cls-7" d="M677.38,492.52v2c-1,0-2,0-3,0-.47-2.91.73-1.82,3-2Z"/>
    <path class="cls-5" d="M706.36,420.6c-.28.03-3.41,3.21-3-1,1.16.07,2.15.05,3,1Z"/>
    <path class="cls-1" d="M644.9,369.66c.65.33.65.67,0,1v-1Z"/>
    <path class="cls-15" d="M290.66,467.55l1.98,1.51c-.7,1.05-1.41-.56-1.98-1.51Z"/>
    <path class="cls-11" d="M797.29,764.22c.01.11,1.4.92.99,1.99-.62.13-1.57-.18-1.99,0l1-2Z"/>
    <path class="cls-8" d="M484.52,292.74c.02,2.17.98,5.72,1,8.99h-6c-.02-3.97-2.85-8.06-7.27-6.85-3.55.98-14.58,16.31-18.74,18.39-3.16,1.58-7.74-7.27-12.54-1.63-4.35,5.12,7.14,15.66,11.57,17.06.22,1.23-.33,5.66,0,6,.42.43,7.4-.03,8.95-.55,2.92-.98,9.26-8.15,12.51-10.47,2.4-1.71,7.18-1.94,9.01-5.99,1-2.23-.79-5.59,2.51-4.97,0,10.27-.04,20.65,0,30.97h-58.96c.46-16.48-.58-33.08-.07-49.56.06-1.79,1.06-3.19,1.07-3.38,5.56,2.9,12.32,2.2,18.52,2.03,1.31-.04,2.58-1.04,2.96-1.04h20.98c3.84,0,9.41,3.35,14.49,1Z"/>
    <path class="cls-16" d="M429.56,285.75c2.64-2.58,48.68-.1,55.96-1,1,2.52-1.02,6.4-1,8-5.08,2.35-10.65-1-14.49-1h-20.98c-.38,0-1.65,1-2.96,1.04-6.21.17-12.96.86-18.52-2.03.05-.96.09-2.05,0-3,3.1.71,1.63-1.64,2-2Z"/>
    <path class="cls-7" d="M485.52,308.73c0,1.33,0,2.66,0,4-3.3-.62-1.51,2.75-2.51,4.97-1.83,4.05-6.6,4.28-9.01,5.99-3.25,2.32-9.59,9.49-12.51,10.47-1.55.52-8.54.98-8.95.55-.33-.34.23-4.77,0-6,.77.24,2.63-.27,3,0,.29.21-.16,4.35,5.55,1.05,3.87-2.5,20.08-21.72,22.43-22.03.11-.01,1.22,1.17,2,1Z"/>
    <path class="cls-16" d="M485.52,301.73c.01,1.66-.01,3.33,0,4.99-.56-.12-1.82.18-2,0-.61-.63.01-2.37-4-3,0-.67,0-1.33,0-2h6Z"/>
    <path class="cls-8" d="M429.56,285.75c-.37.36,1.1,2.7-2,2-.17-1.82-3.11-4.55,2-2Z"/>
    <path class="cls-8" d="M485.52,306.73c0,.67,0,1.33,0,2-.78.17-1.89-1.01-2-1v-1c.17.18,1.44-.12,2,0Z"/>
    <path class="cls-2" d="M712.35,533.48c.37-1.09-.08-2.31,1.63-2.85,6.78.58,12.36-2.34,18.78-.01,1.51.55,3.06.76,2.58,2.86h-22.98Z"/>
    <path class="cls-6" d="M435.56,456.56h1l-.51.98c-.36-.24-.31-.83-.49-.98Z"/>
    <path class="cls-12" d="M299.66,579.42c-.04,1.89.67,6.34-1.58,6.88-.57.14-11.07-.9-11.71-1.08-2.91-.85-2.92-4.18-2.7-6.79,5.77.42,10.05,2.28,15.99.99Z"/>
    <path class="cls-12" d="M302.5,632.22c-.89.53-2.68,0-3.84.14,2.23-2.52-1.95-7.62-.98-8.95.2-.27,3.45-1.55,4.47-.05s1.93,7.91.35,8.86Z"/>
    <path class="cls-12" d="M293.66,598.41c.29.29.64,3.79-1.48,2.98-3.62-1.38-.26-4.72,1.48-2.98Z"/>
    <rect class="cls-12" x="327.64" y="598.41" width="2.99" height="1.99"/>
    <path class="cls-16" d="M739.33,422.6c-.18,3.78-3.2,3.77-5,4.99.05-4.99,2.82-3.67,5-4.99Z"/>
    <path class="cls-1" d="M719.35,469.55c-.7,3.04-3.07,3.24-4,4-.57-4.77,2.17-3.2,4-4Z"/>
    <path class="cls-1" d="M479.52,303.73c4.01.63,3.39,2.37,4,3v1c-2.35.31-18.55,19.53-22.43,22.03-5.72,3.31-5.27-.84-5.55-1.05l23.98-24.97Z"/>
  </g>
</svg>