<?xml version="1.0" encoding="UTF-8"?>
<svg xmlns="http://www.w3.org/2000/svg" viewBox="0 0 1024 1024">
  <defs>
    <style>
      .cls-1 {
        fill: #2c3133;
      }

      .cls-2 {
        fill: #2d3134;
      }

      .cls-3 {
        fill: #3b4144;
      }

      .cls-4 {
        fill: #e3e5e5;
      }

      .cls-5 {
        fill: #e4e6e8;
      }

      .cls-6 {
        fill: #2e3234;
      }

      .cls-7 {
        fill: #26282b;
      }

      .cls-8 {
        fill: #2b2f32;
      }

      .cls-9 {
        fill: #f4f5f6;
      }

      .cls-10 {
        fill: #222629;
      }

      .cls-11 {
        fill: #e1e3e6;
      }

      .cls-12 {
        fill: #2d3233;
      }

      .cls-13 {
        fill: #303538;
      }

      .cls-14 {
        fill: #e0e3e5;
      }

      .cls-15 {
        fill: #2b2f33;
      }

      .cls-16 {
        fill: #2f3235;
      }

      .cls-17 {
        fill: #f5f5f6;
      }

      .cls-18 {
        fill: #edeff0;
      }

      .cls-19 {
        fill: #33363a;
      }

      .cls-20 {
        fill: #e0e2e5;
      }

      .cls-21 {
        fill: #dee0e2;
      }

      .cls-22 {
        fill: #2c3033;
      }

      .cls-23 {
        fill: #2f3437;
      }

      .cls-24 {
        fill: #7f7373;
      }

      .cls-25 {
        fill: #edeef0;
      }

      .cls-26 {
        fill: #292d30;
      }

      .cls-27 {
        fill: #2a2e31;
      }

      .cls-28 {
        fill: #fcfcfd;
      }

      .cls-29 {
        fill: #e5e7ea;
      }

      .cls-30 {
        fill: #dbdee0;
      }

      .cls-31 {
        fill: #e1e2e4;
      }

      .cls-32 {
        fill: #fff;
        opacity: .5;
      }

      .cls-33 {
        fill: #fbfcfc;
      }

      .cls-34 {
        fill: #ececed;
      }

      .cls-35 {
        fill: #dbdddf;
      }

      .cls-36 {
        fill: #f9fafa;
      }

      .cls-37 {
        fill: #272c2e;
      }

      .cls-38 {
        fill: #dadbde;
      }

      .cls-39 {
        fill: #d8dadc;
      }

      .cls-40 {
        fill: #e1e3e5;
      }

      .cls-41 {
        fill: #dbdcdc;
      }

      .cls-42 {
        fill: #2e3235;
      }

      .cls-43 {
        fill: #ecedeb;
      }

      .cls-44 {
        fill: #dcdee0;
      }

      .cls-45 {
        fill: #fbfbfc;
      }

      .cls-46 {
        fill: #282c30;
      }

      .cls-47 {
        fill: #e2e4e6;
      }

      .cls-48 {
        fill: #2e3335;
      }

      .cls-49 {
        fill: #272b2e;
      }

      .cls-50 {
        fill: #262b2d;
      }

      .cls-51 {
        fill: #f2f4f6;
      }

      .cls-52 {
        fill: #2b3032;
      }

      .cls-53 {
        fill: #2e3236;
      }

      .cls-54 {
        fill: #2b3033;
      }

      .cls-55 {
        fill: #dfe1e4;
      }

      .cls-56 {
        fill: #e3e6e7;
      }

      .cls-57 {
        fill: #363b3e;
      }

      .cls-58 {
        fill: #2b2e32;
      }

      .cls-59 {
        fill: #272b2d;
      }

      .cls-60 {
        fill: #313437;
      }

      .cls-61 {
        fill: #e0e2e4;
      }

      .cls-62 {
        fill: #373b3e;
      }

      .cls-63 {
        fill: #282b2f;
      }

      .cls-64 {
        fill: #282d30;
      }

      .cls-65 {
        fill: #f1f3f2;
      }

      .cls-66 {
        fill: #fefefe;
      }

      .cls-67 {
        fill: #e4e6e9;
      }

      .cls-68 {
        fill: #eceeef;
      }

      .cls-69 {
        fill: #e4e6e7;
      }

      .cls-70 {
        fill: #282f2d;
      }

      .cls-71 {
        fill: #f5f5f5;
      }

      .cls-72 {
        fill: #eff0f2;
      }

      .cls-73 {
        fill: #262a2d;
      }

      .cls-74 {
        fill: #2e3336;
      }

      .cls-75 {
        fill: #dddfe2;
      }

      .cls-76 {
        fill: #dfe2e5;
      }

      .cls-77 {
        fill: #292c2e;
      }

      .cls-78 {
        fill: #2f3436;
      }

      .cls-79 {
        fill: #dcdfe2;
      }

      .cls-80 {
        fill: #2c3034;
      }

      .cls-81 {
        fill: #e6e7ea;
      }

      .cls-82 {
        fill: #fbfcfd;
      }

      .cls-83 {
        fill: #fbfbfb;
      }

      .cls-84 {
        fill: #fcfcfc;
      }

      .cls-85 {
        fill: #dfe0e2;
      }

      .cls-86 {
        fill: #e5e6e7;
      }

      .cls-87 {
        fill: #e6e8ea;
      }

      .cls-88 {
        fill: #e7e9ec;
      }

      .cls-89 {
        fill: #272b2f;
      }

      .cls-90 {
        fill: #f1f2f3;
      }

      .cls-91 {
        fill: #2c2f32;
      }

      .cls-92 {
        fill: #e8e8ea;
      }

      .cls-93 {
        fill: #272c2f;
      }

      .cls-94 {
        fill: #dcdcdc;
      }

      .cls-95 {
        fill: #262a2e;
      }

      .cls-96 {
        fill: #282c2d;
      }

      .cls-97 {
        fill: #2c3134;
      }

      .cls-98 {
        fill: #292e31;
      }

      .cls-99 {
        fill: #fdfdfd;
      }

      .cls-100 {
        fill: #d9dbde;
      }

      .cls-101 {
        fill: #dee1e3;
      }

      .cls-102 {
        fill: #fcfdfd;
      }
    </style>
  </defs>
  <g id="_검은색_배경" data-name="검은색 배경">
    <rect class="cls-24" x="0" y="0" width="1024" height="1024"/>
  </g>
  <g id="_레이어_1" data-name="레이어 1">
    <path class="cls-26" d="M255.69,501.51c3.02-1.2,4.42,4.32,1.64,5-.37,4.8-.25,9.46.36,13.98-1.05-4.22-.57-9.71,0-13.98,1.54-3.54,8.3-6.92,8.99-1,.6,1.45-1.43,3.32-2.21,2.94-1.84-.9-1.86,6.59-1.4,17.11,2.67,30.85,2.55,62.02-.01,92.87,1.67,30.96,2.51,61.94-.37,92.86,2.5,8.03,2.47,15.94,0,23.97l1.14-2h21.76l2.08,2c-5.82-3.62-10.9-15.24-12.16-22.07l1.17-2.9c-.97-3.63-1.16-7.95,3-8.99,2.9.04,3.54,2.57,1,4,2.08,2.88,3.72,6.06,4.9,9.55,4.61,8.2,9.36,16.42,15.05,23.92-2.03-7.47-2.13-14.39-.3-20.74l2.33.25c3.19.63,4.34,7.98,2,9.99.04,1.86.38,3.52,1,4.99,1.41-1.42,2.01-.79,1,1,1.48,2.16,2.06,4.75,1.73,7.78,2.26,12.26,27.63,23.6,38.62,26.57l2.61,2.6,2.64-1.5c13.86,3.95,27.26,7.32,41.55,4.21.68-1.72.6-3.63-.22-5.71-.87-.28-.86-.62,0-1,5.07-5.59,6.4,1.33,7.29,5.92,19.08-4.57,36.63-13.91,50.92-27.42.07-6.48.65-12.96,1.75-19.46l-1.5-2.22c1.14-12.76,11.3-37.82,27.63-34.65,3.3-19.98.14-40.88-9.18-58.93l.04-4.08-3.1-1.3c-14.12-21.79-35.54-39.7-60.68-47.06-.26-1.31-.95-2.2-2.17-2.59l-2.22,1.58c-13.02-2.18-26.5-2.65-39.6-.93l-2.15-1.65c-2.81.74-14.37,2.41-14.95-.36-.11-.53-.09-1.08-.04-1.64l2.26-2.62c12.05-3.14,24.3-6.26,36.87-5.57l2.84,2.2c2.72-1.15,4.17-.97,4.37.56l2.63.44,2.94-1.21c10.76,1.93,34.74,9.31,42.88,16.07l1.15,3.13c4,.34,6,1.68,6,4,3.07-1.16,6.85,1.73,6,4.99,1.33-1.46,2.33-.46,3,3,1.22.03,2.59.07,3.61.83,15.73,11.57,24.61,41.57,29.49,59.72l-1.13,3.39.52,3.72c1.96.13,2.12,1.55.47,4.28l2.08,1.46c.14,12.61-1.59,25.34-4.71,37.55l-2.37.95,1.23,2.57c-2.92,7.69-7.17,14.78-11.47,21.75l-2.76.65c.37,1.4,1.44,1.6,2.72,1.56l119.51.42.68,1.01c-18.97,1.02-37.96,1.32-56.96.9-1.25,0,21.4-.47,24.98,1.1,2.65.32,2.54,1.24,0,2-32.67.12-64.64.45-95.93,1-1.22,6.48-9.38,14.2-15.99,15.98-7.06,5.59-18.7,12.43-26.98,15.98-6.05,6.53-18.27,8.45-27.27,9.79-21.34,3.17-38.33-.19-57.54-6.68l-1.13-2.11c-3.3-1.96-6.92-3.32-10.29-5.2-5.54-3.09-15-8.83-19.69-12.78-3.64-.65-12.16-8.7-14.02-11.64l.03-2.34c-1.28.93-1.82.42-1-1-53.47-.63-107.57-.81-162.3-.55-4.26-.01-12.83-1.43-5.57-4.45,1.45-.64,1.92-2.16,1.4-4.56l1.77-.62c-.44-2.14.17-3.41,1.82-3.82,2.2,1.08.18,5.62,1.15,6.87.36.46,1.43-.02,1.84.12,1.35-1.83,3.83-3.81,6-2,.14,2.5,2.25,3.4,6.33,2.71l40.94-.22c0-6.51.24-13,.7-19.47.12-2.86,1.17-4.19,3.14-3.99-1.28-6.33-.33-9.66,2.86-9.99l1.96.8.18,29.62,1.48.58c4.86.45,9.64,1.11,14.36,1.96.28-.87.62-.86,1,0,.89.19.85.52,0,1,1.73,1.19,3.73,1.19,6,0,7.48-.74,16.75-1.38,23.98,0,.87.28.86.62,0,1-.13.6-.28,1.07-.47,1.09-4.12.39-11.39-.32-15.52-1.09,6.99,1.12,15.28,2.13,21.13-1.67,3.52.23,6.47-.21,8.85-1.32-1.95-9.43-1.96-19.07-.03-28.95l.03-117.89-2-.69v-84.01l2-1.21Z"/>
    <path class="cls-47" d="M837.26,742.24c.87.28.86.62,0,1-54.29.59-108.59.7-162.88,0-27.71.57-55.42.74-83.15.5,27.58-.24,55.29-.07,83.15.5,58.61-.83,117.27-1,175.87,0,41.4.28,82.61,1.31,123.91,2,4.7,1.5,1.6,5.55-2.52,6.15l-11.47.84c-118.32,1.16-236.85,4.14-355.19,5.04-51.47.39-102.97-.38-154.43-.04,5.61-4.43,11-10.82,15.99-15.98,123.57-.87,247.15-.75,370.72,0Z"/>
    <path class="cls-89" d="M741.33,416.61c.2.5.36.99.4,1.5.16,2.33-15.02,2.75-18.55,2.54,1.54-.11,1.26.21-.84.95,2.9-1.1,6.51-1.42,10.81-.97,2.64-1.4,8-2.21,9.18.97,2.74,1.79,1.58,2.29-3.49,1.51l-30.11-.04c-2.13-.06-2.59,1.45-1.37,4.52,1.5-1.16,2.02-.63,1,1,2.61,2.64,3.14,4.18,2.82,8.02l12.28-.22c4.63-.29,6.69,8.75,3.89,11.18,4.05,2.12,7.6,5.43,1,4.99-.41.95-.1,2.99.93,6.1.76,27.88.77,56.14.07,84.15-.04,1.44-.34,2.88-.67,4.32s-.81,2.89-1.32,4.31c-.39,5.43-.72,10.76-1,15.98-2.28,1.78-3.01-.12-3.12-2.56,1.02-25.09,1.1-50.24.24-75.42-.44-5.71-1.05-11.35-3.54-16.25.63-5.73-.23-8.62-2.57-8.64v1l.25,1.53c-10.44,12.01-21.43,23.67-32.96,34.96l-2.27-.54-.46,1.39c.12,3.01.08,9.37-2.54,4.6l-1.03.35c.48-2.34.16-1.79-.97,1.64,2.64,1.91,2.65,4.08,0,5.99,1.06.76,2.06.43,3-1,.57.05,1.01.11,1.01.17.49,37.85.56,77.1-.01,114.71l-2.35.74-.6,72.96c.32,2.78-.36,4.52-2.04,5.22-.47-66.98-.67-134.28-.59-201.89l-1.41-.88c-1.53-.99-2.19-1.79-1.98-2.41-2.42.97-6.88.76-5.01-2.59.03-2.8,2.56-3.76,7.58-2.86l6.02-8.7,2.38.57c1.12-3.07,3.36-5.56,6.72-7.48,8-10.22,16.67-19.89,25.99-29.01l2.27.54c.26-.9.59-.88,1,0,.77-2.93.52-5.26-.75-6.99l-24.43-.11c-1.07-.72-1.67-1.94-.88-2.86l11.67-.7c1.47-.82.7-1.45-.6-2.32-25.77,1.05-51.6,1.2-77.48.43-82.97,1.24-165.96,1.61-248.93,1.02-5.18-.04-10.29-.11-15.34-1.45-1.35,3.33-4.15,2.33-3-1l343.92-.48c1.39-.76,1.66-2.6.83-5.51-2.83.06-3.5-1.61-2-4.99-3.07-.14-2.69-4.3,0-4.99h-345.74c-.09,4.35-1.09,7.68-3,9.99-.28.87-.62.86-1,0-.91-2.71-.76-7.04,0-9.99-24.88-.72-49.75-1.1-74.59-1.15l-.71-.92-27.09.06-.61,1.5h-16.72c-.52,2.22-3.83,2.23-4.36.01l-16.37-.09c-.81-3.12-4.37-1.54-5.68-.07l-11.74.65c2.14,1.47,1.52,3.49-1,4v1c-.92,5.28-.88,10.69,0,15.98,3.31.55,4.98,1.55,5,3-.4,1.59-1.44,2.62-3,3-1.61.07-2.85.56-3.73,1.48-.4,8.31-.32,13.86.73,22.49.69,1.33.68,2.69,0,4-1.55,2.25-1.7,4.9-.44,7.94-.24,9.15-.27,18.38-.08,27.68-3.02.19-3.02.75,0,1.67l-.49,12.5c-2.59,1.28-3.24,3.05-.44,3.96.9,4.18,1.88,9.98-1.64,12.85,3.67.3,3.1,9.97,2.02,13.24-3.36,1.54-2.76,4.21.59,5.11l-.36,9.5c-3.08,1.52-3.52,3.69-.15,5.45.22,5.03.62,10.14,1.21,15.32l-1.21.66c2.17.31,4.51.64,6.99,1,.19-.89.52-.85,1,0,2.59.84,5.39.82,7.99,0,.03-.64.36-.97,1-1,.06-2.86,2.32-2.73,3,0,1.18-.67,1.64-.21,1,1,3.91,1.33,3.21,17.13-1,10.99-2.83-.96-2.7-5.02,0-5.99-2.56-1.42-3.6-1.25-5,0,.43,2.79-2.78,3.49-4,1-.3,1.91-1.09,1.81-2,0l-5-1c-1.66,2-2.59,1.31-3-1-.55,4.02-.88,8.02-1,11.99-.56,3.43-2.05,4.68-4.49,3.76.24-7.61.07-15.19-.51-22.74-.74-55.27-.87-110.55,0-165.81,1.14-5.8,1.59-8.37,8.18-10.3,181.93-.93,364.67-1.56,546.41.32Z"/>
    <path class="cls-93" d="M775.3,268.77l2.17.73c-.24,2.15.81,3.2,3.16,3.17-1.18,6.81.71,9.17,5.67,7.09.33-.03.67.04,1,0l6-1c.33,0,.67-.01,1,0,10.66-2.08,1.08,6.26-4.56,5.56-10.07-2.36-13.4.38-10,8.23l.1,4.46c-1.74,2.23-1.58,3.8.47,4.73.83,9.73.82,21.03,0,30.97-1.72,1.33-2.41,3.03-2.09,5.09,3.65-2.6,6.3-.37,3.07,3.12l-.46,43.92c.59,1.24,2.09,1.51,4.48.82,2.62-2.31,15.43-5.47,18.61-5.12,1.06,1.84,2.52,1.56,4.37,1.13,5.19-2.75,15.28-5.6,19.99-2,10-2.64,11.23,3.86.52,3.87-3.75-.88-9.21.71-7.51,2.12-11.52,1.53-25.79,3.39-36.97,5.99-1.61,1.08-2.5,1.7-2.55,3.82l.05,316.65,1.49,1.2c-1.35,6.45-2.59,14.09-.84,21.24l-1.15.71c6.89.98,13.89.98,20.98,0,.78-1.19,2.28-1.24,3,0,3.09.22,6.94,2.31,2.6,4.01-2.79,1.09-16.67.16-19.59-2.01-1.58,3.64-15.43,6.25-13.38-.01-.35-156.05-.22-312.21.39-468.46Z"/>
    <path class="cls-20" d="M307.65,757.23c-75.56.52-150.84-2.94-226.37-2.96-3.57-.77-6.81-.99-10.45-1.04l-3.83-1.42c-5.29,1.77-33.01.92-34.73-.73-2.76-2.65,2.48-4.5,4.59-4.84,39.72-.23,79.3-1.6,118.91-2,33.92-1.01,68-1.01,101.92,0,12.23-1.02,24.22-1.36,35.97-1,5.03,2.86,9.66,10.34,13.99,13.98Z"/>
    <path class="cls-64" d="M848.25,270.77c1.19-.29,6.93-1.1,7.26-.2.16.44-.07,1.04-.41,1.68-.97,1.82-15.59,4.97-18.65,3.31-2.49.36-7.31,1.62-9.18,3.21l-4.06,2.61c-6.97,1.61-35.03,7.14-39.57,5.54-.81-.29-1.58-.71-2.33-1.16.79.09,1.96.36,2,.92.89,12.3,1.2,33.75,0,45.83l-2,1.19,4.59-2.27c19.67-2.57,39.32-5.34,58.95-8.32,7.78-.81,18.76-1.67,25.39,1.59,2.67.61,3.72-.41,4-3-2.02-.65-2.03-2.35,0-3-.82-1.92-.84-4.09,0-5.99-2.13-4.59-1.87-11.28,0-15.98.4-3.55,4.77-2.31,5,1,.32.35-.27,2.12,1.64,2.83,10.03,3.72,47.75-4.55,60.32-6.83,14.3-1.73,6.4,5.98-3,5.99l-2.64,2.5c-16.79,4.27-35.76,7.33-53.02,5.86-.73,14.94-.98,29.83-.78,44.68,4.33,3.81,36.38-2.86,43.01-4.35-1.18-4.51.23-11.6,5.43-11.73,4.39-1.17,5.72-.17,4,3-1.4,2.69-2.87,3.08-1.77,7.24l29.64,47.31c2.58,5.72,1.02,3.61-1.89,4.39l-2.01-.95c-.64-2.85-2.3-5.53-4.99-8.04-1.45-.65-2.98-1.38-3.97-2.66-5.02-6.55-11.4-15.64-13.02-23.31-3.05-.35-5.11-2.78-6.2-7.3-4.26,1.74-8.19,1.84-11.79.31-10.86,2.16-21.8,3.36-32.83,3.61-4.12-.68-6.33-.51-6.62.52l-.62,15.14c-.67,1.76-1.81,1.46-2.71-.18l-.62-42.57c-.88-1.68-2.4-2.51-4.55-2.49-.56,1.92-1.44,1.92-2,0l-4.88,1.96c-24.95,1.76-49.78,4.45-74.48,8.07l-2.58-1.04-5,1c2.56.35,2.56,1.35,0,3,.89.25.86.58,0,1,.47,7.66.63,15.39.47,23.19,1.58,4.81,2.09,10.07,1.55,15.78.93-.04,1.59.62,1.97,1.98l-5,1,1-47.94c-3.26-1.52-.9,4.17-3.48,2.98s-1.21-7.56-1.51-9.97l3.99.99v-30.97l-3.99,1c-1.63-3.83,1.91-4.99,2.09-6.44.73-6.1-6.66-14.66,4.25-14.16,3.08.14,6.92,2.16,9.92,1.62,1.09-.2,2.84-5.32,5.72-4,.2-1.75-2.82-.94-3.99-.99,8.41-2.63,17.3-2.93,25.98-4l5-1c.33-.03.67.02,1,0l6-1c.33,0,.67,0,1,0l6.99-1c.33,0,.67.02,1,0,1.88-.73,3.88-1.07,6-1,.33-.02.67.02,1,0Z"/>
    <path class="cls-61" d="M423.57,774.21c11.6,3.52,24.96,2.13,37.19,4.27,3.05.53,8.13.9,9.77,3.71-19.66,5.13-40.28,4.29-60.49,4.97-34.81,1.16-80.46,2.8-114.59-3.23-1.09-.19-10.08-1.38-7.77-3.71s41.6-4.05,47.54-3.97c1.26.02,2.29-1.03,2.42-1.04,4.22-.03,18.86,5.88,25.62,6.86,20.47,2.98,41.35.28,60.32-7.86Z"/>
    <path class="cls-2" d="M124.79,732.25c4.82.35,1.61,3.47,0,4.99-.15.17-.69,2.33-1,2.99,2.26-.54,4.66.89,6.6.91,51.9.65,104.57-.47,156.79.08,1.69.02,4.44-.64,5.48,1.02-83.6.57-167.21.8-250.81,0-14.06.88-30.27,1.58-44.97,0-3.46-2.96-1.98-6.88,2.45-7.04,39.96-2.24,83.46,3.16,123.01.05,3.07-.24,2.57.49,2.45-3Z"/>
    <path class="cls-61" d="M784.3,391.63l-2.07,3.4.08,317.24c7.89-2.05,16.95-1.08,24.97,0l1.77,1.47c.07,5,1,9.88,2.79,14.67l-1.56,1.84c.59,3.63-2.38,5.04-8.9,4.21l-16.47-.29-.61,1.08c-.22.94-2.2.66-3,0l-.03-343.04c.23-1.22,2.14-.37,3.03-.58Z"/>
    <path class="cls-60" d="M827.27,733.25c-.56,3.02,1.53,1.93,3.45,2,66.2,2.21,133.58-1.65,199.9,0,3.74.72,4.72,6.39-1.99,6.99-35.53,3.2-80.77-.04-117.42,0-24.64.9-49.3.76-73.94,0-123.56.06-247.17-.04-370.72,0,1.04-1.66,3.79-1,5.48-1.02,30.13-.37,60.33.02,90.45.02,1.07-1.64,6.72-1.54,7.99,0,14.64-1.47,29.33-1.47,43.97,0-.05-1.85,3.79-2.04,4,0,18.31-1.46,36.65-1.53,54.96,0,.32-2.65,1.24-2.54,2,0,3.6-1.42,6.6-1.42,8.99,0,.32-2.65,1.24-2.54,2,0,4.96-1.98,10.01-1.91,14.99,0,.04-1.64,5.18-1.59,6,0,3.3-1.96,6.69-1.96,9.99,0,0-2.92,3.33-2.79,4,0,5.96-1.96,12.02-1.96,17.99,0,2.99-.81,6.02-.82,8.99,0,2.29-1.96,4.71-1.96,6.99,0,6.3-1.96,12.69-1.96,18.99,0,5.73-1.26,11.06-1.26,15.99,0,7.97-1.96,16.01-1.96,23.98,0,.56-1.91,1.43-1.91,2,0,67.84-3.88,138.68-2.74,203.86-1.51l1.99-1.49c.01.55-.04,1.04-.3,1.33-.87.96-22.91.03-26.01-.17-.25-.02-.46-.52-.67-1.16-.87-.28-.86-.62,0-1,10.42-.87,22.13-.77,32.98,0-10.6-.78-21.69-.73-32.61-.5-.43,0-.85.66-1.26,1.5h-156.76s-1.23-2-1.23-2l-11.01,1.31c-1.92-2.58-1.2-5.61,2.02-4.31Z"/>
    <path class="cls-47" d="M751.32,424.6c.32.85,1.6,1.79,1.07,3.38l-.06,284.29c6.85-2.15,14.76-.49,21.97-1,1.04,8.21.7,16.2-1,23.97-.35,2.85-10.86,2.42-13.81,2-2.61-.53-5.34-1.2-8.18-2-.8-48.27-.79-96.57,0-144.84-1.91-.56-1.91-1.43,0-2-.85-4.64-.84-9.33,0-13.98-1.97-39.28-1.97-78.59,0-117.87-.78-.09-1.95-.34-2-.9-.33-4.15-.77-26.94,0-29.62l2-1.45Z"/>
    <path class="cls-61" d="M185.74,711.28c.55,8.09.72,16.19.5,24.32l-34.72.51c-9.33,1.01-13.25-.28-11.75-3.85.3-.91.63-.9,1,0,.16.2-.49,1.75.63,2.03,1.86.47,5.98-.09,8.36-.03,4.3.12,4.3-.22,0-1-2.32-24.17,18.16-22.82,35.97-21.98Z"/>
    <path class="cls-21" d="M567.96,318.72h85.94c1.98,0,1.98,5.99,0,5.99h-84.94c-1.41,0-4.06-4.82-1-5.99Z"/>
    <path class="cls-26" d="M775.3,268.77l-.04,464.02c.79,5.03-.16,9.54,6.42,7.3,2.25-.76-.67-2.44,6.61-2.84,2.8.44,4.34,1.64,2,4-5.32,0-10.67,0-15.99,0-4.92.12-5.25-1.88-1-5.99.72-7.99.93-15.69,1-23.97,1.19-146.34-.84-292.76-.07-439.12-.33-1.66.34-2.24,1.07-3.39Z"/>
    <path class="cls-21" d="M178.25,321.71h78.94c1.98,0,1.98,5.99,0,5.99h-78.94c-1.64,0-2.41-5.02,0-5.99Z"/>
    <path class="cls-70" d="M870.23,330.7c.27,0,2.97-1.97,5-1l1.5,46.95c1.75-5.84,1.6-11.92,1.5-17.98,13.71,3.18,26.41-1.16,39.97-2l-1.72,2.39c-7.56,1.6-15.15,3.04-22.89,3.48l-2.37-1.87c-2.7.11-4.92.84-6.65,2.2-1.12-1.74-2.55-2.18-4.05-.77l-1.28-1.42c1.91.1,2.73.67,1,1.19l-.02,40.58-.98.68c2.61,1.13,5.61,2.3,8.99,3.5.79-2.57,2.23-3.26,4-1,15.24-2.53,30.35-5.67,45.32-9.43l11.64-.56c1.48-1.82,2.81-3.81,4-5.99,4.74,3.02,7.07,2.74,6.99,8.99-.31.08-.69-.08-1,0-10.41-.13-23.01,1.04-31.76,6.29-6.33-.08-12.6.6-18.8,2.05l-1.4,1.65c-1.48.23-2.86.74-5,1-3-.93-4.33-.59-4,1-.66.04-1.34-.01-2,0-8.96,2.05-19.98-.23-21.33-10.76l-1.65-.22c-.03-.33.02-.67,0-1-.55-1.79-.99-11.7-.51-12.07,1.55-1.18,3.43,1.77,3.18,3.69,1.63-3.88.81-5.85-2.46-5.89l-.51-3.19c-2.02-.68-1.58-1.19,1.3-1.52-.55-.93-1.05-1.87-1.42-2.87s-.72-1.94-.73-2.89c-.08-13.34.16-26.7.47-40.02-.87.94-3.37-1.24-2.32-3.16Z"/>
    <path class="cls-53" d="M139.49,401.32c-2.26,1.8-12.05,1.68-15.26,1.36-13.11-1.28-11.38-22.42-2.91-24.01,3.03-.57,14.51-.35,17.2.73,7.61,3.07,6.71,17.34.97,21.92Z"/>
    <path class="cls-79" d="M589.94,337.69c-1.32-.37-2.06-2.68-1.05-4.05.66-.89,6.49-1.79,8.06-1.93,15.72-1.42,39.9-.81,55.99-.06,2.7.12,13.23.72,14.78,1.2,3.53,1.1-.15,4.84-.84,4.84h-76.94Z"/>
    <path class="cls-44" d="M268.68,336.7c1.13,1.54.06,4.99-1.5,4.99h-77.94c-1.88,0-1.88-4.99,0-4.99h79.44Z"/>
    <path class="cls-98" d="M751.32,424.6v31.96l-.5,8.54c-5.42,6.82-5.17-12.31-5.12-14.79l-1.37-1.74c-2.27,5.24-8.68,4.2-4,0l-.12-1.38c4.33-1.82,2.43-20.75,1.42-21.22-1.65-.77-30.54-1.06-32.16-.42-.06,1.26-.85,1.81-2.11,2.04-.74-1.67-1.56-2.61-1-4.99,10.79-.33,21.7.45,32.49,0,1.23-.05,3.71.76,3.49-1h-19.99c-.13-2.35-.34-1.76,1.48-2,2.99-.39,7.15.62,9.82-.02.76-.18.61-1.79,1.37-1.96,1.92-.43,4.97.94,6.31-1.02,4.49-.11,8.5,4.03,9.99,7.99Z"/>
    <path class="cls-35" d="M174.75,778.2c-.24-.25.16-3.02,0-3.99,26.22-2.21,52.75-.74,78.95,0-.14.71.2,3.99,0,3.99h-78.94Z"/>
    <path class="cls-30" d="M257.19,785.2c3.99.62,2.97,4.99,0,4.99h-70.95c-1.88,0-1.88-4.99,0-4.99h70.95Z"/>
    <path class="cls-67" d="M36.85,746.24l-3.99,3.99c2.56.36,5.92-.53,8.3.03.81.19.27,1.81,2.12,2.05,3.85.5,13.01.3,17.08-.05s7.22-4.5,10.46.97c-25.78-.38-51.62.31-77.41-.03-6.28-2.67-3.84-6.03,2.07-6.87,11.39-1.62,29.17-.02,41.37-.1Z"/>
    <path class="cls-22" d="M186.74,592.41c.36,22.94.69,45.87.99,68.81,2.05,18.33,1.23,36.76-.99,55.05-.03,6.65.02,13.34,0,19.98-14.81-.87-30.85,1.15-45.52,0-3.07-.24-2.57.49-2.45-3-1.45-1.53-.89-2.1,1-1-.12,3.49-.62,2.76,2.45,3,14.02,1.1,29.36-.83,43.52,0,.01-7.98-.03-16,0-23.98.35-93.75-.2-187.54-.07-281.3-.54-1.37.95-2.78,1.07-3.38-.02,55.25.03,110.56,0,165.81Z"/>
    <path class="cls-22" d="M941.18,293.74c5.52-1,12.14-4.19,17.97-2.51-7.41,16.63-16.57,32.36-24.97,48.46.52-4.22-2.5,1.23-4-3,3.79-12.52,9.07-24.67,15.85-36.45-3.26,1.33-5.88,1.16-7.86-.51l8.99-2c-.13-4.42-2.13-4.4-5.99-3.99Z"/>
    <path class="cls-22" d="M879.23,297.74c-.93-1.03-3.6-1.06-5-1l-1.2-.96c.44-6.05.17-12.06-.8-18.02-1.88.53-4.06.24-6.54-.85-12.34.09-24.63,1.3-36.88,3.66l-1.55-1.8-.49-4.01c2.23-.33,4.77,1.41,6.83,1.05.78-.14.25-2.06,2.11-2.14,3.29-.14,8.2,2.39,10.86,2.12.8-.08,3.6-6.54,7.66-4.02-.09-1.75-4.78-1.08-5.99-.99,9.03-2.68,29.01-3.87,30.91,8.55.86,5.61-.48,12.62.06,18.41Z"/>
    <path class="cls-18" d="M989.14,746.24c11.24.19,22.27.57,33.43,1.05,5.6.24,18.43-3.7,11.9,5.81-20.76.37-41.56-.02-62.32.14,3.05-3.24,7.91-4.2,14.56-2.88,4.95-.38,5.33-.7,2.43-4.11Z"/>
    <path class="cls-75" d="M502.51,785.2c-.66-4.25.53-4.63,4.49-5,12.86-1.2,35.98-.99,49.02-.05,1.02.07,5.22.72,5.45,1.06.56.85-.48,3.98-1.5,3.98h-57.46Z"/>
    <path class="cls-25" d="M292.66,742.24c.43.19.7.83,1,1-1.04,1.65-3.79,1-5.48,1.02-10.16.11-20.35-.02-30.49-.02-32.26-.61-65.24-.95-98.93-1-38.95,0-77.96.16-116.91,0-.87-.28-.86-.62,0-1h250.81Z"/>
    <path class="cls-12" d="M868.23,376.65c1.5-1.36,2.09-.72,1,1,5.25,4.16,6.25,6.82,3,7.99-12.04-8.42-29.82-1.42-43.97-1-1.2-.54-2.13-.78-1,0-1.12,1.84-4.16.75-6,1l-1.48-1.99,14.48-2.01c.94-3.17-3.95-1.99-6-1.99,3.79-4.6,15.9-5.94,20.98-3,1.9-.72,3.9-1.05,6-1,.98-4.03,10.86-.75,12.99,1Z"/>
    <path class="cls-96" d="M821.27,731.26c1.37-6.5,4.83-14.21,9.17-19.3,2.53-2.97,3.86-5.38,7.88-2.02.99,4.13-4.67,9.51-6.6,13.29-1.63,3.2-2.95,6.74-4.45,10.03-.32.7-1.66,1.23-.99,2.99h9.99c-2.21,4.31-11.47,4.36-15.99,4-.82-.14-1.16-.47-1-1-1.31-2.22-.95-3.49,1.4-4.4l.6-3.59Z"/>
    <path class="cls-85" d="M533.48,775.21h-44.47c-1.19,0-3.85-4.15,2.08-4.89,8.79-1.1,28.93-.96,37.95-.16,3.81.34,6.04.86,4.44,5.05Z"/>
    <path class="cls-59" d="M129.78,728.26c.89,8.27-1.45,4.86-2.8,6.18-.52.51.01,2.12-.34,2.62-.41.58-1.71.01-1.86.18l-3.01-.5c0-1.59,6.39,2.09,3.01-4.49-1.69-3.29-5-8.23-7.48-11s-8.82-6.36-8.55-9.43c.91-10.26,15.23,5.58,17.44,8.53s3.2,4.33,3.58,7.9Z"/>
    <path class="cls-6" d="M676.08,253c16.53-4.89,15.88,21.1,1.28,17.31-8.44-2.19-8.14-15.28-1.28-17.31Z"/>
    <path class="cls-2" d="M77.56,525.69c10.18-.99,13.69,16.11,2.69,17.73-13.53,2-13.81-16.65-2.69-17.73Z"/>
    <path class="cls-49" d="M817.27,730.26c.63,3.12,1.29,6.11,2,8.99.4.15.74.65,1,1-1.2.34-2.53.67-4,1-.67,0-1.33,0-2,0-4.39-.99-8.28-3.21-2.61-5.94.33-1.07.03-2.05-.39-3.05-2.06.53-1.91-.29-1-2-1.48-5.48-4.22-12.79-3-17.98.6.08,1.84-.8,3.09-.49,5.71,1.41,5.92,13.74,6.9,18.47Z"/>
    <path class="cls-51" d="M837.26,743.24c3.8-.87,9.09-.83,12.99,0v1c-58.59-.39-117.27,0-175.87,0-.87-.28-.86-.62,0-1,54.28,0,108.6,0,162.88,0Z"/>
    <path class="cls-77" d="M140.78,732.25s-.72-.04-1,0c-.89.14-.8.89-1,1-2.83,1.53-3.27,2.91-6,2,.56-3.1,3.97-23.11,5.11-23.85,1.59-1.03,6.24.21,6.66,2.5.63,3.43-4.91,13.72-3.78,18.36Z"/>
    <path class="cls-38" d="M919.19,583.42c8.81-.25,17.71.31,26.53.04,2.33-.07,4.96-1.35,6.92-1.09,3.66.49,3.88,4.55-.92,5.09-9.09,1.03-20.61-.09-30.03.95-2.84-.22-2.66-2.6-2.5-4.99Z"/>
    <path class="cls-87" d="M989.14,746.24l5.01,1c2.16,2.08-3.69,4.64-5.57,4.93-5.18.8-11.62-1.3-16.43,1.06-3.99.03-8.01-.04-11.99,0,3.98-2.32,16.16,1.18,13.99-6.99,4.98.08,10.01-.08,14.99,0Z"/>
    <path class="cls-64" d="M959.17,398.63c-17.01,4.23-34.64,7.28-51.96,9.99l-1.99-2.99c7.86.47,13.73-4.08,21.97-1.01l-1.99-1.98c3.35.36,5.79-2.26,8.54-2.96,2.58-.66,16.87-3.32,18.94-3.14,2.49.22,3.94,2.35,6.49,2.09Z"/>
    <path class="cls-72" d="M257.69,744.24c-33.85.01-68.65-.34-101.92,0l3-1c31.12,0,62.32-.4,93.44-.02,1.69.02,4.44-.64,5.48,1.02Z"/>
    <path class="cls-64" d="M873.23,399.63c3.38-5.38,2.84.46,4.24,3.26,2.18,4.37,3.68,5.54,8.76,4.74l-1.01,1.97c3.58,1.28,7.24,1.09,10.99,1.02-10.44,3.66-21.79,1.41-22.98-10.99Z"/>
    <path class="cls-88" d="M911.2,742.24c-1.04,1.66-3.79,1-5.48,1.02-18.48.23-37.01-.02-55.47-.02h-12.99v-1c24.63-.01,49.31.03,73.94,0Z"/>
    <path class="cls-44" d="M940.18,570.43c.4,1.16-.44,4-1.5,4h-16.49c-.4-1.16.44-4,1.5-4h16.49Z"/>
    <path class="cls-64" d="M869.23,377.65c1.87-2.14,4.25-.17,5,2,0,.25-.75.88-.65,1.49.56,3.33,4.47,1.28,4.64,1.5.63.78.99,12.43-3.99,9.99l-.99-5.98c.16,3.96-.26,8.03-.01,11.98-1.78-3.28-1.07-8.94-1-12.99.08-4.42,2.34-4.84-5.48-6l2.48-1.99Z"/>
    <path class="cls-64" d="M775.3,268.77c2.22-3.49,5.51-2.94,6.04,1.45.66,5.47-3.01,11.11,4.95,9.54-1.15.12-3.77,1.99-6,1l-.5-8.01-2.49,7-2.01-10.98Z"/>
    <path class="cls-72" d="M41.85,742.24v1c-12.61-.05-30.78,1.55-42.58.06-1.45-.18-1.37-.19-2.39-1.06h44.97Z"/>
    <path class="cls-92" d="M149.77,733.25l34.98.5c-11.58.71-23.38.77-34.98.5v-1Z"/>
    <path class="cls-8" d="M817.27,730.26c.26,1.25,1.79,2.92,1,5h1.99s1.01-4,1.01-4c-.53,2.51.28,5.48-2,7.99-5.04-1.94-.96-3.94-2-8.99Z"/>
    <path class="cls-64" d="M898.21,410.61c-4.21-2.35-1.92-3.58,2-2.99l1.99,1.99c-.78.09-1.87.86-4,1Z"/>
    <path class="cls-22" d="M840.26,271.77c-1.38,1.77-4.79.94-6.99,1,1.38-1.77,4.79-.94,6.99-1Z"/>
    <path class="cls-64" d="M793.29,278.76c-1.12,1.84-4.16.75-6,1,1.09-1.69,4.11-.96,6-1Z"/>
    <path class="cls-22" d="M832.26,272.77c-1.11,1.73-4.1.91-6,1,1.09-1.68,4.11-.97,6-1Z"/>
    <path class="cls-22" d="M847.25,270.77c-1.26.09-3.59.85-6,1,1.12-1.77,4.11-.85,6-1Z"/>
    <path class="cls-93" d="M828.26,384.64c-.33,0-.67,0-1,0h-3.99s0-.99,0-.99c1.55.09,4.1-.68,4.99.99Z"/>
    <path class="cls-22" d="M825.27,273.77c-.85,1.62-3.4.94-5,1,.99-.12,2.74-.81,5-1Z"/>
    <path class="cls-66" d="M404.58,575.43c3.94,1.52,4.59,5.72,1.95,12.58-.1,1.9-.2,4.1.6,5.87,1.17,2.58,16.64,22.9,18.56,24.28,11.52,6.15,23.22,11.55,35.1,16.2,2.69-4.01,5.52-7,8.48-8.97l1.26.98c11.09,19.22,14.87,43.1,10.88,64.81-4.8.73-11.33,0-14.73,3.76-6.64,7.31-10.75,21.83-13.14,31.32-.16,10.9-1.95,14.22-11.3,20.53-15.44,10.42-34.6,21.5-53.65,17.43-2.86.99-6.29.91-10.29-.25-4.86,1.05-9.09.8-12.69-.75-11.13,2.64-21.09-1.38-31.16-6.17-10.27-4.89-22.71-12.73-27.8-22.79-.34-.25-.6-.77-1-1-.76-1.23-1.1-2.89-1-4.99-1.1-3.67-1.28-6.49-2-9.99l-2.18-.74c.44-6.52-1.89-9.3-6.97-8.35-7.65,2.53-11.93,1.23-12.83-3.9-.32-1.27-.73-2.77-1-4-4.01-3.68-5.51-12.15-3-16.98-1.03-5.61-.78-11.36,0-16.98-.89-.18-.86-.52,0-1,.82-2.96.68-5.1-.44-6.42.36-5.64,8.84-36.02,13.45-36.6,3.42-.43,4.23,2.76,4.69,5.58,2.36,2.47,11.57-.9,14.47-1.97l4.79.46c3.82-3.3,8.78-5.37,14.89-6.21,7.36-7.08,14.56-14.25,21.59-21.53.32-7.32.26-14.75-.17-22.29,2.58-2.19,6.14-3.15,10.66-2.9,11.48-2.27,32.48-1.57,43.97,1Z"/>
    <path class="cls-32" d="M675.38,726.26c2.81,1.43,3.08,7.78,0,8.99-67.28,1.01-136.06,1.15-202.16.52-1.49,2.39-2.74.94-1.69-1.52,4.46-7.19,10.45-16.91,12.99-24.97l3.45,2h186.41s.99-180.8.99-180.8c.26,60.61.69,121.21,1.28,181.8l-1.28,13.98Z"/>
    <path class="cls-32" d="M636.41,513.5l-.99,54.94c1.69-.28,3.27-.78,4.99-1,2.03-.52,4.03-.86,6-1,1.48,3.74-9.15,2.74-10.99,5.49v76.41l13.48-2.01c.82-.04.72,2.03.52,2.51-.42,1.06-11.85,2.51-14,2.5v25.97h-3v-24.97l-72.95,11.49v29.97c0,1.48-3,1.48-3,0v-30.47c-21.15,1.59-42.28,3.34-63.5,3.99-1.93.06-4.01-1.01-3.45,2-.13-1.68-2-5.23-1-7.99.3,1.08,1.58,2.27,1.01,4l66.94-5v-76.91l-44.43,4.04-53.84.92c-1.89.44-1.78,7.25-1.66,9.03-.92-.91-2.18-2.25-3-3-.87-1.17-1.17-2.71-.92-4.62-1.89.29-3.58.17-5.08-.37-1.52-1.17-4.21-2.81-6-4h12.99v-55.94c-2.53,1.02-5.66-.88-6.99-1,1.62-.18,2.76-.85,3.41-2,2.74-.79,24.02-.33,27.95,0,.28.02.51.59.73,1.32,4.05.03,8.01.26,11.88.68,1.51,2.27-1.03,2.95-3.23,3.06-6.28.32-24.64,1.17-29.39-.13-.77-.21-1.44-.63-1.91-1.25-.06-.07,1.44-.65.56.81l2,.92v52.33l-2,1.19,5.18-1.26c30.32-.66,60.6-2.22,90.84-4.69l.87-51.43-1.96-2.55c-1.27-4.09,6.93-4.39,7.99-1l1.98.96-.93,52.41c23.02-2.46,45.99-5.77,68.89-9.93v-52.23s2.01-1.2,2.01-1.2c.29-3.02,1.98-3.2,4-1Z"/>
    <path class="cls-97" d="M404.58,575.43c25.88,5.78,52.84,28.23,65.95,50.94-4.75,1.01-5.08,10.35-10.4,10-7.45-.48-27.02-14.09-35.49-16.56-1.81-1.5-18.95-23.8-19.51-25.44-.77-2.25-.66-4.18-.59-6.48.12-3.73,3.65-10.6.04-12.45Z"/>
    <path class="cls-80" d="M345.62,572.43c2.4,2.08,5.74.45,8.34,1,.75.16.61,1.91,1.08,1.88,1.34-.06,3.62-1.61,5.56-.89-1.86.37-8.34,2.13-8.85,3.63-1.71,5.02,3.43,16.78-.09,22.89s-17.48,15.23-22.09,21.83c-5.23,1.81-10.63,3.08-15.93,4.59-4.22.62-13.67-2.19-10.99-6.99-.61-.59-1.22-1.48-.85-2.12,7.05-12.31,17.66-22.15,27.69-30.04l1.14-1.81c-.18-1.9,1.36-3.25,4.61-4.05,1.03-1.11,4.29-8.18,3.38-6.94-.87-.28-.86-.62,0-1,2.22-1,4.64-1.42,6.99-2Z"/>
    <path class="cls-50" d="M186.74,592.41c2.3,6.75.38,14.9,1.01,21.98l3.99-3c.76,1.99.76,4.02,0,5.99.06,1.47-.79,1.83-2,2.05,0,12.64-.01,25.28,0,37.92h2.01c.24,4.89.58,9.89,1,14.98,2.5,6.74,2.28,13.93,1.78,20.98l1.22,2c2.52-.74,5.62-1.13,7.99,0,1.21-1.57,3.13-1.55,5.77.06.27-22.17.35-44.43.23-66.78l2-1.2c2.5,7.63,3.48,15.77,2.95,24.42l2.04.55c.78,16.95.84,33.99,0,50.94l-1.93,1.47c.05,8.42.13,16.86.24,25.32l1.69,2.18c1.81,4.02-2.08,6.74-5,4-.02-.33,0-.67,0-1-.05-11.04-.39-22.02-1-32.96-2.28,2.1-7.95,1.01-8.99-2-1.55,2.33-2.91,1.63-3-1l-6,1c1.9.3,1.8,1.09,0,2-2.36,1.82-.17,11.18-1.01,11.98-.35.34-4.3-.94-4.99,2,.21-41.27-.02-82.59,0-123.86Z"/>
    <path class="cls-55" d="M453.54,726.26c-1.29,5.23,1.21,15.9.01,20.27-.24.86-11.92,10.27-13.67,11.52-5.37,3.85-12.56,7.78-18.64,10.33-4.02,1.69-16.73,6.49-20.38,6.65-3.36.15-2.38-6.85-3.38-7.72-.67-.59-3.08.22-3.89-.1-1.69.04-5.23-.88-5-3,18.64-.38,37.71-7.63,52.43-19.01,1.68-1.29,9.96-8.32,10.57-9.41,1.31-2.32,1.1-6.19,1.95-9.54Z"/>
    <path class="cls-37" d="M225.71,460.56c1.02.32,2.02.68,2.96,1.15s1.81.93,2.5,1.6c10.95,10.68,21.82,21.6,31.77,33.22,7.12.91,14.15,2.36,21.1,4.36l2.62,2.62c4.06,2.03-1.36,6.54-5,4.99-5.02-1.09-9.93-1.7-14.99-3-1.28-.33-2.8-1.83-4.99-1v11.99c-2.24-1.38-.4-5.87-1.17-8.31-.42-1.33-1.45-1.93-2.83-1.67v13.98c-1.76.22-.95-2.26-1-3.49-.17-4.15.99-12.73-1-15.49-11.67-11.65-22.83-23.82-33.97-35.96-2.09-2.19,1.35-6.27,4-4.99Z"/>
    <path class="cls-101" d="M365.61,763.22c.87.28.86.62,0,1l-1.08,1.93-12.34,1.85c-.1,1.91-.95,2.98-2.56,3.21-11.93-2.27-22.31-7.69-32.31-15.15-9-6.72-12.28-9.33-10.66-21.81,5.15,3.72,9.1,8.84,14.67,12.8,10.89,7.74,30.87,17.23,44.28,16.17Z"/>
    <path class="cls-32" d="M276.68,710.28c1.51,4.6,2.73,9.26,4.81,13.67,1.82,3.87,4.94,7.22,6.18,11.3h-24.98c-.02-7.98.03-16,0-23.97,2.22-.43,12.2.6,13,0,.16-.12-.1-1.44,0-2,1.08-.95,1.41-.38,1,1Z"/>
    <path class="cls-23" d="M365.61,764.22c9.53-.51,18.73.6,27.6,3.34l.38.65c3.55,1.3,3.78,5.83,1.01,7.5-.58.35-11.94,1.52-13.54,1.53-11.91.04-21.04-4.05-31.43-6.03.13-1.22.32-4.15,1.21-4.79,1.21-.87,12.92-2.63,14.78-2.2Z"/>
    <path class="cls-97" d="M280.67,705.28c1.39,5.62,7.19,2.19,11.45,1.96,10.95-.59,8.73,2.22,10.54,11.02-5.48,6.21,1.07,14.55.01,20.46-.24,1.32-.97,2.84-2.5,2.51s-14.95-22.38-16.41-25.56c-1.35-2.94-2.36-7.51-3.09-10.4Z"/>
    <path class="cls-55" d="M201.73,700.29l2.03,1.11.9,30.67c3.25-.38,5.27.35,6.06,2.19.65.29.64.63,0,1-3.29-.54-16.1,1.15-17.55-.94-.92-1.31-.66-28.09-.44-32.03.04-.66-.02-1.34,0-2l6-1c1.25-.02,2.22.88,3,1Z"/>
    <path class="cls-54" d="M212.72,595.41c3.59-2.24,5.25-1.57,5,2v137.85s37.97-1,37.97-1c-.19,3.98-3.51,1.19-7.29,2.03-.71.16-.76,1.56-1.5,1.86-6.24,2.53-6.35.63-11.98.39-2.6-.11-7.67,1.7-9.21-1.28h15.99v-1h-23.98c-.38,0,.11,3.7-6,1.99-.06-.66.05-1.33,0-1.99,3.91-1.33,4.55,1.18,5-4-.48-.46-.92-.95-1.22-1.51-.67-1.23-.97-21.2-.77-24.48l1.99-2.98c.09-16.96-.07-33.98,0-50.94l-1.87-3.51c1-10.43,1.29-20.58.87-30.45.85,4.47,1.11,10.69,0,14.98-2.22,3.25-3.29.99-3.22-6.76l.25-9.8-1.03-.42c-3-2.33-2.87-7.59,0-9.99h1.99c-1.05-3.64-.68-7.25-.99-10.99Z"/>
    <path class="cls-8" d="M594.44,737.25c1.97-1.49,4.03-1.5,6,0,16.31-.86,32.66-.78,48.96,0,2.65.32,2.54,1.24,0,2-1.74,1.51-4.26,1.52-6,0-2.58-.87-5.42-.85-7.99,0-3.53,1.45-12.16,1.58-14.99-1-2.28,1.96-4.94,2.3-7.99,1-13.64,1.48-27.33,1.48-40.97,0-2.97,1.47-6.02,1.47-8.99,0-22.91-.04-45.56-.72-68.49.04l-13.44-2.03c37.95-.03,75.96.01,113.91-.01Z"/>
    <path class="cls-27" d="M675.38,735.25c.89-.23,1.23.1,1,1,5.87.83,5.03,5.06-1,4.99h-2c-5.82-1.42-13.28-1.75-22.4-1l-1.59-1v-2c2.27-.53,4.57-.68,6.89-.46-19.13-.51-37.74-.36-55.85.46-2,0-4,0-6,0l-121.41-1,1.49,1.99-4.48,1.03c-1.42-1.35.75-3.83,1.48-5.01,1.04,1.65,3.79,1,5.48,1.02,66.1.7,132.27-.56,198.37-.02Z"/>
    <path class="cls-7" d="M273.68,653.34c4.14-1.47,4.09,2.52,2.87,5.77.86,1.68.9,4.09.13,7.22,0,.33,0,.67,0,1-.77,5.59-1.05,11.39,0,16.98.74,5.56,1.79,11.49,3,16.98.18,3.36-3.2,3.74-2.19,8.31l-.81.68c-.11-.34-.91-.7-1-1-2.53-8.31-3.64-15.32-4-23.97-1.19-8.64-.65-17.42,1-25.97.27-2.47.66-3.91,1-5.99Z"/>
    <path class="cls-32" d="M400.58,525.48c.87.28.86.62,0,1-2.66.07-5.34-.05-8,0l-1,39.94c1.32-.37,2.23.79,3,1.02-2.49,1-5.6-.87-6.99-1,3.02.56,1.93-1.53,2-3.45.42-12.47-.31-25.04,0-37.5,2.74-2.8,8.27-2.83,10.99,0Z"/>
    <path class="cls-1" d="M388.59,764.22c2.3.74,4.4,2.76,5,3v1c-5.67-2.08-17.92-1.02-24.47-2.04-2.12-.33-3.2-1.88-3.51-1.96v-1c10.8-.86,11.26-2.79,22.98,1Z"/>
    <path class="cls-48" d="M211.72,735.25h-1v-1c-.78-.09-1.95-.34-2-.9-.33-4.15-.77-26.94,0-29.62l2-1.45c.89.39.89.42,1.03,1.43,1.21,8.89-.26,21.98-.03,31.53Z"/>
    <path class="cls-27" d="M571.46,739.25c2.16,1.1.94,1.5-1,2h-7.99v-2c2.99,0,6,0,8.99,0Z"/>
    <path class="cls-97" d="M305.65,733.25c-.38-.22-1.8.25-2,0-.35-.43,1.28-3.8,1-4.99.44,1.46,1.78,2.79,1,4.99Z"/>
    <path class="cls-88" d="M674.38,743.24v1c-69.26,0-138.62.42-207.86-.5,69.23-.92,138.59-.49,207.86-.5Z"/>
    <path class="cls-56" d="M356.62,425.6c2.36-.84,3.89,3.23,2.22,3.5,74.27-.43,147.83-.57,220.41-.23,2.49.01,4.88.88,7.19,1.73,1.73.19,2.95.86,3.68,2h44.1s1.18,1.99,1.18,1.99q-1.14,2.31,0,0c-2.68-.97-1.38-3.72,1-4l4.46-1.28c21.86-.32,42.36-.56,61.49-.72.32,1.29,1.54,3.38,2,4.99.77,2.78.52,4.61-.73,5.51l-345.02.48c-3.02,5.99-10.03-2.82-3-3-1.01-3.54-.68-7.2,1-10.99Z"/>
    <path class="cls-99" d="M702.36,423.6c.32.33-.28,3.87,0,4.99.56,3.02-1.53,1.93-3.45,2-20.83.7-41.78.24-62.5,0-1.09.5-2.19.96-3.32,1.29-5.25,1.51-37.67,1.34-43.2-.09-1.17-.3-2.31-.73-3.44-1.2-34.17,1.5-72.78-.04-107.38.05-40.29.1-80.59-.2-120.89-.02l-1.56-5.02c-.79-.47-.43-1.18,0-2h345.74Z"/>
    <path class="cls-26" d="M194.74,423.6l11.99-1.01-2.99-1.48c.95-2.09,10.54-1.85,10.98-1.5,2.3,1.79-2.6,1.75-1.99,2.98h35.96c-.45-2.66-6.04,1.09-4.99-2.98l35.42-.07,1.09,3.13,47.96-1.11,24.44,2.04c-.28.87-.62.86-1,0-39.44.2-78.9.61-118.39,1.24l-.06,5.57c2.21.68,2.44,5.97,1.54,8.17,21.17.41,42.82.74,64.95,1,3.28.44,6.6.71,9.97.79l.02,1.21h1l-.21-1.1c10.98-.51,22.49-.98,33.18.1l.37,1.05c-4.53.03,5.1.47,4.63-1.05.02-.49.68-.82,2-1-.85-.24-.82-.57,0-1-.86-.31-.86-.64,0-1-.24-.91.09-1.24,1-1-.5-1.08-.29-2.78,1-3h1c1.56-.45,1.9,1.56,2,3-.15.45-1.73,1.27-.99,2.99,1.32.08,2.67-.09,3.99,0h1c.48,1.3,1.9.95,3,1l.78,1.24,29.44.4c68.88.25,137.52,0,205.91-.74l.7,1.09c1.07,1.27.45,1.92-1.85,1.94l-26.35-.09c-2.47-.16-4.06.22-4.77,1.14l.31-.94c26.68-.93,53.32-.91,79.95.04l.68.9c-3.03-.5-4.7-1.49-5-3l3.16-1.31,58.02.56.78-1.24c3.18.07,5.58.56,8.5.8,1.88.15,5.15-2.61,4.49,1.19-6.55,1.18-14.08.2-20.51,1-1.47.18-3.08.77-1.47,2h26.98s-2,1-2,1l-1.01,7c-.79-1.14-.68-4.41,0-5.99l-62.97-.1c-1.26,2.47-2.53,2.48-3.81.03l-86.2-.09c-1.7,2.4-3.4,2.39-5.1,0l-174.15-.17c-.86.93-1.73,1.65-2.6,1.66-33.65.25-67.42.26-100.94-.2-.64,0-1.27-.53-1.89-1.21-20.82-.43-41.4-.57-61.72-.42-.47,1.27-.88,1.01-1.25-.5-.87-.28-.86-.62,0-1l.71-1.38c-1.67-2.91-.24-4.45,4.28-4.61l2.46-2.72c-1.03-4.06-.27-6.03,1.54-9.26-2.9-.37-2.9-1.64,0-2l-.35-1.01c-8.03-.61-16.13-.71-24.18-.65-1.11.92-3.26.81-6.44-.34-.56,1.93-1.43,1.92-2,0Z"/>
    <path class="cls-99" d="M209.72,451.57l2.35-.82c.72,37.63.43,76.58-.35,114.69.17,5.1.79,9.95,1.85,14.57-.78,4.02-1.4,8.15-1.85,12.4.9.18.86.52,0,1,.92.1.86.45,0,1h-3c-2.35.61-4.75.74-7.22.4-1.24-29.4-1.32-60.81-.5-90.9.01-.46.64-.89,1.44-1.33.29-14.09.38-28.09.29-42.02-.89-.18-.85-.52,0-1-.89-.19-.85-.52,0-1-3.14-1.6-2.53-4.56,1-4.99.75-2.8,3.71-3.86,6-2Z"/>
    <path class="cls-47" d="M719.35,735.25c-.24.86-.58.83-1,0-1.02.01-1.56.62-1.72,1.83-10.92-.5-21.93-.9-33.01-1.19-1.11,1.26-1.87,1.29-2.23-.17l.99-24.45h35.98s.07-242.35.07-242.35c.58-1.34-.99-2.88-1.07-3.38-.05-.32.02-.67,0-1,2.34-1.26,3.19,1.47,2.55,8.18l1.45,2.98v99.09s-1.5,1.97-1.5,1.97v23.88c1.25,1.08,2.08,2.53,1.5,4-2.23,5.63-2.57,14.33,0,19.88.44,2.62.41,6.1-1.5,7.84.43,34.71.26,69-.5,102.89Z"/>
    <path class="cls-27" d="M667.38,500.51c.09,0-.15.73,1.48.97,1.33.19,5.3-.19,5.52.02.36.36-.36,3.42,0,4-.71-.08-1.37.25-2,1-1.23,1.36-31.3,6.14-35.97,6.99-1.59.29-3.03.83-4,1-.85.67-1.71,1.31-2.64,1.82s-1.84.99-2.79,1.16c-20.01,3.53-40.26,6.53-60.5,8.46-.96.09-1.96-.13-2.99-.38s-2.03-.64-3.02-1.07c-2.54.22-6.28-.93-7.99,1l-2.75,1.89-21.33,1.04-2.9-1.93-13.99,1c-1,2.87-3.95,2.8-5,0l-26.94.48c-3.08-.48-1.8-2.33.85-3.49,1.32-.58,27.02-.91,28.77-.59,1.94.36-2.11.7.14-2.51,4.79.09,9.52-.2,14.17-.89,1.34-.65,2.69-1.26,4.08-1.74s2.73-.91,4.11-1.08c31.08-3.81,62.03-7.68,93.08-11.75,1.39-.18,2.82-.12,4.25-.03s2.93.33,4.39.61c.83-1.37,2.83-1.7,6-1,7.42-1.29,21.46-5.17,27.98-4.99Z"/>
    <path class="cls-52" d="M717.35,464.55c-.13-2.7.14-2.04,2.99-2,.52.49-.58,8.28.15,10.38.48,1.37,2.63,1.27,2.87,2.31,5.23,22.53,1.69,61.79,1.96,86.72.02,1.69-.64,4.44,1.02,5.48,2.47,8.03,2.49,15.94,0,23.97-.74.63-5.16.34-5.49-.41.36-5.41.19-10.6-.5-15.57.59,4.73.75,9.57.5,14.53l1.5.61c-.45,3.57-1.12,7.18-2,10.83l.22-1.01c-.14-2.7,1.34-11.82,3.78-4.98,1.01,2.2,1.01,17.3.34,18.11-3.35,4-4.79-5.38-4.33-8.12l.49,6.88c2.2.19,2.2,2.91,0,3.13l-.5,8.96.58-10.42,3.42-.28c-.11,6.1.26,12.08,1.1,17.95l-2.1,1.73c1.88.77,2.21,3.1,1,6.99-.32,2.65-1.24,2.54-2,0-1.44.7-1.35-3.56-1.35-3.35-.6,18.83-.48,37.26.35,55.29,2.97,2.34,2.85,7.58,0,9.99-.48,10.4-.23,20.75.73,31.05-.02,2.08-.85,3.11-2.73,1.91v-269.21s-2-1.48-2-1.48Z"/>
    <path class="cls-11" d="M202.73,460.56v133.84c1.99.02,4,0,6,0-.3.36-.63.7-1,1-2.59.83-5.41.86-7.99,0-.33.02-.67,0-1,0-3.33.13-4.99-.54-5-2,.53-28.47.77-57.21.72-86.22.49-2.61,2.59-5.19,5.28-3.68-.75-1.51-.49-2.36,1.07-2.5l-.15-32.21c.26-2.85.96-5.6,2.08-8.24Z"/>
    <path class="cls-36" d="M206.73,600.4c.71-1.92,3.6-1.16,5,0,.35,1.42-.06,4.23,0,5.99.12,3.31-.08,6.67,0,9.99,1.64,2.15,1.09,8.44,0,10.99v67.42c-.94,5.12-5.52.8-7.99.51-.6-.12-.99-.34-1-1-3.08-2.43-3.25-8.7,0-10.99l-1.62-6.46c.26-16.79.39-33.55.4-50.27l1.23-3.21c-3.2-5.49-3.05-13.43,0-18.98-2.86-.06-2.73-2.32,0-3,.4,0,2.57-.86,4-1Z"/>
    <path class="cls-74" d="M704.36,440.58c1.78,2.7.98,1.9-1.48,2-20.09.81-40.37-.6-60.47,0-.54,1.03-1.32,1.38-2.37,1.39-12.69.08-25.51.11-38.21.08-1.11,0-1.88-.32-2.38-1.47l-174.41-.05c-19.96,0-40.75.87-60.92.05-2.47-.1-3.26.7-1.48-2,112.51,4.77,228.68-2.56,341.75,0Z"/>
    <path class="cls-4" d="M195.74,600.4l5,1c.66.03,1.33,0,2,0v3l-1.2,1.91c-7.55.15-4.6,10.09-2.03,14.59l-.76,2.47,2,.93v55.31c1.19.73,1.86,1.97,2,3.7-.24,3.55-.12,7.14,0,10.99-2.28.22-4.61.55-6.99,1-1-.03-2.01.04-3,0-.04-7.64.06-15.34,0-22.98-.91-24.26-.81-48.66,0-72.92,1.63-.43,2.34.91,3,1Z"/>
    <path class="cls-65" d="M728.34,452.57c1.92.09,2.92.43,3,1,3.43-2.45,4.09,3.15,4.15,6.24-1.13,15.62-1.73,31.6-1.81,47.95l-1.33,3.75c-.18,19.1-.35,38.26-.49,57.48-5.25,8.52-5.73-.94-5.1-9.54l.59-7.99c-.16-30.15,1.21-61.46.04-91.44-.09-2.38-1.06-4.55-1.06-6.94-.03-.95,1.33-.43,2.01-.51Z"/>
    <path class="cls-26" d="M676.38,708.28l1.01-121.86,3.03,1.67c.22,12.61-.4,25.29-.11,37.9.04,1.8,1.07,3.2,1.07,3.38.53,26.93-.39,53.97-.01,80.9l-1-6.98-1,7h-2.98s0-2.01,0-2.01Z"/>
    <path class="cls-5" d="M708.35,428.59c7.58-1.18,16.17-1.68,24.32-.91,2.52.24,4.27,1.39,5.54,3.6,1.76,3.07,1.99,14.35.12,17.28,1.35,1.44.76,2.03-1,1l-4.9.8c-1.4.15-3.1-.78-5.09-2.79-1.01-2.16-1.26-8.3-2.14-8.85-1.66-1.05-15.15.6-15.85-.13-.35-.36.06-8.17-.99-9.99Z"/>
    <path class="cls-102" d="M707.35,427.59c.43-1.53-1.38-3.81,1.47-4,4.49-.3,31.25-.59,33.51.5,1.14.55,1.81,1.79,1.97,3.03-1.74,7.76,4.9,17.99-3.97,21.45-.57,2.57-1.16,2.42-2,0-2.35-4.8,1.41-16.06-4.02-18.46-2.76-1.22-14.59-.64-18.5-.57-4.65.08-4.12,2.64-7.45-.95-.3-.32-.89-.75-1-1Z"/>
    <path class="cls-74" d="M704.36,433.59c.26.91,2.45,5.72.42,6.01l-345.16-.02c-.33-.02-.67.02-1,0l345.17-.98.58-5.01Z"/>
    <path class="cls-32" d="M718.35,447.57c.94,1.02.83,4.51,0,5.99l-34.97,35.96c-1.14-5.89,3.88-5.14,6.62-7.95,1.28-1.32.69-3.19,1.86-4.95,2.87-4.32,12.28-11.94,13.95-16.1.33-.82,2.64-9.9,2.54-10.43-.52-2.79-46.54,1.03-51.96-1.52l-2,3c-1.56-1.08-.43-4.08,1.6-4.09l62.36.1Z"/>
    <path class="cls-95" d="M223.71,439.58l-4,2.99c7.82,2.01,15.42-.86,22.98,1.5-6.93,3.16-16.29.89-23.98,1.5-1.54,5.05-.45,11.14,5,12.99,2.6-.89,3.06-.56,2,2l-4,4.99c-.56-.61-1.3-1.24-2-2-.6.34-1.26.34-2,0-1.54-2.59-2.87-3.59-4-3,.9,1.12,1.34,2.17,0,3-.28.87-.62.86-1,0,.58-8.73-.41-12.72-3-11.99-1.72.86-4.1,1.8-6,2-1.24,3.4-7.92,2.9-7.99-1-.86-.25-.84-.59,0-1-.85-.32-.85-.65,0-1,.09-.8-.2-2.8,0-3,.18-.18,2.21.05,3,0l.94-1.32c2.74.52,5.42.63,8.05.32-.05-1.86,1.64-3.88,3-4.99-2.81-6.39,11.35-6.37,12.99-2Z"/>
    <path class="cls-31" d="M739.33,571.43l1.29,2.11c-1.68,5.18-1.82,10.59-.44,16.22l-1.85,1.65c.87.33.87.67,0,1-1.52,3.3-11.24,2.68-11.99-1,.01-7.98-.02-16,0-23.97.01-5.08-.85-11.52,1-15.98.04,6.64-.03,13.33.01,19.97,1.39-.65,3.72-4.23,3.97-5.51,2.16-11.08-.16-36.06,0-48.94.02-1.69-.64-4.44,1.02-5.48,2.06,18.65,2.71,37.39,1.96,56.2,1.83,1.12,3.51,2.37,5.04,3.73Z"/>
    <path class="cls-22" d="M192.74,478.54c.27,38.81.61,77.1,1,114.87,1.69,1.62,3.72.38,5,2-3.61.07-3.43,1.8-6.99-1v-15.98l-3.99,1.99c.4-2.1-.58-5.64-.07-7.38.32-1.11,2.84-.46,3.62-1.53,1.08-1.49.21-5.12.44-7.06l-3.98.99c.39-2.11-.57-5.69-.08-7.43.32-1.12,2.39.05,3.11-1.2.66-1.15,1.43-8.82.95-9.34l-3.98.99c.24-1.69-.39-3.92-.08-5.44.24-1.2,3.41,1.17,3.68-4.2.35-6.99-3.5-5.02-3.68-5.9-.36-1.76.37-4.47.08-6.44l2.98,1,1-10.99-3.98.99v-6.49c2.41-2.12,2.2,2.6,3.98,2.49-.62-4.13.9-10.57,0-14.31-.19-.78-1.98-.68-2.04-1.22-.2-1.7,2.87-6.65,2.13-12-.25-1.82-3.03-1.08-2.08-6.92.14-.87,2.23.5,3-.5Z"/>
    <path class="cls-39" d="M195.74,451.57c-.08.35.13.9,0,1-1.76,17.04-1.78,34.34-.05,51.89l-1.06,2.8c-.08,28.96-.38,57.68-.88,86.15-.8-.77-1.21-1.09-1.05-2.39.25-37.49-.14-75,.05-112.48,0-1.33,0-2.66,0-4-1.01-7.81-1.31-15.65-.88-23.52.55-.66,3.28-.25,3.88.55Z"/>
    <path class="cls-14" d="M196.73,423.6c4.98-.11,9.71,2.97,5.41,7.18l.59,13.8c.87.28.86.62,0,1-1.39,1.58-7.48.25-8.53-1.13.27-5.65.11-11.27-.46-16.85.15-1.44.08-2.73,1-4,.66-.05,1.35.07,2,0Z"/>
    <path class="cls-22" d="M217.72,597.4c-1.16-3.08-2.72-.94-5-2-.02-.27-.98-.76-1-1-.02-.33.02-.67,0-1,.1-1.74,2.9-2.36,3.29-1.24.3.88-2.6.71-3.29.24-.44-8.85.09-18.07,0-26.97.28-.87.62-.86,1,0l1,4c1.54-1.39,2.12-3.71,1.73-6.95l2.27-.04c0,11.64,0,23.32,0,34.96Z"/>
    <rect class="cls-26" x="677.38" y="552.45" width="3" height="30.97"/>
    <polygon class="cls-26" points="680.37 522.49 680.37 549.46 677.38 549.46 677.38 521.49 680.37 522.49"/>
    <path class="cls-22" d="M192.74,672.32c-1.85-4.11-.99-10.24-1-14.98-2-13.3-1.99-26.66,0-39.96,0-2-.01-4,0-5.99.01-2.65-1.34-11.37,1-11.99.13,24.29-.17,48.63,0,72.92Z"/>
    <path class="cls-22" d="M195.74,450.57c-.04.34.07.71,0,1-3.49-.12-2.76-.62-3,2.45-.51,6.47.05,13.91,0,20.53l-1.01-9-1.98,1.01c.21-2-.42-4.43.01-6.31.19-.8,1.89-.31,2.07-2.13.31-3-.92-5.65-1.09-8.54l4.99,1Z"/>
    <path class="cls-68" d="M193.74,427.59c2.45,2.33.06,16.06,1.01,16.97,2.66,0,5.41.41,7.99,1.01,1.69-2.15,3.96-1.11,5,1-3.89,1.35-5.22.75-8.99,1-2.06-1.56-3.38-.61-5-3-.89-5.27-.92-10.71,0-15.98.02-.33-.04-.67,0-1Z"/>
    <path class="cls-74" d="M356.62,425.6c-.24,4.39.44,6.58-1,10.99-1.81-.95-1.78-1.22-2-3-.23-1.89.16-4.05.01-5.99l1.98,1.99c.16-1.99-.79-4.74,1.01-5.99-.02.66.04,1.33,0,2Z"/>
    <path class="cls-98" d="M737.33,449.57c-.38,2.06-2.38,3.39-6,4-.55-.31-2.48.45-3-1,.65-.08,1.34.06,1.99,0,.36-2.19-2.06-3-2.99-4.99,3.41,1.06,6.22,2.67,9.99,2Z"/>
    <path class="cls-74" d="M352.62,433.59c-.14,1.85-.09,1.56-1,3-1.96,1.01-2.36-.45-1.2-4.4-1.83-.91-.83-1.21,1.2-1.59-2.79-.87-2.95-5.22,0-5.99-.87-.28-.86-.62,0-1h1c-.18,3.29.25,6.71,0,9.99Z"/>
    <path class="cls-14" d="M193.74,444.58c-1.87-2.76-1.49-12.92,0-15.98-.32,5.28.23,10.69,0,15.98Z"/>
    <path class="cls-26" d="M680.37,514.5c.4,2.61-.41,4.43-2.5,5.99-.99-1.06-.45-3.51-.49-4.99l3-1Z"/>
    <path class="cls-22" d="M211.72,600.4c-1.65.11-3.36-.16-5,0-1.04-3.29,4.35-2.62,5,0Z"/>
    <path class="cls-22" d="M207.73,595.41c-1.92,1.53-6.15,1.81-7.99,0,2.65-.15,5.34.1,7.99,0Z"/>
    <path class="cls-26" d="M679.38,507.51c-.29.34.56,2.69-2,2,.06-1.33-.05-2.67.01-3.99h.98s1.01,1.99,1.01,1.99Z"/>
    <path class="cls-30" d="M719.35,453.57c-.06.14-.87-.15-1,0v-5.99h1c.13.27.16,5.58,0,5.99Z"/>
    <path class="cls-76" d="M200.73,601.4l-5-1c1.58.21,4.73.98,5,1Z"/>
    <path class="cls-8" d="M811.28,732.25c.26.81,1.53,1.4,1.07,3.42-.24,1.06-2.5-.1-2.06,1.56l3.99,4.01c-7.98,0-16,0-23.98,0l-2-4c6.94-.38,14.03.29,20.98-.01l-3.99-1.99c1.81-.82,3.81-1.82,6-3Z"/>
    <path class="cls-86" d="M784.3,735.25c-4.37-3.56-.94-12.77-1.99-17.97l1.62,11.66-.62,4.31c6.88-.94,17.08,1.3,23.49.01,1.89-.38,2.39-1.73,3.49-3.01.18.68.79,1.33,1,2,.95,4.47-2.29,2.87-6,3-1,.03-2-.02-3,0-6.06.94-12.05.94-17.99,0Z"/>
    <path class="cls-8" d="M784.3,735.25c5.98,0,12.01.09,17.99,0-4.92,1.32-13.49,1.67-18.54,1.04-.98-.12-2.34.34-2.44-1.04h3Z"/>
    <path class="cls-62" d="M872.23,277.76c1.22,15.47,1.2,30.9-.07,46.28l-.93.66h-1c-6.76.42-13.7-.45-20.48,0-22.88,1.54-45.54,8.01-68.46,8.98v-47.95c15.49-1.01,30.66-4.92,45.97-6.99,9.44-1.28,31.08-5.09,39.23-3.75,1.75.29,4.68,1.26,5.74,2.76Z"/>
    <path class="cls-57" d="M938.18,299.74c3.38-.58,6.3-1.22,9.62-1.89,1.58-.32,1.52-.21,1.36,1.37-6.58,12.35-12.79,24.93-18.97,37.48-.97,1.96-3.35,4.24-3.82,6.75-.43,2.28,1.05,6,.83,6.23-1.14,1.2-28.97,5.78-32.49,5.99-3.1.18-12.25.23-14.5-1.46-2.75-2.07,1.6-42.29.03-48.46,19.24,3.28,38.98-2.75,57.95-6Z"/>
    <path class="cls-3" d="M874.23,296.74c.15,5.29.06,10.69,0,15.98-.82,1.91-.8,4.08,0,5.99-.03,1,.02,2,0,3-.1,2.88-1.1,3.88-3,3l1-46.95c2.84,4.02,1.86,13.97,2,18.98Z"/>
    <path class="cls-22" d="M874.23,321.71c-.03,1.33.04,2.67,0,4l-3.99-1c.33-.02.68.05,1,0,2.73-.41,1.52-.55,3-3Z"/>
    <path class="cls-22" d="M874.23,318.72c-1.61-.95-1.64-4.99,0-5.99-.02,1.99.06,4,0,5.99Z"/>
    <path class="cls-8" d="M836.26,736.25h188.37s3.49,1,3.49,1h-32.98v1h26.98c.09,0-.27,1.36.19,1.75.97.82,5.05-.55,3.31,1.25-7.9.71-16.29-.69-23.98-.68-61.51.04-123.61.66-185.36.68.7-1.52,2.68-.94,4-1,6.76-.33,9.39-3.11,15.99-4Z"/>
    <path class="cls-26" d="M635.41,739.25c2.61-.86,5.38-.87,7.99,0,2,.02,4-.01,6,0,6.83.04,13.64-.49,20.52.02,1.91.14,4.02-1.13,3.46,1.98-18.3,0-36.65,0-54.96,0-2.04-.91-1.38-1.91,2-3,4.37,0,10.29.99,14.99,1Z"/>
    <path class="cls-8" d="M773.31,735.25c-.17,1.84,2.89,1.71-2,4.98l3,1.01c-6.32,0-12.67,0-18.99,0-2.98-.76-4.32-2.75-4-5.99h21.98Z"/>
    <path class="cls-8" d="M736.33,734.25c.18-.9.52-.86,1,0,.87.28.86.62,0,1-2.1.95.63.62,2,0,.49-.83,1.21-.6,2,0,8.57,2.47,2.65,4.59-3.04,4.41l1.04.58c.87.28.86.62,0,1-5.98,0-12,0-17.99,0-4.03-2.06,1.76-5.28,4-5.99.42-2.51,1.06-2.32,2,0,.1-3.43,8.04-4.17,8.99-1Z"/>
    <path class="cls-26" d="M612.43,739.25c3.13-.48,5.8.48,2,2-14.64,0-29.33,0-43.97,0l1-2c13.64.02,27.33,0,40.97,0Z"/>
    <path class="cls-26" d="M751.32,735.25c.48,1.78,3.28.83,4.99,1.01.16,1.62-2.19,1.15-2.99,2.49-.31.51,2.95.39,2,2.49-2.33,0-4.67,0-6.99,0-3.07-.39-6.06-.73-8.99-1-1.11-.05-3.26.69-2.99-.99l7.99-1.02-3-2.99c2.02-1.23,3.02-1.23,3,0,.1-.91.45-.86,1,0,.59-2.43,1.19-3.7,3.79-2.47.08,2.67,1.63,5.36,1.21,2.97-2.61-1.54-2.51-9.66-2-13.16,2.39-1.33,2.28-7.98,0-9.48v-65.01c.69-2.37,1.35-4.95,2-7.74-.29,6.12-1.62,8.06-4,5.82-.41-.64-.73-13.51.72-14.75-1.59-3.3-1.47-10.54,1.43-12.71v-3.13c-2.95-2.8-2.77-12.72-.02-16.08-1.19-5.74-.23-8.77,2.87-9.1.04,48.26-.03,96.58,0,144.84Z"/>
    <path class="cls-27" d="M724.34,721.27c.64,2.87.97,5.86,1,8.99,1.59.66,1.02,3.88,0,4.99-1.88.96-3.62,3.89-4,5.99h-4c-.5-2.39-1.72-5.03,1-5.99.35.06.93-.11,1,0,1.13.45,2.51,0,2.66-1.09-.55-5.07-.77-10.03-.66-14.89.99-2.23,1.99-1.56,3,2Z"/>
    <path class="cls-26" d="M693.37,738.25c1.72.06,5.12.88,7.99,1,2.65.32,2.54,1.24,0,2-4.98,0-10,0-14.99,0-3.68-3.62,4.23-4.16,6.99-3Z"/>
    <path class="cls-27" d="M693.37,737.25v1c-2.43-.09-7.63-.26-6.99,3h-2c.11-1.52-.29-2.69-1-4,3.27-.78,6.72-.77,9.99,0Z"/>
    <path class="cls-27" d="M620.42,738.25l-2,3h-4c.24-2.12.12-2.24-2-2,1.35,0,5.07-1,7.99-1Z"/>
    <path class="cls-27" d="M701.36,739.25c2.81.12,6.85-1.18,6,2h-6v-2Z"/>
    <path class="cls-27" d="M748.32,741.24c-2.99,0-6,0-8.99,0v-1c2.86.12,6.98-.89,8.99,1Z"/>
    <path class="cls-46" d="M744.33,448.57c.98-.1,2.01.05,2.99,0-.32,2.15-1.3,12.81-.54,13.98.35.55,3.41,2.15,3.54,1.99l1.01-7.99v117.87c-.85,4.6-.87,9.38,0,13.98,0,.67,0,1.33,0,2-2.3,2.72-.33,7.2-1.02,10.29-.19.84-1.69.82-1.98,1.39-1.74,3.48-.81,7.55-1,11.29,4.07,1.05.33-4.53,2.98-4.98-.35,3.33.49,7.33.1,10.52-.28,2.24-2.41,1.57-2.93,3.07-1.62,4.66,1.86,8.62,1.69,9.7-.18,1.15-2.36,2.45-2.58,4.29-.27,2.24,1.61,6.52.73,9.37,4.07,1.05.32-4.54,2.99-4.99v95.39c0,.22,1.49,1.11,1,1.49-2.56.9-2.46-2.48-3.12-2.91-.89-.58-2.28.88-2.88.92-.87-4.8-.84-11.08,0-15.98,2.79-1.5,2.81-2.4,0-4-.15-27.12-.63-54.24-1.42-81.33l-1.58.42c.78,2.5-.17,2.86-2,1-3.06,1.79-4.72,1.79-5,0-1.81.42-3.47.42-5,0-1.33.57-3.05,1.18-4,0-.33,3.45-.67,6.78-1,9.99-2.87.77-2.95-3.59-1-4.99-.27-3.1-1.12-3.74-1-6.99,1.26-2.53,2.7-2.31,5-1l.46-1.21c3.53.05,7.1.09,10.54-.78h1c-.96-2.7,2.27-4.17,4-2,1.25-10.71,1.2-22.38,0-32.96-.13,2.74-2.52,3.44-4,1-1.02.45-2.3.92-3,0-2.15-1.59-1.37-3.03,1-4-.02-.33.03-.67,0-1,.89-2.52,4.82-3.89,6-1l.54-135.24c-1.45-1.91-1.63-3.45-.54-4.6-1.58.15-1.36-1.35,0-2Z"/>
    <path class="cls-26" d="M751.32,588.41c-1.66-3.35-1.69-10.43,0-13.98,0,4.65,0,9.33,0,13.98Z"/>
    <rect class="cls-82" x="121.79" y="385.64" width="14.99" height="9.99"/>
    <path class="cls-73" d="M740.33,448.57c.13.12-.23,3.84,1.98,1.98.44-.37-1.16-1.65,2.01-1.98.11.62-.16,1.48,0,2,.74,2.6-.81,3.12-3,2,1.45,4.22,1.54,9.26.27,15.15.95,34.51,1,68.86.14,103.04l-2.41.68c-2.71.12-6.43-.31-7-3.5.03-18.81-.05-37.64,0-56.44.03-12.47-.29-25.02-.05-37.5.09-4.8,3.19-18.14-.95-20.44-.26-3.01,3.3-3.11,6-4,.4-.13.78-.95,1-1,.45-.1,1.92-.07,2,0Z"/>
    <path class="cls-34" d="M683.12,264.52c-2.85,2.79-9.75.18-7.27-4.75,2.81-5.57,11.6.51,7.27,4.75Z"/>
    <path class="cls-90" d="M74.98,531.63c4.88-3.07,11.36,4.64,4.81,7.39-3.95,1.66-7.96-5.4-4.81-7.39Z"/>
    <path class="cls-97" d="M358.61,733.25c.54-.55.04-2.03-1.5-4.43,3.96-3.69,4.26-6.83.92-9.45.33-7.25,2.31-15.36,4.46-22.5-2.32-1.31-3.29-3.62-1.07-5.44,8.72-2.63,11.68-11.35,10.67-19.75-17.31-19.13,7.78-16.21,19.99-12.56,1.05,9.44,3.15,11.55,6.31,6.32l2.18.87c3.97,4.92,16.67,23.15,17.05,28.48s-8.42,20.47-11.64,25.37c-2.84,4.32-10.34,14.52-15.13,15.84-8.56,2.36-24.23,1.05-32.25-2.77Z"/>
    <path class="cls-15" d="M366.61,656.34c5.93-1.07,12.05-.99,17.99,0,.33.02.67-.03,1,0l5,1c6.14,2.17,6.28,4.39,9.99,8.99-2.19,1.05-2.37,4.68-5.32,3.88-6.03-1.63-4.21-10.44-4.67-10.88-.27-.25-3.21.31-4.44-.04-1.84-.53-2.84-1.7-5.01-2-6.43-.9-14.97-1.47-12.36,7.33.86,2.9,5.67,3.67,5.57,8.9-.18,9.44-3.1,17.14-12.75,19.79.42,1.91,3.42,1.34,3.11,3.48-3.11,6.49-2.51,13.93-5.14,20.05-.41,3.02,3.41,3.76,3.09,6.87-.22,2.16-3.12,3.49-3.62,5.45-.58,2.27,3.77,4.51-.43,4.09-5.4-2.57-13.52-14.16-16.79-19.67-2.78-4.67-8.64-15.49-8.14-20.66.63-6.6,17.26-32.44,23.19-34.83,1.8-.73,7.55-1.57,9.74-1.75Z"/>
    <path class="cls-46" d="M338.63,575.43l1.99.49c-1.93,1.72-2.61,6.26-3.93,7.81-1.15,1.34-4.52,1.75-6.05,2.69l-.3,1.74c-8.05,5.99-15.47,12.58-22.24,19.98-2.19,2.39-10.12,11.53-5.44,12.24,3.05,4.86,6.85,4.12,10.99,6.99-4.63,1.32-16.53,7.11-20.75,2.77-.81-.83-1.07-6.81-3.21-4.76-.7.67-6.98,15.59-7.72,17.77l-5.29,23.18c-.04-1.99.04-4-.01-5.99l-2.98,2.99c-.71-4.05,4.43-6.68,0-9.98,1.31-7.96,3.7-14.35,6-21.98l-.8-2.72c5.25-9.45,11.02-18.73,17.96-27.06l2.83-.19c.38-2.97,1.38-3.97,3-3,.09-1.5.25-2.6,1.08-3.79,4.02-5.76,22.37-18.06,29.89-18.18-.5-2.5,3.07-1.94,5-1Z"/>
    <path class="cls-91" d="M335.66,631.4c.99-.68,3.33.08,4.45.99.93.76,11.17,14.92,11.73,16.25.64,1.54,1.51,2.85-.17,4.25-1.76,1-3.01.69-4.52-.57s-10.67-14.62-11.45-16.62c-.44-1.13-.9-3.7-.03-4.3Z"/>
    <path class="cls-16" d="M426.22,695.46c3.14-.99,25.23.94,24.32,5.31-.61,2.9-18.09.86-21.24.28-3.62-.68-7.54-4.19-3.08-5.59Z"/>
    <path class="cls-97" d="M384.59,656.34c-5.36-.28-12.72-.44-17.99,0,5-1.67,12.91-1.68,17.99,0Z"/>
    <path class="cls-46" d="M276.68,684.31c-.04-.33-.88-1.54-1.07-3.38-.38-3.67-.41-10.14,1.07-13.6.08,5.65-.06,11.33,0,16.98Z"/>
    <path class="cls-97" d="M390.59,657.34c-1.6-.06-4.14.62-5-1,2.58.2,2.56.14,5,1Z"/>
    <path class="cls-81" d="M646.4,566.44c-1.87,1.4-4.04.75-6,1l5.48-2c.67.1.4.72.51,1Z"/>
    <path class="cls-54" d="M213.72,460.56c1.55-1.32,2.6-.12,3.14,3.61l.85-.61c-.07-3.71.53-1.59,2,0-1.65,1.04-1,3.79-1.02,5.48-.18,16.81.02,33.66.02,50.46-1.65,1.04-1,3.79-1.02,5.48-.13,12.48.02,25,.02,37.47-2.78,2.87,1.6,8.18-4,6.99-.61-21.06-.78-42.13-.49-63.23,2.76-2.49,4.26-.39,4.49,6.29-.11-2.65-.77-4.64-1.96-5.96l-.04-22.25c-.64-4.68.03-8.6,2-11.75-2.6,7.41-3.95,2.9-4.62-2.6-.23-1.91-.14-4.76.62-6.39.03-.99-.09-2.02,0-3Z"/>
    <path class="cls-26" d="M681.37,715.27c.11,3.13.44,20.03-1.01,20.99-.58.38-3.42-1.9-3.98,0-.36-.31-.74-.58-1-1,.18-2.96-.25-6.06,0-8.99.17-1.98.68-5.75,1-7.99,1.16-1.56,2.83-2.56,5-3Z"/>
    <path class="cls-42" d="M523.49,520.49c-.17.02-1.13.89-2.42,1.04-2.51.29-5.45-.13-8.09-.04-1.21.04-3.72-.75-3.48.99,5.27.41,11.35.4,16.52.97,1.5.16,3.08.22,3.46,2.03l-49.96,1.02c-.23,1.74,2.27.94,3.48.99,7.8.32,15.69-.23,23.49,0-3.19,3.32-11.46,3.9-14.99,1h-43.97c-4.48-.39-9.76-.76-13.99-1,10.99-.63,8.98-.92-6.03-.87-5.59-.8-11.62-1.3-16.95-.13-3.32,0-6.68-.08-9.99,0v-1l3.36-2.19c10.51-1.21,21.09-2.33,31.61-1.81,6.83-.94,14.15-.79,20.98,0,1.22-.54,2.44-1.03,3.71-1.39s2.48-.68,3.72-.71c17.28-.39,34.73-.53,52.01-.54,2.58,0,5.08.83,7.51,1.64Z"/>
    <path class="cls-8" d="M410.58,526.48c1.04-1.66,3.79-1,5.48-1.02,11.59-.14,22.88,1.5,34.48,1.03.23,1.74-2.27.94-3.48.99-4.49.18-9.02-.13-13.5,0-1.99-.11-4.01.09-6,0l-13.99-1c-1,0-2,0-3,0Z"/>
    <path class="cls-42" d="M427.56,527.48c-4.48-.2-10.17.99-13.99-1,4.41.01,10.22-.85,13.99,1Z"/>
    <path class="cls-8" d="M295.66,504.51c2.92-.38,4.58-.05,5,1l4.68-.49c38.56,7.04,77.18,10.32,116.22,13.24,3.1.23,6.08,1.2,9,2.23,1.71.36,3.37.7,5,1-11.35.66-23.3,3.58-34.97,4-3.55.13-7.45.18-10.99,0-26.9-1.37-61.21-7.02-87.93-11.99-1.05,2.38-2.39,2.05-4-1-5.35-1.03-10.7-2.85-15.99-4h3c-1.93-3.01,2.64-2.2,2-4.99,1.14-2.78,8.79-2.16,8.99,1Z"/>
    <path class="cls-32" d="M301.66,513.5l.05,52.9,36.93,8.03v1c-1.58.18-3.56.37-5,1l-5.55.83-24.03-5.26c-.51,7.6-.95,15.3-.06,22.89l-1.34,3.52c-.91.91-2.25,2.18-3,3l-2.03-.83c-.14-10.3-.62-20.5-1.43-30.6-16.92-.93-16.69-12.31.13-6.84.59-15.95.68-31.91.26-47.88l1.07-1.76v-1c1.47.28,2.85.79,4,1Z"/>
    <path class="cls-9" d="M413.58,592.42c2.7-2.76,29.84,21.74,29.95,24.47.03.64-1.44,1.82-2.99,1.02-1.9-.98-8.78-8.35-11.5-10.48-3.26-2.54-11.98-7.7-14-9.98-1.06-1.2-2.35-4.12-1.46-5.02Z"/>
    <path class="cls-46" d="M271.68,685.31c-2.08-8.13-1.31-18.01,1-25.97-.93,8.54-1.35,17.37-1,25.97Z"/>
    <path class="cls-71" d="M330.63,586.42c1.6,2.2,1,2.3-.63,3.85-6.56,6.25-14.11,11.43-20.01,18.46-2.43,2.9-5.22,9.38-7.34,11.65-.94,1.01-2.67,1.11-3.99.99-2.2-2.23,6.27-12.4,8.02-14.45,6.38-7.5,15.56-15.36,23.96-20.5Z"/>
    <path class="cls-84" d="M210.72,702.29v31.96h-8s-.99-33.96-.99-33.96c2.53.4,6.75,1.03,8.99,2Z"/>
    <path class="cls-89" d="M191.74,617.38c-.03,13.3-.03,26.65,0,39.96-1.89,1.93.22,5.91-4.01,3.41v-43.86s4.01.5,4.01.5Z"/>
    <path class="cls-26" d="M211.72,616.38c.03-.22,1.12-4.34,1.99-3.99.66,6.5-1.21,13.09.04,19.47.32,1.61-.68,1.72,1.96,1.5v-14.98c1.76-.22.95,2.26,1,3.49.4,9.61.43,20.88,0,30.48,0,.13-.97,1.13-1.04,2.42-.28,4.82.28,9.75.04,14.57h-2.99c.04-5.83-.05-11.68-.05-17.53,0-8.66-.67-16.14-.95-24.43-.11-3.25-.39-7.92,0-10.99Z"/>
    <path class="cls-26" d="M216.72,703.29c-.05,9.23.77,19.99,0,28.97l-4,.49c1.98-8.99-.93-17.87-.04-27.01.33-3.37.89-3.76,4.05-2.45Z"/>
    <path class="cls-26" d="M215.72,680.31c-3.68,0-2.89-2.22-1.98-4.99,2.27.6,2.1,3.12,1.98,4.99Z"/>
    <path class="cls-48" d="M202.73,694.3c.27.05.68.74,1,1-2.44-.29-5.42.07-7.99,0,1.06-1.47,5.24-1.31,6.99-1Z"/>
    <path class="cls-26" d="M214.72,700.28h-1.99c-.24-1.84-.04-2.91,1.5-3.99l.49,3.99Z"/>
    <path class="cls-48" d="M198.73,699.29c-.72.01-4.01,2.03-6,1,1.12-1.77,4.11-.85,6-1Z"/>
    <path class="cls-26" d="M600.43,737.25c1.04-1.65,3.79-1,5.48-1.02,20.98-.22,41.98.2,62.96.01,1.62,1.42-1.11.98-1.98,1-5.82.17-11.69-.02-17.5,0-16.3.07-32.66-.01-48.96,0Z"/>
    <path class="cls-27" d="M643.4,739.25c-2.66-.03-5.33,0-7.99,0,1.57-1.68,6.46-1.67,7.99,0Z"/>
    <path class="cls-19" d="M636.41,430.59c.32,1.47-.82,2.92-1,4h-46.47s-2.5-4-2.5-4c17.05-.75,33.44-.2,49.96,0Z"/>
    <path class="cls-43" d="M635.41,434.59c-.06.36,2.88,2.47-2.45,3.04-9.97,1.07-29.8.74-40.05,0-2.54-.18-4.92-1.07-7.46-1.05-.8-3.51,3.09-.97,5.45-.94,13.05.17,27.04.46,40.02-.05,1.38-.05,4.11.7,4.5-1Z"/>
    <path class="cls-100" d="M455.54,512.5c2.2-1.45,1.61,6.86,1.16,7.14-2.6,1.61-1.84-4.6-1.16-7.14Z"/>
    <path class="cls-32" d="M719.35,447.57h-1l-62.34-.06c-.71.2-1.21,2.97-1.61,4.06-1.22,3.29-2,6.65-3,9.99-1.1.64-1.44-.36-1-3-1.08-2.38-1.27-5.38-.58-8.98h-82.7c-.46,1.86-1.34,3.19-2.65,3.99l-1.15,12.9c-.35,1.83-2.01-11.58-.84-12.9-1.29-.82-2.19-2.15-2.71-4l-170.99.05,3.67,45.92,29.73,1.49.88,1.81c8.77-.31,17.46-.14,26.06.5,1.63-1.77,3.92-1.29,4.44,1.18.43-11.8.72-23.67.85-35.63l1.15.67c.17,11.88.61,23.64,1.33,35.29l-1.33.67c.5-2.11,1.02-2.57,1.51-.44,6.39-.91,10.32,2.17,1.49,1.44-.24.86-.58.83-1,0-1.45,1.83-2.12,5.16-2,9.99-.28.87-.62.86-1,0-1.9-1.03-2.71-3.8-2.45-8.32-50.42.17-101.26-3.84-152.5-12.03.9,3.52,1.8,7.23,2.71,11.13l-1.65,2.23c-1.71-.32-3.34-.68-5-1,1.79-.36,3.65,1.68,2.15-1.64-1.27-2.79-4.11-12.66-4.63-13.36-1.46-1.95-13.32-2.47-16.56-3.47-2.43-.74-2.17-1.13-1.94-3.51l1.3-1.95,12.8,2.66c-2.87-7.76-4.24-15.33-4.11-22.69-.57-2.17-2.11-12.66-3.65-13.03l-61.3.04c.26,1.81-.38,4.38,0,6-2.13.08-2.1-5.61-1-6.99l500.63,1Z"/>
    <path class="cls-32" d="M562.46,453.57c.06,1.69-.42,12,.5,12l1.5-12c.99,1.92,1.58,3.95,1.75,6.1l-1.75,33.64,73.36-7.84c4.05-8.44,7.46-17.17,10.23-26.18l2.34-.72,1,3c-2.42,8.07-4.23,16.36-7.99,23.96,5.32.77,10.31-1.81,15.46-2.02,1.45-.06,4.02-.82,3.51,1.52-4.03,3.36-16.21,1.88-19.57,4.41-1.09.82-4.82,11.96-5.64,14.35-1.15,3.37.09,1.42,2.24,1.73-2,.35-3.99.66-6,1l-1.7-1.56,4.65-13.27c-23.71,4.28-47.77,6.88-71.8,8.61-1.32,4.54-3.99,4.07-7,1.26-28.39,2.31-56.91,3.12-86.05,3.9-5.42.72-9.74-.25-12.96-2.93,1.7-.22,4.35.8,3.99-.99-.93-.27-6.99.34-6.99-.01v-35.96c-1.76-.22-.95,2.26-1,3.49-.38,9.09,1.11,20.45.04,29.03-.12.98.34,2.33-1.04,2.44l-1.8-2.11c1.43-10.75,1.42-21.73.98-32.53-2.43-3.04.31-4.93,3.82-3.32l2,1.8v34.37c29.91-.4,59.74-.96,89.49-1.68l11-1.73c.5-12.5,1.26-24.98,2.27-37.44-1.9-1.5-1.3-3.88,1.16-4.31Z"/>
    <path class="cls-5" d="M351.62,423.6v1l-.69,2h-115.23s0,2.27,0,2.27c18.83-1.2,37.48-.63,55.96,1.73,2.43.79,2.38,2.13,1,4,13.55.72,31.03.84,41.97-1-1.91-.56-1.91-1.43,0-2-.24-5.35,12.88-3.37,16.99-1-.14,1.78-2.23,4.76,0,5.99-.25.39-.67.68-1,1-1.57,1.07-4.07,1.05-3.87-1.77.33-4.65-.99-2.02-.53,1.35l-1.6,1.41c-35.55.86-73.87.88-109.92,0-3.15-3.1-1.68-10.84-2-14.99h118.92Z"/>
    <path class="cls-89" d="M642.4,442.58c.89.1,3.08,1.87,5,1v1.99h-80.95c-.13-2.34-.34-1.77,1.48-2,8.27-1.06,19.39.32,28.12.08,1.79-.05,3.2-1.07,3.38-1.07,12.5-.3,31.05-1.34,42.97,0Z"/>
    <path class="cls-74" d="M309.65,441.58c.28-.87.62-.86,1,0,0,.06.64-.21.99.5l-73.44.5c-1.06-1.65,2.03-1.95,2.96-2.04,21.82-2.04,46.53,1.63,68.49,1.04Z"/>
    <path class="cls-41" d="M344.62,438.58c.42-2.83,2.42-2.83,6,0-.08.33.13.8,0,1-16.79.61-34.25,1.14-50.96,0-20.84,0-41.7-.05-62.56.06-1.33.19-1.63-.31-2.39-1.06h109.92Z"/>
    <path class="cls-10" d="M350.62,439.58c-.55.84-1.76.77-2,1-.34,1.66-4.39,1.54-5,0-3.36,0-32.97-.66-32.98,1h-1c-2.35-2.58-7.65.59-9.99-2h50.96Z"/>
    <path class="cls-89" d="M675.38,445.57h-20.48c-.74,0-2.93-1.62-4.49-1.01v-.99s23.48,0,23.48,0c.17,0,1.57,1.35,1.5,2Z"/>
    <path class="cls-69" d="M344.62,438.58c-.88-1.42,0-4.22-.87-5.4-1-1.35-3.38.36-3.12-1.59h8.99c.61,1.9-1.03,4.01-1.06,5.43-.02,1.04,1.8.37,2.05.56.12.09-.07.67,0,1h-6Z"/>
    <path class="cls-37" d="M218.72,445.57v1c.24,2.19-.9,5.58,1,6.99.17.73,3.13,4.03,4,4.99-8.01.58-4.75-7.82-6.99-12.98.66-.06,1.34.04,2,0Z"/>
    <path class="cls-89" d="M686.37,443.58c.73,3.93-6.7,1.25-8.98,1.99-.73-3.93,6.7-1.25,8.98-1.99Z"/>
    <rect class="cls-74" x="312.65" y="441.58" width="14.99" height="1"/>
    <path class="cls-74" d="M348.62,440.58c-.13.13.31,1.38-.17,1.78-.98.83-5.15-.08-6.82.2v-.98s1.99-1.01,1.99-1.01h5Z"/>
    <path class="cls-29" d="M195.74,452.57c2.32,1.27,5.44,1.26,7.99,1-1.1,1.55-.91,3.23-1,4.99-1.55.32-3.22.66-5,1,1.27,1.83,1.49,2.23-1,3-1.05,1.88-2.21,7.56,0,6.99,2.99.07,2.76,4.46,0,4.99.08,9.41.41,18.73,1,27.97,1.66-2.37,2.6-1.84,2,1-1.42,1.19-2.87,2.85-4.51,3.99-1.68,26.95.58,54.39-.49,81.42-.05,1.38.7,4.11-1,4.5l-.08-139.41c-.31-2.1,1.78-1.2,2.08-1.43Z"/>
    <path class="cls-22" d="M202.73,459.56c0,.33,0,.67,0,1-.25,13.74.16,27.53.03,41.28-.28,1.21-2.29,1.05-3.03,1.67-.35-.81-1.8-.79-2-1-.56-9.29-.89-18.61-1-27.97v-4.99c-2.04-.7-1.23-5.22,0-6.99.3-.55-.55-2.51,1-3,1.44-.85,3.67-.83,5,0Z"/>
    <path class="cls-54" d="M212.72,463.55c2.62,15.61,2.78,31.05.49,46.31.22,18.54.06,37.06-.49,55.57h-1c-.38-36.59,1.22-73.95,0-110.42-.06-1.92,1.02-4.01-2-3.45.51-.25,2.65-2.45,2.99-2,.04,4.65-.02,9.33,0,13.98Z"/>
    <path class="cls-54" d="M211.72,592.41c2.22-3.07,2.03-7.37,2.01-10.99,2.72,1.04,2.39,10.24,1.99,12.46-.19,1.09-2.9-1.05-4-.48-.02-.33.02-.67,0-1Z"/>
    <path class="cls-39" d="M202.73,458.56c-.02.33,0,.67,0,1-1.44.26-3.81-.37-5,0,.85-1.62,3.4-.94,5-1Z"/>
    <path class="cls-42" d="M525.49,526.48c-3.83,2-9.51.78-13.99,1,3.77-1.86,9.57-.97,13.99-1Z"/>
    <path class="cls-13" d="M727.34,735.25c-1.31.3-1.91-.05-2,0-1.21-1,.14-3.3,0-4.99-.03-3.23-.37-6.23-1-8.99l-3-2c-.06-5.51-.06-11.17,0-16.98-.15-3.31.05-6.68,0-9.99-.89-3.9-.8-8.07,0-11.99.92-.09,1.58-.52,1.94-1.34l.22-25.37,1.84-4.26c-2.84-.74-2.78-3.23,0-4,.43-3.14-1.13-7.62,1-9.99,2.23.13,2.74.78.58,1.21,0,26.89.1,53.88.29,80.97,1,.2,1.81.46,1.96.93.24.74.53,14.87.16,15.55l-1.99,1.23Z"/>
    <path class="cls-26" d="M724.34,595.41c-3.27-2.75-3.25,3.06-3.01,5.99h-.99s0-25.97,0-25.97c1.76-.22.95,2.26,1,3.49.16,3.82-.12,7.68,0,11.49,4.06-2.39,4.3.83,4.99,1,3.59.91,8.25,1.03,11.99,1,.08,1.42-.27,2.78-1,4-2.34,1.27-6.17.54-8.99,0-.32,2.65-1.24,2.54-2,0-.28.87-.62.86-1,0-.42.4-.75.07-1-1Z"/>
    <path class="cls-8" d="M725.34,596.41c.3,10.82.56,21.78.77,32.89,1.64,1.12,2.38,2.14,2.23,3.07-1.29.31-2.88,1.84-5,1,.22-5.96,1.72-11.91.99-17.99h-2.99s-1,9-1,9v-18.98l1,7h2.99s0-16.99,0-16.99c.32.27.88.39,1,1Z"/>
    <path class="cls-26" d="M722.34,640.36c1.41,2.31,2.12,8.85-1,9.99,2.73,9.93,2.7,20.03,0,29.97.02,3.98-.06,8,0,11.99-1.66-1.04-1-3.79-1.02-5.48-.23-18.64.21-37.3.01-55.95l2,9.49Z"/>
    <path class="cls-26" d="M721.34,702.29c.16,3.55,2.13,11.79,2.05,12.42-.06.49-1.96-.46-2.05,4.56-.11,5.74,3.41,10.64,2.03,16.3-.2.8-2.68,1.76-3.46,1.76-1.06,0-.36-1.75-.57-2.07,1.7-.39.94-3.11,1-4.5.37-9.34-1.11-19.45,1-28.47Z"/>
    <path class="cls-8" d="M724.34,640.36c.17,2.02.95,4.27,1,4.99.08,1.32-.07,2.67,0,4,.11,2.93-2.54,3.53-4,1,0-3.44-.21-6.67,1-9.99h2Z"/>
    <path class="cls-63" d="M202.73,623.38c.66,20.06,1.39,39.73,0,59.93l-4-2.5v-57.44c0-2.92,3.34-2.8,4,0Z"/>
    <path class="cls-76" d="M202.73,604.4c0,6.3-.21,12.69,0,18.98h-4c-4.63-6.31-7.24-20.31,4-18.98Z"/>
    <path class="cls-27" d="M681.37,715.27l-1,4-3.99-1.01c.49-3.42,1.44-5.93,4.99-6.99.06,1.32-.04,2.67,0,4Z"/>
    <path class="cls-26" d="M683.37,737.25s-1.92-.46-.5-1h17.98c1.62,1.43-1.15.98-2.01,1-1.82.06-3.66-.02-5.48,0-3.32.03-6.67-.02-9.99,0Z"/>
    <path class="cls-5" d="M227.71,427.59c-.13,4.2.09,7.88,1,11.98-1.65-.02-3.33.06-4.99,0-3.66-.11-11.73-2.95-12.99,2-3.28.55-5.68-3.86-2-4.99-.78-3.2-.45-5.52.99-6.96l14.99.97c.23-2.12.43-3.55,3-3Z"/>
    <path class="cls-68" d="M196.73,423.6c9.94-1.13,21.8.83,31.97,0v1.49c-.07.27-.92.29-.99.5l-2.23,1.5c-13.2-1.64-19.66-.18-1.87,1.36l1.11,2.13c-5.97.69-16.94-3.13-15.99,5.99-2.55-.39-2.68-2.16-2.77-4.28l-1.23.3v10.58s-1.99,1.4-1.99,1.4c-1.79-5.62-1.13-12.99-1.03-18.92l-4.97-2.05Z"/>
    <path class="cls-99" d="M227.71,425.6c-.63,1.84.02,1.46,0,2-1.48,2.35-.23,2.68-3,3l-11.25-1.24-10.73-4.74c8.1.59,17.19-1.3,24.98.99Z"/>
    <path class="cls-37" d="M213.72,463.55c-.12,3.91-1.42,9.91,2.51,11,.9.25-.2-2.5,1.48-2.01v39.96c-2.02.11-.58-2.95-.95-4.32-.21-.79-2.19-1.17-3.03-1.67-.23,20.96.27,41.98-.01,62.93-.03,2.02.91,6.96-.99,7.99-.04-3.98.02-8-.01-11.98-.25-33.94.19-67.94,0-101.89h1Z"/>
    <path class="cls-28" d="M202.73,444.58v-13.99c6.31-.8,4.54.56,6,6,.43,1.6-.73,2.56,1.97,3.68l.03,1.32c-.52,2.06,2.9,2.95-3,4.99-2.1.83-3.69-.7-5-1v-1Z"/>
    <path class="cls-37" d="M213.72,460.56c.11-1.2-.19-5.03,1.99-3,.23.22,1.89,5.48,2.01,6,.25,1.11-.16,2.75-.01,3.99-2.49-.33-.84-5.97-3.99-6.99Z"/>
    <path class="cls-83" d="M741.33,452.57c1.69-1.57,3.23.27,3.53,2.14l-.54,135.71c-1.65-.03-4,1.47-6,1-.73-8.42-2.56-11.81,1-19.98.75-1.73.9-2.53,1.04-4.43,2.71-35.27-3.22-75.01-.09-110.01.15-1.67.1-2.92,1.04-4.43Z"/>
    <path class="cls-28" d="M351.62,424.6c-.11,1.98.16,4.02,0,5.99-4.49-.05-9.02.06-13.53,0-1.29-.02-3.29,1.04-3.46.99l-1.61.86c-12.83-1.09-25.68-1.06-38.55.09l-2.81-1.94c-19.3.2-38.66-.16-57.96,0v-6h117.92Z"/>
    <rect class="cls-26" x="759.32" y="736.26" width="6.98" height=".98"/>
    <path class="cls-33" d="M742.33,634.36c2.28-1.34,3.29-.04,2,2l-.54,98.39c-2.29.24-4.44.07-6.46-.5-.33.02-.67-.02-1,0l-1.53-3.6c.48-12.8.81-25.55,1-38.26l2.53-1.1c-.91-2.44-1.81-4.95-1.9-7.57-.38-11.19-.59-22.6-.65-33.79-.01-2.6.75-5.13,1.55-7.58-4.52-1.64-2.43-7.49,3-6.99.75-.46,1.19-.66,2-1Z"/>
    <path class="cls-55" d="M730.34,635.36c.87.28.86.62,0,1-1.15,5.56-1.42,11.65-.8,18.27-.8,21.65-1.2,42.87-1.19,63.64-.84-5.02-1.15-11.64,0-16.48-.62-3.8-.58-7.74.11-11.82,1.66-.5,2.95-.72,3.88-.67,1.94-.71,4.47.8,6,2,0,.53-.98,1.97-1.01,3.44-.26,13.1,1.03,26.64-.99,39.51-3.47.22-5.46.2-8.99,1l-1-99.89c1.33-.02,2.67.03,4,0Z"/>
    <path class="cls-55" d="M744.33,735.25c-.99.06-2-.01-3,0-.66,0-1.34-.03-2,0-.66.47-1.31.56-2,0v-1c1.99-.1,4.01.08,6,0l.99-97.9c.87,31.9.87,66.64,0,98.89Z"/>
    <path class="cls-26" d="M737.33,735.25c.66-.02,1.34.03,2,0-1.01,1.6-3.84,1.07-5.49,1.02-1.21-.04-3.74.71-3.5-1.01,2.32-.06,4.67.05,6.99-.01Z"/>
    <path class="cls-78" d="M742.33,634.36c.72-.3,1.25-1.67,2.99-.99,0,27.29,0,54.62,0,81.9,2.92,0,2.8,3.34,0,4v15.98c-.33.03-.67-.02-1,0v-98.89c-.19-1.93.7-2.28-2-2Z"/>
    <path class="cls-26" d="M725.34,730.26c-.23-2.75-.99-5.31-1-8.99,0-1.65-.87-6.44.99-6.99v15.98Z"/>
    <path class="cls-40" d="M728.34,596.41c3.39.42,6.72.75,9.99,1l1.32,1.74c-1.44,11-1.22,21.41.68,31.22-.32.06-.67-.04-1,0-8.93,1.71-15.19,2.51-14.05-8.6.54-8.56.9-17.02,1.06-25.36h2Z"/>
    <path class="cls-69" d="M740.33,635.36c-.91.56-2.86.98-3.04,1.65-.28,1.04-.05,3.97.04,5.34.04,1.55-.91,2.7-2.87,3.46l-.13,42.31-2,1.18c.67,3.41-1.59.56-2.48,1.92-3.24,4.97.57,6.91.35,8.4-.15,1.01-1.86,1.94-1.86,2.17v16.48c-1.76.22-.95-2.26-1-3.49-1.07-25.86.82-51.96-.02-77.83.17-1.17,2.09-.46,3.02-.59,1.41-.7,3.07-1.03,5-1,1.55-.23,3.39.16,5,0Z"/>
    <path class="cls-45" d="M744.33,595.41c1.16,10.66,1.23,22.2,0,32.96-.17.15-3.78,1.95-4,2-1.22-1.21-2.79-.23-3.08-2.43-.83-6.23-.2-18.32.04-25.09.07-1.9-.1-3.78,1.04-5.44.39-.51,1.06-.84,2-1,1.2-.27,2.99-1.09,4-1Z"/>
    <path class="cls-98" d="M744.33,450.57c.25.82,1.55,1.9,1.07,3.38l-.58,137.46c-.29-.17-.33-.99-.5-1v-135.4s-3-2.45-3-2.45c.67-1.07,1.88-1.56,3-2Z"/>
    <path class="cls-52" d="M739.33,630.37c-3.13,1.49-7.04,1.06-10.99,2-1.27-1.09-2.63-1.6-3.01-3.49-1.77-8.84,1.72-23.51,0-32.47h1c1.5,8.01-2.07,25.57.14,32.32.79,2.41,10.34,1.95,12.85,1.64Z"/>
    <path class="cls-26" d="M744.33,628.37v-32.96c1.53.14.9,1.37,1.02,2.48.67,6.31.77,21.87.04,28.08-.17,1.41.08,1.42-1.06,2.4Z"/>
    <polygon class="cls-26" points="745.33 715.27 749.32 713.28 749.33 721.76 745.33 719.27 745.33 715.27"/>
    <path class="cls-26" d="M749.32,699.3c-.73,2.28,1.94,9.71-1.99,8.98.73-2.28-1.94-9.71,1.99-8.98Z"/>
    <path class="cls-52" d="M737.33,596.41h3c-.11.02-.28.79-2,1-2.69.33-8,.56-9.99-1h8.99Z"/>
    <path class="cls-8" d="M735.33,635.36c-1.36.2-3.03.72-5,1v-1c1.66-.04,3.33.03,5,0Z"/>
    <path class="cls-17" d="M364.61,669.32c2.49-1.17,5.08-.64,3,2-2.09,2.45-4.49,3.76-6.52,5.97-2.23,2.42-6.89,9.76-8.95,11.13-.95.63-3.21.25-3.51-.12-1.69-2.06,13.21-17.5,15.98-18.97Z"/>
    <path class="cls-94" d="M348.62,702.29c-.85.22-1.36,1.54-2.47.03-3.96-5.36.79-12.51,3.47-5.03.02,2.11-.31,3.77-1,4.99Z"/>
    <path class="cls-97" d="M349.62,697.29c.46,1.29.48,3.51,1,4.99-.64.13-1.45-.13-2,0,.06-1.6-.62-4.14,1-4.99Z"/>
    <path class="cls-97" d="M367.61,671.32c.47-2.67-.63-2.04-3-2,1.11-.59,1.56-1.58,3.48-.99,3.04.93.08,2.33-.49,2.99Z"/>
    <path class="cls-32" d="M454.54,520.49c.19-2.65.86-2.65,2,0v1c-6.93.13-14.09-.4-20.98,0-1.6-.06-4.14.62-5-1,7.59-2.87,16.42-2.97,23.98,0Z"/>
    <path class="cls-32" d="M457.54,502.51c-3.14,5.8,2.14,12.21-1,17.98h-2c-.04-2.66.05-5.33,0-7.99h1c.05,2.32-.05,4.67.01,6.99h.98c-.29-2.16,1-5.74-.99-6.99-.08-3.32.04-6.68,0-10,.66.01,1.33-.02,1.99,0Z"/>
    <path class="cls-64" d="M334.63,431.59c0,.67,0,1.33,0,2l-.15.9c-13.95.58-27.88.61-41.82.09-1.35-1.28-1.13-2.34-1-4,15.3-.16,28.11-2.81,42.97,1Z"/>
    <path class="cls-41" d="M334.63,433.59c0,.71.43,2.14-.6,2.02-6.16-1.02-38.49,1.71-41.37-1.02l41.97-1Z"/>
    <path class="cls-39" d="M197.73,502.51c-1-1.05-.89-.86-1.06-2.4-.83-7.34.06-17.81.06-25.57,2.29,8.82.38,18.86,1,27.97Z"/>
    <path class="cls-39" d="M196.73,469.55l-1.99,11.98c.69-5-1.08-12.74.19-17.31.33-1.18,1.67-1.44,1.79-1.67v6.99Z"/>
    <path class="cls-52" d="M725.34,649.35c.63,11.9-.46,24.03-.01,35.95l-3.99-4.99c-.05-9.97,0-19.99,0-29.97l4-1Z"/>
    <path class="cls-58" d="M737.33,642.35c1.12,16.16,1.29,32.58,1,48.95-2.76,1.11-4.53.53-6-2l.14-45.31,4.86-1.64Z"/>
  </g>
</svg>