<?xml version="1.0" encoding="UTF-8"?>
<svg xmlns="http://www.w3.org/2000/svg" viewBox="0 0 1024 1024">
  <defs>
    <style>
      .cls-1 {
        fill: #f3f4f5;
      }

      .cls-2 {
        fill: #e7e8e8;
      }

      .cls-3 {
        fill: #f9f9fa;
      }

      .cls-4 {
        fill: #7f7373;
      }

      .cls-5 {
        fill: #fff;
        opacity: .5;
      }

      .cls-6 {
        fill: #fbfcfc;
      }

      .cls-7 {
        fill: #8e9090;
      }

      .cls-8 {
        fill: #747677;
      }

      .cls-9 {
        fill: #2b2e31;
      }

      .cls-10 {
        fill: #8a8c8d;
      }

      .cls-11 {
        fill: #fefefe;
      }

      .cls-12 {
        fill: #d9d9da;
      }

      .cls-13 {
        fill: #eeeeef;
      }

      .cls-14 {
        fill: #212424;
      }

      .cls-15 {
        fill: #313536;
      }

      .cls-16 {
        fill: #afb1b2;
      }

      .cls-17 {
        fill: #d5d6d6;
      }
    </style>
  </defs>
  <g id="_검은색_배경" data-name="검은색 배경">
    <rect class="cls-4" x="0" y="0" width="1024" height="1024"/>
  </g>
  <g id="_레이어_1" data-name="레이어 1">
    <path class="cls-14" d="M246.51,646.32c3.24-1.03,9.08-.12,11.66-4.04,19.98-30.63,38.83-62.07,59.22-92.43,9.69-14.43,14.19-24.42,31.45-31.37,4.65-1.87,15.47-5.07,20.21-4.97,3.58.07,18.55,9.83,21.42,12.67,1.04,1.03,2.27,4.37,2.9,4.47,2.57.41,13.05-8.42,18.28-5.46v-100.49h-13.01c-5.22,0-9.12-9.88-10.07-14.16-3.77-16.83-3.84-62.22,3.6-77.55,1.65-3.4,9.01-13.27,12.75-13.27h73.15c-1.69-7.39-5.12-14.27-.41-21.49,10.78-8.81,20.77-21.01,31.4-29.62,3.88-3.15,7.27-5.36,12.54-5.48,13.95,2.56,29.07,1.85,42.97,3.77,7.79,1.08,11.73,2.64,13.62,10.61,1.21,5.09,5.19,41.77,7.28,42.25l107.6-.08c8.37.77,15.63,14.6,18.52,21.86,6.47,16.25,7.77,54.35,2.29,70.79-.89,2.67-5.3,10.56-8.28,10.56h-15.71c.91,7.1-1.49,14.17-1.83,21.05-1.57,31.08,1.25,63.49.03,94.7,16.63-1.63,33.54,9.04,35.04,26.43,1.26,14.58,1.78,59.43-1.2,72.44-2.1,9.19-8.2,17.31-15.44,23.15-2.02,1.63-5.33,2.35-6.73,4.48,12.67-.26,26.38-1.93,39.02-.87,7.92.66,16.85,4.3,23.8,8.06,7.69,4.17,16.14,10.49,23.96,15.07,5.95,3.48,11.93,7.23,18.22,10.05v-38.13c0-5.36-17.07-22.12-17.09-24.22,0-.87.72-2.07,1.39-2.25,3.2-.85,11.5,11.37,13.64,14.12.58.75-.03,1.63,2.06,1.13v-19.29c0-1.69,4.49-1.69,4.49,0v58.77l12.54-13.93c3.28-1.17,4.36.71,2.74,3.63-2.93,5.29-10.99,11.48-14.81,16.59-.69,1.62-.87,4.96-.31,6.57.63,1.83,28.89,17.84,33.06,20.33,18.42,11.02,37.11,21.64,55.21,33.18,2.38.18.89-.39.62-1.52-1.28-5.39-5.63-15.76-5.61-20.44,0-2.17,3.53-1.76,4.39-1.22,1.92,1.19,6.13,24.99,7.75,24.98,2.66-5.61,4.57-10.74,8.55-15.66,1.45-1.8,12.64-13.57,12.58-6.29-.02,2.11-16.51,15.99-14.39,21.97,1.87,1.84,14.46-6.64,17.63-7.94,2.87-1.19,15.5-5.63,17.43-4.23,1.29.94,1.59,3.38-.27,4.35-6,3.15-16.31,2.83-21.32,8.73h77.64c1.12,0,3.22,3.95-1.75,4.53-56.41-.06-112.83-.07-169.23-.04-207.61.1-415.27.1-622.89,0-18.54,0-37.11.01-55.65,0-40.07-.03-80.31.38-120.29-.43-2.83-6.31,4.29-3.98,7.61-4.01,36.15-.29,72.31.31,108.46-.27,3.12-.2,2.45-2.97,3.72-5.2,4.39-7.73,8.66-15.58,13.07-23.28,8.66-15.12,17.9-29.95,25.89-45.48-.85-3.5-12-13.55-11.53-15.96,4.53-5.99,11.13,10.32,13.91,10.28,1.05-3,6.79-8.25,7.44-10.49.9-3.15.49-28.56-.82-31.1-.96-1.85-3.87-3.68-4.78-5.99-2.05-5.16,1.19-2.93,2.2-3.55l2.68,1.79c-.58-1.43.91-3.36.91-4.04v-35.89c0-.97,4.75-4.07,5.39,2.68l-.89,70.43c.74.83,7.01-3.86,8.5-4.5,9.52-4.14,21.97-6.68,31.89-9.85ZM569.62,273.09l-40.84-4.49c-14.5-.56-14.69,2.38-24.69,11.19-7.7,6.79-15,14.43-22.41,21.55-.05,1.08,9.83,2.6,11.46,2.88,9.65,1.65,27.82,5.37,36.79,5.4,3.76.01,7.16-1.53,10.09-3.77,5.85-4.48,22.22-21.03,26.88-26.93,1.32-1.68,2.99-3.54,2.72-5.83ZM574.1,279.37c-1.56-.4-1.79.65-2.69,1.34-10.15,7.78-19.95,22.77-30.07,30.06-3.3,2.38-7.52,3.98-11.63,3.6l-49.84-7.18,12.14,35.85c1.32,1.29,3.03,1.85,4.7,2.47,9.84,3.64,38.37,11.35,48.45,12.58,3.61.44,6.48.5,9.65-1.56,3.78-2.46,16.19-17.18,19.75-21.53,2.89-3.52,6.79-7.08,5.83-12.09l-6.29-43.54ZM690.78,411.25c8.02-23.33,7.12-59.34-9.12-79.24-2.84-3.48-7.67-8.1-12.41-7.77,11.66,12.55,21.34,29.6,22.47,47.06.71,10.93-1.2,22.29-1.87,33.2-.09,1.44-.67,6.14.92,6.76ZM690.79,418.42c6.68,1.63,8.72-4.77,10.32-9.86,6.11-19.44,4.09-51.81-5.37-70-2.84-5.46-8.54-15.88-15.73-14.33,15.81,16.07,20.81,39.37,19.79,61.49-.34,7.45-1.76,18.05-4.73,24.88-1.26,2.9-3.59,4.86-4.28,7.82ZM701.56,418.43c.37.34,2.75-.07,3.57-.46,2.56-1.24,4.39-6.54,5.14-9.22,3.64-13.15,3.18-45.03-.38-58.3-2.21-8.23-9.39-25.91-19.1-26.21,7.2,8.22,12.12,18.22,14.65,28.86,3.96,16.67,4.35,39.34-.34,55.87-.48,1.69-4.16,8.88-3.53,9.47ZM422.43,418.43c3.18,2.94,6.79-6.17,7.45-8.25,5.64-18.03,5.94-69.69-11.1-81.85-12.61-9.01-22.39,4.27-25.54,15.62-3.48,12.54-3.61,55.75.2,68.02.43,1.4,3.93,9.85,6.55,7.35.58-.55-4.54-12.12-5.11-15.07-3.46-17.85-3.47-52.61,6.74-68.1,9.56-14.5,20.12-3.33,24.21,8.45,6.4,18.4,6.49,48.34-.27,66.62-.54,1.46-4.08,6.31-3.12,7.19ZM464.16,325.12h-36.35c19.86,30.33,10.2,68.59,12.53,102.77,1.57,22.96,15.66,40.16,39.07,42.59l.45-97.35c-2.04-16.84-5.64-34.02-15.7-48.01ZM629.75,470.47c-2.47-48.34,9.04-101.71-17.96-144.89l-26.08-.06c-1.11,1.59-.95,3.58-1.83,5.35-4.36,8.76-20.91,29.66-29.22,34.49-9.93,5.77-19.39,3.29-29.94.6s-20.34-7.58-30.5-11.22c6.47,38.06,2.49,77.21,3.59,115.73h131.94ZM640.52,470.47c-1.21-34.09,2.4-69.7-1.92-103.5-1.29-10.07-3.57-21.54-7.8-30.79-1.9-4.15-5.51-12.52-10.92-11.06l10.12,24.41c11.29,39.16,5.5,80.65,6.93,120.93h3.58ZM661.62,325.12h-30.96c23.25,42.12,11.31,93.44,14.32,139.55.07,1.09.64,5.75,1.46,5.86,16.68-1.52,32.06-11.32,36.53-28.07,2.49-9.35,1.32-18.53,1.5-28.1.48-24.69,3.46-54.68-10.36-76.6-2.07-3.28-9-11.72-12.49-12.63ZM492.44,470.47c-1.28-30.57,1.68-62.48.03-92.9-.57-10.58-4.5-37.25-11.66-44.86-.74-.79-4.56-4.02-5.42-3.09,4.74,13.29,8.99,25.86,10.65,40.04,3.88,33.11.98,67.5,1.9,100.82h4.5ZM424.22,401.38c4.03-16.2,3.59-40.62-2.52-56.25-1.34-3.43-3.74-8.29-6.91-10.13,2.73,5.21,5.54,10.35,7.18,16.14,3.74,13.23,4.78,37.21.46,50.23-3.69,11.14-14.03,17.87-18.86,3.15l-4.91-21.1c-1.14,8.78,1.7,32.73,13.47,33.26,7.66.35,10.63-9.42,12.1-15.31ZM399.09,368.19c0,.09-1.8,1.34-.44,1.8,1.9.28,1.21-.35,1.34-1.8.78-8.73.68-26.81,12.57-26.92,1.5-1.17-.13-1.62-1.34-1.79-14.17-1.98-11.72,20.18-12.13,28.71ZM416.15,404.07c1.84-.76,2.48-3.82,2.95-5.57,2.87-10.66,2.49-40.85-2.92-50.55-.69-1.24-.76-2.59-2.73-2.2,2.85,11.68,4.33,23.5,5.42,35.48l-2.72,22.84ZM404.47,360.56c-.99,8.82.73,19.26,0,28.26,1.58.2.85-2.03.9-3.13.29-7.06.13-14.5.91-21.53.55-4.94,2.68-10.09,2.24-14.81-1.95,2.33-3.71,8.22-4.04,11.21ZM412.54,397.79c2.26-11.16,2.18-23.34,0-34.53-.25-1.31.01-2.78-1.78-3.15-.5,11.11-2.43,24.31.25,35.19.22.9.26,2.7,1.52,2.49ZM399.98,381.64l-1.78-10.76c.11,2.82-.19,5.71,0,8.53.12,1.79-.71,2.59,1.79,2.22ZM406.26,389.72c-2.63-.5-1.83,1.14-1.68,3.03.27,3.54,1.73,10.7,4.37,13.12l-2.69-16.15ZM435.89,418.43v-13.46l-4.5,12.11c-.47,2.47,3.03,1.01,4.5,1.34ZM437.68,526.99c2.34.41,6.08,3.51,7.65,5.36l4.91,8.1v-78.5c0-.38-4.3-4.17-5.23-5.54-2.04-2.99-4.19-6.83-5.54-10.16-3.17-7.79-4.21-14.88-3.59-23.33h-18.85v101.83c0,3.64,17.69,1.72,20.64,2.24ZM667.45,469.57c-6.11,3.39-15.44,5.8-22.44,5.38-.02,4.18.04,8.39,0,12.57-.06,5.9-.13,11.87.19,17.76,3.67,2.45,13.41,8.07,14.12,12.34.67,23.42-1.11,47.13.95,70.38h22.44v-132.79c-4.72,4.73-9.34,11.07-15.26,14.36ZM454.74,483.93c-.31,34.67.24,69.4,0,104.08,8.36-.08,16.77.09,25.14,0,3.88-.04,7.79.03,11.67,0v-65.05c0-.27-2.91-2.6-3.48-3.7-2.05-3.99-1.17-10.37,1.68-13.79.15-.18,2.06.13,2.57-1.45.78-2.44.1-10.5.12-13.81.04-5.07-.03-10.18,0-15.25h-16.6c-6.14,0-15.1-6.41-21.09-8.07-.05,5.67.05,11.37,0,17.04ZM496.92,491.1c.04,2.86-.6,11.73.45,13.45,1.4,2.3,13.91,9.41,13.91,13.01v70.43c38.87-.32,77.81.43,116.68,0,3.88-.04,7.79.03,11.67,0v-65.05c0-.48-4.18-2.92-4.54-8.04-.58-8.27,2.93-6.97,4.33-11.01,2.84-8.22-.7-18.18.2-26.73.1-.78-.53-.97-.89-1.32-1.57-1.56-3.36-.8-5.39-.9-1.78-.09-3.6.03-5.39,0-42.9-.66-85.88.49-128.8,0-.71.05-1.42.22-1.85.84-.86,1.24-.43,12.6-.39,15.31ZM499.61,514.43c-.45-.83.33-3-1.78-4.04-4.26-2.1-7.38.28-6.3,4.94h6.29c.78,2.02-4.21,2.87-2.69,4.47.52.55,11.34,3.74,9.79-1.25-.48-1.56-3.97-1.66-5.31-4.12ZM647.71,513.53c-.41-.35-.42-2.08-1.49-2.75-3.01-1.87-7.38-.98-6.66,3.23.36,2.09,1.76,1.15,1.87,1.31.15.23-.32,1.55.23,2.41,1.8,2.86,9.2,3.42,12.34,2.97.51-3.68-3.84-5.07-6.28-7.17ZM358.7,520.71c-19.25,5.11-20.85,9.19-31.41,24.22-22.69,32.29-43.15,66.15-64.51,99.35l.72,2.52c6.92,7.73,15.44,13.97,22.52,21.48,3.52,3.73,17.47,20.3,17.94,24.31.23,1.95-1.61,1.41-2.7,2.18-.06-.13-1.64-.83-2.19-1.81-9.66-17.12-26.15-29.98-40.03-43.53-10.98,1.65-22.38,5.24-33.17,8.55-11.95,3.67-17.17,5.13-24.62,16.21-16.04,23.85-27.43,54.86-43.99,78.94l-.49,2.64c17.11,1.66,34.4.62,51.61.91,2.36-.45,3.8-4.97,5.46-7.1,2.01-2.58,5.53-4.49,5.7-8.07-7.85-5.04-30.73-18.45-32.12-27.65-.18-1.18.06-2.59,1.21-2.93,3.16-.91,3.98,4.35,5.43,6.22,6.14,7.87,20.33,14.63,28.21,21.23,2.9.79,10.23-3.81,14.84-4.12,3.24-.22,9.84.9,12.99,1.79,5.78,1.64,18.93,6.49,24.55,9.1,5.31,2.46,13.85,10.35,18.27,11.35,5.45,1.23,17.27.12,23.6.19,16.44.18,32.93-.13,49.37,0-.85-14.49-.44-29.05-.87-43.56-.36-12.41-1.44-25.2-1.87-37.61-.58-16.72,3.24-36.53-9.36-49.86-5.29-5.6-6.72-4.94-10.14-13.19-6.79-16.38-8.33-33.78-10.98-50.48,2.42-.19,2.78.02,3.56,2.28,2.33,6.73,3.24,17.79,5.13,25.37s5.44,23.37,10.57,28.91c1.65,1.78,3.95,2.78,5.85,4.92,12.11,13.69,9.26,32.61,9.9,49.32.86,22.3,1.57,44.97,2.72,67.26.15,2.94-.84,15.1.8,16.24l66.07.44,3.6-1.79,25.91-38.7c2.87-11.88,8.45-22.94,12.16-34.59.27-3.66-6.77-9.49-9.33-12.97-3.36-4.57-6.5-9.48-9.5-14.28-26.18-41.9-47.24-88.01-76.53-127.61-4.15-1.69-10.04-7.49-14.09-8.36-2.73-.58-8.01,1.54-10.79,2.28ZM496.02,525.2v114.39c0,1.13,7.9,8.11,10.32,3.14l.45-114.39c-.69-3.71-7.58-1.76-10.77-3.14ZM654.89,526.09l-10.77-.9v113.5c0,.89,3.93,5.32,5.13,5.67,1.8.53,5.64-.5,5.64-2.09v-116.19ZM435.89,602.36v-44.41c0-3.05-3.55-12.41-5.24-15.4-7.11-12.62-23.53-18.46-33.41-6.09l38.64,65.9ZM450.24,627.48c.87-6.99-.75-14.37-.93-21.05-.44-17.18,3.32-53.71-5.18-67.5-4.02-6.52-8.68-8.48-16.33-7.44,7.73,7.82,11.79,18.16,12.6,29.12,1.12,15.25-2.28,36.02.01,50.23.32,1.97,6.07,11.46,7.56,13.97.58.98.91,2.46,2.26,2.67ZM687.2,544.49v98.69c-.42,6.19-5.49,14.41-6.29,19.74-.22,1.48-.01,1.45,1.35,1.36,19.69-1.39,34.96-16.69,36.39-36.32.89-12.25,1.59-57.77-1.63-67.53-2.6-7.88-10.26-13.76-18.14-15.96-2.13-.6-10.83-2.73-11.68.02ZM479.87,592.49c-8.36-.13-16.77.09-25.13,0v44.41c0,1.34,12.19,20.14,13.99,22.8,3.17,4.68,13.57,15.61,14.99,19.19.8,2.03-.63,4.68-.26,5.11,2.08,2.4,23.89,1.15,28.24,2.73,41.95-2.26,86.82,2.88,128.42,0,16.48-1.14,31.39-13.69,37.64-28.77,1.17-2.83,4.95-15.09,4.95-17.48v-48h-22.44c0,17.09.4,34.18-1.3,51.19-3.88,7.69-10.23,5.64-16.65,2.64-.34-1.49-2.33-2.56-2.72-5.81-1.71-14.36,1.43-31.84-.1-46.55-.79-2.42-8.91-1.43-11.54-1.47-38.86-.58-77.81.43-116.68,0v51.59c0,5.9-12.63,5.9-16.16,2.24-.01-.73-3.59-4.94-3.59-5.83v-46.65c0-2.04-9.57-1.31-11.67-1.35ZM698.86,669.65c-5.66.06-16.84-.96-21.62.39-1.77.5-5.34,6.1-7.1,7.69-6.72,6.08-14.89,11.36-23.78,13.46-49.95-3.14-105.63,4.58-154.83-.9-3.55-.4-6.53-1.35-9.91-1.42l-8.04,22.05c16.41-7.43,21.04-.08,27.69,13.14,5.05,10.03,9.04,20.72,14.09,30.78l2.66,1.82c115.02-.14,230.07.26,345.08.02,8.42-.02,17.75.56,26.03,0,.69-.05,1.85.35,1.8-.45.04-.95-1.56-.21-1.8-.45-.1-.1.38-1.02-1.13-2.06-42.2-29.04-92.3-52.64-135.59-80.65-13.9-5.65-37.99-3.59-53.56-3.43ZM495.13,721.68c-.21-.37.03-1.68-.51-2.6-6.65-11.28-14.67-8.92-22.83-.99-1.34,1.3-3.4,2.24-4.33,4.19l-22.59,34.38c12.55-.03,25.14.05,37.69,0,9.56-.03,19.16.03,28.72,0-3.72-10.91-9.18-21.2-14.36-31.4-.66-1.31-.93-2.05-1.8-3.59ZM256.38,743.22c-12.5-4.12-20.02-9.92-32.32.44-1.4,1.18-10.99,12.01-9.86,13.01,13.64-.75,28.3,1,41.82.07,1.81-.13,2.2-.15,3.06-1.86.18.49.38,1.1.85,1.36l22.03.44c1.87-1.87-.87-1.81-1.77-2.67-7.18-6.91-14.63-7.76-23.8-10.79Z"/>
    <path class="cls-2" d="M831.7,761.16l8.07,7.63c3.76,5.04,4.09,9.3-2.26,12.09-58.18.06-116.38-.01-174.55.02-89.44.05-178.92.06-268.36,0-59.69-.04-119.4,0-179.1.04-1.58-.1-4.52-.21-5.79-.94-.23-.13-3.27-3.75-3.48-4.15-3.31-6.38,1.41-9.02,2.58-14.69,207.61.1,415.27.1,622.89,0Z"/>
    <path class="cls-5" d="M762.59,672.34c1.88-.55,1.62-2.33,2.08-3.75,5.48-16.83,10.99-39.18,17.88-54.8,9.3-21.09,37.05-20.23,46.24.89,10.91,25.08,16.31,56.62,26.01,82.56.97,5.01-.8,9.98-3.18,14.3l-9.15,9.25c-4.17-2.49-32.42-18.5-33.06-20.33-.56-1.61-.37-4.95.31-6.57,3.82-5.11,11.88-11.3,14.81-16.59,1.62-2.93.55-4.8-2.74-3.63l-12.54,13.93v-58.77c0-1.69-4.49-1.69-4.49,0v19.29c-2.08.5-1.48-.39-2.06-1.13-2.14-2.75-10.44-14.97-13.64-14.12-.67.18-1.4,1.38-1.39,2.25.01,2.1,17.09,18.86,17.09,24.22v38.13c-6.29-2.82-12.27-6.57-18.22-10.05-7.83-4.58-16.27-10.91-23.96-15.07Z"/>
    <path class="cls-1" d="M662.96,780.9c.23,2.84,3.12,3.7,4.28,6.03,3.18,6.42-1.72,12.46-8.28,12.85l-260.33-.04c-6.45-.43-10.67-5.87-8.58-12.13,1.1-3.3,3.83-3.9,4.54-6.71,89.44.06,178.92.05,268.36,0Z"/>
    <path class="cls-5" d="M180.99,575.44c2.32.27,1.97-2.89,4.8-2.49,1.52.22,2.6,1.93,3.94,2.28,3.81,1,7.85-1.6,9.7,3.76,2.24,6.5-2.38,4.13-4.73,6.55-2.83,2.9,1.04,7.15,1.5,10.14s-.3,5.98.13,8.84c.55,3.64,5.1,19.1,1.72,21.16-1.01.62-4.25-1.62-2.2,3.55.92,2.31,3.83,4.13,4.78,5.99,1.31,2.54,1.72,27.95.82,31.1-.64,2.24-6.39,7.49-7.44,10.49-2.78.04-9.38-16.27-13.91-10.28-.48,2.41,10.67,12.46,11.53,15.96-7.98,15.53-17.23,30.36-25.89,45.48-12.34-1.98-21.2-10.84-21.49-23.66,12.81-40.29,21.23-83.52,34.51-123.47.68-2.06,1.41-3.5,2.24-5.39Z"/>
    <path class="cls-5" d="M246.51,646.32c-9.92,3.16-22.37,5.7-31.89,9.85-1.49.65-7.76,5.33-8.5,4.5l.89-70.43c-.63-6.75-5.39-3.65-5.39-2.68v35.89c0,.68-1.49,2.61-.91,4.04l-2.68-1.79c3.38-2.06-1.17-17.52-1.72-21.16-.43-2.87.3-6-.13-8.84-.46-2.99-4.33-7.24-1.5-10.14,2.36-2.42,6.98-.05,4.73-6.55-1.85-5.36-5.89-2.75-9.7-3.76-1.34-.35-2.42-2.07-3.94-2.28-2.83-.4-2.48,2.77-4.8,2.49,9-20.7,34.47-19.67,43.1.43l22.42,70.45Z"/>
    <path class="cls-13" d="M277.72,354.91c3.5-.48,8.43,1.44,10.97,3.86l23.77,29.17c1.59,5.81.44,7.59-5.32,8.11-13.72,1.22-44.96,1.49-58.38-.04-16.28-1.86-24.67-35.8-1.51-29.89,3.74.95,5.76,3.94,10.26,2.77,5.93-1.55,10.21-12.61,20.22-13.97Z"/>
    <path class="cls-13" d="M788.4,461.73c6.89-.92,12.82,1.19,16.76,7,1.56,2.31,2.37,7.13,4.72,7.85,3.04.94,9.04-1.16,13.29-.72,15.35,1.58,13.08,23.76-1.76,25.15-21.34,2-45.72-1.6-67.39,0-6.96-1.43-3.47-5.82-.43-9.48,3.98-4.79,25.53-26.51,29.92-28.41,1.4-.61,3.39-1.19,4.89-1.39Z"/>
    <path class="cls-1" d="M208.81,761.16c-1.17,5.68-5.89,8.32-2.58,14.69.21.4,3.24,4.02,3.48,4.15-1.41,1.33-3.2.88-4.9.92-15.47.36-31.02-.14-46.49-.25-9-4.08-6.74-11.65-5.16-19.52,18.54.01,37.11,0,55.65,0Z"/>
    <path class="cls-15" d="M347.03,301.8c.35.36,7.86-1.16,7.18,2.22-.4,2-7.14,1.09-7.95,2.38-.98,1.57,1.7,10.61-2.74,7.89-1.24-.76-.67-7.46-1.06-7.93-1.21-1.46-8.13,1.08-6.2-4.57,1.24-.24,5.96.33,6.28,0,.22-.23-.15-5.98,1.37-6.28,4.67-.94,2.62,5.78,3.12,6.29Z"/>
    <path class="cls-12" d="M728.48,274.88c.47.48,7.03-.73,7.19.45.99,4.9-6.54,2.49-7.19,3.13-.38.37.39,6.78,0,7.18-.34.35-2.47.13-3.16-.87-2.52-3.68,3.93-7.75-7.61-6.31-2.04-6.4,5.99-2.36,7.19-3.58.38-.38-.93-6.7,1.36-7.18,3.38-.71,1.86,6.81,2.23,7.18Z"/>
    <path class="cls-2" d="M655.33,270.39c.48.14,1.61,1.46,1.34,2.23-2.86,4.53-8.52-.6-7.18,5.85-5.58,1.29-2.55-2.78-4.42-4.11-1.34-.95-5.09-.05-5.45-.39-.53-.5.39-3.58,1.34-3.58,3.26,0,12.05-.66,14.36,0Z"/>
    <path class="cls-15" d="M321.9,468.67h-18.85c-.18,0-.18-3.59,0-3.59h17.5c.95,0,1.71,2.55,1.35,3.59Z"/>
    <path class="cls-2" d="M769.32,360.11h14.36c1.55,0,1.55,3.59,0,3.59h-14.36c-1.17,0-1.99-2.78,0-3.59Z"/>
    <path class="cls-12" d="M239.33,483.03h-13.01c-.33,0-1.53-1.35-1.34-2.23.37-1.69,16.25-3.51,14.36,2.23Z"/>
    <path class="cls-16" d="M358.7,520.71c3.66,12.82,7.5,28.44,12.78,40.61,4.57,10.54,12.39,16.47,21.32,6.05,1.69,5.18,4.76,10.5,8.11,14.78,6.59,8.43,21.05,16.04,22.35,27.02.67,5.66-2.71,9.88.56,15.57,2.21,3.84,19.74,24,23.32,26.93s8.29,5.35,12.99,2.72c3,4.8,6.14,9.71,9.5,14.28,2.56,3.48,9.59,9.31,9.33,12.97-3.71,11.65-9.29,22.71-12.16,34.59l-25.91,38.7-3.6,1.79-66.07-.44c-1.65-1.15-.65-13.3-.8-16.24-1.15-22.29-1.86-44.97-2.72-67.26-.65-16.71,2.21-35.63-9.9-49.32-1.9-2.14-4.2-3.14-5.85-4.92-5.13-5.54-8.66-21.21-10.57-28.91s-2.8-18.64-5.13-25.37c-.78-2.26-1.14-2.47-3.56-2.28-.83-5.22-3.48-12.02-5.39-17.05,10.56-15.03,12.16-19.11,31.41-24.22ZM379.97,596.26c-5.4,1.6-1.61,10.21,5.21,9.77,8.07-.52,5.91-13.07-5.21-9.77Z"/>
    <path class="cls-16" d="M698.86,669.65l-4.49,13.45c11.05,2.91,27.09,7.42,35.93,14.79,3.73,3.11,5.39,7.68,8.49,10.36,8.38,7.23,28.65,11.58,39.49,10.74,7.07-.55,16.18-4.64,23.11-1.54,5.53,2.47,15.49,16.61,22.84,21.14,8.44,5.2,9.44,3.34,17.74,3.78,1.91.1,15.7,9.28,18.47,11.16,1.3.88,2.81.95,2.67,3.16-115.01.24-230.06-.16-345.08-.02l-2.66-1.82c-5.05-10.05-9.04-20.74-14.09-30.78-6.65-13.22-11.28-20.57-27.69-13.14l8.04-22.05c3.37.07,6.36,1.02,9.91,1.42-.17,2.43,1.44,2.21,2.87,2.96,42.34,22.08,129.44,41.79,172.75,17.83,10.73-5.94,22.73-17.1,26.33-28.86l-23.34-4.49c1.75-1.59,5.33-7.19,7.1-7.69,4.79-1.35,15.96-.33,21.62-.39ZM789.74,730.89c-4.58,4.36.58,11.42,7.21,9.44,8.08-2.41-1.29-15.07-7.21-9.44Z"/>
    <path class="cls-15" d="M629.75,470.47h-131.94c-1.1-38.52,2.88-77.67-3.59-115.73,10.16,3.63,19.98,8.53,30.5,11.22s20.01,5.18,29.94-.6c8.31-4.84,24.86-25.74,29.22-34.49.88-1.77.72-3.76,1.83-5.35l26.08.06c26.99,43.18,15.49,96.55,17.96,144.89ZM589.37,451.63c-7.32-14.79-16.52-28.58-25.12-42.62l-2.24-1.35-24.69,43.97h52.06Z"/>
    <path class="cls-6" d="M479.87,592.49l.19,62.17c8.23,8.35,14.02,4.07,14.25-6.91.02-.73.82-1.34.82-1.43,3.53,3.65,16.16,3.66,16.16-2.24v-51.59c38.87.43,77.82-.58,116.68,0l.19,60.37c5.38,10.89,16.86,5.44,14.17-6.54,6.42,3,12.78,5.05,16.65-2.64,1.7-17.01,1.31-34.1,1.3-51.19h22.44v48c0,2.39-3.78,14.65-4.95,17.48-6.25,15.08-21.16,27.62-37.64,28.77-41.6,2.88-86.47-2.26-128.42,0-4.35-1.58-26.16-.33-28.24-2.73-.37-.43,1.06-3.08.26-5.11-1.42-3.59-11.81-14.52-14.99-19.19-1.81-2.66-13.99-21.46-13.99-22.8v-44.41c8.36.09,16.77-.13,25.13,0ZM601.03,645.42v-35.44c0-.1-1.25-1.35-1.35-1.35h-50.26c-.1,0-1.35,1.25-1.35,1.35v35.44h52.95Z"/>
    <path class="cls-7" d="M332.67,561.98c2.65,16.7,4.2,34.1,10.98,50.48,3.42,8.25,4.84,7.59,10.14,13.19,12.6,13.33,8.78,33.14,9.36,49.86.43,12.41,1.51,25.2,1.87,37.61.42,14.5.01,29.07.87,43.56-16.44-.14-32.93.17-49.37,0-3.69-19.86-6.71-40.46-15.04-59.03-.42-.93-.02-2.43-.22-2.88,1.09-.78,2.93-.23,2.7-2.18-.47-4.01-14.42-20.58-17.94-24.31-7.08-7.51-15.61-13.75-22.52-21.48l-.72-2.52c21.36-33.2,41.82-67.05,64.51-99.35,1.91,5.03,4.56,11.83,5.39,17.05Z"/>
    <path class="cls-11" d="M627.96,491.1v96.9c-38.87.43-77.81-.32-116.68,0v-70.43c0-3.61-12.51-10.72-13.91-13.01-1.05-1.72-.42-10.59-.45-13.45h131.04Z"/>
    <path class="cls-16" d="M301.26,694.77c.21.45-.2,1.94.22,2.88,8.33,18.57,11.34,39.16,15.04,59.03-6.32-.07-18.15,1.04-23.6-.19-4.41-1-12.95-8.89-18.27-11.35-5.63-2.61-18.77-7.46-24.55-9.1-.88-5.26-3.57-13.78-6.43-18.25-4.85-7.57-18.54-13.39-20.29-21.88-.98-4.77-.79-23.24-.21-28.51.4-3.57,2.46-5.96,2.69-9.42,10.8-3.32,22.19-6.9,33.17-8.55,13.88,13.55,30.38,26.41,40.03,43.53.55.98,2.13,1.68,2.19,1.81Z"/>
    <path class="cls-15" d="M661.62,325.12c3.49.91,10.42,9.36,12.49,12.63,13.82,21.92,10.84,51.91,10.36,76.6-.19,9.57.98,18.76-1.5,28.1-4.46,16.75-19.84,26.55-36.53,28.07-.82-.11-1.39-4.77-1.46-5.86-3.02-46.11,8.92-97.43-14.32-139.55h30.96Z"/>
    <path class="cls-15" d="M464.16,325.12c10.06,13.99,13.66,31.17,15.7,48.01l-.45,97.35c-23.41-2.43-37.5-19.63-39.07-42.59-2.33-34.18,7.33-72.44-12.53-102.77h36.35Z"/>
    <path class="cls-7" d="M670.14,677.72l23.34,4.49c-3.6,11.76-15.6,22.92-26.33,28.86-43.31,23.96-130.4,4.26-172.75-17.83-1.44-.75-3.04-.53-2.87-2.96,49.2,5.48,104.88-2.24,154.83.9,8.9-2.1,17.06-7.38,23.78-13.46Z"/>
    <path class="cls-17" d="M698.86,669.65c15.57-.16,39.66-2.22,53.56,3.43,43.29,28.01,93.39,51.61,135.59,80.65,1.51,1.04,1.02,1.95,1.13,2.06v.9c-8.28.56-17.61-.02-26.03,0,.14-2.21-1.38-2.28-2.67-3.16-2.77-1.88-16.55-11.06-18.47-11.16-8.3-.44-9.3,1.42-17.74-3.78-7.35-4.52-17.31-18.67-22.84-21.14-6.93-3.1-16.04.99-23.11,1.54-10.85.85-31.12-3.51-39.49-10.74-3.1-2.68-4.76-7.24-8.49-10.36-8.84-7.37-24.88-11.88-35.93-14.79l4.49-13.45Z"/>
    <path class="cls-10" d="M225.87,657.98c-.23,3.45-2.3,5.85-2.69,9.42-.58,5.27-.78,23.74.21,28.51,1.75,8.49,15.44,14.31,20.29,21.88,2.86,4.46,5.55,12.99,6.43,18.25-3.16-.9-9.76-2.01-12.99-1.79-4.61.31-11.94,4.92-14.84,4.12-7.87-6.6-22.07-13.36-28.21-21.23-1.46-1.87-2.27-7.13-5.43-6.22-1.15.33-1.39,1.74-1.21,2.93,1.39,9.2,24.26,22.61,32.12,27.65-.17,3.58-3.69,5.5-5.7,8.07-1.66,2.13-3.1,6.66-5.46,7.1-17.21-.29-34.49.75-51.61-.91l.49-2.64c16.57-24.08,27.95-55.09,43.99-78.94,7.45-11.08,12.68-12.54,24.62-16.21Z"/>
    <path class="cls-3" d="M687.2,544.49c.86-2.75,9.55-.61,11.68-.02,7.88,2.2,15.53,8.09,18.14,15.96,3.22,9.75,2.52,55.28,1.63,67.53-1.43,19.63-16.7,34.93-36.39,36.32-1.37.1-1.58.13-1.35-1.36.81-5.33,5.88-13.55,6.29-19.74v-98.69Z"/>
    <path class="cls-3" d="M667.45,469.57c5.92-3.29,10.54-9.63,15.26-14.36v132.79h-22.44c-2.07-23.25-.28-46.96-.95-70.38-.71-4.27-10.45-9.89-14.12-12.34-.32-5.89-.24-11.86-.19-17.76,7.93-1.53,15.62-7.78,20.68-13.87,1.1-1.33,2.1-2.04,1.76-4.07Z"/>
    <path class="cls-17" d="M460.12,654.39c-4.7,2.64-9.36.26-12.99-2.72s-21.11-23.09-23.32-26.93c-3.28-5.69.11-9.91-.56-15.57-1.3-10.98-15.76-18.59-22.35-27.02-3.35-4.28-6.42-9.6-8.11-14.78-8.93,10.42-16.74,4.49-21.32-6.05-5.28-12.17-9.12-27.78-12.78-40.61,2.79-.74,8.07-2.87,10.79-2.28,4.05.86,9.94,6.67,14.09,8.36,29.29,39.59,50.35,85.71,76.53,127.61Z"/>
    <path class="cls-11" d="M454.74,483.93c6.25,3.3,17.95,2.91,23.56,5.39,2.36,1.04,1.66,13.59,1.61,16.63-.44,23.47-.53,47.29-1.02,70.84-.07,3.29.92,7.76.99,11.22-8.36.09-16.77-.07-25.14,0,.24-34.67-.31-69.41,0-104.08Z"/>
    <path class="cls-2" d="M437.68,526.99c-2.95-.52-20.64,1.4-20.64-2.24v-101.83h18.85c-.62,8.44.42,15.54,3.59,23.33-2.72-.5-1.73,1.37-1.8,3.1-1.02,25.8.76,51.84,0,77.65Z"/>
    <path class="cls-2" d="M627.96,474.95v16.15h-131.04c-.03-2.71-.47-14.07.39-15.31.43-.62,1.14-.79,1.85-.84,42.92.49,85.9-.65,128.8,0Z"/>
    <path class="cls-12" d="M454.74,483.93c.05-5.67-.04-11.37,0-17.04,5.99,1.66,14.94,8.07,21.09,8.07h16.6c-.03,5.07.04,10.18,0,15.25-1.38.38-3.42-1.24-3.6,1.32-.28,4.1-.53,10.15.91,13.93-2.85,3.42-3.73,9.8-1.68,13.79.57,1.1,3.48,3.44,3.48,3.7v65.05c-3.88.03-7.79-.04-11.67,0-.06-3.46-1.06-7.93-.99-11.22.49-23.55.59-47.37,1.02-70.84.06-3.04.75-15.58-1.61-16.63-5.61-2.48-17.31-2.09-23.56-5.39Z"/>
    <path class="cls-3" d="M435.89,602.36l-38.64-65.9c9.88-12.38,26.3-6.53,33.41,6.09,1.68,2.99,5.24,12.35,5.24,15.4v44.41Z"/>
    <path class="cls-15" d="M654.89,526.09v116.19c0,1.58-3.84,2.62-5.64,2.09-1.2-.36-5.13-4.78-5.13-5.67v-113.5l10.77.9Z"/>
    <path class="cls-15" d="M496.02,525.2c3.19,1.38,10.08-.57,10.77,3.14l-.45,114.39c-2.43,4.97-10.32-2.01-10.32-3.14v-114.39Z"/>
    <path class="cls-12" d="M638.73,475.85c.35.35.99.53.89,1.32-.9,8.55,2.64,18.52-.2,26.73-1.4,4.04-4.91,2.74-4.33,11.01.36,5.12,4.54,7.56,4.54,8.04v65.05c-3.88.03-7.79-.04-11.67,0v-96.9l8.84-1.03c1.88-5.09-1.15-9.16,1.93-14.22Z"/>
    <path class="cls-6" d="M439.48,446.24c1.35,3.33,3.5,7.17,5.54,10.16.93,1.37,5.23,5.16,5.23,5.54v78.5l-4.91-8.1c-1.57-1.85-5.32-4.95-7.65-5.36.76-25.81-1.02-51.85,0-77.65.07-1.73-.92-3.6,1.8-3.1Z"/>
    <path class="cls-1" d="M450.24,627.48c-1.34-.21-1.67-1.69-2.26-2.67-1.49-2.52-7.24-12-7.56-13.97-2.29-14.21,1.11-34.98-.01-50.23-.81-10.95-4.87-21.29-12.6-29.12,7.65-1.03,12.31.92,16.33,7.44,8.5,13.79,4.73,50.32,5.18,67.5.17,6.67,1.79,14.06.93,21.05Z"/>
    <path class="cls-12" d="M495.13,646.32c0,.09-.81.7-.82,1.43-.23,10.98-6.01,15.26-14.25,6.91l-.19-62.17c2.1.03,11.67-.7,11.67,1.35v46.65c0,.89,3.58,5.11,3.59,5.83Z"/>
    <path class="cls-12" d="M642.32,646.32c2.69,11.98-8.79,17.43-14.17,6.54l-.19-60.37c2.64.04,10.75-.95,11.54,1.47,1.53,14.71-1.61,32.19.1,46.55.39,3.25,2.38,4.32,2.72,5.81Z"/>
    <path class="cls-7" d="M495.13,721.68c-2.28,5.75-7.08,10.48-10.05,15.53-1.19,2.02-3.96,10.06-4.44,10.37-3.48,2.24-17.61-1.45-17.74-7.48-.11-5.24,8.97-15.67,8.88-22,8.16-7.93,16.18-10.29,22.83.99.54.91.3,2.23.51,2.6Z"/>
    <path class="cls-15" d="M492.44,470.47h-4.5c-.92-33.33,1.97-67.72-1.9-100.82-1.66-14.17-5.91-26.75-10.65-40.04.86-.92,4.68,2.31,5.42,3.09,7.16,7.61,11.09,34.29,11.66,44.86,1.65,30.42-1.31,62.33-.03,92.9Z"/>
    <path class="cls-8" d="M471.79,718.09c.09,6.33-8.99,16.76-8.88,22,.13,6.03,14.26,9.73,17.74,7.48.47-.31,3.25-8.35,4.44-10.37,2.96-5.05,7.76-9.78,10.05-15.53.86,1.54,1.13,2.28,1.8,3.59-2.76,5.84-4.49,12.65-9.67,16.8l-4.69,14.6c-12.55.05-25.14-.03-37.69,0l22.59-34.38c.94-1.96,2.99-2.89,4.33-4.19Z"/>
    <path class="cls-8" d="M256.38,743.22c-.77-.14-.85.49-.73,1.15.4,2.28,2.5,8.01,3.43,10.52-.85,1.71-1.24,1.73-3.06,1.86-13.52.94-28.18-.82-41.82-.07-1.13-1,8.46-11.84,9.86-13.01,12.3-10.36,19.82-4.56,32.32-.44Z"/>
    <path class="cls-2" d="M422.43,418.43c-.96-.88,2.58-5.73,3.12-7.19,6.76-18.29,6.66-48.22.27-66.62-4.09-11.78-14.65-22.95-24.21-8.45-10.21,15.49-10.2,50.25-6.74,68.1.57,2.95,5.69,14.52,5.11,15.07-2.62,2.5-6.11-5.95-6.55-7.35-3.8-12.28-3.68-55.48-.2-68.02,3.15-11.35,12.92-24.63,25.54-15.62,17.04,12.17,16.74,63.82,11.1,81.85-.65,2.08-4.26,11.19-7.45,8.25Z"/>
    <path class="cls-15" d="M640.52,470.47h-3.58c-1.43-40.29,4.36-81.77-6.93-120.93l-10.12-24.41c5.41-1.46,9.02,6.9,10.92,11.06,4.23,9.24,6.51,20.71,7.8,30.79,4.32,33.8.71,69.41,1.92,103.5Z"/>
    <path class="cls-10" d="M496.92,725.27c5.18,10.2,10.64,20.49,14.36,31.4-9.56.04-19.16-.03-28.72,0l4.69-14.6c5.18-4.15,6.91-10.96,9.67-16.8Z"/>
    <path class="cls-13" d="M690.79,418.42c.69-2.96,3.02-4.92,4.28-7.82,2.97-6.83,4.39-17.43,4.73-24.88,1.02-22.13-3.98-45.42-19.79-61.49,7.19-1.55,12.88,8.86,15.73,14.33,9.47,18.2,11.48,50.57,5.37,70-1.6,5.09-3.64,11.49-10.32,9.86Z"/>
    <path class="cls-13" d="M701.56,418.43c-.63-.59,3.05-7.78,3.53-9.47,4.69-16.52,4.31-39.2.34-55.87-2.53-10.64-7.45-20.64-14.65-28.86,9.71.3,16.89,17.98,19.1,26.21,3.56,13.28,4.02,45.15.38,58.3-.74,2.68-2.58,7.98-5.14,9.22-.82.39-3.2.8-3.57.46Z"/>
    <path class="cls-2" d="M690.78,411.25c-1.59-.62-1.01-5.32-.92-6.76.67-10.91,2.58-22.26,1.87-33.2-1.14-17.45-10.81-34.51-22.47-47.06,4.74-.33,9.57,4.29,12.41,7.77,16.24,19.9,17.14,55.91,9.12,79.24Z"/>
    <path class="cls-10" d="M256.38,743.22c9.18,3.03,16.62,3.89,23.8,10.79.9.86,3.64.8,1.77,2.67l-22.03-.44c-.48-.26-.67-.86-.85-1.36-.93-2.51-3.03-8.23-3.43-10.52-.11-.66-.03-1.28.73-1.15Z"/>
    <path class="cls-12" d="M667.45,469.57c.34,2.03-.66,2.74-1.76,4.07-5.06,6.09-12.75,12.34-20.68,13.87.04-4.18-.03-8.39,0-12.57,7,.42,16.33-1.99,22.44-5.38Z"/>
    <path class="cls-12" d="M416.15,404.07l2.72-22.84c-1.09-11.98-2.56-23.8-5.42-35.48,1.97-.39,2.03.95,2.73,2.2,5.41,9.7,5.79,39.89,2.92,50.55-.47,1.75-1.11,4.81-2.95,5.57Z"/>
    <path class="cls-12" d="M424.22,401.38c-1.47,5.9-4.44,15.66-12.1,15.31-11.77-.53-14.61-24.48-13.47-33.26l4.91,21.1c4.83,14.71,15.17,7.98,18.86-3.15h1.8Z"/>
    <path class="cls-16" d="M638.73,475.85c-3.07,5.07-.05,9.13-1.93,14.22l-8.84,1.03v-12.56c2.91-.09,6.27.02,5.39-3.59,2.02.1,3.81-.66,5.39.9Z"/>
    <path class="cls-12" d="M412.54,397.79c-1.27.21-1.3-1.59-1.52-2.49-2.68-10.87-.75-24.08-.25-35.19,1.79.37,1.52,1.84,1.78,3.15,2.17,11.18,2.26,23.37,0,34.53Z"/>
    <path class="cls-16" d="M422.43,401.38c4.32-13.03,3.28-37-.46-50.23-1.64-5.79-4.45-10.93-7.18-16.14,3.18,1.84,5.57,6.7,6.91,10.13,6.11,15.63,6.55,40.05,2.52,56.25h-1.8Z"/>
    <path class="cls-12" d="M399.09,368.19c.41-8.53-2.03-30.69,12.13-28.71,1.2.17,2.83.62,1.34,1.79-11.89.11-11.79,18.19-12.57,26.92h-.9Z"/>
    <path class="cls-15" d="M647.71,513.53c2.44,2.1,6.79,3.49,6.28,7.17-3.14.45-10.54-.11-12.34-2.97-.54-.87-.08-2.18-.23-2.41l6.28-1.79Z"/>
    <path class="cls-17" d="M404.47,360.56c.34-2.99,2.09-8.88,4.04-11.21.44,4.72-1.69,9.87-2.24,14.81-.78,7.03-.61,14.48-.91,21.53-.05,1.1.68,3.33-.9,3.13.73-9-.99-19.44,0-28.26Z"/>
    <path class="cls-1" d="M492.43,490.21c-.02,3.31.66,11.37-.12,13.81-.51,1.58-2.41,1.26-2.57,1.45-1.44-3.79-1.18-9.83-.91-13.93.17-2.56,2.22-.94,3.6-1.32Z"/>
    <path class="cls-15" d="M499.61,514.43c1.34,2.46,4.83,2.56,5.31,4.12,1.55,5-9.27,1.8-9.79,1.25-1.52-1.6,3.47-2.45,2.69-4.47l1.8-.9Z"/>
    <path class="cls-2" d="M499.61,514.43l-1.8.9h-6.29c-1.08-4.66,2.04-7.04,6.3-4.94,2.12,1.04,1.33,3.21,1.78,4.04Z"/>
    <path class="cls-17" d="M435.89,418.43c-1.47-.33-4.97,1.13-4.5-1.34l4.5-12.11v13.46Z"/>
    <path class="cls-17" d="M641.42,515.33c-.11-.17-1.52.78-1.87-1.31-.72-4.21,3.65-5.1,6.66-3.23,1.08.67,1.09,2.4,1.49,2.75l-6.28,1.79Z"/>
    <path class="cls-7" d="M406.26,389.72l2.69,16.15c-2.64-2.42-4.1-9.59-4.37-13.12-.14-1.89-.94-3.53,1.68-3.03Z"/>
    <path class="cls-12" d="M633.34,474.95c.88,3.61-2.47,3.5-5.39,3.59v-3.59c1.79.03,3.6-.09,5.39,0Z"/>
    <path class="cls-12" d="M399.98,381.64c-2.5.37-1.67-.43-1.79-2.22-.19-2.82.12-5.71,0-8.53l1.78,10.76Z"/>
    <path class="cls-17" d="M399.99,368.19c-.13,1.45.56,2.08-1.34,1.8-1.36-.46.44-1.71.44-1.8h.9Z"/>
    <path class="cls-16" d="M889.14,755.78c.24.24,1.85-.5,1.8.45.05.79-1.11.4-1.8.45v-.9Z"/>
    <path class="cls-12" d="M379.97,596.26c11.12-3.3,13.29,9.25,5.21,9.77-6.82.44-10.62-8.17-5.21-9.77Z"/>
    <path class="cls-17" d="M789.74,730.89c5.92-5.63,15.29,7.03,7.21,9.44-6.63,1.98-11.8-5.09-7.21-9.44Z"/>
    <path class="cls-14" d="M601.03,645.42h-52.95v-35.44c0-.1,1.25-1.35,1.35-1.35h50.26c.1,0,1.35,1.25,1.35,1.35v35.44ZM597.44,641.83v-28.26c0-.1-1.25-1.35-1.35-1.35h-43.08c-.1,0-1.35,1.25-1.35,1.35v28.26h45.77Z"/>
    <path class="cls-3" d="M597.44,641.83h-45.77v-28.26c0-.1,1.25-1.35,1.35-1.35h43.08c.1,0,1.35,1.25,1.35,1.35v28.26Z"/>
    <path class="cls-9" d="M16.09,660.33c4.1-.54,8.15,5.78,2,6.99.76-3.37-3.31-2.97-2-6.99Z"/>
  </g>
</svg>