<?xml version="1.0" encoding="UTF-8"?>
<svg xmlns="http://www.w3.org/2000/svg" viewBox="0 0 1024 1024">
  <defs>
    <style>
      .cls-1 {
        fill: none;
        stroke: #303030;
        stroke-miterlimit: 10;
        stroke-width: 5px;
      }

      .cls-2 {
        fill: #323232;
      }

      .cls-3 {
        fill: #eaebea;
      }

      .cls-4 {
        fill: #7f7373;
      }

      .cls-5 {
        fill: #fbfcfc;
      }

      .cls-6 {
        fill: #303030;
      }

      .cls-7 {
        fill: #c8c9c8;
      }

      .cls-8 {
        fill: #cfcfce;
      }

      .cls-9 {
        fill: #f9f9f9;
      }

      .cls-10 {
        fill: #f2f2f2;
      }

      .cls-11 {
        fill: #ededed;
      }

      .cls-12 {
        fill: #333433;
      }
    </style>
  </defs>
  <g id="_검은색_배경" data-name="검은색 배경">
    <rect class="cls-4" x="0" y="0" width="1024" height="1024"/>
  </g>
  <g id="_레이어_1" data-name="레이어 1">
    <path class="cls-6" d="M489,615c28.64.48,57.36-.36,86,0v-133.5c0-12.18,23.53-41.67,29.54-53.46,1.39-4.65-.7-17.82.89-20.11,1.42-2.03,11.61-.44,14.56-.94v-14.5c0-.17,1.54-1.76,2.02-1.98,2.23-1.04,22.55-.94,24.4.37,1.58,2.21.22,14.03.99,15.16,1.74,2.53,12.3-.59,15.15,1.89,1.66,2.39-.58,17.19.89,22.11,2.4,8.06,19.44,26.7,24.37,36.63,1.47,2.97,5.17,13.04,5.17,15.83v132.5h41.5c5.29,0,21.52,5.34,26.5,8,45.41,24.26,50.87,91.01,13.01,124.51l-15.01,10.48c9.84-.02,19.71.04,29.57.05,1.89,0,3.78-1.04,4.43-1.04,37.67.08,75.72,2.06,113.55.95,4.23.06,4.88,3.43,4.45,7.05-40.62-.24-82.15.79-123,1,.78-3.18-3.88-2.98-3,0-2.99.01-6.01-.01-9,0-3.27-4.46-7.72-.6-10.46-.47-1.95.09-4.62-.58-7.07-.55-1.92.02-4.03-.94-3.46,2.02-7.65.03-15.35-.03-23,0,.56-3.02-1.53-1.94-3.45-2-2.99-.1-6.1-.12-9.09,0-1.92.08-4.01-1.03-3.45,2-51.98.16-104.02-.06-156,0-.09-.93.54-1.75-.63-2.02-2.01-.47-10.95-.82-9.37,2.02-1.33,0-2.67,0-4,0-.09-.93.54-1.74-.63-2.02-.96-.23-9.96-.29-10.38.02-.16.12.1,1.44,0,2-8.65,0-17.35,0-26,0,.78-3.18-3.88-2.98-3,0-21.65,0-43.35.02-65,0,1.67-3.02-7.63-2.28-8.01-2-.16.12.1,1.44,0,2-32.65-.03-65.35.06-98,0-.09-.93.54-1.74-.63-2.02-.96-.23-9.96-.29-10.38.02-.16.12.1,1.44,0,2-10.65-.02-21.35.03-32,0-.09-.93.54-1.75-.63-2.02-2.01-.47-10.95-.82-9.37,2.02-4.65-.01-9.35.01-14,0,.56-3.02-1.53-1.94-3.45-2-4.59-.15-9.51-.18-14.09,0-1.93.08-4.01-1.03-3.45,2-5.65-.02-11.35.03-17,0,.91-3.23-5.09-2.97-4,0-9.65-.05-19.26-1.18-29-1-1.56-3.63-8.89-.95-12,0-12.32-.09-24.68.06-37,0,1.09-3.3-7.42-2.96-6,0-2.99,0-6.01-.06-9,0,1.67-3.02-7.63-2.28-8.01-2-.16.12.1,1.44,0,2-1.99-.04-4.01.09-6,0-6.54-.28-18.73,3.11-15-6,1.78-.57,3.56-.93,5.45-1.04,24.56-1.34,51.13-.6,75.55-.96,1.67-.02,3.33.02,5,0,.41,1.56,3.68,1.5,4,0,18.78-.25,37.51-1.03,56-1-1.54,2.97,8.15,3.31,7,0,1.23.02,2.8.95,4,1,.93,1.31,3.43,1.67,4,0,1.55.07,3.51.16,5,0,1.59-.17,2.32.66,2.01-1.49.07-1.07-1.56-.26-2.01-.51-2.14-1.17-2.5-1.87-4-3,.24-2.13.13-2.24-2-2-1.39-1.16-2.02-2.1-3-3,5.31-3.62-.76-6.83-5-4-1.73-1.75-1.88-2.59-3-4,.32-1.91-.08-2.34-2-2-1.16-1.55-1.83-3.85-2-4,.29-2.06.06-2.28-2-2-.12-.28.13-.73,0-1,.04-2.37.67-3.47-2-3-1.78-3.94-5.2-10.8-5-15,.01-.28,3.24-3.38-1-3-.1-1.23-.09-2.77,0-4,.01-.13.95-.27,1.04-2.43.23-5.11-1.09-22.49,1.97-25.57,3.5-3.52.09,8.58,3.99,7-.05,2.32-.05,4.68,0,7-.93.09-1.75-.54-2.02.63-.47,2.01-.82,10.95,2.02,9.37,1,15.09,8.04,30.53,20,40,.07.32-.06.68,0,1,.65,3.33-.5,5.15,4.44,5.94l.56-.94c3.03,2.35,17.28,10,20.5,10h46.5l-11-7c-10.6-6.96-17.69-14.86-25-25,4.03-1.72,1.01-5.44-2-3-28.82-43.38-23.11-99.07,15-135,3.53-3.33,9.62-7.96,13.67-10.82,1.55-1.09,6.76-4.83,7.33-5.18,1.46-.89,3.66-2.27,5-3,17.16-9.33,42.16-11.75,61.22-8.72,9.97,1.58,19.03,5.76,28.62,8.58,8.97-13.77,23.13-25.94,31.79-39.73,14.55-23.18,8.31-56.88-14.63-72.13-5.75-3.82-11.44-6.43-18.46-7.04-33.8,2.08-70.64-2.65-104.07,0-38.57,3.05-53.76,51.35-32.88,80.95,3.96,5.61,10.79,10.76,14.42,16.08.63.92.97,3.55,2.19,5.31,1.58,2.27,10.76,14.31,10.86,15.24s.02,1.72-.54,2.46c-4,1.76-7.43,6.84-10.52,9-2.55,1.79-5.94,3.9-8.98,2.49-1.25-.58-11.84-11.54-13.53-13.47-35.95-41.16-37.17-108.45,12.51-139.01,1.54-.95,2.76-2.21,3.99-.99.4-2.63.07-3.48-2.65-3.67-4.65-.34-2.78,2.53-3.34,3.67-.38.77-12.17,6.55-14.92,8.58-13.72,10.19-26.68,30.71-30.08,47.42l-7-1c.06-.32-.07-.68,0-1,1.7-.56,2.69-1.91,1-3,.07-.32-.07-.68,0-1,2.69-.78,1.68-3.19,2-5,.11-.62-.12-1.38,0-2,2.67.47,2.04-.63,2-3,2.98-8.87,4.1-10.38,9-18,3.15.55,1.55-1.09,2-2,8.93-18.13,38.72-32.58,58.46-34.04,50.14,5.56,123.5-15.74,162.54,23.04,26.77,26.59,36.03,74.02,16.81,107.31-9.46,16.37-26.36,30.31-36.25,45.76-.67,1.04-1.48,1.92-1.35,3.28.35,3.51,11.95,16.33,13,21.44,4.9.49,9.88.13,14.8.21ZM620.01,414.99h-6.01v7.01h6.01v-7.01ZM308.99,423c-.39-.32-7.22.95-4.98,4,.46-.44,7.02-2.35,4.98-4ZM402.51,423.01c-2.61.7-1.42,4.9,1.98,3.98,2.61-.7,1.42-4.9-1.98-3.98ZM622,430c-2.06.08-4.54-.35-6.46.03-3.52.69-10.65,12.53-12.95,16.06-9.23,14.15-21.27,31.48-19.59,48.92,2.99.04,6.01-.06,9.01,0,30.96.6,62.03-.45,93.01,0,1.81-25.58-19.6-44.35-32.01-64.5-1.79-1.09-26.7-.67-30.99-.51ZM592,503c-1.65.03-8.86-.49-9.02.58v111.43c2.67.04,5.36-.07,8.02,0,30.14.7,60.39-.56,90.55.05,1.02.22,3.45-.72,3.45-1.55v-109c0-.83-2.42-1.77-3.45-1.55-29.84.5-59.73-.5-89.55.05ZM330.73,613.15c-4.24,1.13-5.13,7.33-.71,9.33,8.66,3.91,9.69-11.73.71-9.33ZM591,623h-113c19.43,47.43,0,94.72-39.06,124.44l-18.94,10.56h111.5c8.06,0,20.58-20.45,23.67-27.33,9.66-21.45,8.34-39.78,12.12-61.88,3.04-17.83,9.92-33.75,23.71-45.79ZM711,623h-101.5c-4.65,0-15.23,7.95-18.47,11.53-20.5,22.66-14.86,57.24-23.02,84.98-4.22,14.37-11.25,28.01-22.02,38.48h153c-12.13-8.68-23.03-18.34-29.18-32.32-14.61-33.18-3.3-77.05,27.86-96.5l13.32-6.18ZM721,703.01c1.19,4.36,8.34,7.21,12.5,7.08,22.63-.68,21.15-53.27-10.77-47.85-26.84,4.56-28.12,56.82,2,61.52,35.44,5.53,48.21-37.47,29.09-63.09-27.9-37.4-69.79-2.81-66.7,35.7,4.42,55.14,73.83,60.92,87.58,7.84,14.65-56.53-52.9-105.32-90.12-52.12-19.69,28.14-18.59,70.26,9.49,92.33,43.83,34.44,97.99-5.9,97.82-56.02-.07-18.91-11.37-44.91-28.6-54.19-1.47-.79-6.27-3.98-7.29-1.21,42.17,26.31,36.91,103.25-14.79,114.74-56.65,12.59-83.53-70.82-39.13-102.13,46.09-32.51,90.75,38.28,56.45,74.45-21.01,22.16-58.29,11.56-63.09-18.99-9.07-57.68,67.19-63.75,60.44-6.66-1.95,16.48-19.08,30.24-34.85,20.06-16.03-10.36-14.05-46.24,7.36-43.36,18.71,2.52,12.04,35.9-7.41,31.91ZM303,652.5c-.69,5.8,0,13.88,0,20,0,2.63,8,2.63,8,0v-16c0-.79,1.53-6.77,1.94-8.06,1.31-4.07,9.96-15.44-.31-15.2-4.14.1-9.2,15.6-9.64,19.26ZM279.99,760.01c-1.09-1.09-3.08.9-1.99,1.99s3.08-.9,1.99-1.99Z"/>
    <path class="cls-12" d="M472.25,265.75c.63.73,13.84,5.63,17.47,8.03,51.03,33.61,19.25,113.18-40.76,100.76-55.35-11.46-60.46-88.14-4.77-107.85,4.96-1.76,5.38,1.27,4.81-6.69-8.6,3-13.97-6.13-5.98-9.47,2.28-.95,33.46-.93,34.97-.02.78.47,4.14,5.98,3.94,6.89-.68,3-7.66,2.34-9.98,3.06-1.41.81-.34,4.55.3,5.29ZM450,366c38.29,9.44,69.29-31.53,51.86-66.36-2.24-4.48-10.07-15.77-14.86-16.64-20.38-17.52-51.28-11.13-65.81,10.69-18.83,28.25-3.57,64.33,28.81,72.31Z"/>
    <path class="cls-2" d="M252,484c-3.36,16.51-.67,37.2,5.82,52.68,9.29,22.15,27.68,36.63,42.01,54.98-9.47,12.71-18.61,24.62-23.54,40.13-7.97,25.07-6.51,44.91,3.54,68.88,2.65,6.32,7.69,12.42,8.17,19.33-.99.36-2.52,4.28-6.49.98-2.54-2.11-10.75-20.59-12.25-24.74-4.4-12.16-7.06-26.25-6.25-39.25.49-7.95,3.35-15.02,3.99-23-19.29,11.5-20.59,30.76-20.99,51-3.9,1.58-.49-10.52-3.99-7-3.06,3.08-1.75,20.46-1.97,25.57-.1,2.16-1.03,2.3-1.04,2.43-1.5-1.57-.99-3.56-1.03-5.46-.69-30.01-2.7-57.57,26.14-74.93,1.72-1.03,5.61-1.77,6.64-2.86.85-.91,2.79-7.15,4.08-9.42,2-3.51,13.84-19.73,13.96-20.99.28-2.94-15.36-17.83-18.31-21.33-23.1-27.35-31.74-52.29-25.49-88.01l7,1Z"/>
    <path class="cls-1" d="M778.81,508.22c29.89-1.61,32.38,42.12,6.61,45.69-34.72,4.81-36.91-44.06-6.61-45.69Z"/>
    <path class="cls-12" d="M748.99,408.01c.81.85,8.94-2.43,9.83,3.73.94,6.51-6.41,5.42-10.82,5.27-.45.38,3.95,8.59-2.54,9.96-9.89,2.09-5.07-7.6-6.46-8.97-.63-.62-8.25,1.61-8.83-3.72-.83-7.58,7.23-5.71,7.83-6.27.84-.79-2.93-11.02,7.49-9.01,4.92.95,2.97,8.45,3.5,9.02Z"/>
    <path class="cls-12" d="M320.99,268.01c.75.73,7.65-2.19,8.09,4.49.49,7.49-6.96,3.38-8.09,4.5-.63.62,1.54,7.79-1.99,9.5-11.01,5.35-7.26-8.76-8-9.51-.89-.89-8.93,2.45-9.83-3.73-1.11-7.57,9.36-5.79,9.83-6.26,1.32-1.32-3.1-9.97,6.46-7.97,5.7,1.19,2.78,8.25,3.53,8.97Z"/>
    <path class="cls-12" d="M148.73,533.17c12.85-2.66,13.5,20.2-1.79,15.37-7.32-2.31-5.39-13.89,1.79-15.37Z"/>
    <path class="cls-12" d="M185.76,533.17c9.51-1.56,13.06,14.48,2.65,15.81-11.49,1.47-12.94-14.12-2.65-15.81Z"/>
    <path class="cls-2" d="M185,758c-24.42.36-50.99-.38-75.55.96-1.89.1-3.67.47-5.45,1.04.28-.68-.05-1.91.93-2.53,24.7-.47,49.81-.99,74.61-.5,1.9.04,3.89-.47,5.46,1.03Z"/>
    <path class="cls-2" d="M261,748c-1.24-1.14-2.82-1.79-5-4,4.24-2.83,10.31.38,5,4Z"/>
    <path class="cls-2" d="M257,757c1.15,3.31-8.54,2.97-7,0,2.33,0,4.67-.03,7,0Z"/>
    <path class="cls-2" d="M194,758c-.32,1.5-3.59,1.56-4,0,1.16-.02,2.96.01,4,0Z"/>
    <path class="cls-2" d="M265,758c-.57,1.67-3.07,1.31-4,0,.71.03,2.33-.07,4,0Z"/>
    <path class="cls-2" d="M246,478c.38-1.68-.74-4.25,2-5-.32,1.81.69,4.22-2,5Z"/>
    <path class="cls-2" d="M239,710c4.24-.38,1.01,2.72,1,3-1-.83-.91-1.85-1-3Z"/>
    <path class="cls-2" d="M245,728c2.67-.47,2.04.63,2,3-.1-.22-1.17-1.17-2-3Z"/>
    <path class="cls-2" d="M245,482c.31-1.52.89-2.53,1-3,1.69,1.09.7,2.44-1,3Z"/>
    <path class="cls-2" d="M250,468c.04,2.37.67,3.47-2,3,.51-2.72,1.94-2.82,2-3Z"/>
    <path class="cls-2" d="M264,751c2.13-.24,2.24-.13,2,2-1.85-1.4-1.86-1.88-2-2Z"/>
    <path class="cls-2" d="M251,738c1.92-.34,2.32.09,2,2-.11-.14-.48.04-2-2Z"/>
    <path class="cls-2" d="M270,756c.45.25,2.07-.56,2.01.51.32,2.15-.42,1.32-2.01,1.49v-2Z"/>
    <path class="cls-2" d="M247,732c2.06-.28,2.29-.06,2,2-1.28-1.1-.45,1.45-2-2Z"/>
    <path class="cls-2" d="M261,448c-.45.91,1.15,2.55-2,2,.36-.56-.97-2.66,2-2Z"/>
    <path class="cls-8" d="M711,623l-13.32,6.18c-31.16,19.45-42.47,63.32-27.86,96.5,6.15,13.98,17.05,23.64,29.18,32.32h-153c10.76-10.48,17.79-24.11,22.02-38.48,8.15-27.75,2.51-62.32,23.02-84.98,3.24-3.58,13.82-11.53,18.47-11.53h101.5Z"/>
    <path class="cls-8" d="M591,623c-13.79,12.04-20.66,27.96-23.71,45.79-3.77,22.1-2.45,40.43-12.12,61.88-3.1,6.87-15.61,27.33-23.67,27.33h-111.5l18.94-10.56c39.06-29.71,58.49-77.01,39.06-124.44h113Z"/>
    <path class="cls-7" d="M721,703.01c19.45,3.98,26.12-29.39,7.41-31.91-21.41-2.88-23.4,33-7.36,43.36,15.76,10.18,32.9-3.58,34.85-20.06,6.75-57.09-69.51-51.03-60.44,6.66,4.8,30.54,42.08,41.14,63.09,18.99,34.3-36.17-10.36-106.96-56.45-74.45-44.39,31.31-17.51,114.72,39.13,102.13,51.69-11.49,56.96-88.43,14.79-114.74,1.02-2.76,5.82.42,7.29,1.21,17.23,9.28,28.54,35.28,28.6,54.19.17,50.12-53.99,90.47-97.82,56.02-28.08-22.07-29.18-64.19-9.49-92.33,37.22-53.2,104.77-4.41,90.12,52.12-13.75,53.09-83.16,47.3-87.58-7.84-3.09-38.51,38.8-73.1,66.7-35.7,19.12,25.62,6.35,68.62-29.09,63.09-30.12-4.7-28.85-56.96-2-61.52,31.92-5.42,33.41,47.17,10.77,47.85-4.16.13-11.31-2.72-12.5-7.08Z"/>
    <path class="cls-8" d="M622,430c4.29-.16,29.2-.58,30.99.51,12.41,20.14,33.83,38.92,32.01,64.5-30.97-.46-62.04.6-93.01,0-.38-7.01-.2-12.48,2.5-19,6.32-15.28,21.04-30.52,27.5-46Z"/>
    <path class="cls-10" d="M299,429c-49.68,30.56-48.46,97.85-12.51,139.01,1.69,1.93,12.28,12.89,13.53,13.47,3.04,1.42,6.43-.7,8.98-2.49-.43,5.16-.36,9.72,6,9-38.11,35.93-43.82,91.62-15,135,.69,1.03,1.26,1.98,2,3,7.31,10.14,14.4,18.04,25,25-1.89,1.56-6.88-2.17-8.93-3.57-10.08-6.89-19.68-17.16-27.53-26.5-.62-.61-1.73-1.22-2.54-.93-.49-6.91-5.52-13-8.17-19.33-10.05-23.97-11.5-43.81-3.54-68.88,4.93-15.51,14.07-27.42,23.54-40.13-14.33-18.35-32.72-32.83-42.01-54.98-6.49-15.48-9.18-36.17-5.82-52.68,3.4-16.71,16.36-37.23,30.08-47.42,2.74-2.03,14.54-7.81,14.92-8.58l2,1Z"/>
    <path class="cls-8" d="M263,657c-.81,13,1.85,27.09,6.25,39.25,1.5,4.15,9.71,22.63,12.25,24.74,3.97,3.3,5.5-.63,6.49-.98.81-.29,1.93.32,2.54.93,7.85,9.34,17.45,19.61,27.53,26.5,2.05,1.4,7.05,5.12,8.93,3.57l11,7h-46.5c-3.22,0-17.47-7.65-20.5-10-1.36-1.06-2.68-4.29-5-5-.06-.32.07-.68,0-1-1.71-7.78-5.65-14.09-7.51-21.99-3.83-16.25-4.53-44.87,1.65-60.42.6-1.52.67-3.08,2.86-2.59Z"/>
    <path class="cls-10" d="M263,657c-2.19-.48-2.25,1.07-2.86,2.59-6.19,15.55-5.48,44.16-1.65,60.42,1.86,7.9,5.8,14.21,7.51,21.99-11.96-9.47-19-24.91-20-40-.22-3.29.07-6.69,0-10-.05-2.32-.05-4.68,0-7,.4-20.24,1.7-39.5,20.99-51-.64,7.98-3.5,15.05-3.99,23Z"/>
    <path class="cls-9" d="M592,503l-1,112c-2.66-.06-5.35.05-8.01,0v-111.43c.15-1.07,7.35-.54,9.01-.58Z"/>
    <path class="cls-9" d="M622,430c-6.46,15.48-21.18,30.72-27.5,46-2.7,6.52-2.88,11.99-2.5,19-2.99-.06-6.01.04-9.01,0-1.68-17.44,10.36-34.77,19.59-48.92,2.3-3.53,9.43-15.37,12.95-16.06,1.92-.38,4.4.05,6.46-.03Z"/>
    <path class="cls-10" d="M303,652.5c.44-3.65,5.5-19.16,9.64-19.26,10.26-.24,1.61,11.13.31,15.2-.41,1.29-1.94,7.27-1.94,8.06v16c0,2.63-8,2.63-8,0,0-6.12-.69-14.2,0-20Z"/>
    <path class="cls-3" d="M330.73,613.15c8.98-2.4,7.95,13.24-.71,9.33-4.42-2-3.53-8.19.71-9.33Z"/>
    <path class="cls-2" d="M776,766c-6.4.03-14.05.97-21,1-.57-2.96,1.55-1.99,3.46-2.02,2.46-.03,5.13.64,7.07.55,2.74-.13,7.19-3.99,10.46.47Z"/>
    <rect class="cls-11" x="613.99" y="414.99" width="6.01" height="7.01"/>
    <path class="cls-2" d="M247,767c-.56-3.03,1.53-1.92,3.45-2,4.58-.18,9.5-.15,14.09,0,1.93.06,4.01-1.02,3.45,2-6.99-.02-14.01.03-21,0Z"/>
    <path class="cls-2" d="M716,767c-.56-3.03,1.53-1.92,3.45-2,2.99-.12,6.1-.1,9.09,0,1.92.06,4.01-1.02,3.45,2-5.32.02-10.68-.02-16,0Z"/>
    <path class="cls-2" d="M197,766c-3.84.07-8.27.03-12,0,3.11-.95,10.44-3.63,12,0Z"/>
    <path class="cls-2" d="M125,766c.09-.56-.17-1.88,0-2,.38-.28,9.68-1.02,8.01,2-3.02.06-4.95.06-8,0Z"/>
    <path class="cls-2" d="M535,767c.09-.56-.17-1.88,0-2,.42-.31,9.41-.25,10.38-.02,1.17.28.54,1.09.63,2.02-3.66,0-7.34,0-11,0Z"/>
    <path class="cls-2" d="M324,767c.09-.56-.17-1.88,0-2,.42-.31,9.41-.25,10.38-.02,1.17.28.54,1.09.63,2.02-3.66,0-7.34,0-11,0Z"/>
    <path class="cls-2" d="M297,428c.56-1.14-1.31-4.01,3.34-3.67,2.72.2,3.05,1.04,2.65,3.67-1.23-1.21-2.45.05-3.99.99l-2-1Z"/>
    <path class="cls-2" d="M246,692c.07,3.31-.22,6.71,0,10-2.84,1.58-2.49-7.36-2.02-9.37.27-1.17,1.09-.54,2.02-.63Z"/>
    <path class="cls-2" d="M282,767c-1.58-2.84,7.36-2.49,9.37-2.02,1.17.27.54,1.09.63,2.02-3.33,0-6.67,0-10,0Z"/>
    <path class="cls-2" d="M550,767c-1.58-2.84,7.36-2.49,9.37-2.02,1.17.27.54,1.09.63,2.02-3.33,0-6.67,0-10,0Z"/>
    <path class="cls-2" d="M142,766c-1.42-2.96,7.09-3.3,6,0-1.68,0-4.35,0-6,0Z"/>
    <path class="cls-2" d="M271,748l-.56.94c-4.94-.8-3.79-2.61-4.44-5.94,2.32.71,3.64,3.94,5,5Z"/>
    <path class="cls-6" d="M402.51,423.01c3.4-.92,4.59,3.28,1.98,3.98-3.4.92-4.59-3.28-1.98-3.98Z"/>
    <path class="cls-2" d="M433,767c.09-.56-.17-1.88,0-2,.38-.28,9.68-1.02,8.01,2-2.66,0-5.34,0-8,0Z"/>
    <path class="cls-6" d="M302,726c-.74-1.02-1.31-1.97-2-3,3.01-2.44,6.03,1.28,2,3Z"/>
    <path class="cls-2" d="M308.99,423c2.03,1.64-4.52,3.55-4.98,4-2.23-3.05,4.59-4.31,4.98-4Z"/>
    <path class="cls-2" d="M785,766c-.88-2.98,3.78-3.18,3,0-.83,0-2.19,0-3,0Z"/>
    <path class="cls-2" d="M226,767c-1.09-2.97,4.91-3.23,4,0-1.33,0-2.67,0-4,0Z"/>
    <path class="cls-2" d="M506,767c-.88-2.98,3.78-3.18,3,0-1,0-2,0-3,0Z"/>
    <path class="cls-2" d="M279.99,760.01c1.09,1.09-.9,3.08-1.99,1.99s.9-3.08,1.99-1.99Z"/>
    <path class="cls-5" d="M487,283c4.78.87,12.62,12.17,14.86,16.64,17.43,34.83-13.57,75.79-51.86,66.36-.21-3.49-4.48-3.92-6.94-5.56-1.52-1.01-2.82-3.36-4.08-3.93-1.64-.74-3.71-.14-4.76-.73-3.66-2.06-7.94-18.72-8.26-23.24-2.55-36.37,25.9-57.91,60.49-48.58.67.18.5-.97.55-.96ZM457.74,309.15c-13.37,2.45-10.21,24.5,4.52,21.63,6.79-1.32,6.68-7.52,9.98-9.06,3.85-1.8,16.97-1.26,17.81-6.26,1.56-9.28-14.9-1.09-19.56-1.39-3.8-.24-7.02-5.99-12.74-4.94Z"/>
    <path class="cls-3" d="M487,283c-.05,0,.11,1.14-.55.96-34.59-9.33-63.03,12.21-60.49,48.58.32,4.52,4.59,21.18,8.26,23.24,1.05.59,3.12,0,4.76.73,1.26.57,2.57,2.92,4.08,3.93,2.46,1.64,6.73,2.07,6.94,5.56-32.39-7.98-47.64-44.06-28.81-72.31,14.54-21.82,45.44-28.21,65.81-10.69Z"/>
    <path class="cls-10" d="M598,521.5c.89-3.18,8-3.16,8-1v48c0,3.05-8,3.05-8,0v-47Z"/>
    <path class="cls-12" d="M457.74,309.15c5.73-1.05,8.95,4.7,12.74,4.94,4.66.29,21.12-7.89,19.56,1.39-.84,4.99-13.96,4.46-17.81,6.26-3.29,1.54-3.19,7.74-9.98,9.06-14.73,2.86-17.89-19.18-4.52-21.63Z"/>
    <path class="cls-6" d="M320.05,567.55s6.99,9.41,13.64,14.65l-21.14,13.29s-2.14-3.86-12.54-13.99"/>
  </g>
</svg>