<?xml version="1.0" encoding="UTF-8"?>
<svg xmlns="http://www.w3.org/2000/svg" viewBox="0 0 1024 1024">
  <defs>
    <style>
      .cls-1 {
        fill: #ecedee;
      }

      .cls-2 {
        fill: #87898b;
      }

      .cls-3 {
        fill: #939697;
      }

      .cls-4 {
        fill: #dddfdf;
      }

      .cls-5 {
        fill: #7f7373;
      }

      .cls-6 {
        fill: #2c2f30;
      }

      .cls-7 {
        fill: #e6e7e7;
      }

      .cls-8 {
        fill: #2c2e30;
      }

      .cls-9 {
        fill: #46484a;
      }

      .cls-10 {
        fill: #454849;
      }

      .cls-11 {
        fill: #2f3133;
      }

      .cls-12 {
        fill: #f5f5f5;
      }

      .cls-13 {
        fill: #ebeced;
      }

      .cls-14 {
        fill: #f9fafb;
      }

      .cls-15 {
        fill: #616465;
      }
    </style>
  </defs>
  <g id="_검은색_배경" data-name="검은색 배경">
    <rect class="cls-5" x="0" y="0" width="1024" height="1024"/>
  </g>
  <g id="_레이어_1" data-name="레이어 1">
    <path class="cls-6" d="M528.49,499.51c.03.26-2.82,2.42,2,3,11.66,25.68,38.47,58.45,60.98,75.39l91.37,94.49c3.85,2.26,8.2-3.51,14.55-2.66,14.75,1.97,18.56,18.18,11.79,29.89-3.09,5.35-26.58,27.42-32.11,29.83-18.26,7.95-33.69-12.45-22.1-28.16l-89.02-90.88c-7.11-13.76-14.43-22.2-25.94-33-25.81-24.23-55.47-44.47-82.48-67.38-56.7-48.11-117.77-101.06-171.39-152.32-6.78-6.48-24.53-22.36-28.9-29.04-7.04-10.76-1.69-33.82,4.28-44.57,12.57-22.66,37.12-33.42,62.65-30.32,7.64.93,20.48,14.32,25.97,19.99,18.44,19.02,36.43,41.94,53.42,62.47,32.11,38.8,66.58,80.02,96.35,120.45,3.98,5.4,28.22,39.52,28.58,42.85ZM308.65,263.78c-4.33.36-6.66-.38-11.97,1.52-14.04,5.02-33,24.42-33,39.93v14.48l49.96-52.94c.47.36,1.81.17,3.02,1.43,4.53,4.68-.73,7.96-2.02,12.56l-45.5,45.97c-1.37,3.01,4.55,7.77,7.02,10.02,1.22,1.11,3.23.74,3.51.95.42.31,5.21,5.37,6.99,6.99,14.31,13.01,28.55,26.04,42.97,38.96,1.91,1.71,4.87,4.1,6.99,5.99,44.47,39.76,88.26,80.89,133.89,119.38,31.43,26.51,65.72,49.78,93.97,79.93,4.28,1.98,7.69-7.17,11.89-7.63,1.36-1.93-13.7-16.8-15.88-19.4-14.97-17.78-23.68-33.3-36-52.42.16-2.98-.5-6.87-2.13-9.36-1.3-1.99-3.4-2.43-4.3-3.69-2.7-3.8-4.47-9.24-8.56-11.92,0-.67,0-1.33,0-2,0-3.62-5.65-13.03-8.24-14.76-.94-.63-2.09-.03-2.76-.22-7.39-2.12-4.95-2.86-8.99-6.99-2.16-6.57-8.22-13.23-12.59-18.88-40.98-52.83-87.92-114.47-134.3-161.92-3.33-3.41-6.31-7.4-9.98-10.5-8.41-7.12-9.34-6.8-20.62-6.55-1.82.04-3.04,1.04-3.38,1.07ZM588.32,587.55c-1.21-.71-2.41.14-3.42.81-1.27.84-13.2,12.73-13.37,13.67l8.56,9.28c1.05.18,14.81-11.94,15.25-13.61.66-2.51-3.71-5.49-5.45-7.28-.79-.81-1.4-2.77-1.57-2.87ZM600.14,602.51c-.93.24-13.34,12.65-13.58,13.58-.51,1.97,6.06,8.78,7.59,9.18,2,.53,14.97-12.29,15.18-13.52.3-1.74-6.52-9.94-9.19-9.24ZM600.62,633.21c3.44.92,5.4,8.01,9.11,7.04,2.52-.66,11.55-12.27,14.65-14.38-1.96-1.55-6.92-9.83-9.31-9.42-.94.16-12.82,12.08-13.68,13.36-.7,1.04-1.5,2.1-.77,3.39ZM629.05,631.44l-14.55,14.55c-.2,1.13,6.76,8.14,7.56,8.28,1.76.31,13.01-12.47,15.28-14.55.23-1.32-7.03-8.5-8.28-8.28ZM642.1,645.46c-.93.24-13.34,12.65-13.58,13.58-.52,1.98,4.97,7.69,6.61,8.15,4.34,1.22,12.71-10.67,16.2-13.48.24-1.39-6.97-8.84-9.22-8.25ZM656.09,659.44c-2.37.62-11.05,11.83-14.65,13.49,1.63,2.94,5.51,8.2,8.89,6.9,1.82-.7,12.53-10.74,12.91-12.21.73-2.79-4.46-8.88-7.16-8.18ZM660.52,694.16c3.1,1.78,14.22-11.01,16.84-13.35l-8.48-8.47c-1.25,0-11.11,13-14.48,12.99l.02,1.45c1.94.68,5.68,7.15,6.1,7.39ZM694.1,678.47c-6.45,1.18-26.81,25.42-33.58,30.44-3.12,11.27,6.92,17.06,16.77,9.78,5.19-3.84,21.16-18.5,24.5-23.45,4.79-7.11,1.32-18.41-7.69-16.76Z"/>
    <path class="cls-8" d="M776.47,407.46c14.28,8.33,50.66,27.67,53.56,44.85,4.71,27.94-18.42,29.45-38.41,20.41-11.67-5.28-20.92-14.13-29.94-22.95-23.48,7.11-48.5,18.1-73.54,13.52-17.96-3.28-33.7-16.13-45.71-29.22-9.53-10.39-20.39-30.06-29.98-37.95-6.41-5.28-34.83-12.18-34.72-20.76,8.51-42.09,25.28-86.68,67.01-105.74,54.67-24.98,130.71,19.54,135.55,80.6,1.53,19.28-3.12,38.21-3.82,57.26ZM678.38,270.78c-55.43,2.86-82.51,55.02-90.86,103.77,3.15,1.22,21.31,10.5,22.9,9.09,7.74-39.85,18.94-79.23,53.65-103.7,4.61-3.25,10.22-5.35,14.3-9.16ZM731.33,394.62c6.27-38.94,13.43-86.8-22.06-114.28-8.58-6.64-12.1-5.9-22.18-2.36-27.6,9.71-46.11,35.51-55.95,61.94-2.19,5.89-13.51,43.61-11.59,46.59,36.43,10.53,74.65,3.16,111.77,8.11ZM731.34,290.75l.98-.5c-.02-.64-.91-.43-.98-.5-.25-.23-.08-1.57-2-.99l2,1.99ZM746.33,324.71c-4.13-.45-1.04,7.23-.96,9.45.75,21.35-2.34,41.46-5.04,62.48,8.53-.26,16.68,3.17,24.57,5.99,1.1.15,2.31.04,2.97-.95s3.14-20.59,3.42-23.54c2.81-29.67-1.76-56.58-24.45-77.41-.81-.74-2.66-3.35-3.51-.98-.81-1.1-6.97-7.84-7.49-8.01-1.39-.45-2.7-.51-2.48,1.48.47,4.19,4.19,9.17,5.74,13.26,2.24,5.9,5.31,12.77,7.23,18.24ZM813.27,441.6c-20.37-13.96-39.18-28.55-63.74-34.69-21.2-5.29-41.27-5.12-62.62-5.25-20.67-.12-41.18-.17-61.47-4.55,10.8,14.42,21.18,30.16,34.94,41.98,44.5,38.25,81.8-4.3,129.4-.5,6.46.52,18.53,5.21,22.98,4.99.94-.05.47-1.17.51-1.99ZM814.77,443.58v1c.65-.33.65-.67,0-1Z"/>
    <path class="cls-11" d="M145.02,764.46c1.28-1.28,4.43-1.22,6.21-1.28h707.57c9.01.53,6.89,11.1-2.02,10.07H152.23c-4.98.74-11.76-4.25-7.21-8.79Z"/>
    <path class="cls-11" d="M307.45,536.77c77.73-7.91,134.39,71.99,93.94,140.85-37.63,64.05-133.12,60.08-166.21-6.27-28.19-56.52,9.14-128.16,72.27-134.58ZM240.7,660.34c22.37,61.36,108.14,73.18,147.32,20.89,51.58-68.83-19.11-160.37-99.3-130.23-41.01,15.42-64.13,62.37-50,104.33,6.69-3.68-2.53-8,1.42-11.05,5.04-3.89,4.39,5.46,8.1,2.11s-1.14-5.11-1.53-8.61c-.83-7.39,6.98-4.83,7.98,1.1,5.41-1.68-2-10.9.47-14.53,4.89-4.74,7.41,8.28,8.03,8.02,6.49-3.47-2.77-11.4-.08-15.04.8-1.08,4.58-1.43,5.46-.81.72.51.73,5,2.62,5.85,6.1-2.44-5.92-16.04,3-15.03,2.48.28,4.28,9.05,6.32,2.34,1.41-4.66-4.06-6.61-2.36-10.24.39-.82,1.92-2.19,2.92-1.98,2.16.46,2.1,4.84,4.09,3.94,5.61-2.56-3.8-6.83-1.03-10.02,2.04-3.05,7.51,3.4,8.53-.47s-5.44-3.29-3.91-7.87c1.18-3.52,7.58-.21,7.91-.61,2.14-6.46-6.16-2.56-5.02-7.47.92-3.93,3.49-1.64,6.05-3.08,1.5-9.38-3.68-5.71-4.86-9.1-.13-.38-1.14-7.52-1.11-7.92.3-4.79,4.34-.91,5.6-.7,1.51.25,4.47-1.89,5.27.94.58,2.05-1.59,3.75-.04,5.89,2.73,3.76,10.26,1.33,11.09,3.97,1.27,5.14-6.79,2.66-7,4.05-.29,1.94.23,4.38.02,6.42,5.57-3.07,10.65,2.65,4.59,5.1-4.74,1.92-6.88-1.44-7.54,5.49-.25,2.6,4.07,1.08,5.47,3.37,1.16,1.89.67,4.95-1.96,5.01-2.86.06-6.7-4.55-8.17.98-.91,3.42,10.11,5.76,4.66,9.58-4.42,3.09-9.85-6.78-12.04,3.43,4.86,1.38,8.28.89,6.99,7.01-5.68.69-12.06-5.41-13.99,2.98,4.41-.2,9.21,5.74,2.51,6.09-4.13.22-7.2-3.66-9.49,2.43-.95,2.52,5.01.97,6.52,3.44,2.04,3.34-1.31,4.04-4.03,4.13-4.91.16-9.51-3.97-10.49,3.9,9.06-1.37,10.34,7.11.48,6.04-4.57-.5-5.56-4.2-9.45,1.46,3.61,2.97,6.12,1.53,4.98,7.5-3.39,1.54-8.21-3.1-10.31-2.79-6.56.98-2.97,8.04-3.68,8.77-4.52-1.5-6.72.62-10.99,1.01Z"/>
    <path class="cls-13" d="M289.17,805.17c-3.58-.99-5.22-7.83-.24-9.23,148.96-1.47,298.42-.86,447.46-.31,6.16,1.88,3.84,9.54,1.45,9.54h-448.67Z"/>
    <path class="cls-11" d="M488.52,737.25c-9.52.59-22.77-3.69-29.98-9.99-15.4-13.45-17.84-39.02-5-54.94,4.9-6.08,17.24-13.94,24.98-14.98,57.46-7.77,64.4,76.55,9.99,79.91ZM514.49,710.28c14.3-32.38-26.85-59.33-51.6-34.61-7.71,7.71-12.43,25.97-5.45,34.99,3.31,4.28,9.19-7.88,13.09-6.37,1.07,6.53-4.05,9.61-6.95,14.37,10.77,12.07,31.95,12.85,43.4,1.58,5.72-5.64-.81-5.58-2.7-11.23-1.2-3.6-1.82-9.64,2.7-5.69,2.11,1.84,2.84,7.34,7.51,6.96Z"/>
    <path class="cls-7" d="M458.54,727.26c7.21,6.29,20.46,10.58,29.98,9.99,1.04,1.67,2.71,1.88,4.48,2.02,38.52,3.05,63.86-37.02,42.72-69.68-10.65-16.46-32.88-24.09-51.43-16.99-1.25.48-6.26,2.65-5.76,4.74-7.74,1.05-20.08,8.91-24.98,14.98-1.33-5.37,5.28-13.07,8.98-16.49,26.81-24.78,70.29-16.34,84.8,17.13,20.03,46.19-29.81,94.16-74.13,68.1-5.01-2.95-12.23-8.37-14.67-13.81Z"/>
    <path class="cls-11" d="M560.18,498.21c-6.09,3.72-11.16-.67-7.57-7.06l34.83-34.08-67.95-68.99c-.75-.67-1.21-.4-1.98,0-4.21,2.17-11.61,14.61-16.4,14.53-3.69-.06-5.57-3.71-4.11-6.95.58-1.29,18.86-19.43,20.22-19.83,1.7-.51,3.43-.41,4.84.78l77.24,78.68c1.07,5.23-3.61,6.44-6.38,9.24-11.01,11.11-22.53,21.81-32.73,33.69Z"/>
    <path class="cls-13" d="M224.45,418.84c18.89-3.19,33.05,12.89,24.79,30.77-10.09,21.85-43.95,12.36-40.43-13.45.97-7.09,8.49-16.12,15.64-17.33ZM233.7,433.58c.17-1.47.16-4.47-1.51-4.98-4.55-1.39-5.09,6.63,1.51,4.98ZM227.71,432.58c-5.54-.45-11.11,4.36-9.98,9.99l6.51-1.01c1.43,2.65-.94,10.23,2.07,10.95,4.24,1.02,3.2-4.63,3.45-4.89.63-.65,4.04,1.31,4.98-2.52,1.26-5.18-5.47-.87-6.01-1.52l-1.01-10.99ZM236.32,435.68c-3.88,1.19-.49,7.17,3.42,4.44,2.61-1.83.28-5.58-3.42-4.44Z"/>
    <path class="cls-13" d="M689.11,548.7c41.26-7.02,42.45,55.28,1.85,49.62-27.11-3.78-26.45-45.43-1.85-49.62ZM691.09,557.68c-15.69,3.25-15.27,29.12.83,31.66,27.57,4.35,25.76-37.17-.83-31.66Z"/>
    <path class="cls-11" d="M487.23,558.65c6.23-1.9,9.39,3.75,5.28,8.29l-54.39,53.49c-5.06,3.17-9.78-1.51-6.6-6.6l55.72-55.18Z"/>
    <path class="cls-11" d="M333.28,449.92c13.16,14.28-5.01,36.1-21.57,25.06-20.1-13.41,5.61-42.36,21.57-25.06ZM319.38,454.74c-7.19,1.48-6.12,14.31,1.69,13.8,9.25-.61,8.82-15.96-1.69-13.8Z"/>
    <path class="cls-13" d="M487.25,293.98c24.01-4.4,26.97,30.83,5.48,32.52s-24.28-29.07-5.48-32.52ZM489.25,302.91c-6.18,1.28-6.52,11.97-1.03,13.59,12.5,3.69,13.14-16.09,1.03-13.59Z"/>
    <path class="cls-7" d="M391.23,487.6c1.27-.22,13.87,11.84,13.25,14.21-.41,1.57-21.64,22.89-23.24,22.6-1.91-2.07-12.86-11.53-12.56-13.28l22.55-23.54Z"/>
    <path class="cls-7" d="M589.57,231.95c2.61-1.51,11.49,8.71,12.9,11.35,0,1.65-8.85,10.36-10.58,10.54-2.33.25-10.49-9.24-10.43-11.57.08-2.92,7.58-6.73,8.1-10.32Z"/>
    <path class="cls-10" d="M774.3,673.32c-6.36-2.67-5.44-3.48-9.5-8.04-1-1.12-3.16-.35-2.48-2.43,3.91-2.53,7.19-10.25,11.51-10.6,3.35-.28,6.58,6.84,8.46,9.08-1.05,1.15-.64,2.9-1,4-4.52,1.41-6.43,2.78-6.99,7.99Z"/>
    <path class="cls-13" d="M784.3,542.47c.32-2.37-.9-8.27.94-9.55,1.47-1.03,16.03-.7,16.91.71.73,1.17.37,8.85-1.36,8.85h-16.49Z"/>
    <path class="cls-11" d="M628.19,480.71c1.25-.23,5.2,1.65,6.12,2.42,4.45,3.75-.1,11.24-5.4,11.24-7.77,0-9.66-12.03-.72-13.65Z"/>
    <path class="cls-10" d="M189.6,649.2c-.72,1.16-8.47,1.71-9.91.7s-1.38-6.34-.5-7.62c.96-1.39,8.34-1.39,9.62-.5,1.21.84,1.42,6.4.79,7.41Z"/>
    <path class="cls-1" d="M242.7,534.48c1.47,1.44-4.38,8.01-6.32,7.84s-10.91-8.74-9.66-9.84l15.99,2Z"/>
    <path class="cls-10" d="M430.42,251.94c.38.59.33,8.41.04,8.73-.61.69-6.1,1.05-6.77-.03-.35-.57-.34-8.14.02-8.71.74-1.17,5.97-1.17,6.71,0Z"/>
    <path class="cls-15" d="M782.3,661.33c.39.47,3.85.25,2.99,2.99-1.33.26-2.7.61-3.99,1.01-1.26,3.85-3.78,5.42-5.02,8.98-1.46.48-1.75-.9-1.98-.99.56-5.21,2.47-6.58,6.99-7.99.36-1.1-.05-2.84,1-4Z"/>
    <path class="cls-11" d="M530.49,502.51c-4.82-.58-1.97-2.74-2-3,1.8.54,1.5,1.89,2,3Z"/>
    <path class="cls-10" d="M380.6,347.68l.95,5.54c30.81,30.49,59.85,62.76,89.96,93.87,2.76,2.85,10.38,11.4,13,12.99,2.27,1.38,1.94-.29,3.02-1.53.67.71,1.33,1.32,2,2,4.04,4.13,1.6,4.87,8.99,6.99-1.14,5.19,2.29,3.98,4.06,5.69,2.01,1.95,3.78,7.63,6.93,9.29,0,.67,0,1.33,0,2,0,.13-1,.69-.96,1.5.19,3.65,13.25,19.27,15.95,23.47,12.32,19.12,21.03,34.63,36,52.42,2.19,2.6,17.24,17.47,15.88,19.4-4.2.46-7.61,9.61-11.89,7.63-28.24-30.15-62.54-53.42-93.97-79.93-45.62-38.49-89.42-79.63-133.89-119.38l42.97-42.95c.04.15.73.56,1,1Z"/>
    <path class="cls-15" d="M372.6,339.69l-42.97,43.95c-14.42-12.91-28.66-25.95-42.97-38.96l46.97-45.95c.07.11,1.67.08,2.4,1.05,4.2,5.63,32.48,38.67,36.57,39.9Z"/>
    <path class="cls-4" d="M489.52,460.56c-.66-.68-1.33-1.29-2-2-32.66-34.53-66.36-67.88-98.41-102.9-2.29-2.5-7.05-5.59-8.51-7.98-.26-.44-.96-.85-1-1-.42-1.51.66-3.65-.9-5.59-1.81-2.26-4.44-.9-6.1-1.4-4.09-1.23-32.37-34.27-36.57-39.9-.73-.98-2.33-.94-2.4-1.05-.31-.49-.12-4.76-1-5.99,2.69-.94,6.59-11.01,9.99-12.99,46.37,47.45,93.31,109.09,134.3,161.92,4.38,5.64,10.44,12.31,12.59,18.88Z"/>
    <path class="cls-10" d="M308.65,263.78c2.26.1,3.42,1.8,5,3l-49.96,52.94v-14.48c0-15.52,18.95-34.92,33-39.93,5.31-1.9,7.64-1.16,11.97-1.52Z"/>
    <path class="cls-2" d="M314.65,280.76c-.14,6.65-1.25,8.86,3.97,13.23,1.37,1.14,2.17,1.63,4.02,1.76-.39.32-.69,2.17-1.55,2.9-14.54,12.25-26.57,27.17-41.41,39.06-.28-.2-2.29.16-3.51-.95-2.47-2.25-8.39-7.01-7.02-10.02l45.5-45.97Z"/>
    <path class="cls-10" d="M694.1,678.47c9.01-1.65,12.48,9.65,7.69,16.76-3.34,4.96-19.32,19.62-24.5,23.45-9.85,7.29-19.89,1.49-16.77-9.78,6.77-5.02,27.13-29.25,33.58-30.44Z"/>
    <path class="cls-14" d="M332.63,292.74c.88,1.23.69,5.51,1,5.99l-46.97,45.95c-1.79-1.63-6.58-6.69-6.99-6.99,14.85-11.89,26.88-26.8,41.41-39.06.86-.73,1.16-2.58,1.55-2.9,2.69-2.22,7.54-2.14,9.99-3Z"/>
    <path class="cls-3" d="M342.63,279.76c-3.41,1.98-7.3,12.05-9.99,12.99-2.45.86-7.3.78-9.99,3-1.85-.13-2.66-.61-4.02-1.76-5.22-4.36-4.11-6.57-3.97-13.23,1.29-4.6,6.56-7.88,2.02-12.56-1.22-1.26-2.55-1.07-3.02-1.43-1.58-1.19-2.73-2.89-5-3,.34-.03,1.56-1.03,3.38-1.07,11.27-.25,12.21-.57,20.62,6.55,3.67,3.11,6.65,7.09,9.98,10.5Z"/>
    <path class="cls-12" d="M379.6,346.68l-42.97,42.95c-2.12-1.9-5.09-4.28-6.99-5.99l42.97-43.95c1.66.5,4.28-.86,6.1,1.4,1.56,1.94.48,4.08.9,5.59Z"/>
    <path class="cls-12" d="M588.32,587.55c.17.1.78,2.06,1.57,2.87,1.74,1.79,6.1,4.76,5.45,7.28-.44,1.67-14.2,13.8-15.25,13.61l-8.56-9.28c.16-.94,12.1-12.83,13.37-13.67,1.02-.67,2.21-1.52,3.42-.81Z"/>
    <path class="cls-12" d="M600.62,633.21c-.73-1.29.07-2.35.77-3.39.86-1.28,12.73-13.2,13.68-13.36,2.39-.42,7.35,7.86,9.31,9.42-3.1,2.11-12.13,13.72-14.65,14.38-3.72.97-5.67-6.12-9.11-7.04Z"/>
    <path class="cls-12" d="M600.14,602.51c2.67-.7,9.49,7.5,9.19,9.24-.21,1.23-13.18,14.05-15.18,13.52-1.53-.4-8.1-7.22-7.59-9.18.24-.93,12.66-13.33,13.58-13.58Z"/>
    <path class="cls-12" d="M642.1,645.46c2.25-.59,9.46,6.86,9.22,8.25-3.49,2.81-11.86,14.7-16.2,13.48-1.63-.46-7.12-6.17-6.61-8.15.24-.93,12.66-13.33,13.58-13.58Z"/>
    <path class="cls-12" d="M629.05,631.44c1.25-.22,8.51,6.96,8.28,8.28-2.27,2.08-13.52,14.86-15.28,14.55-.8-.14-7.76-7.15-7.56-8.28l14.55-14.55Z"/>
    <path class="cls-14" d="M660.52,694.16c-.42-.24-4.16-6.7-6.1-7.39l-.02-1.45c3.38.01,13.24-12.99,14.48-12.99l8.48,8.47c-2.62,2.34-13.75,15.13-16.84,13.35Z"/>
    <path class="cls-12" d="M656.09,659.44c2.7-.71,7.88,5.38,7.16,8.18-.38,1.47-11.09,11.51-12.91,12.21-3.39,1.3-7.26-3.95-8.89-6.9,3.6-1.65,12.28-12.87,14.65-13.49Z"/>
    <path class="cls-11" d="M524.49,509.5c-2.7-4.2-15.76-19.82-15.95-23.47-.04-.81.96-1.37.96-1.5,4.09,2.68,5.86,8.11,8.56,11.92.9,1.26,3,1.7,4.3,3.69,1.63,2.49,2.29,6.39,2.13,9.36Z"/>
    <path class="cls-11" d="M498.51,467.55c.66.19,1.81-.41,2.76.22,2.58,1.74,8.24,11.15,8.24,14.76-3.15-1.66-4.92-7.34-6.93-9.29-1.77-1.71-5.2-.51-4.06-5.69Z"/>
    <path class="cls-9" d="M731.33,394.62c-37.12-4.95-75.35,2.42-111.77-8.11-1.92-2.98,9.4-40.7,11.59-46.59,9.84-26.42,28.35-52.23,55.95-61.94,10.08-3.54,13.6-4.28,22.18,2.36,35.49,27.47,28.33,75.34,22.06,114.28Z"/>
    <path class="cls-9" d="M678.38,270.78c-4.09,3.82-9.69,5.91-14.3,9.16-34.71,24.47-45.91,63.85-53.65,103.7-1.59,1.4-19.75-7.88-22.9-9.09,8.35-48.76,35.43-100.92,90.86-103.77Z"/>
    <path class="cls-9" d="M743.33,299.74c.85-2.36,2.7.24,3.51.98,22.69,20.84,27.26,47.74,24.45,77.41-.28,2.96-2.76,22.55-3.42,23.54s-1.87,1.1-2.97.95c-7.89-2.83-16.04-6.25-24.57-5.99,2.71-21.02,5.79-41.13,5.04-62.48-.08-2.22-3.18-9.89.96-9.45,2.76,7.84,5.83,17.38,6.87,25.59.76,5.97-2.68,16.96,6.42,14.16,6.15-1.89,3.19-17.73,2.25-22.82-2.18-11.75-11.43-32.24-18.54-41.9Z"/>
    <path class="cls-12" d="M746.33,324.71c-1.92-5.47-5-12.34-7.23-18.24-1.55-4.09-5.27-9.07-5.74-13.26-.22-1.99,1.09-1.93,2.48-1.48.52.17,6.68,6.91,7.49,8.01,7.11,9.66,16.36,30.15,18.54,41.9.94,5.1,3.91,20.93-2.25,22.82-9.1,2.79-5.66-8.19-6.42-14.16-1.04-8.21-4.12-17.75-6.87-25.59Z"/>
    <path class="cls-7" d="M731.34,289.75v1l-2-1.99c1.92-.58,1.75.76,2,.99Z"/>
    <path class="cls-1" d="M814.77,443.58c.65.33.65.67,0,1v-1Z"/>
    <path class="cls-12" d="M731.34,290.75v-1c.07.07.96-.14.98.5l-.98.5Z"/>
    <path class="cls-1" d="M240.7,660.34c4.27-.39,6.47-2.51,10.99-1.01.71-.73-2.87-7.79,3.68-8.77,2.1-.31,6.92,4.32,10.31,2.79,1.14-5.97-1.36-4.53-4.98-7.5,3.89-5.65,4.89-1.95,9.45-1.46,9.86,1.07,8.58-7.41-.48-6.04.99-7.87,5.58-3.74,10.49-3.9,2.72-.09,6.07-.79,4.03-4.13-1.51-2.47-7.47-.92-6.52-3.44,2.29-6.08,5.35-2.21,9.49-2.43,6.7-.35,1.9-6.29-2.51-6.09,1.93-8.4,8.31-2.29,13.99-2.98,1.29-6.12-2.13-5.62-6.99-7.01,2.19-10.21,7.62-.33,12.04-3.43,5.45-3.81-5.57-6.16-4.66-9.58,1.48-5.54,5.32-.93,8.17-.98,2.63-.05,3.12-3.11,1.96-5.01-1.4-2.29-5.72-.77-5.47-3.37.66-6.93,2.8-3.57,7.54-5.49,6.05-2.45.97-8.16-4.59-5.1.2-2.04-.32-4.48-.02-6.42.21-1.39,8.28,1.09,7-4.05-.83-2.64-8.36-.21-11.09-3.97-1.55-2.14.62-3.84.04-5.89-.79-2.83-3.76-.68-5.27-.94-1.26-.21-5.3-4.09-5.6.7-.02.4.98,7.54,1.11,7.92,1.18,3.39,6.35-.29,4.86,9.1-2.56,1.44-5.13-.85-6.05,3.08-1.14,4.91,7.16,1.01,5.02,7.47-.33.4-6.73-2.91-7.91.61-1.54,4.59,4.88,4.19,3.91,7.87-1.02,3.86-6.49-2.58-8.53.47-2.78,3.2,6.64,7.47,1.03,10.02-1.99.91-1.94-3.48-4.09-3.94-1.01-.21-2.54,1.16-2.92,1.98-1.7,3.63,3.77,5.58,2.36,10.24-2.04,6.71-3.84-2.06-6.32-2.34-8.92-1.01,3.1,12.59-3,15.03-1.89-.84-1.89-5.34-2.62-5.85-.88-.62-4.66-.27-5.46.81-2.7,3.64,6.57,11.57.08,15.04-.62.27-3.13-12.75-8.03-8.02-2.48,3.63,4.93,12.86-.47,14.53-1-5.93-8.81-8.48-7.98-1.1.39,3.51,5.18,5.31,1.53,8.61s-3.06-6-8.1-2.11c-3.95,3.04,5.27,7.36-1.42,11.05-14.13-41.96,8.98-88.91,50-104.33,80.19-30.14,150.87,61.39,99.3,130.23-39.18,52.29-124.94,40.47-147.32-20.89ZM391.53,592.46c-1.1-.78-4.07.93-5.5.86-1.78-.09-3.14-2.65-5.85-1.86-3.77,1.09,1.43,6.02.41,6.94-3.24,1.28-8.22-3.55-10.86-1.87-2.49,1.59.1,5.87,2.86,6.36-3.6,8.31-9.81-3.63-12.52.47-3.23,4.87,7.86,8.5-1.44,14.54-2.6,1.69-1.39-1.38-3.92-2.09-3.96-1.1-6.84-1.05-4.58,3.55,1.8,3.67,7.49,4.95-.5,10,.48-5.32-8.21-7.46-6.83-.73.67,3.29,4.35,5.3,1.81,9.72-2.51-1.21-2.33-5.43-6-3.53-6.98,3.63,6.46,9.33-.49,13.5-2.45-3.37-4.71-3.78-7.43-.35-.83,2.75,3.84,4.71,4.53,7.34,2.15,8.2-7.3-.82-8.54,3.63-1.26,4.75,5.32,5.78,5.84,6.5.89,1.22-1.14,5.14-.9,6.88-1.46,1.27-7.59-4.52-8.9-.39-1.97,6.18,10.84,4.91,7.92,12.38h-7c-2.68,6.99,6.65,6.28,7.05,7.54,1.34,4.24-3.25,3.68-3.93,6.08-1.32,4.7,5.01,2.85,7.18,3.33,1.25.28,1.25,4.46,5.18,4.09,5.28-.5,0-5.48-.29-7.78-.09-.7.58-6.98.84-7.24,1.12-1.12,9.34,1.91,6.96-6.03l-6.99,1c-3.18-7.63,9.02-4.53,9.02-9.47s-7.42-.85-8.03-1.52c-1.29-6.34,3.56-3.97,7.25-5.23,6.45-2.19-.48-7.66-5.25-4.76-2.16-9.61,15.77-1.55,12.42-11-1.46-.58-10.2,1.5-9.41-1.46,1.58-5.94,6.59-2.46,10.45-2.47,3.24,0,6.49-1.79,4.1-5.12-1.11-1.55-11.86-.9-8.56-4.9,1.65-2.01,14.03.96,14.99-.02.48-.49-.01-3.53-.98-4.51-2.07-2.1-5.68-.9-8.01-1.97,4.38-8.8,7.57.16,14.99-1.5-.2-1.36.47-3.87-.14-4.86s-7.92-1.23-6.84-3.61c.12-.26,3.27-4.54,3.56-4.59,3.35-.53,7.81,8.65,10.94,4.09,2.83-4.12-10.57-8.07-2.07-13.06,5.41-3.18,5.33,6.38,10,5.04,4.99-1.44-2.9-8.59-1.46-9.98,3.52-.83,7.25,4.5,9.55,0,1.58-3.08-4.04-4.48-4.43-5.16-.46-.8,1.38-5.67-.18-6.78Z"/>
    <path class="cls-1" d="M514.49,710.28c-4.67.38-5.4-5.12-7.51-6.96-4.52-3.94-3.9,2.09-2.7,5.69,1.89,5.66,8.43,5.6,2.7,11.23-11.44,11.27-32.63,10.49-43.4-1.58,2.89-4.77,8.01-7.84,6.95-14.37-3.9-1.51-9.78,10.65-13.09,6.37-6.98-9.03-2.26-27.29,5.45-34.99,24.74-24.73,65.9,2.23,51.6,34.61Z"/>
    <path class="cls-14" d="M488.52,737.25c54.41-3.36,47.46-87.68-9.99-79.91-.51-2.09,4.51-4.26,5.76-4.74,18.56-7.1,40.78.54,51.43,16.99,21.14,32.66-4.2,72.73-42.72,69.68-1.77-.14-3.44-.35-4.48-2.02Z"/>
    <path class="cls-12" d="M319.38,454.74c10.51-2.16,10.94,13.19,1.69,13.8-7.82.52-8.89-12.32-1.69-13.8Z"/>
    <path class="cls-9" d="M380.6,347.68c1.45,2.39,6.21,5.48,8.51,7.98,32.06,35.02,65.75,68.37,98.41,102.9-1.07,1.24-.75,2.91-3.02,1.53-2.61-1.59-10.24-10.14-13-12.99-30.11-31.11-59.15-63.38-89.96-93.87l-.95-5.54Z"/>
    <path class="cls-11" d="M391.53,592.46c1.56,1.11-.28,5.98.18,6.78.39.68,6.01,2.08,4.43,5.16-2.3,4.51-6.03-.83-9.55,0-1.44,1.38,6.45,8.54,1.46,9.98-4.67,1.34-4.59-8.22-10-5.04-8.49,4.99,4.9,8.95,2.07,13.06-3.13,4.55-7.59-4.62-10.94-4.09-.29.05-3.44,4.32-3.56,4.59-1.08,2.39,6.2,2.58,6.84,3.61s-.06,3.5.14,4.86c-7.41,1.65-10.61-7.31-14.99,1.5,2.33,1.08,5.94-.13,8.01,1.97.97.98,1.46,4.02.98,4.51-.96.98-13.34-1.98-14.99.02-3.29,4,7.45,3.36,8.56,4.9,2.4,3.33-.85,5.11-4.1,5.12-3.85,0-8.86-3.47-10.45,2.47-.79,2.96,7.95.88,9.41,1.46,3.35,9.44-14.58,1.39-12.42,11,4.77-2.9,11.71,2.57,5.25,4.76-3.69,1.25-8.54-1.11-7.25,5.23.6.67,8.03-3.27,8.03,1.52s-12.2,1.84-9.02,9.47l6.99-1c2.38,7.94-5.84,4.92-6.96,6.03-.26.26-.93,6.54-.84,7.24.3,2.3,5.57,7.28.29,7.78-3.93.37-3.93-3.81-5.18-4.09-2.17-.48-8.5,1.37-7.18-3.33.68-2.4,5.27-1.84,3.93-6.08-.4-1.27-9.73-.56-7.05-7.55h7c2.92-7.47-9.88-6.2-7.92-12.38,1.31-4.13,7.45,1.66,8.9.39-.23-1.75,1.8-5.66.9-6.88-.53-.72-7.1-1.75-5.84-6.5,1.24-4.45,10.69,4.57,8.54-3.63-.69-2.63-5.35-4.59-4.53-7.34,2.72-3.43,4.99-3.02,7.43.35,6.95-4.17-6.5-9.88.49-13.5,3.66-1.9,3.49,2.31,6,3.53,2.54-4.42-1.14-6.43-1.81-9.72-1.38-6.73,7.31-4.59,6.83.73,7.99-5.05,2.3-6.34.5-10-2.25-4.59.62-4.65,4.58-3.55,2.53.71,1.31,3.78,3.92,2.09,9.31-6.04-1.79-9.67,1.44-14.54,2.71-4.09,8.92,7.84,12.52-.47-2.77-.49-5.35-4.77-2.86-6.36,2.64-1.68,7.62,3.15,10.86,1.87,1.02-.92-4.19-5.85-.41-6.94,2.72-.79,4.07,1.77,5.85,1.86,1.42.07,4.4-1.63,5.5-.86Z"/>
  </g>
</svg>