<?xml version="1.0" encoding="UTF-8"?>
<svg xmlns="http://www.w3.org/2000/svg" viewBox="0 0 1024 1024">
  <defs>
    <style>
      .cls-1 {
        fill: #f5f6f7;
      }

      .cls-2 {
        fill: #6b6e72;
      }

      .cls-3 {
        fill: #eaebec;
      }

      .cls-4 {
        fill: #7f7373;
      }

      .cls-5 {
        fill: #d6d8da;
      }

      .cls-6 {
        fill: #3d4143;
      }

      .cls-7 {
        fill: #272c2d;
      }

      .cls-8 {
        fill: #2b2e31;
      }

      .cls-9 {
        fill: #fafbfb;
      }

      .cls-10 {
        fill: #212527;
      }

      .cls-11 {
        fill: #fdfdfd;
      }
    </style>
  </defs>
  <g id="_검은색_배경" data-name="검은색 배경">
    <rect class="cls-4" x="0" y="0" width="1024" height="1024"/>
  </g>
  <g id="_레이어_1" data-name="레이어 1">
    <path class="cls-6" d="M971.92,518.73c4.2,4.2-.47,13-7.32,8.81-7.19-4.4,2.05-14.08,7.32-8.81Z"/>
    <g>
      <path class="cls-7" d="M250.48,558.12c-6.68-33.99,5.03-78.52,15.47-111.43,4.46-14.06,9.99-40.97,30.76-32.9,6.54,2.54,19.66,16.19,26.78,21.2,12.21,8.59,26.11,15.96,41.6,14.87,6.44-10.89,6.52-29.28,19.55-35.4,8.11-3.81,11.57-.92,19.29.53,7.9-16.58,27.68-35.48,47.16-25.57,17.29,8.8,40.66,31.44,57.72,43.48.92.65,6.36,4.63,6.9,4,1.7-18.1,12.06-37.32,28.22-46.37,11.04-6.18,18.9-4.94,29.29,1.54,28.92,18.01,59.22,45.35,87.93,65.61,37.21,26.26,65.3,44.79,110.92,54.83,26.52,5.84,65.83,6.62,84.37,29.04,8.9,10.76,12.01,26.53,13.02,40.19,8.67,1.41,16.22,3.41,17.1,13.43.82,9.27.36,23.69-.91,32.74-3.18.95-3.07-2.25-3.51-2.61-1.92-1.58-1.78,3.07-2.6,5.23,0-5.36.82-8.3-1.74-13.08-.19-.35.22-1.56,0-1.74-.87-.71-2.43.84-2.62.87-.52.07-2.52.09-2.62,0-1.1-.99,1.9-.68-2.62-1.74-.86-.2-2.17-.83-2.62-.87-.39-3.99,5.05-.3,6.6-.05,1.27.2,2.6.05,3.87.06.16-1.1-.21-2.48,0-3.49,1.25-6.11,3.83-21.44-5.67-20.93l-87.06.18c-6.99,2.2-4.66,9.75-4.98,15.51.38.45,7.58-3.11,6.97.88-.85-.05-8.84-.42-6.1,1.74.11.08,1.31-.26,2.65.62.41.27.29,1.85,2.14,2.07,3.01.37,5-2.51,8.35,1.22.69.77.61,1.97.81,2.2-1.76-.15-4.05,1.53-5.23,1.74-.28.05-.6-.06-.87,0,.18-3.52-4.12-2.86-6.11-1.74-.79-7.67-4.56-2.63-6.52-2.58-.5.01-.76-1.4-1.38-2.11-.46-.52-1.62-.43-1.69-.54-.27-.42.6-2.39-.47-2.67-1.31-.35-3.94.25-5.64.06-.44-3.65,5.5-.71,7.42-.8,4.27-.2,2.91-4.88,1.22-7.44-.87-1.32-2.46-1.24-2.53-1.36-2.46-3.79,5.23-13.95,8.29-13.95h80.71c-2.01-16.89-4.76-32.29-19.19-42.74-21-15.19-54.79-15.47-79.95-21.69-13.94-3.45-27.18-8.66-40.74-13.26-6.38,9.96-14.55,12.1-25.45,14.04-1.1.2-2.94.42-1.33,1.71,28.39,4.65,49.74,23.77,52.35,53.21.6,6.7-.27,13.46-.87,20.06-4.46.94-2.93-4.73-6.11-4.36,1.58-17.52-3.93-38.8-18.32-49.71-19.43-14.74-55.01-15.85-78.9-21.87-13.15-3.31-25.93-7.95-38.48-13-5.88,4.18-8.78,9.11-16.13,11.74-4.17,1.49-20.21,5.12-20.72-.99-.45-5.32,6.51-3.38,9.73-3.89,7.29-1.16,15.87-3.92,18.86-11.22-3.92.04-16.57-9.55-18.6-9.44-1.14.06-19.64,7.44-21.28,8.37-2.47,1.4-2.66,3.63-5,4.65-9.3,4.08-12.76-14.81.6-10.72l18.1-7.7c-4.56-.83-13.42-10.22-17.06-10.46-1.64-.11-19.91,6.45-21.94,7.65-3.17,1.87-2.68,5.07-7.59,4.53-6.22-.68-6.89-10.91-.87-11.29,1.69-.11,3.02.72,4.73.44,5.04-.83,12.5-6.44,18.31-6.59l-16.55-12.73-23.85,8.55c-8.92,13.21-17.82-6.41-7.11-7.11,1.81-.12,2.7.85,5.43.28s13.08-4.87,15.64-6.24c.58-.31,2.41-1.31,2.01-1.9-3.69-.68-12.81-10.24-15.29-10.5-4.71-.49-18.61,7.34-24.24,8.03-3.55,6.46-12.14,7.01-12.02-1.48s4.82-4.47,9.03-4.97c4.44-.52,12.87-6.36,18.08-6.82.33-1.46-.48-1.76-1.32-2.59-1.47-1.44-13.07-10.34-14.41-10.89-4.02-1.63-15.48-.13-20.07.81-8.79,1.79-17,5.98-25.27,9.19-44.63,17.35-72.35,41.27-117.69,9.06-5.48-3.89-21.64-19.3-26.04-20.2-13.13-2.69-15.64,18.71-18.56,27.71-5.26,16.24-9.79,32.03-13.09,48.84-4.08,20.84-7.42,39.77-3.49,61.05h-6.98ZM470.34,412.49c-17.36-10.34-25.59-28.29-46.65-11.34-10.69,8.6-16.89,21.19-17.9,34.86,21.43-6.59,41.18-20.44,64.12-21.8l.43-1.73ZM588.13,414.21c.34-1.46-.48-1.76-1.32-2.59-3.69-3.62-21.77-16.74-26.21-17.4-18.43-2.77-36.74,25.35-37.02,41.8,21.76-6.42,41.43-20.61,64.56-21.8ZM374.38,448.23c3.31-1.22,22.01-7.08,23.13-8.71.42-.61,3.02-13.72,2.98-14.46-.1-1.89-3.14-4.15-4.92-4.56-15.08-3.44-17.51,17.72-21.19,27.72ZM556.72,430.79c-10.52,4.09-20.82,8.71-31.42,12.64-1.31,1.07-.75.83.05,1.71,1.88,2.07,7,4.72,9.55,6.59,24.62,18.04,49.11,36.74,77.66,48.39,23.89,9.75,49.2,14.56,74.57,18.78-2.64-9.81,8.38-6.4,15.32-8.26,4.79-1.29,10.44-4.58,12.64-9.2l-18.41-10.49c-8.98,4.84-20.18,6.43-27.38,13.63-6.16,2.08-10.26-6.75-5.64-10.05,2.67-1.9,4.46.04,6.71-.24,5.04-.62,13.59-6.44,18.95-7.69l-17.16-12.02c-5.74,3.65-17.97,5.52-22.92,9.03-1.49,1.06-1.9,3.28-3.24,3.74-7.55,2.59-12.23-6.58-5.85-10.23,2.8-1.6,4.28.13,7.33-.43,1.69-.31,16.14-6.29,16.54-7.09l-14.8-11.41c-1.22-.62-2.32-.22-3.54,0-2.49.46-18.12,6.38-20.32,7.65-1.91,1.11-2.2,3.87-4.94,4.71-6.52,1.98-11.12-7.28-4.69-10.9,2.32-1.3,4.31.14,7.32-.43,5.27-1.01,11.75-5.8,17.41-6.63-2.96-2.46-12.5-11.31-15.5-12.04-1.21-.29-1.79.01-2.84.2-2.56.46-20.06,6.48-22.06,7.66-1.78,1.05-1.99,3.45-3.82,4.03-7.75,2.45-11.18-7.09-5.83-10.2,2.95-1.72,4.45.23,7.5-.26,1.02-.16,17.51-6.08,18.11-6.83,1.2-1.49-.69-1.6-1.12-1.98-2.19-1.96-13.88-11.43-15.68-12.18-3.95-1.63-15.96.63-20.57,1.67-7.92,1.79-14.59,5.26-21.97,8.13Z"/>
      <path class="cls-3" d="M240.01,647.96c2.32,0,4.66,0,6.98,0,7.26,0,14.55,0,21.81,0,6.39,0,12.81,0,19.19,0,7.84,0,15.72,0,23.56,0,29.65,0,59.34,0,88.99,0,9.88,0,19.79,0,29.66,0,64.26-.01,128.56-.01,192.82,0,10.75,0,21.53,0,32.28,0,3.48,0,6.99,0,10.47,0,11.91,0,23.86,0,35.77,0,1.74,0,3.49,0,5.23,0,11.62,0,23.28,0,34.9,0,6.39,0,12.81,0,19.19,0,10.75,0,21.53,0,32.28,0s21.53,0,32.28,0c56.12.03,112.28-.02,168.39,0,4.47,2.07,4.73,7.74,1.74,11.34-.57-.39-3.35.86-4.7.79-34.11-1.64-70.65-.95-104.75-.83-275.5.95-552.59-.63-827.18.99-1.49,0-5.09-1.32-5.67-.95-4.3-3.26-3.2-10.68,1.74-12.21.2-.06.62-.02.87,0,.28.02,1.29.93,2.95.94,60.38.26,120.78-.04,181.15-.06Z"/>
      <path class="cls-10" d="M257.46,558.12c.86,4.65,2.14,8.54,3.59,12.98l43.04.15c3.1.26,10.08,6.47,10.08,9.11v18.75c41.01-1.42,82.34-.89,123.49-.92,1.93,0,4.02.05,5.64.05.29,0,.58,0,.87,0-.49,2.63,1.33,1.69,3.01,1.74,31.25,1.04,63.02.13,94.27.7,2.54.05,5.68-1.27,8.76-.76,2.02.33,1.91,3.48,5.2,3.48,3.77,0,2.52-4.83,9.56-3.37,1.57.33,2.6,1.79,4.4,1.79,2.74,0,5.89-3.09,11.18-1.82.65.16.54,1.52,1.2,1.7,3.89,1.07,3.79-1.57,4.36-1.7,1.19-.28,4.68-.25,5.98-.09,2.12.26.95,3.05,5.21,2.78,3.22-.21,2.47-2.04,3.22-2.51,2.61-1.62,53.46-.23,61.36-.25,23.16-.05,47.32,1.04,70.71.07,1.55-.06,3.29.72,2.99-1.77,1.12-.06,2.28.24,3.39-.09.2-2.66,1.63-6.22,1.85-8.64,3.18-.37,1.65,5.3,6.11,4.36-.13,1.41.19,3.01,0,4.36-.01.09-1.8,1.13-.43,1.75,6.4-.19,12.84.25,19.23,0,1.68-.07,3.5.9,3.01-1.74,2.34-.08,5.03.94,4.36-1.74.08.12,1.66.04,2.53,1.36,1.69,2.56,3.05,7.25-1.22,7.44-1.93.09-7.86-2.86-7.42.8-7.48-.84-15.13-1.51-22.75-.5-2.15,6.47-4.05,14.31-7.94,19.98-.99,1.45-8.42,9.04-9.45,9.3-1.68.43-6.44-2.1-6.98.45-.91,4.29,6.55.46,6.98.42,14.68-1.37,31.35,1.01,46.25,0-.09-1.43.14-2.95,0-4.37,1.29-1.27,1.29-3.09,0-4.36.1-6.09-.08-12.22,0-18.32.07.11,1.23.02,1.69.54.62.71.89,2.12,1.38,2.11,1.96-.04,5.73-5.09,6.52,2.58-.12.07-.69,1.22-1.3,1.76-1.33,1.16-3.66.55-1.32,3.47-1.31,2.31-1.31,12.71,0,15.06.64,1.16,5.67,2.59,6.99,2.39.72-.11.74-.13.87-.87,5.87-.85,15.44,0,21.81,0,.26,3.57.12,2.15-2.16,2.59-3.34.64-5.8.96-9.19.41-1.32,3.54-5.88,5.29-5.23,9.22-10.75,0-21.53,0-32.28,0-.31-3.52,3.36-5.22,2.62-8.72-.72-.75-11.26.55-13.38.54-1.98-.01-13.72-2.83-12.76,1.58.47,2.17,5.98,2.62,4.33,6.61-11.62,0-23.28,0-34.9,0-.45-2.72,1.6-3.66,3.59-4.69l9.5-1.84c-4-.6-7.1-2.68-11.06-3.82-2.1-.61-2.37.59-2.03-2.73,7.22-1.13,11.34-2.52,17.38-6.62,2.04-1.38,2.59-3.53,5.31-3.85.09-.01.62.93,1.19.78,1.82-.46,2.31-3.28-.32-2.52,1.08-2.79,7.65-15.87,6.11-17.44-121.84.11-243.74-.15-365.58,0,.48-2.73-2.28-2.59-1.74,0-17.56.02-37.78-1.28-54.97,0-4.34.32-3.61,1.46,0,2.62,0,.87,0,1.74,0,2.62-4.12-.94-3.46,3.3,0,3.49,0,7.26.52,14.67-.87,21.8,2.32.05,4.66-.04,6.98,0-.43,6.79-11.21,3.95-8.72,12.21-7.84,0-15.72,0-23.56,0l1.28-4.42c-.23-2.09,6.33-3.58,4.82-5.16-1.2-1.25-7.26-.65-9.18-.88-1.3-.15-2.66-.7-1.29-1.75,5-.53,11.03,1.12,15.7-.88,3.69-.2,5.9.6,7.85-3.49,1.2-2.51,1.7-6.53,0-8.72,0-2.6-.12-5.26,0-7.85,1.38-.57,1.38-3.79,0-4.36.07-.56-.08-1.19,0-1.74.03-.23,1.66-1.18,1.67-3.01s-1.61-3.44-1.67-3.96c-.57-5.12,1.19-16.09-.46-20.04-1.97-4.74-8.55-3.4-12.63-3.51-.08-.81.47-1.52-.55-1.76-1.75-.41-9.56-.71-8.17,1.76-.87-.01-1.75,0-2.62,0,.95-2.87-6.48-2.58-5.23,0-3.48-.03-6.99.02-10.47,0,.95-2.87-6.48-2.58-5.23,0-6.39-.03-12.81.02-19.19,0,.68-2.77-3.38-2.6-2.62,0-3.48,0-6.99-.01-10.47,0-.08-.81.47-1.52-.55-1.76-1.75-.41-9.56-.71-8.17,1.76-1.74,0-3.49,0-5.23,0,.49-2.63-1.33-1.69-3.01-1.74-4.81-.16-10.11-.19-14.91,0-1.68.07-3.5-.9-3.01,1.74-5.09.05-11.79-.61-16.58,0l1.74-6.98c3.76-.15,7.58.04,11.34,0,.12,1.31,2.5,1.31,2.62,0,12.49-.07,25.02.05,37.52,0,2.38,0,4.22.1,6.98,0,3.13-.12,6.55.28,9.6,0,1.23,1.66,4.19.66,6.1.87.43-1.31-.84-1.63-.87-1.74-1.1-4.03-1.81-8.11-2.62-12.21h6.98Z"/>
      <path class="cls-1" d="M610.82,684.59c1.05,4.57,4.93,11.51-3.04,12.21l-194.62.04c-5.71.47-6.84-4.25-5.45-9.02.36-1.24,2.39-2.31,2.44-3.23h200.67Z"/>
      <path class="cls-10" d="M174.57,582.54c-.33,2.49-.5,16.78-.02,18.62.25.96,1.72.49,1.77.57.74,1.19.03,4.07,2.21,3.51,1.04,0,3.36-2.43,3.03-3.51h3.49c-1.38,5.53,4.53,4.38,5.23,0h3.49c-.05,1.45-.41,3.61,1.44,4.24,1.73.6,4.45-1.08,3.79,1.86l-13.08.88c-2.59.03-5.27-.18-7.85,0-.12-1.31-2.5-1.31-2.62,0-.45.12-.62.55-.87.87-1.18,1.5-1.66,3.89,0,5.23-.04,1.45,0,2.91,0,4.36,0,1-.05,1.37,0,2.62.13,3.43-.97,9.39,1.77,11.75,2.53,2.18,8.74,1.26,12.19,1.34,1.3,1.99,7.07.23,7.85.88,1.85,1.54-3.52,1.89-1.74,3.48.3.26,7.57,1.15,7.85.87,1.82-1.76-2.69-2.66-1.74-4.36h21.81c.67,3.26-2.9,1.11-3.5,1.75-.09.1-.08,2.51,0,2.61.73.75,7.05-1.4,8.72-.87l-2.62-4.36c.58,0,1.16,0,1.74,0,2.21,1.49,7.56,1.45,9.6,0,.58,0,1.16,0,1.74,0l35.77.88c.85,2.89-3.41,1.56-4.22,2.76-.63.93-.94,7.7-1.01,9.44-7.26,0-14.55,0-21.81,0-.67-3.94,2.68-6.21,3.49-9.59-6.02-2-11.38.27-17.44,0-.71,3.5,3.8.41,5.68,2.6,1.14,1.33,1.36,5.15,1.3,6.99-60.36.02-120.77.32-181.15.06-1.66,0-2.67-.91-2.95-.94v-4.36c2.34-.21,5,1.07,4.36-1.74,37.07,1.88,76.64-2.52,113.42,0,.24.02,1.49,1.44,2.61.87l.87-4.36-4.36,1.74c-2.03-2.1-1.9-1.47-3.49-4.36-.32-2.41,1.23-5.94-1.74-5.23-.81-12.65-1.06-32.87,0-45.35,3.81,1.21,4.06-1.99,6.98-1.74Z"/>
      <path class="cls-10" d="M879.55,630.51c.82-2.16.68-6.81,2.6-5.23.44.36.33,3.56,3.51,2.61-1.11,7.95-2.96,6.91-4.36,11.34l-4.37,1.32c-.77,3.02,3.61.48,4.37.43,36.07-2.28,74.49,1.71,110.81,0-1.14,3.52,2.41,3.16,1.74,6.11v.87c-56.12-.02-112.28.03-168.39,0-1.02-5.3,1.89-2.46,3.94-4.34.54-.5,1.62-3.03,1.3-3.49-4.86-1.38-9.44-.58-14.46-1.73-2.22-.51-2.4.83-2.11-2.64,18-.01,36.1.32,54.09,0,5.12-.09,8.91,1.14,11.34-5.23Z"/>
      <path class="cls-1" d="M384.84,684.59c.03.32,1.46,2.21,1.68,4,.41,3.46.46,8.02-3.91,8.13l-115.16.12c-10.36-.94-6.74-11.79-3.01-12.25.24-.03,3.08.93,4.75.91,36.79-.35,74.23,1.1,110.9,0,1.66-.05,3.3.08,4.76-.91Z"/>
      <path class="cls-8" d="M610.82,684.59h-200.67c.07-1.36-2.62-4.44,1.49-5.93l196.18-.22c4.49-.16,2.44,3.69,3.01,6.15Z"/>
      <path class="cls-8" d="M384.84,684.59c-1.45.99-3.1.86-4.76.91-36.66,1.1-74.1-.35-110.9,0-1.67.02-4.51-.94-4.75-.91-1.93-2.91-.57-6.09,3.01-6.15l115.9.22c3.96,1.42,1.3,4.18,1.49,5.93Z"/>
      <path class="cls-8" d="M730.08,362.05c2.3-.69,22.88-.63,26.05-.21,3.38.45,4.41,2.48,4.78,5.69.43,3.7.52,21.21-.4,24.06-.81,2.5-2.85,3.17-5.27,3.45-3.75.44-22.06.53-24.93-.4-2.5-.81-3.17-2.85-3.45-5.27-.46-3.88-.45-22.66.99-25.21.5-.88,1.23-1.81,2.25-2.12ZM753.03,369.73h-18.32v17.44h18.32v-17.44Z"/>
      <path class="cls-8" d="M262.69,334.85h12.65c2.45,0,5.48,5.43,2.19,7.42-2.21,1.34-11.41-.16-14.84,1.3v15.26c0,2.78-7.85,2.21-7.85-.87v-15.26h-13.52c-3.82,0-2.58-7.85.87-7.85h12.65v-13.52c0-3.74,7.85-3.64,7.85-.87v14.39Z"/>
      <path class="cls-1" d="M643.1,685.46c4.29-.57,23.16-.74,27.05,0,5.5,1.05,5.55,10.6-3.01,11.38-4.64.42-22.26.45-25.76-1.37-3.24-1.69-2.23-9.49,1.72-10.01Z"/>
      <path class="cls-8" d="M643.1,685.46c-1.32-1.34-1.24-6.98.44-6.98h27.05c1.48,0,2.5,6.37-.44,6.98-3.89-.74-22.75-.57-27.05,0Z"/>
      <path class="cls-7" d="M179.8,571.21l-1.74,6.98c-1.36.17-3.3,2.91-3.49,4.36-2.92-.24-3.17,2.95-6.98,1.74.55-6.44,3.01-11.82,9.85-13.42,1.89-.44,2.24.34,2.36.33Z"/>
      <path class="cls-6" d="M822.55,432.76c3.95-.1,7.43,5.7,3.73,8.89-6.75,5.83-13.2-8.65-3.73-8.89Z"/>
      <path class="cls-6" d="M186.56,450.97c5.72-1.12,7.57,7.95,3.1,9.29-8.47,2.54-9.75-7.99-3.1-9.29Z"/>
      <path class="cls-8" d="M662.93,348.15c4.27,4.46-3.57,12.12-7.68,6.38-3.77-5.26,3.28-10.98,7.68-6.38Z"/>
      <path class="cls-6" d="M372.36,330.65c8.72-2.71,9.22,10.8.91,9.29-4.73-.86-5.06-8.01-.91-9.29Z"/>
      <path class="cls-7" d="M172.82,639.24l4.36-1.74-.87,4.36c-1.12.57-2.37-.85-2.61-.87-.34-.49-.52-1.38-.87-1.74Z"/>
      <path class="cls-7" d="M238.26,571.21c-2.76.1-4.6,0-6.98,0,1.87-1.42,5.08-1.44,6.98,0Z"/>
      <path class="cls-7" d="M253.09,570.33c.03.11,1.3.43.87,1.74-1.91-.21-4.88.8-6.1-.87.97-.09,3.34-1.75,5.23-.87Z"/>
      <path class="cls-7" d="M167.59,629.64c2.97-.71,1.43,2.82,1.74,5.23-1.4-2.55-1.48-1.08-1.74-5.23Z"/>
      <path class="cls-8" d="M881.29,640.98c-.75.05-5.14,2.6-4.37-.43l4.37-1.32c-.14.45.09,1.2,0,1.74Z"/>
      <path class="cls-7" d="M193.76,571.21c-.12,1.31-2.5,1.31-2.62,0,.75,0,1.9,0,2.62,0Z"/>
      <path class="cls-11" d="M436.32,431.66c8.27-3.21,16.49-7.39,25.27-9.19,4.58-.94,16.05-2.44,20.07-.81,1.34.54,12.95,9.45,14.41,10.89.85.83,1.66,1.13,1.32,2.59-5.21.45-13.64,6.29-18.08,6.82s-8.92-3.35-9.03,4.97,8.46,7.94,12.02,1.48c5.63-.69,19.53-8.52,24.24-8.03,2.48.26,11.6,9.82,15.29,10.5.4.6-1.42,1.59-2.01,1.9-2.56,1.38-13.04,5.7-15.64,6.24-2.73.58-3.62-.39-5.43-.28-10.72.7-1.82,20.33,7.11,7.11l23.85-8.55,16.55,12.73c-5.81.15-13.27,5.76-18.31,6.59-1.7.28-3.04-.55-4.73-.44-6.02.38-5.34,10.61.87,11.29,4.91.54,4.42-2.67,7.59-4.53,2.03-1.2,20.3-7.75,21.94-7.65,3.64.24,12.5,9.63,17.06,10.46l-18.1,7.7c-13.36-4.1-9.9,14.79-.6,10.72,2.34-1.02,2.53-3.26,5-4.65,1.64-.93,20.14-8.31,21.28-8.37,2.03-.11,14.68,9.48,18.6,9.44-2.99,7.3-11.57,10.06-18.86,11.22-3.21.51-10.17-1.43-9.73,3.89.51,6.11,16.55,2.49,20.72.99,7.36-2.63,10.26-7.56,16.13-11.74,12.55,5.05,25.33,9.69,38.48,13,23.88,6.02,59.46,7.13,78.9,21.87-.91,1.44-3.31.87-4.79.89-22.05.23-44.11-.05-63.85,11.17-17.42,9.9-29.36,27.42-35.19,46.37-58.15.04-116.35-.04-174.5,0-.29,0-.58,0-.87,0-2.06-14.52-7.68-29.99-15.87-42.13-15.61-23.14-39.2-30.93-64.9-38.04-33.29-9.21-67.55-15.2-101.58-21,3.29-16.81,7.83-32.6,13.09-48.84,1.83-.29,2.77.76,4.12,1.55,24.05,14.04,53.75,34.16,82.68,31.58,20.26-1.81,51.57-25.22,66.77-38.79,3.32-2.97,8.26-6.57,8.71-10.91Z"/>
      <path class="cls-6" d="M443.3,598.24c-1.62,0-3.71-.05-5.64-.05-41.16.03-82.49-.5-123.49.92v-18.75c0-2.64-6.98-8.86-10.08-9.11l-43.04-.15c-1.44-4.44-2.73-8.33-3.59-12.98-3.93-21.29-.59-40.21,3.49-61.05,34.03,5.8,68.29,11.79,101.58,21,25.7,7.11,49.3,14.89,64.9,38.04,8.19,12.15,13.81,27.62,15.87,42.13Z"/>
      <path class="cls-9" d="M556.72,430.79c7.38-2.87,14.04-6.34,21.97-8.13,4.61-1.04,16.62-3.3,20.57-1.67,1.8.74,13.49,10.22,15.68,12.18.43.38,2.31.49,1.12,1.98-.61.75-17.1,6.67-18.11,6.83-3.05.48-4.55-1.46-7.5.26-5.35,3.11-1.92,12.65,5.83,10.2,1.83-.58,2.04-2.98,3.82-4.03,2-1.18,19.49-7.2,22.06-7.66,1.05-.19,1.64-.49,2.84-.2,3,.73,12.54,9.58,15.5,12.04-5.66.83-12.14,5.63-17.41,6.63-3.01.57-5-.87-7.32.43-6.43,3.61-1.83,12.88,4.69,10.9,2.74-.83,3.03-3.59,4.94-4.71,2.19-1.28,17.83-7.2,20.32-7.65,1.22-.22,2.32-.63,3.54,0l14.8,11.41c-.41.8-14.85,6.78-16.54,7.09-3.04.56-4.53-1.17-7.33.43-6.38,3.65-1.7,12.83,5.85,10.23,1.34-.46,1.75-2.68,3.24-3.74,4.95-3.51,17.18-5.38,22.92-9.03l17.16,12.02c-5.36,1.25-13.91,7.07-18.95,7.69-2.25.28-4.05-1.66-6.71.24-4.62,3.29-.52,12.12,5.64,10.05,7.2-7.2,18.4-8.8,27.38-13.63l18.41,10.49c-2.2,4.62-7.84,7.92-12.64,9.2-6.94,1.86-17.96-1.55-15.32,8.26-25.38-4.22-50.69-9.02-74.57-18.78-28.56-11.66-53.04-30.36-77.66-48.39,6.04-7.7,17.59-11.9,21.81-20.93Z"/>
      <path class="cls-5" d="M740.82,589.52c-.22,2.41-1.65,5.98-1.85,8.64-1.11.33-2.26.03-3.39.09-37.81,1.89-78.74-.02-116.91,0,5.83-18.95,17.77-36.47,35.19-46.37,19.74-11.23,41.81-10.94,63.85-11.17,1.47-.02,3.88.56,4.79-.89,14.4,10.92,19.9,32.2,18.32,49.71Z"/>
      <path class="cls-5" d="M842.9,539.81c14.44,10.45,17.18,25.84,19.19,42.74h-80.71c-3.06,0-10.74,10.16-8.29,13.95.66,2.68-2.02,1.67-4.36,1.74-7.24.24-14.56-.18-21.81,0,.19-1.36-.13-2.95,0-4.36.61-6.6,1.47-13.36.87-20.06,9.82-11.49,21.1-20.72,35.32-26.18,18.3-7.02,35.73-6.74,55-6.95,1.47-.02,3.88.56,4.79-.89Z"/>
      <path class="cls-9" d="M842.9,539.81c-.91,1.44-3.31.87-4.79.89-19.26.2-36.69-.08-55,6.95-14.22,5.46-25.5,14.69-35.32,26.18-2.62-29.43-23.97-48.56-52.35-53.21-1.62-1.3.23-1.52,1.33-1.71,10.89-1.94,19.07-4.08,25.45-14.04,13.56,4.59,26.8,9.81,40.74,13.26,25.16,6.22,58.95,6.5,79.95,21.69Z"/>
      <path class="cls-2" d="M877.8,610.45c-2.78.44-4.22-2.27-5.56-2.76-7.34-2.66-14.96,1.46-22.83,1.05-4.5-.24-9.91-2.17-14.06-2.33-3.44-.13-7.86,1.44-11.2,1.49-12.4.16-24.71-1.09-37.09-1.81.6-3.99-6.59-.43-6.97-.88.32-5.76-2.01-13.31,4.98-15.51l87.06-.18c9.5-.51,6.93,14.82,5.67,20.93Z"/>
      <path class="cls-9" d="M470.34,412.49l-.43,1.73c-22.94,1.35-42.69,15.2-64.12,21.8,1.01-13.68,7.21-26.26,17.9-34.86,21.07-16.96,29.29.99,46.65,11.34Z"/>
      <path class="cls-9" d="M588.13,414.21c-23.12,1.19-42.8,15.38-64.56,21.8.28-16.45,18.59-44.57,37.02-41.8,4.44.67,22.52,13.78,26.21,17.4.85.83,1.66,1.13,1.32,2.59Z"/>
      <path class="cls-9" d="M766.99,606.09c1.7.19,4.32-.4,5.64-.06,1.07.28.2,2.25.47,2.67-.08,6.09.1,12.22,0,18.32-.03,1.79-.27,1.72,0,4.36.15,1.42-.09,2.94,0,4.37-14.9,1.01-31.57-1.37-46.25,0v-.87c1.03-.26,8.46-7.85,9.45-9.3,3.88-5.67,5.79-13.51,7.94-19.98,7.61-1.01,15.26-.34,22.75.5Z"/>
      <path class="cls-8" d="M787.06,606.09c12.38.72,24.7,1.97,37.09,1.81,3.34-.04,7.76-1.62,11.2-1.49,4.15.16,9.56,2.09,14.06,2.33,7.87.41,15.49-3.7,22.83-1.05,1.34.49,2.79,3.19,5.56,2.76-.21,1.01.16,2.39,0,3.49-1.27-.01-2.6.15-3.87-.06-1.55-.25-7-3.94-6.6.05-8.02-.71-17.19,2.85-25.73,1.73-8.71-2.48-16.18-2.6-24.88.01-2.74-.74-6.36-1.99-9.15-1.8-4.67.32-7.79,5.79-12.66.06-.2-.23-.12-1.44-.81-2.2-3.35-3.73-5.34-.85-8.35-1.22-1.85-.22-1.73-1.8-2.14-2.07-1.34-.88-2.54-.53-2.65-.62-2.74-2.16,5.25-1.79,6.1-1.74Z"/>
      <path class="cls-8" d="M788.81,615.69c-2.75.63-6.54-.36-8.72,3.49-2.34-2.92-.02-2.31,1.32-3.47.62-.54,1.18-1.69,1.3-1.76,1.98-1.11,6.29-1.77,6.11,1.74Z"/>
      <path class="cls-8" d="M875.18,616.56c.19-.03,1.75-1.58,2.62-.87.22.18-.19,1.39,0,1.74l-2.62-.87Z"/>
      <path class="cls-8" d="M869.95,614.81c4.52,1.06,1.51.75,2.62,1.74-1.28,0-2.24-.49-2.62-1.74Z"/>
      <path class="cls-7" d="M575.92,636.62c.2.2-.21,1.59,0,1.74.51.38,10.5-.16,12.64.02,8.24.68,11.61,2.06,20.58.44,1.46-.26,3.05-.11,2.56-2.2,3.19,0,6.41,0,9.6,0-.59,2.95,4.73,1.74,5.24,3.94.36,1.58-5,4.27-3.49,7.4-64.26-.01-128.56-.01-192.82,0,.48-5.68-6.1-5.25-1.74-11.34,45.67.02,95.47-3.61,140.95-.91,1.05.06,6.22.63,6.51.91Z"/>
      <path class="cls-7" d="M409.27,636.62c-.55,3.36,6.02.33,3.46,4.31-1.09,1.69-14.37.59-12.19,7.02-29.65,0-59.34,0-88.99,0-2.48-8.26,8.29-5.42,8.72-12.21,29.43.63,59.74.85,88.99.87Z"/>
      <path class="cls-10" d="M703.3,635.75c1.27,4.42-4.29,6.8-1.74,12.21-11.91,0-23.86,0-35.77,0-.19-6.6,5.89-1.19,9.6-3.05,1.39-.7,2.44-3.57,1.66-4.72-1.58-2.36-25.91-1.52-30-.92-1.02.15-3.89-.76-3.07,1.26,2.17,5.38,11.48.48,11.33,7.43-10.75,0-21.53,0-32.28,0-1.51-3.13,3.85-5.82,3.49-7.4-.5-2.2-5.82-.99-5.24-3.94,24.83-.06,57.86,1.25,82.01-.87Z"/>
      <path class="cls-7" d="M814.11,635.75c-.29,3.47-.11,2.14,2.11,2.64,5.02,1.15,9.61.35,14.46,1.73.32.46-.76,3-1.3,3.49-2.05,1.89-4.95-.96-3.94,4.34-10.75,0-21.53,0-32.28,0-.65-3.93,3.91-5.68,5.23-9.22,3.39.55,5.84.24,9.19-.41,2.28-.44,2.42.99,2.16-2.59,1.45,0,2.91,0,4.36,0Z"/>
      <path class="cls-7" d="M299.34,634.87c-4.67,1.99-10.7.34-15.7.88-1.37,1.04-.02,1.59,1.29,1.75,1.92.23,7.98-.37,9.18.88,1.51,1.58-5.05,3.06-4.82,5.16l-1.28,4.42c-6.39,0-12.81,0-19.19,0,.07-1.74.39-8.52,1.01-9.44.81-1.2,5.07.13,4.22-2.76l-35.77-.88c19.84.03,41.47,1.08,61.07,0Z"/>
      <path class="cls-10" d="M428.46,636.62c-4.36,6.08,2.22,5.66,1.74,11.34-9.88,0-19.79,0-29.66,0-2.18-6.44,11.1-5.33,12.19-7.02,2.56-3.98-4.01-.95-3.46-4.31,6.35,0,12.89,0,19.19,0Z"/>
      <path class="cls-7" d="M655.31,647.96c.14-6.94-9.17-2.05-11.33-7.43-.82-2.02,2.06-1.11,3.07-1.26,4.09-.61,28.42-1.44,30,.92.77,1.16-.27,4.03-1.66,4.72-3.71,1.85-9.79-3.55-9.6,3.05-3.48,0-6.99,0-10.47,0Z"/>
      <path class="cls-7" d="M741.69,647.96c1.65-3.98-3.86-4.44-4.33-6.61-.96-4.4,10.79-1.59,12.76-1.58,2.12.01,12.65-1.28,13.38-.54.75,3.5-2.93,5.2-2.62,8.72-6.39,0-12.81,0-19.19,0Z"/>
      <path class="cls-7" d="M706.79,634.87c-.34,3.32-.07,2.12,2.03,2.73,3.96,1.14,7.06,3.22,11.06,3.82l-9.5,1.84c-1.99,1.04-4.04,1.97-3.59,4.69-1.74,0-3.49,0-5.23,0-2.54-5.41,3.02-7.79,1.74-12.21.3-.03,2.24-.68,3.49-.87Z"/>
      <path class="cls-7" d="M240.01,647.96c.06-1.84-.16-5.66-1.3-6.99-1.87-2.19-6.38.89-5.68-2.6,6.06.28,11.42-2,17.44,0-.81,3.38-4.16,5.65-3.49,9.59-2.32,0-4.66,0-6.98,0Z"/>
      <path class="cls-9" d="M369.14,605.22c.58,0,1.16,0,1.74,0,121.84-.15,243.74.11,365.58,0,1.54,1.58-5.03,14.65-6.11,17.44-.18.46-.92,1-.87,1.74-2.72.32-3.27,2.47-5.31,3.85-6.04,4.09-10.16,5.49-17.38,6.62-1.25.2-3.19.85-3.49.87-24.16,2.12-57.18.81-82.01.87-3.19,0-6.41,0-9.6,0-2.55,0-4.76-.9-7.38-.91-9.34-.06-19.28-.54-28.39.91-.28-.29-5.46-.85-6.51-.91-45.48-2.7-95.28.93-140.95.91-6.3,0-12.85,0-19.19,0-29.26-.02-59.57-.24-88.99-.87-2.32-.05-4.66.04-6.98,0,1.39-7.13.87-14.54.87-21.8v-3.49c0-.87,0-1.74,0-2.62v-2.62c17.19-1.28,37.41.02,54.97,0Z"/>
      <path class="cls-7" d="M307.19,601.73c.06.52,1.69,2.05,1.67,3.96s-1.64,2.79-1.67,3.01c-40.4.4-80.88-.54-121.28,0l13.08-.88c.66-2.94-2.06-1.26-3.79-1.86-1.84-.64-1.49-2.79-1.44-4.24h113.42ZM210.34,606.1h-2.61v1.74h2.61v-1.74Z"/>
      <path class="cls-7" d="M618.67,598.24c38.17-.02,79.1,1.89,116.91,0,.3,2.49-1.43,1.71-2.99,1.77-23.38.97-47.55-.12-70.71-.07-7.9.02-58.75-1.37-61.36.25-.75.46,0,2.3-3.22,2.51-4.27.27-3.1-2.52-5.21-2.78-1.31-.16-4.8-.19-5.98.09-.57.13-.47,2.77-4.36,1.7-.66-.18-.55-1.55-1.2-1.7-5.29-1.27-8.44,1.82-11.18,1.82-1.8,0-2.83-1.47-4.4-1.79-7.04-1.46-5.79,3.37-9.56,3.37-3.29,0-3.18-3.15-5.2-3.48-3.08-.51-6.21.81-8.76.76-31.25-.57-63.02.35-94.27-.7-1.68-.06-3.5.89-3.01-1.74,58.15-.04,116.35.04,174.5,0Z"/>
      <path class="cls-7" d="M768.74,598.24c.49,2.64-1.34,1.68-3.01,1.74-6.39.25-12.83-.19-19.23,0-1.37-.62.42-1.66.43-1.75,7.25-.18,14.57.24,21.81,0Z"/>
      <path class="cls-7" d="M194.64,578.18c-.49-2.64,1.33-1.68,3.01-1.74,4.8-.19,10.11-.16,14.91,0,1.68.06,3.5-.89,3.01,1.74-6.97.03-13.97-.07-20.94,0Z"/>
      <path class="cls-7" d="M726.86,634.87v.87c-.43.04-7.89,3.87-6.98-.42.54-2.55,5.29-.02,6.98-.45Z"/>
      <path class="cls-7" d="M285.38,578.18c-1.38-2.47,6.42-2.17,8.17-1.76,1.02.24.47.95.55,1.76-2.9-.08-5.83.04-8.72,0Z"/>
      <path class="cls-7" d="M220.81,578.18c-1.38-2.47,6.42-2.17,8.17-1.76,1.02.24.47.95.55,1.76-2.9,0-5.82,0-8.72,0Z"/>
      <path class="cls-7" d="M277.52,578.18c-1.24-2.58,6.18-2.87,5.23,0-1.74-.02-3.49.01-5.23,0Z"/>
      <path class="cls-7" d="M261.82,578.18c-1.24-2.58,6.18-2.87,5.23,0-1.74,0-3.49,0-5.23,0Z"/>
      <path class="cls-7" d="M314.17,610.45v3.49c-3.46-.18-4.12-4.43,0-3.49Z"/>
      <path class="cls-7" d="M773.1,631.39c-.27-2.64-.03-2.58,0-4.36,1.29,1.27,1.29,3.09,0,4.36Z"/>
      <path class="cls-7" d="M307.19,631.39v-8.72c1.7,2.19,1.2,6.21,0,8.72Z"/>
      <path class="cls-7" d="M730.35,622.66c2.63-.75,2.14,2.06.32,2.52-.57.14-1.1-.79-1.19-.78-.04-.74.69-1.29.87-1.74Z"/>
      <path class="cls-7" d="M314.17,605.22v2.62c-3.61-1.16-4.34-2.29,0-2.62Z"/>
      <path class="cls-7" d="M240.01,578.18c-.77-2.6,3.29-2.77,2.62,0-.87,0-1.75,0-2.62,0Z"/>
      <path class="cls-7" d="M307.19,614.81c.07-1.42-.18-3.02,0-4.36,1.38.57,1.38,3.79,0,4.36Z"/>
      <path class="cls-7" d="M369.14,605.22c-.53-2.59,2.23-2.73,1.74,0-.58,0-1.16,0-1.74,0Z"/>
      <path class="cls-7" d="M787.06,636.62c.09-.42.46-.81.87-.87-.13.74-.15.76-.87.87Z"/>
      <path class="cls-7" d="M225.17,634.87l2.62,4.36c-1.68-.52-8,1.62-8.72.87-.09-.09-.1-2.51,0-2.61.6-.64,4.17,1.51,3.5-1.75h-21.81c-.95,1.69,3.56,2.6,1.74,4.36-.28.27-7.56-.61-7.85-.87-1.77-1.59,3.6-1.94,1.74-3.48-.78-.65-6.55,1.12-7.85-.88,12.18.27,24.46-.04,36.64,0Z"/>
      <path class="cls-7" d="M190.27,601.73c-.71,4.38-6.61,5.53-5.23,0h5.23Z"/>
      <path class="cls-7" d="M181.55,601.73c.33,1.09-1.98,3.51-3.03,3.51-2.18.56-1.47-2.32-2.21-3.51h5.23Z"/>
      <path class="cls-7" d="M236.52,634.87c-2.04,1.45-7.38,1.49-9.6,0,3.19.01,6.41,0,9.6,0Z"/>
      <path class="cls-7" d="M174.57,614.81c-1.66-1.34-1.18-3.73,0-5.23-.03,1.74.05,3.49,0,5.23Z"/>
      <path class="cls-7" d="M174.57,621.79c-.05-1.25,0-1.62,0-2.62v2.62Z"/>
      <path class="cls-7" d="M178.06,608.71c-.83.06-1.95-.17-2.62,0,.12-1.31,2.5-1.31,2.62,0Z"/>
      <path class="cls-10" d="M611.69,636.62c.49,2.09-1.1,1.93-2.56,2.2-8.97,1.62-12.34.24-20.58-.44-2.15-.18-12.14.36-12.64-.02-.2-.15.2-1.55,0-1.74,9.11-1.46,19.05-.97,28.39-.91,2.61.02,4.83.92,7.38.91Z"/>
      <rect class="cls-10" x="207.73" y="606.1" width="2.61" height="1.74"/>
    </g>
  </g>
</svg>