<?xml version="1.0" encoding="UTF-8"?>
<svg xmlns="http://www.w3.org/2000/svg" viewBox="0 0 1024 1024">
  <defs>
    <style>
      .cls-1 {
        fill: #f1f1f1;
      }

      .cls-2 {
        fill: #b9a792;
      }

      .cls-3 {
        fill: #363635;
      }

      .cls-4 {
        fill: #7f7373;
      }

      .cls-5 {
        fill: #383836;
      }

      .cls-6 {
        fill: #323231;
      }

      .cls-7 {
        fill: #e7e7e7;
      }

      .cls-8 {
        fill: #f4f5f5;
      }

      .cls-9 {
        fill: #383837;
      }

      .cls-10 {
        fill: #f2f2f2;
      }

      .cls-11 {
        fill: #f6f7f7;
      }

      .cls-12 {
        fill: #fbfcfb;
      }

      .cls-13 {
        fill: #fafbfb;
      }
    </style>
  </defs>
  <g id="_검은색_배경" data-name="검은색 배경">
    <rect class="cls-4" x="0" y="0" width="1024" height="1024"/>
  </g>
  <g id="_레이어_1" data-name="레이어 1">
    <path class="cls-3" d="M176,832c24.35-177.08,41.83-355.24,64.99-532.51,4.08-31.79-15.79-100.69,32.52-105.48,35.6-3.53,76.77,2.64,112.97-.03,3.55-.68,5.8-6.78,13.05-7.02,7.7-.25,11.09,6.91,12.93,7.12,22.06-2.34,49.72,2.84,71.09-.03,4.73-.63,5.76-5.9,13.93-6.12,9.81-.26,9.8,5.43,14.96,6.12,20.78,2.77,47.65-2.22,69.1,0,3.78.09,5.03-4.57,8.39-5.61,7.49-2.31,13.43.34,18.53,5.57,33.95,2.17,71.55-2.94,105.06-.05,47.89,4.12,30.13,70.99,33.47,102.53l13.99,135.51h16.5c18.98,0,34.64,16.06,38.05,33.95,15.69,110.49,36.29,220.3,52.28,330.72,1.42,9.8,5.17,26.19,4.17,35.33-.13,1.15-1.5,5.67-2,7-.35.94-.67,2.33-1,3-.91,1.83-4,3.34-4,6-2.2.69-4.48,4.1-8,3-.04-1.98,1.89-3.66-1-6,6.06-5.48,9.22-13.03,7.87-21.37-19.82-113.98-34.24-228.99-54.03-342.96-3.93-22.65-7.45-38.84-34.29-40.71-21.33-1.49-43.75.38-65,1.08-5.66.19-34-1.69-35.43,3.61l5.89,37.35c.39,4.2-3.27,5.66-6.88,6.11,2.44,28.83,6.45,57.69,9.79,86.49,4.06,34.93,10.42,69.96,15.92,105.06,7.35,46.84,12.83,97.55,22.42,143.58.38,1.84,1.23,3.8,1.75,5.75,2.1,7.93,4.01,11.36,9,18-3.75-.89-1.22,3.67-2,6-2.76-1.3-5.98-3.77-8-6-.89-.98-2.41-2.88-3-4-1.76-3.36-2.28-7.56-4-11-14.57-78.96-22.57-160.59-38.31-239.19-.21-1.07-2.01-14.67-4.68-11.81l-40.01,257h-1c-.91-5.33-2.21-4.4-7-3,0-.67,0-1.33,0-2l8-51h-324c1.74,16.68,4.2,33.33,6,50,.36,3.35.7,6.64,1,10-2.23.4-2.27-1.9-4.25-3.27-.81-.56-2.18-.4-2.75-.73-1.88-1.06-2.75-3.89-3-6-.32-2.69.32-5.74-.01-8.49-1.63-13.83-3.99-27.61-4.99-41.51l-110.44-.03c-2.96,16.53-4.53,33.36-6.57,50.04-.44,3.6-.55,7.59-1,11-.19,1.39-.75,3.11-1,5-.19,1.41-.08,2.78-1,4-1.66-1.31-5.86-3.47-8-3,.05-.32-.06-.68,0-1,.3-1.64.71-3.1,1-5,.56-3.62,1.5-7.33,2-11ZM505,192.01c-1.44-1.37-8.44-.77-10.69-.14-1.69.48-2.78-.74-2.31,2.13,3.67-.32,7.94.46,11.51,0,1.38-.18,2.97-.59,1.48-1.99ZM598,192.01c-2.83.32-7.51-1.33-9,1.98,2.28-.73,9.72,1.95,9-1.98ZM665,580h-95c.28,5.53,5.65,22.41-2.52,23.98l-149.76-.2c-1.02-.22-2.72-.89-3.23-1.77-1.88-3.18,2.99-37.82,3.51-44.52.55-7.12,1-14.35,1.01-21.49h-108.5c-7.51,0,.74-21.72-.67-26.3-11.21-9.8-23.56-12.58-22.87-30.24,11.85-60.03,18.27-121.64,33.21-180.79,9.16-14.72,26.6-21.09,38.32-33.68,4.01-4.31,19.51-28.99,23.01-28.99h15.5v-20.5c0-.84,11.41-8.13,9-13.49-7.15-.24-14.38.29-21.54.04-32.1-1.15-72.24-3.61-103.94-1.03-15.06,1.23-29.45,9.24-31.4,25.6-2.84,23.81,1.88,52.54-.1,76.88l59.1,470.4,326.9.11,30-194.01ZM503,201h-89c.18,5.42-1.55,10.41-5,14.5-.8.94-4,2.52-4,3v17.5h14.5c.97,0,5.46,3.4,6.49,4.51,6.36,6.8,12.1,18.83,17.73,26.29,1.17,1.55,2.96,2.41,3.88,4.26,21.04-5.8,20.51-40.82,46.4-35.06v-19.5c0-5.21,12.31-7.2,9-15.5ZM593,236v-20.5c0-.51,5.78-4.19,7.19-6.8.83-1.54,3.05-7.7.31-7.7h-89c-2.57,2.48-.8,5.76-2.63,9.37-1.74,3.44-6.87,5.17-6.87,5.63v20c4.91.46,10.91-1.15,15.37,1.13,5.54,2.83,13.93,20.62,19.2,25.8,1.42,1.39,11.31,7.07,12.94,7.02,6.53-.19,18.63-22.58,23.08-27.87,6.72-7.99,10.44-6.11,20.41-6.09ZM601,218.5c-1.18,3.66.86,13.07,0,17.5h14.5c2.88,0,22.27,29.66,28.57,34.43,21.94,16.62,32.21,13.94,39.62,45.38,9.06,38.42,13.65,78.07,22.19,116.62.54.8,15.75,1,17.48.44,1.18-.39,1.58-1.18,1.64-2.36,1.9-22.33,3.7-44.71,6-67,4.4-42.74,11.82-90.05,7.98-132.99-1.62-18.1-13.96-28.03-31.5-29.5l-96.92-.05c-1.05,5.59-1.79,10.06-5.57,14.54-.91,1.08-3.76,2.26-4,3ZM424,252c-.74-3.45-3.96-8.64-7.44-9.06s-30.8-.49-32.9.23c-1.33.45-5.34,6.89-5.67,8.83h46ZM522,256c-3.36-5.01-5.6-12.4-12.44-13.06-3.81-.37-23.19-.58-25.87.25-1.91.59-8.43,10.09-8.69,12.81h47ZM619.99,253.99c1.05-.99-5.34-9.77-7.02-10.47-2.02-.85-28.77-1.05-31.27-.31-3.07.9-5.2,7.28-7.7,9.3,7.5,1.21,14.91-6.58,22.38-6.43,4.24.09,22.24,9.2,23.6,7.92ZM594.73,253.19c-1.09.15-19.14,8.19-20.11,8.92-3.75,2.83,1.63,10.82,4.45,13.33,11.04,9.81,28.4,8.11,36.78-4.1,3.14-4.57,5.19-7.27-.47-10.21-3.2-1.66-18.13-8.28-20.64-7.94ZM419,264c4.32-.05,8.68.04,13,0,.45-2.72-1.9-5.48-4.52-5.97l-53.77.18c-7.02,5.52-10.81,13.5-17.69,19.31-9.2,7.77-22.34,12.29-28.85,23.15-3.71,6.2-4.42,14.06-5.85,21.15-10.81,53.61-17.88,108.65-27.08,162.44,2.22,14.24,23.09,15.29,22.85,28.25-.09,4.73-5.11,15.42.65,16.23l169.28.27c-3.37,4.39,2.4,4.79,2.91,6.64.35,1.25-.92,3.12-.82,4.75.11,1.83.71,7.52,1.11,8.91.56,1.96,3.62,2.77,3.86,5.25.36,3.75-4.62,4.66-5.11,7.98-.08.59,4.14,4.24,2,6.42-.35.36-6.01-.59-6.76,4.76-.9,6.48,4.49,10.78,4.65,12.96.11,1.47-2.33,2.82-1.84,4.8.92,3.65,14.92-.84,17.99-.47-1.1-4.09-8.25-11.32-3.95-14.46,6.5-4.74,6.07,2.19,5.96,7.46,2.68.34,4.12-3.26,3.99-5.42-.36-5.71-8.09-5.03-5.52-14.61.7-2.59,3.99-5.45,4.25-7.57.09-.78-1.57-9.8-1.94-10.67-.4-.95-7.54-6.38-8.88-7.12-1.42-.79-5.41-1.16-5.77-1.74-.97-1.55.92-6.28-5.13-7.86,2.23-2.31,2.22-4.94,2-8,3.89.91,3.2-1.98,3.91-4.59l-1.91-10.41c.79-.74,4.03-3.31,5-4,.27,4.74,5.84,1.82,5-3,.93-.65,2.51-.66,3-1,1.27,1.29,3.08,3.03,5,3l4,93.49c-.16,2.8,4.31,3.31,6.08,2.07,2.63-1.85.08-14.68-.06-18.08-1.07-25.8-2.41-51.66-4.01-77.49,1.63.16,4.54-2.24,4.9-3.71.4-1.66-1.44-3.4-1.9-5.29,9.2-.54,18.42.37,27.5.8,1.88.09,4.38-1.38,6.5-.8.5.14,3.23,3.8,7,2,.1,2.06,1.73,6.74,1.99,9.51,2.16,22.86,4.37,45.7,7.01,68.49h107l-10.14-83.86-60.2-.19c-2.51,5.8-2.8,10.01-8.72,13.48-4.41,2.58-20.41,4.5-25.41,3.54-5.87-1.12-7.46-11.09-8.52-15.98-.55-2.53-.24-5.52-1-9-.12-2.81.21-5.68-.01-8.49-4.24-53.36-16.71-108.96-19.98-162.02-.7-11.33-.01-21.96,3.05-32.83-11.47-5.93-21.15-15.13-35.07-12.66l-.04,169.55c1.32,10.54,3.51,20.97,5.04,31.46.29,2.01-.58,3.46,0,7,.22,1.34.79,2.65,1,4-4.15-1.94-7.94,8.83-7,10-1.34,3.19-20.91,15.78-21.99,15l-28.21-165.29c-1.05-2.83-5.54-2.43-5.82.82l14.01,87.47c-1.28,1.33-21.93-7.03-25.58-6.95-3.06.06-3.62,5.04-.74,6.79,3.74,2.28,27.11,6.91,28.22,8.27l14.99,89.32c-.62,1.61-1.96,1.48-3.33,1.63-7.87.86-18.77-.05-27.01,0-11.51.06-23.04-.14-34.55-.04-.01-38.32.04-76.69,0-115.01-.04-47.98.03-96.02,0-144ZM461,281c13.61,8.64,22.56,13.69,26.87,30.63l14.13,75.37v-123h-25.5l-21.5,12.01c-.4.53,3.26,3.48,4,3.99-4.8,4.83,2.15,7.75,2,1ZM578,284c-.62-.37-1.55-3.59-3.01-1.49-.34,2,2.39,2.63,3.01,3.49,2.92,4.07,8.11,15.79,8.95,20.55,3.88,22.2,4.72,50.4,7.05,73.45-11.12-5.2-7.92,19.35,0,6,.02.16.85,1.19,1.04,2.42.21,1.34-.33,5.3-.05,5.58.43.42,9.15-1.7,10.04,4.56,1.01,7.08-7.96,6.34-8.07,7,.95,4.6,3.74,55.44,6.53,55.44h59c3.05,0,3.05,8,0,8h-59.5l1,11h69l-24.56-152.06c1.34-1.89,6.62-1.46,6.56,1.56l18.47,104.53c1.2,1.84,10.3-.75,13.04-1.02,1.79-.17,11.39.5,11.5-.52-6.15-31.1-11.16-62.45-17.49-93.51-2.05-10.08-3.83-25.3-7.66-34.34-7.51-17.77-31.89-25.64-46.38-36.6-8.68,19.4-29.7,27.32-48.49,15.97ZM566.95,269.04c-2.07-1.42-5.57,3.12-6.93,4.46l11.98,6.49c-.78-1.59-4.54-10.62-5.04-10.96ZM457.99,287.01c-1.09-1.09-3.08.9-1.99,1.99s3.08-.9,1.99-1.99ZM438.99,294.01c-2.48-1.86-5.34,6.81-.5,4.98,2.38-.9.86-3.2.5-4.98ZM753,433l-10.5-99.01-10.5,99.01h21ZM300,774l-55.99-437-53.01,437h109ZM439.99,362.01c-1.59-.43-2.37.46-3.54.96-1.25.53-5.15,2.03-4.45,4.03,4.66.11,8.92,1.2,7.99-4.99ZM429.99,424c-3.66-.78-1.12,2.99-2.2,4.8-.89,1.48-9.31,4.3.2,6.2l2-11ZM588.99,501.99c.97-2.94,2.42-8.58-1.69-9.79-1.56-.46-8.31-.58-9.38.22s-.65,2.93-1.29,4.27c-.21.43-1.57.52-1.66.8-1.66,5.16,5,.5,7.44.53,4.06.05,3.16,3.7,6.57,3.96ZM432.26,500.75c1.89,1.81,8.42,1.93,7.74-1.24-.16-.77-5.39-4.59-6.36-4.42-2.3.41-3.21,3.9-1.38,5.66ZM432,560c-.31-8.03,1.73-15.94,1.01-24.01h-6.01s-5.01,59.49-5.01,59.49l7.02.52c0-5.83.42-11.78.95-17.59.12-1.31,1.03-2.25,1.04-2.42,3.92,2.12,7.56,4.77,11.29,7.21,1.36.89,3.64.91,5.09,1.91,2.37,1.63,3.91,6.32,8.29,6.67.39.03,6.9-2.66,7.15-2.95.34-.4,2.05-9.06,2.18-10.32.48-4.64-.45-17.03-1.02-22-.31-2.72-2.3-14.86-3.95-16.05-2.67-1.92-12.5-.72-15.08,1.03-1.63,1.1.43,3.82-.86,5.82-.8,1.24-4.11,1.68-5.68,3.61-2.42,2.97-1.35,9.95-6.42,9.08ZM476.01,535.99h-6.01s-2,60.01-2,60.01l5.96-.06c1.54-19.82,1.96-39.99,2.05-59.95ZM479.99,589.01c-1.09-1.09-3.08.9-1.99,1.99s3.08-.9,1.99-1.99Z"/>
    <path class="cls-12" d="M578,284c18.79,11.36,39.81,3.43,48.49-15.97,14.49,10.96,38.86,18.83,46.38,36.6,3.82,9.04,5.6,24.26,7.66,34.34,6.33,31.06,11.34,62.41,17.49,93.51-.11,1.02-9.71.35-11.5.52-2.74.26-11.83,2.86-13.04,1.02l-18.47-104.53c.06-3.02-5.23-3.45-6.56-1.56l24.56,152.06h-69l-1-11h59.5c3.05,0,3.05-8,0-8h-59c-2.79,0-5.59-50.83-6.53-55.44.11-.66,9.07.08,8.07-7-.89-6.25-9.61-4.14-10.04-4.56-.29-.28.26-4.25.05-5.58-.19-1.23-1.02-2.26-1.04-2.42-.21-1.93.2-4.06,0-6-2.33-23.05-3.17-51.24-7.05-73.45-.83-4.77-6.03-16.49-8.95-20.55v-2ZM597.73,310.15c-5.77,1.54-4.7,12.21,1.68,11.87,8.94-.49,6.4-14.03-1.68-11.87ZM603.76,361.76c7.57-7.57-11.34-15.85-9.72-3.35.68,5.25,6.84,6.24,9.72,3.35Z"/>
    <path class="cls-13" d="M856,845c-.18.17-.8-.16-1,0-10.67-4.14-8.18-4.74-8-14,0-.16,1.32-1.21.78-2.14l-57.98-367.68c-2.63-.84-4.33-1.96-7.24-2.26-30.62-3.09-66.91,4.05-98.12,2.02-5.36.26-2.71,3.03-2.45,6.05.03.38-2.92,2.43,1,2,.26,4.04.33,9.08,1,13h-3l-5.89-37.35c1.43-5.31,29.77-3.43,35.43-3.61,21.25-.71,43.67-2.57,65-1.08,26.84,1.87,30.36,18.06,34.29,40.71,19.8,113.97,34.21,228.98,54.03,342.96,1.36,8.34-1.81,15.89-7.87,21.37Z"/>
    <path class="cls-6" d="M625,835c4.79-1.4,6.09-2.33,7,3,.15.85,0,2.05,0,3-4.06-.49-1.07,2.11-1,3,.11,1.28.04,2.71,0,4-.01.33.04.67,0,1-3.87-.31-1.2,1.12-1,2s-.63,2.74.55,3.06l100.45-1.06c.78-2.33-1.75-6.89,2-6,5.56,2.69,11.21,5.39,17.51,5.99,18,1.73,38.95.36,56.95-.03,17.05-.37,33.66,3.38,47.54-7.96.2-.16.82.17,1,0,2.89,2.34.96,4.02,1,6,0,.33-.03.67,0,1-.95.48-3.22,1.8-1.99,2.99.87.85,2.84-.98,2.99-.99,1.98-.23,12.87-.3,13.79.22,3.05,1.74,3.25,11.35-2.23,10.83-182.52-.11-365.05-.05-547.56-.06,1.15-3.31-8.54-2.97-7,0-39.98,0-80.02-.05-120,0-.09-.92.54-1.75-.63-2.02-2.04-.48-9.87-.78-8.37,2.02-1,0-2,0-3,0-.08-4.21-8.9-3.21-10.57-5.99-1.91-3.18,6.22-7.65.57-8.01.1-.63-.1-1.37,0-2,2.14-.47,6.34,1.69,8,3,.12.1-.56,2.45,1.43,2.08h125.14c1.95.34,1.29-1.96,1.43-2.08.21-.19,5.84-.88,0-2v-2c0-.66-.04-1.34,0-2,.06-.99-.03-2,0-3s.93.12,0-3c-.16-.52.1-1.37,0-2,.57.32,1.93.16,2.75.73,1.98,1.37,2.02,3.68,4.25,3.27.14,1.64-.11,3.35,0,5,.09,1.33.43,6.73,1.61,7.06h301.93c4.03.08,3.26-2.16,3.45-5.06,4.22.53,1.08-2.78,1-4-.09-1.3-.03-2.69,0-4,4.06.49,1.07-2.12,1-3-.08-.98-.01-2.02,0-3Z"/>
    <path class="cls-12" d="M515,465c-1.53-10.49-3.72-20.92-5.04-31.46l.04-169.55c13.92-2.47,23.6,6.73,35.07,12.66-3.07,10.87-3.75,21.51-3.05,32.83,3.27,53.06,15.74,108.65,19.98,162.02.22,2.82-.11,5.68.01,8.49-.97-4.46-2.05-12.5-6.07-14.48-1.6-.78-2.77-.27-3.93-.52-8.02-1.78-17.15-1.12-25.51-1.02-1.69.02-4.45-.64-5.49,1.02-1.9-.23-4.05.16-6,0Z"/>
    <path class="cls-10" d="M487,529l-169.28-.27c-5.76-.81-.74-11.5-.65-16.23.24-12.95-20.62-14.01-22.85-28.25,9.2-53.78,16.27-108.83,27.08-162.44,1.43-7.09,2.14-14.95,5.85-21.15,6.51-10.86,19.64-15.39,28.85-23.15,6.88-5.81,10.68-13.79,17.69-19.31l53.77-.18c2.62.49,4.97,3.25,4.52,5.97-4.32.05-8.68-.04-13,0-2.33.03-4.67-.01-7,0-9.51.04-18.84.54-28,1-1.99.1-4.01-.05-6,0-.12,0-.74-1.09-2.21-.86-3.72.56-5.37,6.47-7.81,9.34-11.15,13.12-26.67,17.15-36.16,30.84-13.24,57.31-20.04,116.49-31.71,174.33-1.26,11.72,11.79,15.94,18.88,22.35l25.96-166.55c4.27-1.8,5.71,1.05,5.07,5.01l-13.01,84.53c1.5,1.51,22.21-7.08,25.54-6.94,3.16.14,5.16,4.8,1.79,6.78-3.68,2.16-15.95,4.15-21.09,5.9-1.74.59-6.54,1.69-7.25,3l-13.99,89.27h90c.02-37.98-.03-76.02,0-114h7c.03,38.32-.02,76.69,0,115.01,11.5-.1,23.03.1,34.55.04,8.24-.05,19.14.86,27.01,0,1.38-.15,2.71-.02,3.33-1.63l-14.99-89.32c-1.12-1.36-24.49-5.99-28.22-8.27-2.87-1.75-2.31-6.73.74-6.79,3.65-.07,24.3,8.29,25.58,6.95l-14.01-87.47c.28-3.25,4.76-3.65,5.82-.82l28.21,165.29c1.08.79,20.65-11.81,21.99-15,.17.21,1.83-.23,2,0,2.59,3.47-3.15,10.02-6,12.01-.49.34-2.07.35-3,1-1.61,1.14-3.57,1.98-5,3-.97.69-4.21,3.26-5,4-7.02,6.6-2.55,7.35-2,15,.22,3.06.23,5.69-2,8-.31-.08-.68.06-1,0Z"/>
    <path class="cls-8" d="M736,808c2.48.32,1.91-1.56,2.55-2.9,20.32-42.92,41.34-85.51,61.6-128.45,7.85-10.34,22.36,3.12,18.36,13.37l-68.05,140.95-.46,3.03c3.64-.52,10.56,1.4,13.05-1.44l25.76-54.24c2.88-6.61,10.58-2.2,8.78,3.73-1.64,6.3-25.65,49.98-23.59,51.96,24.27-.97,49.32,2.54,73-2.99-.18,9.26-2.67,9.86,8,14-13.88,11.34-30.5,7.59-47.54,7.96-18,.39-38.95,1.76-56.95.03-6.29-.61-11.95-3.3-17.51-5.99-4.99-6.64-6.9-10.07-9-18,6.54-.38,11.82-15.68,12-21Z"/>
    <path class="cls-1" d="M684,482c18.45,108.31,34.86,217.33,52,326-.18,5.32-5.46,20.62-12,21-.52-1.95-1.37-3.91-1.75-5.75-9.58-46.03-15.07-96.74-22.42-143.58-5.51-35.1-11.87-70.13-15.92-105.06-3.35-28.8-7.35-57.67-9.79-86.49,3.61-.45,7.27-1.91,6.88-6.11h3Z"/>
    <path class="cls-13" d="M459,280c-.74-.5-4.4-3.46-4-3.99l21.5-12.01h25.5v123l-14.13-75.37c-4.31-16.94-13.26-21.99-26.87-30.63-.72-.45-1.57-.71-2-1Z"/>
    <path class="cls-5" d="M432,560c5.06.87,4-6.11,6.42-9.08,1.57-1.93,4.88-2.37,5.68-3.61,1.29-1.99-.77-4.71.86-5.82,2.58-1.75,12.41-2.95,15.08-1.03,1.65,1.18,3.64,13.33,3.95,16.05.57,4.97,1.49,17.36,1.02,22-.13,1.25-1.84,9.91-2.18,10.32-.25.3-6.76,2.99-7.15,2.95-4.38-.35-5.92-5.04-8.29-6.67-1.45-1-3.73-1.02-5.09-1.91-3.73-2.44-7.37-5.09-11.29-7.21.23-2.54-.07-5.38,0-8,4.3.68,1.09-3.78,1-5-.07-.99.04-2.01,0-3Z"/>
    <path class="cls-5" d="M488,529c6.05,1.58,4.16,6.31,5.13,7.86.36.58,4.35.96,5.77,1.74,1.34.74,8.48,6.17,8.88,7.12.36.87,2.03,9.9,1.94,10.67-.26,2.13-3.55,4.98-4.25,7.57-2.58,9.57,5.15,8.9,5.52,14.61.14,2.16-1.31,5.76-3.99,5.42.11-5.26.53-12.19-5.96-7.46-4.3,3.14,2.85,10.37,3.95,14.46-3.07-.37-17.08,4.12-17.99.47-.5-1.98,1.95-3.34,1.84-4.8-.16-2.18-5.55-6.47-4.65-12.96.74-5.35,6.4-4.4,6.76-4.76,2.14-2.19-2.08-5.84-2-6.42.48-3.31,5.46-4.23,5.11-7.98-.24-2.48-3.29-3.29-3.86-5.25-.4-1.38-.99-7.08-1.11-8.91-.1-1.64,1.17-3.5.82-4.75-.52-1.85-6.28-2.25-2.91-6.64.32.06.69-.08,1,0Z"/>
    <path class="cls-11" d="M594.73,253.19c2.52-.34,17.44,6.28,20.64,7.94,5.66,2.94,3.61,5.63.47,10.21-8.38,12.22-25.74,13.91-36.78,4.1-2.82-2.5-8.2-10.5-4.45-13.33.97-.73,19.02-8.78,20.11-8.92Z"/>
    <path class="cls-13" d="M515,472h38.01s0,20,0,20c-2.12-.58-4.62.89-6.5.8-9.08-.43-18.3-1.34-27.5-.8-1.27-5.29-2.17-10.62-3-16-.21-1.35-.78-2.66-1-4Z"/>
    <path class="cls-11" d="M522,256h-47c.26-2.73,6.78-12.23,8.69-12.81,2.69-.82,22.07-.62,25.87-.25,6.84.66,9.08,8.05,12.44,13.06Z"/>
    <path class="cls-6" d="M521,465c8.51,1.02,16.76,1.13,25.51,1.02,1.69-.02,4.45.64,5.49-1.02,1.17.26,2.34-.26,3.93.52,4.01,1.97,5.09,10.01,6.07,14.48.76,3.48.45,6.47,1,9-2.6-.72-3.09,2.99-3,5-3.77,1.8-6.5-1.86-7-2v-20.01s-38,0-38,0c-.58-3.54.29-4.99,0-7,1.95.16,4.1-.23,6,0Z"/>
    <path class="cls-1" d="M431,576c-.02.17-.92,1.11-1.04,2.42-.53,5.81-.95,11.75-.95,17.59l-7.02-.52,5.01-59.49h6.01c.72,8.06-1.32,15.97-1.01,24,.04.99-.07,2.01,0,3-1.45,1.46-.95,3.23-1,5-.07,2.62.23,5.46,0,8Z"/>
    <path class="cls-1" d="M424,252h-46c.33-1.95,4.33-8.38,5.67-8.83,2.1-.72,29.33-.66,32.9-.23s6.7,5.61,7.44,9.06Z"/>
    <path class="cls-7" d="M619.99,253.99c-1.36,1.28-19.37-7.83-23.6-7.92-7.48-.16-14.89,7.64-22.38,6.43,2.51-2.02,4.63-8.4,7.7-9.3,2.5-.73,29.26-.53,31.27.31,1.68.7,8.07,9.48,7.02,10.47Z"/>
    <path class="cls-6" d="M516,476c.83,5.38,1.73,10.71,3,16,.45,1.89,2.3,3.63,1.9,5.29-.35,1.47-3.27,3.87-4.9,3.71-3.31-.32-3.33-.05-6,0-1.92.03-3.73-1.71-5-3,2.85-1.99,8.59-8.54,6-12.01-.17-.22-1.83.22-2,0-.94-1.17,2.85-11.94,7-10Z"/>
    <path class="cls-9" d="M588.99,501.99c-3.41-.26-2.51-3.92-6.57-3.96-2.44-.03-9.1,4.63-7.44-.53.09-.28,1.45-.37,1.66-.8.64-1.34.25-3.49,1.29-4.27s7.81-.68,9.38-.22c4.11,1.21,2.66,6.85,1.69,9.79Z"/>
    <path class="cls-6" d="M492,506l1.91,10.41c-.71,2.61-.02,5.5-3.91,4.59-.55-7.65-5.02-8.4,2-15Z"/>
    <path class="cls-9" d="M594,380c.2,1.94-.21,4.07,0,6-7.92,13.35-11.12-11.2,0-6Z"/>
    <path class="cls-7" d="M566.95,269.04c.5.34,4.26,9.36,5.04,10.96l-11.98-6.49c1.36-1.34,4.87-5.88,6.93-4.46Z"/>
    <path class="cls-9" d="M432.26,500.75c-1.82-1.75-.92-5.25,1.38-5.66.97-.17,6.19,3.65,6.36,4.42.68,3.17-5.85,3.05-7.74,1.24Z"/>
    <path class="cls-9" d="M429.99,424l-2,11c-9.51-1.9-1.09-4.72-.2-6.2,1.09-1.81-1.46-5.58,2.2-4.8Z"/>
    <path class="cls-9" d="M439.99,362.01c.93,6.19-3.33,5.1-7.99,4.99-.7-2.01,3.2-3.5,4.45-4.03,1.17-.5,1.95-1.38,3.54-.96Z"/>
    <path class="cls-9" d="M598,192.01c.73,3.93-6.71,1.26-9,1.98,1.49-3.32,6.16-1.66,9-1.98Z"/>
    <path class="cls-9" d="M438.99,294.01c.36,1.79,1.88,4.08-.5,4.98-4.84,1.83-1.97-6.85.5-4.98Z"/>
    <path class="cls-9" d="M461,281c.15,6.75-6.8,3.83-2-1,.43.29,1.28.55,2,1Z"/>
    <path class="cls-6" d="M502,499c.84,4.82-4.73,7.74-5,3,1.43-1.02,3.39-1.86,5-3Z"/>
    <path class="cls-7" d="M578,284v2c-.62-.86-3.35-1.49-3.01-3.49,1.46-2.1,2.39,1.12,3.01,1.49Z"/>
    <path class="cls-5" d="M479.99,589.01c1.09,1.09-.9,3.08-1.99,1.99s.9-3.08,1.99-1.99Z"/>
    <path class="cls-9" d="M457.99,287.01c1.09,1.09-.9,3.08-1.99,1.99s.9-3.08,1.99-1.99Z"/>
    <path class="cls-9" d="M597.73,310.15c8.08-2.16,10.62,11.38,1.68,11.87-6.38.35-7.45-10.32-1.68-11.87Z"/>
    <path class="cls-9" d="M603.76,361.76c-2.88,2.88-9.04,1.9-9.72-3.35-1.62-12.5,17.29-4.22,9.72,3.35Z"/>
    <path class="cls-7" d="M682,467c-.26-3.01-2.91-5.78,2.45-6.05,31.2,2.03,67.49-5.12,98.12-2.02,2.9.29,4.61,1.42,7.24,2.26l57.98,367.68c.53.93-.78,1.98-.78,2.14-23.67,5.54-48.73,2.02-73,2.99-2.06-1.98,21.95-45.66,23.59-51.96,1.79-5.93-5.9-10.33-8.78-3.73l-25.76,54.24c-2.49,2.84-9.41.92-13.05,1.44l.46-3.03,68.05-140.95c4-10.25-10.51-23.71-18.36-13.37-20.26,42.94-41.28,85.53-61.6,128.45-.64,1.35-.07,3.22-2.55,2.9-17.14-108.67-33.55-217.69-52-326-.67-3.92-.74-8.96-1-13-.05-.85-.03-1.74-1-2Z"/>
    <path class="cls-1" d="M683,469c-3.92.43-.97-1.62-1-2,.97.26.95,1.15,1,2Z"/>
    <path class="cls-3" d="M173,851c5.65.36-2.48,4.83-.57,8.01,1.67,2.78,10.49,1.78,10.57,5.99-12.3.03-24.71-.3-37,0-.83-2.08-2.25-4.72-2-7,.05-.49,1.13-2.7,1.48-2.99,3.01-2.53,20.64-.19,26.08-.97,1.28-.18.95-.15,1.44-1.03.12-.21-.07-.65,0-1,.07-.32-.05-.67,0-1Z"/>
    <path class="cls-3" d="M186,865c-1.5-2.8,6.33-2.5,8.37-2.02,1.16.27.53,1.1.63,2.02-2.99,0-6.01,0-9,0Z"/>
    <path class="cls-3" d="M315,865c-1.54-2.97,8.15-3.31,7,0h-7Z"/>
    <path class="cls-3" d="M624,845c.08,1.22,3.22,4.53-1,4,.04-.66,0-1.34,0-2v-2h1Z"/>
    <path class="cls-3" d="M858,854c-.16.02-2.12,1.84-2.99.99-1.23-1.2,1.05-2.52,1.99-2.99,0,.11,1.39.98,1,2Z"/>
    <path class="cls-3" d="M309,843h-1l1-3c.93,3.12.03,2.04,0,3Z"/>
    <path class="cls-3" d="M625,838c.07.88,3.06,3.49-1,3,.03-1.1-.29-2.52,1-3Z"/>
    <path class="cls-3" d="M632,841v2l-1,1c-.07-.89-3.06-3.49,1-3Z"/>
    <path class="cls-3" d="M631,849c-.09.85-.02,1.68-1,2-.2-.88-2.87-2.31,1-2Z"/>
    <path class="cls-3" d="M309,850c5.84,1.12.21,1.81,0,2v-2Z"/>
    <path class="cls-3" d="M552,465c-1.04,1.66-3.79,1-5.49,1.02-8.76.11-17.01,0-25.51-1.02,1.04-1.66,3.79-1,5.49-1.02,8.36-.1,17.5-.76,25.51,1.02Z"/>
    <path class="cls-7" d="M173,853v-1c-.07.35.12.79,0,1Z"/>
    <path class="cls-5" d="M378,265l-.02,111.42c.21,1.56,7.31.9,6.06-2.87l-.05-108.55c9.16-.46,18.49-.96,28-1-.03,47.98.04,96.02,0,144-.03,37.98.02,76.02,0,114h-90l13.99-89.27c.7-1.31,5.51-2.41,7.25-3,5.14-1.75,17.41-3.74,21.09-5.9,3.37-1.98,1.37-6.64-1.79-6.78-3.33-.14-24.04,8.45-25.54,6.94l13.01-84.53c.64-3.96-.79-6.81-5.07-5.01l-25.96,166.55c-7.09-6.41-20.14-10.63-18.88-22.35,11.68-57.84,18.47-117.02,31.71-174.33,9.49-13.7,25.01-17.73,36.16-30.84,2.44-2.87,4.09-8.78,7.81-9.34,1.48-.22,2.1.87,2.21.86ZM396.24,310.76c4.99,4.99,14.21-3.45,7.72-9.22-5.87-5.22-12.31,4.62-7.72,9.22ZM398.72,354.18c-4.66,1.36-4.85,9.36-1.06,10.65,11.29,3.84,10.46-13.39,1.06-10.65ZM397.71,407.19c-3.73,1.12-4.31,8.85.25,10.37,10.65,3.54,10.55-13.62-.25-10.37Z"/>
    <path class="cls-3" d="M432,563c.09,1.22,3.3,5.68-1,5,.05-1.77-.45-3.54,1-5Z"/>
    <path class="cls-2" d="M397.71,407.19c10.8-3.25,10.89,13.91.25,10.37-4.55-1.51-3.98-9.24-.25-10.37Z"/>
  </g>
</svg>