<?xml version="1.0" encoding="UTF-8"?>
<svg xmlns="http://www.w3.org/2000/svg" viewBox="0 0 1024 1024">
  <defs>
    <style>
      .cls-1 {
        fill: #e6e9e9;
      }

      .cls-2 {
        fill: #f4f5f6;
      }

      .cls-3 {
        fill: #6b7273;
      }

      .cls-4 {
        fill: #848b8b;
      }

      .cls-5 {
        fill: #7f7373;
      }

      .cls-6 {
        fill: #383f3e;
      }

      .cls-7 {
        fill: #fcfcfd;
      }

      .cls-8 {
        fill: #eaedee;
      }

      .cls-9 {
        fill: #1c2321;
      }

      .cls-10 {
        fill: #505858;
      }

      .cls-11 {
        fill: #434a4a;
      }

      .cls-12 {
        fill: #222828;
      }

      .cls-13 {
        fill: #d8dbdc;
      }

      .cls-14 {
        fill: #1e2423;
      }
    </style>
  </defs>
  <g id="_검은색_배경" data-name="검은색 배경">
    <rect class="cls-5" x="0" y="0" width="1024" height="1024"/>
  </g>
  <g id="_레이어_1" data-name="레이어 1">
    <g>
      <path class="cls-14" d="M142.09,644.64c-4.59,5.81-11.01,10.77-18.88,10.98-2.69.07-5.3-1.34-8.14-1.33-13.54.07-33.13,4.21-41.02-8.26-.13-2.29-1.36-4.74-1.45-7.57-.29-9.43-1.53-35.15.4-42.77s10.26-10.22,16.96-10.81c9.32-.82,37.07-1.18,44.29,3.04,5.54,3.24,8.54,9.5,9.24,15.75,1.32,11.79-.47,28.78-1.39,40.96ZM84.12,642.9c4.03,4.3,31.12,3.82,37.82,3.13,7.93-.82,9.78-2.51,10.48-10.34.67-7.41.93-24.97,0-32.06-.53-4.08-2.43-6.2-6.22-7.66-5.76-2.23-37.71-2.67-41.74,1.51-3.23,3.35-3.21,42.4-.35,45.44Z"/>
      <path class="cls-12" d="M764.06,294c-1.81.91-3.6,2.99-5.48,3.53-7.71,2.21-54.52,1.58-64.69.67-2.97-.27-5.14-1.35-7.6-2.81.1-13.73-1.59-32.22-.07-45.19.16-1.4.63-4.79,2.15-4.79h73.61c1.52,0,1.99,3.39,2.15,4.79,1.5,12.75-.3,30.32-.07,43.8ZM754.34,255.13h-58.33v33.32h58.33v-33.32Z"/>
      <path class="cls-12" d="M202.07,223.76c-5.25-1.62-3-10.28,6.88-11.17,16.43-1.48,59.32-2.04,74.98.2,9.58,1.36,5.73,10.98,2.86,10.98h-84.72Z"/>
      <path class="cls-9" d="M288.87,243.2h-87.49c.09-.44-.06-.93,0-1.39.11-.9-.08-1.87,0-2.78.19-.17-.72-3.36,1.98-2.9l82.04.11c4.37.41,3.22,3.78,3.47,6.95Z"/>
      <path class="cls-12" d="M939.6,615.7c1.62-5.25,10.28-3,11.17,6.88,1.48,16.43,2.04,59.32-.2,74.98-1.36,9.58-10.98,5.73-10.98,2.86v-84.72Z"/>
      <path class="cls-9" d="M920.17,702.5v-87.49c.44.09.93-.06,1.39,0,.9.11,1.87-.08,2.78,0,.17.19,3.36-.72,2.9,1.98l-.11,82.04c-.41,4.37-3.78,3.22-6.95,3.47Z"/>
      <path class="cls-12" d="M859.53,294.26c13.54-2.73,14.05,19.35-1.45,14.73-5.35-1.6-6.21-13.18,1.45-14.73Z"/>
      <path class="cls-12" d="M194.56,338.65c-4.99,4.91-16.29-.38-12.85-7.96,4.98-10.97,19.83,1.09,12.85,7.96Z"/>
      <path class="cls-12" d="M407.73,267.85c-5.68-5.64,2.25-17.19,10.21-10.9,7.34,5.8-2.83,18.23-10.21,10.9Z"/>
      <path class="cls-12" d="M432.72,267.85c-4.27-4.29-1.95-12.73,5.91-12.29,13.61.77,2.51,20.74-5.91,12.29Z"/>
      <path class="cls-12" d="M642.22,767.31c9.12-.83,9.61,13.92.95,14.68s-10.5-13.82-.95-14.68Z"/>
      <path class="cls-12" d="M615.9,768.68c14.34-4.33,11.32,16.83.84,12.6-5.88-2.37-6.53-10.88-.84-12.6Z"/>
      <path class="cls-7" d="M844.85,734.64c-8.79,2.34-16.66,8.71-25.03,11.77-70.33,25.7-92.02-54.78-145.29-76.82-26.77-11.08-52.51-7.43-80.42-8.53-2.67-.11-5.57,1.43-4.8-2.78,16.79-1.94,20.97,1.47,37.92-8.6,71.54-42.56,7.24-151.37-65.23-109.63-53.63,30.89-35.43,110.13,24.53,118.23-.44.48.79,2.92-.71,2.8-34.18-2.8-68.53-.85-102.7.04-37.28.97-79.18-.94-115.24,9.75-59.56,17.66-108.71,109.79-178.16,64.09-7.31-4.81-12.3-11.66-19.82-15.58-1.31-60.99,23.46-152.63,41.64-211.74,8.45-27.49,20.14-67.44,32.27-92.68,5.4-11.24,12.85-17.11,24.39-21.43,34.33-12.87,74.37-20.32,109.39-32.36,13.03,1.61,22.14,8.81,35.98,9.82,61.48,4.48,128.32-3.52,190.37,0,11.74-.87,22.25-6.17,33.29-9.59,41.45,14.17,86.34,20.25,126.37,37.31,20.96,17.82,28.82,45.79,37.18,71.12,23.67,71.73,52.69,190.69,44.07,264.84ZM502.84,386.52c-22.85,4.27-21.95,42.01,2.57,45.36,35.63,4.86,35.73-52.52-2.57-45.36ZM711.54,463.92c4.51-9.61,7.18-17.25,3.45-27.75-8.33-23.48-42.26-26.94-54.01-4.04-11.79,22.98,6.59,46.23,31.68,42.77,4.85-.67,8.43-4.07,13.3-4.03-.54,4.43-4.01,7.95-4.93,12.4-2,9.64,1.4,17.08,6.32,25.06-4.17.81-5.66-3.04-8.93-4.25-14.2-5.27-19.72-.06-32.73,4.25,3.4-4.1,6.06-7.79,6.82-13.3,2.12-15.34-4.58-29.62-19.32-34.58-29.84-10.03-52.56,27.91-29.89,49.31,7.45,7.03,15.88,9.7,26.09,7.96,5.73-.98,9.67-5.02,14.9-6.6-1.74,6.48-6.33,9.98-6.95,17.36-2.52,29.89,38.72,43.51,54.52,18.38,8.16-12.98,4.67-23.81-3.11-35.72,5.78,2.14,11.15,6.03,17.48,6.81,28.29,3.49,45.11-30.39,24.23-50.59-12.38-11.98-24.37-8.9-38.92-3.44ZM325.11,421.26c-76.46,10.34-69,131.63,10.75,131.66,92.22.03,87.7-144.97-10.75-131.66ZM449.05,504.19c-7.05,25.39,29.96,16.65,36.21.8.97-2.46,3.99-16.25-1.49-16.07,6.54-36.44-43.97-40.64-47.21-10.42-1.04,9.66,3.11,21.63,12.49,25.69ZM550.43,504.19c-.58,24.94,33.48,15.54,37.17-2.4.66-3.19,1.82-14.66-3.84-14.26,4.67-33.36-38-38.61-46.16-13.51-3.73,11.48.71,25.93,12.83,30.17ZM411.22,539.26c-16.03,2.17-34.97,17.46-41.59,32-23.5,51.55,32.94,103.12,81.75,74.77,55.9-32.47,27.6-115.94-40.15-106.77Z"/>
      <path class="cls-1" d="M589.32,658.29c-.77,4.21,2.13,2.67,4.8,2.78,27.9,1.1,53.65-2.55,80.42,8.53,53.28,22.04,74.97,102.53,145.29,76.82,8.37-3.06,16.24-9.43,25.03-11.77-5,42.98-41.28,75.8-83.33,51.37l-38.92-52.02c-34.04-41.49-56.73-62.71-113.16-65.96-42.97-2.48-87.63.33-130.48,1.43-36.67.95-69.25-2.57-104.02,12.63-59.42,25.99-94.32,140.86-174.67,89.53-8.92-5.7-14.52-13.84-23.43-18.92-.57-1.45-.92-2.71-1.39-4.16,2.38-2.4,1.89-3.2-1.39-2.78-2.21-8.18-3.98-17.87-4.17-26.38,7.52,3.92,12.52,10.78,19.82,15.58,69.46,45.71,118.6-46.43,178.16-64.09,36.06-10.69,77.96-8.78,115.24-9.75,34.17-.89,68.51-2.84,102.7-.04,1.5.12.28-2.31.71-2.8.18-.2,1.96.1,2.78,0Z"/>
      <path class="cls-2" d="M761.53,786.01c-29.06-16.89-55.79-68.05-86.22-90.82-55.27-41.37-171.12-13.2-238.12-21.69-86.01,5.13-94.9,53.53-143.72,106.22-38.42,41.48-97.02,22.23-116.62-27.03,8.91,5.08,14.51,13.22,23.43,18.92,80.35,51.34,115.25-63.54,174.67-89.53,34.77-15.21,67.34-11.69,104.02-12.63,42.85-1.11,87.51-3.91,130.48-1.43,56.43,3.26,79.13,24.47,113.16,65.96l38.92,52.02Z"/>
      <path class="cls-4" d="M626.81,341.76c1.37,3.99-4.37,6.32-4.18,9.01.11,1.56,5.66-.86,4.18,3.48-22.98,6.81-24.93,5.16-47.98,5.49-46.72.66-93.37,1.71-140.14,1.51-22.88-.1-38.04-1.7-59.08-11.16l4.17-9.72c12.72,3.19,23.98,10.21,36.74,11.17,58.2,4.38,121.83-3.4,180.61-.06,9.16-1.24,17.09-7.27,25.69-9.72Z"/>
      <path class="cls-3" d="M383.78,340.38l-4.17,9.72c-31.49,6.97-61.53,19.56-92.76,27.36-2.46.61-6.4,2.6-8.61,1.11,14.4-13.89,34.13-24.82,52.8-31.9,18.81-7.13,33.22-11.17,52.74-6.28Z"/>
      <path class="cls-3" d="M643.48,337.6c-.81,4.5,2.28,2.25,4.79,2.78,22.36,4.74,63.2,19.16,78.54,34.71-7.34-1.63-14.96-2.93-22.23-4.85-14.53-3.84-58.2-19.81-69.75-18.48-1.88.22-5.68,1.82-8.01,2.51,1.48-4.34-4.07-1.92-4.18-3.48-.19-2.69,5.55-5.02,4.18-9.01,4.34-1.24,5.23-1.09,9.72-1.39,6.55-.43,3.28-1.98,4.17-2.78.22-.2,1.95.08,2.78,0Z"/>
      <path class="cls-11" d="M643.48,337.6c31.28-2.87,71.31,20.91,94.44,40.25-3.19.35-8.83-.45-11.11-2.76-15.34-15.55-56.18-29.97-78.54-34.71-2.51-.53-5.6,1.72-4.79-2.78Z"/>
      <path class="cls-11" d="M640.7,337.6c-.89.8,2.39,2.34-4.17,2.78-.65-3.71.88-2.83,4.17-2.78Z"/>
      <path class="cls-2" d="M174.07,745.75c3.28-.42,3.77.38,1.39,2.78-.08-.25-.92-1.05-1.39-2.78Z"/>
      <path class="cls-9" d="M711.54,463.92c14.55-5.47,26.54-8.54,38.92,3.44,20.88,20.21,4.06,54.09-24.23,50.59-6.32-.78-11.7-4.67-17.48-6.81,7.78,11.91,11.27,22.75,3.11,35.72-15.8,25.13-57.04,11.52-54.52-18.38.62-7.37,5.21-10.87,6.95-17.36-5.23,1.58-9.17,5.62-14.9,6.6-10.21,1.74-18.65-.93-26.09-7.96-22.67-21.4.05-59.34,29.89-49.31,14.74,4.96,21.44,19.24,19.32,34.58-.76,5.51-3.42,9.19-6.82,13.3,13.01-4.31,18.54-9.52,32.73-4.25,3.27,1.21,4.76,5.05,8.93,4.25-4.92-7.98-8.32-15.42-6.32-25.06.92-4.45,4.39-7.97,4.93-12.4-4.87-.04-8.46,3.36-13.3,4.03-25.09,3.46-43.47-19.79-31.68-42.77,11.75-22.9,45.68-19.45,54.01,4.04,3.72,10.49,1.06,18.14-3.45,27.75ZM683.39,428.17c-23.9,4.37-15.01,45.56,11.06,34.64,19.23-8.06,11.87-38.83-11.06-34.64ZM710.13,468.09c1-1.95-.88-3.7-1.36-2.76-1,1.95.88,3.7,1.36,2.76ZM626.81,484.76c-.29,1.72-.16,5.07,0,6.94,1.92,22.52,34.77,19.86,34.83-3.47.06-21.26-31.36-24.11-34.83-3.47ZM712.92,487.53c-.13,1.22-.13,2.95,0,4.16,2.14,19.44,29.96,20.67,35.17,2.54,7.28-25.33-32.3-34.07-35.17-6.7ZM669.87,529.18c-.15,1.21-.11,2.92,0,4.16,1.99,23.2,34.84,20.56,34.83-2.09,0-23.23-32.3-23.01-34.83-2.08Z"/>
      <path class="cls-9" d="M325.11,421.26c98.45-13.31,102.97,131.69,10.75,131.66-79.75-.03-87.21-121.32-10.75-131.66ZM329.31,431c-62.96,7.52-62.69,100.81-3.93,110.05,87.65,13.78,88.66-120.17,3.93-110.05Z"/>
      <path class="cls-14" d="M589.32,658.29c-.82.1-2.6-.2-2.78,0-59.97-8.1-78.16-87.35-24.53-118.23,72.47-41.74,136.77,67.07,65.23,109.63-16.94,10.08-21.13,6.66-37.92,8.6ZM586.2,542.03c-61.71,7.83-60.68,102.03,5.22,106.51,75.77,5.15,74.11-116.57-5.22-106.51Z"/>
      <path class="cls-14" d="M411.22,539.26c67.75-9.17,96.05,74.3,40.15,106.77-48.8,28.35-105.24-23.23-81.75-74.77,6.63-14.54,25.57-29.83,41.59-32ZM386.55,626.36c44.53,54.24,121.87-27.64,63.88-68.03-46.69-32.52-98.76,25.54-63.88,68.03Z"/>
      <path class="cls-9" d="M483.77,488.92c-2.51,14.02-22.53,20.54-34.72,15.27-9.38-4.06-13.53-16.03-12.49-25.69,3.25-30.22,53.75-26.02,47.21,10.42ZM455.59,469.78c-10.35,2.36-12.72,16.7-2.83,23.07,22.42,14.44,31.19-29.54,2.83-23.07Z"/>
      <path class="cls-9" d="M583.76,487.53c-2.13,15.21-19.85,21.37-33.33,16.66-12.12-4.24-16.56-18.69-12.83-30.17,8.15-25.09,50.83-19.84,46.16,13.51ZM555.59,469.79c-12.62,2.88-12.07,23.63,2.85,25.8,19.73,2.88,21.62-31.38-2.85-25.8Z"/>
      <path class="cls-14" d="M502.84,386.52c38.31-7.16,38.2,50.22,2.57,45.36-24.52-3.35-25.42-41.08-2.57-45.36ZM504.6,397.3c-7.63,2.87-8.28,9.49-6.56,17.01.98,4.31,2.92,4.01,5.18,5.2,22.83,12.07,24.19-30.78,1.39-22.21Z"/>
      <path class="cls-1" d="M483.77,488.92c5.48-.18,2.46,13.61,1.49,16.07-6.25,15.85-43.26,24.6-36.21-.8,12.19,5.27,32.21-1.25,34.72-15.27Z"/>
      <path class="cls-1" d="M583.76,487.53c5.66-.4,4.5,11.07,3.84,14.26-3.69,17.94-37.75,27.34-37.17,2.4,13.48,4.72,31.2-1.45,33.33-16.66Z"/>
      <path class="cls-8" d="M669.87,529.18l8.77-8.59c1.48-1.42,13.05-6.17,13.46-3.2.76,5.53-7.21,5.56-11.04,8.4-4.19,3.11-4.52,9.03-11.19,7.56-.11-1.24-.15-2.95,0-4.16Z"/>
      <path class="cls-8" d="M626.81,484.76c5.18-1.83,5.94-7.33,12.46-9.07,2.83-.75,7.17-1.5,9.78.06-1.87,4.7-7.94,4.4-11.84,7.6-3.67,3.02-4.41,9.12-10.4,8.35-.16-1.87-.29-5.22,0-6.94Z"/>
      <path class="cls-8" d="M712.92,487.53l11.03-10.49c1.33-1.64,11.24-3.19,11.2-1.29-.08,3.84-9.14,5.44-12.37,8.45-3.73,3.47-3.01,9.27-9.86,7.5-.13-1.21-.13-2.95,0-4.16Z"/>
      <path class="cls-7" d="M710.13,468.09c-.48.94-2.36-.81-1.36-2.76.48-.94,2.36.81,1.36,2.76Z"/>
      <path class="cls-2" d="M586.2,542.03c79.33-10.06,80.98,111.67,5.22,106.51-65.9-4.48-66.93-98.69-5.22-106.51ZM625.43,570.83c-8.78-3.25-11.53-12.48-24.3-13.89-29.75-3.27-50.97,17.53-44.83,47.59,1.66,8.1,12.9,21.21,20.52,24.61.91,2.92-5.01,3.23-2.64,6.8.19.29,5.5,2.36,6.45,2.58,31.35,7.23,61.06-14.07,57.3-47.56-.58-5.13-5.82-18.01-9.82-20.93-1.51-1.11-2.55.85-2.68.81ZM555.98,612.48c-1.51-1.51-4.28,1.25-2.76,2.76s4.28-1.25,2.76-2.76Z"/>
      <path class="cls-13" d="M450.44,558.33c3.06,19.75,4.41,37.66-9.01,54.16-14.85,18.25-33.22,18.43-54.87,13.87-34.87-42.48,17.2-100.54,63.88-68.03ZM393.51,599.99c-.94,3.27,1.86,14.82,6.22,13.87,4.81-1.05.45-16.35-6.22-13.87Z"/>
      <path class="cls-1" d="M386.55,626.36c21.66,4.57,40.03,4.39,54.87-13.87,13.42-16.5,12.07-34.41,9.01-54.16,57.98,40.39-19.36,122.27-63.88,68.03Z"/>
      <path class="cls-6" d="M455.59,469.78c28.35-6.47,19.59,37.51-2.83,23.07-9.88-6.37-7.52-20.71,2.83-23.07Z"/>
      <path class="cls-6" d="M555.59,469.79c24.47-5.58,22.58,28.68,2.85,25.8-14.92-2.18-15.47-22.92-2.85-25.8Z"/>
      <path class="cls-4" d="M504.6,397.3l-1.39,22.21c-2.26-1.19-4.19-.9-5.18-5.2-1.72-7.51-1.07-14.14,6.56-17.01Z"/>
      <path class="cls-8" d="M692.08,432.01c.02,4.86-6.5,5.29-9.63,7.71-1.52,1.18-9.72,10.67-11.19,8.93-.82-10.28,11.45-17.92,20.82-16.65Z"/>
      <path class="cls-9" d="M326.47,446.21c55.68-9.33,67.17,62.42,22.3,76.44-41.64,13.01-71.48-40.42-37.88-68.4,3.75-3.13,10.79-7.23,15.57-8.04ZM332.02,455.94c-36.94,6.38-31.33,63.38,9.28,57.85,37.05-5.05,29.29-64.5-9.28-57.85Z"/>
      <path class="cls-9" d="M625.43,570.83c2.98,9.94,6.31,16.17,5.6,27.13-1.72,26.42-30.53,41.73-54.21,31.18-7.62-3.4-18.86-16.5-20.52-24.61-6.15-30.06,15.08-50.85,44.83-47.59,12.77,1.4,15.52,10.64,24.3,13.89ZM588.95,567c-6.53,1.04-14.6,6.85-18.29,12.25-16.54,24.17,12.7,54.12,37.18,38.56,25.32-16.09,11.16-55.61-18.89-50.81Z"/>
      <path class="cls-1" d="M625.43,570.83c.13.05,1.17-1.91,2.68-.81,3.99,2.92,9.24,15.81,9.82,20.93,3.76,33.49-25.95,54.79-57.3,47.56-.95-.22-6.26-2.29-6.45-2.58-2.36-3.58,3.56-3.88,2.64-6.8,23.68,10.55,52.49-4.76,54.21-31.18.71-10.96-2.62-17.19-5.6-27.13Z"/>
      <path class="cls-1" d="M555.98,612.48c1.51,1.51-1.25,4.28-2.76,2.76s1.25-4.28,2.76-2.76Z"/>
      <path class="cls-2" d="M393.51,599.99c6.67-2.48,11.03,12.82,6.22,13.87-4.36.95-7.16-10.59-6.22-13.87Z"/>
      <path class="cls-10" d="M332.02,455.94c38.57-6.66,46.33,52.79,9.28,57.85-40.6,5.54-46.22-51.47-9.28-57.85ZM336.21,461.45c-3.57.55-17.13,7.62-16.31,11.48,1.25,5.89,10.64-2.52,12.94-3.7,1.73-.89,15.08-3.63,9.32-7.43-1.86-1.23-3.95-.66-5.95-.35Z"/>
      <path class="cls-10" d="M588.95,567c30.05-4.8,44.21,34.72,18.89,50.81-24.48,15.56-53.72-14.39-37.18-38.56,3.69-5.4,11.77-11.21,18.29-12.25ZM599.03,570.84c-2.95-2.87-22.09,6.87-20.83,13.15,1.09,5.43,10.31-3.93,12.58-5.45,1.62-1.08,11.97-4.08,8.25-7.71Z"/>
      <path class="cls-1" d="M336.21,461.45c1.99-.31,4.08-.87,5.95.35,5.76,3.79-7.59,6.54-9.32,7.43-2.29,1.18-11.68,9.59-12.94,3.7-.82-3.86,12.74-10.93,16.31-11.48Z"/>
      <path class="cls-8" d="M599.03,570.84c3.72,3.63-6.63,6.62-8.25,7.71-2.27,1.52-11.49,10.88-12.58,5.45-1.26-6.28,17.88-16.02,20.83-13.15Z"/>
      <path class="cls-14" d="M815.69,483.37c-2.17-7.31-5.6-14.65-5.56-22.21-2.68-6.58-4.26-10.37-4.26-10.37-1.42-.88-.9-2.69-1.3-3.51-2.61-5.41-4.13-11.96-6.7-17.59-7.01-15.34-15.62-27.44-26.67-40.09-2.53-2.94-9.68-7.56-9.68-7.56-2.44.62-2.78-1.02-4.17-2.08-34.61-26.14-77.26-62.3-125.03-51.42-10.95,2.49-22.22,10.94-32.52,11.92-57.43,5.5-123.65-4.27-182.01-.07-64.84-34.87-134.36,8.97-176.39,58.29-13.19,15.48-35.73,90.92-42.71,114.18-16.85,56.11-50.95,182.85-34.71,236.74,1.94,6.44,5.16,12.08,7.3,18.38,11.16,15.18,22.4,29.1,40.3,36.76,92.09,39.42,109.7-78.47,174.44-108.78,15.81-7.4,33.9-10.67,51.16-12.72,57.73,3.03,119.2-3.83,176.49,0,63.71,4.26,86.3,56.3,124.91,97.26,35.6,37.77,92.49,28.89,111.82-19.46,13.93-34.84,4.18-102.93-1.79-140.51-7.41-46.58-19.53-92.09-32.93-137.15ZM331.04,346.66c18.81-7.13,33.22-11.17,52.74-6.28,12.72,3.19,23.98,10.21,36.74,11.17,58.19,4.38,121.83-3.4,180.61-.06,9.16-1.24,17.09-7.27,25.69-9.72,4.34-1.24,5.23-1.09,9.72-1.39-.65-3.71.88-2.83,4.17-2.78.22-.2,1.95.08,2.78,0,31.28-2.87,71.31,20.91,94.44,40.25-3.19.35-8.83-.45-11.11-2.76-7.34-1.63-14.96-2.93-22.23-4.85-14.53-3.84-58.2-19.81-69.75-18.48-1.88.22-5.68,1.82-8.01,2.51-22.98,6.81-24.93,5.16-47.98,5.49-46.72.66-93.37,1.71-140.14,1.51-22.88-.1-38.04-1.7-59.08-11.16-31.49,6.97-61.53,19.56-92.76,27.36-2.45.61-6.4,2.6-8.61,1.11,14.4-13.89,34.13-24.82,52.8-31.9ZM844.85,734.64c-5,42.98-41.28,75.8-83.33,51.37-29.06-16.89-55.79-68.05-86.22-90.82-55.27-41.37-171.12-13.2-238.12-21.69-86.01,5.13-94.9,53.53-143.72,106.22-38.42,41.48-97.02,22.23-116.62-27.03-.57-1.45-.92-2.71-1.39-4.17-.08-.25-.92-1.05-1.39-2.78-2.21-8.18-3.98-17.87-4.17-26.38-1.31-60.99,23.46-152.63,41.64-211.74,8.45-27.49,20.14-67.44,32.27-92.68,5.4-11.24,12.85-17.11,24.39-21.43,34.33-12.87,74.37-20.32,109.39-32.36,13.03,1.61,22.14,8.81,35.98,9.82,61.48,4.48,128.32-3.52,190.37,0,11.74-.87,22.25-6.17,33.29-9.59,41.46,14.18,86.34,20.25,126.37,37.31,20.96,17.82,28.82,45.79,37.17,71.12,23.67,71.73,52.69,190.69,44.07,264.83Z"/>
    </g>
  </g>
</svg>