<?xml version="1.0" encoding="UTF-8"?>
<svg xmlns="http://www.w3.org/2000/svg" viewBox="0 0 1024 1024">
  <defs>
    <style>
      .cls-1 {
        fill: #2f3030;
      }

      .cls-2 {
        fill: #7f7373;
      }

      .cls-3 {
        fill: #eff0f0;
      }

      .cls-4 {
        fill: #9e9e9d;
      }

      .cls-5 {
        fill: #f2f3f3;
      }

      .cls-6 {
        fill: #292a2a;
      }

      .cls-7 {
        fill: #f1f1f2;
      }

      .cls-8 {
        fill: #2e2e2e;
      }

      .cls-9 {
        fill: #f2f2f2;
      }

      .cls-10 {
        fill: #949494;
      }

      .cls-11 {
        fill: #2d2d2d;
      }

      .cls-12 {
        fill: #e5e5e6;
      }

      .cls-13 {
        fill: #3c3d3e;
      }

      .cls-14 {
        fill: #535353;
      }

      .cls-15 {
        fill: #565756;
      }
    </style>
  </defs>
  <g id="_검은색_배경" data-name="검은색 배경">
    <rect class="cls-2" x="0" y="0" width="1024" height="1024"/>
  </g>
  <g id="_레이어_1" data-name="레이어 1">
    <path class="cls-11" d="M389.59,582.42c6.98-.04,14,.03,20.98,0v-22.97c-4.2,1.31-7.94,3.59-12.33.84l-145.58-114.18c-6.61-6.95-2.52-16.64,7.42-14.42l144.5,29.86c-.17-6.82.24-13.69.05-20.51-.91-31.94-3.58-63.85-4.04-95.84-.07-4.81-3.07-12.49,4.72-14.28s10.13,4.49,13.13,10.41c20.75,40.9,37.15,84.32,57.23,125.59l1.85,1.63c.18-3.11,3.95-6.07,5.01-7.99,4.34,2.82,5.97-.63,2-3,1.08-1.58,6.2-12.69,7.99-15.98l2.99,5.99-2-6.99c2.6-4.79,5.39-10.67,8.39-16.09,4.08-7.37,5.95-19.86,17.56-16.29,4.01,1.23,9.59,15.99,13.2,19.71.53,5.24,5.68,6.51,5.81,11.67,0,.06-.92-.17-.98.52-.26,2.98,1.17,3.66,3.98,3.48,2.9,4.39,5.31,8.41,8.1,13.15,1.97,3.35,7.41,7.02,4.89,11.82-3.97.55-8.42,4.15-10.99,6.99-3.62-5.85-7.34-11.92-10.99-17.98,2.65-3.95-1.72-9.11-2-4-.05-.08-1.39.17-1.66-.29-2.51-4.2-7.46-11.56-8.33-15.69-.11-.51.29-1.52-.1-1.91s-1.46.07-1.9-.09c-4.13-1.48-4.87-.1-7.42,4.08-2.6,4.26-5.21,8.91-7.57,12.9-3.74-.85-4.68,2.29-1,2-8.69,15.1-16.81,29.33-24.98,43.95-3.86-1.47-5.88,5.94-2,4.99-1.12,1.99-4.75,6.51-5,6.99.15-.18.37-1.84-.51-2-2.53-.47-1.08,1.6-1.49,2-.14.14-4.12-.13-1.99,1.99s1.85-1.85,1.99-1.99c.23-.23,1.83.2,2,0-4.04,7.75-8.41,15.82-12.99,23.97-3.29-.38-3.52-.02-2.83,3.35l.83.64c-1.39,2.53-4.8,7.02-5.65,9.22-.3.79.76,2.7-.26,4.15-.72,1.02-2.5.19-3.18,1.2-.85,1.24-1.21,5.32-2.32,7.53-.79,1.58-2.05,1.78-2.51,2.66-.6,1.16-2.78,5.8-3.06,6.72-.57,1.86.33,1.32,1.46,1.48,3.03.41,8.58.83,11.51,1,.56,3.03-1.53,1.91-3.45,2-.92.04-10.9-.56-7.54,1.99,10.54.66,22.04-.88,32.46.02,6.03.52,12.79,3.93,18.05,4.01,3.61.05,7.4-1.83,10.96-2.01,18.8-.93,36.72-2.32,54.77,1.15,5.66,1.09,15.38,1.52,21.06.74,3.98-.55,6.48-3.37,9.12-3.86,4.77-.89,11.42.56,16.44-.05.78-3.51-2.5-1.15-3.79-2.23-.48-.41-.12-1.7-.2-1.76,3.25.59,2.18-2.33,1.45-3.95-2.52-5.55-9.04-13.18-12.39-18.56-4.49-7.21-9.33-14.8-13.35-21.69-1.47-2.53-6.27-9.56-6.69-11.74,4.11.78.04-4.12,3.5-4.02,5.42.15,10.69,5.2,16.48,4.02.05,5.94,15.2,24.05,17.99,32.96.35,1.11.23,8.22,2.99,5.99.15-.12-.09-1.42,0-1.99.7,1.03,1.31,1.93,2,3-1.06-1.06-3.11.88-1.99,1.99s3.06-.93,1.99-1.99c.2.31,1.26.79,1.83,1.62,1.72,2.51,1.07,5.5,4.16,5.37,1.48-.06,3.27-1.33,4.99-1,1.58,3.22,1.5,19.82,2.15,20.83,1.91,2.98,6.28-.78,6.85-.84,18.67-2.02,43.43.29,62.95,0-.88,2.98,3.77,3.17,3,0,1.32-.04,2.68.1,4,0v1c-2.41,2.47,1.74,4.75,1.68,8.32-.01.86-1.21,5.55-1.58,6.08-.77,1.1-2.85.02-3.16,1.14-.43,1.56.41,4.56.07,6.43l4.98-.99-1,8.99-3.98-1c.24,1.29-.38,5.51,0,5.98,1.83,2.28,1.65-2.92,3.48-1.98,2.86,1.47,1.14,6.62.5,8.99l-3.98-1c.69,3.81-.94,27.86,0,28.96.42.49,2.5-1.45,3.99-.51,2.7,1.69-1.48,3.37-1,5.5h6s0,3,0,3h-18.99c-.98,2.21,3.93,2.6,2,4.98-1.41,1.74-8.96-1.93-9.08,5.51-.19,11.31-.1,33.03,1.2,43.84.72,5.95,1.21,7.1,6.88,7.61,15.71,1.4,34.77-.18,50.96,0,.39,0,1.42,1.03,2.51.95,6.35-.45,8.82-22.91-2.51-21.93v-4h7.99c-1.48-3.6-.11-6.28-.08-9.38.04-3.75-1-10.2-.71-13.91.25-3.14,3.42-3,4.35-4.65,2.71-4.82-16.02-16.61-11.55-2.03-3.49-1.08-7.08-3.15-10.73-3.75-2.09-.34-8.94.1-9.26-.23-.36-.38.37-4.64.01-5.01-.46-.46-10.51-.11-12.56-2.93-1.56-2.14-.61-46.57-.44-53h5c.46,13.39,1.71,37.49,0,49.94-.02.11-1.46.65-.99,1.99,1.48.49,1.88-.97,1.99-.99.6-.1,1.35.03,2,0,.17,2.68.53,2.67,2.99,2.58,9.84-.36,19.87-1.04,29.55-1.46.22,0-.05,1.07,3.43,1.88.3.07.66-.04,1,0-.24,2.12-.12,2.24,2,2,.49.85,1.57,1.78,1.74,2.71,1.54,8.53,1.33,62.68-.74,70.21h-2.99c3.21,7.08-3.46,1.38-4,6.99-175.02,1.08-350.57,1.21-525.61,0-2.59-4.34-5.35-5.78-6-11.49-2.3-20.17,1.76-44.38-.05-65-.67-2.11,1.89-3.08,2.05-3.42l1.98,3.99,3.01-8.99c13.91-4.9,39.66-1.15,54.96-1,1.67.02,3.34,0,5,0,.61-16.22,2.23-34.39,1.07-50.57-.13-1.87-.98-2.78-1.07-3.38-.47-2.98.82-8.06-4-6.99.69-5.34,2.39-4.16,3-4.99-.16,4.61,4.18,1.31,1-2,.65-.64,2.53-2.92,2.74-2.97,1.28-.32,2.89.05,4.25-.02-.56,3.03,1.53,1.92,3.45,2,15.01.59,32.02.5,47.06,0,1.93-.06,4.01,1.02,3.45-2,2.66,0,5.33,0,7.99,0-1.5,2.8,6.33,2.49,8.36,2.02,1.16-.27.53-1.09.63-2.02,1,0,2,0,3,0,.09.56-.17,1.87,0,2,.45.34,10.36.26,11.37.02,1.17-.28.54-1.09.63-2.02,1.67,0,3.33,0,5,0,.09.56-.17,1.87,0,2,.38.28,9.67,1.02,8-2ZM467.39,486.38l-45.64-100.41-4.16-7.31,6.99,179.79c5.73-.51,2.71-1.88,3.49-3.92,2-5.23,7.91-12.33,10.7-17.34,8.93-16.03,18.32-33.57,26.87-49.86.46-.88,1.72-.86,1.76-.95ZM523.99,418.6v1c.65-.33.65-.67,0-1ZM524.99,420.6v1c.65-.33.65-.67,0-1ZM531.48,428.6c-1.09-1.09-3.08.9-1.99,1.99s3.08-.9,1.99-1.99ZM491.02,447.57v1c.65-.33.65-.67,0-1ZM406.45,478.67l-119.78-25.09,113.43,87.88c2.24.35,1.14-.42,1.49-1.46,1.92-5.85,5.4-15.21,5.98-21.01,1.33-13.35-1.26-26.97-1.12-40.31ZM487.02,454.56v1c.65-.33.65-.67,0-1ZM481.52,467.56c-1.7-1.74-3.51,3.46-2.99,3.98,1.7,1.74,3.51-3.46,2.99-3.98ZM433.55,551.45c.72-1.4-.63-2.67-.98-1.99-.72,1.4.63,2.67.98,1.99ZM296.66,599.4c-.47.15-1.33-.21-1.95.02-.01,3.64-.16,7.33-.04,10.97s3.61,2.79,3,0c26.9,0,75.87-3.78,99.93,1-.32,3.41,2.73,6.33,6,5.99-.26,4.13-1.28,2.56-2.68,4.37-.44.58-.15,1.88-.58,2.31-.17.17-4,2.31-4.24,2.31h-101.42v25.97h171.87v-53.94h-165.88c.61-2.75-2.85-2.94-4.99-2.99l1,3.99ZM475.52,596.41h-2.99v1.99h2.99v-1.99ZM481.52,597.4c-2.97-.61-3.13,2.55,0,2,.87,5.79.94,13.37,1.04,19.44.19,11.49-.22,23.03-.05,34.51,4.65.03,9.34-.05,13.99,0-.4,2.7-.15,2.51,1.93,3.57,2.32,1.18,12.07,1.34,15.31,1.17,12.02-.64,22.45,0,34.72.25-1.12,6.06,2.5,3.64,7,4v-4c1.66.02,3.33-.01,4.99,0,.43,1.53-1.38,3.81,1.47,4,19.38,1.31,39.1-.75,58.49-.01.38-5.04.19-3.9-4-3.99v-4.99c1.67,0,3.33,0,5,0l1.49,5.01,56.99-1,1.47-4c2-.02,4,.06,6,0-1.5,6.13,6.33,5.84,3,0,1.77-.07,6.58.66,6.77-1.5-.09-.46-.78-.79-.78-1v-53.44h-214.84ZM471.53,607.39v43.45c0,1.22,3.91,2.77,4.83-.16.62-1.98.54-26.33-.07-28.57-.42-1.52-2.33-2.76-2.59-4.43-.37-2.37,3.12-10.24-2.17-10.29ZM483.52,659.34c-1.09-1.09-3.08.9-1.99,1.99s3.08-.9,1.99-1.99ZM674.38,669.32c.48-5.08.68-7.02,5.99-6v-1.99s-13.98,0-13.98,0v1.99c5.64-.35,5.14,1.4,4,6-5.61.04-10.97.02-16.45.05-18.5.1-37.01-.17-55.5-.05v53.94h75.94c1.21-17.36-1.62-36.85,0-53.94ZM458.54,668.33c1.79-5-10.27-5.16-9.99-1-48.79-.36-98.7.73-147.35,1.04-23.16.15-46.35-.2-69.49-.05-.05,7.98.09,16,0,23.98-6.24-.19-6.86,8.31,0,7.99.04,7.75-1.32,15.33,1,22.97h350.74v-53.94c-33.14-.27-66.32.34-99.47.05-8.4-.07-16.98-.99-25.44-1.05ZM463.53,738.24c-.99-2.12-.4-8.28-2.59-8.94-3.37-1.02-7.58,4.77-8.36,7.49-.54,1.88.28,1.31,1.45,1.46,2.95.38,6.47-.27,9.51,0ZM234.7,738.24l-1.59-3.95c-9.83,2.2-8.12,4.93,1.59,3.95ZM252.69,738.24c.87-3.9-5.79-3.22-6.99-1.98-2.59,2.69,6.16,2.05,6.99,1.98Z"/>
    <path class="cls-12" d="M222.72,739.25c175.04,1.21,350.59,1.08,525.61,0,1.33,0,2.66,0,4,0,24.7-.17,54.34-1.89,78.48-.04,1.94.15,6.86.68,7.93,2.06.66.86.4,2.58,1.58,3.46.83.62,2.83.11,3.03,1.09,1.34,6.73-4.23,11.95-10.51,12.47H145.22c-8.65-1.15-9.75-16.56,1.28-18.81,25.39-.29,50.83-.4,76.21-.23Z"/>
    <path class="cls-6" d="M624.42,388.64c0,3.04,4.69,5.71,6,2,.6.65,1.35,1.34,2,2l-.99.51c-.23,1.55-.07,1.71,1.48,1.48l.51-.99c1.16,1.06,2.07,2.14,3,3-.52,2.52.8,2.16,3,2,.43.59.99,1.23,1,2,0,.18-1.61.89-1.06,3.37.21.95,2.93,1.21,3.62,2.62.6,1.22-.83,3-.15,4.03,1.17,1.75,7.38,2.18,9.58,1.97.19.44.86.47,1,2,.02.27-2,1.15-.08,3.54.66.83,5.69,4.7,6.08,2.45,1.18,1.22,1.47,1.19,3,3l-.99,2.99h3.99c.15.39.97.53,1,2,0,.19-2.71,2.33.49,1.99l.51-.99c3.81,1.56,2.32,2.39,3,3-4.68-1.03.44,6.22,2.76,6.88,1.32.38,2.11-.89,2.24-.89,4.19.15,7.13,7.28,9.31,9.62,4.65,5.01,10.47,8.68,13.68,15.35.8,1.66.21,4.63,2.49,3.99l.51-.99c.36.39,1.57,1.57,2,2l-.99.51c-.31,2.14,3.31,5.96,5.45,5.45l.54-.97c1.37,1.41,1.76,2.74,2,3-2.21.8.49,4.58,0,4.99-2.02,1.7-10.08-2.8-10.98-1.99-.46,1.93-2.67,8.92-3.48,10.02-1.44,1.95-5.26-.57-4.52,2.97-.97-.37-2-.62-3-1,.1-6.32-3-2.96-5-3-11.98-.25-31.01-10.8-42.76-14.85-1.61-.79-2.36.54-3.2.86-.5.19-1.79-.25-2,0-.81.97.99,2.84,1,3,.87,12.01-1.42,29.37-2,41.95l-.99,1.49.99.51c-.12,2.74-1,6.94-1,8.49v21.98c0,2.61-.85,7.91-1,11.49l-.99,1.49.99.51c-.2,5.71.26,11.32-1,16.98-.57.06-4.94,3.82-6.85.84-.65-1.01-.57-17.61-2.15-20.83-1.72-.32-3.51.94-4.99,1l1.96-63.47c.88-8.67,1.66-17.87,2.04-26.43,8.63,1.51,3.75-13.84,4.99-18.98l-4.99,1c.46-10.17.25-23.33,2-32.96.21-1.13,1.88-2.94.99-4.99h-1.99c-.16.93.21,2.2,0,2.99-1.05,3.83-10.7,31.77-11.99,32.96-.18.17-1.48-.31-1.92.12-.76.73.92,1.78.92,1.88.05,1.2.12,2.23-1,3-.34.23-1.76-.22-1.99,0-.6.6.99,1.88.99,1.99.29,4.95-5.36,14.3-6.99,18.98-4.13-1.18-6.13,5.55-2,4.99-.66,1.87-1.35,4.14-2,5.99-2.99-5.41-5.56,2.13,0,1-1.58,4.52-3.59,9.59-5,13.98-5.14-.65-5.89,1.56-1,3-.81,2.59-2.02,5.2-2,7.99-5.79,1.19-11.07-3.87-16.48-4.02-3.46-.1.61,4.8-3.5,4.02-.06-.3-.01-.69,0-1,.05-1.49,1.36-3.26.99-4.99l-3.99.99c-.16-.59.2-1.68,0-2,1.06,1.06,3.11-.88,1.99-1.99s-3.06.93-1.99,1.99c-.09-.14-.71-.22-2-2,2.1-1.95-.9-12.49-1.94-14.29-1.86-3.23-6.19-3.14-9.05-3.69-3.63-.69-2.45-2.48-4-4.99,4.42-.11,2.02-2.95-2-2-.92-1.52-1.91-5.23-3-6.99,2.57-2.85,7.02-6.44,10.99-6.99.49-.07,1.63-.11,2,0-1.9,5.19-.89,11.4,6,9.99.51.83,1.28,1.84,2,3-2.17,2.84-.05,4.29,3,4,.59,1.01.64,2.39,1,3-1.94.59-2.24,2.11-2,3.98l5.99,1.01c1.23,2.18,1.45,2.42,2,4.99.42,1.98-.8,5.21,2.99,4.99-2.79-2.91,6.53-6.68,1-6.99.13-.25.73-2.23,1-3,2.28-.33,3.22,1.37,3.98-1.52.8-3.03,3.64-9.06.02-10.47,4.62-12.32,9.39-24.65,13.99-36.96,3.96,1.18,4.55-3.52,1-3,3.36-8.96,6.67-18,9.99-26.97,3.55-.87.79,3.12,2.99,2.99-.34-2.8,1.41-6.79-1.99-5.99.74-1.96,1.33-4.21,2-5.99,5.36,1.05,3.81-1.8,4.99-5.99h-2.99c.31-.82.71-1.36,1-2l4.99,2.99c-.91-4.18,1.67-7.09,2-10.98,1-.32,1.79-.86,3-1ZM638.41,409.62c-2.76-.01-7.14-.95-6.99,2.99h7s0-2.99,0-2.99ZM638.4,421.6c.23-1.84.06-2.93-1.51-3.98h-1.48s0,3.98,0,3.98h2.99ZM607.93,420.6v1c.65-.33.65-.67,0-1ZM627.41,421.61c-1.09-1.09-3.08.9-1.99,1.99s3.08-.9,1.99-1.99ZM638.41,424.6c-.51.27-2.61-.37-2.95.03-.45.51-1.07,11.3,2.95,9.96-.26,7.65-1.56,15.23-.96,22.93,1.31.11,2.69.03,3.94.52,13.09,5.13,27.28,9.84,39.98,15.51-2.52,3.5.4,4.55,2,1,.87.44,3.79.74,4,1,.13.15-.05,4.2,1.99,1.99,1.02-1.1-.67-2.35-.99-2.99-1.37-2.76-3.06-3.94-5-5.99l.81-.61c-.57-5.67-2.5-2.41-2.8-2.39-1.76.13-16.36-15.89-18.65-18.34-.49-.52-.22-1.52-.34-1.64,7.03-2.72,1.1-6.35-4-4-5.02-5.41-10.4-10.65-15.55-15.96-1.48-1.52-.83-3.41-2.93-3.04-.57.1-.94,1.72-1.5,2.02ZM600.93,439.58v1c.65-.33.65-.67,0-1ZM590.44,471.55h-1.99v2.99h1.99v-2.99ZM591.44,477.54h-1.99v2.99h1.99v-2.99ZM572.95,497.52v1c.65-.33.65-.67,0-1ZM623.41,522.49c-1.09-1.09-3.08.9-1.99,1.99s3.08-.9,1.99-1.99Z"/>
    <path class="cls-6" d="M703.36,583.42c.91,1.03,3.49.65,6,4-.39-.18-.76.11-.98.5l.98.5c-.91,4.77-1.75,6.04-2,11.99-.04,1,.03,2,0,3-.17,6.43-1.12,50.86.44,53,2.05,2.82,12.1,2.46,12.56,2.93.36.36-.37,4.63-.01,5.01.32.33,7.17-.11,9.26.23,3.65.6,7.23,2.67,10.73,3.75-4.47-14.58,14.27-2.79,11.55,2.03-.93,1.65-4.1,1.51-4.35,4.65-.29,3.71.74,10.16.71,13.91-.03,3.1-1.39,5.78.08,9.38h-7.99c0-9.64,0-19.32-.01-28.96-.36-.49-1.27,1-1.49,1h-49.46v52.94c-5.67-.5-6.16-1.66-6.88-7.61-1.31-10.8-1.4-32.53-1.2-43.84.13-7.44,7.67-3.77,9.08-5.51,1.94-2.38-2.98-2.77-2-4.98h18.99v-2.99s-5.99,0-5.99,0c-.49-2.13,3.7-3.81,1-5.5-1.5-.94-3.58,1-3.99.51-.94-1.1.69-25.15,0-28.96l3.98,1c.63-2.36,2.36-7.52-.5-8.99-1.83-.94-1.65,4.27-3.48,1.98-.38-.47.24-4.69,0-5.98l3.98,1,1-8.99-4.98.99c.34-1.87-.5-4.87-.07-6.43.31-1.12,2.39-.04,3.16-1.14.37-.53,1.57-5.22,1.58-6.08.05-3.57-4.09-5.84-1.68-8.32h2Z"/>
    <path class="cls-11" d="M600.78,304.08c10.49-9.33,28.56-5.15,34.14,7.63,8.62,19.73-10.3,37.43-29.73,28.72-14.27-6.4-15.56-26.45-4.41-36.35ZM614.15,314.88c-7.36,1.14-6.35,13.6,3.57,10.62,5.25-1.57,2.87-11.62-3.57-10.62Z"/>
    <path class="cls-11" d="M691.37,492.52c-.74-3.54,3.08-1.02,4.52-2.97.81-1.1,3.02-8.09,3.48-10.02.9-.81,8.96,3.69,10.98,1.99.49-.41-2.21-4.19,0-4.99.17.18,2,.33,3.02,1.43,4.6,4.97,16.94,14.66,8.48,21.56-6.46,5.27-23.11-4.17-30.49-7Z"/>
    <path class="cls-13" d="M283.67,599.4c.09.6.94,1.51,1.07,3.38,1.16,16.18-.46,34.35-1.07,50.57-1.66,0-3.34.01-5,0,.71-16.64-.93-34.01-.07-50.56.09-1.81,1.05-3.06,1.07-3.38h4Z"/>
    <path class="cls-1" d="M344.62,582.42c.56,3.02-1.53,1.93-3.45,2-15.04.5-32.05.59-47.06,0-1.93-.08-4.01,1.03-3.45-2,17.47-.9,36.31.06,53.96,0Z"/>
    <path class="cls-13" d="M751.32,657.34c-3.48-.8-3.21-1.89-3.43-1.88-9.69.42-19.71,1.1-29.55,1.46-2.45.09-2.81.1-2.99-2.58,9.17-.36,23.77-1.02,32.53-.05,2.26.25,3.46.34,3.45,3.05Z"/>
    <path class="cls-11" d="M652.4,412.61c-2.2.21-8.41-.22-9.58-1.97-.68-1.02.75-2.8.15-4.03-.69-1.41-3.41-1.67-3.62-2.62-.55-2.48,1.06-3.19,1.06-3.37,4.32,1.93,10.13,7.69,11.99,11.99Z"/>
    <path class="cls-11" d="M712.35,600.4h-5c.25-5.95,1.08-7.22,2-11.99.04-.18.05-.98,0-1,3.29,4.39,2.73,7.97,3,12.99Z"/>
    <path class="cls-11" d="M562.46,478.54c-6.88,1.41-7.89-4.8-6-9.99,1.4.43,4.15,4.94,5.07,6.46.84,1.38.69,3.15.92,3.53Z"/>
    <path class="cls-11" d="M583.45,481.53c3.62,1.41.78,7.44-.02,10.47s-1.7,1.18-3.98,1.52c1.4-4.02,2.48-7.93,4-11.99Z"/>
    <path class="cls-11" d="M621.42,389.64c-.33,3.9-2.91,6.81-2,10.98l-4.99-2.99c2.31-5.08.73-5.97,6.99-7.99Z"/>
    <path class="cls-11" d="M670.38,432.59c1.48,1.32,5.84,1.5,5,5.99-.13,0-.92,1.27-2.24.89-2.31-.66-7.44-7.91-2.76-6.88Z"/>
    <path class="cls-11" d="M659.39,420.6c-.38,2.25-5.42-1.62-6.08-2.45-1.92-2.39.11-3.28.08-3.54,3.85-.21,4.86,4.81,6,5.99Z"/>
    <path class="cls-1" d="M279.67,592.41c4.82-1.06,3.53,4.01,4,6.99h-4c.19-2.25-.28-4.82,0-6.99Z"/>
    <path class="cls-1" d="M223.71,654.34l-3.01,8.99-1.98-3.99c.55-1.17,1.27-4.12,2.28-4.76s2.16-.04,2.72-.24Z"/>
    <path class="cls-1" d="M376.6,582.42c-.09.93.54,1.74-.63,2.02-1.01.24-10.91.32-11.37-.02-.16-.12.1-1.44,0-2,3.99-.01,8,.02,11.99,0Z"/>
    <path class="cls-11" d="M708.35,473.54l-.54.97c-2.15.51-5.77-3.31-5.45-5.45l.99-.51c1.56,1.56,3.44,3.39,5,4.99Z"/>
    <path class="cls-11" d="M578.45,496.52c5.52.3-3.79,4.07-1,6.99-3.79.22-2.57-3.01-2.99-4.99,2.13.44,3.07-.18,4-2Z"/>
    <path class="cls-11" d="M613.42,399.63h2.99c-1.19,4.2.36,7.05-4.99,5.99.75-2,1.22-3.97,2-5.99Z"/>
    <path class="cls-11" d="M568.46,488.53c1.01,1.7,2.49,2.33,4,4.99l-5.99-1.01c-.25-1.87.06-3.4,2-3.98Z"/>
    <path class="cls-11" d="M624.42,388.64c1.26-.14,4.33-.3,5.35-.04,1.23.31.48,1.86.65,2.04-1.3,3.71-5.99,1.04-6-2Z"/>
    <path class="cls-1" d="M361.61,582.42c-.09.92.53,1.75-.63,2.02-2.03.48-9.87.78-8.36-2.02,2.99,0,6,0,8.99,0Z"/>
    <path class="cls-1" d="M389.59,582.42c1.67,3.02-7.62,2.28-8,2-.16-.12.1-1.44,0-2,2.66,0,5.33.01,7.99,0Z"/>
    <path class="cls-13" d="M712.35,600.4c.05.99-.03,2,0,3h-5c.03-1-.04-2,0-3h5Z"/>
    <path class="cls-11" d="M688.37,491.52c-2.22-.85-5.75-.13-5-3,2,.04,5.1-3.32,5,3Z"/>
    <path class="cls-8" d="M484.52,457.56c3.97,2.37,2.34,5.81-2,3,1.41-2.53,1.26-1.92,2-3Z"/>
    <path class="cls-8" d="M493.51,440.58l2,6.99-2.99-5.99c.24-.44.85-.72,1-1Z"/>
    <path class="cls-1" d="M755.32,732.25c-.85,3.11-1.72,4.08-3,6.99-1.33,0-2.67,0-4,0,.55-5.61,7.21.09,4-6.99h2.99Z"/>
    <path class="cls-8" d="M541.48,443.58c-2.81.18-4.24-.5-3.98-3.48.06-.69.98-.46.98-.52,2.44.55,2.26,2.88,3,4Z"/>
    <path class="cls-11" d="M567.46,485.53c-3.05.3-5.17-1.16-3-4,.58.94,1.73,1.82,3,4Z"/>
    <path class="cls-11" d="M609.43,411.61c3.4-.8,1.65,3.19,1.99,5.99-2.2.13.56-3.86-2.99-2.99.37-1,.64-2.03,1-3Z"/>
    <path class="cls-11" d="M701.36,466.55l-.51.99c-2.28.65-1.69-2.32-2.49-3.99,2.8-.33,2.5,2.46,3,3Z"/>
    <path class="cls-11" d="M662.39,423.6c.32.38,1.52-.69,3,3h-3.99s.99-3,.99-3Z"/>
    <path class="cls-1" d="M283.67,585.42c3.18,3.31-1.16,6.61-1,2,.31-.42.32-1.32,1-2Z"/>
    <path class="cls-11" d="M598.44,441.58c3.55-.53,2.96,4.18-1,3,.36-.97.63-2,1-3Z"/>
    <path class="cls-1" d="M697.36,582.42c.77,3.17-3.88,2.98-3,0,1-.01,2,.03,3,0Z"/>
    <path class="cls-15" d="M637.41,474.54l-1,3c-.01-.16-1.81-2.03-1-3,.21-.25,1.5.19,2,0Z"/>
    <path class="cls-11" d="M639.41,398.63c-2.19.16-3.52.52-3-2,.38.35,1.4-.18,3,2Z"/>
    <path class="cls-13" d="M713.35,654.34c-.11.02-.51,1.49-1.99.99-.47-1.34.98-1.88.99-1.99l1,1Z"/>
    <path class="cls-13" d="M752.32,657.34c3.45.46,1.32.82,2,2-2.12.24-2.24.12-2-2Z"/>
    <path class="cls-11" d="M667.38,429.59l-.51.99c-3.2.34-.49-1.8-.49-1.99.38.22.7.88,1,1Z"/>
    <path class="cls-15" d="M701.36,582.42c.11,0,1.27-1.69,1.97-.99.31.31-.18,1.76.02,1.99h-2v-1Z"/>
    <path class="cls-15" d="M634.41,521.49l-.99-.51.99-1.49c-.02.33.04,1.09,0,2Z"/>
    <path class="cls-15" d="M632.41,565.44l-.99-.51.99-1.49c-.02.38.03,1.18,0,2Z"/>
    <path class="cls-11" d="M633.41,393.63l-.51.99c-1.55.23-1.71.07-1.48-1.48l.99-.51c.33.33.66.69,1,1Z"/>
    <path class="cls-3" d="M448.55,667.33c2.18.02,6.52.97,9.99,1,8.45.07,17.04.98,25.44,1.05,33.15.29,66.33-.33,99.47-.05v53.94H232.71c-2.32-7.64-.96-15.22-1-22.97-.01-2.66-.03-5.33,0-7.99.08-7.98-.06-16,0-23.98,23.15-.15,46.33.2,69.49.05,48.65-.31,98.56-1.4,147.35-1.04ZM266.42,683.55c-10.23,1.83-8.5,15.02,1.71,14.79l292.39-.49c6.01-2.71,5.33-12.17-1-14.1l-293.1-.21Z"/>
    <path class="cls-5" d="M481.52,597.4h214.84v53.44c0,.21.68.54.78,1-.2,2.16-5,1.42-6.77,1.5-1,.04-2-.03-3,0-1.99.06-4-.02-6,0-19.96.24-39.99-.02-59.96,0-1.67,0-3.33,0-5,0-1,0-2,0-3,0-5.32,0-10.67,0-15.99,0-33.61.04-67.32.32-100.92,0-4.65-.04-9.34.03-13.99,0-.17-11.48.24-23.02.05-34.51-.1-6.06-.17-13.65-1.04-19.44-.09-.63.06-1.35,0-2Z"/>
    <path class="cls-15" d="M518.5,435.59c-.24,2.12-.12,2.24,2,2,.87,4.13,5.82,11.5,8.33,15.69.28.46,1.61.21,1.66.29.34.53,1.06,2.44,2,4,3.65,6.05,7.37,12.13,10.99,17.98,1.09,1.76,2.08,5.47,3,6.99.69,1.14,1.81,1.68,2,2,1.55,2.52.36,4.31,4,4.99l3.54,8.91c2.3,3.01,5.75,6.73,7.45,9.07,1.29,1.78,1.91,1.86,2,2,.2.32-.16,1.41,0,2,.59,2.16-1.02,3.11,3,4-.01.31-.06.7,0,1,.42,2.19,5.21,9.21,6.69,11.74,4.02,6.89,8.86,14.48,13.35,21.69,3.35,5.38,9.86,13.01,12.39,18.56.73,1.61,1.8,4.53-1.45,3.95-.45-.3-5.51.1-6.99,0-2.56-.17-3.14,0-5,0-1.33,0-2.66,0-4,0-41.25.1-83.8,1.26-124.91,0-2.32-.07-4.68.13-6.99,0-2.93-.17-8.48-.59-11.51-1-1.13-.15-2.03.39-1.46-1.48.28-.93,2.46-5.56,3.06-6.72.46-.88,1.72-1.08,2.51-2.66,1.11-2.21,1.47-6.29,2.32-7.53.69-1.01,2.47-.18,3.18-1.2,1.02-1.45-.05-3.37.26-4.15.84-2.21,4.26-6.69,5.65-9.22.78-1.43,1.4-2.94,2-4,4.58-8.15,8.95-16.23,12.99-23.97.25-.48,3.88-5,5-6.99.72-1.29,1.25-3.65,2-4.99,8.17-14.62,16.29-28.85,24.98-43.95.37-.64.62-1.36,1-2,2.36-4,4.97-8.64,7.57-12.9,2.55-4.18,3.29-5.56,7.42-4.08Z"/>
    <path class="cls-14" d="M300.66,598.4h165.88v53.94h-171.87v-25.97h101.42c.24,0,4.07-2.14,4.24-2.31.43-.42.14-1.73.58-2.31,1.39-1.81,2.42-.25,2.68-4.37.21-3.43-.89-2.28-1.62-3.42-.5-.79-.25-2.12-.52-2.4-.65-.66-2.81.03-3.86-.18-24.05-4.78-73.02-1-99.93-1h-3c-.12-3.63.03-7.33.04-10.97.62-.23,1.48.13,1.95-.02,1.3-.42,2.68-.65,4-1ZM438.2,624.02c2.07-2.07,2.88-5.22,2.34-8.1-1.75-9.37-30.97-8.09-24.23,6.22,2.71,5.74,18.01,5.76,21.89,1.88Z"/>
    <path class="cls-9" d="M670.38,669.32c1.33,0,2.66,0,4,0-1.62,17.09,1.21,36.58,0,53.94h-75.94v-53.94c18.48-.12,37,.14,55.5.05,5.48-.03,10.84,0,16.45-.05Z"/>
    <path class="cls-7" d="M467.39,486.38c-.03.09-1.29.06-1.76.95-8.55,16.29-17.94,33.83-26.87,49.86-2.79,5.01-8.7,12.11-10.7,17.34-.78,2.04,2.24,3.41-3.49,3.92l-6.99-179.79,4.16,7.31,45.64,100.41Z"/>
    <path class="cls-9" d="M406.45,478.67c-.14,13.34,2.45,26.97,1.12,40.31-.58,5.8-4.06,15.16-5.98,21.01-.34,1.05.75,1.81-1.49,1.46l-113.43-87.88,119.78,25.09Z"/>
    <path class="cls-4" d="M623.42,422.6c-1.75,9.64-1.54,22.79-2,32.96-.06,1.33.06,2.67,0,4-.17,3.64.16,7.35,0,10.99-.04,1,.04,2,0,3-.38,8.56-1.16,17.76-2.04,26.43l-1.96,63.47c-3.1.13-2.44-2.86-4.16-5.37-.57-.84-1.63-1.31-1.83-1.62-.69-1.07-1.3-1.96-2-3-.74-1.1-.55-3.47-3-4-2.78-8.91-17.94-27.02-17.99-32.96-.02-2.8,1.19-5.4,2-7.99.3-.96.68-1.99,1-3,1.4-4.4,3.42-9.47,5-13.98.1-.3-.1-.7,0-1,.65-1.85,1.34-4.12,2-5.99.54-1.52,1.36-3.17,2-4.99,1.64-4.68,7.28-14.03,6.99-18.98l1-2c1.12-.77,1.05-1.8,1-3l1-2c1.29-1.19,10.94-29.14,11.99-32.96l1,2Z"/>
    <path class="cls-1" d="M458.54,572.43c-.56,3.03,1.53,1.92,3.45,2,37.5,1.48,80.44,1.26,118,0,1.93-.06,4.01,1.02,3.45-2,1.33,0,2.66,0,4,0-1.27,2.95,5.99,3.27,5,0,1.49.1,6.55-.3,6.99,0,.09.06-.28,1.35.2,1.76,1.29,1.09,4.57-1.28,3.79,2.23-5.02.61-11.67-.84-16.44.05-2.64.49-5.14,3.32-9.12,3.86-5.68.78-15.4.35-21.06-.74-18.06-3.47-35.97-2.09-54.77-1.15-3.56.18-7.35,2.06-10.96,2.01-5.26-.08-12.02-3.49-18.05-4.01-10.42-.9-21.92.64-32.46-.02-3.36-2.55,6.62-1.95,7.54-1.99,1.92-.08,4.01,1.03,3.45-2,2.31.13,4.67-.07,6.99,0Z"/>
    <path class="cls-1" d="M597.44,653.34v4.99c-12.39-.08-24.58.11-36.97,0-1.66-.01-3.33.02-5,0-2.33-.03-4.67.05-6.99,0-12.27-.26-22.7-.9-34.72-.25-3.25.17-12.99.01-15.31-1.17-2.08-1.06-2.33-.87-1.93-3.57,33.61.32,67.31.04,100.92,0Z"/>
    <path class="cls-6" d="M597.44,658.34c5.13.03,10.61-.18,15.99,0,1,.03,2-.02,3,0,4.19.09,4.38-1.05,4,3.99-19.4-.74-39.11,1.33-58.49.01-2.85-.19-1.04-2.47-1.47-4,12.39.11,24.58-.08,36.97,0Z"/>
    <path class="cls-1" d="M681.37,653.34l-1.47,4-56.99,1-1.49-5.01c19.96-.02,40,.24,59.96,0Z"/>
    <path class="cls-6" d="M471.53,607.39c5.29.05,1.8,7.92,2.17,10.29.26,1.67,2.18,2.91,2.59,4.43.61,2.24.7,26.59.07,28.57-.92,2.94-4.83,1.38-4.83.16v-43.45Z"/>
    <path class="cls-6" d="M740.33,702.29c11.33-.98,8.86,21.48,2.51,21.93-1.09.08-2.12-.95-2.51-.95,0-6.98,0-14,0-20.98Z"/>
    <path class="cls-1" d="M463.53,738.24c-3.04-.26-6.56.39-9.51,0-1.17-.15-1.99.41-1.45-1.46.79-2.72,5-8.51,8.36-7.49,2.19.66,1.6,6.82,2.59,8.94Z"/>
    <path class="cls-6" d="M670.38,669.32c1.14-4.59,1.64-6.35-4-6v-1.99h14v1.99c-5.31-1.02-5.51.92-6,6-1.33,0-2.66,0-4,0Z"/>
    <path class="cls-6" d="M448.55,667.33c-.28-4.17,11.78-4,9.99,1-3.47-.03-7.81-.98-9.99-1Z"/>
    <path class="cls-1" d="M231.71,692.3c-.03,2.66-.01,5.33,0,7.99-6.86.32-6.24-8.18,0-7.99Z"/>
    <path class="cls-6" d="M555.47,658.34v4c-4.49-.36-8.12,2.05-6.99-4,2.33.05,4.67-.03,6.99,0Z"/>
    <path class="cls-1" d="M234.7,738.24c-9.71.97-11.42-1.75-1.59-3.95l1.59,3.95Z"/>
    <path class="cls-1" d="M397.59,611.39c1.05.21,3.21-.49,3.86.18.27.28.02,1.61.52,2.4.72,1.13,1.83-.01,1.62,3.42-3.26.34-6.32-2.58-6-5.99Z"/>
    <path class="cls-1" d="M252.69,738.24c-.83.07-9.58.71-6.99-1.98,1.2-1.25,7.85-1.92,6.99,1.98Z"/>
    <path class="cls-1" d="M616.42,653.34v4.99c-1-.02-2,.03-3,0v-4.99c1,0,2,0,3,0Z"/>
    <path class="cls-1" d="M690.37,653.34c3.33,5.84-4.49,6.13-3,0,1-.03,2,.04,3,0Z"/>
    <path class="cls-8" d="M532.48,457.56c-.94-1.55-1.66-3.47-2-4,.28-5.12,4.65.05,2,4Z"/>
    <path class="cls-1" d="M296.66,599.4l-1-3.99c2.15.05,5.61.24,4.99,2.99-1.32.35-2.7.58-4,1Z"/>
    <path class="cls-8" d="M477.53,498.52c-.75,1.35-1.27,3.7-2,4.99-3.88.94-1.87-6.47,2-4.99Z"/>
    <path class="cls-1" d="M609.43,553.45c-.09.57.15,1.87,0,1.99-2.77,2.24-2.65-4.87-2.99-5.99,2.44.52,2.26,2.9,3,4Z"/>
    <path class="cls-1" d="M457.54,534.47c-.6,1.06-1.22,2.57-2,4l-.83-.64c-.69-3.37-.46-3.74,2.83-3.35Z"/>
    <path class="cls-8" d="M481.52,467.56c.52.53-1.29,5.72-2.99,3.98-.52-.53,1.29-5.72,2.99-3.98Z"/>
    <rect class="cls-6" x="472.53" y="596.41" width="2.99" height="1.99"/>
    <path class="cls-1" d="M297.66,610.39c.61,2.79-2.88,3.6-3,0h3Z"/>
    <path class="cls-8" d="M503.51,452.57c-.38.64-.63,1.36-1,2-3.68.29-2.74-2.84,1-2Z"/>
    <path class="cls-8" d="M468.53,510.5c.41-.41-1.04-2.47,1.49-2,.88.16.66,1.82.51,2-.17.2-1.77-.23-2,0-.14.14.13,4.11-1.99,1.99s1.85-1.85,1.99-1.99Z"/>
    <path class="cls-6" d="M481.52,597.4c.06.65-.09,1.36,0,2-3.13.55-2.97-2.61,0-2Z"/>
    <path class="cls-8" d="M518.5,435.59c.44.16,1.5-.31,1.9.09s0,1.4.1,1.91c-2.12.24-2.24.12-2-2Z"/>
    <path class="cls-6" d="M483.52,659.34c1.09,1.09-.9,3.08-1.99,1.99s.9-3.08,1.99-1.99Z"/>
    <path class="cls-8" d="M531.48,428.6c1.09,1.09-.9,3.08-1.99,1.99s.9-3.08,1.99-1.99Z"/>
    <path class="cls-1" d="M611.43,556.45c1.06,1.06-.88,3.11-1.99,1.99s.93-3.05,1.99-1.99Z"/>
    <path class="cls-13" d="M433.55,551.45c-.35.68-1.7-.58-.98-1.99.35-.68,1.7.58.98,1.99Z"/>
    <path class="cls-8" d="M487.02,454.56c.65.33.65.67,0,1v-1Z"/>
    <path class="cls-8" d="M491.02,447.57c.65.33.65.67,0,1v-1Z"/>
    <path class="cls-8" d="M524.99,420.6c.65.33.65.67,0,1v-1Z"/>
    <path class="cls-8" d="M523.99,418.6c.65.33.65.67,0,1v-1Z"/>
    <path class="cls-10" d="M638.41,424.6c.57-.3.93-1.92,1.5-2.02,2.1-.37,1.46,1.51,2.93,3.04,5.15,5.31,10.53,10.55,15.55,15.96,1.49,1.6,2.94,2.87,4,4,.12.12-.15,1.12.34,1.64,2.29,2.44,16.89,18.47,18.65,18.34.35,1.24,1.14,2.09,2,3,1.93,2.05,3.62,3.23,5,5.99l-1,1c-.21-.25-3.12-.56-4-1-.68-.34-1.28-.68-2-1-12.69-5.66-26.89-10.38-39.98-15.51-1.26-.49-2.64-.41-3.94-.52-.61-7.7.7-15.28.96-22.93.11-3.32-.08-6.67,0-9.99Z"/>
    <path class="cls-11" d="M552.47,489.53c2.87.54,7.2.46,9.05,3.69,1.03,1.8,4.04,12.34,1.94,14.29-1.7-2.35-5.15-6.06-7.45-9.07l-3.54-8.91Z"/>
    <path class="cls-11" d="M621.42,455.56l4.99-1c-1.24,5.14,3.65,20.49-4.99,18.98.04-1-.04-2,0-3,3.49.12,2.76.62,3-2.45.14-1.84.14-4.26,0-6.1-.24-3.07.49-2.57-3-2.45.06-1.33-.06-2.67,0-4Z"/>
    <path class="cls-11" d="M638.41,424.6c-.08,3.32.11,6.67,0,9.99-4.02,1.33-3.4-9.45-2.95-9.96.34-.39,2.44.25,2.95-.03Z"/>
    <path class="cls-11" d="M658.39,441.58c5.09-2.36,11.02,1.27,4,4-1.05-1.13-2.51-2.39-4-4Z"/>
    <path class="cls-11" d="M638.41,409.62v2.99s-6.99,0-6.99,0c-.15-3.94,4.23-3,6.99-2.99Z"/>
    <path class="cls-11" d="M600.43,479.54c-.64,1.83-1.46,3.48-2,4.99-4.13.56-2.13-6.18,2-4.99Z"/>
    <path class="cls-11" d="M565.46,511.5l3.99-.99c.37,1.73-.94,3.5-.99,4.99-4.02-.88-2.41-1.83-3-4Z"/>
    <path class="cls-11" d="M638.4,421.6h-2.99s0-3.99,0-3.99h1.48c1.57,1.06,1.74,2.14,1.51,3.99Z"/>
    <path class="cls-11" d="M591.44,505.51c-.32,1.01-.7,2.03-1,3-4.9-1.43-4.14-3.65,1-3Z"/>
    <path class="cls-11" d="M622.42,420.6c.22-.79-.16-2.06,0-2.99h1.99c.89,2.06-.79,3.86-.99,4.99l-1-2Z"/>
    <path class="cls-11" d="M596.44,490.52c-.1.3.1.7,0,1-5.56,1.13-2.99-6.41,0-1Z"/>
    <path class="cls-11" d="M681.37,465.55c.3-.02,2.23-3.28,2.8,2.39l-.81.61c-.86-.91-1.64-1.75-2-3Z"/>
    <path class="cls-11" d="M546.47,482.53c4.02-.95,6.42,1.89,2,2-.19-.31-1.31-.86-2-2Z"/>
    <rect class="cls-11" x="589.45" y="477.54" width="1.99" height="2.99"/>
    <path class="cls-11" d="M683.37,474.54c-1.6,3.55-4.52,2.5-2-1,.72.32,1.32.66,2,1Z"/>
    <rect class="cls-11" x="588.45" y="471.55" width="1.99" height="2.99"/>
    <path class="cls-11" d="M688.37,474.54c.32.64,2.02,1.89.99,2.99-2.05,2.21-1.87-1.84-1.99-1.99l1-1Z"/>
    <path class="cls-11" d="M608.43,458.56l-1,2c0-.11-1.59-1.39-.99-1.99.23-.23,1.65.22,1.99,0Z"/>
    <path class="cls-11" d="M610.43,453.57l-1,2c0-.1-1.68-1.15-.92-1.88.44-.43,1.74.05,1.92-.12Z"/>
    <path class="cls-11" d="M565.46,509.5c-1.06-1.06.88-3.11,1.99-1.99s-.93,3.05-1.99,1.99Z"/>
    <path class="cls-11" d="M627.41,421.61c1.09,1.09-.9,3.08-1.99,1.99s.9-3.08,1.99-1.99Z"/>
    <path class="cls-1" d="M623.41,522.49c1.09,1.09-.9,3.08-1.99,1.99s.9-3.08,1.99-1.99Z"/>
    <path class="cls-11" d="M600.93,439.58c.65.33.65.67,0,1v-1Z"/>
    <path class="cls-11" d="M572.95,497.52c.65.33.65.67,0,1v-1Z"/>
    <path class="cls-11" d="M607.93,420.6c.65.33.65.67,0,1v-1Z"/>
    <path class="cls-13" d="M709.35,588.41l-.98-.5c.21-.39.59-.68.98-.5.05.02.04.82,0,1Z"/>
    <path class="cls-3" d="M614.15,314.88c6.44-.99,8.82,9.05,3.57,10.62-9.92,2.97-10.94-9.49-3.57-10.62Z"/>
    <path class="cls-8" d="M266.42,683.55l293.1.21c6.33,1.92,7.02,11.39,1,14.1l-292.39.49c-10.21.23-11.94-12.96-1.71-14.79Z"/>
    <path class="cls-11" d="M613.42,653.34v4.99c-5.38-.18-10.86.03-15.99,0v-4.99c5.32,0,10.67,0,15.99,0Z"/>
    <path class="cls-11" d="M583.45,572.43c.56,3.02-1.53,1.93-3.45,2-37.57,1.26-80.5,1.48-118,0-1.93-.08-4.01,1.03-3.45-2,41.11,1.26,83.65.1,124.91,0Z"/>
    <path class="cls-11" d="M592.44,572.43c1,3.27-6.27,2.95-5,0,1.86,0,2.44-.17,5,0Z"/>
    <path class="cls-8" d="M438.2,624.02c-3.88,3.89-19.18,3.86-21.89-1.88-6.74-14.31,22.48-15.6,24.23-6.22.54,2.88-.27,6.03-2.34,8.1Z"/>
    <path class="cls-6" d="M621.42,459.56c3.49-.12,2.76-.62,3,2.45.14,1.84.14,4.26,0,6.1-.24,3.07.49,2.57-3,2.45.16-3.64-.17-7.35,0-10.99Z"/>
  </g>
</svg>