<?xml version="1.0" encoding="UTF-8"?>
<svg xmlns="http://www.w3.org/2000/svg" viewBox="0 0 1024 1024">
  <defs>
    <style>
      .cls-1 {
        fill: #fafafb;
      }

      .cls-2 {
        fill: #484948;
      }

      .cls-3 {
        fill: #e9eaea;
      }

      .cls-4 {
        fill: #7f7373;
      }

      .cls-5 {
        fill: #d4d4d4;
      }

      .cls-6 {
        fill: #797979;
      }

      .cls-7 {
        fill: #dbdcdc;
      }

      .cls-8 {
        fill: #848484;
      }

      .cls-9 {
        fill: #f8f8f8;
      }

      .cls-10 {
        fill: #494a49;
      }

      .cls-11 {
        fill: #383838;
      }

      .cls-12 {
        fill: #333434;
      }

      .cls-13 {
        fill: #fcfcfc;
      }

      .cls-14 {
        fill: #cccccd;
      }

      .cls-15 {
        fill: #484848;
      }
    </style>
  </defs>
  <g id="_검은색_배경" data-name="검은색 배경">
    <rect class="cls-4" x="0" y="0" width="1024" height="1024"/>
  </g>
  <g id="_레이어_1" data-name="레이어 1">
    <path class="cls-12" d="M164.76,722.27c.26-1.39.75-3.77,1.99-4.51,4.43-2.65,46.56,1.28,48.98-.5l-2.53-4.96-.47-145.87c-35.5-.62-37.08-59.83,0-57.93v-131.35c0-1.39,7.1-8.49,8.49-8.49h36.47c.13-6.4-1.44-18.94,6.71-20.77,23.63,1.31,50.55-2.45,73.8-.28,14.37,1.35,5.37,21.04,9.93,21.04h27.48v-14.48c0-1.06,4.65-6.51,6.52-6.47l58.72.19c9.84,2.2,3.43,18.08,6.65,20.33l303.29.49c7.11,1.78,10.39,8.05,10.55,14.93,2.68-.36,4.65-1.73,7.48-2,11.22-1.1,33.71-1.02,45.01-.03s15.53,5.54,16.49,16.48c.48,5.44.71,32.61-.72,36.25-.41,1.04-2.2,1.79-2.32,2.24h-17.99c-.82,4.76.8,9.56,1,13.98.29,6.34-2.22,4.13-3.04,8.46.22.73,2.06.79,2.52,1.5,1.75,2.73,1.13,32.36-2.1,37l87.38,214.43c.36,1.18,2.86,5.31,3.68,5.31h101.92c2.31,0,4.52,8.4-.2,9.79-13.75.41-27.53.15-41.27.2-120.22.47-240.51-.03-360.73,0-61.6.01-123.26.03-184.86,0-81.11-.04-162.25-.01-243.37.05-5.14-.67-4.89-4.7-5.45-5.04ZM337.63,368.66c-.5-2.71,1.41-10.85-1.64-11.85-8.96,1.25-63.68-2.28-67.37.3-1.94,1.35-.53,8.91-.94,11.55h69.95ZM385.59,368.66h50.46c2.22,0,2.22-11.99,0-11.99h-50.46v11.99ZM725.34,377.65c-163.97-2.53-328.17,1.93-492.17-.04-3.42-1.14-11.45,4.75-11.45,7.53v84.41c29.3.02,58.64-.03,87.93,0,11.6.01,23.72.04,34.97,0l57.25-.2c57.91-56.97,151.84-55.56,210.07.18,37.79-.05,75.61.15,113.39.02,8.65-.03,17.34.02,25.98,0v-85.4c0-.42-2.3-3.52-2.93-4.06-4.55-3.87-16.84-2.34-23.05-2.43ZM820.27,395.63c-1.11-2.92-.77-3.56-4.45-4.04l-49.98.07c-2.21.41-4.03,2.35-4.49,4.51-.97,4.54-.35,4.36,2.97,4.46,18.94.54,38.01-.4,56.95,0,.38-.37-.63-4.03-1-4.99ZM807.28,409.61c-14.74-.32-29.54.27-44.29-.04-4.22,5.04-2.28,11.98-2.68,18.02,15.64,0,31.33,0,46.97,0h13.99c.3,3.07,3.48,3.83,5.07,1.59s2.97-14.27-.08-16.08c-1.73-1.03-3.82-.12-5-.49-.86-.27-1.23-2.57-3.48-3.01-2.72-.53-7.38.08-10.51.02ZM385.98,502.88c-46.49,75-12.24,174.74,69.32,206.15,118.27,45.55,230.78-73.31,180.29-189.21-45-103.31-190.41-112.45-249.61-16.94ZM760.32,436.58v84.91c1.75-.25,1.71-2.02,2.28-3.21,1.73-3.59,8.17-18.53,8.57-21.51.27-2.02-1.66-3.3-1.92-5.69-.64-5.89-.69-21.24.03-27.05.43-3.43,2.69-4.94,2.87-6.15s-2.39-3.41-2.8-5.87c-.44-2.67.5-14.89-.05-15.44h-9ZM800.29,436.58h-20.98c-.57,0-2.25,10.99.5,10.99h20.48v-10.99ZM780.3,464.55c-.02.22-.96,1.1-1.04,2.42-.45,7.06.41,14.46.04,21.56h20.98c.26-7.95-.36-16.03,0-23.97.05-1.1-.36-3.12.14-3.83.88-1.27,5.21.19,3.86-4.15l-23.41-.02c-1.17.17-.41,6.4-.57,8.01ZM247.7,478.54c-8.65.03-17.34-.02-25.99,0,.06,10.16-.04,20.35-.04,30.52,0,4.72.02,9.21,0,13.9-.18,55.12.23,110.26.04,165.36,8.65.01,17.34-.03,25.99,0,36.62.12,73.29-.09,109.92,0,4.2,4.02,16.72,9.07,21.9,5.41,1.17-.83,1.45-2.52,3.34-3.64,3.44-2.03,8.45-1.84,12.23-2.78,1.16-.29,1.83.73,1.5-1.47-1.02-6.96-4.28-4.5-6.11-6.14-3.41-3.04-3.07-9.27-4.41-12.33-2.64-6.03-10.76-10.73-14.17-17.8-5.12-10.6-6.35-14.71-8.74-26.23-2.03-9.78-8.51-15.9-8.18-25.6,1.06-31.51,2.86-58.39,16.91-87.43,2.58-5.34,16.72-25.45,15.77-29.18-.11-.44-5.41-2.49-6.53-2.62-7.87-.96-20.14-.05-28.52.05-2.94.03-14.42-.74-15.54.94-.9,1.34.14,4.01-1.41,5.59-2.35,2.41-10.89,2.81-13.61.54-2-1.67-1.48-6.74-3.07-7.12-23.76.14-47.54-.03-71.29.04ZM655.39,552.45c6.38,42.72-4.55,83.36-29.57,117.78-4.65,6.4-3.87,2.89-6.63,11.36-.71,2.17-5.23,3.91-1.26,4.68,10.09,1.95,22.2,2.63,32.46,3.03,3.34.13,7.86.02,11.45.05,12.92.09,25.71-.17,38.55-1.5l24.5-66.41c.87-4.31.33-8.71.44-13.05,1.44-.28,4.18.81,5.04-.66,1.63-2.8,2.23-8.94,3.49-12.28,6.56-17.32,12.93-30.68,15.65-49.29.19-1.3,1.8-2.9,1.8-3.2v-64.43c-8.78.91-17.16.07-25.98,0-34.62-.27-69.3.19-103.92.01,15.26,21.86,29.95,46.99,33.97,73.91ZM795.24,497.57l-9.95-.05.14,5.37,34.12,209.67c1.9,7.55,13.11,3.03,10.71-4.74l-35.02-210.24ZM774.3,514.5c-22.12,54.31-42.59,110.74-61.97,166.3-2.72,7.8-6.51,16.68-8.47,24.5-.62,2.49-3.75,11.38,1.82,9.84,4.13-1.14,9.74-12.66,11.4-16.59,23.25-54.93,38.5-116.38,60.76-172.03.8-1.48.11-3.79.45-5.01.48-1.73,3.24-3.84,2.98-7.44-.03-.4-2.71-7.25-2.99-7.54-2.65-2.74-3.79,7.52-3.98,7.99ZM212.72,518.49c-24.14-1.24-22.87,36.38,0,37.96v-37.96ZM837.26,717.27h48.96l-74.46-183.8c-2.64-.37-1.17,1.64-1.02,3.03,6.17,58.21,22.66,117.66,28.28,176.04l-1.76,4.73ZM758.32,717.27h52.96l-29.47-175.81-21.41,61.52c-2.71,33.84,3.31,72.59-.03,105.85-.34,3.4-1.84,5.26-2.05,8.44ZM730.34,698.29c-1.63.07-3.28-.24-4.89.1-.41,1.6-.54,3.33-1.1,4.89-.73,2-5.81,13.23-4.99,13.98,1.99.06,4-.06,5.99,0,8.31.29,23.56,1.01,25.75-9.71.6-2.96.12-6.23.23-9.26.66-19.09,1.49-44.73,0-63.45-.12-1.49.78-2.87-1.49-2.49-5.26,15.72-11.85,31.33-16.8,47.15-.81,2.58-3.21,8.93-3.54,10.52-.6,2.91,1.07,5.4.84,8.26ZM393.59,717.27c17.94-.01,36.62.69,54.47,0,1.21-.05,3.72.75,3.48-.99-6.35-1.69-13.16-5.28-19-8.48-3.65-2-11.9-8.68-14.68-9.3-10.11-2.26-34.3.02-46.26-.21-1.74-.03-3.98-1-6.45-1.04-46.95-.76-93.98.66-140.94.04-3.65.36-2.78,6.46-2.26,9.26.78,4.19,4.58,8.02,8.52,9.46,54.06,2.27,108.83,1.3,163.12,1.26ZM637.41,698.29c-10.8.23-32.08-1.84-41.26.21-3.12.7-14.56,9.06-18.68,11.3-4.75,2.58-9.72,5.14-15,6.48-.24,1.74,2.27.94,3.48.99,17.84.66,35.93-1.01,53.47-1,4.44,0,8.69,1.04,12.45,1.04,20.15-.02,40.31-.03,60.45-.09.33-6.97,3.28-13.3,5.04-19.92-18.14.27-36.35-.36-54.51-.04-2.04.04-3.97,1.01-5.45,1.04Z"/>
    <path class="cls-3" d="M109.8,722.27c.33,7.37,10.99,6.91,10.99,0,6.11,1.22,41.42-1.61,43.97,0,.55.35.3,4.37,5.45,5.04,81.12-.06,162.26-.09,243.37-.05-.12,2.41,1.45,2.57,2.97,3.53,21.36,13.51,42.75,14.71,67.43,15.5,32.62,1.04,79.95,1.7,108.77-14.23,1.69-.93,5.99-2.52,5.7-4.8,120.22-.03,240.51.47,360.73,0-1.11,8.78,1.51,21.18,0,29.47-.51,2.79-3.03,3.23-5.48,3.51l-883.41.03c-2.05.05-3.77-.29-5.39-1.6-5.48-4.4-5.35-25.33-5.05-32.41,0-.16.93-1.35,1-3l48.96-1Z"/>
    <path class="cls-12" d="M151.53,275.03c40.41-5.83,39.32,56.14,1.19,50.23-29.88-4.63-28.57-46.27-1.19-50.23ZM153.51,283.99c-18.79,3-17.55,29.69-.27,31.75,27.58,3.29,24.14-35.57.27-31.75Z"/>
    <path class="cls-11" d="M60.84,723.26c-.07,1.64-.99,2.84-1,3-1.66,1.14-3.55.97-5.45,1.04-6.96.24-19.55.87-25.96-.11-7.53-1.15-5.96-10.31,1.94-10.97,3.31-.28,5.93,1.03,8.95,1.09,5.17.1,13.43-.88,18-.01,3.39.65,3.65,3,3.53,5.97Z"/>
    <path class="cls-6" d="M827.27,436.58c-.59,2.32.6,13.4,0,13.99h-16.99c-.2-4.43-1.82-9.23-1-13.99h17.99Z"/>
    <path class="cls-11" d="M241.2,301.73h16.99c3.16,0,3.16,8.99,0,8.99h-16.99c-2.63,0-3.8-7.68,0-8.99Z"/>
    <path class="cls-12" d="M241.2,283.75h16.99c2.79,0,2.79,8.99,0,8.99h-17.99c-2.22,0-2.25-7.92,1-8.99Z"/>
    <path class="cls-11" d="M120.79,722.27c0,6.91-10.67,7.37-10.99,0s10.99-7.1,10.99,0Z"/>
    <path class="cls-13" d="M725.34,377.65v91.9c-37.78.12-75.6-.07-113.39-.02-58.23-55.74-152.16-57.15-210.07-.18l-57.25.2c3.06-2.98,3.91-8.24,4.09-12.49.1-2.36-1-4.36-.99-6.1.06-6.89,1.35-12.86-.77-20.2-4.82-16.72-33.14-16.6-37.62,2.01-2.4,9.98-.4,26.43.31,36.77-29.3-.03-58.64.02-87.93,0v-84.41c0-2.78,8.03-8.67,11.45-7.53,164,1.97,328.21-2.49,492.17.04ZM408.28,388.84c-7.39,2.16-6.4,20-5.7,26.26.56,5.04,2.07,7.89,7.47,8.51,3.4.39,20.08.46,22.48-.54.61-.25,3.24-2.89,3.5-3.5,1-2.4.95-19.96.54-23.47-.45-3.91-2.47-6.77-6.58-7.41-3.04-.48-19.24-.58-21.72.15ZM630.12,388.85c-2.62.6-5.83,3.37-5.75,6.23,1.61,17.38-1.98,38.05.03,55.01.61,5.16,2.58,6.07,7.47,6.52,26.97,2.48,57.66-1.99,85.03,0,2.22.04,3.72-1.34,4.92-3.07.97-17.12.53-34.32.48-51.46,0-3.25,2.04-8.84-1.35-11.55-2.22-1.78-13.36-.77-17.13-.85-20.41-.48-41.6.22-61.91.04-3.97-.04-7.14-1.93-11.79-.87Z"/>
    <path class="cls-15" d="M247.7,478.54c23.75-.08,47.53.09,71.29-.04,1.59.38,1.07,5.45,3.07,7.12,2.73,2.27,11.26,1.87,13.61-.54,1.54-1.58.51-4.25,1.41-5.59,1.12-1.68,12.6-.91,15.54-.94-28.51,49.51-40.69,113.22-19.47,167.8,4.43,11.4,15.81,33.7,24.47,41.97-36.62-.09-73.29.12-109.92,0v-209.77Z"/>
    <path class="cls-2" d="M725.34,478.54c-.83,43.23,1.11,86.64,0,129.86-.11,4.34.43,8.74-.44,13.05l-24.5,66.41c-12.84,1.34-25.63,1.6-38.55,1.5-3.59-.03-8.11.08-11.45-.05-.45-2.24.92-3.08,1.92-4.57,13.64-20.37,23.24-33.87,29.38-58.54,4.3-17.27,7.09-47.88,4.72-65.3-1.83-13.43-21.6-7-31.02-8.45-4.02-26.92-18.71-52.05-33.97-73.91,34.62.18,69.3-.28,103.92-.01Z"/>
    <path class="cls-9" d="M385.98,502.88c59.2-95.51,204.6-86.37,249.61,16.94,50.49,115.9-62.02,234.76-180.29,189.21-81.56-31.41-115.81-131.15-69.32-206.15ZM386.59,536.47c-4.4,12.71-5.81,15.53-6.99,29.97-1.93,23.39-.1,39.01,8.99,60.93,11.99,28.88,32.34,49.98,59.96,63.93,57.99,29.29,126.21,13.66,163.69-39.64,53.94-76.69,9.88-183.36-81.75-200.09-8.84-1.61-16-2.02-24.98-2-57.11.16-100.68,34.24-118.91,86.9Z"/>
    <path class="cls-11" d="M352.62,478.54c8.38-.09,20.65-1.01,28.52-.05,1.12.14,6.42,2.18,6.53,2.62.95,3.73-13.19,23.85-15.77,29.18-14.05,29.04-15.85,55.91-16.91,87.43-.33,9.71,6.15,15.82,8.18,25.6,2.39,11.52,3.61,15.63,8.74,26.23,3.41,7.06,11.53,11.76,14.17,17.8,1.34,3.06,1.01,9.29,4.41,12.33,1.83,1.64,5.09-.82,6.11,6.14.32,2.21-.34,1.18-1.5,1.47-3.78.94-8.79.75-12.23,2.78-1.9,1.12-2.18,2.82-3.34,3.64-5.18,3.66-17.7-1.39-21.9-5.41-8.65-8.27-20.04-30.57-24.47-41.97-21.22-54.58-9.04-118.29,19.47-167.8Z"/>
    <path class="cls-6" d="M247.7,478.54v209.77c-8.65-.03-17.34.02-25.99,0,.19-55.11-.21-110.24-.04-165.36.02-4.68,0-9.18,0-13.9,0-10.17.1-20.36.04-30.52,8.65-.01,17.34.03,25.99,0Z"/>
    <path class="cls-11" d="M650.4,689.3c-10.25-.4-22.36-1.09-32.46-3.03-3.96-.76.56-2.5,1.26-4.68,2.75-8.47,1.98-4.96,6.63-11.36,25.02-34.43,35.94-75.07,29.57-117.78,9.42,1.44,29.19-4.99,31.02,8.45,2.38,17.41-.42,48.03-4.72,65.3-6.14,24.67-15.74,38.17-29.38,58.54-1,1.49-2.37,2.32-1.92,4.57Z"/>
    <path class="cls-9" d="M371.6,698.29c.31,2.51,3.63,4.49,5.53,5.96,4.31,3.33,9.02,6.34,13.46,9.52,1.37.98,3.17.97,2.99,3.5-54.29.04-109.06,1.01-163.12-1.26-3.94-1.44-7.74-5.27-8.52-9.46-.52-2.8-1.4-8.9,2.26-9.26,46.96.62,93.99-.8,140.94-.04,2.47.04,4.71,1.01,6.45,1.04Z"/>
    <path class="cls-7" d="M598.44,727.26c.29,2.28-4.01,3.87-5.7,4.8-28.82,15.93-76.14,15.27-108.77,14.23-24.69-.79-46.08-1.98-67.43-15.5-1.52-.96-3.09-1.12-2.97-3.53,61.6.03,123.26.01,184.86,0Z"/>
    <path class="cls-11" d="M725.34,478.54c8.82.07,17.2.91,25.98,0v64.43c0,.3-1.61,1.9-1.8,3.2-2.71,18.61-9.09,31.97-15.65,49.29-1.27,3.34-1.86,9.48-3.49,12.28-.86,1.48-3.6.39-5.04.66,1.11-43.21-.83-86.63,0-129.86Z"/>
    <path class="cls-9" d="M795.24,497.57l35.02,210.24c2.39,7.77-8.82,12.29-10.71,4.74l-34.12-209.67-.14-5.37,9.95.05Z"/>
    <path class="cls-14" d="M725.34,377.65c6.21.1,18.49-1.44,23.05,2.43.64.54,2.93,3.64,2.93,4.06v85.4c-8.65.02-17.34-.03-25.98,0v-91.9Z"/>
    <path class="cls-9" d="M778.3,521.49c-.34,1.23.35,3.53-.45,5.01-22.26,55.65-37.51,117.11-60.76,172.03-1.67,3.93-7.27,15.45-11.4,16.59-5.57,1.54-2.45-7.35-1.82-9.84,1.96-7.82,5.75-16.7,8.47-24.5,19.38-55.55,39.85-111.99,61.97-166.3l4,6.99Z"/>
    <path class="cls-11" d="M344.62,469.55c-11.25.04-23.37.01-34.97,0-.71-10.34-2.72-26.79-.31-36.77,4.48-18.62,32.8-18.73,37.62-2.01,2.12,7.34.82,13.31.77,20.2-.01,1.73,1.09,3.74.99,6.1-.18,4.25-1.03,9.51-4.09,12.49ZM340.63,454.56v-19.48c0-6.51-16.39-10.3-21.94-4.95-3.45,3.33-6.06,23.73.95,24.43v-15.48c0-5.52,17.99-4.28,17.99-1v16.48h3Z"/>
    <path class="cls-9" d="M637.41,698.29c1.48-.03,3.41-1,5.45-1.04,18.15-.32,36.36.31,54.51.04-1.76,6.62-4.71,12.95-5.04,19.92-20.13.06-40.3.08-60.45.09-3.76,0-8.01-1.04-12.45-1.04,4.47-7.38,14.6-9.87,17.99-17.98Z"/>
    <path class="cls-5" d="M371.6,698.29c11.96.23,36.15-2.05,46.26.21,2.78.62,11.03,7.3,14.68,9.3,5.84,3.2,12.65,6.79,19,8.48.24,1.74-2.27.94-3.48.99-17.85.69-36.53-.01-54.47,0,.18-2.53-1.62-2.52-2.99-3.5-4.44-3.18-9.15-6.19-13.46-9.52-1.9-1.47-5.22-3.45-5.53-5.96Z"/>
    <path class="cls-5" d="M637.41,698.29c-3.38,8.11-13.52,10.6-17.99,17.98-17.55-.01-35.63,1.66-53.47,1-1.21-.04-3.72.75-3.48-.99,5.29-1.34,10.25-3.9,15-6.48,4.12-2.24,15.56-10.6,18.68-11.3,9.18-2.05,30.45.02,41.26-.21Z"/>
    <path class="cls-6" d="M807.28,409.61v17.98c-15.64,0-31.33,0-46.97,0,.4-6.04-1.55-12.98,2.68-18.02,14.75.3,29.55-.29,44.29.04Z"/>
    <path class="cls-8" d="M337.63,368.66h-69.95c.41-2.64-1-10.2.94-11.55,3.69-2.58,58.41.96,67.37-.3,3.04,1,1.14,9.13,1.64,11.85Z"/>
    <path class="cls-11" d="M730.34,698.29c.23-2.86-1.45-5.35-.84-8.26.33-1.58,2.73-7.94,3.54-10.52,4.95-15.83,11.54-31.43,16.8-47.15,2.27-.38,1.37,1,1.49,2.49,1.49,18.71.66,44.36,0,63.45h-5c.81-5.71-7.8-5.71-6.99,0-2.98,0-6.02-.12-8.99,0Z"/>
    <path class="cls-9" d="M760.32,436.58h9c.55.54-.4,12.76.05,15.43.41,2.46,2.99,4.64,2.8,5.87s-2.45,2.71-2.87,6.15c-.72,5.81-.67,21.16-.03,27.05.26,2.38,2.19,3.66,1.92,5.69-.4,2.99-6.84,17.92-8.57,21.51-.57,1.19-.54,2.96-2.28,3.21v-84.91Z"/>
    <path class="cls-8" d="M385.59,368.66v-11.99h50.46c2.22,0,2.22,11.99,0,11.99h-50.46Z"/>
    <path class="cls-8" d="M800.29,464.55c-.36,7.95.26,16.02,0,23.97h-20.98c.37-7.09-.49-14.49-.04-21.56.08-1.32,1.02-2.2,1.04-2.42h19.99Z"/>
    <path class="cls-14" d="M730.34,698.29c2.97-.12,6.01,0,8.99,0,2.33,0,4.67,0,6.99,0h5c-.1,3.03.38,6.31-.23,9.26-2.19,10.73-17.44,10-25.75,9.71-.54-4.42,1.24-10.17-1-13.98.57-1.56.69-3.29,1.1-4.89,1.61-.35,3.27-.04,4.89-.1Z"/>
    <path class="cls-1" d="M820.27,395.63c.36.96,1.37,4.62,1,4.99-18.95-.39-38.02.54-56.95,0l.58-5.01,55.38.02Z"/>
    <path class="cls-15" d="M821.27,412.61c.34,4.85-.47,10.22,0,14.98h-13.99v-17.98c3.13.07,7.79-.54,10.51-.02,2.25.44,2.62,2.74,3.48,3.01Z"/>
    <path class="cls-7" d="M820.27,395.63l-55.38-.02-.58,5.01c-3.32-.09-3.93.08-2.97-4.46.46-2.16,2.28-4.1,4.49-4.51l49.98-.07c3.68.49,3.35,1.12,4.45,4.04Z"/>
    <path class="cls-8" d="M800.29,436.58v10.99h-20.48c-2.75,0-1.07-10.99-.5-10.99h20.98Z"/>
    <path class="cls-11" d="M780.3,464.55c.17-1.61-.6-7.83.57-8.01l23.41.02c1.35,4.34-2.98,2.88-3.86,4.15-.5.72-.09,2.74-.14,3.83h-19.99Z"/>
    <path class="cls-11" d="M821.27,412.61c1.18.37,3.26-.54,5,.49,3.05,1.82,1.65,13.87.08,16.08s-4.77,1.48-5.07-1.59c-.47-4.76.34-10.13,0-14.98Z"/>
    <path class="cls-5" d="M774.3,514.5c.19-.47,1.33-10.73,3.98-7.99.28.29,2.96,7.14,2.99,7.54.26,3.6-2.5,5.72-2.98,7.44l-4-6.99Z"/>
    <path class="cls-3" d="M725.34,717.27c-1.99-.07-4,.06-5.99,0-.82-.75,4.26-11.97,4.99-13.98,2.24,3.82.46,9.56,1,13.98Z"/>
    <path class="cls-12" d="M630.12,388.85c4.64-1.07,7.81.83,11.79.87,20.32.18,41.51-.52,61.91-.04,3.77.09,14.91-.92,17.13.85,3.39,2.71,1.34,8.3,1.35,11.55.05,17.14.49,34.34-.48,51.46-1.2,1.73-2.7,3.11-4.92,3.07-27.38-1.99-58.06,2.47-85.03,0-4.89-.45-6.86-1.36-7.47-6.52-2.01-16.96,1.57-37.63-.03-55.01-.08-2.85,3.13-5.63,5.75-6.23ZM713.35,397.63h-78.94c.55,1.27-1,2.96-1,3.5v44.95c0,.11,1.39,1.5,1.5,1.5h78.44v-49.94Z"/>
    <path class="cls-12" d="M408.28,388.84c2.48-.72,18.68-.62,21.72-.15,4.1.64,6.12,3.5,6.58,7.41.41,3.52.45,21.08-.54,23.47-.25.61-2.89,3.24-3.5,3.5-2.41,1-19.09.94-22.48.54-5.4-.62-6.91-3.47-7.47-8.51-.7-6.26-1.69-24.1,5.7-26.26ZM427.56,397.63h-14.49c-.11,0-1.5,1.39-1.5,1.5v15.48h15.99v-16.98Z"/>
    <path class="cls-12" d="M448.55,691.3l-.77-8.41.77-.58c64.23,35.84,145.97,5.18,170.89-63.41,25.64-70.56-18.6-146.32-91.95-159.34-.93-3.93,4.39-3.27,3-7.99,91.64,16.73,135.7,123.4,81.75,200.09-37.49,53.3-105.7,68.93-163.69,39.64Z"/>
    <path class="cls-12" d="M505.5,449.57v7.99c-49.81,1.36-95.9,33.21-111.92,80.91l-6.99-2c18.23-52.66,61.8-86.74,118.91-86.9Z"/>
    <path class="cls-10" d="M396.59,626.37c8.96,20.13,32.56,45.11,51.96,55.94l-.77.58.77,8.41c-27.62-13.95-47.97-35.05-59.96-63.93l7.99-1Z"/>
    <path class="cls-11" d="M386.59,565.44c-2,14.91,3.77,46.96,9.99,60.93l-7.99,1c-9.1-21.92-10.92-37.54-8.99-60.93l6.99-1Z"/>
    <path class="cls-10" d="M393.59,538.47c-2.24,6.69-6.12,20.47-6.99,26.97l-6.99,1c1.19-14.43,2.59-17.25,6.99-29.97l6.99,2Z"/>
    <path class="cls-11" d="M530.49,451.57c1.39,4.73-3.92,4.06-3,7.99-1.34-.24-2.65-.83-4-1,1.8-5.41-10.9-5.26-10.99-1-1.68-.04-5.15-.05-6.99,0v-7.99c8.98-.03,16.14.38,24.98,2Z"/>
    <path class="cls-6" d="M340.63,454.56h-3v-16.48c0-3.28-17.99-4.52-17.99,1v15.48c-7.02-.7-4.41-21.1-.95-24.43,5.55-5.35,21.94-1.56,21.94,4.95v19.48Z"/>
    <path class="cls-12" d="M746.33,698.29c-2.33,0-4.67,0-6.99,0-.81-5.71,7.8-5.71,6.99,0Z"/>
    <path class="cls-2" d="M713.35,397.63v49.94h-78.44c-.11,0-1.5-1.39-1.5-1.5v-44.95c0-.54,1.54-2.22,1-3.5h78.94Z"/>
    <path class="cls-5" d="M512.5,457.56c2.64.07,8.23.65,10.99,1,1.34.17,2.66.76,4,1,73.35,13.02,117.59,88.78,91.95,159.34-24.93,68.59-106.66,99.25-170.89,63.41-19.4-10.83-43-35.81-51.96-55.94-6.22-13.97-12-46.03-9.99-60.93.87-6.5,4.75-20.28,6.99-26.97,16.01-47.7,62.11-79.55,111.92-80.91,1.85-.05,5.32-.04,6.99,0ZM495.31,471.84c-77.14,7.02-120.69,95.57-79.15,161.44,42.73,67.74,143.95,67.63,183.45-3.24,42.78-76.75-18.01-166.05-104.3-158.2Z"/>
    <path class="cls-12" d="M512.5,457.56c.09-4.26,12.8-4.41,10.99,1-2.76-.35-8.35-.93-10.99-1Z"/>
    <path class="cls-1" d="M495.31,471.84c86.29-7.85,147.08,81.45,104.3,158.2-39.5,70.87-140.72,70.99-183.45,3.24-41.54-65.87,2.01-154.42,79.15-161.44ZM497.31,483.83c-65.96,6.21-105.36,80.06-73.27,138.57,35.61,64.91,129.34,65.57,165.57.65,37.3-66.84-16.96-146.31-92.3-139.22Z"/>
    <path class="cls-12" d="M497.31,483.83c75.34-7.09,129.6,72.38,92.3,139.22-36.23,64.92-129.96,64.26-165.57-.65-32.1-58.51,7.3-132.36,73.27-138.57ZM497.31,492.82c-59.92,5.38-93.95,72.3-65.92,125.23,35.11,66.31,136.92,56.62,157.77-16.44,17.19-60.28-30.05-114.34-91.84-108.79Z"/>
    <path class="cls-10" d="M497.31,492.82c61.79-5.55,109.04,48.51,91.84,108.79-20.84,73.06-122.65,82.75-157.77,16.44-28.03-52.93,6-119.85,65.92-125.23ZM498.29,529.76c-57.21,6.91-52.72,102.68,15.59,95.49,60.19-6.33,54.83-103.99-15.59-95.49Z"/>
  </g>
</svg>