<?xml version="1.0" encoding="UTF-8"?>
<svg xmlns="http://www.w3.org/2000/svg" viewBox="0 0 1024 1024">
  <defs>
    <style>
      .cls-1 {
        fill: #3e3f3f;
      }

      .cls-2 {
        fill: #7f7373;
      }

      .cls-3 {
        fill: #eaebeb;
      }

      .cls-4 {
        fill: #f8f9f9;
      }

      .cls-5 {
        fill: #d3d4d3;
      }

      .cls-6 {
        fill: #bbb;
      }

      .cls-7 {
        fill: #676767;
      }

      .cls-8 {
        fill: #828283;
      }

      .cls-9 {
        fill: #f5f5f5;
      }

      .cls-10 {
        fill: #383838;
      }

      .cls-11 {
        fill: #b8b7b7;
      }

      .cls-12 {
        fill: #3a3b3b;
      }

      .cls-13 {
        fill: #a4a4a4;
      }

      .cls-14 {
        fill: #555;
      }

      .cls-15 {
        fill: #fcfdfd;
      }
    </style>
  </defs>
  <g id="_검은색_배경" data-name="검은색 배경">
    <rect class="cls-2" x="0" y="0" width="1024" height="1024"/>
  </g>
  <g id="_레이어_1" data-name="레이어 1">
    <path class="cls-12" d="M383.6,224.82c-1.87,4.32,6.89,4.36,6,1,4.32.05,8.67-.02,12.99,0-.56,3.02,1.53,1.93,3.45,2,55.67,1.86,112.16-1.4,167.91.01,9.51.95,15.94,7,21.86,13.64.41.46,1.55.22,1.64.33,2.2,2.75,8.99,16.43,8.99,19.48v321.14c4.45-.4,9.67.55,13.99,0,.73-.09,2.13.49,2.02-.6l-.02-294.62-2-3.45c-.01-.67.02-1.33,0-2,3.23.91,2.97-5.08,0-4-.16-5.06.37-10-1-14.98,1.8-1.06-.63-3.21.44-4.98.81-1.34,7.06-4.08,8.56-6.01,1.3,3.11,5,8.15,5,12.49v318.14h88.43c2.37,0,6.5,4.11,6.5,6.49v18.48h27.48c.66,0,3.23,3.21,3.48,4.52.55,2.9.51,26.32-.19,28.73-1.74,6.04-11.93,2.84-12.78,3.7-1.01,1.02,1.56,19.72-.92,23.55-3.09,4.77-12.57,2.93-13.07,3.42-.39.39-.39,10.61,0,11,.86.86,11.05-2.33,12.78,3.7.65,2.27.65,27.27,0,29.54-1.68,5.86-12.06,3.15-16.78,3.71v19.48c0,7.62-11.94,6.62-16.99,5.49v10.99s19.48,0,19.48,0c.38,0,3.03,1.91,3.52,2.48,5.25,6.07-1.83,20.87,2.62,22.36l93.73.2c9.41,1.47,7.79,14.27-.92,14.94l-625.6.03c-9.18-1.18-6.17-14.03-.95-14.03h70.45c-15.42-12.56-29.5-26.31-35.48-45.94-16.76-54.93,27.34-107.24,83.45-104.89v-365.09c4.71-26.74,19.33-33.24,42.96-39.47-1.26,2.69,4.25,2.51,6.37,2.02,1.33-.31.3-1.79.63-2.02.49-.34,10.35-1,11.99-1ZM394.09,226.82v1c.65-.33.65-.67,0-1ZM558.47,732.25c52.28.16,104.61-.12,156.89,0v-12.99h-168.38c-6.92,0-3.71-18.02-4.54-22.43-.63-3.31-5.6-6.52-1.66-11.25.22-.27,4.89-3.28,5.2-3.28h34.47v-10.99c-5.46.49-10.91-.38-16.32-.62-4.09-.18-9.56,2.18-13.25-2.28-3.36-4.05-.23-22.9-1.4-24.07-.88-.88-8.83,2.35-9.97-3.52-3.19-16.37,20.48-6.04,23.52-10.4,1.42-3.81-1.71-23.04,3.93-23.04h18.49v-10.99h-14.49c-7.75,0-6.03-13.98,0-13.98h22.48v-315.14c.7-9.12-12.65-26.48-21.48-26.48h-20.48c1.64,17.22-4.96,26.81-22.44,28.01-43.24,2.97-90.08-2.1-133.69-.31-14.54-2.6-18.51-14.19-16.75-27.71h-20.48c-.42,0-6.81,2.64-7.82,3.17-8.16,4.34-13.95,14.15-14.7,23.26l.02,365.55c.21,1.33,3.83.19,5.01.58,44.45,14.36,69.37,62.51,52.96,106.88-2.14,5.8-5.5,12.91-8.99,17.98-4.57,6.63-13.32,15.42-19.99,19.98-.38.26-2.08-.56-2,.51-.32,2.13.41,1.33,2,1.49h182.87s0-20.98,0-20.98c4.36-4.67,10.98-2.83,16.99-3,2.32-.06,4.68.05,7,0v-11.42c-.15-1.08-5.52-.53-7-.57-11.39-.31-23.58-.3-34.97,0,0-5.39,13.21-2.11,14.99-4,.2-.21-.13-2.18,0-2.99-5.02-1.71-15.14,1.72-15-5,9.85-.87,19.36-.03,28.98,0ZM535.48,240.8h-142.89c.25,5.71-1.96,13.73,5.56,14.92,42.22-1.91,86.96,2.75,128.88.11,11.85-.75,7.83-4.94,8.45-15.03ZM715.35,595.41h-115.41c-2.22,0-2.22,11.99,0,11.99h115.41v-11.99ZM746.33,620.38h-169.87v10.99h169.87v-10.99ZM263.68,753.23c4.38,5.59,3.32,5.04,8.99,9.99,9.17,7.99,13.78,11.54,25.98,14.98,33.62,9.5,66.43-6.93,80.94-37.96,17.46-37.34-3.5-83.98-43.97-93.9-5.65-1.38-8.28-1.58-13.99-2-59.82-4.41-95.88,60.51-57.96,108.88ZM733.34,644.35h-170.87c.3,2.16-1.02,13.98,1.5,13.98h169.37v-13.98ZM719.35,682.31c-.2-2.13.88-11.99-1.5-11.99h-124.41v11.99h125.91ZM732.34,695.3h-177.87l1,11.99h176.87v-11.99ZM698.36,744.24h-113.92v11.99c15.82.06,31.67-.08,47.51-.05,4.99,0,9.92.01,14.91,0,17.17-.05,34.35.12,51.51.05v-11.99ZM722.34,769.21h-161.88v12.99h161.88v-12.99Z"/>
    <path class="cls-14" d="M628.41,251.79c-1.49,1.93-7.74,4.67-8.56,6.01-1.07,1.77,1.36,3.92-.44,4.98-2.42-8.78-11.96-21.12-21.98-20.98-.09-.11-1.22.13-1.64-.33-5.92-6.64-12.35-12.69-21.86-13.64-55.75-1.41-112.24,1.85-167.91-.01-1.93-.06-4.01,1.02-3.45-2,3.5.01,8.01.93,10.57.89.73-.01.33-1.89.42-1.89h181.37c10.93,0,28.17,13.36,33.02,22.98.69,1.36.17,3.29.46,3.99Z"/>
    <path class="cls-7" d="M263.44,443.84c18.6-2.4,30.9,20.11,18.22,34.19-15.72,17.45-43.67.33-35.17-21.17,2.64-6.67,9.82-12.1,16.95-13.02ZM260.01,470.23c5.99,6.54,17.93-.91,12.72-10.22-5.36-9.59-21.18.99-12.72,10.22Z"/>
    <path class="cls-8" d="M699.09,458.79c16.63-3.45,26.38,8.71,26.25,24.24-.12,13.94-16.9,21.18-28.92,14.93-17.07-8.88-15.33-35.44,2.67-39.17ZM704.09,470.72c-11.15,2.33-7.25,19.16,4.54,16.61,9.5-2.05,5.9-18.79-4.54-16.61Z"/>
    <path class="cls-14" d="M371.6,225.82c-.33.23.71,1.71-.63,2.02-2.12.49-7.63.67-6.37-2.02,2.23-.59,4.39-2.39,6.99,0Z"/>
    <path class="cls-14" d="M389.59,225.82c.9,3.36-7.86,3.32-6-1,2.51,0,4.82.99,6,1Z"/>
    <path class="cls-15" d="M340.63,633.36c-1.19-.38-4.81.76-5.01-.58l-.02-365.55c.75-9.11,6.54-18.92,14.7-23.26,1-.53,7.39-3.17,7.82-3.17h20.48c-1.76,13.52,2.21,25.11,16.75,27.71,43.6-1.8,90.45,3.28,133.69.31,17.47-1.2,24.08-10.79,22.44-28.01h20.48c8.84,0,22.18,17.36,21.47,26.48v315.14s-22.47,0-22.47,0c-6.03,0-7.75,13.98,0,13.98h14.49v10.99h-18.49c-5.65,0-2.51,19.22-3.93,23.04-3.04,4.36-26.7-5.98-23.52,10.4,1.14,5.87,9.09,2.64,9.97,3.52,1.17,1.17-1.95,20.02,1.4,24.07,3.7,4.46,9.16,2.1,13.25,2.28,5.4.24,10.86,1.11,16.32.62v10.99h-34.48c-.31,0-4.98,3.01-5.2,3.28-3.93,4.73,1.04,7.94,1.66,11.25.83,4.41-2.38,22.43,4.54,22.43h168.37v12.99c-52.27-.13-104.6.15-156.88,0-1.18-13.41-14.71-8.14-23.44-7.95-40.77.9-81.68-.76-122.46-.04-.2-9.66.7-19.43-.99-28.97,3.16.36,16.85.54,19.29-.19,5.59-1.68,4.95-11.5-2.86-12.74-3.22-.51-17.02-.44-19.43.94-2.76.62-1.82-1.51-2.51-2.94-11.83-24.61-32.74-47.57-61.94-49.05-1.86-.09-4.1-.82-3.5,2.04ZM422.57,326.71c-2.52,2.35-6.47,8.77-8.99,9.99-1.61.78-5.88-.28-3,4.99-3.4,6.2-7.38,17.97-7.99,24.97-2.71-.02-2.8,1.18-3.05,3.45-.34,3.03-.34,10.06.03,13.06.45,3.63,3.61,15.39,4.97,19.01,3.3,8.79,10.93,20,19.04,24.42,1.89,2.59,1.92,3.73,5.08,6.41,21.36,18.13,49.09,18.25,73.73,6.95,10.64-4.88,20.93-12.15,25.11-23.33-.13-.17-3.18-.59-4-1.01-18.02-9.24-42.03-23.7-58.96-34.96v-66.43s-4-2.5-4-2.5c-.03-.66.02-1.33,0-2-.04-1,.05-2,0-3-12.21.38-27.21,6.88-35.92,15.55-1.46,1.45-2.42,2.02-2.06,4.43ZM480.52,308.73c-1.66-.21-4.26-.11-6,0-3.58.23-3.6.18-4,4.49-1.45,15.54-.78,41.52.89,57.06.14,1.28-.84,2.75-.65,3.76.88,4.68,23.54,16.01,28.83,19,8.05,4.56,16.43,9.17,24.8,13.17,2.48,1.18,4.92,4.88,8.08,2.92,2.01-1.24,5.94-11.56,6.7-14.3,4.53-16.17,2.3-32.77-3.97-48.44-.62-1.55-.26-3.23-2.73-2.71.01-.32.04-.68,0-1-.55-4.88-2.56-3.99-4.44-7.05-2.02-3.29-5.66-11.82-8.18-13.8-7.09-5.55-26.99-14.62-35.85-15.15-1.86-.11-4.09-.83-3.5,2.04ZM391.3,474.76c-7.08,1.56-6.42,12.09.73,12.82l99-.03c8.75-.49,8.75-12.54,0-13.02l-99.73.23ZM387.85,500.77c-4.55,4.32-.98,11.73,5.22,11.75h122.95c7.31-.27,9.03-8.47,3.45-12.48l-126.43-.56c-1.63.12-3.98.14-5.2,1.3ZM387.89,525.77c-3.08,3.82-1.19,10.54,4.14,10.75l54.99-.08c6.38-1.19,6.79-11.96-1.95-12.98-10.56-1.23-41.58-1.33-52.02-.03-1.52.19-4.25,1.21-5.15,2.33ZM493.51,535.47c-2.7-.02-2.81,1.18-3.05,3.44-.67,6.22-.86,14.57.56,20.58.4,1.68-.03,3.51,2.5,2.95,0,.67,0,1.33,0,2-2.45-.49-2.22,1.08-2.68,2.77-2.36,8.59-1.26,19.68-1.28,28.74-.03,18.55-.49,42.5.96,60.94.24,3.07-.49,2.57,3,2.45.08,1.33-.07,2.68,0,4h26.99c.05-2.32-.07-4.67,0-7,3.62.15,2.7.55,2.98-2.46,3-32.05,3.26-81.78,1.06-113.95-.19-2.8-.06-6.38-4.04-5.45-.08-1.66.07-3.34,0-5h-26.99c-.05,1.99.08,4.01,0,6ZM476.53,571.43c-.27-.25.28-2.76,0-3-.92-.81-22.37-.38-24.49,0-.83.15-2.5.8-2.5,1.5v93.4h26.99c.05-1.98-.08-4,0-5.99,4.68,1.44,4.75-2.92,4.8-6.49.33-22.04,1.22-53.23-.8-74.92-.62-6.67-3.25-3.8-4-4.49ZM435.56,611.39h-26.48c-2.33,0-1.54,17.58-1.55,20.52-.01,4.02,0,7.93,0,11.9,0,2.73-.78,19.52,1.55,19.52h26.48v-51.94ZM447.24,683.5c-5.12,2.32-4.6,10.73.83,11.77l73.97.07c6.66-.26,7.14-10.83.93-12.02l-75.73.17Z"/>
    <path class="cls-6" d="M619.42,262.78c1.37,4.98.84,9.92,1,14.98.04,1.33-.03,2.67,0,4,.02.67-.01,1.33,0,2,1.8,99.47-1.35,199.18,0,298.67-4.32.55-9.54-.4-13.99,0v-321.14c0-3.05-6.79-16.73-8.99-19.48,10.02-.15,19.57,12.2,21.98,20.98Z"/>
    <path class="cls-11" d="M547.47,759.22v20.98s-182.86,0-182.86,0v-2c6.67-4.55,15.42-13.35,19.99-19.98,2.1.76,4.21.95,6.45,1.04,51.57,2.18,104.71-1.73,156.43-.05Z"/>
    <path class="cls-3" d="M340.63,633.36c-.6-2.86,1.64-2.14,3.5-2.04,29.21,1.48,50.12,24.45,61.94,49.05.68,1.42-.25,3.55,2.51,2.94-4.91,2.82-4.41,11.14,3,11.99,1.7,9.54.79,19.31.99,28.97,40.77-.73,81.68.94,122.46.04,8.73-.19,22.26-5.46,23.44,7.95-9.62-.03-19.13-.87-28.98,0-6.66.59-13.71-2.4-11.99,7.99h-123.91c16.4-44.37-8.51-92.52-52.96-106.88Z"/>
    <path class="cls-13" d="M517.5,740.25c.72,4.37,5.6,5.19,9.54,5.07,1.29-.04,2.32-1.07,2.46-1.08,11.39-.3,23.59-.31,34.97,0v11.99c-6.01.16-12.62-1.67-16.99,3-51.72-1.68-104.86,2.23-156.43.05-2.24-.09-4.35-.28-6.45-1.04,3.49-5.07,6.85-12.18,8.99-17.98h123.91Z"/>
    <path class="cls-9" d="M733.34,644.35v13.98h-169.37c-2.51,0-1.2-11.83-1.5-13.98h170.87Z"/>
    <polygon class="cls-15" points="732.34 695.3 732.34 707.28 555.47 707.28 554.47 695.3 732.34 695.3"/>
    <path class="cls-4" d="M535.48,240.8c-.62,10.09,3.4,14.28-8.45,15.03-41.92,2.64-86.66-2.02-128.88-.11-7.52-1.19-5.31-9.21-5.56-14.92h142.89Z"/>
    <rect class="cls-4" x="560.46" y="769.21" width="161.88" height="12.99"/>
    <rect class="cls-4" x="576.45" y="620.38" width="169.87" height="10.99"/>
    <path class="cls-3" d="M321.64,644.35v9.99c-50.54-6.15-82.68,57.39-47.96,96.89.72,3.09-2.84,2.17-4.42,1.91-1.98-.33-3.72-.53-3.59-2.89l-1.98,2.98c-37.92-48.37-1.86-113.28,57.96-108.88Z"/>
    <path class="cls-9" d="M719.35,682.31h-125.91v-11.99h124.41c2.37,0,1.3,9.85,1.5,11.99Z"/>
    <path class="cls-9" d="M715.35,595.41v11.99h-115.41c-2.22,0-2.22-11.99,0-11.99h115.41Z"/>
    <path class="cls-9" d="M698.36,744.24v11.99c-17.15.07-34.34-.09-51.5-.05-4.99.01-9.92,0-14.91,0-15.84-.03-31.69.1-47.51.05v-11.99h113.92Z"/>
    <path class="cls-5" d="M335.63,646.35c40.47,9.92,61.43,56.56,43.97,93.9-3.79-.49-8.95,1.2-11.99-1,14.69-29.19-.11-71.48-31.98-81.91v-10.99Z"/>
    <path class="cls-11" d="M379.6,740.25c-14.51,31.03-47.32,47.46-80.94,37.96-.95-6.44,8.9-2.52,7.99-8.99,23.85,3.82,49.91-8.01,60.95-29.97,3.04,2.19,8.2.5,11.99,1Z"/>
    <path class="cls-10" d="M620.42,283.75l2,3.45.02,294.62c.11,1.09-1.29.5-2.02.6-1.35-99.49,1.8-199.19,0-298.67Z"/>
    <path class="cls-6" d="M306.65,769.21c.9,6.47-8.94,2.55-7.99,8.99-12.2-3.45-16.81-6.99-25.98-14.98.2-4.2,5.13-3.5,7.99-4.99,7.33,5.85,16.7,9.5,25.98,10.99Z"/>
    <path class="cls-1" d="M529.49,732.25c-.14,6.72,9.98,3.29,15,5-.13.81.19,2.78,0,2.99-1.78,1.89-14.99-1.38-14.99,4-.14,0-1.17,1.04-2.46,1.08-3.94.12-8.81-.71-9.54-5.07-1.71-10.39,5.33-7.4,11.99-7.99Z"/>
    <path class="cls-8" d="M335.63,646.35v10.99c-1.57-.51-12.23-2.78-13.99-3v-9.99c5.71.42,8.34.61,13.99,2Z"/>
    <path class="cls-5" d="M263.68,753.23l1.98-2.98c-.13,2.35,1.61,2.55,3.59,2.89,1.58.27,5.14,1.18,4.42-1.91,2.03,2.31,4.61,5.09,6.99,6.99-2.86,1.49-7.79.79-7.99,4.99-5.68-4.95-4.61-4.4-8.99-9.99Z"/>
    <path class="cls-5" d="M564.46,744.24c1.48.04,6.85-.51,7.01.57v11.42c-2.34.05-4.69-.07-7.01,0v-11.99Z"/>
    <path class="cls-10" d="M620.42,277.76c2.97-1.09,3.23,4.91,0,4-.03-1.33.04-2.67,0-4Z"/>
    <path class="cls-1" d="M364.61,778.2v2c-1.6-.16-2.32.64-2-1.49-.08-1.07,1.62-.25,2-.51Z"/>
    <path class="cls-14" d="M394.09,226.82c.65.33.65.67,0,1v-1Z"/>
    <path class="cls-10" d="M460.54,309.73c.02.66-.03,1.33,0,2,.88,21.73-.65,43.67,0,65.43.14,2.49,2.51,2.5,4,3.49,16.93,11.26,40.94,25.73,58.96,34.96-4.79,10.68-19.58,20.06-30.46,23.99-29.42,10.65-45.42.08-69.47-13.01-14.93-20.44-23.36-32.64-20.98-59.93.61-7.01,4.59-18.77,7.99-24.97.53-.96,3.46-2.36,3-4.99,2.53-1.22,6.47-7.64,8.99-9.99,9.45-8.8,24.96-16.89,37.97-16.98Z"/>
    <path class="cls-12" d="M493.51,535.47c.07-1.99-.06-4.01,0-6h26.99c.06,1.66-.08,3.34,0,5,1.75,38.6,1.1,83.07,0,121.86-.07,2.32.05,4.68,0,7h-26.99c-.07-1.32.09-2.68,0-4-1.82-30.15-.12-64.32,0-94.89,0-.67,0-1.33,0-2,.04-8.95-.32-18.03,0-26.97Z"/>
    <path class="cls-12" d="M476.53,657.34c-.07,1.99.06,4.01,0,6h-26.99v-93.4c0-.7,1.67-1.35,2.5-1.5,2.12-.39,23.57-.81,24.49,0,.27.24-.28,2.75,0,3-.75,28.57,1.01,57.36,0,85.9Z"/>
    <path class="cls-12" d="M387.85,500.77c1.22-1.16,3.57-1.18,5.2-1.3l126.43.56c5.58,4.02,3.86,12.21-3.45,12.49h-122.95c-6.2-.02-9.77-7.43-5.22-11.75Z"/>
    <path class="cls-12" d="M435.56,611.39v51.94h-26.48c-2.32,0-1.54-16.79-1.55-19.52-.01-3.97-.02-7.88,0-11.9,0-2.94-.77-20.52,1.55-20.52h26.48Z"/>
    <path class="cls-1" d="M391.3,474.76l99.73-.23c8.75.49,8.75,12.54,0,13.02l-99,.03c-7.15-.73-7.81-11.27-.73-12.82Z"/>
    <path class="cls-10" d="M447.24,683.5l75.73-.17c6.21,1.18,5.73,11.76-.93,12.02l-73.97-.07c-5.43-1.04-5.95-9.46-.83-11.77Z"/>
    <path class="cls-9" d="M474.53,308.73l.16,63.77c3.94,1.66,7.86,3.77,11.53,5.95,10.95,6.53,29.82,20.11,40.55,24.39,5.46,2.18,6.54-2.3,8.02-7.41,2.86-9.91,3.51-22.62,1.7-32.76,1.42-.55,1.26-3.1.97-4.41-.35-1.59-2.31-7.68-3.97-6.57-.37-1.11-1.48-3.82-2-4.99,1.3-.51.95-1.89,1-3,2.47-.52,2.11,1.16,2.73,2.71,6.27,15.67,8.5,32.27,3.97,48.44-.77,2.73-4.7,13.06-6.7,14.3-3.16,1.95-5.6-1.74-8.08-2.92-8.38-4-16.75-8.61-24.8-13.17-5.29-2.99-27.95-14.32-28.83-19-.19-1.02.78-2.48.65-3.76-1.66-15.54-2.34-41.52-.89-57.06.4-4.3.42-4.25,4-4.49Z"/>
    <path class="cls-1" d="M387.89,525.77c.91-1.12,3.64-2.14,5.15-2.33,10.44-1.3,41.46-1.2,52.02.03,8.74,1.01,8.34,11.79,1.95,12.98l-54.99.08c-5.33-.21-7.22-6.94-4.14-10.75Z"/>
    <path class="cls-3" d="M520.49,534.47c3.98-.93,3.85,2.65,4.04,5.45,2.21,32.18,1.94,81.9-1.06,113.95-.28,3.01.64,2.6-2.98,2.46,1.1-38.79,1.75-83.26,0-121.86Z"/>
    <path class="cls-9" d="M402.58,366.66c-2.37,27.29,6.06,39.49,20.98,59.93,24.05,13.08,40.05,23.66,69.47,13.01,10.88-3.94,25.67-13.31,30.46-23.99.82.42,3.87.84,4,1.01-4.18,11.18-14.47,18.45-25.11,23.33-24.64,11.3-52.37,11.18-73.73-6.95-3.16-2.68-3.19-3.82-5.08-6.41-8.11-4.41-15.74-15.63-19.04-24.42-1.36-3.62-4.51-15.38-4.97-19.01-.37-3-.36-10.03-.03-13.06.25-2.26.34-3.46,3.05-3.45Z"/>
    <path class="cls-5" d="M476.53,571.43c.75.68,3.37-2.18,4,4.49,2.03,21.69,1.13,52.89.8,74.92-.05,3.57-.12,7.94-4.8,6.49,1.01-28.55-.75-57.34,0-85.9Z"/>
    <path class="cls-12" d="M411.57,695.3c-7.4-.84-7.91-9.17-3-11.99,2.41-1.39,16.21-1.45,19.43-.94,7.81,1.24,8.45,11.06,2.86,12.74-2.44.73-16.13.55-19.29.19Z"/>
    <path class="cls-3" d="M493.51,564.44c-.12,30.58-1.82,64.74,0,94.89-3.49.12-2.76.62-3-2.45-1.45-18.44-.99-42.39-.96-60.94.02-9.06-1.08-20.15,1.28-28.74.46-1.69.23-3.25,2.68-2.77Z"/>
    <path class="cls-9" d="M464.54,380.65c-1.49-.99-3.87-1.01-4-3.49-.65-21.76.89-43.7,0-65.43l4,2.5v66.43Z"/>
    <path class="cls-9" d="M532.48,342.69h-3c-1.24-2.57-3.51-4.29-5-7.99-.24-.6.29-1.95-.47-3.03s-2.21-.72-2.53-.97c-3.79-2.88-7.41-7.39-10.99-9.99-.89-.64-1.72-.8-2-1-2.4-1.73-6.51-3.09-8.99-4.99-.86-.66,2.09-1.09-3-2s-11.13-3.37-15.99-4c-.59-2.86,1.64-2.15,3.5-2.04,8.85.53,28.76,9.61,35.85,15.15,2.52,1.97,6.16,10.5,8.18,13.8,1.88,3.06,3.88,2.17,4.44,7.05Z"/>
    <path class="cls-9" d="M422.57,326.71c-.36-2.41.61-2.98,2.06-4.43,8.71-8.66,23.71-15.16,35.92-15.55.05.99-.04,2,0,3-13.01.09-28.52,8.18-37.97,16.98Z"/>
    <path class="cls-3" d="M493.51,535.47c-.32,8.94.04,18.02,0,26.97-2.52.56-2.1-1.27-2.5-2.95-1.42-6.01-1.22-14.36-.56-20.58.24-2.26.36-3.46,3.05-3.44Z"/>
    <path class="cls-9" d="M413.57,336.7c.46,2.64-2.47,4.03-3,4.99-2.89-5.28,1.39-4.22,3-4.99Z"/>
    <path class="cls-3" d="M532.48,342.69c.04.32.01.68,0,1-.05,1.1.31,2.49-1,3-.46-1.03-1.38-2.71-2-4h3Z"/>
    <path class="cls-10" d="M321.64,654.34c1.76.21,12.42,2.48,13.99,3,31.86,10.43,46.66,52.72,31.98,81.91-11.05,21.95-37.11,33.78-60.95,29.97-9.28-1.48-18.65-5.13-25.98-10.99-2.38-1.9-4.96-4.68-6.99-6.99-34.72-39.5-2.57-103.05,47.96-96.89ZM315.44,666.62c-20.42,2.19-35.13,17.96-41.03,36.9-1.83,5.88-5.93,16.42,3.79,16.81,6.61.26,6.02-10.8,8.28-16.73,5.04-13.24,15.44-23.08,29.76-25.18,6.41-.94,14.82,2.58,13.32-7.52-.98-6.63-8.73-4.86-14.14-4.28Z"/>
    <path class="cls-3" d="M533.48,351.68c1.66-1.1,3.62,4.98,3.97,6.57.29,1.32.45,3.86-.97,4.41-.38-2.14-2.24-8.74-3-10.99Z"/>
    <path class="cls-3" d="M524.49,334.7c-1.73-.76-2.93-2.02-3-4,.32.24,1.77-.11,2.53.97s.23,2.42.47,3.03Z"/>
    <path class="cls-3" d="M496.51,312.72c5.09.9,2.14,1.34,3,2-1.46-.01-2.56-.57-3-2Z"/>
    <path class="cls-3" d="M510.5,320.71l-2-1c.28.2,1.11.35,2,1Z"/>
    <path class="cls-9" d="M315.44,666.62c5.41-.58,13.15-2.36,14.14,4.28,1.49,10.1-6.92,6.58-13.32,7.52-14.32,2.1-24.72,11.94-29.76,25.18-2.26,5.93-1.67,16.99-8.28,16.73-9.72-.39-5.62-10.93-3.79-16.81,5.9-18.94,20.6-34.71,41.03-36.9Z"/>
  </g>
</svg>