<?xml version="1.0" encoding="UTF-8"?>
<svg xmlns="http://www.w3.org/2000/svg" viewBox="0 0 1024 1024">
  <defs>
    <style>
      .cls-1 {
        fill: #f1f1f1;
      }

      .cls-2 {
        fill: none;
        stroke: #303030;
        stroke-miterlimit: 10;
        stroke-width: 10px;
      }

      .cls-3 {
        fill: #e2e2e2;
      }

      .cls-4 {
        fill: #efefef;
      }

      .cls-5 {
        fill: #f6f6f6;
      }

      .cls-6 {
        fill: #d5d5d4;
      }

      .cls-7 {
        fill: #7f7373;
      }

      .cls-8 {
        fill: #dedfdf;
      }

      .cls-9 {
        fill: #343534;
      }

      .cls-10 {
        fill: #c6c6c6;
      }

      .cls-11 {
        fill: #303030;
      }

      .cls-12 {
        fill: #2e2e2e;
      }

      .cls-13 {
        fill: #fefefe;
      }

      .cls-14 {
        fill: #e9eae9;
      }

      .cls-15 {
        fill: #fcfcfc;
      }

      .cls-16 {
        fill: #dbdcdb;
      }

      .cls-17 {
        fill: #cfcfcf;
      }
    </style>
  </defs>
  <g id="_검은색_배경" data-name="검은색 배경">
    <rect class="cls-7" x="0" y="0" width="1024" height="1024"/>
  </g>
  <g id="_레이어_1" data-name="레이어 1">
    <polygon class="cls-14" points="411.28 477.2 412.69 518 423.36 541.28 469.62 541.28 595.05 542.6 638.61 547.52 648.97 515.2 649.55 472.98 411.28 477.2"/>
    <polygon class="cls-16" points="258.46 626.06 296.17 642.15 291.13 671.69 259.76 671.69 258.46 626.06"/>
    <path class="cls-11" d="M720.78,274.27c46.04-.93,80.14,38.63,72.95,83.96-9.7,61.14-88.82,81.45-127.14,32.69-36.08-45.91-4.36-115.46,54.19-116.65ZM748,328h-49.5c-2.38,0-1.3,9.87-1.5,12h51v-12ZM697,363h50.5c2.22,0,2.22-12,0-12h-50.5v12Z"/>
    <path class="cls-11" d="M445,269c11.56-.72,24.27.1,36,0,1,0,2,.04,3,0,3.07,4.05,6.43,6.63,7,12,1.17,10.97-.86,23.81,0,35-2.57,4.35-5.33,5.83-10.47,4.95-1.72-.3-2.5-1.57-3.53-1.95-4.07-5.99-2.8-11.36-2.01-18-1.04-1.17-7.48,5.92-8.56,6.97s-1.25,2.85-1.43,3.02c-.2.19-1.94.37-3.02,1.43-53.12,52.11-104.79,105.72-156.98,158.57-.77-.28-2.34.26-3.94-.52-.41-.2-6.73-5.17-7.06-5.48-.65-.62-1.2-2.79-2.48-4.01-2.13-2.04-8.66-9.03-10.52-9.99-.21-.11-.31-1.42-1.36-.93-1.1.26-1.23,1.57-1.64,1.93-.8.71-1.38,1.43-2,2-3.19,2.9-3.95,4.75-6,7-.28.3-2.82.24-3,2-6.48,4.2-16.9,17.02-23,23-.43.42-.59,1.6-1,2-16.38,16.1-34.75,31.67-50.07,49.43-6.31,5-11.42,1.14-13.93-5.43.27-.53-.24-2.7.46-3.99,3.96-7.26,12.58-14.41,18.51-20.53,25.57-26.41,52.37-51.66,78.05-77.97,8.51-3.94,20.52,19.12,26.43,18.55,9.05-6.2,15.85-15.77,23.52-23.58,41.9-42.61,84.34-84.7,126.03-127.47,1.19-1.22,3.51-1.97,4.99-3.51,1.86-1.94,5.08-5.92,6.01-8.49h-17.5c-4.81,0-7.66-6.91-6.3-11.29.49-1.58,2.96-2.54,2.8-4.71.86-.16,2.03.06,3,0Z"/>
    <path class="cls-2" d="M773.74,503.24c41.74-7.08,42.91,56.47.85,50.68-25.92-3.57-27.88-46.09-.85-50.68Z"/>
    <path class="cls-9" d="M261.64,385.15c2.1-.41,10.07,6.59,8.92,8.84l-39,40.06c-4.6,3.59-13.51-4.35-9-9l39.08-39.9Z"/>
    <path class="cls-9" d="M191,459c1.62-2.1,3.96-7.55,7.53-8.06.71-.1,7.5,6.16,7.5,7.56,0,1.59-5.02,6.17-6.54,7.53-.84.75-2.22.74-2.49.97-1.52-3.09-5.59-4.44-6-8Z"/>
    <path class="cls-1" d="M406,731c2.2,8.56,2.24,17.18,2,26-30.64.14-61.36.22-92,0-.97-6.51,1.91-12.92,0-19h-29.5c-.33,0-5.44,3.38-5.52,3.71-.97,3.98.99,10.71-.98,15.29-1.82-.14-2.68-.72-4-1,.59-4.7-.83-11.07.02-15.48.47-2.42,3.65-3.54,2.98-6-.79-2.91-6.8.36-6-3.52,44.24-.87,88.74-.06,133,0Z"/>
    <path class="cls-1" d="M574,554c-4.33,6.14-2.02,5.27-1.1,10.61.76,4.42,1.4,8.88,1.1,13.39-28.98.05-58.02.09-87,0v-16.01c-5.9,1.17-34.32-1.92-36.83,2.17-1.08,1.76.42,10.94-.17,13.83-2.7-.03-5.96-.99-7-1-1.79-8.14-.77-15.87,0-24,43.68-.42,87.49,1,131,1Z"/>
    <path class="cls-4" d="M409,686v25c-30.31.04-60.69.09-91,0v-25c30.31-.06,60.69-.09,91,0Z"/>
    <path class="cls-1" d="M713,642v26c-25.62.27-51.37.18-77,0,.43-7.74-1.01-15.28-1-23,0-1,0-2,0-3,25.97-.06,52.03-.25,78,0Z"/>
    <path class="cls-4" d="M377,596c-.84,2.51,2.71,7.77-.66,8.84-4.19,1.34-12.54-1.22-17.89-.87-12.01.77-12.11,7.47-11.46,18.03-22.04-.06-46.28,1.33-68,0,2.92-5.22-.16-12.36,2.55-16.96,1.7-2.89,5.13-1.74,5.46-2.05,1.09-1.03-2.72-5.31-2.01-6.99,30.05-1.17,61.78-.08,92,0Z"/>
    <path class="cls-15" d="M615,642c1.05,7.01.71,9.91,8.64,9.92,7.17,0,4.06-8.1,11.36-6.92,0,7.72,1.43,15.26,1,23-24.69-.17-49.33-.54-74-1-2.84-9.17.16-16.31,2-25,16.96-.37,34.03.06,51,0Z"/>
    <path class="cls-6" d="M685,757c3.02-7.66,2.68-11.26,2-19-.2-2.3.14-4.69,0-7,18.74.08,37.53-.25,56.27.23,14.04,4.26,12.01,23.17-2.01,25.53s-40.45.17-56.26.24Z"/>
    <path class="cls-10" d="M406,731c21.65.03,43.35-.02,65,0v15.5c0,5.33-7.75,9.77-12.61,10.39-14.4,1.82-35.19.04-50.39.11.24-8.82.2-17.44-2-26Z"/>
    <path class="cls-3" d="M406,642v25c-20.98.03-42.02.05-63,0v-25c20.98.08,42.02-.03,63,0Z"/>
    <path class="cls-1" d="M687,731c.14,2.31-.2,4.7,0,7-10.83.16-21.7-.2-32.54-.04-6.23.09-13.63,1.12-19.94,1.12-8.14,0-4.64-1.7-12.26,1.71-1.27.57-3.48-.42-4.38.78-1.93,2.59-.38,11.83-.88,15.42-18.61-.07-37.42.59-56,0-.62-2.19.96-4.74.88-6.56-.09-2.07-2.28-3.62-1.75-5.73.27-1.07,5.91-5.77,6.91-6.17,5.47-2.2,14.06.52,19.46.55,3.22.01,6.81-.91,10.09-.88,4.38.04,16.01,1.89,18.83-.11,4.26-3.03-3.91-4.79-3.42-7.1,24.98-.08,50.02-.11,75,0Z"/>
    <path class="cls-10" d="M409,686c17.56.05,41.95-2,58.55-.05,1.01.12,3.45.46,3.45,1.55v23.5c-20.65.02-41.35-.03-62,0v-25Z"/>
    <path class="cls-17" d="M409,622c1.96-8.75,1.19-17.45-1-26,15.4.08,35.69-1.63,50.39.11,17.3,2.05,15.91,23.23,3.88,25.66-17.75.48-35.53.15-53.27.23Z"/>
    <path class="cls-10" d="M571,687c20.6.74,41.39-.54,62.01,0-.14,8,.58,16.08-1.05,23.95-19.97.13-39.98,0-59.95.05l-1-23v-1Z"/>
    <path class="cls-15" d="M582,597v26c-18.63.25-37.36.05-56,0,1.53-8.47-.87-17.26,0-26,18.65-.07,37.35-.06,56,0Z"/>
    <path class="cls-15" d="M408,596c2.19,8.55,2.96,17.25,1,26-20.65.1-41.35.06-62,0-.65-10.56-.55-17.26,11.46-18.03,5.34-.34,13.69,2.21,17.89.87,3.37-1.08-.18-6.33.66-8.84,10.32.03,20.68-.06,31,0Z"/>
    <path class="cls-6" d="M577,509c-.6,3.39,1.62,1.4,4.11,1.6,2.23.18,6.27,1.4,7.39,1.4h26c1.77,0,6.71,1.97,9.06,1.87.45-.02,7.19-2.43,8.44-2.87v23.01c-19.65.01-39.35-.04-59,0l1-25c1,.01,2,.02,3,0Z"/>
    <path class="cls-14" d="M549,687c-.13,0-1.14.9-2.42,1.04-2.44.28-5.12-.24-7.59-.05v23.01c-16.98-.04-34.01.03-51,0v-25l61,1Z"/>
    <path class="cls-15" d="M687,738c.68,7.74,1.02,11.34-2,19-22.65.1-45.35.09-68,0,.5-3.59-1.05-12.83.88-15.42.9-1.2,3.11-.22,4.38-.78,7.61-3.41,4.11-1.7,12.26-1.71,6.31,0,13.71-1.03,19.94-1.12,10.84-.16,21.71.21,32.54.04Z"/>
    <path class="cls-3" d="M431,642c13.32.05,26.68-.03,40,0v25c-13.32.03-26.68-.05-40,0v-25Z"/>
    <path class="cls-4" d="M526,597c-.87,8.74,1.53,17.53,0,26-12.98-.04-26.08.45-39.01-.51,2.28-6.39,2.22-12.25,2.01-18.98-.06-1.92-1.99-4.79-.04-6.05,1.76-1.14,31.96-.44,37.05-.46Z"/>
    <path class="cls-17" d="M713,668v-26c12.06.11,40.02-4.79,40.02,13.5,0,17.27-28.34,12.38-40.02,12.5Z"/>
    <path class="cls-14" d="M612,731c-.49,2.31,7.68,4.08,3.42,7.1-2.81,2-14.44.15-18.83.11-3.28-.03-6.87.89-10.09.88-5.4-.02-13.99-2.75-19.46-.55-1,.4-6.64,5.1-6.91,6.17-.53,2.11,1.66,3.66,1.75,5.73.08,1.82-1.5,4.37-.88,6.56-4.93-.16-10.45.42-15.2-1.3-12.47-4.54-11.46-23.32,3.66-24.74,18.82-1.77,43.05.1,62.54.04Z"/>
    <path class="cls-15" d="M318,686v25c-12.66-.04-25.53-.9-38-1,.45-3.85-.67-8.84.02-12.48.54-2.86,4.04-3.81,3.99-6-.03-1.55-2.63-3.34-2.01-5.52,11.98-.07,24.02.02,36,0Z"/>
    <path class="cls-15" d="M317,642v25c-12-.05-24.11-1.05-36-1,1.05-5.29-1.99-11.54-1.01-16.51.64-3.24,5.84-2.99,5.01-7.49,10.61.37,21.38-.07,32,0Z"/>
    <path class="cls-15" d="M553,687c.13,0,1.13,1.02,2.42,1.04,5.19.09,10.4-.14,15.58-.04l1,23c-10.98.02-22.02.02-33,0v-23.01c2.47-.2,5.14.32,7.58.05,1.27-.14,2.29-1.04,2.42-1.04,1.33-.02,2.67,0,4,0Z"/>
    <path class="cls-15" d="M611,553v25c-8.98.04-18.02-.02-27,0v-25c8.98-.03,18.02-.04,27,0Z"/>
    <path class="cls-15" d="M280,757c1.97-4.59.01-11.32.98-15.29.08-.33,5.19-3.71,5.52-3.71h29.5c1.91,6.08-.97,12.49,0,19-11.55-.08-24.72.89-36,0Z"/>
    <path class="cls-10" d="M606,598c.49,0,1.99-1.01,3.45-1.01,7.52.02,15.05,0,22.55,0v23.5c0,.7-1.67,1.35-2.5,1.5-6.02,1.1-16.69-.25-23.5,0,1.04-8.06-1.85-16.39,0-24Z"/>
    <path class="cls-4" d="M343,642v25c-8.65-.02-17.35.04-26,0v-25c8.65.05,17.35-.03,26,0Z"/>
    <path class="cls-15" d="M444,534c-.03-2.18-.23-4.75.66-6.78.59-1.34,2.21-1.39,2.75-2.27.99-1.61,1.58-6.95,5.09-6.95h34.5v16c-14.32-.02-28.69.12-43,0Z"/>
    <path class="cls-1" d="M431,642v25c-8.32.03-16.68-.01-25,0v-25c8.32.01,16.68-.03,25,0Z"/>
    <path class="cls-8" d="M606,598c-1.85,7.61,1.04,15.94,0,24-7.23.27-14.6.89-22,1,.24-2.13.13-2.24-2-2v-24c8.03.02,16.47.98,24,1Z"/>
    <path class="cls-15" d="M450,578c.59-2.89-.91-12.07.17-13.83,2.51-4.1,30.93-1,36.83-2.17v16.01c-12.32-.04-24.69.13-37.01,0Z"/>
    <path class="cls-14" d="M564,642c-1.84,8.69-4.84,15.83-2,25-9.84-.19-24.73,1.93-23.76-13.25.9-14.05,16.05-11.54,25.76-11.75Z"/>
    <path class="cls-10" d="M611,553c6.98.03,14.02-.02,21,0v25c-6.98.02-14.02-.03-21,0v-25Z"/>
    <path class="cls-15" d="M503,642c2.1-.02,18.96-.44,19.01.51-2.85,8.52-2.37,15.97-.02,24.48-6.32-.03-12.68.06-19,0v-25Z"/>
    <path class="cls-4" d="M505,731l-1,25c-4.66-.03-11.24.63-15.53,0-1.46-.21-1.63.59-1.48-1.5.53-7.8,2.92-15.58,2.01-23.51,5.32,0,10.68,0,16.01,0Z"/>
    <path class="cls-16" d="M285,596c-.72,1.68,3.09,5.96,2.01,6.99-.33.31-3.76-.84-5.46,2.05-2.7,4.6.38,11.73-2.55,16.96-8.37-.51-16.25-4.18-14.81-14.23,1.65-11.51,11.53-11.4,20.81-11.77Z"/>
    <path class="cls-15" d="M505,731c5.32,0,10.68,0,16,0-2.47,8.3-2.96,14.69,0,22.99l-1,2c-4.81.49-10.99.03-16,0l1-25Z"/>
    <path class="cls-14" d="M503,642v25c-4.99-.04-10.01.03-15,0v-25c4.99-.03,10.01.04,15,0Z"/>
    <path class="cls-3" d="M443,553c-.77,8.13-1.79,15.86,0,24-4.67-.04-9.23,1.71-14,1v-25c4.65-.03,9.35.05,14,0Z"/>
    <path class="cls-3" d="M273,731c-.81,3.88,5.2.61,6,3.52.67,2.46-2.52,3.58-2.98,6-.85,4.42.57,10.79-.02,15.48-2.43-.51-3.2.15-5.96-1.55-1.53-.94-6.04-6.65-6.04-7.95v-15.5c2.99-.04,6.01.06,9,0Z"/>
    <path class="cls-14" d="M584,553v25c-3.33,0-6.67,0-10,0,.3-4.51-.34-8.97-1.1-13.39-.92-5.33-3.23-4.46,1.1-10.61,2.35,0,6.49-.99,10-1Z"/>
    <path class="cls-14" d="M272,686c.63,6.39,4.18,14.49,1.27,20.79-.91,1.97-3.73,1.69-3.27,4.21-2-.05-4.01.04-6.01,0v-25.01c2.66-.05,5.35.07,8.01,0Z"/>
    <polygon class="cls-1" points="530.5 670.07 761.62 676.82 758.4 730.6 713 722.75 560.05 721.23 525.8 720.02 530.5 670.07"/>
    <path class="cls-4" d="M282,686c-.61,2.18,1.98,3.97,2.01,5.52.05,2.19-3.45,3.15-3.99,6-.69,3.64.43,8.63-.02,12.48-2.69-.02-6.27,1.09-10,1-.46-2.52,2.36-2.24,3.27-4.21,2.91-6.3-.65-14.4-1.27-20.79,3.32-.08,6.68.02,10,0Z"/>
    <path class="cls-5" d="M635,642c0,1,0,2,0,3-7.31-1.18-4.19,6.93-11.36,6.92-7.92,0-7.59-2.91-8.64-9.92,6.65-.02,13.35.02,20,0Z"/>
    <path class="cls-14" d="M571,687v1c-5.18-.1-10.39.13-15.58.04-1.29-.02-2.29-1.04-2.42-1.04,4.04-1.62,10.26-1.28,14.62-1.07,1.76.08,3.2,1.07,3.38,1.07Z"/>
    <path class="cls-10" d="M582,621c2.13-.24,2.24-.13,2,2-.67,0-1.33,0-2,0v-2Z"/>
    <path class="cls-4" d="M521,754c.06.18,1.5.41.99,1.99-.65.06-1.34-.06-1.99,0l1-2Z"/>
    <path class="cls-12" d="M574,509c-3.64-.05-6.89-.27-10.46-1.04-40.3-2.63-85.35,3.64-125.08.08-34.43-3.09-37.48-56.94-1.51-62.59,59.16,2.29,122.94-4.59,181.6-.49,23.63,1.65,39.71,25.88,27.45,47.05-3.07,5.3-15.06,16-21.5,16h-40c-1.4,0-4.74.96-7.5,1-1,.02-2,.01-3,0ZM488,464c-8.32.07-16.68-.07-25,0,1.67-3.02-7.63-2.28-8.01-2-.16.12.1,1.44,0,2-1.33.02-2.67-.02-4,0-8.68.14-16.99-2.79-21.2,6.31-2.15,4.64-2.43,7.71,0,12.39,4.05,7.79,11.8,6.99,19.2,7.3,22.54.96,46.3-.07,69,0,12.32.04,24.68.04,37,0,9.65-.03,19.35.07,29,0,10.93-.08,25.08,1.17,35.5,0,16.94-1.9,16.78-24.19.5-27,8.21-1.74.81-3.74-.23-8.77-9.26-.39-29.3-6.02-23.77,9.77-3.99.05-8.01-.03-12,0-.15-2.22.41-3.27-.95-5.55-6.8-11.41-20.49-6.27-21.05,5.55-2.33,0-4.67,0-7,0s-4.67,0-7,0c.9-5.67-1.48-3.84-6.01-4v4c-3,0-6.3-1.01-9.99-1,.34-5.49-5.55-5.33-8.95-6.55-6.02-2.17-3.75-.74-9.48-1.47-2.92-.38-6.22-2.65-10.08-2.77-1.58-.05-13,.85-13.56,1.24-1.51,1.06-2.11,8.39-1.94,10.56Z"/>
    <path class="cls-15" d="M455,464c2.66-.04,5.34.02,8,0,8.32-.07,16.68.07,25,0,1.67-.01,3.33.01,5,0,1,0,2,0,3,0,7.32-.04,14.68.02,22,0v26c-22.7-.07-46.46.96-69,0,2.41-8.77,4.98-17.04,2-26,1.33-.02,2.67.02,4,0Z"/>
    <path class="cls-14" d="M620,463c16.29,2.82,16.45,25.11-.5,27-10.42,1.17-24.57-.08-35.5,0-.42-8.52.58-17.55,0-26,3.99-.03,8.01.05,12,0,7.06-.09,17.11-2.19,24-1Z"/>
    <path class="cls-14" d="M532,463c3.69-.01,7,1.01,10,1,2,0,4,0,6,0,2.33,0,4.67,0,7,0v26c-12.32.04-24.68.04-37,0v-26c4.86-.02,9.14-.99,14-1Z"/>
    <path class="cls-13" d="M562,464c7.32-.02,14.68.05,22,0,.58,8.45-.42,17.48,0,26-9.65.07-19.35-.03-29,0v-26c2.33,0,4.67,0,7,0Z"/>
    <path class="cls-1" d="M451,464c2.98,8.96.41,17.23-2,26-7.4-.32-15.15.49-19.2-7.3-2.43-4.68-2.15-7.75,0-12.39,4.21-9.09,12.52-6.16,21.2-6.31Z"/>
    <path class="cls-9" d="M532,463c-4.86.01-9.14.98-14,1-7.32.02-14.68-.04-22,0l-.51-4.01c-2.19-.04-2.7,2.19-2.49,4.01-1.67.01-3.33-.01-5,0-.17-2.16.43-9.49,1.94-10.56.56-.39,11.98-1.28,13.56-1.24,3.86.11,7.16,2.39,10.08,2.77,5.72.74,3.46-.7,9.48,1.47,3.39,1.23,9.29,1.06,8.95,6.55Z"/>
    <path class="cls-9" d="M596,464c-5.53-15.79,14.52-10.16,23.77-9.77,1.04,5.03,8.44,7.03.23,8.77-6.89-1.19-16.94.91-24,1Z"/>
    <path class="cls-9" d="M584,464c-7.32.05-14.68-.02-22,0,.57-11.82,14.25-16.96,21.05-5.55,1.36,2.28.79,3.33.95,5.55Z"/>
    <path class="cls-9" d="M542,464v-4c4.52.16,6.9-1.67,6,4-2,0-4,0-6,0Z"/>
    <path class="cls-9" d="M455,464c.09-.56-.17-1.88,0-2,.38-.28,9.68-1.02,8.01,2-2.66.02-5.34-.04-8,0Z"/>
    <path class="cls-12" d="M493,464c-.21-1.82.3-4.05,2.49-4.01l.51,4.01c-1,0-2,0-3,0Z"/>
    <polygon class="cls-11" points="429 513.5 429 497.9 411.28 477.2 412 516 429 513.5"/>
    <polygon class="cls-11" points="648.97 515.2 650.1 476.39 633.17 499.69 632 511 648.97 515.2"/>
    <polygon class="cls-11" points="246.27 646.47 246 616 264.02 635.85 264 647.5 246.27 646.47"/>
    <polygon class="cls-11" points="770.39 654.92 770.39 744.42 752.84 721.77 753.02 655.5 770.39 654.92"/>
    <polygon class="cls-11" points="538.24 653.75 537.21 743.87 518.97 743.64 520.06 653.75 538.24 653.75"/>
    <path class="cls-11" d="M416,508c4.69-2.19,13,.99,13,5.5v20.5c4.99.03,10.01-.04,15,0,14.31.12,28.68-.02,43,0,28.65.05,57.35.05,86,0,19.65-.03,39.35.02,59.01,0v-23.01c1.66-.59,1.7-2.47,2.69-3.06,3.51-2.08,9.64-.95,12.31,2.06,2.58,2.9,1.81,4.64,2,8,1.3,23.55-.11,49.18,0,73,.04,8.63-.3,17.38,0,26,.07,1.99-.06,4.01,0,6.01l90.38.12c25.36,1.72,40.06,29.2,24.86,50.6-4.19,5.89-14.37,13.27-21.73,13.27h-92.5c-.2,6.3.27,12.7,0,19,0,.15-1.07,1.12-1.09,2.46-.08,5.1,5.27,3.42,9.09,3.54,6.18.19,12.84-1.01,18-1,2,0,4.01-.06,6,0,.67.02,1.33,0,2,0,5.78.02,12.75.94,19,1,2.33.02,4.67-.04,7,0,17.18.3,39.23-3.86,52,10,7.62,8.26,10.17,20.49,6.72,31.22-1.36,4.22-4.52,6.73-5.71,10.78h145.99c.2.33,4.08,1.3,5.76,4.74,2.04,4.17.45,4.91.24,8.27-2.23,2.95-4.33,5.36-8.45,5.05l-789.53-.57c-2.5-2.42-5.79-4.4-5.02-8.48.2-.32-.14-2.71.46-4,1.52-3.28,3.82-5.06,7.54-5h133.99c-1.08-3.69-4.33-5.94-5.79-9.71-1.02-2.62-1.93-6.99-2.19-9.81-2.38-26.08-1.24-66.76-.02-93.48.18-3.93-.12-9.63,5-11,2.11-.56,6.42,0,8.39,1.11,1.28.72,4.61,5.51,4.61,6.39v19.5c4.5-.13,9.05.18,13.55,0,1.44-.06,2.98-1,3.45-1.01,11.89-.05,24,.95,36,1,8.65.04,17.35-.02,26,0,20.98.05,42.02.03,63,0,8.32-.01,16.68.03,25,0,13.32-.05,26.68.03,40,0v-25c-13.32-.03-26.68.05-40,0-8.32-.03-16.68.01-25,0-20.98-.03-42.02.08-63,0-8.65-.03-17.35.05-26,0-10.62-.07-21.39.37-32,0s-19.85-1.34-28.35-9.15c-5.03-4.62-6.53-11.68-10.65-16.85-.08-1.63-.08-3.37,0-5,.55-10.97,1.43-11.67,6-21,.13-.27-.13-.73,0-1,4.97,1.02,5.67-5.39,7.26-6.74,1.02-.86,12.26-4.06,14.23-4.27h138.51c.04-2.98-.06-6,0-8.99.19-9.64-.08-19.35,0-29,.07-7.8-.53-16.34,0-24,.27-3.87-.25-6.01,4-8ZM443,553c-4.65.05-9.35-.03-14,0v25c4.77.71,9.33-1.04,14-1,1.04,0,4.3.97,7,1,12.31.13,24.68-.04,37,0,28.98.09,58.02.05,87,0,3.33,0,6.67,0,10,0,8.98-.02,18.02.04,27,0,6.98-.03,14.02.02,21,0v-25c-6.98-.02-14.02.03-21,0-8.98-.04-18.02-.03-27,0-3.51.01-7.65,1-10,1-43.51,0-87.32-1.42-131-1ZM285,596c-9.27.36-19.15.26-20.81,11.77-1.44,10.06,6.43,13.72,14.81,14.23,21.72,1.33,45.96-.06,68,0,20.65.06,41.35.1,62,0,17.74-.08,35.53.26,53.27-.23,12.03-2.43,13.42-23.61-3.88-25.66-14.69-1.74-34.99-.03-50.39-.11-10.32-.06-20.68.03-31,0-30.22-.08-61.95-1.17-92,0ZM526,597c-5.08.02-35.29-.68-37.05.46-1.95,1.27-.02,4.14.04,6.05.21,6.73.27,12.58-2.01,18.98,12.94.96,26.04.48,39.01.51,18.64.05,37.37.25,56,0,.67,0,1.33,0,2,0,7.4-.11,14.77-.73,22-1,6.81-.25,17.48,1.1,23.5,0,.83-.15,2.5-.8,2.5-1.5v-23.5c-7.5,0-15.04.01-22.55,0-1.46,0-2.96,1.01-3.45,1.01-7.53-.02-15.97-.98-24-1-18.65-.06-37.35-.07-56,0ZM503,642c-4.99.04-10.01-.03-15,0v25c4.99.03,10.01-.04,15,0,6.32.05,12.68-.03,19,0-2.35-8.51-2.84-15.96.02-24.48-.05-.95-16.92-.53-19.01-.51ZM562,667c24.67.46,49.31.83,74,1,25.63.18,51.38.27,77,0,11.68-.12,40.02,4.77,40.02-12.5,0-18.29-27.96-13.39-40.02-13.5-25.97-.25-52.03-.06-78,0-6.65.02-13.35-.02-20,0-16.97.06-34.04-.37-51,0-9.7.21-24.86-2.3-25.76,11.75-.97,15.18,13.91,13.06,23.76,13.25ZM272,686c-2.66.07-5.35-.05-8.01,0v25.01c1.99.04,4.01-.05,6.01,0,3.73.09,7.31-1.02,10-1,12.47.1,25.34.96,38,1,30.31.09,60.69.04,91,0,20.65-.03,41.35.02,62,0v-23.5c0-1.1-2.44-1.43-3.45-1.55-16.6-1.95-40.99.1-58.55.05-30.31-.09-60.69-.06-91,0-11.98.02-24.02-.07-36,0-3.32.02-6.68-.08-10,0ZM549,687l-61-1v25c16.98.03,34.02-.04,51,0,10.98.02,22.02.02,33,0,19.97-.05,39.99.08,59.95-.05,1.64-7.87.92-15.95,1.05-23.95-20.61-.54-41.41.74-62.01,0-.18,0-1.62-.99-3.38-1.07-4.36-.2-10.58-.54-14.62,1.07-1.33,0-2.67-.02-4,0ZM276,756c1.32.28,2.18.86,4,1,11.28.89,24.45-.08,36,0,30.64.22,61.36.14,92,0,15.19-.07,35.99,1.7,50.39-.11,4.86-.61,12.61-5.06,12.61-10.39v-15.5c-21.65-.02-43.35.03-65,0-44.26-.06-88.76-.87-133,0-2.99.06-6.01-.04-9,0v15.5c0,1.31,4.51,7.01,6.04,7.95,2.76,1.7,3.53,1.04,5.96,1.55ZM505,731c-5.32,0-10.68,0-16.01,0,.91,7.93-1.48,15.71-2.01,23.51-.14,2.09.02,1.29,1.48,1.5,4.3.62,10.87-.04,15.53,0,5.01.03,11.19.49,16,0,.65-.07,1.34.05,1.99,0,.5-1.58-.93-1.81-.99-1.99-2.96-8.31-2.47-14.69,0-22.99-5.32,0-10.68,0-16,0ZM561,757c18.58.59,37.39-.07,56,0,22.65.09,45.35.1,68,0,15.81-.07,41.85,2.19,56.26-.24s16.05-21.27,2.01-25.53c-18.75-.48-37.53-.15-56.27-.23-24.98-.11-50.02-.08-75,0-19.49.06-43.72-1.81-62.54-.04-15.12,1.42-16.13,20.2-3.66,24.74,4.75,1.73,10.26,1.14,15.2,1.3Z"/>
    <polygon class="cls-1" points="633.01 686.99 650 687 651.18 711.94 631.95 710.95 633.01 686.99"/>
  </g>
</svg>