<?xml version="1.0" encoding="UTF-8"?>
<svg xmlns="http://www.w3.org/2000/svg" viewBox="0 0 1024 1024">
  <defs>
    <style>
      .cls-1 {
        fill: #2b2b2b;
      }

      .cls-2 {
        fill: #fdfdfe;
      }

      .cls-3 {
        fill: #d9dada;
      }

      .cls-4 {
        fill: #2f2f2f;
      }

      .cls-5 {
        fill: #e9eaea;
      }

      .cls-6 {
        fill: #7f7373;
      }

      .cls-7 {
        fill: #303030;
      }

      .cls-8 {
        fill: #ddddde;
      }

      .cls-9 {
        fill: #55b065;
      }

      .cls-10 {
        fill: #f6f7f7;
      }

      .cls-11 {
        fill: #dedfe0;
      }

      .cls-12 {
        fill: #aeaeae;
      }

      .cls-13 {
        fill: #fdfdfd;
      }
    </style>
  </defs>
  <g id="_검은색_배경" data-name="검은색 배경">
    <rect class="cls-6" x="0" y="0" width="1024" height="1024"/>
  </g>
  <g id="_레이어_1" data-name="레이어 1">
    <path class="cls-7" d="M506.5,222.82c-2.73-.67-2.39,1.84-2,3.48.75,3.15,7.12,6.08,6,.52,4.37,4.3,8.65,8.68,12.99,12.99-4.18.15-6.55,5.44-11,1.48-1.13-1-.89-6.29-6.02-3.01-3.28,2.1,3.03,7.29,1.62,9.54-2.14,3.41-7.73-1.04-12.53,3.53-1.98,1.89-1.79,3.31-3.02,5.01-.93,1.29-4.97,1.54-2.8,5.23.19.33,5.65,4.09,6.31,4.2,4.64.78,11.8-1.21,17.5.44,3.52,1.02,8.53,8.36,11.77,6.33,1.2-.75.37-4.5,5.94-2.13,2.39,1.02,1.71,4.25,2.78,6.27,1.8,3.4,4.21.8,6.94.96,1.63.1,6.9,1.61,7.48,1.06.33-.32-.26-2.68.02-2.97.9-.94,10.52,4.34,8.99-2l13.99,13.98c-3.41-1.34-4.94,4-5.58,4.06-.45.04-7.97-2.01-8.68-2.29-2.67-1.06-5.03-7.16-7.76-8.28-2.4-.99-10.29,2.21-14.23,1.34-3.5-.77-7.05-7.83-9.22-7.87-5.49.64-2.26,10.23-.07,12.19,1.53,1.37,3.25-.21,4.84.07s5.76,3.51,6.71,2.79c.31-.24.82-6.57,4.99-4.55,5.49,2.66-3.07,7.69,2.63,11.43,4.58,3,6.61-1.91,11.38-.88.33,6.4-9.55,4.99-2.55,12.03,3.74,3.76,8.8.63,12.88,3.11,3.27,1.98.52,6.93,7.14,6.83,1.06-.02,8.22-1.19,8.58-1.44,1.72-1.19.58-5.21.93-5.56.64-.65,8.2,1.94,7-3.99,5,5,10.01,9.96,14.99,14.98l-3.99,1.48c2.09,2.72,6.44,11.97,7.98,2.51,1.23,1.22,3.3,1.95,4,4-1.49.7-3.44-.46-1.79,4.28.86,2.47,10.32,10.41,13.78,7.7,2.04,2.5,5.14,4.51,7.56,6.97,1.06,1.08,1.25,2.83,1.43,3.02-6.24,7.54-7.7,1.19-13.5.93-3.48-.16-6.09,2.16-9.47,2.06-.52-2.33,2.42-2.96,2.86-4.69.57-2.23-3.31-7.81-4.89-9.76-1.33-1.65-4.62-3.46-4.76-3.72-.89-1.61.7-4.39-1.18-6.33-2.29-2.35-13.94-2.74-16.62-.57-1.54,1.24-1.04,3.66-1.95,5.04-1.55,2.35-4.83,1.11-3.19,7.3,1.45,5.51,7.01,4.61,8.81,7.18s5.84,8.62,7.46,11.52c1.43,2.55,3.94,11.17,4.43,11.55,1.19.91,6.58,1.48,8.94,3.05,3.64,2.43,5.06,8.76,11.31,7.2.81-.2,4.45-2.68,4.75-3.3,1.07-2.2-3.37-1.26-4.35-3.76-1.11-2.84,1.01-6.13,3.77-5.8.52.06,2.6,6.13,8.92,2.15,2.35-1.48.65-11.74,7.66-12.06,2.33,2.32,4.67,4.68,6.99,6.99-4.77,4.96.37,8.02,2,2,5.36,5.33,10.79,10.61,15.99,15.98-3.8-1.32-5.63,3.68-6.54,3.96-3.2.97-4.9-5.03-6.92-6.97-.25-.23-4.84-3.71-5.27-3.99-10.6-6.81-3.43,4.11-3.28,6.56.2,3.23-2.02,8.54-.97,12.44h-2.99c.56-4.82-.19-9.52-5.07-11.5-1.72-.7-10.92.68-13.92-.48-.79,4.14,3.47,4.6,5.54,6.93,1.48,1.67,2.15,4.43,3.47,5.52,2.02,1.67,5.14,1.13,5.79,1.7.45.39.45,2.96,1.27,4.21.93,1.44,2.81,1.87,3.9,3.11,2.09,2.39,4.32,7.73,8.34,6.39,1.49-.5,1.99-3.22,3.7-4.35,1.24-.83,4.51-1.19,4.83-1.67.61-.92-.19-3.47.13-3.87,1.58-1.95,2.08,1.88,2.63,2.02,7.49,1.89,3.81-12.39,4.36-13,.44-.48,5.93.34,5-3,1.99,2.05,5.73,3.61,6,6.99-.81.37-2.83,1.11-3.01,1.69.95,2.76-4.47,10.27-.4,11.17,4.94,1.1,4.46-3.51,4.86-6.92l8.54-4.95c.31,6.21-.22,6.53,4.03,11.5,1.94,2.27,5.06,5.56,6.96,7.48-5.33-1.46-8.85,3.65-13.6,4.01-1.86.14-1.2-1.75-2.59-2.33-6.86-2.87-7.83,3.75-13.78,3.32l6.78,15.69c3.25,2.82,3.52,9.73,7.92,11.06,2.75.83,6.34-.3,9.21,1.79.43.32,7.26,7,7.53,7.46,2.83,4.89-.39,8.46,8.48,10.5,5.89,1.35,5.76-.39,7-5.94l-5.94-3.08c1.9-4.71,8.62-3.16,8.99-3.51,2.25-2.18-6.28-13.67-8.33-15.65-.63-.61-2.5-.7-3.71-1.76-5.91-5.17-2.26-9.73-2.95-16.55,32.07,31.82,65.2,63.72,97.4,95.92,2.09,2.09,7.4,4.32,6.39,8.25-.48,1.88-2.86,2.62-3.86,3.71,1.18-8.02-10.59,3.4-5,4.99-3.67,3.82-7.11,7.36-10.99,10.99,1.06-1.06-.88-3.11-1.99-1.99s.93,3.05,1.99,1.99c-2.08,1.95-12.59,12.9-14.5,12.74l-24.98-24.72c-2.51-1.04-1.22,3.98-1.49,4.99v288.68c7.3-1.08,14.6-1.14,21.98-1,10.91.2,21.95,1.87,32.97.99-.96-3.21-2.57-4.8-2.99-8.49-.65-5.71-.83-25.53.23-30.74,2.97-14.59,24.93-14.29,27.51,1.01.98,5.85.92,22.65.24,28.73-.35,3.13-1.54,5.78-3,8.48,28.85.49,58-.95,86.7.74l2.23,4.26c-.14.13.26,2.74-.92,3.55l-813.47.44c-3.36-.48-10.04,1.11-12.58-.9-3.04-2.41-1-8.09,2.09-8.09h97.43c-2.09-10.21-3.49-25.92-1.76-36.22,2.68-15.95,24.88-15.59,27.5,0,1.57,9.33,1.22,27.8-2.76,36.21l43.97,1.01c-.18-90.55.22-181.15,0-271.7-.03-10.64.03-21.32,0-31.96l-31.97,31.96c-1.35.21-3.8,3.94-6.55,1.05l-29.48-29.47c-1.38-1.56-1.36-3.58,0-5.1,99.47-98.31,197.15-198.65,297.33-296.12,2.56-2.5,10.66-14.43,14.47-12.53,2.34,1.17,7.69,8.27,10.02,10.54ZM492.35,224c-4.56-2.66-13.81,12.87-12.82,13.8,3.39-1.29,9.18,4.26,11.35,3.84,1.44-.27,6.81-5.98,6.5-8.09-.12-.82-4.56-9.28-5.03-9.55ZM492.51,282.76c.62-4.04-5.35-.79-7.5-.91-3.65-.21-7.88-6.96-7.33-10.32.55-3.42,7.53-11.74,4.92-15.08-.89-1.14-4.61-.8-4.07-3.14.45-1.97,6.77-.82,5.99-4.5-7.93,2.1-6.17-12.94-13.59-7.09-2.36,1.87-2.32,16.6-.48,19.65,1.24,2.04,5.46,2.44,5.07,5.41-2.9-.59-6.05,2.98-8.33,2.78-7.32-.65,2.12-10.04-8.26-5.95-3.34,1.32-6.3,10.21-7.58,10.97-1.79,1.06-9.75-2.85-10.69,2.84-.31,1.87,5.23,7.38,5.72,9.07,1.04,3.6-2.75,8.12,1.09,12.57,1.1,1.28,3.9.97,5.62,2.62,2.28,2.2,1.4,6.21,5.44,7.56.59,2.25-7.79,7.55-10.08,3.82-1.66-2.71.85-5.34-4.91-4.32.23,6.99,5.74,9.24,1,16.48-1.08,1.66-11.7,9.23-4,8.48-1.89,1.86-4.32,4.34-6,5.99-11.82,3.25-4.41-4.81.96-8.6-2.88-5.02-7.96-6.5-5.96-13.67.25-.89,5.57-3.12,3.5-5.71-6.55.78-2.63,8.6-11.48,5,.93,12.41-8.41,2.1-13.03,6.49-2.22,2.11.95,4.8-.38,6.55s-5.74.05-6.39,2.55c-.39,1.5,2.37,3.53-2.16,4.98-4.92,1.57-6.12-5.05-9.56,2.39-.56,1.22-.6,7.57-2.57,2.6-.5-1.27-.11-2.75-1.62-3.59-6.36-3.53-12.54.11-12.3,7.55.09,2.77,2.77,4.93,3,8.06.11,1.48-1.16,7.87-1.83,8.8-.85,1.17-2.77.15-3.88.78-.96.55-1.72,4.62-2.93,4.86-2.86.55-6.44-3.34-9.42,1.4-1.35,2.15.53,3.49-.33,5.48-.79,1.8-3.74,2.45-4.28,3.3-1.2,1.88-.62,6.73-3.21,9.3-1.31,1.3-3.46,1.11-4.14,2.07-.47.64-1.73,5.75-1.87,6.91-.42,3.58,6.79-.36,8.57-.53,7.28-.68,6.96,8.26,12.38,11.96-9.01,8.95-17.96,18.02-26.98,26.97-.81-2.9-.54-6.2-4.24-5.83-6.85.67-5.23,6.82-8.17,8.91-1.79,1.27-4.28.79-6.32,1.68-1.89.82-2.84,2.98-4.29,3.72-1.32.67-3.82.4-3.97.53-.2.18,1.13,3.05.61,5-2.01,7.63-11.11,3.11-7.51-6.24.39-1.02,2.22-.49,1.97-2.22-1.26-8.48-12.18-.57-13.04-1.53.38-7.74-2.99-3.41-5.4-4.07-.91-.25-2.67-6.13-8.31-1.63-5.22,4.17-.78,21.28-3.76,25.7-2.37,3.52-3.75-1.01-4.02-1.05-3.89-.63-2.66,2.58-3.79,3.74-.57.59-2.28.53-3.22,1.24-4.3,3.23,2.22,4.59,3.57,6.48,1.12,1.57.79,5.03,2.53,5.52,2.23.63,10.47-5.58,12.8-4.94s1.91,5.87,2.81,6.75c.69.68,6.26,1.51,7.78,2.21-3.33,3.12-3.25,4.61-7.99,6.99-4.23,2.12-12.85,4.08-17.52,4.03-3.49-.04-6.12-3.65-10.46-1.02.9,2.48,4.19,2.88,5.26,5.21.99,2.15.5,6.52.74,6.75s5.66,0,6.99,1.01c-1.69,1.77-3.77,2.76-4,3l-6.56.97c-1.04,1.41.66,4.93,2.56,4.03-1.03,1.5-2.64,2.7-2.98,4.52-.7,3.72.05,10.25-.02,14.46-1.68,98.48,1.26,197.17,0,295.67h95.93v-236.24c0-.83,2.42-1.77,3.45-1.55l274.95-.03c1.97-.84,3.01,1.97,3.4,2.07v236.74c2.65.05,5.34-.07,7.99,0,.67.02,1.33-.01,2,0,30.28.46,60.65-.35,90.94,0v-300.67s-1.44-4.04-1.44-4.04c-75.5-73.99-148.6-150.63-224.92-223.68-5.83-5.58-10.52-12.05-17.11-16.91-.99-.18-2.48,1.25-3.35,1.9ZM502.5,242.81h-4.99v1.99h4.99v-1.99ZM539.48,291.74h-2.99s1.51,6.99,1.51,6.99c3.04.26.9-5.42,1.48-6.99ZM440.55,305.74c-.94-.91-4.64,2.15-3.99,3.99.94.91,4.64-2.15,3.99-3.99ZM589.44,316.72c-2.29-2.29-6.75,2.38-2.48,3.98,3.44,1.29,2.91-3.55,2.48-3.98ZM340.62,401.63c-1.24-1.44-5.83,5.24-4.99,5.98,4.96.69,5.43-1.59,4.99-5.98ZM331.56,418.54c.22-.18,2.13-5.12,2.08-5.4-.31-1.73-4.47-2.03-6.04-1.06-2.13,1.32,1.36,8.57,3.96,6.46ZM349.62,415.61c-1-1.02-4.01,1.95-2.99,2.99s4.01-1.95,2.99-2.99ZM308.65,428.59c.45-5.18-7-1.78-4.99,0h4.99ZM727.33,454.57h-3.99v1.99h3.99v-1.99ZM736.33,476.53c-.89-5.69-9.09-2.72-6.99,2l6.99-2ZM255.69,475.55c-1.66-1.66-4.55,1.72-3.99,3.99,2.26.56,5.65-2.32,3.99-3.99ZM747.32,477.54h-2.99s0,3.99,0,3.99c2.35.74,2.74-1.81,2.99-3.99ZM268.68,482.54c-1.58-1.58-4.57,1.4-2.99,2.99s4.57-1.4,2.99-2.99ZM244.7,483.53c-.41-.44-10.1.32-11.99,0,1.81,2.46-2.61,15.4-2.01,15.97.65.62,4.97-1,4.04,4.49-.57,3.39-4.17,2.7-4.83,3.73-.71,1.1-2.42,4.08-3.25,5.49-.89,1.52-3.23,7.68-.44,8.28,1.84-1.99,8.66-4.17,9.57-5.39,1.16-1.54.64-3.77,1.48-5.52,3.44-7.2,9.65-4.72,16.42-5.06-.93-7.2.44-11.02,3.97-16.94-2.55-.23-3.66-3.39-6.45-3.12s-2.77,4.56-5,4.07-1.24-5.7-1.51-5.99ZM755.1,485.74c-.35-.63-5.18-2.84-5.77-2.21.21,2.2-.24,5.18-2.72,5.87s-9.05-5.08-8.34,1.62c.35,3.34,4.25,2.25,5.82,3.74,1.21,1.15,1.48,5.8,4.72,5.79,1.32,0,2.83-1.18,2.51-2.53s-3.97-.69-3-3.5c8.16-2.34,6.16.28,10.09,3.4,1.65,1.31,7.31,3.9,6.87,5.99-.26,1.21-8.97,6.05-7.5,10.51,4.92,5.14,14.74,23.08,23.55,18.57,1.84-.94,1.79-3.78,2.92-5.07,1.22-1.39,3.41-1.28,4.55-2.45,1.01-1.04.97-3.22,1.76-3.79s2.54-.01,2.73-.2c1.06-1.04-1.56-3.75-1.7-4.65-.25-1.6,1.28-3,.25-5.31-.19-.42-6.33-6.1-6.75-6.29-2.37-1.07-5.3-.42-7.56-1.38-1.48-.63-1.5-2.75-2.85-3.18-1.64-.53-6.1.13-6.37-.16-.57-.6,1.81-6.11-3.27-8.25-3.61-1.52-6.89,1.18-8.78-.16-1.77-1.26-.3-4.82-1.15-6.37ZM216.72,506.5c2.28,2.28,6.31-4.12,2.48-4.98-2.45-.55-3.12,4.34-2.48,4.98ZM217.71,511.51c-1.09-1.09-3.08.9-1.99,1.99s3.08-.9,1.99-1.99ZM754.32,511.51h-3.99s0,1.48,0,1.48c1.05,1.57,2.14,1.74,3.98,1.51v-2.99ZM215.72,525.48c6.58,1.34,9.49-2.56,5.47-7.98-3.43-1.03-6.19,5.15-5.47,7.98ZM210.72,518.5c-1.09-1.09-3.08.9-1.99,1.99s3.08-.9,1.99-1.99ZM630.41,601.4v-6s-265.8,0-265.8,0v230.74c4.36-1.97,7.72-.13,11.99,0,25.92.81,52.01-.6,77.94,0v-45.95c0-.33-6-.49-6-2.5v-26.97c0-.11,1.39-1.5,1.5-1.5h42.47v-20.98c-14.66-.33-30.32-9.14-34.69-23.75-1.24-4.15-3.36-15.07.02-17.89,2.61-2.18,12.19.14,15.69,1.19,8.56,2.55,12.62,7.95,18.99,13.49v-24.97c-13.33-1.06-27.66-8.65-33.17-21.28-2.09-4.79-6.06-20.32.72-21.64,8.52-1.65,21.88,4.01,27.94,9.97,3.37,3.31,5.05,8.34,7.44,11.35,2.11,2.66,2.05-1.41,2.99-2.9,6.32-10,19.11-19.25,31.57-18.54,7.1.41,5.99,6.53,5.5,12.61-1.46,18.15-18.19,28.75-35.01,30.43v24.97c5.09-5.36,11.45-11.45,18.77-13.7,4.85-1.49,16.44-4.7,17.26,2.16,2.58,21.51-15.29,38.36-36.03,38.52v20.98c13.16.19,26.37-.24,39.54-.04,1.88.03,3.62,1.02,4.43,1.04-.72,4.83,1.47,26.42-1.24,28.73-1.16.99-5.75.95-5.75,1.24v45.95c2.99.04,6.01-.06,8.99,0,27.94.55,55.99-.42,83.94,0v-224.75ZM491.51,667.32c-2.74-13.74-12.53-24.78-26.97-25.96-.16,14.54,12.68,26.43,26.97,25.96ZM527.48,641.36c-13.57,1.68-23.88,12.65-25.97,25.96,13.8-.25,27.18-11.27,25.97-25.96ZM491.51,719.26c-3.69-12.79-12.66-24.4-26.97-24.96-.54,14.85,12.68,25.85,26.97,24.96ZM528.49,694.29c-12.82.15-25.09,12.27-25.98,24.97,13.62.25,26.64-10.73,25.98-24.97ZM536.48,757.23h-79.94v14.98h79.94v-14.98ZM529.49,780.2h-65.45c-3.35,0-.31,16.34-.5,18.98h65.95v-18.98ZM812.02,784.35c-2.73.52-4.26,2.78-4.68,5.41-.83,5.27-.63,20.34-.06,25.91,1.1,10.69,10.46,9.39,11.92-.06.63-4.05.57-23.99-.69-27.15-1.04-2.61-3.64-4.65-6.49-4.1ZM196.46,785.34c-2.1.57-4.33,4.27-4.66,6.4-.76,4.8-.72,26.69,1.91,29.94,2.37,2.93,5.7,2.94,7.91-.15,2.83-3.96,2.77-24.35,2.14-29.86-.44-3.83-2.98-7.49-7.29-6.33ZM529.49,807.17h-66.95v15.48c0,.11,1.39,1.5,1.5,1.5h65.45v-16.98Z"/>
    <path class="cls-11" d="M747.32,537.47c3.7-.44,3.47,4.18,4.21,4.78.51.42,2.83.28,4.86,1.64,1.06.71,11.35,11.04,11.98,12.04.74,1.17,1.15,2.09.94,3.52v265.7c-7.39-.14-14.68-.07-21.98,1v-288.68Z"/>
    <path class="cls-11" d="M913.2,830.14c.39-.37,9.58-.38,10.57.97.3.41-.65,9.96-1.15,10.04l-802.38.03c-5.53-1.57-15.23-.98-20.07-2.89-2.48-.98-1.18-2.11-1.36-4.15l813.47-.44c1.18-.81.78-3.42.92-3.55Z"/>
    <path class="cls-1" d="M621.42,274.76c17.74-.52,46.74-2.06,63.5-.05,1.07.13,2.3-.04,3.01.98.94,32.59.18,65.32.44,97.95-2.97-1.09-3.23,4.91,0,4,.06,5.31-.14,10.68,0,15.98.03,1-.05,2,0,3l-8.54,4.95c-.41,3.42.07,8.02-4.86,6.92-4.07-.91,1.35-8.41.4-11.17.18-.59,2.2-1.33,3.01-1.69.47-.21,1.75.62,2.04-.62.61-2.54-.09-9.09-.04-12.36.19-13.96.05-27.99,0-41.95-.03-7.98.02-16,0-23.98-16.3.24-32.67-.31-48.97,0-2.99.06-6.01-.04-9,0,.11,4.31-.14,8.68,0,12.99.2,6.1-1.11,6.94,3,11.99-3.46,2.7-12.92-5.23-13.78-7.7-1.65-4.74.29-3.58,1.79-4.28,1.79-.84.96-9.35,1-11.99.08-5.69-.8-41.27,1.1-42.84,1.94-.33,3.93-.05,5.89-.11ZM681.37,283.75c-.13-.08.49-2.41-1.42-2.09l-57.53.09v26.97c3.32.04,6.67-.06,9.99,0,15.15.25,31.94.73,46.97,0,.66-.03,1.34.05,2,0,0-7.31,0-14.67,0-21.98,2.09-1.09,2.02,3.72,3.99,1.99.57-.5.69-4.38-.12-4.89-.89-.56-3.32.23-3.87-.09Z"/>
    <path class="cls-3" d="M696.36,398.63c.13,1.16.59,2.19,1.43,3.02,40.74,40.53,82.14,80.4,122.47,121.36,1.01,2.35-3.55.94-5.57,2.4-1.28.93-2.36,4.37-3.89,6.1-9.87,11.24-22.43,21.28-32.52,32.47-3.97,1.91-5.01-4.34-8.97-4.53.21-1.43-.2-2.34-.94-3.52-.63-1-10.91-11.32-11.98-12.04-2.03-1.36-4.34-1.22-4.86-1.64-.74-.6-.5-5.23-4.21-4.78.26-1-1.02-6.03,1.49-4.99l24.98,24.72c1.91.16,12.42-10.8,14.5-12.74,3.88-3.62,7.33-7.17,10.99-10.99,1.61-1.68,3.25-3.1,5-4.99,1-1.09,3.38-1.83,3.86-3.71,1.02-3.93-4.3-6.16-6.39-8.25-32.2-32.2-65.33-64.1-97.4-95.92-1.65-1.63-3.37-3.35-5-4.99-1.9-1.93-5.02-5.22-6.96-7.48-4.25-4.96-3.72-5.28-4.03-11.5-.05-.99.03-2,0-3l7.99,4.99Z"/>
    <path class="cls-11" d="M621.42,274.76l1.64-4.86,76.31-.13c1.02,3.16-1.85,2.42-2.08,4.43-.19,39.64.51,79.31.09,118.95-.02,1.69.64,4.44-1.02,5.48l-7.99-4.99c-.14-5.31.06-10.67,0-15.98-.01-1.33.01-2.66,0-4-.25-32.63.5-65.36-.44-97.95-.71-1.02-1.94-.86-3.01-.98-16.76-2.01-45.76-.47-63.5.05Z"/>
    <path class="cls-3" d="M614.42,317.72c-.04,2.64.79,11.14-1,11.99-.69-2.05-2.76-2.78-4-4-1.32-1.3-2.69-2.68-4-4-4.98-5.02-9.99-9.99-14.99-14.98-4.66-4.65-9.33-9.33-13.99-13.98-1.33-1.33-2.67-2.67-4-4-.33-.33-.67-.67-1-1l-13.99-13.98c-3.99-3.99-7.99-8-11.99-11.99-1.33-1.33-2.66-2.67-4-4-.33-.33-.67-.67-1-1-3-2.98-5.99-6.01-8.99-8.99-2.66-2.65-5.32-5.34-7.99-7.99-4.34-4.31-8.63-8.68-12.99-12.99-.76-.74-1.26-2.27-2-3,5.34-4.93,5.46-5.02,11-.51l94.92,94.4Z"/>
    <path class="cls-3" d="M252.69,554.45c-9.77,1.09-22.63-1.48-31.98,0l31.97-31.96c.04,10.64-.02,21.32,0,31.96Z"/>
    <path class="cls-7" d="M305.38,272.94c9.41-2.76,11.48,12,3.54,13.64-9.88,2.04-10.74-11.53-3.54-13.64Z"/>
    <path class="cls-7" d="M265.39,387.84c9.4-2.83,13.3,11.76,3.34,13.37-8.88,1.43-10.44-11.23-3.34-13.37Z"/>
    <path class="cls-7" d="M756.32,403.62c.42,3.65-1.11,6.01-4,7.99-1.16,0-2.3,1.05-4.02.58-7.99-2.2-6.32-15.18,3.47-13.57,3.76.62,3.39,3.59,4.55,5Z"/>
    <path class="cls-7" d="M706.07,243.01c12.95-3.82,11.01,15.84,0,12.57-5.16-1.53-5.17-11.05,0-12.57Z"/>
    <path class="cls-7" d="M205.73,648.35c2.28,5.55,1.04,11.46-6,10.99-.25-.19-2,.12-2.94-.51-5.81-3.93-1.75-14.06,6.2-12.25.97.22,2.18,1.75,2.74,1.78Z"/>
    <path class="cls-8" d="M205.73,648.35c.15,0,1.77-1.7,2.9-.94.27.18,2.85,5.22,2.95,5.67,1.28,6.08-5.79,9.73-11.19,8.26-1.07-.29-.57-1.94-.66-2.01,7.04.47,8.27-5.43,6-10.99Z"/>
    <path class="cls-4" d="M506.5,222.82c.43.42,1.57.58,2,1,.74.73,1.24,2.25,2,3,1.12,5.56-5.25,2.63-6-.52-.39-1.63-.74-4.14,2-3.48Z"/>
    <path class="cls-5" d="M752.32,411.61c2.89-1.98,4.42-4.34,4-7.99.67.81,5.06.27,2.48,5.97-2.02,4.46-4.69,2.01-6.47,2.02Z"/>
    <path class="cls-2" d="M739.33,525.48v300.67c-30.28-.35-60.65.46-90.93,0v-2c0-78.23,0-156.51,0-234.74-.51-.51-8.19.51-10,0-.39-.11-1.42-2.92-3.4-2.07l-274.95.03c-1.02-.22-3.45.72-3.45,1.55v236.24h-95.93c1.26-98.5-1.68-197.19,0-295.67l241.46-237.66,237.19,233.67ZM422.57,480.54c10.36,14.71,20.93,23.35,33.5,35.93,11.98,11.99,23.95,24,35.89,36.04,4.53,2.99,3.8-1.42,4.55-2.05,22.28-18.8,53.4-48.73,72.97-70.4,41.1-45.5-19.75-105.34-65-63.98-1.93,1.77-6.18,8.82-8.33,8.44-1.16-.21-10.28-10.47-12.72-12.33-35.71-27.12-84.7,6.05-72.14,49.14,2.29,7.85,6.78,12.82,11.27,19.2Z"/>
    <path class="cls-13" d="M630.41,601.4v224.75c-27.94-.42-55.99.55-83.94,0v-44.45c-.34-3.34,4.84-1.86,5.05-3.06,1.43-8.07-1.19-20.25-.04-28.83-.32-2.18-6.65.43-7.01.42-.8-.02-2.55-1.01-4.43-1.04-13.17-.2-26.38.23-39.54.04v-20.98c20.74-.16,38.61-17.01,36.03-38.52-.82-6.86-12.42-3.65-17.26-2.16-7.32,2.25-13.67,8.35-18.77,13.7v-24.97c16.81-1.68,33.55-12.28,35.01-30.43.49-6.07,1.6-12.2-5.5-12.61-12.46-.72-25.25,8.53-31.57,18.54-.94,1.49-.88,5.57-2.99,2.9-2.39-3.01-4.07-8.05-7.44-11.35-6.07-5.95-19.42-11.62-27.94-9.97-6.78,1.32-2.81,16.84-.72,21.64,5.51,12.63,19.84,20.22,33.17,21.28v24.97c-6.36-5.53-10.43-10.93-18.99-13.49-3.51-1.04-13.08-3.37-15.69-1.19-3.38,2.82-1.26,13.74-.02,17.89,4.38,14.62,20.03,23.42,34.69,23.75v20.98h-42.47c-.11,0-1.5,1.39-1.5,1.5v26.97c0,2.01,6,2.16,6,2.5v45.95c-25.93-.6-52.03.81-77.94,0v-225.75s253.81,1,253.81,1Z"/>
    <path class="cls-3" d="M739.33,525.48l-237.19-233.67-241.46,237.66c.07-4.21-.68-10.74.02-14.46.34-1.82,1.95-3.02,2.98-4.52,1.09-1.58,2.7-3.6,4-4.99.22-.24,2.31-1.22,4-3,5.02-5.28,10.15-10.54,14.99-15.98,4.74-2.38,4.67-3.87,7.99-6.99,15.11-14.17,29.27-29.37,43.97-43.95,9.02-8.95,17.97-18.02,26.98-26.97,23.05-22.89,45.86-46.1,68.95-68.92,1.68-1.66,4.11-4.13,6-5.99,5.32-5.24,12-10.53,17.51-15.96,9.84-9.67,24.46-27.51,34.45-34.99.87-.65,2.36-2.07,3.35-1.9,6.59,4.86,11.28,11.33,17.11,16.91,76.32,73.05,149.42,149.69,224.92,223.68l1.44,4.04Z"/>
    <path class="cls-8" d="M376.6,826.15c-4.27-.13-7.63-1.97-11.99,0v-230.74h265.81s0,5.99,0,5.99l-253.82-1v225.75Z"/>
    <path class="cls-4" d="M365.61,408.62c-5.42-3.69-5.1-12.64-12.38-11.96-1.78.17-8.99,4.11-8.57.53.14-1.16,1.41-6.26,1.87-6.91.69-.95,2.83-.77,4.14-2.07,2.59-2.56,2.02-7.41,3.21-9.3.54-.85,3.49-1.5,4.28-3.3.87-1.99-1.02-3.32.33-5.48,2.97-4.74,6.56-.85,9.42-1.4,1.21-.23,1.96-4.31,2.93-4.86,1.11-.64,3.03.39,3.88-.78.67-.93,1.94-7.32,1.83-8.8-.23-3.13-2.91-5.29-3-8.06-.24-7.44,5.94-11.08,12.3-7.55,1.51.84,1.11,2.32,1.62,3.59,1.97,4.97,2.01-1.39,2.57-2.6,3.44-7.44,4.65-.82,9.56-2.39,4.53-1.44,1.77-3.47,2.16-4.98.65-2.5,5.11-.87,6.39-2.55s-1.84-4.44.38-6.55c4.62-4.4,13.96,5.92,13.03-6.49,8.85,3.6,4.93-4.22,11.48-5,2.07,2.6-3.25,4.82-3.5,5.71-2,7.17,3.08,8.65,5.96,13.67-5.37,3.78-12.78,11.84-.96,8.6-23.09,22.82-45.9,46.04-68.95,68.92Z"/>
    <path class="cls-11" d="M638.41,589.41c1.81.51,9.49-.52,10,0,0,78.23,0,156.51,0,234.74-2.12-.24-2.24-.12-2,2-2.66-.07-5.34.05-8,0v-236.74Z"/>
    <path class="cls-4" d="M440.55,333.7c-7.69.74,2.92-6.83,4-8.48,4.74-7.24-.77-9.5-1-16.48,5.76-1.02,3.25,1.61,4.91,4.32,2.29,3.73,10.67-1.56,10.08-3.82-4.04-1.34-3.16-5.36-5.44-7.56-1.72-1.65-4.52-1.34-5.62-2.62-3.84-4.46-.06-8.97-1.09-12.57-.49-1.7-6.04-7.2-5.72-9.07.94-5.69,8.9-1.78,10.69-2.84,1.28-.76,4.24-9.65,7.58-10.97,10.38-4.09.95,5.3,8.26,5.95,2.28.2,5.42-3.37,8.33-2.78.39-2.97-3.83-3.37-5.07-5.41-1.85-3.04-1.89-17.78.48-19.65,7.41-5.85,5.66,9.19,13.59,7.09.79,3.68-5.54,2.53-5.99,4.5-.54,2.35,3.19,2.01,4.07,3.14,2.6,3.34-4.37,11.66-4.92,15.08-.54,3.36,3.68,10.12,7.33,10.32,2.16.12,8.12-3.14,7.5.91-9.99,7.47-24.61,25.32-34.45,34.99-5.52,5.42-12.2,10.71-17.51,15.96Z"/>
    <path class="cls-4" d="M338.63,435.59c-14.7,14.58-28.86,29.78-43.97,43.95-1.52-.71-7.09-1.54-7.78-2.21-.9-.89-.59-6.14-2.81-6.75-2.33-.64-10.58,5.57-12.8,4.94-1.74-.49-1.41-3.95-2.53-5.52-1.34-1.89-7.86-3.25-3.57-6.48.94-.71,2.65-.65,3.22-1.24,1.13-1.16-.1-4.37,3.79-3.74.27.04,1.65,4.57,4.02,1.05,2.98-4.42-1.46-21.53,3.76-25.7,5.64-4.5,7.41,1.38,8.31,1.63,2.41.67,5.78-3.67,5.4,4.07.86.96,11.78-6.95,13.04,1.53.26,1.73-1.58,1.2-1.97,2.22-3.59,9.35,5.5,13.87,7.51,6.24.52-1.95-.82-4.82-.61-5,.15-.13,2.64.15,3.97-.53,1.45-.74,2.4-2.89,4.29-3.72,2.04-.89,4.53-.41,6.32-1.68,2.94-2.09,1.32-8.23,8.17-8.91,3.7-.36,3.43,2.93,4.24,5.83Z"/>
    <path class="cls-4" d="M643.4,359.67c-7.01.32-5.31,10.58-7.66,12.06-6.31,3.98-8.4-2.09-8.92-2.15-2.75-.33-4.88,2.96-3.77,5.8.98,2.5,5.41,1.55,4.35,3.76-.3.63-3.95,3.1-4.75,3.3-6.25,1.56-7.67-4.78-11.31-7.2-2.36-1.57-7.75-2.15-8.94-3.05-.49-.37-3.01-9-4.43-11.55-1.63-2.9-5.64-8.93-7.46-11.52s-7.36-1.67-8.81-7.18c-1.63-6.19,1.64-4.94,3.19-7.3.91-1.38.41-3.8,1.95-5.04,2.69-2.17,14.33-1.78,16.62.57,1.88,1.93.29,4.72,1.18,6.33.15.26,3.43,2.07,4.76,3.72,1.58,1.95,5.45,7.52,4.89,9.76-.44,1.73-3.38,2.36-2.86,4.69,3.38.1,5.99-2.21,9.47-2.06,5.8.26,7.27,6.6,13.5-.93,2.13,2.14,6.05,5.06,8.99,7.99Z"/>
    <path class="cls-4" d="M699.36,415.61c1.63,1.65,3.35,3.36,5,4.99.69,6.82-2.96,11.38,2.95,16.55,1.21,1.06,3.08,1.15,3.71,1.76,2.05,1.98,10.58,13.47,8.33,15.65-.37.36-7.09-1.2-8.99,3.51l5.94,3.08c-1.24,5.55-1.12,7.29-7,5.94-8.87-2.04-5.65-5.6-8.48-10.5-.27-.46-7.1-7.14-7.53-7.46-2.86-2.09-6.45-.95-9.21-1.79-4.4-1.33-4.67-8.24-7.92-11.06l-6.78-15.69c5.95.42,6.92-6.19,13.78-3.32,1.39.58.72,2.48,2.59,2.33,4.76-.36,8.27-5.47,13.6-4.01Z"/>
    <path class="cls-10" d="M529.49,780.2v18.98h-65.95c.19-2.64-2.85-18.98.5-18.98h65.45Z"/>
    <rect class="cls-10" x="456.54" y="757.23" width="79.94" height="14.98"/>
    <path class="cls-4" d="M557.47,273.77c1.53,6.34-8.09,1.06-8.99,2-.28.3.31,2.66-.02,2.97-.57.54-5.85-.97-7.48-1.06-2.72-.17-5.13,2.44-6.94-.96-1.07-2.02-.39-5.26-2.78-6.27-5.57-2.37-4.75,1.38-5.94,2.13-3.24,2.02-8.26-5.31-11.77-6.33-5.7-1.65-12.86.33-17.5-.44-.66-.11-6.12-3.88-6.31-4.2-2.17-3.69,1.87-3.95,2.8-5.23,1.23-1.7,1.04-3.12,3.02-5.01,4.8-4.57,10.39-.12,12.53-3.53,1.41-2.25-4.9-7.44-1.62-9.54,5.13-3.28,4.89,2.01,6.02,3.01,4.46,3.96,6.82-1.32,11-1.48,2.67,2.65,5.33,5.34,7.99,7.99,1.06,3.82-3.96,3.87-4.02,6.45-.1,3.9,8.13,12.74,12.4,11.48,1.88-.55,1.42-2.59,1.61-3.95,1.18.22,2.73-.15,4,0,4,3.99,8,7.99,11.99,11.99Z"/>
    <path class="cls-4" d="M540.48,256.78c.33.33.67.67,1,1-.12,1.29.18,2.74,0,4-3.89-.73-6.28-6.19-1-4.99Z"/>
    <path class="cls-10" d="M529.49,807.17v16.98h-65.45c-.11,0-1.5-1.39-1.5-1.5v-15.48h66.95Z"/>
    <path class="cls-4" d="M755.1,485.74c.85,1.54-.62,5.11,1.15,6.37,1.89,1.34,5.17-1.36,8.78.16,5.08,2.14,2.69,7.66,3.27,8.25.27.28,4.73-.37,6.37.16,1.35.43,1.37,2.55,2.85,3.18,2.26.96,5.19.32,7.56,1.38.42.19,6.56,5.86,6.75,6.29,1.03,2.31-.5,3.72-.25,5.31.14.9,2.77,3.61,1.7,4.65-.19.19-1.97-.35-2.73.2s-.75,2.75-1.76,3.79c-1.15,1.17-3.33,1.06-4.55,2.45-1.13,1.28-1.08,4.13-2.92,5.07-8.81,4.51-18.63-13.43-23.55-18.57-1.47-4.47,7.24-9.31,7.5-10.51.45-2.09-5.22-4.68-6.87-5.99-3.93-3.12-1.93-5.74-10.09-3.4-.97,2.81,2.67,2.1,3,3.5s-1.18,2.52-2.51,2.53c-3.24.01-3.51-4.64-4.72-5.79-1.58-1.49-5.47-.4-5.82-3.74-.71-6.7,5.78-.9,8.34-1.62s2.92-3.67,2.72-5.87c.59-.63,5.42,1.58,5.77,2.21Z"/>
    <path class="cls-4" d="M590.44,306.73c1.2,5.93-6.36,3.34-7,3.99-.35.36.79,4.37-.93,5.56-.36.25-7.52,1.42-8.58,1.44-6.61.1-3.87-4.85-7.14-6.83-4.08-2.48-9.14.65-12.88-3.11-7.01-7.04,2.88-5.63,2.55-12.03-4.77-1.03-6.8,3.89-11.38.88-5.7-3.74,2.86-8.77-2.63-11.43-4.17-2.02-4.68,4.31-4.99,4.55-.95.72-5.08-2.5-6.71-2.79s-3.31,1.29-4.84-.07c-2.19-1.95-5.41-11.55.07-12.19,2.16.04,5.72,7.1,9.22,7.87,3.94.87,11.83-2.33,14.23-1.34,2.73,1.12,5.08,7.22,7.76,8.28.7.28,8.23,2.33,8.68,2.29.63-.05,2.17-5.4,5.58-4.06.33.33.67.67,1,1-.32,3.05.97,4.38,4,4,4.66,4.65,9.33,9.33,13.99,13.98ZM582.45,310.73c.58-.53-.03-6.02-.94-7.56-1.57-2.68-6.1-3.9-9.06-3.43.77,5.32-3.09,15.78,5.49,14.04,1.04-.21.14-2.54.56-2.95.62-.6,3.55.27,3.95-.09Z"/>
    <path class="cls-4" d="M672.38,388.64c.93,3.35-4.56,2.52-5,3-.56.61,3.13,14.89-4.36,13-.54-.14-1.04-3.96-2.63-2.02-.32.39.48,2.94-.13,3.87-.32.48-3.59.85-4.83,1.67-1.71,1.14-2.21,3.85-3.7,4.35-4.02,1.34-6.25-4-8.34-6.39-1.08-1.24-2.96-1.67-3.9-3.11-.82-1.26-.82-3.82-1.27-4.21-.66-.57-3.78-.03-5.79-1.7-1.32-1.09-1.98-3.85-3.47-5.52-2.07-2.34-6.33-2.79-5.54-6.93,3,1.16,12.2-.22,13.92.48,4.87,1.98,5.63,6.68,5.07,11.5h2.99c-1.06-3.9,1.16-9.21.97-12.44-.15-2.45-7.31-13.36,3.28-6.56.43.27,5.02,3.75,5.27,3.99,2.03,1.94,3.72,7.94,6.92,6.97.91-.27,2.74-5.27,6.54-3.96,1.29,1.33,2.68,2.63,4,4Z"/>
    <path class="cls-12" d="M631.41,334.7c1.64,1.4,4.11,4.19,6,5.99,14.41,13.8,27.14,29.69,42.97,41.95-.04,3.27.65,9.82.04,12.36-.3,1.24-1.57.41-2.04.62-.26-3.38-4-4.94-6-6.99-1.32-1.36-2.71-2.66-4-4-5.2-5.37-10.62-10.65-15.99-15.98-.67-.66-1.33-1.33-2-2-2.33-2.32-4.67-4.67-6.99-6.99-2.94-2.94-6.86-5.85-8.99-7.99-.18-.18-.37-1.94-1.43-3.02-2.42-2.46-5.53-4.47-7.56-6.97-4.11-5.05-2.8-5.89-3-11.99,3.29,0,6.53,2.89,8.99,4.99Z"/>
    <path class="cls-3" d="M544.48,750.23c.36.01,6.7-2.6,7.01-.42-1.15,8.57,1.46,20.76.04,28.83-.21,1.2-5.4-.29-5.06,3.06v44.45c-2.98-.06-6,.04-8.99,0v-45.95c0-.29,4.59-.25,5.75-1.24,2.71-2.3.53-23.89,1.24-28.73Z"/>
    <path class="cls-4" d="M244.7,483.53c.27.3-.71,5.51,1.51,5.99s2.21-3.81,5-4.07,3.89,2.89,6.45,3.12c-3.53,5.92-4.9,9.75-3.97,16.94-6.77.33-12.98-2.14-16.42,5.06-.84,1.76-.32,3.98-1.48,5.52-.92,1.22-7.73,3.41-9.57,5.39-2.78-.59-.45-6.76.44-8.28.83-1.41,2.54-4.39,3.25-5.49.66-1.03,4.26-.33,4.83-3.73.92-5.49-3.39-3.87-4.04-4.49-.6-.56,3.82-13.5,2.01-15.97,1.89.31,11.58-.45,11.99,0Z"/>
    <path class="cls-10" d="M812.02,784.35c2.85-.54,5.45,1.49,6.49,4.1,1.26,3.15,1.32,23.09.69,27.15-1.46,9.45-10.82,10.75-11.92.06-.57-5.57-.77-20.64.06-25.91.41-2.62,1.94-4.88,4.68-5.41Z"/>
    <path class="cls-5" d="M196.46,785.34c4.31-1.17,6.84,2.5,7.29,6.33.64,5.51.69,25.9-2.14,29.86-2.21,3.09-5.54,3.09-7.91.15-2.62-3.25-2.67-25.14-1.91-29.94.34-2.13,2.57-5.84,4.66-6.4Z"/>
    <path class="cls-9" d="M491.51,667.32c-14.29.47-27.13-11.42-26.97-25.96,14.44,1.18,24.23,12.22,26.97,25.96Z"/>
    <path class="cls-9" d="M491.51,719.26c-14.3.89-27.51-10.12-26.97-24.96,14.32.56,23.28,12.17,26.97,24.96Z"/>
    <path class="cls-9" d="M528.49,694.29c.66,14.24-12.36,25.22-25.98,24.97.89-12.7,13.16-24.82,25.98-24.97Z"/>
    <path class="cls-9" d="M527.48,641.36c1.21,14.69-12.17,25.72-25.97,25.96,2.09-13.31,12.4-24.28,25.97-25.96Z"/>
    <path class="cls-4" d="M492.35,224c.47.27,4.91,8.74,5.03,9.55.31,2.11-5.06,7.81-6.5,8.09-2.17.41-7.96-5.13-11.35-3.84-.99-.93,8.27-16.46,12.82-13.8Z"/>
    <path class="cls-4" d="M286.67,486.53c-4.84,5.44-9.97,10.7-14.99,15.98-1.33-1-6.74-.76-6.99-1.01s.25-4.61-.74-6.75c-1.07-2.33-4.36-2.73-5.26-5.21,4.33-2.63,6.97.99,10.46,1.02,4.67.05,13.29-1.91,17.52-4.03Z"/>
    <path class="cls-4" d="M215.72,525.48c-.72-2.82,2.04-9.01,5.47-7.98,4.02,5.42,1.11,9.32-5.47,7.98Z"/>
    <path class="cls-4" d="M605.43,321.71c1.3,1.32,2.68,2.7,4,4-1.54,9.46-5.89.21-7.98-2.51l3.99-1.48Z"/>
    <path class="cls-4" d="M331.56,418.54c-2.6,2.11-6.08-5.14-3.96-6.46,1.57-.97,5.73-.67,6.04,1.06.05.29-1.86,5.22-2.08,5.4Z"/>
    <path class="cls-4" d="M799.29,533.48c-5.59-1.6,6.18-13.02,5-4.99-1.75,1.9-3.38,3.31-5,4.99Z"/>
    <path class="cls-4" d="M736.33,476.53l-6.99,2c-2.1-4.72,6.1-7.69,6.99-2Z"/>
    <path class="cls-4" d="M267.68,505.51c-1.3,1.39-2.91,3.41-4,4.99-1.9.9-3.6-2.61-2.56-4.03l6.56-.97Z"/>
    <path class="cls-4" d="M340.62,401.63c.44,4.39-.02,6.68-4.99,5.98-.84-.74,3.75-7.42,4.99-5.98Z"/>
    <path class="cls-4" d="M539.48,291.74c-.58,1.57,1.56,7.25-1.48,6.99l-1.51-6.99h2.99Z"/>
    <path class="cls-4" d="M216.72,506.5c-.65-.65.03-5.54,2.48-4.98,3.83.87-.2,7.27-2.48,4.98Z"/>
    <path class="cls-4" d="M652.4,368.66c-1.63,6.02-6.77,2.96-2-2,.67.66,1.33,1.34,2,2Z"/>
    <path class="cls-4" d="M589.44,316.72c.43.43.96,5.27-2.48,3.98-4.27-1.6.19-6.27,2.48-3.98Z"/>
    <path class="cls-4" d="M255.69,475.55c1.66,1.66-1.72,4.55-3.99,3.99-.56-2.26,2.32-5.65,3.99-3.99Z"/>
    <path class="cls-4" d="M308.65,428.59h-4.99c-2.02-1.78,5.43-5.18,4.99,0Z"/>
    <path class="cls-4" d="M754.32,511.51v2.99c-1.84.23-2.93.06-3.98-1.51v-1.48s3.98,0,3.98,0Z"/>
    <rect class="cls-4" x="497.52" y="242.81" width="4.99" height="1.99"/>
    <path class="cls-4" d="M747.32,477.54c-.24,2.17-.63,4.72-2.99,3.99v-3.99s2.99,0,2.99,0Z"/>
    <path class="cls-4" d="M440.55,305.74c.65,1.84-3.05,4.89-3.99,3.99-.65-1.84,3.05-4.89,3.99-3.99Z"/>
    <path class="cls-4" d="M268.68,482.54c1.58,1.58-1.4,4.57-2.99,2.99s1.4-4.57,2.99-2.99Z"/>
    <rect class="cls-4" x="723.35" y="454.57" width="3.99" height="1.99"/>
    <path class="cls-4" d="M349.62,415.61c1.02,1.04-1.98,4-2.99,2.99s1.98-4,2.99-2.99Z"/>
    <path class="cls-4" d="M788.29,544.46c-1.06,1.06-3.11-.88-1.99-1.99s3.06.93,1.99,1.99Z"/>
    <path class="cls-4" d="M217.71,511.51c1.09,1.09-.9,3.08-1.99,1.99s.9-3.08,1.99-1.99Z"/>
    <path class="cls-4" d="M210.72,518.5c1.09,1.09-.9,3.08-1.99,1.99s.9-3.08,1.99-1.99Z"/>
    <path class="cls-3" d="M648.4,824.15v2c-.67-.01-1.33.02-2,0-.24-2.12-.12-2.24,2-2Z"/>
    <path class="cls-13" d="M631.41,316.72c16.3-.32,32.67.24,48.97,0,.01,7.98-.03,16,0,23.98h-42.97c-1.88-1.8-4.36-4.59-6-5.99v-17.98Z"/>
    <path class="cls-13" d="M632.41,308.73c-1.42-7.58-.97-15.28-1-22.97h47.96v22.97c-15.03.73-31.81.25-46.97,0Z"/>
    <path class="cls-11" d="M680.37,340.69c.05,13.96.19,28,0,41.95-15.83-12.27-28.56-28.15-42.97-41.95h42.97Z"/>
    <path class="cls-3" d="M632.41,308.73c-3.32-.06-6.67.04-9.99,0v-26.97l57.53-.09c1.91-.32,1.29,2.01,1.42,2.09v3c0,7.31,0,14.67,0,21.98-.66.05-1.33-.04-2,0v-22.97h-47.96c.03,7.69-.42,15.4,1,22.97Z"/>
    <path class="cls-8" d="M631.41,316.72v17.98c-2.46-2.11-5.71-4.99-8.99-4.99-.14-4.31.1-8.68,0-12.99,2.99-.04,6.01.06,9,0Z"/>
    <path class="cls-4" d="M681.37,283.75c.56.32,2.98-.47,3.87.09.81.51.69,4.39.12,4.89-1.97,1.73-1.9-3.08-3.99-1.99v-3Z"/>
    <path class="cls-7" d="M688.37,373.65c.01,1.33-.01,2.66,0,4-3.23.91-2.97-5.08,0-4Z"/>
    <path class="cls-7" d="M540.48,256.78c-5.28-1.2-2.89,4.26,1,4.99-.19,1.35.26,3.39-1.61,3.95-4.27,1.26-12.5-7.58-12.4-11.48.06-2.58,5.08-2.62,4.02-6.45,3,2.98,6,6.01,8.99,8.99Z"/>
    <path class="cls-7" d="M545.48,261.78c-1.26-.15-2.82.22-4,0,.18-1.26-.12-2.7,0-4,1.33,1.33,2.67,2.67,4,4Z"/>
    <path class="cls-7" d="M576.45,292.74c-3.03.38-4.31-.95-4-4,1.33,1.33,2.67,2.67,4,4Z"/>
    <path class="cls-12" d="M496.51,550.46c-.74.63-.02,5.03-4.55,2.05-11.94-12.03-23.91-24.05-35.89-36.04-12.58-12.58-23.15-21.22-33.5-35.93l73.94,69.92Z"/>
    <path class="cls-7" d="M582.45,310.73c-.4.36-3.33-.51-3.95.09-.42.41.48,2.74-.56,2.95-8.58,1.74-4.72-8.72-5.49-14.04,2.96-.46,7.49.76,9.06,3.43.91,1.55,1.52,7.03.94,7.56Z"/>
  </g>
</svg>