<?xml version="1.0" encoding="UTF-8"?>
<svg xmlns="http://www.w3.org/2000/svg" viewBox="0 0 1024 1024">
  <defs>
    <style>
      .cls-1 {
        fill: #e3e3e3;
      }

      .cls-2 {
        fill: #2f302f;
      }

      .cls-3 {
        fill: #2c2c2c;
      }

      .cls-4 {
        fill: #7f7373;
      }

      .cls-5 {
        fill: #fff;
        opacity: .5;
      }

      .cls-6 {
        fill: #f9fafa;
      }

      .cls-7 {
        fill: #303030;
      }

      .cls-8 {
        fill: #e0e0e1;
      }

      .cls-9 {
        fill: #373838;
      }

      .cls-10 {
        fill: #f9f9f9;
      }

      .cls-11 {
        fill: #f0f1f1;
      }

      .cls-12 {
        fill: #2e2f2f;
      }

      .cls-13 {
        fill: #333332;
      }

      .cls-14 {
        fill: #dcdcdc;
      }

      .cls-15 {
        fill: #fdfdfd;
      }
    </style>
  </defs>
  <g id="_검은색_배경" data-name="검은색 배경">
    <rect class="cls-4" x="0" y="0" width="1024" height="1024"/>
  </g>
  <g id="_레이어_1" data-name="레이어 1">
    <path class="cls-3" d="M412.57,321.71c-4.81-.36-.06,5.78-.06,7.49,0,2.1-2.84,4.66-1.99,7.97.31,1.21,3.95-.68,3.05,2.52-6.05,9.67-14.5,7.5-15.95,9.03-.31.33-.25,6.42-1.04,8.95-.08.26-1.09.66-.98,1.4l.98.59c-.33,3.67-.65,7.33-1,10.99l-.98,1.4.98.59c-1.24,10.25.34,19.26-10.44,25.05-1.85,1-4.36.79-4.55.92-2.12-.24-2.24-.13-2,2-6.38,2.37-3.41,9.2-3.95,14.94l48.2,13.88c15.02-13.35,25.62-30.56,37.28-46.72,1.98-2.75,7.08-7.35,8.29-9.69,2.67-5.17,3.44-17.37,5.67-23.3.54-1.44,13.4-19.75,14.46-20.5,8.17-5.85,12.18,10.99,14.74,17.19,1.7,4.12,2.72,9.52,4.23,13.25-.04,2.36-.67,3.46,2,3,1.85,4.58,2.7,9.74,5.56,13.92,7.9,11.56,27.25,33.06,37.38,43.54,1.54,1.59,9.65,10.04,10.64,10.24,1.78.35,6.7-2.15,10.37-1.77.28.03,3.42,3.21,3-1,4.02-.74,7.86-1.36,11.99-1-.13,1.01.89,2.82,1,4-5.2.79-12.91,4.28-18.99,4-.11,0-1.4-1.59-1.99-.99-.23.23.22,1.73,0,1.99-.07.08-1.56.07-2,0-1.96-.33-3.45-3.19-3,2-1.01.14-2.97.28-3.76-.22l-48.17-55.24c-4.91-6.37-7.75-15.82-10.02-23.45-.49-1.63,1.25-3.61-1.99-2.99-.06.99.06,2,0,2.99-.35,5.61.4,11.38,0,16.98-2.67-.84-2.91,2.28-1,4-.39,2.98-2.83,12.64-2.78,13.32.28,3.34,22.62,36.36,26.37,41.51,5.71,7.83,21.03,28.47,29.4,31.55,11.38,4.19,27.56-2.19,39.94-1.47,1.17.07,4.54,3.23,4-1,8.17-.46,15.63-1.87,23.98-2,.18,0,1.62,1.08,3.42,1.12,2.03.05,10.46-1.57,11.6-.71,2.3,1.75,1.85,11.17,1.96,14.12.07,1.92-1.01,4,2,3.45.04.66-.04,1.34,0,2,0,.12-.02,1.28,0,2,.01.33-.02.67,0,1,0,.11-.9.68-.76,1.33.35,1.64,1.66,5.41,3.76,4.67,1.6,3.63,2.81,6.03,4,9.99.41,1.37-.2,3.76.92,5.37.67.96,1.99.52,2.07.62,2.5,3.01,2.7,5.58,4,8.99.33.87.92,1.75,1,2,.36,1.07.65,1.5,1,3,.19.8-.27,2.68,0,3,.21.24,1.76-.23,2,0,1.61,1.54,1.42,4.41,2,5.99,2.48,6.79,2.75,1.26,3,1,.7-.73,3.85-1.97,5-2,.11,0,1.46,1.56,1.99,1,.26-.27-.22-1.71,0-2,.91-1.15,1.69-.77,2-1l.59.88c3.26.37,2.93-2.34,3.41-2.88.11-.13,1.37.29,1.77-.18s1.41-12.85-1.77-10.81c.03-1.33-.02-2.66,0-4,1.61-.95,1.64-4.99,0-5.99.09-5.31-.22-10.69,0-15.98,3.18.56,1.76-1.6,1.97-3.48.53-4.83-.07-8.72.03-12.5.06-1.99-.02-4,0-5.99,3.28,1.07,2.5-5.73,1-7.99.12-.61-.12-1.39,0-2h1.36c1.21-3.5,2.26-1.68,4.64,0,.78,8.49-2.61,22.27-3.04,31.42-.57,12.08,1.19,25.74.04,37.5-1.73.76-2.93,2.02-3,4-1.7,1.2-5.54,4.32-6.99,4.99s-5.18,1.59-6.99,2c-5.19,1.16-1.45.41-3,2-1.9,1.94-21.29,9.98-24.98,10.99-.07.02-.65-.87-1.33-.74-1.63.31-5.41,1.65-4.67,3.74-14.36,6.37-4.68,7.23-2.45,19.03,19.02-4.72,39.24-9.74,57.74-16.24,1.32-.46,2.23-1.62,2.67-1.78,7.93-2.95,9.24-1.47,16.99-7.99.22-.19,1.31,0,1.94-.55,2.88-2.47,2.43-4.46,3.06-7.44.13-.6-.12-1.39,0-2,2.76.59,1.94-1.36,2.31-3.13.88-4.19.48-6.8.69-9.85.05-.66-.04-1.34,0-2l3.99-1.99v10.98c-.36,1.93-.43,2.87-.99,4.99-2.79-.66-3.77,5.83-3,7.99.12.33-.15.84,0,1,2.07,2.21,2.14.26,3,0,1.5-.46,2.71-.64,4-1,2.31-.64,6.78.04,6-3,.33-.02.67.04,1,0,2.55-.28.83.68,5-1,.64-.26,1.42-.9,2-1,.18-.03.73.38,3,0,3.05-.51,4.47-1.08,7.99-1,.12,0,.73,1.14,1.39.96,2.68-.73,2.26-6.49-1.39-5.96-.13-.73-.75-1.92-1-3-.39-1.68.75-4.23-2-4.99-.07-.32.07-.68,0-1-.78-3.51-.79-8.9-4-10.99-.08-.31.08-.69,0-1-.36-1.37-.97-1.89-1-2-.08-.31.07-.68,0-1-.34-1.45-.97-1.89-1-2-.08-.31.07-.68,0-1-.47-2.26,1.33-4.64-2-4-.09-.63.11-1.39,0-2-.69-3.68-.61-8.58-4-10.99-.94-2.99-1.98-6.03-3-8.99,1.73-.73.79-4.21.17-5.64-.85-1.98-1.99-1.17-2.17-1.35-.1-.1.18-3.88-1.98-1.99-1.8,1.58-2.28,7.11-.02,8.98-.15,1.3.13,2.69,0,4-3.02-.56-1.93,1.53-2,3.45-.14,3.76.19,8.23,0,11.54-.33,5.83-1.35,11.26-2,16.98-2.88-.59-.99,2.87-3.99,2l-1-4.99c.07-.65-.04-1.34,0-2,4.22.53,1.09-2.76,1-4-.05-.66.03-1.34,0-2,1.71-1.04,1.83-2.71,2.02-4.47.54-5-.18-10.5-.02-14.51.05-1.33,0-2.67,0-4,3.3,1.17,2.51-7.84,1-9.99.04-.66-.04-1.34,0-2,3.24,1.01,2.49-4.83,1-6.99.07-.99-.06-2,0-3,3.02.56,1.93-1.53,2-3.45.2-5.93.4-12.62-.68-18.39-.33-1.78.41-3.72-2.31-3.13-.1-.63.07-1.35,0-2-.54-5.08-.88-2.01-2-3-.16-.14.14-.72,0-1-.58-1.13-.82-3.41-1.21-3.81-.53-.54-1.63-.05-1.79-.19-2.43-2.02-3.08-4.19-4-4.99-1.9-8.28-2.18-5.22-7.99-4.99-2.26.09-4.86-.27-6.99,0-5.94-3.38-13.35,2.46-19.5,2.09-3.58-.21-5.2-5.26-8.47-2.09-.19-.33-1.87-.9-2.44-2.01-2.03-3.95-10.13-23.88-8.39-26.77,1.25-2.08,7.45-.71,5.63-9.43-.86-4.12-7.35-5.04-8.74-3.67-.33.33,0,7.14-2.54,5.93-3.34-1.59-1.68-8.11-3.48-9.51-1.11-.86-5.27-.97-7.23-1.77-2.64-1.08-11.01-6.61-12.36-6.73-2.18-.18-7.06,4.61-9.75,6.2-3.09,1.81-6.46,3.05-9.72,4.44-1.34,14.04,4.86,35.14,21.56,36.37,9.44.7,11.54-7.22,19.5-6.55,5.07,3.57-8.04,7.3-8.11,9.99,4.83,13.48,6.85,33.59,26.06,22.51-.12,1.26-.39,3.36,1,4-.11.07-.09,1.79-1.02,2.43-7.44,5.05-16.38,3.26-21.96-3.43-.12-.15-1.75-2.6-2-3-1.48-2.36-2.6-3.98-3.11-6.88-2.38-.76-4.7.66-6.88.88-.12.01-.58-.19-2,0-3.68.49-7.34,1.48-10.99,2-.17.02-.99-.28-3,0-3.66.5-7.38,1.46-10.99,2s-7.65.49-10.99,1l1.99-5.99c-1.53.21-3.61-.32-4.99,0,1.58-13.89,11.7-28.51,10.97-42.44-.63-12.06-5.1-22.94.84-35.15,2.6-5.35,11.9-14.46,17.12-16.84,6-2.74,12.49-3.64,19.03-3.45,2.64.07,3.54.79,5,1-.75,3.71,4.8,4.88,7.47,7.02,2.32,1.86,7.34,7.45,9.53,8.45,2.03.92,8.43,2.06,6.98-2.48,13.11,15.69,9.94,23.15,14.99,40.95-5.58,4.88.37,12.49,3.58,16.89,1.09,1.49,9.38,10.89,10.12,11.05,1.16.26,7.28,1.18,6.29-1.97,13.86,7.13,21.22,17.71,22.86,33.58.5,4.83-.38,9.85.36,14.62,1.22,7.81,9.16,21.37,8.75,28.71-.03.51-2.94,2.39,1,2-.04.33.05.67,0,1-.02.11-1.44.76-.99,1.99.61.13,1.62-.18,1.99,0,.04.02.06.74,0,1-.02.11-1.7,1.25-.99,1.99.21.23,1.69-.22,1.99,0,.67.51,5,14.52,5,15.98,0,.5-2.93,2.4,1,2,.5,1.43,1.13,2.21,1,4-.03.44-3.02,2.39,1,2,2.7,7.09,13.86,37.49,13.99,42.95.08,3.38-3.2,5.71,1.99,5,.33-.32-.25-3.85,0-5,.62-2.78,7.5-12.6,9.46-17.01,5.52-12.44,8.68-26.26,13.52-38.92,2.13,5.53,6.54,1.32,9.32,1.92.93.2.91,2.06,1.67,2.53,2.49,1.55,5.84-.67,7.54,4.49,1.88,5.69,2.35,16.22,7.53,19.44,2.31,1.43,6.02.59,6.75,5.3s-4.14,5.1-4.74,6.94,1.32,4.68.75,7.58c-.51,2.6-3.38,3.81-3.83,6.27-.99,5.31,3.25,9.86,2.98,13.89-.23,3.42-4.53,5.91-5.02,10-.28,2.3-1.03,11.1-.92,12.98.14,2.28,2.27,4.1,2.74,6.26,1.91,8.83-3.77,13.93-4.33,20.21-.2,2.22.99,4.26.41,6.32s-4.46,3.22-3.95,6.2l1.21,17.38c7.65,2.95,16.24.14,14.87,11.59l4-.5c-.32,1.37.28,3.41-.23,5.24-1.7,6.2-6.27,9.69-10.77,13.74-1.86.26-4.07-.19-6,0-.39.39.7,9.45,1,10.99-3.58-.83-.42,3.82-4,3-.76-4.42-2.83-8.64-3-13.98,0-.1,2-1.5.49-2-1.85-.32-1.59.31-1.49,2h-18.99c.12-.94,0-2-.03-2.95-.75-.82-13.82-2.71-11.96,2.95-5.07-.21-8.26.11-12.99,1-1.19.22-2.73-.17-4,0,.38,1.85,2.38,2.08,4,1.99,5.3,13.97,8.44,33.4,15.99,45.95l-4,3c-7.91-12.76-11.79-27.18-15.7-41.74-.64-2.39-1.25-8.92-2.29-9.74-.85-.67-2.74-.26-3-.46-.22-.17-.87-5.67-2,0-13.64,0-27.33-.05-40.97,0,0-2.69.89-3.3-2.38-2.89s-6.42,1.04-9.78,1.27c-1.68.11-3.3-1.73-2.83,1.62-2.66,0-5.34-.05-7.99,0-1.33.02-2.67-.04-4,0l8.01,32.96c3.37-1.95,2.23-8,2.99-10.99.13-.52,1.2-1.6,1.52-2.93,1.51-6.23,3.33-12.63,3.48-19.05,2.46,0,4.91,1,6,1,.36,5.18-1.82,10.01-3,14.98-4.14-1.44-4.46,4.66-1,4-1.47,6.28-2.72,12.65-4,18.98-2.09,10.35-.87,7.71,0,16.98.24,2.61-.17,2.91-1,4.99h-6c1.1-4.98-7.66-5.21-10.07-3.55-1.17.81-.78,3.42-.92,3.55-.29.27-2.69-.31-3,0-.84.85.98,2.84,1,2.99.75,5.64.88,11.46,3.12,16.86,2.61.2,16.93.99,17.71,2.27,2,3.24-2.69,10.04-1.85,10.84,6.65.04,13.33-.03,19.98,0l-1,5.99c-41.62-.02-83.29,0-124.91,0l1-5.99h52.96c-.52-6.38-1.93-12.68-3-18.98l5-1c.5,2.73,3.12,18.96,3.93,19.55,1.84,1.33,9.31-.06,12.06.44.71-.71-1.56-17.33-2-19.98,3.74-.41,1.89,7.41,6.99,5.99.77,4.35,1.28,8.71,2,12.99-1.32-.73-3.13.88-1.99,1.99.87.85,2.84-.98,2.99-.99,7.81-.9,20.34,3.9,20.98-6.99-3.59-.21-11.36-.27-14.29-1.95-3.49-2-4.51-17.88-5.78-18.94-.41-.34-4.73-.19-5.9-.1-7.42.55-.26,5.8-5,5.99-.18-.98-1.62-3.35-1.45-5.05-1.09-1.64-10.84-.95-13.54-.94-2.97.01-3.24.97-5,1-.46,0-2.01-1-3.45-1-5.51,0-11.04,0-16.54,0,.39,18.8-14.4,22.42-28.97,26.98-3.73,1.17-6.32,3.13-9.99,3-.14-2.31.18-4.69,0-6.99,11.26-1.94,28.16-4.67,31.98-16.98.47-1.51,1.72-2.77,1-4.99h-6c.02-.31.05-.7,0-1-.28-1.8.83-2.31-2-2-.17-1.33.11-2.69-.24-4.21-6.79-29.83-18.65-58.62-24.74-88.68h-23.98c.39,3.57.34,8.62,1,11.99-3.3,1.76-2.8,3.6,1,3,4.43,21.18,9.53,42.6,13.99,63.93-3.64-1.24-2.15,6.82,1,5.99.88,4.29,2.13,8.57,3,12.99h-6c-.47-6.55-2.64-16.27-4-22.97,3.55.53,2.96-4.18-1-3-4.96-24.27-11.21-48.49-14.99-72.92h-16.99c8.64,27.03,17.36,54.22,26.98,80.91h-6c-8.89-24.66-20.3-53.71-25.98-78.91,3.44.86,2.18-3.05-.5-3.02-.87,0-.37,1.93-.5,2.03-2.7,1.97-58.66-1.58-66.85.1l-41.07,122.76h149.89c.11.26,3.44,3.96,3.7,4.02,1.69.42,4.78-.11,6.84-.03,1.92.07,4-1.01,3.44,2-27.96,0-55.97.01-83.94,0,1.39-6.35-9.6-4.03-9.99,0-7.31,0-14.67,0-21.98,0-.3-5.8-9.31-4.79-9.99,0-3.32,0-6.67,0-9.99,0-.02-4.29-6-4.24-6,0-49.61-.01-99.28.04-148.89,0,.25-4.44-9.24-4.44-8.99,0-1,0-2,0-3,0l-1-6.99c15.6-.05,31.24.14,46.83-.13l7.13-26.84h-15.99c-.31-8.09,3.8-15.48,4.91-23.38l-10.95-43.5-50.91-.04c-2.38,13.31-5.56,28.07-10.72,40.66-.49,1.19-2.04,1.76-2.28,2.29h-5c5.88-12.81,9.5-29.07,11.99-42.95h-16.99l-9.99,60.93c2.52,2.88,13.18-14.35,13.98-15.98l5,1c-.73,1.52-1.14,2.44-2,4-3.73-.38-5.1,1.82-3,4.99-2.33,3.64-3.5,7.65-8.03,10.45-2.45,1.51-6.69,1.37-7.5,2.49-.3.42-2.15,8.54-2.45,10.04-4.14-1.44-4.46,4.66-1,4-.57,3.48.05,8.22-1,11.98,11.98.04,24-.04,35.97,0,1.38,4.45-2.67,3.71-3,6.99-.67,0-1.33,0-2,0,.61-2.97-2.55-3.13-2,0-26.57-.04-54.56,1.16-80.94,0,.36-2.37-.48-4.25-2-5.99,3.95-1.55,4.08.22,7.45.04,4.17-.22,8.85-1.82,13.43-1.15,1.34-8.85,3.42-17.67,4.99-26.47.62-3.49,1.55-7.26,2.1-10.38h5c-2.07,12.29-4,24.65-6,36.96h20.98l15.99-93.89c-6.94-.35-14.07.48-20.99,0-.17-.01-1.02-1.45-1.99-1-.48,2.59-2.62,5.64.99,5-3.03,16.53-6.2,33.51-8.99,49.94l-5-1c3.11-17.74,7.39-36.36,7.99-53.94.07-2.15,1.99-3.83,1.98-5.52-.04-5.3-13.87-5.12-13.97,1.52-.67-.69-2.16-.17-3.31-2.27-2.39-4.38-1.79-10.35-2.69-14.71,3.29-.72,5.46,3.26,8.26,2.87,4.33-.61,7.1-6.44,4.78-10.41-2.63-4.51-6.85-5.6-9.96-.8-2.17,3.35,2.54,7.24-3.09,6.35-7.52-37.88-14.76-75.9-21.25-114.1-4.39-25.8-19.22-68.58,22.25-70.69,1.31-.07,2.68-.04,4,0,35.79.98,37.23,43.97,48.96,68.92-2.17-1.04-2.75,2.07-1.98,2.98.3.35,2.61-.25,2.97.02.2.15-.79,2.94,1.99,2,.16-.6-.19-1.66,0-2,20.57-35.62,47.52-78.5,71.54-111.79,6.92-9.6,10.36-15.46,21.4-21.07-.28,2.35-.33,3.96,2,4.99-11.69,5.95-30.43,37.81-38.39,50.03-18.05,27.72-34.38,56.56-53.07,83.88-1.23,3.47,6.64,8.67,6.53,12.93,5.11-2.71,9.77-3.52,14.97-4.99,1.13,4.84,6.33,4.52,5-1,.48-.1,1.58-1.35,2.88-1.57,23.98-4.16,48.24.49,72.03,3.54l26.2-84.7c2.1-.29,4.21-.97,6.33-1.17,16.04-1.46,41.94-1.66,56.69-5.26,11.83-2.89,20.44-14.13,27.7-23.25,11.96-15.03,35.69-50.28,37.04-68.86.34-4.71.41-38.15-1.05-39.49-1.59-1.46-1.83.75-2.27,1.27-11.62,13.46-10.19,21.67-15.18,36.71-1.27,3.83-26.02,35.84-30.52,41.41-3.04,3.76-16.61,20.18-19.92,21.08-1.51.41-29.08-7.32-30.02-8.57-.23-.31.22-1.76,0-1.99-.54-.56-1.88.99-1.99.99-.55.01-3.86-.84-4-1-.23-.28.22-1.76,0-1.99-.54-.56-1.88.99-1.99.99-8.16.05-25.98-9.41-35.73-10.73-4.97-.67-14.56-.76-19.23.74l-1-4.99c1.93-.88,3.39-2.05,5.83-2.17.49-8.85,8.27-13.86,1.16-21.8-.64-1.81-.36-4.6-2.49-3.99l-.51.99c-6.45-7.68-10.96-29.14-11.02-39.5-.05-8.41,4.66-16.24,12.49-19.47,1.84-.76,7.7-1.57,8.31-2.18.57-.58.48-2.91,1.34-4.13,8.56-12.18,21.79-1.77,32.35-.63,9.99,1.08,17.89-4.32,25.94-2.95,6.08,1.03,6.13,4.49,8.54,7.93ZM368.61,399.63c.09-1.66-.07-3.34,0-5,5.65.29,12.94.02,17-4.48,5.97-6.62,3.68-32.09,5.99-41.46-4.27.56-8.22-1.25-12.46-1.02-2.14.12-14.96,3.36-16.81,4.23-3.18,1.49-4.78,11.96-5.8,12.68-1.88,1.33-5.61-1.84-7.49-1.94-1.68-.09-3.49,1.41-5.41,2.03-.09.03-.59-1.2-1.91-.57-4.06,1.93-7.39,12.37-2.13,14.1,4.94,1.63,5.35.89,5.04-3.54,1.65-.35,5.57,1.64,6,3-6.13-1.6-5.43,5.44,0,4.99-.09,1.8-.66,8.06-.99,9.27-.23.85-2.26,1.26-3.25,2.95-.73,1.26-4.25,12.29-3.76,12.74,4.3-.09,8.85.54,13.03,1.46,4.53,1,7.87,4.01,11.95,2.54.46-.17,1.38.16,2,0,.67-1.36-.98-2.72-1-3-.1-1.32.05-2.67,0-4,3.27,1,2.95-6.27,0-4.99ZM451.54,458.56c-.21.15-1.42-.34-1.85.14-.59.66.09,2.36-.15,2.85-2.56,5.25-15.32,10.33-20.95,11.52-17.44,3.68-37.64,3.01-55.51,4.45l-2,.99c-1.29,5.6-4.87,11.89-5.49,17.49-1.54,14.04-.91,40.44-.04,54.99.23,3.77,1.71,7.46,1.03,11.45,4.86-.63,9.35,1.25,14,1.99-2.83,3.87,1.88,4.89,1,0,3.22.51,22.08,2.78,22.98,4,.23.31-.22,1.77,0,1.99.64.63,1.88-.98,1.99-.99,4.63-.54,15.59,3.36,19.97,5.51,14.07,6.91,19.07,18.34,14.01,33.45h23.98v-27.47c0-.3,2.09-4.96,2.53-5.47,3.65-4.19,19.35-.88,20.46-2.02.42-.43-1.3-9.3,3.69-10.8,2-.6,18.37-.62,20.76-.17,1.1.21,3.52,1.72,3.52,2.47v43.45h33.48c7.65,0,11.93,13.97,8.5,19.97h6.99c-1.06-3.92-1.3-8.32-2-11.98,3.19-.55,4.25-4,7.99-3,.1,1.34.72,7.75,1.52,8.03,5.24,1.8,3.48-5.25,6.05-6,2.41-.71,4.14,2.8,6.36,3.53,8.78,2.85,6.06-3.71,7.99-5.12,2.58-1.89,11.53,2.13,14.34-4.73,2.16-5.27-7.57-8.56-10.6-7.59-2.16.69-1.85,4.04-3.33,4.98s-4.9,1.06-6.9,1.84c-2.58,1.02-4.17,4.6-7.42,2.58-4.83-3.01-.79-14.72-10.33-12.56-2.31.52-2.61,12.63-7.66,11.05-.29-3.29-.55-13.6.21-16.27.59-2.07,6.13-7.59,7.78-9.7,1.05,1.23,2.32,2.27,3.99,1.99l-1.99-4.99c3.35-3.86,6.4-5.46,8.99-7.99,2.35,2.77,6.9-1.99,4-4,6.71-6.01,4.82-7.25,14.99-10.99,1.43,1.86,4.78,1.69,4-1,17.48-6.42,34.26-14.57,51.04-22.61.11-1.18-.21-2.27-.55-3.38-3.89-12.82-17.97-33.23-20.29-44.65-1.19-5.86-.88-14.15-1.23-20.25-3.62,1.12-7.37.63-10.99.99-2.26-1.54-6.93-2.14-6,1-4.83.39-8.92,1.37-13.99,1-.86-.06-3.5-3.06-3,1-15.19.89-38.75,7.65-51.9.43s-38.32-46.27-47.45-60.45c-1.11-1.73-4.19-8.61-4.59-8.9-.97-.72-1.79.42-2.43,1.05-2.99,2.99-7.33,13.33-10.13,17.84-6.52,10.48-20.06,32.1-29.39,39.04ZM295.66,606.39c23.76,4.82,49.55.08,73.48,1.96,9.93.78,16.28,3.49,19.94,13.03,2.29,5.95-1.25,8.08,8.5,6.98-.3-13.65-9.28-26.43-23.48-27.97-23.35-2.53-50.19,2.66-73.85-1.1-30.5-4.84-60.85-29.13-74.37-56.51-11.43-23.15-13.08-70.9-50.66-66.27-3.19.39-11.06,4.64-12.98,7-2.08,2.55,1.38,1.88,1.52,2.02.13.13-.43,1.73.66,2.02,2.21.59,16.24,1.49,14.33-4.01,6.16.51,6.49,1.76,10.99,4-2.58,1.19-2.32,4.28-4.61,5.88-4.66,3.27-12.88,1.59-15.83,6.15-1.63,2.52-3.28,13.97-1.06,15.95l23.95,3.94c1.27-.08,6.54-2.62,7.5-3.5,1.54-1.41,1.38-3.06,1.98-3.84,1.99-2.62,2.13,1.67,3.5,3.43,1.47,1.88,3.91,4.31,6.56,3.95,2.24,6.47,3.68,13.69,6,19.98-7.99-1.83-10.21,1.02-8.99,8.99.69.73,9.69-2.52,9.99-4.99,1.67,4.15,7.38,14.04,9.99,17.98-2.86,6.15.34,14.67,7.99,10.99,12.43,13.6,34.83,28.2,52.96,32.96-.57,7.41-18.11,3.86-14.53,11.95.78,1.75,6.15,4.91,8.12,5.02,2.84.17,13.23-3.57,12.41-7.46-.55-1.47-7.89-1.93-6-4.51.4-.54,6.51-.3,5.99-4.01ZM359.61,560.45v-43.95l-13.04,41.47c-.29,2.12.5,1.19,1.52,1.53,3.67,1.2,7.72.99,11.52.96ZM174.75,559.45c-1.09-1.09-3.08.9-1.99,1.99s3.08-.9,1.99-1.99ZM602.43,562.44c-.13,0-1-1.38-1.99-.99-.12.58.17,1.82,0,1.99-.26.26-4.64,1-6.93,2.57-3.09,2.11-6.52,6.54-9.06,9.42-.78.33-1.44.27-2.51.94-1.14.71-9.7,9.44-5.01,8.03,3.13-.94,7.06-3.15,10.75-4.25,8.5-2.54,17.19-4.41,25.75-6.73,2.12-.58,4.78-.83,7-1,.87-.86-3.66-11.71-4.99-12.56-1.13-.72-9.99,2.73-13,2.57ZM705.35,561.45c-1.09-1.09-3.08.9-1.99,1.99s3.08-.9,1.99-1.99ZM667.39,569.43c2.57-6.08-2.11-5.08-6.99-4.98-1.05,3.47,6.17,6.62,3.91,9.91-.81,1.17-12.41.92-9.91,10.06,4.16-1.86,9.43-.71,13.23-1.25,2.64-.37,5.78-2.63,8.25-2.62,2.2.01,4.97,2.26,6.85,1.95.98-.16,1.05-2.77,2.64-3.59,1.94-1.01,6.08.5,3.54-3.52-1-1.58-4.7-1.43-6.01-2.98-.98-1.16-1.15-4.58-1.6-4.91-1-.72-11.58,2.02-13.91,1.92ZM714.34,571.43c-1.55-5.17-11.18-5.1-15.25-3.76-3.39,1.12-1.97,3.86-3,5.5s-6.32,2.58,1.26,5.25c-.63-2.92,4.5-8.22,6.72-8.85,3.07-.86,6.88,2.63,10.27,1.85ZM509.5,568.44h-15.99v39.96h15.99v-39.96ZM233.7,594.4c.73-.71-4.39-17.09-6.14-19.33-3.4-4.37-11.45-7.45-10.82.73.08,1.09,3.01,10.02,3.49,10.6,1.28,1.53,4.52,1.44,6.41,2.58,1.78,1.07,4.93,7.51,7.05,5.42ZM612.42,578.43c-3.35.19-8.18-1.45-7.8,3.2.09,1.15,3.55,9.28,3.94,9.62.86.76,3.9-.27,5.25.08.55.14,4.16,10.73,5.61-.92h-5.99c-.38-2.17,2.65-3.21,1.99-5.47s-6.23.61-3-6.52ZM487.52,579.42h-15.99v28.97h15.99v-28.97ZM573.95,585.42v1c.65-.33.65-.67,0-1ZM197.74,596.4c4.06,1.23,11.13-.88,7.54-6.04-2.7-3.89-8.26,2.68-7.54,6.04ZM368.87,616.64c.29-.47,5.63-2.66,1.07-4.08-2.08-.65-12.3-.77-13.32,1.35s5.42,1.9,6.06,3.93c5.45,8.26,4.37,1.75,6.19-1.19ZM551.23,616.62c-1.1-1.1-3.67-1.15-5.22-1.28-34.19-2.88-72.36,2.25-106.98.02-8.74.01-6.89,13.01,1,13.02h104.96c5.73.35,10.26-7.72,6.24-11.77ZM426.56,629.37c1.99.05,4-.03,5.99,0l-4.99-8.98c.17-1.27-.11-2.7,0-3.99-3.25.04-11.24-.38-12.01,3.48-1.72,8.66,3.95,9.33,11,9.5ZM778.31,623.38c1.97,5.11-4.92,20.45,3.47,19.02,5.51-.94,3.62-19.56-3.47-19.02ZM334.52,632.25c.45-.39,1.67-5.44.16-6.42-1.38-.89-7.62-.93-8.61.47-4.18,5.94,6.47,7.66,8.44,5.94ZM367.61,637.36c-1.17.34-4.84-.67-5,.5-.47,3.5,2.18,3.72,5,3.49.78,3.77,3.1,3.75,6.45,4.04,56.47-.23,112.96.17,169.42-.04l.51,5h1.48s0-5,0-5c17.13-.07,34.29.08,51.43-.03,3.87-.73,4.23-4.78,4.52-4.97.46-.29,2.68.32,3,0,1.45-1.47-2.68-3.47-4-3.99-8.45-3.33-9.81-1.03-17.44-.95-61.91.64-124.21-.71-185.87,0-10.96.13-19.06-1.09-29.52,1.96ZM385.59,650.36c-3.05-.99-6.3-1.77-9.02.53,1.81,7.45,7.75,6.45,9.02-.53ZM412.57,649.35c-1.09-1.09-3.08.9-1.99,1.99s3.08-.9,1.99-1.99ZM285.66,651.34c-7.38-1.16-4.55,6.09-4.99,11,9.31,1.14,4.91-5.11,4.99-11ZM412.57,751.23c11.25-32.82,23.17-65.43,33.96-98.42.22-1.71.09-1.53-1.5-1.5-4.74.08-10.24,1.89-15.38,1.13.23,2.47-1.7,5.09-2.09,6.9-5.24-.49-11.22,14.79-3,13.98-.43,2.05-.49,4.55-1,6.99-1.56-1.34-11.56-.43-11.98,0s1.05,5.06-1.45,7.11c-1.49,1.23-7.92-.77-10.09,1.83-.39,4.9-3.4,7.93-4.2,12.79-.47,2.84.24,6.15-.46,8.53-.58,1.97-3.88,3.25-4.59,6.4-1.26,5.57-.95,13.99,5.77,15.27,3.58-9.97,6.83-26.55,21-20.97-3.08,15.29-6,30.64-8.99,45.95-.23,1.16-.7,2.6-1,4h-5c.85-4.45,1.18-9.35,2-13.98.07-.39,1.7-.33.09-2.51-3.23-4.38-10.98-3.08-12.08,2.51-1.99.07-4.01-.06-6,0-1.34,1.31,4.65,15.86,6.16,18.31,1.76,2.85,4.51,5.18,6.83,6.66.74.47,5.72,3.28,5.99,2.99l1-5.98c-1.7-.43-.61,1.47-1.11,1.87-.67.55-3.59-1.19-4.88-.88.12-.95-.18-2.13,0-3l6-1c-.03.69-.27,3.11.99,1.48.79-3.53,1.87-7.06,3-10.47.33-1,.66-2,1-3,3.96,1.18,4.55-3.52,1-3ZM703.35,651.35c-10.74-.76-6.18,1.19-7.15,5.29-.27,1.14-2.09,2.11-2.62,3.42-6.27,15.59,10.09,11.24,9.86,1.74-.06-2.3-2.08-3.59-2.09-4.97,0-1.59,2.72-3.26,1.99-5.49ZM760.32,651.35c-3.22,3.24,7.22,6.13,7.98,2.48.68-3.25-7.66-2.8-7.98-2.48ZM784.29,652.35c-3.32-1.63-7.34-1.16-5.93,3.41,1.27,4.13,6.97-2.04,5.93-3.41ZM621.41,658.34c-1.84-.23-2.93-.06-3.98,1.51v1.48s3.98,0,3.98,0v-2.99ZM391.73,666.2c1.74,2.81,11.11,2.2,11.85-2.36-.14-.67-8.85-3.45-9.34-3.37-1.92.34-3.49,4.14-2.5,5.73ZM581.44,664.34c-1.09-1.09-3.08.9-1.99,1.99s3.08-.9,1.99-1.99ZM275.49,666.59c-4.3-4.92-18.79,6.88-11.8,10.23,2.16,1.03,25.2-.45,25.97-1.5,1.36-1.88-6.53-5.07-7.95-5.52-1.77-.55-5.57-.24-5.95-.6-.32-.31.21-2.06-.26-2.6ZM817.27,666.33c-2.47-.25-5.26-.08-4.99,2.99,2.47.25,5.26.08,4.99-2.99ZM331.63,680.31h-21.98l8.49,34.97,13.49-34.97ZM346.13,719.28c-2.52.71-1.66,5.56.98,4.98,2.98-.65,3.31-6.18-.98-4.98ZM363.61,747.24h-6.99c-.61.56,3.4,14.03,3.99,15.98,1.36,4.48,1.37,2.25,2.46,3.99,3.25,5.19-1.95,3.94-5.46,3-3.69-7.02-5.1-14.91-6.93-22.54l-18.48-.49-7.57,27.02c11.64.04,23.33-.04,34.97,0,2.04,0,4.97,0,6.99,0,7.45,0,18.03-.93,24.98,0,.18.02,2.98,2.54,2-.49-.36-1.11-1.62-.21-2-.51-8.09-6.32-10-24.94-11.09-25.87-.95-.81-10,.55-10.89-.1-.18-.13.28-1.6-.05-1.92-2.09-2.06-4.89-.43-5.95,1.92ZM322.64,774.21c-1.09-1.09-3.08.9-1.99,1.99s3.08-.9,1.99-1.99Z"/>
    <path class="cls-12" d="M822.27,473.54c7.51.39,9.91,2.46,15.99,5.99,8.74,8.61,9.88,18.6,8.98,30.45-2.42,31.75-11.75,73.22-17.26,105.61-2.65,15.59-5.11,31.35-8.7,46.74l-4,.5c1.37-11.45-7.22-8.64-14.87-11.59l-1.21-17.38c-.51-2.98,3.38-4.16,3.95-6.2s-.61-4.1-.41-6.32c.56-6.28,6.24-11.37,4.33-20.21-.47-2.16-2.59-3.98-2.74-6.26-.12-1.88.64-10.68.92-12.98.5-4.09,4.79-6.58,5.02-10,.27-4.03-3.96-8.58-2.98-13.89.46-2.46,3.32-3.67,3.83-6.27.57-2.9-1.37-5.68-.75-7.58s5.44-2.39,4.74-6.94-4.44-3.87-6.75-5.3c-5.18-3.22-5.66-13.75-7.53-19.44-1.7-5.16-5.05-2.94-7.54-4.49-.76-.47-.73-2.33-1.67-2.53-2.77-.6-7.19,3.61-9.32-1.92.29-.75-.15-2.53.47-3.98,6.78-15.9,19.49-26.91,37.5-25.99Z"/>
    <path class="cls-12" d="M766.31,681.31c-1.86-5.66,11.21-3.78,11.96-2.95.03.95.16,2.02.03,2.95-.05.39-1.68,1.74-.81,3.13,7.85,28.09,9.03,60.51,16.85,88.22.29,1.04.4,1.93,1.46,2.54h19.49c-3.76-25.01-9.44-49.68-13.87-74.57-.32-1.82.14-3.8-.12-5.34,3.58.83.42-3.82,4-3,.1.52,1.39,2,1.74,3.73,5.17,26.02,9.18,52.27,14.73,78.21,1.13,1.77,3.1-.09,4.91.06,1.39.12,2.71.84,4.12.9,6.27.27,17.51-2.91,15.48,6-13.16.12-26.35-.14-39.52-.04-27.06.2-55.03.05-82.4.04-1.87-4.02-9.37-.62-7.99-5.99,23.97.11,47.98-.08,71.95,0-.91-4.19-2.75-24.71-4.16-26.81-.31-.46-7.59-2.22-10.33-4.17-4.4-3.13-5.93-6.83-8.5-10.98l4-3c.72,1.19,5.5,6.85,6.65,7.84,1,.87,6.9,5.2,6.36,1.65l-11.05-58.39c-1.64-.22-3.3.02-4.95-.05Z"/>
    <path class="cls-1" d="M822.27,473.54c-18.01-.92-30.72,10.09-37.5,25.99-.62,1.45-.18,3.23-.47,3.98-4.84,12.67-8,26.48-13.52,38.92-1.96,4.41-8.84,14.24-9.46,17.01h-2c-.13-5.46-11.29-35.87-13.99-42.95-.25-.65.06-1.62-1-2,.13-1.79-.5-2.56-1-4-.25-.71-.11-1.55-1-2,0-1.46-4.33-15.47-5-15.98l-1-2c.06-.26.04-.98,0-1l-1-2c.05-.32-.04-.67,0-1,.11-.86-.06-1.72-1-2,.41-7.33-7.54-20.89-8.75-28.71-.74-4.77.14-9.79-.36-14.62-1.65-15.88-9-26.46-22.86-33.58-1.75-.9-3.76-.85-5.53-1.97-6.54-4.15-12.37-16.66-14.46-24-5.05-17.8-1.88-25.26-14.99-40.95-7.95-9.51-11.41-11.21-23.98-12.99-1.45-.2-2.36-.93-5-1,2.32-7.9,21.37-.6,26.12,2.35,27.7,17.19,13.82,57.21,37.51,72.39,10.16,6.51,16.41,6.64,22.84,19.12s5.35,22,4.9,36.06l32.05,91.83c2.12.47,3.32-4.49,3.93-6.04,10.31-26.17,11.09-70.71,47.18-72.79,2.54-.15,9.37.07,9.34,3.92Z"/>
    <path class="cls-9" d="M784.3,290.75v53.94h-53.96v-53.94h53.96ZM778.3,308.73c-.05-3.98.04-8,0-11.99h-41.97v40.95c8.64-.05,17.34.07,25.98,0,5.32-.04,10.68.03,15.99,0-.1-9.64.12-19.33,0-28.97Z"/>
    <path class="cls-13" d="M291.66,303.73h-45.97v-57.94h44.47c.11,0,1.5,1.39,1.5,1.5v56.44ZM284.67,251.79h-31.48c-.11,0-1.5,1.39-1.5,1.5v44.45h32.98v-45.95Z"/>
    <path class="cls-14" d="M810.28,681.31c4.49-4.05,9.06-7.54,10.77-13.74.5-1.83-.09-3.87.23-5.24,3.59-15.39,6.05-31.15,8.7-46.74,5.51-32.39,14.84-73.86,17.26-105.61.9-11.85-.24-21.84-8.98-30.45.37.22,1.86-.14,2.93.52,8.98,5.59,13.21,25.93,10.94,35.81-10.3,47.87-13.1,100.12-24.33,147.48-2.57,10.85-6.03,16.36-17.52,17.95Z"/>
    <path class="cls-12" d="M552.47,732.25c2.77,7.69,6.13,15.3,8.99,22.97.47,1.25,1.64,7.02,2.5,7l.5-7.01h-2c-.08-1.65.12-3.34,0-4.99h6c1.37,6.93,3.43,12.74,4,19.98.18,2.3-.14,4.69,0,6.99,3.67.13,6.26-1.83,9.99-3v1l-1,5.99c-2,0-4,0-6,0,.56-3.02-1.52-1.93-3.44-2-2.07-.08-5.16.45-6.84.03-.27-.07-3.59-3.77-3.7-4.02-5.66-13.23-10-29.11-14.99-42.95h6Z"/>
    <path class="cls-5" d="M207.48,381.82c11.22-1.85,13.68,15.5,2.51,16.6-9.89.97-13.54-14.78-2.51-16.6Z"/>
    <path class="cls-12" d="M271.68,774.21l1,6.99c-8.65,0-17.33.01-25.98,0,.33-3.28,4.38-2.54,3-6.99,7.31.03,14.67.02,21.98,0Z"/>
    <path class="cls-9" d="M531.49,270.77c-.9,1.37-6.99.83-6.99-1.5v-19.98c0-2.04,6.99-2.04,6.99,0,0,3.12.59,20.58,0,21.48Z"/>
    <path class="cls-9" d="M531.49,313.22c-.64,2.27-4.59,3.16-6.08.83-1.59-2.49-1.79-19.12,1.05-20.83,1.59-.95,5.02-.38,5.02,1.02,0,4.24.85,15.95,0,18.98Z"/>
    <path class="cls-2" d="M544.19,277.97c3.09-.69,18.31-1.18,18.33,3.27,0,1.88-1.95,3.17-3.58,3.48-3.12.6-20.2,1.24-19.4-3.35,1.01-1.59,2.81-2.99,4.65-3.4Z"/>
    <path class="cls-7" d="M495.51,284.75c-.21-.14-1.35-4.06-.59-5.05,2-2.6,18.37-1.99,20.62-.5,1.95,1.3.75,5.55-.55,5.55-2.88,0-18.67.53-19.49,0Z"/>
    <path class="cls-12" d="M177.75,658.34c-.13-.61.12-1.39,0-2,5.63.9.92-3,3.09-6.35,3.1-4.8,7.32-3.72,9.96.8,2.32,3.97-.45,9.8-4.78,10.41-2.8.4-4.97-3.59-8.26-2.87Z"/>
    <path class="cls-9" d="M508.21,260.88c2.53-.63,17.37,10.62,11.3,14.41-3.33,2.08-14.74-8.34-13.87-11.81.24-.95,1.63-2.37,2.56-2.6Z"/>
    <path class="cls-9" d="M545.19,260.92c2.98-.82,6.3,1.61,4.81,4.83-.99,2.15-10.65,11.7-13.59,9.58-4.39-3.16,6.62-13.82,8.78-14.41Z"/>
    <path class="cls-9" d="M537.13,288.87c4.12-1.37,13.66,8.19,13.39,11.31-.84,9.87-15.36-5.74-15.11-8.91.09-1.2.53-2,1.72-2.4Z"/>
    <path class="cls-9" d="M519.37,288.87c4.93,3.1-12.93,21.5-13.91,11.31-.29-3.01,10.14-13.68,13.91-11.31Z"/>
    <path class="cls-12" d="M195.74,679.31c-3.59,1.45-8.09,1.32-11.07-1.46-.77-.72-.7-2.31-.92-2.54.1-6.64,13.93-6.82,13.97-1.52.01,1.69-1.91,3.37-1.98,5.52Z"/>
    <path class="cls-2" d="M412.57,321.71c.06.09,1.36-.33,2.06.64,2.11,2.92,2.32,9.93,1.5,13.42-.65,2.77-1.81,2.72-2.56,3.92.9-3.2-2.74-1.3-3.05-2.52-.85-3.31,2-5.87,1.99-7.97,0-1.71-4.75-7.86.06-7.49Z"/>
    <path class="cls-12" d="M713.35,775.21l1,5.99c-2.66,0-5.33,0-7.99,0l1-5.99c2,.01,4-.01,6,0Z"/>
    <path class="cls-3" d="M716.35,775.21c-1.38,5.38,6.12,1.97,7.99,5.99-2.99,0-6.63,0-9.99,0l-1-5.99c1,0,2,0,3,0Z"/>
    <path class="cls-2" d="M590.44,424.6c1.38-.32,3.46.21,4.99,0l-1.99,5.99c-1.25.19-2.74-.19-4,0-.11-1.18-1.13-2.99-1-4,.12-.93,1.12-1.8,2-2Z"/>
    <path class="cls-12" d="M459.54,781.2c-3.32,0-6.67,0-9.99,0,.68-4.79,9.7-5.8,9.99,0Z"/>
    <path class="cls-12" d="M491.52,781.2c-3.32,0-6.67,0-9.99,0,.39-4.03,11.38-6.35,9.99,0Z"/>
    <path class="cls-12" d="M284.67,781.2c-2.99,0-6,0-8.99,0-.25-4.44,9.24-4.44,8.99,0Z"/>
    <path class="cls-12" d="M159.76,775.21c1.52,1.75,2.36,3.62,2,5.99-2.55-.11-3.81.99-4.55-1.95-.96-3.78-.03-3.03,2.56-4.05Z"/>
    <path class="cls-2" d="M330.63,409.61l1,4.99c-.65.21-1.36.68-2,1-2.33-1.03-2.28-2.64-2-4.99,1.4-.71,2.33-.69,3-1Z"/>
    <path class="cls-12" d="M192.74,734.25c-.16.93.16,2.07,0,3h-5c.21-1.22-.21-2.78,0-4l5,1Z"/>
    <path class="cls-12" d="M439.55,781.2c-2,0-4,0-6,0,0-4.24,5.97-4.29,6,0Z"/>
    <path class="cls-13" d="M231.71,540.47c.54,1.14.89,2.88,1,3,.16.17,1.44-.11,2,0-.19.33.16,1.4,0,2-2.78.94-1.79-1.85-1.99-2-.36-.27-2.68.33-2.97-.02-.78-.91-.2-4.02,1.98-2.98Z"/>
    <path class="cls-2" d="M334.63,382.64l.51-.99c2.13-.61,1.84,2.17,2.49,3.99-.63-.71-1.48-1.19-3-3Z"/>
    <path class="cls-13" d="M178.75,471.55c-1.09-2.97,4.91-3.22,4,0-1.32-.04-2.68-.07-4,0Z"/>
    <path class="cls-13" d="M576.45,427.59c.42,4.21-2.72,1.03-3,1,.82-1.03,1.91-.8,3-1Z"/>
    <path class="cls-13" d="M509.5,362.67c-2.67.47-2.04-.63-2-3,.07.18,1.16.92,2,3Z"/>
    <path class="cls-12" d="M242.7,781.2c-.55-3.13,2.61-2.97,2,0-.67,0-1.33,0-2,0Z"/>
    <path class="cls-9" d="M396.59,359.67l-.98-.59c-.11-.74.9-1.15.98-1.4l.85.62c.17.7-.84,1.19-.85,1.38Z"/>
    <path class="cls-9" d="M395.59,372.66l-.98-.59.98-1.4c-.01.13.2.32,0,2Z"/>
    <path class="cls-13" d="M380.6,398.63c-.68.49,1.63.65-2,2-.24-2.12-.12-2.24,2-2Z"/>
    <path class="cls-1" d="M394.59,427.59c.94,1.25,28.51,8.98,30.02,8.57,3.31-.9,16.88-17.32,19.92-21.08,4.5-5.56,29.25-37.58,30.52-41.41,4.98-15.04,3.56-23.25,15.18-36.71.44-.51.68-2.72,2.27-1.27,1.46,1.34,1.39,34.78,1.05,39.49-1.35,18.57-25.08,53.83-37.04,68.86-7.26,9.12-15.87,20.37-27.7,23.25-14.75,3.6-40.65,3.8-56.69,5.26-2.12.19-4.23.88-6.33,1.17l-26.2,84.7c-23.79-3.05-48.05-7.7-72.03-3.54-1.3.23-2.39,1.47-2.88,1.57-1.78.39-2.81.38-5,1-5.2,1.48-9.86,2.28-14.97,4.99.11-4.26-7.76-9.46-6.53-12.93,18.69-27.32,35.02-56.16,53.07-83.88,7.96-12.22,26.7-44.08,38.39-50.03.64-.32,1.35-.79,2-1,4.67-1.5,14.26-1.41,19.23-.74,9.75,1.32,27.57,10.78,35.73,10.73l2,1c.13.16,3.44,1.01,4,1l2,1Z"/>
    <path class="cls-6" d="M501.51,358.67c2.27,7.63,5.11,17.08,10.02,23.45l48.17,55.24c.79.49,2.75.36,3.76.22,1.5-.21,2.51-.37,3-2,.44.07,1.93.08,2,0l2-1c6.08.28,13.79-3.21,18.99-4,1.25-.19,2.74.19,4,0,3.34-.51,7.54-.49,10.99-1,2.33,12.31,9.24,23.22,18.99,30.97-1.3.11-3.29-.56-4,1-8.35.13-15.81,1.53-23.98,2-1.31.07-3.29-.53-4,1-12.38-.72-28.56,5.66-39.94,1.47-8.36-3.08-23.69-23.71-29.4-31.55-3.75-5.15-26.09-38.17-26.37-41.51-.06-.68,2.39-10.34,2.78-13.32.11-.82.85-1.87,1-4,.4-5.6-.35-11.38,0-16.98h2Z"/>
    <path class="cls-10" d="M665.39,431.59c-19.21,11.08-21.23-9.03-26.06-22.51.07-2.69,13.17-6.42,8.11-9.99-7.96-.66-10.06,7.25-19.5,6.55-16.71-1.23-22.9-22.34-21.56-36.37,3.27-1.39,6.63-2.62,9.72-4.44,2.69-1.58,7.57-6.38,9.75-6.2,1.35.11,9.72,5.65,12.36,6.73,1.95.8,6.12.91,7.23,1.77,1.81,1.4.14,7.92,3.48,9.51,2.54,1.21,2.21-5.6,2.54-5.93,1.39-1.37,7.88-.45,8.74,3.67,1.82,8.73-4.38,7.35-5.63,9.43-1.74,2.89,6.36,22.83,8.39,26.77.57,1.11,2.24,1.68,2.44,2.01.18.31,1.96,4.73,2,4.99.24,1.49.32,8.89,0,9.99-.09.32-1.66.42-2,4ZM635.22,393.47c.75-1.31.2-4.4-1.38-4.77-1.5.41-8.27,2.6-8.48,3.55-1.68,7.4,8.94,2.84,9.86,1.22Z"/>
    <path class="cls-10" d="M600.43,636.36l1,4c-.3.19-.65,4.24-4.52,4.97-17.14.1-34.3-.05-51.43.03-.67,0-1.33,0-2,0-56.46.21-112.95-.19-169.42.04-3.35-.29-5.67-.27-6.45-4.04-.24-1.15.16-2.74,0-4,10.46-3.04,18.56-1.83,29.52-1.96,61.66-.71,123.96.64,185.87,0,7.63-.08,8.99-2.38,17.44.95Z"/>
    <path class="cls-14" d="M163.76,485.53c-.14-.14-3.59.53-1.52-2.02,1.92-2.36,9.79-6.61,12.98-7,37.58-4.63,39.23,43.12,50.66,66.27,13.52,27.38,43.87,51.67,74.37,56.51,23.65,3.76,50.5-1.44,73.85,1.1,14.2,1.54,23.18,14.32,23.48,27.97-9.75,1.1-6.21-1.03-8.5-6.98-3.67-9.54-10.02-12.25-19.94-13.03-23.93-1.88-49.72,2.85-73.48-1.96-1.95-.39-4.64-.64-6-1-18.13-4.76-40.53-19.36-52.96-32.96-1.27-1.39-6.68-9-7.99-10.99-2.61-3.94-8.32-13.83-9.99-17.98-.35-.86-.46-2.54-1-4-2.32-6.29-3.75-13.51-6-19.98-5.23-15.09-6.96-24.51-21.98-31.96-4.51-2.23-4.84-3.49-10.99-4-4.51-.37-11.29-.75-14.99,2Z"/>
    <path class="cls-10" d="M343.63,364.66c1.92-.61,3.73-2.11,5.41-2.03,1.88.1,5.61,3.27,7.49,1.94,1.02-.72,2.62-11.19,5.8-12.68,1.85-.87,14.67-4.11,16.81-4.23,4.24-.23,8.19,1.58,12.46,1.02-2.31,9.37-.02,34.84-5.99,41.46-4.06,4.5-11.35,4.78-17,4.48-.07,1.66.09,3.34,0,5s-.06,3.36,0,4.99c.05,1.32-.1,2.68,0,4l-1,3c-4.08,1.47-7.42-1.53-11.95-2.54-4.18-.93-8.73-1.56-13.03-1.46-.49-.45,3.02-11.48,3.76-12.74.99-1.69,3.01-2.1,3.25-2.95.33-1.22.9-7.48.99-9.27.06-1.2.26-4.17,0-4.99-.42-1.35-4.35-3.35-6-3-.23-3.28-1.59-6.51-1-9.99ZM380.6,383.64c.42-4.39-.03-6.68-5-6v6s5,0,5,0Z"/>
    <path class="cls-8" d="M202.73,680.31c6.92.48,14.05-.35,20.99,0l-15.99,93.89h-20.98c1.99-12.31,3.92-24.67,6-36.96.16-.93-.16-2.07,0-3,2.79-16.43,5.96-33.41,8.99-49.94.15-.8,1.75-2.34,1-4Z"/>
    <path class="cls-8" d="M797.29,681.31h1c.17,5.35,2.23,9.56,3,13.98.27,1.54-.2,3.53.12,5.34,4.43,24.88,10.11,49.56,13.87,74.57h-19.49c-1.05-.61-1.16-1.5-1.46-2.54-7.82-27.71-8.99-60.13-16.85-88.22-.87-1.39.76-2.74.81-3.13h18.99Z"/>
    <path class="cls-14" d="M551.23,616.62c4.03,4.04-.5,12.12-6.24,11.77h-104.96c-7.88-.01-9.74-13.01-1-13.03,34.62,2.23,72.79-2.9,106.98-.02,1.55.13,4.12.17,5.22,1.28Z"/>
    <path class="cls-10" d="M670.38,533.48c.42,8.31,9.45,16.4,16.99,18.98-.44.16-1.35,1.32-2.67,1.78-18.5,6.5-38.72,11.52-57.74,16.24-2.23-11.8-11.92-12.66,2.45-19.03,1.93-.86,4.54-.85,6-3,3.69-1.01,23.08-9.04,24.98-10.99,1.43-.08,2.57-.56,3-2,1.82-.41,5.48-1.3,6.99-2Z"/>
    <path class="cls-11" d="M552.47,732.25c-9.62-26.69-18.34-53.88-26.98-80.91h16.99c3.78,24.42,10.03,48.65,14.99,72.92.28,1.35.88,2.42,1,3,1.36,6.71,3.53,16.43,4,22.97.12,1.65-.08,3.34,0,4.99h-1c-2.86-7.67-6.22-15.28-8.99-22.97Z"/>
    <path class="cls-11" d="M427.56,659.34c.4-1.81,2.32-4.42,2.09-6.9,5.13.75,10.64-1.06,15.38-1.13,1.59-.03,1.72-.21,1.5,1.5-10.79,32.99-22.71,65.61-33.96,98.42-.34,1-.66,2-1,3s-.67,1.99-1,3h-2c2.99-15.31,5.92-30.66,8.99-45.95,2.07-10.28,3.86-20.71,6-30.97.51-2.44.57-4.95,1-6.99.91-4.37,2.01-9.5,3-13.98Z"/>
    <path class="cls-12" d="M211.72,519.49c-2.64.37-5.09-2.07-6.56-3.95-1.37-1.76-1.51-6.05-3.5-3.43-.59.78-.44,2.44-1.98,3.84-.96.88-6.23,3.42-7.5,3.5l-23.95-3.94c-2.22-1.98-.56-13.44,1.06-15.95,2.94-4.56,11.17-2.89,15.83-6.15,2.28-1.6,2.03-4.69,4.61-5.88,15.03,7.45,16.75,16.87,21.98,31.96Z"/>
    <path class="cls-8" d="M766.31,681.31c1.65.07,3.31-.17,4.95.05l11.05,58.39c.55,3.55-5.36-.78-6.36-1.65-1.14-1-5.93-6.65-6.65-7.84-7.55-12.55-10.69-31.98-15.99-45.95-.18-.46.12-1.39,0-2,4.73-.89,7.92-1.21,12.99-1Z"/>
    <path class="cls-11" d="M631.41,748.24c-.51,2.82.55,5.34,1,7.99,1.07,6.29,2.48,12.6,3,18.98h-52.96s0-1,0-1c14.57-4.56,29.37-8.17,28.97-26.98,5.5,0,11.03,0,16.54,0,1.44,0,2.98,1.01,3.45,1Z"/>
    <path class="cls-12" d="M423.57,680.31c-2.13,10.26-3.93,20.68-6,30.97-14.17-5.57-17.42,11-21,20.97-6.72-1.28-7.03-9.7-5.77-15.27.71-3.15,4.01-4.43,4.59-6.4.7-2.39,0-5.69.46-8.53.8-4.86,3.8-7.89,4.2-12.79,2.17-2.6,8.6-.6,10.09-1.83,2.5-2.05,1-6.66,1.45-7.11s10.42-1.34,11.98,0Z"/>
    <path class="cls-8" d="M233.71,725.26c-.81,1.62-11.46,18.86-13.98,15.98l9.99-60.93h16.99c-2.49,13.88-6.11,30.14-11.99,42.95-.29.64-.68,1.35-1,2Z"/>
    <path class="cls-11" d="M357.61,770.21c.67,1.27,1.97,2.29,2,4-11.64-.04-23.33.04-34.97,0l7.57-27.02,18.48.49c1.83,7.64,3.23,15.52,6.93,22.54Z"/>
    <rect class="cls-14" x="493.51" y="568.44" width="15.99" height="39.96"/>
    <path class="cls-12" d="M560.46,609.39c5.05,1.58,5.35-10.53,7.66-11.05,9.54-2.16,5.5,9.55,10.33,12.56,3.24,2.02,4.84-1.56,7.42-2.58,2-.79,5.39-.88,6.9-1.84s1.17-4.29,3.33-4.98c3.03-.97,12.76,2.32,10.6,7.59-2.81,6.86-11.76,2.83-14.34,4.73-1.92,1.41.8,7.97-7.99,5.12-2.22-.72-3.95-4.23-6.36-3.53-2.57.75-.81,7.8-6.05,6-.81-.28-1.43-6.69-1.52-8.03-3.74-1-4.8,2.45-7.99,3-.42-2.2-1.68-3.33-2-6.99Z"/>
    <rect class="cls-8" x="471.53" y="579.42" width="15.99" height="28.97"/>
    <path class="cls-8" d="M369.61,747.24c.89.65,9.94-.71,10.89.1,1.09.93,3,19.55,11.09,25.87v1c-6.95-.93-17.53,0-24.98,0l3-26.97Z"/>
    <polygon class="cls-1" points="331.63 680.31 318.14 715.28 309.65 680.31 331.63 680.31"/>
    <path class="cls-12" d="M667.39,569.43c2.33.09,12.91-2.64,13.91-1.92.45.33.62,3.74,1.6,4.91,1.31,1.55,5.01,1.4,6.01,2.98,2.55,4.02-1.59,2.52-3.54,3.52-1.59.82-1.66,3.43-2.64,3.59-1.88.3-4.65-1.94-6.85-1.95-2.47-.01-5.61,2.24-8.25,2.62-3.8.54-9.07-.61-13.23,1.25-2.51-9.15,9.1-8.89,9.91-10.06,2.26-3.28-4.96-6.43-3.91-9.91,4.88-.1,9.56-1.1,6.99,4.98Z"/>
    <path class="cls-14" d="M651.4,753.23c.12.61-.1,1.37,0,2,.44,2.65,2.71,19.27,2,19.98-2.76-.5-10.22.9-12.06-.44-.81-.59-3.43-16.82-3.93-19.55-.47-2.58-.72-5.37-1-7.99,2.7-.01,12.45-.69,13.54.94-.17,1.69,1.26,4.07,1.45,5.05Z"/>
    <path class="cls-14" d="M359.61,560.45c-3.8.03-7.86.24-11.52-.96-1.02-.33-1.81.59-1.52-1.53l13.04-41.47v43.95Z"/>
    <path class="cls-11" d="M392.59,747.24c3.98-.14,8.01.1,11.99,0-.82,4.64-1.15,9.53-2,13.98-.28,1.47-1.48,3.48-2,5.99-.18.87.12,2.04,0,3-.07.55-.8,1.36-1,2-2.32-1.48-5.07-3.81-6.83-6.66-1.51-2.45-7.5-17-6.16-18.31,1.99-.07,4.01.07,6,0Z"/>
    <path class="cls-11" d="M602.43,562.44c3.01.16,11.87-3.29,13-2.57,1.34.85,5.86,11.69,4.99,12.56-2.22.18-4.88.43-7,1-2.56-3.39-9.71-3.38-13.5-3-3.48.35-11.98,3.52-15.48,5,2.54-2.88,5.97-7.31,9.06-9.42,2.29-1.56,6.66-2.31,6.93-2.57l2-1Z"/>
    <path class="cls-12" d="M233.7,594.4c-2.13,2.08-5.28-4.36-7.05-5.42-1.9-1.14-5.13-1.05-6.41-2.58-.48-.58-3.41-9.5-3.49-10.6-.62-8.18,7.42-5.1,10.82-.73,1.74,2.24,6.86,18.62,6.14,19.33Z"/>
    <path class="cls-12" d="M275.49,666.59c.47.54-.06,2.29.26,2.6.38.37,4.19.05,5.95.6,1.43.45,9.31,3.64,7.95,5.52-.76,1.06-23.81,2.54-25.97,1.5-6.99-3.35,7.5-15.15,11.8-10.23Z"/>
    <path class="cls-12" d="M295.66,606.39c.51,3.71-5.59,3.46-5.99,4.01-1.89,2.57,5.45,3.04,6,4.51.82,3.89-9.57,7.63-12.41,7.46-1.97-.12-7.34-3.27-8.12-5.02-3.59-8.1,13.96-4.54,14.53-11.95,1.36.36,4.05.6,6,1Z"/>
    <path class="cls-14" d="M613.42,573.43c-8.55,2.32-17.25,4.19-25.75,6.73-3.69,1.1-7.61,3.31-10.75,4.25-4.69,1.41,3.87-7.32,5.01-8.03,1.07-.67,1.72-.61,2.51-.94,3.5-1.48,12-4.65,15.48-5,3.79-.38,10.94-.39,13.5,3Z"/>
    <path class="cls-12" d="M363.61,747.24c1.05-2.35,3.85-3.98,5.95-1.92.33.33-.13,1.79.05,1.92l-3,26.97c-2.02,0-4.96,0-6.99,0-.03-1.7-1.33-2.72-2-4,3.51.94,8.71,2.18,5.46-3-1.09-1.74-1.1.49-2.46-3.99,3.71-4.44.73-10.92,3-15.98Z"/>
    <path class="cls-2" d="M667.38,340.69c1.45,4.54-4.95,3.4-6.98,2.48-2.19-1-7.22-6.59-9.53-8.45-2.67-2.14-8.22-3.31-7.47-7.02,12.57,1.77,16.03,3.47,23.98,12.99Z"/>
    <path class="cls-12" d="M703.35,651.35c.73,2.23-2,3.9-1.99,5.49,0,1.39,2.03,2.67,2.09,4.97.23,9.5-16.13,13.85-9.86-1.74.53-1.32,2.35-2.28,2.62-3.42.96-4.1-3.6-6.05,7.15-5.29Z"/>
    <path class="cls-14" d="M678.38,681.31c1.24,7.43,3.95,15.06,6.99,21.98-.75,2.99.39,9.04-2.99,10.99l-8.01-32.96c1.33-.04,2.67.02,4,0Z"/>
    <path class="cls-14" d="M426.56,629.37c-7.06-.17-12.72-.84-11-9.5.77-3.86,8.76-3.44,12.01-3.48-.11,1.3.17,2.72,0,3.99-.34,2.5-1.84,5.69-1,8.99Z"/>
    <path class="cls-2" d="M693.37,412.61c-6.6.84-13.16,3.82-19.99,2.99.47,4.82.24,16.88-4.3,19.74-.96.61-2.43.08-2.69.25-1.38-.64-1.12-2.74-1-4,.33-3.57,1.91-3.68,2-4,6.88,1.53,4.67-6.71,4.99-10.99l-4.99,1c-.04-.27-1.82-4.69-2-4.99,3.28-3.17,4.9,1.88,8.47,2.09,6.15.37,13.57-5.47,19.5-2.09Z"/>
    <path class="cls-2" d="M702.36,407.62c.99,3.14-5.12,2.22-6.29,1.97-.73-.16-9.03-9.56-10.12-11.05-3.21-4.4-9.16-12.01-3.58-16.89,2.08,7.34,7.92,19.86,14.46,24,1.77,1.12,3.78,1.07,5.53,1.97Z"/>
    <path class="cls-12" d="M612.42,578.43c-3.23,7.12,2.31,4.17,3,6.52s-2.37,3.3-1.99,5.46h5.99c-1.45,11.67-5.06,1.08-5.61.93-1.35-.36-4.39.68-5.25-.08-.39-.35-3.85-8.47-3.94-9.62-.38-4.66,4.45-3.01,7.8-3.2Z"/>
    <path class="cls-12" d="M778.31,623.38c7.1-.54,8.99,18.07,3.47,19.02-8.39,1.43-1.51-13.9-3.47-19.02Z"/>
    <path class="cls-2" d="M343.63,364.66c-.59,3.48.77,6.71,1,9.99.31,4.44-.09,5.17-5.04,3.54-5.26-1.73-1.93-12.17,2.13-14.1,1.32-.63,1.82.6,1.91.57Z"/>
    <path class="cls-12" d="M714.34,571.43c-3.38.78-7.19-2.72-10.27-1.85-2.23.63-7.35,5.92-6.72,8.85-7.59-2.67-2.29-3.62-1.26-5.25s-.39-4.39,3-5.5c4.08-1.34,13.7-1.42,15.25,3.76Z"/>
    <path class="cls-12" d="M368.87,616.64c-1.82,2.94-.74,9.45-6.19,1.19-.64-2.02-7.07-1.8-6.06-3.93s11.23-2,13.32-1.35c4.56,1.42-.78,3.61-1.07,4.08Z"/>
    <path class="cls-12" d="M217.72,539.47c.54,1.46.65,3.14,1,4-.3,2.47-9.29,5.72-9.99,4.99-1.23-7.97,1-10.82,8.99-8.99Z"/>
    <path class="cls-12" d="M427.56,659.34c-.99,4.48-2.09,9.61-3,13.98-8.22.81-2.25-14.47,3-13.98Z"/>
    <path class="cls-14" d="M363.61,747.24c-2.26,5.06.72,11.54-3,15.98-.59-1.96-4.6-15.42-3.99-15.98h6.99Z"/>
    <path class="cls-12" d="M334.52,632.25c-1.98,1.71-12.62,0-8.44-5.94.98-1.4,7.23-1.36,8.61-.47,1.5.97.29,6.02-.16,6.42Z"/>
    <path class="cls-12" d="M391.73,666.2c-.98-1.59.58-5.39,2.5-5.73.49-.09,9.2,2.7,9.34,3.37-.73,4.56-10.1,5.17-11.85,2.36Z"/>
    <path class="cls-13" d="M638.41,479.54c-3.02.56-1.93-1.52-2-3.45-.11-2.95.34-12.37-1.96-14.12-1.13-.86-9.57.76-11.6.71-1.81-.04-3.24-1.12-3.42-1.12.71-1.56,2.7-.89,4-1,3.34-.27,10.4-2.11,12.52-.02,1.61,1.58,2.23,15.38,2.47,19Z"/>
    <path class="cls-12" d="M236.7,572.43c-7.65,3.68-10.86-4.84-7.99-10.99,1.32,1.98,6.73,9.6,7.99,10.99Z"/>
    <path class="cls-12" d="M285.66,651.34c-.08,5.88,4.32,12.14-4.99,11,.45-4.91-2.39-12.16,4.99-11Z"/>
    <path class="cls-14" d="M670.38,742.24h16.99c-.14.36.25,1.27-.21,1.75-2.45,2.54-14.8.68-18.77,1.25-.02-.16-1.84-2.14-1-2.99.31-.31,2.71.27,3,0Z"/>
    <path class="cls-12" d="M656.39,747.24c.47,4.63,1.19,9.41,2,13.98-5.1,1.41-3.26-6.4-6.99-5.99-.1-.63.12-1.38,0-2,4.74-.19-2.42-5.44,5-5.99Z"/>
    <path class="cls-12" d="M178.75,483.53c1.91,5.5-12.12,4.6-14.33,4.01-1.09-.29-.53-1.89-.66-2.02,3.7-2.74,10.48-2.37,14.99-2Z"/>
    <path class="cls-12" d="M404.58,747.24c-3.98.1-8.01-.14-11.99,0,1.1-5.58,8.85-6.89,12.08-2.51,1.61,2.18-.02,2.11-.09,2.51Z"/>
    <path class="cls-12" d="M636.41,747.24c.28,2.62.53,5.41,1,7.99l-5,1c-.45-2.65-1.51-5.17-1-7.99,1.75-.02,2.03-.99,5-1Z"/>
    <path class="cls-12" d="M197.74,596.4c-.71-3.36,4.84-9.93,7.54-6.04,3.59,5.17-3.49,7.28-7.54,6.04Z"/>
    <path class="cls-2" d="M713.35,510.5l1,4.99c3,.87,1.12-2.59,3.99-2-.63,5.51-.92,9.35-2,14.98v-10.98s-4,1.99-4,1.99c.2-3.27.66-5.87,1-8.99Z"/>
    <path class="cls-12" d="M385.59,650.36c-1.27,6.98-7.21,7.98-9.02.53,2.72-2.29,5.97-1.52,9.02-.53Z"/>
    <path class="cls-12" d="M670.38,742.24c.14-.13-.25-2.74.92-3.55,2.41-1.66,11.17-1.43,10.07,3.55h-10.99Z"/>
    <path class="cls-2" d="M717.35,432.59c2.72-.59,1.98,1.35,2.31,3.13,1.08,5.77.88,12.46.68,18.39-.06,1.92,1.02,4.01-2,3.45.66-10.82.61-14.29-1-24.97Z"/>
    <path class="cls-12" d="M686.37,681.31c-.47-3.35,1.15-1.51,2.83-1.62,3.36-.23,6.47-.86,9.78-1.27s2.37.2,2.38,2.89c-2.12,0-4.14,1-5,1-1.09,0-3.54-1.01-6-1-1.33,0-2.66,0-4,0Z"/>
    <path class="cls-7" d="M427.56,620.38l4.99,8.98c-1.99-.02-4,.05-5.99,0-.84-3.3.66-6.49,1-8.99Z"/>
    <path class="cls-2" d="M714.35,502.51c-.23-5.97.88-13.09,2-18.98-.15,4.01.57,9.51.02,14.51-.19,1.77-.31,3.43-2.02,4.47Z"/>
    <path class="cls-12" d="M407.58,761.22c-.4,1.86-.9,2.64-1,4.99l-6,1c.52-2.51,1.72-4.53,2-5.99h5Z"/>
    <path class="cls-12" d="M760.32,651.35c.32-.33,8.67-.77,7.98,2.48-.77,3.65-11.2.76-7.98-2.48Z"/>
    <path class="cls-13" d="M676.38,471.55c-.1,3.78.5,7.67-.03,12.5-.21,1.88,1.21,4.04-1.97,3.48.2-4.98.85-11.5,2-15.98Z"/>
    <path class="cls-12" d="M784.29,652.35c1.03,1.38-4.66,7.55-5.93,3.41-1.41-4.57,2.61-5.04,5.93-3.41Z"/>
    <path class="cls-2" d="M712.35,521.49c-.21,3.06.19,5.67-.69,9.85-.37,1.77.45,3.72-2.31,3.13.84-4.23,1.49-8.98,3-12.99Z"/>
    <path class="cls-2" d="M722.34,481.53c-.5,4.83-.58,10.76-2,14.98.19-3.31-.15-7.78,0-11.54.07-1.92-1.01-4,2-3.45Z"/>
    <path class="cls-13" d="M674.38,513.5c3.19-2.04,2.19,10.32,1.77,10.81s-1.66.05-1.77.18c-.47.55-.15,3.25-3.41,2.88l-.59-.88c1.55-1.13,3.87-1.82,4-2,.32-.45-.04-9.07,0-10.99Z"/>
    <path class="cls-14" d="M410.58,757.23c-1.14,3.41-2.22,6.95-3,10.47-1.27,1.62-1.02-.8-.99-1.48.1-2.35.6-3.14,1-4.99.3-1.4.77-2.83,1-4h2Z"/>
    <path class="cls-2" d="M708.35,417.61c-1.97-1.72-6.1-2.78-7.99-4.99,5.81-.23,6.1-3.28,7.99,4.99Z"/>
    <path class="cls-2" d="M350.62,377.65c.26.83.06,3.79,0,4.99-5.43.45-6.13-6.6,0-4.99Z"/>
    <path class="cls-12" d="M367.61,637.36c.16,1.25-.24,2.85,0,4-2.82.23-5.47,0-5-3.49.16-1.17,3.83-.16,5-.5Z"/>
    <path class="cls-12" d="M583.45,568.44c2.9,2.01-1.64,6.76-4,4,1.37-1.34,1.97-2.18,4-4Z"/>
    <path class="cls-12" d="M346.13,719.28c4.28-1.2,3.95,4.33.98,4.98-2.63.58-3.5-4.27-.98-4.98Z"/>
    <path class="cls-7" d="M264.68,556.45c1.33,5.51-3.86,5.84-5,1,2.19-.62,3.22-.61,5-1Z"/>
    <path class="cls-12" d="M400.58,770.21c1.29-.31,4.21,1.43,4.88.88.49-.4-.59-2.3,1.11-1.87l-1,5.98c-.27.28-5.25-2.52-5.99-2.99.2-.64.93-1.44,1-2Z"/>
    <path class="cls-2" d="M722.34,477.54c-2.26-1.88-1.78-7.4.02-8.98,2.16-1.89,1.88,1.89,1.98,1.99.18.18,1.33-.63,2.17,1.35.61,1.43,1.55,4.91-.17,5.64-.79-2.29-1.6-4.59-2-6.99h-.99c.47,2.48-.76,4.79-1.01,6.99Z"/>
    <path class="cls-2" d="M733.34,497.52c-2.88-2.67-2.92-7.54-4-10.99,3.39,2.41,3.3,7.31,4,10.99Z"/>
    <path class="cls-2" d="M704.36,544.46c1-2.76,2.59-6.34,5-7.99-.62,2.98-.18,4.96-3.06,7.44-.63.55-1.72.37-1.94.55Z"/>
    <path class="cls-2" d="M715.35,533.48c-.71,2.66-.49,6.09-3,7.99-.77-2.16.21-8.65,3-7.99Z"/>
    <path class="cls-12" d="M239.7,723.26c-.31.69-.36,1.68-1,3l-5-1c.32-.65.7-1.35,1-2h5Z"/>
    <path class="cls-13" d="M683.37,455.56c-2.37-1.68-3.42-3.5-4.64,0h-1.36c1-4.85,5.42-6.24,6,0Z"/>
    <path class="cls-2" d="M744.33,535.47c.91-1.49.28-3.38,0-4.99,3.65-.54,4.07,5.23,1.39,5.96-.65.18-1.27-.96-1.39-.96Z"/>
    <path class="cls-12" d="M564.46,731.26c.45,2.17.62,4.15,1,5.99-3.15.83-4.64-7.23-1-5.99Z"/>
    <path class="cls-2" d="M717.35,469.55c1.51,2.14,2.3,11.16-1,9.99,0-3.39.8-6.57,1-9.99Z"/>
    <path class="cls-12" d="M236.7,730.26c-1.21,2.2-1.72,3-3,4.99-2.11-3.18-.73-5.38,3-4.99Z"/>
    <path class="cls-12" d="M817.27,666.33c.27,3.06-2.52,3.24-4.99,2.99-.27-3.06,2.52-3.24,4.99-2.99Z"/>
    <path class="cls-12" d="M202.73,680.31c.75,1.66-.85,3.2-1,4-3.61.64-1.47-2.4-.99-5,.97-.45,1.82.99,1.99,1Z"/>
    <path class="cls-12" d="M761.31,559.45c-.26,1.15.32,4.68,0,5-5.19.71-1.91-1.62-1.99-5h2Z"/>
    <path class="cls-12" d="M570.46,580.42l1.99,4.99c-1.68.28-2.94-.76-3.99-1.99.56-.72.71-1.51,2-3Z"/>
    <path class="cls-12" d="M693.37,697.29c-.32,1.35-.69,2.7-1,4-3.46.67-3.14-5.43,1-4Z"/>
    <path class="cls-13" d="M620.42,466.55c-1.32.13-3.58.81-6,1-.93-3.13,3.73-2.54,6-1Z"/>
    <path class="cls-13" d="M677.38,457.56c1.5,2.26,2.28,9.06-1,7.99.03-2.29.55-5.71,1-7.99Z"/>
    <path class="cls-13" d="M641.4,490.52c-2.09.74-3.41-3.03-3.76-4.67-.14-.65.77-1.22.76-1.33,2.14,1.45,2.14,4.05,3,5.99Z"/>
    <path class="cls-12" d="M215.72,758.23c-.28,1.42-.87,3.17-1,4-3.46.67-3.14-5.43,1-4Z"/>
    <path class="cls-13" d="M635.41,548.46c-1.45,2.15-4.06,2.14-6,3-.75-2.09,3.04-3.42,4.67-3.74.68-.13,1.26.76,1.33.74Z"/>
    <path class="cls-2" d="M741.33,521.49c-2.55-3.18-2.98-7.29-4-10.99,3.21,2.09,3.21,7.48,4,10.99Z"/>
    <path class="cls-2" d="M718.35,460.56c1.49,2.17,2.24,8-1,6.99.14-2.52.84-4.65,1-6.99Z"/>
    <path class="cls-13" d="M648.4,506.51c-.09-.1-1.4.34-2.07-.62-1.13-1.61-.51-4-.92-5.37,2.31.96,2.46,3.82,3,5.99Z"/>
    <path class="cls-12" d="M621.41,658.34v2.99s-3.99,0-3.99,0v-1.48c1.06-1.57,2.15-1.74,3.99-1.51Z"/>
    <path class="cls-2" d="M725.34,538.47c.78,3.04-3.68,2.35-6,3,.79-1.97,4.02-2.88,6-3Z"/>
    <path class="cls-13" d="M368.61,399.63c2.95-1.27,3.27,5.99,0,4.99-.06-1.64-.09-3.36,0-4.99Z"/>
    <path class="cls-12" d="M545.48,645.35v4.99s-1.49.01-1.49.01l-.51-5c.67,0,1.33,0,2,0Z"/>
    <path class="cls-12" d="M600.43,636.36c1.32.52,5.45,2.52,4,3.99-.32.32-2.54-.29-3,0l-1-4Z"/>
    <path class="cls-12" d="M557.47,724.26c3.96-1.18,4.55,3.52,1,3-.12-.57-.72-1.64-1-3Z"/>
    <path class="cls-12" d="M412.57,751.23c3.55-.53,2.96,4.18-1,3,.34-1,.66-2,1-3Z"/>
    <path class="cls-13" d="M499.51,375.65c-.15,2.12-.89,3.18-1,4-1.91-1.72-1.67-4.83,1-4Z"/>
    <path class="cls-13" d="M677.38,528.48c.07-1.97,1.26-3.24,3-4-.47,4.79-1.03,2.6-3,4Z"/>
    <path class="cls-13" d="M595.44,463.55c.54,4.23-2.83,1.07-4,1,.7-1.53,2.69-.92,4-1Z"/>
    <path class="cls-2" d="M731.34,537.47c-4.17,1.68-2.44.72-5,1,.85-1.62,3.4-.94,5-1Z"/>
    <path class="cls-12" d="M550.47,667.33c-3.8.61-4.3-1.23-1-3,.11.55.73,1.69,1,3Z"/>
    <path class="cls-2" d="M714.35,504.51c.09,1.23,3.22,4.52-1,4,.08-1.31-.53-3.29,1-4Z"/>
    <path class="cls-12" d="M519.49,652.34c.13-.1-.37-2.02.5-2.03,2.68-.03,3.94,3.88.5,3.02-.05-.22-.81-.61-1-1Z"/>
    <path class="cls-13" d="M566.46,435.59c-.49,1.63-1.49,1.79-3,2-.46-5.19,1.04-2.33,3-2Z"/>
    <path class="cls-13" d="M602.43,556.45c.78,2.69-2.56,2.86-4,1,1.76-.64,3.18-.7,4-1Z"/>
    <path class="cls-12" d="M753.32,682.31c.12.61-.18,1.53,0,2-1.62.09-3.62-.14-4-1.99,1.27-.18,2.81.21,4,0Z"/>
    <path class="cls-13" d="M499.51,358.67c.06-.99-.05-2,0-2.99,3.24-.62,1.51,1.36,1.99,2.99h-2Z"/>
    <path class="cls-2" d="M733.34,499.51c3.32-.65,1.53,1.74,2,4-1.49-.94-1.76-2.4-2-4Z"/>
    <path class="cls-13" d="M674.38,509.5c.02-2-.03-4,0-5.99,1.64,1.01,1.61,5.05,0,5.99Z"/>
    <path class="cls-13" d="M600.43,468.55c-.48,1.32-1.91.94-3,1-.5-4.06,2.14-1.06,3-1Z"/>
    <path class="cls-13" d="M368.61,408.62c.02.28,1.66,1.64,1,3-.62.15-1.53-.17-2,0l1-3Z"/>
    <path class="cls-12" d="M660.39,774.21c.03.19.82.6,1,1-.16.02-2.13,1.84-2.99.99-1.14-1.11.68-2.72,1.99-1.99Z"/>
    <path class="cls-2" d="M715.35,427.59c1.11.99,1.46-2.08,2,3-1.45-.43-1.96-1.54-2-3Z"/>
    <path class="cls-7" d="M381.6,564.44c.88,4.89-3.83,3.87-1,0,.32.05.67-.05,1,0Z"/>
    <path class="cls-13" d="M451.54,458.56l-2,3c.24-.5-.44-2.2.15-2.85.43-.48,1.64.01,1.85-.14Z"/>
    <path class="cls-13" d="M656.39,523.49c-.23-.22-1.79.25-2,0-.27-.32.18-2.2,0-3,1.44.42,1.91,1.57,2,3Z"/>
    <path class="cls-2" d="M712.35,422.6c.16.13,1.26-.35,1.79.19.39.4.63,2.68,1.21,3.81-1.73-.76-2.93-2.02-3-4Z"/>
    <path class="cls-13" d="M663.39,535.47c-.42,1.44-1.57,1.91-3,2,1.55-1.59-2.19-.84,3-2Z"/>
    <path class="cls-12" d="M797.29,681.31c-.1-1.7-.36-2.32,1.49-2,1.51.5-.49,1.9-.49,2h-1Z"/>
    <path class="cls-12" d="M742.33,681.31c1.13-5.67,1.78-.17,2,0h-2Z"/>
    <path class="cls-12" d="M581.44,664.34c1.09,1.09-.9,3.08-1.99,1.99s.9-3.08,1.99-1.99Z"/>
    <path class="cls-12" d="M412.57,649.35c1.09,1.09-.9,3.08-1.99,1.99s.9-3.08,1.99-1.99Z"/>
    <path class="cls-7" d="M406.58,569.44c-.11.01-1.35,1.62-1.99.99-.23-.22.22-1.68,0-1.99l2,1Z"/>
    <path class="cls-12" d="M705.35,561.45c1.09,1.09-.9,3.08-1.99,1.99s.9-3.08,1.99-1.99Z"/>
    <path class="cls-13" d="M602.43,562.44l-2,1c.18-.17-.12-1.41,0-1.99.99-.38,1.86.99,1.99.99Z"/>
    <path class="cls-12" d="M174.75,559.45c1.09,1.09-.9,3.08-1.99,1.99s.9-3.08,1.99-1.99Z"/>
    <path class="cls-12" d="M597.44,745.24c2.83-.31,1.72.2,2,2-2.77.29-1.76-.13-2-2Z"/>
    <path class="cls-13" d="M661.39,530.48c-.25.26-.51,5.79-3-1l3,1Z"/>
    <path class="cls-13" d="M668.38,527.48c-.23.29.25,1.73,0,2-.54.56-1.88-1-1.99-1l2-1Z"/>
    <path class="cls-2" d="M743.33,527.48c-1.01-1.2-1.67-3.47-2-4.99,2.75.76,1.61,3.32,2,4.99Z"/>
    <path class="cls-13" d="M386.59,424.6c.11,0,1.45-1.55,1.99-.99.23.24-.22,1.72,0,1.99l-2-1Z"/>
    <path class="cls-13" d="M392.59,426.6c.11,0,1.45-1.55,1.99-.99.23.24-.22,1.69,0,1.99l-2-1Z"/>
    <path class="cls-2" d="M745.33,516.49c-4.02.4-1.03-1.56-1-2,1.06.38.75,1.34,1,2Z"/>
    <path class="cls-2" d="M743.33,510.5c-3.93.4-1-1.49-1-2,.89.45.75,1.29,1,2Z"/>
    <path class="cls-12" d="M322.64,774.21c1.09,1.09-.9,3.08-1.99,1.99s.9-3.08,1.99-1.99Z"/>
    <path class="cls-13" d="M570.46,434.59l-2,1c.23-.26-.22-1.76,0-1.99.59-.59,1.88.99,1.99.99Z"/>
    <path class="cls-2" d="M737.33,492.52c-.3-.23-1.78.22-1.99,0-.7-.74.97-1.88.99-1.99l1,2Z"/>
    <path class="cls-2" d="M736.33,489.53c-.37-.19-1.38.12-1.99,0-.44-1.23.98-1.88.99-1.99l1,2Z"/>
    <path class="cls-2" d="M735.33,486.53c-3.94.39-1.03-1.49-1-2,.94.28,1.11,1.14,1,2Z"/>
    <path class="cls-12" d="M391.59,773.21c.39.3,1.65-.6,2,.51.98,3.03-1.82.51-2,.49v-1Z"/>
    <path class="cls-2" d="M715.35,542.47c-.85.26-.93,2.21-3,0h3Z"/>
    <path class="cls-2" d="M618.42,427.59h-3c2-.28,2.82.02,3,0Z"/>
    <path class="cls-2" d="M736.33,536.47c-2.27.38-2.82-.03-3,0h3Z"/>
    <path class="cls-13" d="M638.41,483.53c-.02-.72,0-1.88,0-2v2Z"/>
    <path class="cls-2" d="M737.33,509.5l-1-2c.03.11.64.63,1,2Z"/>
    <path class="cls-2" d="M643.4,434.59l-2-3c.25.39,1.88,2.85,2,3Z"/>
    <path class="cls-13" d="M653.39,517.49c-.08-.25-.67-1.13-1-2l1,2Z"/>
    <path class="cls-2" d="M631.41,425.6h-2c1.42-.19,1.88.01,2,0Z"/>
    <path class="cls-2" d="M736.33,506.51l-1-2c.03.11.66.54,1,2Z"/>
    <path class="cls-12" d="M573.95,585.42c.65.33.65.67,0,1v-1Z"/>
    <path class="cls-15" d="M762.31,337.69c-8.64.07-17.34-.05-25.98,0v-40.95h41.97c.04,3.98-.05,8,0,11.99-5.38.09-11.22-1.08-15.41,3.07-8.3,8.22-6.49,16.91-.57,25.9Z"/>
    <path class="cls-1" d="M778.3,308.73c.12,9.64-.09,19.33,0,28.97-5.32.02-10.68-.05-15.99,0-5.91-8.99-7.73-17.68.57-25.9,4.2-4.16,10.04-2.98,15.41-3.07Z"/>
    <path class="cls-10" d="M284.67,251.79v45.95h-32.98v-44.45c0-.11,1.39-1.5,1.5-1.5h31.48Z"/>
    <path class="cls-14" d="M562.46,755.23h2s-.5,7-.5,7c-.86.02-2.03-5.75-2.5-7h1Z"/>
    <path class="cls-9" d="M635.22,393.47c-.92,1.61-11.54,6.18-9.86-1.22.22-.95,6.98-3.14,8.48-3.55,1.58.38,2.13,3.46,1.38,4.77Z"/>
    <path class="cls-3" d="M667.38,417.61l4.99-1c-.31,4.28,1.89,12.52-4.99,10.99.32-1.1.24-8.49,0-9.99Z"/>
    <path class="cls-9" d="M380.6,383.64h-5.01s0-6,0-6c4.97-.69,5.42,1.61,5,6Z"/>
  </g>
</svg>