<?xml version="1.0" encoding="UTF-8"?>
<svg xmlns="http://www.w3.org/2000/svg" viewBox="0 0 1024 1024">
  <defs>
    <style>
      .cls-1 {
        fill: #232729;
      }

      .cls-2 {
        fill: #f5f6f7;
      }

      .cls-3 {
        fill: #222820;
      }

      .cls-4 {
        fill: #f9f9fa;
      }

      .cls-5 {
        fill: #1e2325;
      }

      .cls-6 {
        fill: #a8a9a8;
      }

      .cls-7 {
        fill: #383e3f;
      }

      .cls-8 {
        fill: #7f7373;
      }

      .cls-9 {
        fill: #232628;
      }

      .cls-10 {
        fill: #e7e7e7;
      }

      .cls-11 {
        fill: #bdbebe;
      }

      .cls-12 {
        fill: #fbfbfb;
      }
    </style>
  </defs>
  <g id="_검은색_배경" data-name="검은색 배경">
    <rect class="cls-8" x="0" y="0" width="1024" height="1024"/>
  </g>
  <g id="_레이어_1" data-name="레이어 1">
    <path class="cls-9" d="M216.72,443.58c-7.35-7.47-23.2-23-15.88-34.35,3.75-5.81,13.37-4.7,18.93-6.05,8.36-2.02,19.69-6.13,26.4-11.57,15.07-12.23,14.31-35.15,33.58-47.34,3.24-2.05,10.58-4.06,11.92-5.06s1.51-7.28,3.95-10.03c3.54-3.98,7.09-.86,8-1.48.35-.24.8-5.16,1.95-6.57,1.85-2.27,10.37-1.53,13.56-1.41,16.56.61,44.02,3.02,50.24,21.7,2.18,6.54.69,10.56.44,17.05l36.5,25.03c4.29,1.08,4.64-9.97,12.63-5.71,1.06.57,16.64,13.83,17.11,14.86,2.04,4.39-1.89,7.34-3.49,10.95,4.04,1.46,6.15,4.67,10.54,5.97,9.83,2.9,31.7,2.64,42.88,3.09,53.94,2.16,108.05,1.28,161.96,3.91,20.02.98,43.96,8.94,61.96,9.06,31.87.22,53.93-47.46,59.1-73.76,4.55-23.14,3.38-45.04,2.27-68.44,5.02-5.19,9.43,4.89,11.84,9.01,34.76,59.59,4.9,132.4-51.76,164.68,3.03,5.47,5.93,11.31,7.48,17.43,7.45,29.48-7.52,61.3,1.79,91.1,7.2,23.05,26.67,40.28,40.69,58.72l-4,2c-16.3-16.53-29.57-29.84-39.14-52.27-7.37-17.25-7.92-32.42-6.82-50.62,1.15-19.07,6.52-33.1-.52-52.92-1.21-3.4-7.85-13.27-7.34-15.29.63-2.47,13.44-8.93,16.74-11.31,27.5-19.8,47.46-52.69,50.07-86.29.01-.19.97-1.14,1.03-2.42.95-19.85-2.38-42.05-14.01-58.51,4.04,39.13-1.79,84.91-29.47,114.89-31.3,33.89-55.41,14.74-93.95,11.98-41.1-2.94-82.79-1.65-123.94-2.96-25.9-.83-55.32-.61-80.88-3.05-8.88-.85-13.42-5.03-20.9-8.91-20.35,25.52-41.8,50.46-65.55,72.85-1.18,1.11-5.1,1.65-4.84,4.3,5.52,14.78,12.66,28.68,19.82,42.64,11.76,22.92,22.24,41.06,41.95,58.45,6.23,5.49,16.26,10.1,19.18,17.78,1.81,4.75,2.55,11.3,3.52,16.46,4.68,24.82,7.28,50.19,11.28,75.12h14.99c-.3-34.46.38-68.96.05-103.42-.03-2.74-2.27-6.93.98-8.96,1.45-.91,3.34-.2,3.97-.49l.99,111.88h5.01s4.99-100.89,4.99-100.89c-.74-.79-10.86,4.52-8.88-3.91,49.35-16.88,99.61-34.71,147.14-56.17,4.45-2.01,12.45-9.51,13.68-.4,3.49,25.9-4.21,53.56,3.46,80.45,5.14,18.02,23.98,44.01,36.47,57.94l-2,4c-3.47-4.38-9.93-9.59-13.96-14.51-6.35-7.75-12.18-15.94-17.51-24.43-7.88,8.15-16.17,15.85-24.99,22.98-.9.73-2.18.73-2.49.97l-.77-.59.77-5.4c3.86-3.18,21.08-19.16,23.03-22.42.72-1.21,2.12-5.63-.54-4.54-21.89,24.32-47.07,43-77.47,55.42-49.28,20.13-127.51,27.6-175.86,2.51-11.68-6.06-26.1-17.43-32.16-29.28-2.52-4.92-6.9-15.46-7.91-19.1-2.05-7.42-3.52-21.14-3.94-28.99-1.33-24.46,1.47-49.93-.44-74.48l-3.51-.98c-.93,7.81-.03,15.5-.01,23.47.02,10.52.63,21.8.01,32.47,0,.14-.94,1.14-1.04,2.42-.39,4.9,2.5,13.72-4.96,13.56-1.09-22.44.76-45.76.06-68.31-7.53-1.65-7.68-12.25-3.08-17.12,1.75-1.85,7.73-3.22,7.01-4.96s-5.65-4.84-7.19-7.81c-4.05-7.84-1.09-16.89,4.19-23.21.85-1.02,3.06-1.33,3.07-2.01.01-2.99-8.24-10.17-5.97-13.35.46-.64,7.56-1.14,7.96-5.63.52-5.98-15.39-22.45-20.97-24.98-11.58-5.24-34.19,7.12-47.02,10.05-16.17,3.69-34.65,4.47-49.97-2.5-.31-1.35-1.43-1.42-2-2ZM307.65,375.65c1.62,7.18,3.98,12.51,12.51,10.98,2.09-.37,2.29-1.91,2.48-1.99,9.41-3.98,15.61-10.49,22.5-17.97,3.55-3.86,9.19-12.92,12.4-15.58,1.67-1.38,2.94-1.7,5.08-1.42.32,1.03.92,4.13,1.99,3.99.17-4.03.29-7.48-1.22-11.29-.41-1.04-1.58-1.37-1.77-1.69-6.59-10.91-20.37-12.96-32.49-13.97-2.27-.19-16.68-.93-17.47-.56-1.18.56-1.72,1.85-1.97,3.09-2.32,11.61-4.54,35.31-2.04,46.41ZM298.66,338.69c.65.65,5.54-.03,4.99-2.48-.87-3.83-7.27.2-4.99,2.48ZM300.66,348.68c.2-1.08,1.5-2.41.99-3.99-26.69.57-30.36,20.24-40.79,38.62-8.17,14.4-21.23,21.79-37.14,25.31,5.21,10.08-3.18,15.03-10.93,19.56-.29,1.2,4.29,7.34,5.39,8.43,16.26,16.06,59.32,5.3,77.48-5.03,3.18.44,5.73-1.56,8.57-1.92,6.55-.82,16.27,2.88,21.4,6.91,5.98,4.68,11.8,14.24,15.78,20.69.47.77-.33,1.7,1.69,1.28l58.97-65.94c1.09-2.31.61-3.25-.98-5.01-3.24-3.58-15.39-10.42-20.2-13.81-1.14-.8-2.86-.83-3.31-1.14-.09-.06.19-1.38-.72-2.01-2.98-2.07-15.21-11.63-17.62-10.9-.94.29-7.09,8.79-8.62,10.43-7.91,8.45-23.61,24.97-36.01,23.04-16.86-2.62-16.3-32.03-13.98-44.54ZM339.63,476.54c1.44,1.92,6.03,10.11,8.99,8.55,2.32-1.22,10.9-9.15,13.52-11.52,10.6-9.57,22.39-22.27,31.96-32.98,12.47-13.95,24.1-28.79,35.08-43.94.78-2.72-8.17-8.33-10.61-10.02-.64-.44-1.47-3.19-3.87-1.85-1.04.58-11.87,16.51-14.15,19.3-19.69,24.16-40.94,46.93-63.48,68.46-1.5,2.3,1.81,3,2.55,3.99ZM214.72,410.62c-4.74-.49-9.79,1.32-8.98,6.99,2.11-2.02,4.56-3.06,7.01-4.51,1.28-.76,2.52.18,1.97-2.48ZM337.29,485.63c-6.06,1.64-10.61,24.99,3.76,22.83,6.03-.91,6.34-7.29,5.51-12.38-.42-2.54-6.84-11.11-9.27-10.45ZM437.55,695.3c-4.76-19.88-8.53-40.11-13.47-59.95-11.14-44.74-39.65-75.48-58.65-116.18-1.7-3.64-11.65-30.53-13.31-30.62-2.75-.16.38,6.19.53,7.44,1.13,9.77-2.87,12.84-8.03,20,9.98.99,15.19,16.64,4.94,20.1.73,26.24-.75,52.6.02,78.84.29,9.92,1.38,25.14,5.54,34.42,1.32,2.94,5.02,8.26,7.08,10.91,18,23.14,47.7,30.46,75.35,35.04ZM348.62,528.48c-.04-1.33.32-2.82-.46-4.03-1.7-2.62-19.3-2.78-17.52,4.03h17.99ZM630.41,537.48l-138.65,54.17-5.24,102.66c56.06-4.64,114.24-27.91,148.85-73.38-8.84-26.79-3.51-55.7-4.96-83.45ZM446.54,695.29c-1.23-15.76-3.71-31.61-6.16-47.28-1.53-9.79-4.14-35.7-7.74-43.21-.44-.91-.74-1.78-1.71-2.29l-19.36-13.09,1.95,1.73c2.33,8.23,8.12,14.77,11.08,22.69,8.98,24.08,9.91,55.71,18.96,78.94.6,1.55.83,2.89,2.98,2.5Z"/>
    <path class="cls-5" d="M171.75,670.32c.17-32.13-.17-64.3.05-96.44.22-1.02-.72-3.45-1.55-3.45h-24.48c-.82-4.97-2.34-20-.48-23.96.22-.47,1.81-2.01,1.98-2.01h24.48v-17.48c0-.37,3.01-5.7,3.56-6.43,4.31-5.69,11.64-7.38,18.45-5.59,3.87,1.02,11.96,9.1,11.96,13.01v16.48h26.48c.33,0,1.52,1.32,2.5,1v23.47c0,.11-1.39,1.5-1.5,1.5h-26.48c.32.98-1,2.17-1,2.5v127.36h25.48c.6,0,6.68,2.69,7.56,3.43,2.83,2.38,3.68,8.13,4.04,8.44.68.6,7.36-.33,9.95.55.83.28,5.54,4.7,5.89,5.35,3.81,7.26-3.41,14.1-10.96,12.19.15,1.42-.24,3.11-.03,4.43.17,1.08,17.49.25,12.03,13.55-.09.22-1.55.16-.99,1.99,1.73.8,3.25-.87,3.99-.99,1.19-.19,2.7.08,4,0,.14,1.5,2.86,1.5,3,0,6.97-.13,14.01.02,20.98,0l1,4.99c-3.32,0-6.67,0-9.99,0,1.57-4.74-7.78-4.42-6,0-5.65,0-11.34,0-16.99,0,.46-4.36-.33-2.32-2.48-2.97-5.64-1.71-11.04-5.5-11.51,2.97-1.33,0-2.66,0-4,0l2.99-4.99c-2.16-.08-4.36.09-6.54,0-1.92-.09-4.01,1.04-3.45-2,6.65-.04,13.34.03,19.99,0-.16-1.76.76-4.15-1-4.99l-.5-.98-.5.98c-2.35-.32-5.47.04-7.99,0,.77-3.17-3.88-2.98-3,0-24.29-.24-48.66-.05-72.95,0l-3.99-4.99c21.28-1.3,44.51,1.7,65.56.07,1.85-.14,2.84-.99,3.38-1.07,2.64-.39,5.34-.75,7.99-1.01,1-6.7-4.22-4.85-8.99-4.98l-1-4.99c2.16-.08,4.37.09,6.54,0,1.92-.09,4.01,1.04,3.45-2h8.99c-.19,1.51-.18,2.54,1.49,2,1.07-.34.26-1.35.51-2,1.61-4.22-.45-4.21-4.48-5.01l-143.97-.04c-4.3.43-6.02.92-4.44,5.05.19.51-.6,1.74.63,2.04,1.71.41,7.79-.54,8.36-.04-.47,6.25-5.75.65-5.98.99.19,1-.31,3.54-.01,4-3.82.67-9.2-1.54-9.97-5.52-1.76-9.1,7.34-10.29,4.97-19.45,1.16-.14,4.32-4,5.5-4h69.45c.04-10.31-.05-20.66,0-30.97ZM182.74,522.49c-.79.44-2.2.2-3.08,1.38-2.43,3.26-.1,16.85-.91,21.59,1.5.66,2.65-.95,2.99-.99,5.61-.65,12.24.47,17.99,0,.6-8.49.82-22.53-10.59-23.95-3.94-.49-3.9.58-6.41,1.97ZM154.77,551.46c-1.33.08-2.68-.07-4,0v12.41c.16,1.11,2.86.51,4,.58,24.01,1.41,49-.69,73.01-.44,1.98-1.38.49-9.88.94-12.55-24.28,1.1-49.82-1.45-73.95,0ZM178.75,685.31c-3.02-.56-1.93,1.53-2,3.45s-.35,9.67.24,10.35c.41.47,1.64.06,1.76.19.73.77-1.66,1.68,3,2,5.93.4,12.04-.29,17.99,0v-130.85c-5.86.35-12.2-.48-17.99,0-.92.08-2.86-.55-3.02.59.03,38.09.02,76.2.02,114.28ZM235.71,712.28c.7-1.42-1.54-4.99-2.5-4.99H103.8v4.99h131.9Z"/>
    <path class="cls-5" d="M615.42,655.34l-.77,5.4.77.59c-16.13,12.72-25.8,19.39-44.97,27.97-6.66-2.77-4.04-.46-5,2-.63,1.61-15.13,6.58-17.96,7.51-20.33,6.71-41.65,10.36-62.92,12.51l-1.06,37.91c4.98.02,10.01-.05,14.99,0v4.99c-1.33,0-2.66,0-4,0,1.11-4.92-3.55-2.54-7-3v3c-1.33,0-2.66,0-3.99,0,.69-4.52-2.73-4.37-2,0-1.67,0-3.33,0-5,0,1.21-4.64-5.31-4.43-4,0-21.3,0-42.65,0-63.95,0,1.27-4.86-6.26-4.86-5,0-13.27,0-26.98-1-39.97-1l-2-4c2.66,0,5.33,0,7.99,0l1.49.99.51-.99c2,0,4,0,6,0,.66,1.57,4.34,1.57,5,0,5.76.01,42,1.07,43.84-.13.35-.23,1.7-6.23,2.57-7.93,3.09-6.03,9.69-11.86,16.52-12.98.47-.65-1.55-7.33-1.96-8.93,4.74-.5,9.33,2.29,7.99-3.99-.65-.09-1.35.08-2,0,.27-.86,1.28-3.74,1-3.99h-2.99s0,3.99,0,3.99c.65.08,1.35-.08,2,0-.18.55.2,1.84,0,2-.24.19-4.64-1.4-5.99,0-.43-1.52-1.43-3.16-1.46-5.03-8.96-1.54-18.39-2.96-27.52-4.95l1-5.99c65.78,14.48,148.02-3.2,199.85-45.95ZM474.53,714.27c-.41.24-2.44-.41-2.86.08-.27.31-.34,5.7-.14,5.92.24.26,3.09-.17,4,0,.68,9.04-.5,18.83,0,27.96l2-1.47c-.17-4.54,2.24-34.21.99-35.47-2.31-2.35-3.75,2.85-3.99,2.99ZM469.53,712.28h-13.99c-.02,4.09,4.3,16.06,2.52,18.99-1.72,2.84-9.23,1.65-12.59,2.42-6.09,1.38-12.86,9.12-12.92,15.55h36.97v-36.96ZM449.55,724.26c-.14.15-4.11-.13-1.99,1.99s1.83-1.87,1.99-1.99c.86-.65,4.02,1.72,2.99-2.99-2.79-.76-2.34,2.29-2.99,2.99ZM451.05,726.26v1c.65-.33.65-.67,0-1Z"/>
    <rect class="cls-2" x="525.49" y="284.75" width="80.94" height="17.98"/>
    <rect class="cls-2" x="567.46" y="252.79" width="78.94" height="17.98"/>
    <rect class="cls-2" x="578.45" y="316.72" width="75.94" height="17.98"/>
    <path class="cls-3" d="M240.7,723.26c.56,3.03-1.53,1.91-3.45,2-2.17.1-4.37-.08-6.54,0l1,4.99c-35.82-1.03-80.08-2.28-115.45-.04-1.98.12-7.82.24-6.45,3.53l122.9,2.51c-.54.08-1.53.93-3.38,1.07-21.05,1.63-44.28-1.37-65.56-.07l3.99,4.99c-2.99,0-6,0-8.99,0l2.99-4.99h-34.47s.5,4.99.5,4.99c-2.99.03-6-.05-8.99,0l-.58-5.01c-3.97-.57-8.58-.04-8.42,5.01-2.96.11-4.65.72-6.99,1-1.9.22-4.05-.16-6,0,.36-7.59,6.69-7.31,7.03-8.65,1.31-5.14-1.88-4.09-2.04-4.33-.3-.46.2-3,.01-4,.23-.34,5.51,5.25,5.98-.99-.57-.5-6.64.45-8.36.04-1.23-.3-.44-1.53-.63-2.04h141.89Z"/>
    <path class="cls-5" d="M781.3,624.37c2.15,2.83,5.89,5.42,6.76,9.73l37.31,115.03c3.28.26,6.61.06,9.89.1,5.64.08,11.36-.24,16.99,0v4c-10.32,0-21.37.99-31.98,1,.8-2.13-.64-3.61-1-4.99-8.49-33.09-23.04-79.15-35.5-110.85-.75-1.92-5.43-10.96-6.47-12.01l4-2Z"/>
    <path class="cls-1" d="M338.63,617.38c-4.69-.96-2.68,2.56-2.99,5.99l2.99-.99c4.48,31.72,18.38,52.41,45.97,66.93,4.39,2.31,14.76,8.74,18.99,9.99v4.99c-49.47-14.93-70.48-48.11-72.95-98.89,7.45.16,4.56-8.66,4.96-13.56.1-1.28,1.03-2.28,1.04-2.42l2,27.97Z"/>
    <path class="cls-2" d="M716.35,252.79c1.95,6.19-.11,11.84,1,17.98h-44.47c-.11,0-1.5-1.39-1.5-1.5v-14.98c0-.11,1.39-1.5,1.5-1.5h43.47Z"/>
    <rect class="cls-2" x="629.41" y="284.75" width="44.97" height="17.98"/>
    <path class="cls-2" d="M872.23,449.57v-17.98h42.47c.11,0,1.5,1.39,1.5,1.5v14.98c0,.11-1.39,1.5-1.5,1.5h-42.47Z"/>
    <path class="cls-5" d="M965.16,749.24l1,4.99c-6.31.06-12.67-.03-18.99,0-13.64.07-27.33.03-40.97,0l1-4.99c1.33-.02,2.67.03,4,0,.72-.02,2.2,0,3,0,16.86-.16,33.93.37,50.96,0Z"/>
    <path class="cls-5" d="M86.82,749.24c3.05,1.26,3.52,1.37,3,4.99-9.98-.02-20,.07-29.98,0-8.64-.06-17.34.08-25.98,0v-4.99c16.71.37,36.47,1.03,52.96,0Z"/>
    <path class="cls-5" d="M353.62,749.24v4.99c-17.64,0-35.32,0-52.96,0l-1-4.99c17.97,0,35.99,0,53.96,0Z"/>
    <path class="cls-1" d="M102.8,743.24c.62,5.22,5.18,3.82,8.99,4,1.48,5.35-5.66,3.35-6,4.51-1.19,4.05,7.09-1.98,6,2.49-7.14,0-14.58.01-21.98,0,.52-3.63.06-3.73-3-4.99.09,0-.13-.84,1.48-.97,3.15-.26,6.36.11,9.51-.04-.86-1.71-1.09-3.06-1-4.98,1.95-.16,4.09.22,6,0Z"/>
    <path class="cls-2" d="M825.99,456.76c12.37-2.72,16.85,15.05,6.33,18.33-14.15,4.41-17.64-15.84-6.33-18.33ZM833,471.29c4.16-3.94.81-12.33-5.18-11.73-11.6,1.15-3.01,19.49,5.18,11.73Z"/>
    <path class="cls-1" d="M966.16,754.23l-1-4.99c.13,0,1.13-1.01,2.42-1.04,3.85-.09,18.02-.64,20.14.96,2.23,1.68,2.12,4.5-1.08,5.07-5.11.92-14.7-.05-20.48,0Z"/>
    <path class="cls-1" d="M33.86,749.24v4.99c-5.78-.05-15.37.91-20.48,0-3.2-.57-3.31-3.39-1.08-5.07,2.1-1.58,15.43-1.07,19.14-.96,1.29.04,2.29,1.04,2.42,1.04Z"/>
    <path class="cls-1" d="M361.61,749.24l2,4c-2.44,0-6.46,1-9.99,1v-4.99c2.35,0,5.54,0,7.99,0Z"/>
    <path class="cls-1" d="M299.66,749.24l1,4.99h-8.99l-1-4.99c2.69,0,6.2,0,8.99,0Z"/>
    <path class="cls-5" d="M411.57,701.29v4.99c-2.73-.67-5.28-1.18-7.99-2v-4.99c1.91.57,5.8,1.44,7.99,2Z"/>
    <path class="cls-1" d="M449.55,715.27c-.65-.08-1.34.08-2,0v-3.99s2.99,0,2.99,0c.28.24-.72,3.13-1,3.99.65.08,1.34-.08,2,0,1.34,6.29-3.25,3.5-7.99,3.99-.15-.58.16-1.44,0-2,1.36-1.4,5.75.19,5.99,0,.21-.16-.17-1.45,0-2Z"/>
    <path class="cls-1" d="M415.57,701.29l-1,5.99c-1.36-.3-2.25-.82-3-1v-4.99c1.09.28,2.84-.25,4,0Z"/>
    <path class="cls-1" d="M382.6,749.24c-.66,1.57-4.34,1.57-5,0,1.4,0,3.59,0,5,0Z"/>
    <path class="cls-1" d="M262.69,749.24c-.74.12-2.27,1.79-3.99.99-.55-1.84.9-1.77.99-1.99l3,1Z"/>
    <path class="cls-1" d="M913.2,748.24l1,1c-.8,0-2.28-.02-3,0,.43-.82,1.52-.7,2-1Z"/>
    <path class="cls-1" d="M269.68,749.24c-.14,1.5-2.86,1.5-3,0,1.63-.1,2.06.02,3,0Z"/>
    <path class="cls-1" d="M371.6,749.24l-.51.99-1.49-.99c.59,0,1.43,0,2,0Z"/>
    <path class="cls-5" d="M677.38,684.31c3.29-.78,1.13,4.43,5,4-3.1,14.6-6.89,29.12-10.97,43.47-3.5,5.44-9.05,2.85-14.42,3.56-8.38,1.11-10.06,6.78-14.58,11.9-.28.32-1.75-.61-2,.51-.4,1.78.38,1.64,2,1.49,1.96-.18,3.59-1.03,6-1l-1,5.99c-14.64,0-29.33,0-43.97,0l-1-4.99c6.14-.03,28.49,1.19,32.34-.13,1.97-.68,2.23-5.25,3.63-6.86,3.5-2.43,6.76-8.97,10.99-10.99,4.82-2.29,11.66-1.91,16.89-2.1,2.26-13.8,10.42-31.19,11.09-44.85Z"/>
    <path class="cls-1" d="M169.75,748.24c-1.56,4.41,6.39,4.7,5,0,7.44.01,16.08-.97,23.98-1-1.17,6.13,2.81,3.6,6.99,3.99l-2.99-3.99c4.32-.02,8.67.02,12.99,0v4c4.5.39,4.29.26,4-4,1,0,2,0,3,0v4c4.5.39,4.29.26,4-4,2.33,0,4.67.01,6.99,0-.56,3.03,1.53,1.91,3.45,2,2.17.1,4.37-.08,6.54,0l-2.99,4.99c-36,0-72.66.05-108.92,0l.99-3.99c-3.73,1.18-6.25,1.88-5.99-3,14.2.19,28.98.97,42.97,1Z"/>
    <path class="cls-1" d="M781.3,749.24v4.99c-29.3.01-58.64-.01-87.93,0-.22-1.4,1.54-5.26,1-5.99l86.94,1Z"/>
    <path class="cls-1" d="M544.48,749.24c-.56,3.02,1.53,1.93,3.45,2,2.68.09,5.43-.21,8.09,0,3.07.24,2.57-.49,2.45,3-19.97,0-39.99,0-59.96,0v-4.99c15.3.13,30.66-.02,45.97,0Z"/>
    <path class="cls-1" d="M653.39,749.24c-.88,2.98,3.77,3.17,3,0,1.47-.02,3.4-1.02,5.45-1.04,2.93-.02,20.81-.76,21.53.04.22.24-.39,2.47.07,2.88,1.5,1.33,7.36-2.32,5.93,3.12-13.97,0-27.99,0-41.97,0l1-5.99c1.79.02,3.75,1.02,5,1Z"/>
    <path class="cls-5" d="M691.37,731.26l1.33.03c.98,1.76,1.39,2.46,3.67,1.97-.76,2.39-4.85,13.58-3.77,14.8.38.43,1.69.08,1.77.18.54.74-1.22,4.59-1,5.99-1.33,0-2.66,0-4,0,1.43-5.44-4.43-1.78-5.93-3.12-.45-.4.16-2.63-.07-2.88,2.89.15,2.46-1.56,3.15-3.35,1.71-4.38,3.36-9.19,4.84-13.64Z"/>
    <path class="cls-5" d="M126.79,747.24c-.26,4.88,2.26,4.18,5.99,3l-.99,3.99c-3.32,0-6.67,0-9.99,0,.64-3.1-6.45-4.3-6,0-1.33,0-2.66,0-4,0,1.09-4.47-7.2,1.57-6-2.49.34-1.16,7.48.85,6-4.51,4.96.22,10.02-.07,14.99,0Z"/>
    <path class="cls-1" d="M602.43,749.24l1,4.99c-7.98,0-16,0-23.98,0v-4.99c7.65-.02,15.34.04,22.98,0Z"/>
    <path class="cls-5" d="M789.29,747.24c.23.46-.61,1.78.57,2.05,2.06.48,6.79-.11,9.42-.06v4.99c-5.98,0-12,0-17.99,0v-4.99c2.88-.07,2.33-1.44,3-3,1.87.12,4.13-.75,5,1Z"/>
    <path class="cls-1" d="M819.27,749.24c.35,1.38,1.8,2.86,1,4.99-6.98,0-14,0-20.98,0v-4.99c6.64.14,13.34-.1,19.99,0Z"/>
    <path class="cls-1" d="M864.24,748.24c2.8.31,7.25,1.75,9.99,2v3c-7.45,0-14.67,0-21.98,0v-4c1.99.08,2.65.94,3,1,.14.02.25.59.54.65.27.06.37-.63.46-.65,3.54-.92,2.73-2.48,3-5.99,1.4,1.03.8,3.56,1.95,4.58,1.43,1.27,2.88-.6,3.05-.59Z"/>
    <path class="cls-1" d="M244.7,754.23c.47-8.47,5.87-4.68,11.51-2.97,2.15.65,2.94-1.39,2.48,2.97-4.76,0-9.23,0-13.99,0Z"/>
    <path class="cls-1" d="M576.45,749.24v4.99c-4.3,0-8.34-1-12.99-1l1-4c3.99,0,8,0,11.99,0Z"/>
    <path class="cls-5" d="M564.46,749.24l-1,4c-.81,0-2.86,1-5,1,.12-3.49.62-2.76-2.45-3-2.66-.21-5.41.09-8.09,0-1.92-.07-4.01,1.02-3.45-2,6.65.01,13.34.01,19.99,0Z"/>
    <path class="cls-5" d="M902.21,749.24v4.99c-3.65,0-7.34,0-10.99,0-.16-1.26.23-2.83,0-4,3.73-.99,7.19-.91,10.99-1Z"/>
    <path class="cls-1" d="M890.22,747.24c.1.23.97,2.84,1,3,.23,1.16-.16,2.74,0,4-2.8,0-5.19-1-7.99-1,.13-.94-.19-2.15,0-3,.15-.68.73-1.51,1-3,4.61,1.66,3.99-4.66,6,0Z"/>
    <path class="cls-5" d="M883.22,750.23c-.19.85.13,2.05,0,3-2.78,0-6.22,0-8.99,0v-3c2.93.27,6.04-.18,8.99,0Z"/>
    <path class="cls-1" d="M907.21,749.24l-1,4.99c-1.33,0-2.66,0-4,0v-4.99c1.66-.04,3.33.02,5,0Z"/>
    <path class="cls-1" d="M487.52,754.23v-3c3.44.46,8.1-1.92,6.99,3h-6.99Z"/>
    <path class="cls-1" d="M275.68,754.23c-1.79-4.42,7.57-4.74,6,0h-6Z"/>
    <path class="cls-1" d="M403.58,754.23c-1.27-4.86,6.26-4.86,5,0h-5Z"/>
    <path class="cls-5" d="M579.45,749.24v4.99c-1,0-2,0-3,0v-4.99c1,0,2,0,3,0Z"/>
    <path class="cls-1" d="M115.79,754.23c-.45-4.3,6.63-3.1,6,0-2,0-4,0-6,0Z"/>
    <path class="cls-1" d="M472.53,754.23c-1.31-4.43,5.21-4.64,4,0h-4Z"/>
    <path class="cls-1" d="M481.52,754.23c-.73-4.37,2.69-4.52,2,0h-2Z"/>
    <path class="cls-12" d="M790.29,357.67l-11.92-1.92c-4.96,24.59-16.65,49.97-36.03,66.36-25.86,21.87-42.09,11.89-71.62,7.65-6.71-.96-13.5-1.5-20.24-2.08-1.61,10.55.26,22.41,3.64,32.65,10.94,33.11,42.41,59.25,77.21,63.16-1.1,18.2-.55,33.37,6.82,50.62,9.58,22.43,22.84,35.74,39.14,52.27,1.04,1.05,5.72,10.09,6.47,12.01,12.45,31.7,27.01,77.77,35.5,110.85-6.65-.1-13.34.14-19.99,0-2.63-.05-7.37.53-9.42.06-1.18-.27-.34-1.59-.57-2.05,1.6-2.36,2.55-4.79,4.49-7,2.75-3.13,8.11-5.35,7.33-9.24l-38.98-80.98c-37.43-43.05-89.53-61.35-105.25-120.54-1.1-4.13-1.63-13.05-3.01-15.97s-5.12-2.37-5.48.98c-6.59.22-12.21,5.62-17.97,8.51-48.92,24.59-106.74,37.71-156.9,60.41-.63.28-2.52-.42-3.97.49-3.25,2.03-1.01,6.23-.98,8.96.33,34.47-.34,68.97-.05,103.42h-14.99c-4.01-24.94-6.61-50.3-11.28-75.12-.97-5.15-1.71-11.7-3.52-16.46-2.92-7.68-12.96-12.29-19.18-17.78-19.71-17.39-30.2-35.53-41.95-58.45l1.84-3.23-16.83-43.71c23.75-22.39,45.2-47.33,65.55-72.85,7.48,3.87,12.02,8.06,20.9,8.91,25.56,2.45,54.98,2.23,80.88,3.05,41.15,1.31,82.84.03,123.94,2.96,38.55,2.76,62.65,21.91,93.95-11.98,27.69-29.97,33.51-75.76,29.47-114.89,11.63,16.46,14.97,38.65,14.01,58.51-.06,1.28-1.02,2.24-1.03,2.42ZM633.35,427.65l-195.79-7.04c12.09,16.64,18.03,29.38,17.03,50.48-1.29,27.36-8.43,67.53,29.69,74.12,20.88,3.61,62.17-10,82.7-17.71,43.15-16.2,64.84-54.76,66.37-99.85Z"/>
    <path class="cls-7" d="M790.29,357.67c-2.61,33.6-22.57,66.49-50.07,86.29-3.3,2.38-16.11,8.84-16.74,11.31-.52,2.02,6.13,11.9,7.34,15.29,7.04,19.82,1.67,33.85.52,52.92-34.81-3.91-66.27-30.05-77.21-63.16-3.38-10.24-5.26-22.1-3.64-32.65,6.74.58,13.53,1.11,20.24,2.08,29.54,4.25,45.77,14.23,71.62-7.65,19.38-16.4,31.07-41.78,36.03-66.36l11.92,1.92Z"/>
    <path class="cls-10" d="M648.4,514.5c-.56,5.16,2.57,16.96,4.08,22.39,2.88,10.38,7.21,20.83,13.1,29.86,2.16,3.3,11.18,13.09,11.64,15.41.55,2.78-.84,5.03-.88,7.71-.49,32.07,5.64,48.8,27.02,72.46-5.1,3.69-9.88,10-14.93,13.55-1.77,1.24-2.77,1.84-5.06,1.44-1.03-1.69-6.57-4.52-6.99-4.99-12.48-13.93-31.33-39.92-36.47-57.94-7.67-26.89.03-54.55-3.46-80.45-1.23-9.11-9.23-1.6-13.68.4-47.53,21.46-97.79,39.29-147.14,56.17-1.98,8.43,8.14,3.11,8.88,3.91l-4.99,100.89h-5.01s-.99-111.88-.99-111.88c50.17-22.7,107.98-35.82,156.9-60.41,5.76-2.89,11.38-8.29,17.97-8.51Z"/>
    <path class="cls-7" d="M300.66,348.68c-2.32,12.51-2.89,41.92,13.98,44.54,12.41,1.93,28.1-14.59,36.01-23.04,1.53-1.64,7.68-10.15,8.62-10.43,2.41-.73,14.64,8.83,17.62,10.9.9.63.63,1.94.72,2.01-6.16,27-26.17,53.14-51.96,63.93-5.14-4.03-14.85-7.73-21.4-6.91-2.84.35-5.39,2.36-8.57,1.92-10.69-1.49-28.01-21.52-32.15-31.29-3.61-8.53.56-15.09,4.31-23.01,6.68-14.1,15.94-27.17,32.83-28.61ZM278.37,379.82c-4.36,1.34-6.73,17.24,1.77,15.87,5.26-.85,7.52-18.73-1.77-15.87Z"/>
    <path class="cls-4" d="M295.66,431.59c-18.15,10.33-61.22,21.09-77.48,5.03-1.1-1.09-5.68-7.23-5.39-8.43,7.75-4.53,16.13-9.48,10.93-19.56,15.91-3.52,28.97-10.92,37.14-25.31,10.44-18.39,14.11-38.05,40.79-38.62.5,1.58-.79,2.91-.99,3.99-16.89,1.44-26.15,14.51-32.83,28.61-3.75,7.92-7.93,14.48-4.31,23.01,4.14,9.77,21.46,29.8,32.15,31.29ZM229.23,426.6c-2.48.5-2.24,7.17,1.97,5.98,3.15-.89.61-6.5-1.97-5.98Z"/>
    <path class="cls-4" d="M377.6,372.66c.45.31,2.16.34,3.31,1.14,4.81,3.38,16.96,10.23,20.2,13.81,1.59,1.75,2.07,2.69.98,5.01l-58.97,65.94c-2.03.42-1.22-.51-1.69-1.28-3.98-6.45-9.8-16-15.78-20.69,25.79-10.79,45.8-36.93,51.96-63.93Z"/>
    <path class="cls-7" d="M360.61,341.69c1.03,1.64,1.39,6.01,2,7.99-2.13-.28-3.41.04-5.08,1.42-3.21,2.65-8.84,11.72-12.4,15.58-6.88,7.47-13.09,13.99-22.5,17.97-8.91.6-11.98.37-12.99-8.99-1.53-14.11,2.61-30.56,4.93-44.52,10.77-1.42,39.8.61,46.03,10.56Z"/>
    <path class="cls-6" d="M384.59,686.31c48.34,25.09,126.58,17.62,175.86-2.51,30.4-12.42,55.58-31.1,77.47-55.42,2.65-1.1,1.26,3.33.54,4.54-1.96,3.26-19.17,19.24-23.03,22.42-51.83,42.75-134.07,60.42-199.85,45.95-1.15-.25-2.9.28-4,0-2.2-.56-6.08-1.43-7.99-2-4.23-1.25-14.59-7.68-18.99-9.99v-3Z"/>
    <path class="cls-10" d="M446.54,695.29c-2.15.38-2.38-.96-2.98-2.5-9.05-23.23-9.97-54.87-18.96-78.94-2.96-7.92-8.75-14.46-11.08-22.69l-1.95-1.73,19.36,13.09c.97.5,1.27,1.38,1.71,2.29,3.6,7.51,6.21,33.42,7.74,43.21,2.45,15.67,4.92,31.51,6.16,47.28Z"/>
    <path class="cls-11" d="M336.63,589.41c.62-10.67,0-21.96-.01-32.47-.01-7.97-.92-15.65.01-23.47l3.51.98c1.91,24.55-.89,50.02.44,74.48.43,7.86,1.89,21.57,3.94,28.99,1,3.63,5.39,14.17,7.91,19.1,6.06,11.85,20.48,23.22,32.16,29.28v3c-27.59-14.52-41.48-35.21-45.97-66.93-.22-1.56.16-3.39,0-4.99l-2-27.97Z"/>
    <path class="cls-10" d="M418.57,386.64c-11.63,15.33-23.6,30.62-36.46,44.96s-27.13,26.93-40,40.93c-1.13,1.23-2.5,2.05-2.48,4.01-.74-.99-4.06-1.69-2.55-3.99,22.54-21.52,43.79-44.3,63.48-68.46,2.27-2.79,13.1-18.72,14.15-19.3,2.4-1.34,3.22,1.41,3.87,1.85Z"/>
    <path class="cls-10" d="M361.61,340.69l-1,1c-6.23-9.94-35.26-11.98-46.03-10.56-2.32,13.95-6.46,30.41-4.93,44.52h-2c-2.51-11.1-.29-34.8,2.04-46.41.25-1.24.79-2.53,1.97-3.09.79-.38,15.2.37,17.47.56,12.12,1.01,25.9,3.06,32.49,13.97Z"/>
    <path class="cls-2" d="M337.29,485.63c2.44-.66,8.86,7.9,9.27,10.45.83,5.1.52,11.47-5.51,12.38-14.37,2.17-9.82-21.19-3.76-22.83Z"/>
    <path class="cls-10" d="M362.61,481.53l16.83,43.71-1.84,3.23c-7.16-13.96-14.3-27.87-19.82-42.64-.26-2.66,3.65-3.19,4.84-4.3Z"/>
    <path class="cls-10" d="M348.62,528.48h-17.99c-1.78-6.81,15.82-6.65,17.52-4.03.78,1.21.43,2.7.46,4.03Z"/>
    <path class="cls-5" d="M683.37,677.32c.47.78,1.07,3.97,1,4.99h-6.99c-.23-1.48-2.07-4.82-3-5.99l2-4c.42.47,5.96,3.3,6.99,4.99Z"/>
    <path class="cls-11" d="M214.72,410.62c.55,2.66-.69,1.72-1.97,2.48-2.45,1.45-4.9,2.48-7.01,4.51-.81-5.67,4.24-7.48,8.98-6.99Z"/>
    <path class="cls-11" d="M361.61,340.69c.19.32,1.36.64,1.77,1.69,1.5,3.81,1.38,7.26,1.22,11.29-1.07.14-1.67-2.96-1.99-3.99-.6-1.98-.97-6.35-2-7.99l1-1Z"/>
    <path class="cls-11" d="M309.65,375.65c1.01,9.36,4.08,9.59,12.99,8.99-.19.08-.39,1.61-2.48,1.99-8.53,1.53-10.89-3.8-12.51-10.98h2Z"/>
    <path class="cls-11" d="M298.66,338.69c-2.29-2.28,4.12-6.31,4.99-2.48.55,2.45-4.34,3.12-4.99,2.48Z"/>
    <path class="cls-7" d="M884.22,747.24c4.5-24.32,12.91-63.4,24.49-84.89,1.09-2.03,4.08-6.08,6.41-2.91,1.3,1.78-6.77,19.96-7.93,23.36-7.21,21.02-13.26,42.49-16.97,64.45-2-4.66-1.39,1.66-6,0Z"/>
    <path class="cls-7" d="M864.24,748.24c-.17-.02-1.62,1.85-3.05.59-1.15-1.02-.55-3.55-1.95-4.58,1.92-25.11-2.89-55.12-.05-79.46.6-5.12,4.86-4.66,5.09,0l-.05,83.46Z"/>
    <path class="cls-5" d="M855.24,750.23h1c-.09.02-.18.71-.46.65-.29-.06-.41-.63-.54-.65Z"/>
    <path class="cls-7" d="M181.75,570.43c5.79-.48,12.13.35,17.99,0v130.85c-5.95-.29-12.06.4-17.99,0v-130.85Z"/>
    <path class="cls-7" d="M154.77,551.46c24.13-1.46,49.67,1.09,73.95,0-.45,2.68,1.04,11.18-.94,12.55-24.01-.25-49,1.85-73.01.44v-12.99Z"/>
    <path class="cls-10" d="M181.75,570.43v130.85c-4.66-.31-2.27-1.23-3-2v-13.98c0-38.08.02-76.19-.02-114.28.16-1.14,2.1-.51,3.02-.59Z"/>
    <path class="cls-7" d="M182.74,522.49c2.5-1.39,2.47-2.46,6.41-1.97,11.4,1.42,11.18,15.46,10.59,23.95-5.75.47-12.38-.65-17.99,0,.39-7.28-.98-14.89,1-21.98Z"/>
    <path class="cls-10" d="M182.74,522.49c-1.98,7.09-.61,14.69-1,21.98-.34.04-1.5,1.66-2.99.99.81-4.74-1.51-18.32.91-21.59.88-1.18,2.28-.94,3.08-1.38Z"/>
    <path class="cls-10" d="M154.77,551.46v12.99c-1.14-.07-3.84.53-4.02-.58v-12.41c1.34-.07,2.69.09,4.02,0Z"/>
    <path class="cls-7" d="M178.75,685.31v13.98c-.12-.13-1.35.29-1.76-.19-.59-.68-.3-8.46-.24-10.35s-1.02-4.01,2-3.45Z"/>
    <path class="cls-3" d="M240.7,742.24c-.88-2.98,3.77-3.17,3,0-1-.02-2,0-3,0Z"/>
    <path class="cls-3" d="M251.69,723.26c-.25.65.56,1.66-.51,2-1.67.53-1.68-.5-1.49-2h2Z"/>
    <path class="cls-3" d="M252.69,742.24c-.21-.1-.64.05-1,0l.5-.98.5.98Z"/>
    <path class="cls-2" d="M469.53,712.28v36.96h-36.97c.06-6.43,6.83-14.17,12.92-15.55,3.36-.76,10.87.43,12.59-2.42,1.77-2.93-2.54-14.9-2.52-18.99h13.99Z"/>
    <path class="cls-10" d="M474.53,714.27c.24-.14,1.68-5.34,3.99-2.99,1.25,1.26-1.16,30.93-.99,35.47l-2,1.47c-.51-9.13.67-18.92,0-27.96-.14-1.82-1.4-3.91-1-5.99Z"/>
    <path class="cls-1" d="M474.53,714.27c-.4,2.08.86,4.17,1,5.99-.91-.17-3.76.26-4,0-.2-.21-.13-5.61.14-5.92.42-.49,2.46.16,2.86-.08Z"/>
    <path class="cls-1" d="M570.46,689.3c-1.25.56-2.54,2.66-5,2,.96-2.46-1.66-4.77,5-2Z"/>
    <path class="cls-1" d="M449.55,724.26c.65-.7.21-3.75,2.99-2.99,1.02,4.71-2.13,2.35-2.99,2.99-.16.12.13,4.12-1.99,1.99s1.86-1.85,1.99-1.99Z"/>
    <path class="cls-1" d="M451.05,726.26c.65.33.65.67,0,1v-1Z"/>
    <path class="cls-5" d="M127.79,742.24l-.5-5h34.47s-2.99,5-2.99,5c-10.31.02-20.67-.09-30.98,0Z"/>
    <path class="cls-5" d="M109.8,742.24c-.16-5.05,4.44-5.58,8.42-5.01l.58,5.01c-2.99.05-6.01-.11-8.99,0Z"/>
    <path class="cls-9" d="M338.63,617.38c.16,1.61-.22,3.44,0,4.99l-2.99.99c.32-3.43-1.7-6.95,2.99-5.99Z"/>
    <path class="cls-4" d="M691.37,731.26c-1.48,4.45-3.14,9.26-4.84,13.64-.7,1.79-.26,3.5-3.15,3.35-.73-.79-18.6-.06-21.53-.04-2.04.02-3.97,1.01-5.45,1.04-1,.02-2-.02-3,0-1.25.03-3.21-.98-5-1-2.41-.03-4.03.82-6,1v-2c4.52-5.12,6.19-10.79,14.58-11.9,5.38-.71,10.92,1.88,14.42-3.56,4.08-14.36,7.87-28.88,10.97-43.47.36-1.68,1.9-4.56,2-5.99.07-1.02-.53-4.22-1-4.99,2.28.4,3.29-.2,5.06-1.44,5.05-3.55,9.83-9.86,14.93-13.55,2.45,2.71,7.76,4.83,6.97,9.36-6.59,19.75-12.38,39.83-18.97,59.56Z"/>
    <path class="cls-9" d="M684.37,682.31c-.1,1.43-1.64,4.32-2,5.99-3.86.43-1.71-4.78-5-4,.03-.62.09-1.41,0-2h6.99Z"/>
    <path class="cls-1" d="M642.4,747.24v2c-1.63.15-2.4.29-2-1.49.25-1.12,1.73-.19,2-.51Z"/>
    <path class="cls-5" d="M202.73,747.24l2.99,3.99c-4.18-.39-8.16,2.14-6.99-3.99,1.33,0,2.66,0,4,0Z"/>
    <path class="cls-5" d="M226.71,747.24c.29,4.26.5,4.39-3.99,4v-4c1.33,0,2.66,0,3.99,0Z"/>
    <path class="cls-5" d="M219.72,747.24c.29,4.26.5,4.39-3.99,4v-4c1.33,0,2.66,0,3.99,0Z"/>
    <path class="cls-5" d="M174.75,748.24c1.39,4.7-6.55,4.41-5,0,1.66,0,3.33,0,5,0Z"/>
    <path class="cls-5" d="M656.39,749.24c.77,3.17-3.88,2.98-3,0,1-.02,2,.02,3,0Z"/>
    <path class="cls-1" d="M789.29,747.24c-.87-1.75-3.13-.88-5-1,1.72-4.03,2.74-7.3,5.57-10.91,1.95-2.49,5.13-2.7,4.25-5.32l-35.97-75c-22.1-20.69-46.84-46.85-71.3-64.58-1.35-.98-2.63-2.23-4.48-2.01v21.48c0,6.74,7.51,23.6,11.19,29.77,6.64,11.17,16.17,18.27,23.62,28.38-5.84,22.07-13.94,43.48-20.81,65.21-2.28.49-2.69-.21-3.67-1.97l-1.33-.03c6.58-19.73,12.37-39.81,18.97-59.56.79-4.53-4.53-6.66-6.97-9.36-21.39-23.66-27.52-40.39-27.02-72.46.04-2.68,1.43-4.93.88-7.71-.46-2.32-9.48-12.11-11.64-15.41-5.89-9.02-10.22-19.48-13.1-29.86-1.51-5.43-4.63-17.23-4.08-22.39.36-3.35,4.15-3.82,5.48-.98s1.91,11.84,3.01,15.97c15.71,59.19,67.81,77.49,105.25,120.54l38.98,80.98c.78,3.89-4.58,6.11-7.33,9.24-1.94,2.2-2.89,4.64-4.49,7Z"/>
    <path class="cls-7" d="M633.35,427.65c-1.53,45.09-23.23,83.65-66.37,99.85-20.53,7.71-61.83,21.32-82.7,17.71-38.12-6.59-30.99-46.76-29.69-74.12,1-21.1-4.94-33.84-17.03-50.48l195.79,7.04Z"/>
    <path class="cls-5" d="M278.37,379.82c9.29-2.86,7.03,15.02,1.77,15.87-8.5,1.37-6.13-14.53-1.77-15.87Z"/>
    <path class="cls-7" d="M229.23,426.6c2.58-.52,5.12,5.09,1.97,5.98-4.22,1.19-4.45-5.48-1.97-5.98Z"/>
  </g>
</svg>