<?xml version="1.0" encoding="UTF-8"?>
<svg xmlns="http://www.w3.org/2000/svg" viewBox="0 0 1024 1024">
  <defs>
    <style>
      .cls-1 {
        fill: #cccece;
      }

      .cls-2 {
        fill: #e0e0e0;
      }

      .cls-3 {
        fill: #1f201f;
      }

      .cls-4 {
        fill: #e3e4e4;
      }

      .cls-5 {
        fill: #7f7373;
      }

      .cls-6 {
        fill: #f9fafa;
      }

      .cls-7 {
        fill: #a6c86f;
      }

      .cls-8 {
        fill: #e8ca7a;
      }

      .cls-9 {
        fill: #5e5e5d;
      }

      .cls-10 {
        fill: #f3f3f4;
      }

      .cls-11 {
        fill: #626262;
      }

      .cls-12 {
        fill: #484848;
      }

      .cls-13 {
        fill: #eee;
      }

      .cls-14 {
        fill: #0f0f0f;
      }
    </style>
  </defs>
  <g id="_검은색_배경" data-name="검은색 배경">
    <rect class="cls-5" x="0" y="0" width="1024" height="1024"/>
  </g>
  <g id="_레이어_1" data-name="레이어 1">
    <path class="cls-14" d="M125.79,677.32c-.13,0-1.1-1.03-2.42-1.04-5.95-.05-21.34,1.19-25.86-.16-4-1.19-2.1-6.79-1.71-6.79h117.91c-.97-4.24-7.07-6.46-9.98-9.5-25.8-26.92-21.74-83.1-8.18-115.04,12.61-29.71,41.49-57.26,72.91-65.96,4.01-1.11,27.55-7.37,23.54,2.44-1.02,2.48-12.94,3.11-16.86,4.24-20.98,6.03-41.71,28.43-51.6,47.31-16.25,31.03-27.34,104.02,18.29,114.9,10.33,2.46,49.03,2,54.89-7.78,2-3.34,4-26.03,5.41-32.55,12.57-58.1,56.55-101.84,119.37-89.94l7.9-20.29c-8.87-6.15-16.66-13.72-17.83-25.12-4.52-44.08,49.76-50.19,68.38-15.79,14.7-3.96,29.1-4.36,43.93-.91,11.71-18.07,34.48-28.8,54.26-15.95,17.53,11.39,19.43,38.25,3.8,52.13-2.3,2.04-9.17,4.6-9.48,5.03-.19.26.87,3.83,1.04,3.95,1.08.81,23.55-6.32,26.48-4.09,1.75,1.33,1.56,4.23-.3,5.08-3.23,1.48-23.32,3.18-24.17,4.06-.53.55.26,7.26-.05,8.94h24.48c1.15,0,1.83,3.18,1.56,4.4-.84,3.82-23.75.02-25.1,1.01-.89.65-2.18,6.73-2,8,.19,1.4,25.32,6.24,25.99,10.19-.34,2.25-1.72,3.26-3.94,2.99-4.22-.52-21.63-7.89-23.37-7.48-4.12,6.25-7.41,12.92-12.19,18.75-2.71,3.3-6.07,5.19-8.39,8.6,5.05-.82,8.37,3.25,11.74,4.24,4.54,1.32,9.67.16,14.19,3.79,3.5,2.81,2.05,5.14,3.31,7.18,1.67,2.69,10.13,4.49,5.72,11.26h44.47c2.93,0,6.98,6.55,7.4,9.58,3.04,21.5-8.28,46.67-22.38,62.35-3.07,3.41-8.54,5.61-8.51,9.98h49.96c-1.43-6.35-8.34-10.89-8.03-18.44l.28-213.56c8.56-19.55,22.57-36.28,33.15-54.76,1.42-2.48,8.51-13.59,6.53-15.85-.76-.86-6.83.17-7.89-6.6-.78-4.97-.78-22.89-.11-27.96.55-4.12,4.6-6.99,8.52-7.46,10.37-1.23,35.4-1,46.04-.03,6.8.62,9.67,3.72,10.44,10.54.56,4.89.63,20.07-.43,24.54-1.53,6.46-6.75,5.98-8.14,7.89-1.65,2.27,5.22,13.59,6.77,16.32,6.35,11.2,31.42,43.83,32.7,53.22,3.2,23.51-3.23,54.67.04,77.88,1.76,12.51,5.82,28.88,7.04,40.91,3.39,33.38,3.19,67.41,6.02,100.87.23,2.66.53,8.97.95,10.82.13.59,2.21,1.68,2.54,1.68h126.41c.43,0,2.6,5.98-2.53,6.96-25.01.17-50.02-.1-75.03-.05-1.83,0-3.2,1.07-3.38,1.07-1.33,0-2.66,0-4,0-2.86,0-7.92-1-11.99-1-.67,0-1.33,0-2,0-4.99,0-10,.02-14.99,0-1.33,0-2.66,0-4,0-6.98-.02-14-.01-20.98,0-5.08.01-11.52-.85-15.99,1-4.97-.17-10.02.21-14.99,0-1.66-.07-3.34.06-5,0-.18,0-1.6-1.01-3.38-1.07-6.77-.23-15.15-.52-21.6,1.07-7.29-.13-14.69-.09-21.98,0-2.64-1.84-7.54-.98-10.99-1-2.33-.01-4.67-.05-6.99,0s-4.67-.06-6.99,0c-3.9.09-7.23.94-10.99,1-2.33.03-4.67.03-6.99,0-1.67-.02-3.33.02-5,0-1.96-.02-5.44-1.2-8.99-1-2.46.14-9.22.56-7.99,3-2.33.04-4.67-.03-6.99,0,.57-3.15-1.55-1.7-3.43-2.02-5.61-.93-11.99-2.09-17.55.02-.78-.21-2.98-.07-4,0-1.08-1.68-4.11-.98-6-1-15.96-.2-32,0-47.96,0-3.32,0-6.67,0-9.99,0-15.61.04-31.37-.44-46.97,0-4.29.12-7.16.57-10.99,1-2.95.33-7.88-1.43-6.99,2-3.65,0-7.34-.03-10.99,0,.77-3.17-3.88-2.98-3,0-3.32.04-6.68.05-9.99,0-.09-.92.53-1.75-.63-2.02-2.03-.48-9.87-.78-8.36,2.02-6.72-.22-7.85-.48-13.99-2-6.7-1.66-16.27-1.29-23.53-1-1.92.08-4.01-1.03-3.45,2-6.32.06-12.72-.05-18.99,0,.56-3.02-1.53-1.93-3.45-2-2.99-.1-6.1-.12-9.08,0-1.92.08-4.01-1.03-3.45,2-3.35.03-6.98,1-10.99,1,.91-3.22-5.09-2.97-4,0-4.6,0-8.52-1.02-12.99-1-.73-1.6-2.78-.78-4-1-4.29-.78-6.51-.89-10.99-1-2.33-.06-4.67.03-6.99,0s-4.67.02-6.99,0c-3.66-.03-7.34.01-10.99,0-2.33,0-4.67,0-6.99,0-29.3-.08-58.64,0-87.93,0h-9.99c-1.82,0-4.29,1-6.99,1-.67,0-1.33,0-2,0-4.68,0-9.64,0-13.99,0-.67,0-1.33,0-2,0-12.57-.02-26.45.07-38.97,0-.67,0-1.33,0-2,0ZM689.37,334.7c-2.42,5.99-.19,9.12.04,14.53.17,3.99-3.68,10.66,3.4,11.5,10.08,1.19,31.56.72,42.07-.01,1.69-.12,3.3-.32,4.87-.93.98-.7.99-21.47.58-24.09-.18-1.16-.36-2.32-1.4-3.07-4.18-3.06-39.39.41-47.08-.93-2.49.08-1.95,1.69-2.48,3.01ZM732.34,374.65c-.92-2.06-.15-6.74-3.69-7.8-1.8-.54-29.04-1.07-30.19-.09-.77,4.85-2.72,9.22-4.93,13.55-7.17,14.08-35.09,49.49-36.18,61.72l.04,74.46c2.99.04,6.01-.06,9,0,34.73.67,69.48,1.38,104.32,1.02,1.09.11.5-1.29.6-2.02,2.17-16.98.46-46.83,0-64.93-.09-3.67.4-7.86-.09-11.4-.99-7.13-19.32-31.52-24.31-39.63s-10.72-16.26-14.57-24.89ZM438.55,488.53c.43,2.72.51,1.52,3,3-7.14,9.67-12.04,22.27-15.06,33.89-24.52-5.41-46.63-3.69-68.55,8.89-38.64,22.18-48.57,62.85-53.29,104.06-.29,2.55-.79,4.72-2,6.99-2.61.56-6.18,3.8-9.32,5.17-15.97,6.96-46.35,8.13-62.32,1.01-6.23-2.78-10.58-7.85-16.3-11.18.01-2.1-6.42-11.86-7.72-15.75-7.45-22.24-4.36-54,2.73-76.15,4.12-12.87,11.95-26.68,19.98-37.47.39-1.25-.23-1.99-1.48-1.48-.62.26-7.83,8.54-9.02,9.97-22.35,26.8-31.66,64.7-26.19,99.13,9.84,61.94,60.27,50.45,108.64,50.72,54.8.3,109.63-.27,164.45.05,1.62.19,2.2.02,3.43-1.05,1.37-1.2.58-.82-.2-2.28-2.76-5.16-8.79-8.58-14.53-9.47-3.4-.53-30.84-1.05-32.05,0-.46.4-.08,1.66-.19,1.75-.35.28-8.09,3.01-8.54,3-1.91-.03-2.81-1.53-2.32-3.36.23-.85,10.9-9.81,12.88-12.11,6.92-8,9.33-13.36,11.97-23.5.62-2.39,1.68-3.17,2-6.99,1.26-15.25-.91-30.89-12.98-41.46-13.12-11.5-28.44-10.98-44.98-10.48,2.1-2.72,7.31-3.75,8.99-5.99,54.07-6.41,70.84,53.75,41.97,91.9h23.48c.63,0,8.53,2.7,9.73,3.26,6.82,3.18,11.6,9.22,12.76,16.72h21.98c-15.7-13.6-29.47-31.43-32.87-52.55-1.38-8.55-3.74-27.08,7.63-29.13,4.72-.85,24.53.65,26.11-.37.42-.27,1.22-4.29,1.94-5.56,3.55-6.32,9.93-5.23,11.69-7.29s2.12-7.2,5.46-10.52c6.26-6.2,12.42-1.26,17.02-7.46,8.97,3.17,15.55-4.87,20.95-11.52,5.86-7.2,5.92-9.41,8.06-17.74.21-.82,1.65-.58,1.91-1.43,3.89-12.73-2.65-35-12.38-44.3-1.67-1.59-3.95-1.82-5.05-2.94-2.74-2.79.88-2.62-4.51-3.98-14.56-14.51-41.07-16.66-60.38-11.91-8.19,2.02-26.55,10.59-32.55,15.91l-2-3c.18-.17-.03-2.48,1.94-4.55,3.23-3.39,13.51-8.81,18.04-11.43.33-.19,1.4.16,2,0-13.61-29.7-60.53-23.09-53.5,14.03,1.05,5.55,7.48,14.27,12.58,16.46,2.91,1.25,3.89-1.89,6.95-1.53ZM584.45,459.56c-2.9-11.26-13.9-19.09-25.48-19.05-7.88.03-25.16,8.68-27.35,16.7-.66,2.41,3.58,1.85,4.87,2.35,14.2,5.57,26.76,18.03,34.49,30.97,11.06-7.43,16.97-17.36,13.47-30.97ZM684.37,539.47c-2.16-5.12-.82-10.81,0-15.98h-26.98v129.36c0,3.32,8.35,12.81,12.99,11.48l7.01-102.37c.02-6.35,1.87-8.91,3.99-13.49,8.56,1.12,18.86,1.68,27.53,1,3.07-.24,2.57.49,2.45-3,12.11.09,23.93-.68,35.97-1,8.97-.24,18.01.17,26.98,0,.05-6.36-.73-12.63-1-18.98-.03-.66.05-1.33,0-2l-80.45-1c-3.12.11-3.5,5.09-1.5,6.99-.99,1.73-1.3,3.67-2,4.99-2.36,4.49-1.88,2.29-5,4ZM749.32,558.45c2.19-1.16,3.21-3.54,2.99-5.99-22.65.18-45.37-.65-67.95.99-.06,1.66.07,3.34,0,5-.42,9.98-.68,20.06-2,29.97h60.46c.42,0,1.11-1.12,1.29-1.71l5.21-28.25ZM758.32,557.45c-6.08,11.19-5.03,25.48-9.99,36.96l-66.84,1.1c-.37,9.06-.43,18.31-1.12,27.35-1.15,15.21-2.39,29.14-2.99,44.46,0,.1-2.08,1.25-.5,2,29.81-.13,59.64.16,89.43,0,6.32-.04,12.67.02,18.99,0-2.07-32.14-4.57-64.29-6.99-96.41-.41-5.4-.08-8.96-1.01-14.47-.25-1.51.19-3.41,0-5-4.39.76-12.54-1.11-16.33.17-1.64.55-1.96,2.54-2.66,3.83ZM545.47,563.45h-7.98c.88,8.16,6.77,7.74,7.98,0ZM520.49,576.42c5.59,2.85,19.03-10.94,8.52-11.06-5.36-.06-8.84,6.26-8.52,11.06ZM557.32,580.28c.61-.96.47-10.52-.79-11.41-6.41-2.26-14.85,5.11-8.58,10.58,2.1,1.83,8.03,2.96,9.37.83ZM558.47,588.41h25.98c-.29-8.76-2.17-6-7.39-6.08-1.26-.02-2.63-.98-4.06-.89-3.18.21-8.03,5.39-9.53-2.01,19.35.12,15.12-8.25-.49-10.01.69,7.86-3.06,12.24-4.51,18.99ZM551.47,586.42c-8.83-2.18-7.84-6.61-12.59-12.92-9.66,3.21-6.88,5.72-5.36,13.88,5.38-1.21,13.3,1.5,17.95,1.04,1.32-.13,2.76-.46,3-1.99-.94-.16-2.17.19-3,0ZM528.49,587.42c1.01-11.53-20.63-9.15-20.98,0h20.98ZM510.5,664.33c8.34,5.26,34.96,5.16,45.97,4.99,12.31-.18,29.5-.5,41.19-4.28,11.08-3.58,32.22-31.87,31.76-43.67,2.85-7.72,3.99-17.84,2-25.97h-157.38c-2.31,0-1.55,12.11-1.37,14.36,1.41,17.85,13.58,40.23,27.83,51.09,2.13,1.63,7.29,5.22,10.01,3.47Z"/>
    <path class="cls-12" d="M289.67,411.61c9.51,1.01.73,13.48,10.99,15.98h58.96c6.01-1.97,6.6-6.83,7.03-12.45.96-12.46,1.07-34.61-.05-46.97-.66-7.27-2.53-11.6-10.48-12.5-12.51-1.42-39.09-1.02-51.95.01-1.76.14-8.14,1.07-9.12,1.87-1.34,1.09-1.16,3.46-2.01,5.03-.45.83-2.08,1.39-2.38,2.08-8.19-2.77-1.17-14.6,5.56-14.92,19.91,1.54,43.43-2.28,62.89-.07,7.37.84,12.66,6.2,13.49,13.48,1.48,12.96,1.28,43.79.04,56.98-.72,7.6-4.99,12.91-12.77,14.21-10.91,1.83-43.97,1.28-55.7.22-9.67-.87-16.62-6.05-16.51-16.48.03-2.67,1.89-4.9,2-6.48Z"/>
    <path class="cls-1" d="M585.44,330.71l-19.5,29.97-1.81.87c-7.19-2-1.24-6.42-1.69-8.33-.34-1.44-5.65-1.92-5.99-4.53,2.58-.6,5.67,2.48,7.97,1.53,4.28-1.78,3.5-10.16,4.96-11.1,1.31-.85,3.63.04,4.85-.64,2.66-1.48,2.97-12.56,11.2-7.76Z"/>
    <path class="cls-1" d="M346.38,472.73c14.14-2.67,16.16,20.98,1.72,20.68-10.9-.23-13.42-18.47-1.72-20.68ZM347.36,477.71c-6.65.96-4.61,12.44,3.63,9.68,3.09-1.03,2.88-10.62-3.63-9.68Z"/>
    <path class="cls-1" d="M827,456.73c16.09-3.27,14.74,26.02-2.48,19.05-8.65-3.5-5.76-17.38,2.48-19.05ZM828,461.73c-6.65.96-4.61,12.44,3.63,9.68,3.09-1.03,2.88-10.62-3.63-9.68Z"/>
    <path class="cls-1" d="M232.71,431.59c-7.28.74-3.96-.63-5.45-5.04-2.5-7.42-11.98-3.39-12.54-3.95v-6c10.13-1.57,19.52,3.87,17.99,14.99Z"/>
    <path class="cls-11" d="M265.41,388.79c6.97-1.85,9.45,8.88,3.57,10.68-7.39,2.26-10.09-8.94-3.57-10.68Z"/>
    <path class="cls-1" d="M208.63,451.48c-1.95,2.9-15.44.78-11.9-5.9,3.02-1.1,15.72.22,11.9,5.9Z"/>
    <path class="cls-1" d="M583.45,351.68c.22-4.34.06-8.47,5.86-5.85.98,6.54-1.01,5.5-5.86,5.85-.06,1.15,2.03,3.39-1.05,5.45-2.22,1.49-12.45,3.63-9.24-1.39,3.24-5.08,5.32-3.71,10.29-4.07Z"/>
    <path class="cls-1" d="M232.57,450.45c-1.43,2.31-10.54,3.41-8.72-3.16,1.61-5.8,11.63-1.57,8.72,3.16Z"/>
    <path class="cls-1" d="M218.47,431.85c2.78,2.73-.63,8.82-4.76,6.26-4.31-2.67.2-10.73,4.76-6.26Z"/>
    <path class="cls-1" d="M199.83,424.7c3.95-2.44,6.96,4.33,3.97,6.46-4.91,3.49-6.35-4.98-3.97-6.46Z"/>
    <path class="cls-1" d="M620.27,416.75c1.79,2.82-1.27,8-4.92,5.42-4.28-3.02,2.25-9.62,4.92-5.42Z"/>
    <path class="cls-1" d="M620.27,323.57c-2.67,4.2-9.2-2.4-4.92-5.42,3.65-2.58,6.71,2.6,4.92,5.42Z"/>
    <path class="cls-1" d="M214.36,446.7c5.19-1.72,7.33,3.43,3.36,5.38-5.29,2.59-6.73-4.26-3.36-5.38Z"/>
    <path class="cls-1" d="M838.15,626.26c-4.64,2.92-7.63-6.84-2.21-6.67,3.82.12,3.73,5.71,2.21,6.67Z"/>
    <path class="cls-1" d="M617.05,342.75c2.81-.43,5.14,5.73,1.76,6.84-5.83,1.91-5.23-6.31-1.76-6.84Z"/>
    <path class="cls-1" d="M260.31,576.49c2.81-.43,5.14,5.73,1.76,6.84-5.83,1.91-5.23-6.31-1.76-6.84Z"/>
    <path class="cls-1" d="M834.77,605.4c4.18-1.3,6.21,6.99.98,7.03-3.48.03-3.2-6.34-.98-7.03Z"/>
    <path class="cls-1" d="M838.15,598.3c-4.82,3.07-6.86-6.13-2.27-6.82,3.26-.49,4.05,5.69,2.27,6.82Z"/>
    <path class="cls-1" d="M614.56,331.84c1.41-2.2,7.49-.23,5.4,3.85-2.58,5.04-7.71-.23-5.4-3.85Z"/>
    <path class="cls-1" d="M620.34,355.76c1.8,2.54-3.07,8.39-5.45,4.94-2.72-3.95,3.51-7.68,5.45-4.94Z"/>
    <path class="cls-1" d="M619.42,399.63c-6.94,1.65-7.04-9.02-.46-6.04l.46,6.04Z"/>
    <path class="cls-1" d="M476.38,343.84c1.16,1.87,0,6.85-3.34,5.84-4.46-1.36.39-10.61,3.34-5.84Z"/>
    <path class="cls-1" d="M260.35,601.54c3.99-1.02,4.51,4.86,1.73,5.76-5.13,1.66-5.72-4.74-1.73-5.76Z"/>
    <path class="cls-1" d="M260.32,551.53c3.4-.58,4.64,6.19.74,6.85-3.4.58-4.64-6.19-.74-6.85Z"/>
    <path class="cls-1" d="M835.89,530.55c3.4-.58,4.64,6.19.74,6.85-3.4.58-4.64-6.19-.74-6.85Z"/>
    <path class="cls-1" d="M619.33,437.49c-3.79,2.71-7.26-4.82-3.38-5.9,3.59-1,5.46,4.41,3.38,5.9Z"/>
    <path class="cls-1" d="M835.77,579.43c3.48-.8,3.74,8.44-1,6.98-2.88-2.15-1.46-5.3,1-6.98Z"/>
    <path class="cls-1" d="M259.22,538.48c3.49-.99,6.47,4.59,1.8,5.84-4.15,1.12-4.26-5.14-1.8-5.84Z"/>
    <path class="cls-1" d="M262.6,569.35c-3.74,2.68-6.47-4.06-3.89-5.89s6.71,3.88,3.89,5.89Z"/>
    <path class="cls-1" d="M838.25,544.47c.7.71.37,7.12-3.48,5.98-4.46-1.32.68-8.81,3.48-5.98Z"/>
    <path class="cls-1" d="M838.25,567.44c.7.71.37,7.12-3.48,5.98-4.46-1.32.68-8.81,3.48-5.98Z"/>
    <path class="cls-1" d="M262.68,590.42c.7.71.37,7.12-3.48,5.98-4.46-1.32.68-8.81,3.48-5.98Z"/>
    <path class="cls-1" d="M476.52,413.61c-2.81,2.83-7.94-4.66-3.48-5.98,3.86-1.14,4.19,5.27,3.48,5.98Z"/>
    <path class="cls-1" d="M471.54,373.65c-.7-.71-.37-7.12,3.48-5.98,4.46,1.32-.68,8.81-3.48,5.98Z"/>
    <path class="cls-1" d="M473.04,392.64c4-1.2,4.63,5.18,1.98,5.97-4,1.2-4.63-5.18-1.98-5.97Z"/>
    <path class="cls-2" d="M615.93,379.66c4-1.2,4.63,5.18,1.98,5.97-4,1.2-4.63-5.18-1.98-5.97Z"/>
    <path class="cls-1" d="M473.04,355.68c4-1.2,4.63,5.18,1.98,5.97-4,1.2-4.63-5.18-1.98-5.97Z"/>
    <path class="cls-1" d="M258.71,616.39c3.24-2.21,5.95,4.94,2.47,5.98-4.34,1.29-3.58-5.22-2.47-5.98Z"/>
    <path class="cls-2" d="M615.93,404.63c4.22-1.19,4.45,5.48,1.97,5.98s-5.12-5.09-1.97-5.98Z"/>
    <path class="cls-1" d="M476.52,381.64v5c-6.93.84-6.8-5.89,0-5Z"/>
    <path class="cls-4" d="M619.41,369.66c1.65,6.59-6.37,6.05-4.98,1.5.51-1.66,3.51-1.68,4.98-1.5Z"/>
    <path class="cls-2" d="M834.77,557.46c4.6-1.29,4.6,6.26,0,4.97-2.01-.56-2.01-4.41,0-4.97Z"/>
    <path class="cls-6" d="M545.48,474.54c-4.23-1.07-15.46-4.99-18.49-4.99h-18.49l3,43.95c-4.3-.29-10.88-14.24-15.99-8.47-.42,2.1,9.7,11.15,11.99,13.46-.1,5.47-2.12,10.48-5,14.98-3.44.87-6.1,2.8-9.99,2-.47,1.72.29,1.99,1,2.99,4.39,6.22,12.37,3.49,16.99-1,.93-.9,1.51-2.12,2.5-2.98,2.01,1.82,3.8,3.87,5.5,5.98,4.21,5.22,11.13,13.56,17.99,15.98-4.6,6.2-10.76,1.25-17.02,7.46-3.35,3.32-3.73,8.48-5.46,10.52s-8.14.97-11.69,7.29c-.71,1.27-1.51,5.29-1.94,5.56-1.58,1.02-21.39-.48-26.11.37-11.37,2.05-9,20.57-7.63,29.13,3.4,21.11,17.17,38.94,32.87,52.55h-21.98c-1.16-7.49-5.94-13.54-12.76-16.72-1.2-.56-9.09-3.26-9.73-3.26h-23.48c28.87-38.14,12.1-98.3-41.97-91.9,3.73-4.96,3.84-16.16,1.9-21.89-12.99,1.36-25.6,7.54-36.19,15.08-30.67,21.83-40.93,52.28-48.65,87.72h-2c4.72-41.21,14.64-81.88,53.29-104.06,21.92-12.58,44.03-14.31,68.55-8.89,3.02-11.62,7.92-24.22,15.06-33.89.56-.75.8-1.75,1-2,1.03-1.27,9.32-10.39,9.99-10.99,6-5.32,24.36-13.89,32.55-15.91,19.31-4.75,45.82-2.6,60.38,11.91ZM479.77,501.28c4.61,4.61,15.17-.79,9.82-8.33-5.19-7.32-15.34,2.82-9.82,8.33ZM456.54,510.5c.28.99,1.15.91,2,1,.97.11,2.09-.15,3,0,4.9.82,8.93,1.71,13.99,2s11.25,2.89,10.99-3.99c-.41-.4-8.64.26-10.54.05-3.69-.41-6.36-2.18-11.44-2.06-.27-.97-1.15-.93-2-1-3.94-.3-8.03.21-11.99,0-.73,4.19,2.65,4.43,5.99,3.99ZM471.53,522.49c-1.81.53-12.83,2.02-12.97,4.49-.22,3.76,13.78-1.25,14.97-1.5,3.25-.67,12.13-1.33,14.4-2.89,1.27-.87.38-2.88.59-4.1-5.93-.47-11.46,2.36-16.99,3.99ZM463.54,541.47c-2.51,1.4-7.01,1.99-8.52,4.98-4,7.94,12.62-2.58,13.51-2.98,4.36-1.96,19.52-6.85,21.98-9.49,1.47-1.58,1.52-3.75-.65-4.41-2.97-.89-22.34,9.67-26.33,11.9Z"/>
    <path class="cls-9" d="M306.65,638.36c7.72-35.43,17.97-65.89,48.65-87.72,10.6-7.54,23.2-13.72,36.19-15.08,1.94,5.74,1.83,16.93-1.9,21.89-1.69,2.24-6.89,3.27-8.99,5.99-.28.36-1.56.11-.99,1.99,26.02.56,47.58,12.28,55.46,37.95,1.02,3.33,2.56,8.62,2.49,12-.02.93-2.06,4.72-1,6.99-2.63,10.14-5.05,15.5-11.97,23.5-1.99,2.3-12.65,11.25-12.88,12.11-.49,1.82.4,3.33,2.32,3.36.45,0,8.19-2.72,8.54-3,15.49,2.64,34.79-1.63,46.97,9.99-1.23,1.08-1.81,1.24-3.43,1.05-54.81-.33-109.65.25-164.45-.05.13-.94-.19-2.14,0-3,1.24-5.63,1.09-10.79,2-15.98.28-1.57.68-3.37,1-4.99.35-1.8,1.46-4.53,2-6.99Z"/>
    <path class="cls-11" d="M773.31,558.45c-.02,25.14.04,50.31-.04,75.46-.02,7.01,1.27,16.54-.19,23.7-1.05,5.16-6.51,6.65-6.77,11.72-29.79.17-59.62-.13-89.43,0-1.59-.75.49-1.9.5-2,6.7-12.52,3.19-49.76,12.43-59,.86-.86,4.18-2.93,5.06-2.93h44.97c3.83,0,7.26-8.13,8.49-10.99,4.97-11.48,3.91-25.77,9.99-36.96,5.26-.39,10.04.07,14.99,1ZM746.33,636.37c8.77,1.87,17.48-6.48,8.28-12.78l-56.65-.12c-4.46.21-7.77,3.58-6.42,8.17.71,2.42,5.14,3.72,4.83,6.7-5.13-.86-6.98,6.61-3.01,8.51,1.07.51,7.72,1.34,9.51,1.48,9.45.76,33.09,1.3,41.89-.06,4.17-.64,5.62-3.09,4.37-7.22-.56-1.85-3.24-2.38-2.8-4.69Z"/>
    <path class="cls-13" d="M576.45,604.4c-4.13,16.99-5.33,36.68-12.8,52.63-2.17,4.64-6.25,7.48-7.19,12.29-11,.16-37.63.27-45.97-4.99-.14-.09-.15-1.98-1.45-3-8.37-6.56-16.12-11.36-20.01-22-4.95-13.53-9.66-33.3,9.94-34.97,23.49-2,53.31-.08,77.48.03Z"/>
    <path class="cls-6" d="M732.34,374.65c-8.57,1.86-22.14,9.74-22.07,19.49.05,6.61,7.23,11.84,10.89,17.15,4.77,6.92,10.8,15.78,11.18,24.29-21.14-.13-42.31.09-63.45,0-3.5.21-3.4,6.01-.86,6.85,29.69-.54,59.63,1.22,89.29.14.56,3.02-1.53,1.93-3.45,2-6.83.23-13.71-.16-20.54,0v6s-.99,0-.99,0c-16.81,0-40.61-1.93-56.48-.02-4.54.55-9.38,3.45-9.49,8.49l.02,57.46c-2.99-.06-6.01.04-9,0l-.04-74.46c1.09-12.23,29.01-47.65,36.18-61.72,2.21-4.33,4.16-8.7,4.93-13.55,1.14-.99,28.38-.45,30.19.09,3.54,1.06,2.77,5.74,3.69,7.8Z"/>
    <path class="cls-9" d="M545.48,474.54c5.39,1.36,1.76,1.19,4.51,3.98,1.1,1.12,3.39,1.35,5.05,2.94,9.73,9.3,16.27,31.57,12.38,44.3-.26.84-1.7.61-1.91,1.43-2.15,8.33-2.21,10.54-8.06,17.74-5.4,6.64-11.99,14.69-20.95,11.52-6.86-2.42-13.78-10.76-17.99-15.98,4.02,0,11.02.68,14-2.52,1.3-1.39.72-3.03.99-3.47.11-.18,2.86.16,2.81-2.66s-3.1-4.26-5.42-2.4c-1.12.9-1.18,2.86-1.39,3.07s-5.06,1.95-5.57,1.99c-6.68.5-10.34-10.58-7.47-15.53,1.8-3.11,13.88-10.75,11.55-14.43-3.07-4.86-11.61,9.32-16.49,9l-3-43.95h18.49c3.03,0,14.26,3.92,18.49,4.99ZM535.21,490.67c-7.24,1.99-5.46,14.31,3.56,11.64,6.83-2.03,3.76-13.65-3.56-11.64Z"/>
    <path class="cls-2" d="M629.41,621.38c.46,11.8-20.68,40.08-31.76,43.67-11.69,3.78-28.88,4.09-41.19,4.28.94-4.82,5.01-7.65,7.19-12.29,7.47-15.95,8.67-35.64,12.8-52.63,9.46.05,36.96-1.73,44.02.45,1.42.44,6.88,5.36,7.42,6.57,1.06,2.33.4,5.7.59,8.38.06.78.92,1.41.93,1.59Z"/>
    <path class="cls-6" d="M681.37,548.46c-2.11,4.58-3.97,7.15-3.99,13.49l-7.01,102.37c-4.63,1.32-12.99-8.17-12.99-11.48v-129.36h26.98c-.82,5.17-2.16,10.86,0,15.98-3.43,1.88-1.42,5.57-3,8.99Z"/>
    <path class="cls-10" d="M301.66,669.32c-48.37-.27-98.8,11.22-108.64-50.72-5.47-34.42,3.84-72.33,26.19-99.13,1.19-1.43,8.4-9.71,9.02-9.97,1.24-.52,1.87.22,1.48,1.48-8.02,10.8-15.86,24.6-19.98,37.47-2.47-.52-2.11,1.15-2.74,2.71-9.19,22.98-11.26,56.81-5.42,80.86.81,3.35,7.03,20.76,9.66,21.31,3.75.78,1.34-4.71,1.4-6.48.09-2.52,2.07-4.42,2.08-6.51,5.72,3.33,10.07,8.4,16.3,11.18,15.98,7.12,46.35,5.95,62.32-1.01,3.14-1.37,6.71-4.62,9.32-5.17.59-.13,1.36.08,2,0-.32,1.62-.72,3.43-1,4.99-3.33-.54-6.17,1.34-7.02,4.54l5.02,11.45c-.19.85.13,2.05,0,3Z"/>
    <path class="cls-4" d="M732.34,374.65c3.85,8.62,9.62,16.84,14.57,24.89s23.32,32.5,24.31,39.63c.49,3.54,0,7.73.09,11.4-12.64,0-25.33,0-37.97,0v-6c6.82-.16,13.7.23,20.53,0,1.92-.06,4.01,1.02,3.45-2,1.99-.07,4.01.06,6,0-.12-2.15.84-6.04-1.64-6.86-3.95-1.3-23.42-.1-29.34-.14-.37-8.51-6.4-17.36-11.18-24.29-3.66-5.31-10.85-10.54-10.89-17.15-.07-9.75,13.5-17.63,22.07-19.49Z"/>
    <path class="cls-6" d="M510.5,664.33c-2.73,1.74-7.88-1.85-10.01-3.47-14.25-10.86-26.42-33.24-27.83-51.09-.18-2.25-.94-14.36,1.37-14.36h157.38c1.99,8.13.85,18.25-2,25.97,0-.18-.87-.81-.93-1.59-.19-2.68.47-6.05-.59-8.38-.55-1.21-6-6.13-7.42-6.57-7.06-2.18-34.56-.4-44.02-.45-24.17-.12-53.99-2.04-77.48-.03-19.6,1.67-14.89,21.44-9.94,34.97,3.89,10.64,11.64,15.43,20.01,22,1.3,1.02,1.31,2.91,1.45,3Z"/>
    <path class="cls-11" d="M753.32,526.48c2.94,7.98-2.51,12.71-6,18.98-12.04.32-23.86,1.09-35.97,1-1.24,0-2.92-1.02-4.52-1.03-2.75-.02-16.26,2.27-17.47,1.04v-10.99c.7-1.33,1.01-3.27,2-4.99,1.79-3.13.94-3.51,5.48-4,16.52-1.76,39.22,0,56.47,0Z"/>
    <path class="cls-9" d="M536.48,459.56c13-11.9,35.5-13.61,47.96,0,3.5,13.61-2.41,23.54-13.47,30.97-7.73-12.94-20.29-25.4-34.49-30.97Z"/>
    <path class="cls-13" d="M748.32,594.41c-1.24,2.86-4.67,10.99-8.49,10.99h-44.97c-.88,0-4.2,2.08-5.06,2.93-9.24,9.23-5.73,46.48-12.43,59,.6-15.33,1.83-29.25,2.99-44.46.69-9.04.75-18.29,1.12-27.35l66.84-1.1Z"/>
    <path class="cls-12" d="M777.3,558.45c.93,5.51.6,9.07,1.01,14.47,2.42,32.12,4.92,64.27,6.99,96.41-6.32.02-12.67-.04-18.99,0,.26-5.07,5.72-6.55,6.77-11.72,1.45-7.17.16-16.69.19-23.7.09-25.15.02-50.32.04-75.46,1.18.22,2.73-.15,4,0Z"/>
    <path class="cls-11" d="M470.53,459.56c-4.53,2.62-14.81,8.04-18.04,11.43-1.97,2.07-1.76,4.38-1.94,4.55-.13.13-2.24-.11-3.5.95-1.13.94-8.22,7.52-8.49,8.04-10.96-4.04-13.89-24.92-5.51-31.98,8.99-7.57,29.73-.9,37.48,7Z"/>
    <path class="cls-10" d="M438.55,488.53c-3.06-.37-4.03,2.78-6.95,1.53-5.11-2.2-11.53-10.91-12.58-16.46-7.03-37.12,39.89-43.74,53.5-14.03-.6.17-1.66-.19-2,0-7.75-7.91-28.5-14.58-37.48-7-8.38,7.06-5.45,27.93,5.51,31.98-.11.22.07.64,0,1-.13.67-.11,2.28,0,3Z"/>
    <path class="cls-4" d="M209.72,548.46c-7.08,22.15-10.18,53.91-2.73,76.15,1.3,3.89,7.74,13.65,7.72,15.75s-1.99,3.98-2.08,6.51c-.06,1.77,2.34,7.26-1.4,6.48-2.64-.55-8.85-17.96-9.66-21.31-5.84-24.04-3.77-57.87,5.42-80.86.62-1.56.27-3.22,2.74-2.71Z"/>
    <path class="cls-13" d="M438.55,615.38h-1c.08-3.38-1.46-8.67-2.49-12-7.89-25.67-29.45-37.39-55.46-37.95-.56-1.89.71-1.63.99-1.99,16.54-.5,31.86-1.02,44.98,10.48,12.07,10.57,14.23,26.21,12.98,41.46Z"/>
    <path class="cls-12" d="M773.31,526.48c.28,6.35,1.06,12.62,1,18.98-8.97.17-18.02-.24-26.98,0,3.48-6.27,8.93-11,6-18.98h19.99Z"/>
    <path class="cls-10" d="M584.45,459.56c-12.47-13.61-34.97-11.9-47.96,0-1.29-.5-5.53.06-4.87-2.35,2.19-8.02,19.47-16.67,27.35-16.7,11.58-.04,22.59,7.79,25.48,19.05Z"/>
    <path class="cls-4" d="M684.37,558.45c.07-1.66-.06-3.34,0-5,22.58-1.64,45.3-.81,67.95-.99.22,2.45-.8,4.82-2.99,5.99h-64.95Z"/>
    <path class="cls-8" d="M558.47,588.41c1.46-6.75,5.2-11.14,4.51-18.99,15.61,1.75,19.84,10.13.49,10.01,1.5,7.41,6.35,2.23,9.53,2.01,1.43-.1,2.8.87,4.06.89,5.22.08,7.1-2.68,7.39,6.08h-25.98Z"/>
    <path class="cls-13" d="M740.33,335.7l-50.96-1c.53-1.32,0-2.93,2.48-3.01,7.7,1.34,42.9-2.12,47.08.93,1.03.76,1.21,1.91,1.4,3.07Z"/>
    <path class="cls-13" d="M691.37,530.48c-2-1.9-1.62-6.88,1.5-6.99l80.45,1c.04.66-.04,1.33,0,2h-19.99c-17.25,0-39.96-1.76-56.47,0-4.54.48-3.69.87-5.48,4Z"/>
    <path class="cls-4" d="M469.53,668.33c-12.18-11.62-31.47-7.35-46.97-9.99.12-.09-.27-1.35.19-1.75,1.21-1.06,28.65-.53,32.05,0,5.73.89,11.77,4.3,14.53,9.47.78,1.46,1.57,1.08.2,2.28Z"/>
    <path class="cls-8" d="M551.47,586.42v2c-4.64.46-12.57-2.25-17.95-1.04-1.53-8.16-4.3-10.67,5.36-13.88,4.75,6.32,3.76,10.74,12.59,12.92Z"/>
    <path class="cls-3" d="M689.37,535.47v10.99c1.21,1.23,14.72-1.06,17.47-1.04,1.6.01,3.28,1.02,4.52,1.03.12,3.49.62,2.76-2.45,3-8.67.68-18.97.12-27.53-1,1.58-3.42-.43-7.11,3-8.99,3.11-1.71,2.63.49,5-4Z"/>
    <path class="cls-8" d="M528.49,587.42h-20.98c.35-9.15,21.99-11.53,20.98,0Z"/>
    <path class="cls-8" d="M557.32,580.28c-1.34,2.13-7.27,1.01-9.37-.83-6.27-5.47,2.17-12.84,8.58-10.58,1.25.89,1.39,10.45.79,11.41Z"/>
    <path class="cls-8" d="M520.49,576.42c-.32-4.8,3.16-11.12,8.52-11.06,10.51.12-2.92,13.92-8.52,11.06Z"/>
    <path class="cls-12" d="M450.55,475.54l2,3c-.68.6-8.96,9.72-9.99,10.99.08-2.47-2.04-3.22-4-4,.07-.35-.11-.78,0-1,.27-.52,7.36-7.1,8.49-8.04,1.27-1.06,3.37-.82,3.5-.95Z"/>
    <path class="cls-10" d="M758.32,557.45c.7-1.29,1.02-3.28,2.66-3.83,3.79-1.28,11.94.6,16.33-.17.18,1.59-.26,3.49,0,5-1.26-.15-2.82.22-4,0-4.95-.93-9.72-1.39-14.99-1Z"/>
    <path class="cls-8" d="M545.47,563.45c-1.22,7.74-7.11,8.16-7.98,0h7.98Z"/>
    <path class="cls-11" d="M442.55,489.53c-.2.25-.44,1.24-1,2-2.49-1.48-2.57-.28-3-3-.11-.71-.13-2.32,0-3,1.96.78,4.08,1.52,4,4Z"/>
    <path class="cls-4" d="M306.65,638.36c-.54,2.47-1.64,5.19-2,6.99-.64.08-1.41-.13-2,0,1.21-2.27,1.71-4.44,2-6.99h2Z"/>
    <path class="cls-7" d="M438.55,615.38c-.31,3.82-1.38,4.6-2,6.99-1.06-2.27.98-6.06,1-6.99h1Z"/>
    <path class="cls-11" d="M551.47,586.42c.83.2,2.05-.15,3,0-.23,1.52-1.67,1.86-3,1.99v-2Z"/>
    <path class="cls-12" d="M313.65,400.62c4.39,4.86,7.53,4.12,13.99,4.01-12.99,12.08-26.35-5.9-19.19-19.69,4.19-8.07,9.5-11.31,18.64-10.24,1.45.17,2.59,1.86,3.87,1.77,1.9-.13,4.26-3.14,7.15-2.87,2.74.25,2.67,3.29,4.07,4.99,3.51,4.29,6.94,6.93,8.01,13.01,2.01,11.44-10.31,21.98-20.07,14.02l7.77-1.23c8.84-2.8,9.61-11.2,4.97-18.49-.79-1.25-4.88-6.01-5.87-6.19-1.56-.27-2.54,2.26-4.07,2.74-2.08.65-4.65-.22-6.29.2,1.55-7.16-5.6-3.24-8.74-1.24-7.04,4.5-10.23,12.61-4.25,19.22Z"/>
    <path class="cls-13" d="M313.65,400.62c-5.97-6.61-2.78-14.72,4.25-19.22,3.13-2,10.29-5.92,8.74,1.24-3.75.96-12.26,13.56-12.99,17.98Z"/>
    <path class="cls-6" d="M347.36,477.71c6.5-.94,6.71,8.65,3.63,9.68-8.24,2.76-10.27-8.73-3.63-9.68Z"/>
    <path class="cls-6" d="M828,461.73c6.5-.94,6.71,8.65,3.63,9.68-8.24,2.76-10.27-8.73-3.63-9.68Z"/>
    <path class="cls-14" d="M507.5,518.49c-2.29-2.31-12.41-11.36-11.99-13.46,5.11-5.77,11.69,8.18,15.99,8.47,4.88.33,13.42-13.86,16.49-9,2.33,3.69-9.75,11.32-11.55,14.43-2.87,4.96.79,16.03,7.47,15.53.51-.04,5.35-1.79,5.57-1.99,1.74-.17,3.48.16,4,2-.27.44.31,2.08-.99,3.47-2.98,3.2-9.98,2.52-14,2.52-1.7-2.1-3.48-4.15-5.5-5.98-.99.86-1.57,2.08-2.5,2.98-2.8-.17-4.75,1.86-7.51,2.07-4.28.33-5.89-3.23-9.48-1.07-.7-1-1.46-1.27-1-2.99,3.89.8,6.55-1.13,9.99-2,.07-.02.69.86,1.34.75,5.34-.9,6.75-10.85,5.7-15.11-.29-1.19-1.89-.48-2.04-.63Z"/>
    <path class="cls-3" d="M468.53,543.46l-.59-.77c-2.61.2-5,2.25-4.41-1.23,3.99-2.23,23.37-12.79,26.33-11.9,2.17.65,2.11,2.83.65,4.41-2.46,2.64-17.62,7.53-21.98,9.49Z"/>
    <path class="cls-3" d="M462.54,506.51c-.41,3.94,1.59,1.01,2,1,5.08-.12,7.75,1.64,11.44,2.06,1.9.21,10.13-.45,10.54-.05.26,6.88-6.1,4.27-10.99,3.99l-6.49-3.49-7.5,1.49c-.91-.15-2.03.11-3,0,.37-3.93-1.4-1.08-2-1-3.34.44-6.72.2-5.99-3.99,3.96.21,8.04-.31,11.99,0Z"/>
    <path class="cls-3" d="M479.77,501.28c-5.52-5.51,4.63-15.65,9.82-8.33,5.35,7.54-5.21,12.94-9.82,8.33Z"/>
    <path class="cls-14" d="M471.53,522.49c5.53-1.63,11.06-4.46,16.99-3.99-.21,1.22.68,3.23-.59,4.1-2.27,1.56-11.15,2.23-14.4,2.89.35-1.66-.75-2.23-2-3Z"/>
    <path class="cls-12" d="M463.54,541.47c-.59,3.48,1.79,1.43,4.41,1.23l.59.77c-.9.4-17.51,10.92-13.51,2.98,1.5-2.99,6.01-3.57,8.52-4.98Z"/>
    <path class="cls-12" d="M471.53,522.49c1.25.77,2.35,1.34,2,3-1.19.24-15.18,5.26-14.97,1.5.14-2.48,11.16-3.96,12.97-4.49Z"/>
    <path class="cls-9" d="M507.5,518.49c.15.15,1.75-.56,2.04.63,1.05,4.25-.35,14.21-5.7,15.11-.65.11-1.26-.77-1.34-.75,2.87-4.51,4.9-9.52,5-14.98Z"/>
    <path class="cls-3" d="M510.5,537.47c-4.61,4.48-12.6,7.22-16.99,1,3.59-2.16,5.19,1.4,9.48,1.07,2.76-.21,4.71-2.24,7.51-2.07Z"/>
    <path class="cls-12" d="M461.54,511.5l7.5-1.49,6.49,3.49c-5.06-.28-9.09-1.18-13.99-2Z"/>
    <path class="cls-12" d="M464.54,507.51c-.41,0-2.41,2.94-2-1,.85.06,1.73.03,2,1Z"/>
    <path class="cls-12" d="M456.54,510.5c.6-.08,2.37-2.93,2,1-.84-.09-1.72,0-2-1Z"/>
    <path class="cls-4" d="M303.66,650.35c-.91,5.19-.76,10.36-2,15.98l-5.02-11.45c.85-3.19,3.69-5.07,7.02-4.54Z"/>
    <path class="cls-12" d="M746.33,636.37c-.44,2.31,2.24,2.85,2.8,4.69,1.25,4.13-.2,6.58-4.37,7.22-8.8,1.36-32.44.81-41.89.06-1.8-.14-8.44-.97-9.51-1.48-3.98-1.9-2.12-9.37,3.01-8.51.31-2.99-4.12-4.28-4.83-6.7-1.34-4.59,1.96-7.97,6.42-8.17l56.65.12c9.2,6.3.49,14.65-8.28,12.78ZM744.33,636.36h-45.97v3h38.47c2.58,0,6.69,3.19,7.49-3Z"/>
    <path class="cls-3" d="M732.34,435.59c5.92.04,25.39-1.16,29.34.14,2.49.82,1.53,4.71,1.64,6.86-1.99.06-4.01-.08-6,0-29.66,1.07-59.6-.68-89.29-.14-2.55-.84-2.65-6.64.86-6.85,21.15.09,42.32-.13,63.45,0Z"/>
    <path class="cls-14" d="M751.32,492.52c2.06.27.76,5.66,0,5.99l-74.99-.45c-1.65-1.13-1.46-4.76.7-5.39l74.29-.15Z"/>
    <path class="cls-14" d="M535.21,490.67c7.32-2.01,10.39,9.61,3.56,11.64-9.02,2.68-10.8-9.64-3.56-11.64Z"/>
    <path class="cls-12" d="M529.49,532.48c.22-.21.28-2.17,1.39-3.07,2.32-1.86,5.37-.35,5.42,2.4s-2.7,2.48-2.81,2.66c-.52-1.83-2.25-2.17-4-2Z"/>
    <path class="cls-14" d="M721.33,341.69c.88.56,2.96,12.68-2.47,10.97-2.92-.92-2.26-13.96,2.47-10.97Z"/>
    <path class="cls-14" d="M729.35,341.69c4.74-2.99,5.39,10.06,2.47,10.97-5.43,1.71-3.35-10.42-2.47-10.97Z"/>
    <path class="cls-14" d="M699.36,352.68c-6.84,1.75-3.14-6.08-3.99-10.99,6.17-.81,3.51,6.79,3.99,10.99Z"/>
    <path class="cls-14" d="M710.35,352.68h-3.99c-1.53-14.62,5.51-14.66,3.99,0Z"/>
    <path class="cls-13" d="M744.33,636.36c-.8,6.18-4.91,3-7.49,3h-38.47v-3h45.97Z"/>
  </g>
</svg>