<?xml version="1.0" encoding="UTF-8"?>
<svg xmlns="http://www.w3.org/2000/svg" viewBox="0 0 1024 1024">
  <defs>
    <style>
      .cls-1 {
        fill: #15191a;
      }

      .cls-2 {
        fill: #1f2723;
      }

      .cls-3 {
        fill: #373d3d;
      }

      .cls-4 {
        fill: #dddede;
      }

      .cls-5 {
        fill: #627a3f;
      }

      .cls-6 {
        fill: #383e3f;
      }

      .cls-7 {
        fill: #7f7373;
      }

      .cls-8 {
        fill: #eaebeb;
      }

      .cls-9 {
        fill: #232828;
      }

      .cls-10 {
        fill: #fff;
        opacity: .5;
      }

      .cls-11 {
        fill: #f8f9f9;
      }

      .cls-12 {
        stroke-width: 4px;
      }

      .cls-12, .cls-13 {
        fill: none;
        stroke: #252728;
        stroke-miterlimit: 10;
      }

      .cls-13 {
        stroke-width: 3px;
      }

      .cls-14 {
        fill: #b1ce62;
      }

      .cls-15 {
        fill: #fbfbfb;
      }

      .cls-16 {
        fill: #eee;
      }
    </style>
  </defs>
  <g id="_검은색_배경" data-name="검은색 배경">
    <rect class="cls-7" x="0" y="0" width="1024" height="1024"/>
  </g>
  <g id="_레이어_1" data-name="레이어 1">
    <path class="cls-1" d="M665.39,425.6c-.61-.88-3.29-1.2-1.53-4.01.55-.88,9.57-6.55,11.57-8.43,36.54-34.41,36.03-90.48,13.47-132.41-4.06-7.55-16.79-27.09-23.55-31.39s-14.92,2.59-13.98,9.95c17.71,35.99,36.67,77.81,22.73,118.57-12.65,36.98-36.83,35.02-66.66,49.74-4.37,2.16-6.84,3.36-10.99,5.99-4.39,2.78-6.91,4.69-10.99,7.99-2.37,1.92-4.77,3.91-6.99,5.99-11.11,10.4-17.97,20.16-25.98,32.96-1.32,2.11-2.07,5.51-3,6.99-4.23,6.73-8.56,14.29-12.99,20.98-2.24,3.38-5.46,7.85-7.99,10.99-1.03,1.27-2.07,2.97-3,4-1.02,1.12-3.92,4.06-5,4.99-12.92,11.22-27.83,16.55-42.97,5.99-1.74-1.22-4.42-4.14-6.99-5.99-7.91-5.7-10.12-7.56-18.99-11.99-1.21-.6-2.22-4.42-4.01-2.48,1.89,7.43,3.77,14.74,4.01,22.46-3.71-.29-5.25-2.03-8.65,1.34-2.37,2.36-1.57,2.95-5.34,5.65-4.98,3.56-9.81,13.89-12.01,20.46-2.08,6.24-4.35,11.18-1.72,17.73,4.58,11.4,23.95,13.04,34.07,17.89,18.55,8.89,29.03,31.5,22.68,51.35-4.16,13.01-24.64,39.42-36.11,46.81-8.3,5.34-22.6,5.93-21.9,18.57,20.92.64,42.05-.85,62.96,0-.77,3.17,3.88,2.98,3,0,.66.04,1.34-.06,2,0,.82,1.1-3.49,25.7-4.47,27-1.59,2.1-9.63.49-12.52.97,0,13.97,0,27.99,0,41.96h-4c0-5.98,0-12,0-17.98v-23.98c-14.94.46-30.04-.61-44.97,0-1.55.06-5.4-.65-6,1v45.95c1.65.06,3.34-.08,5,0,15.31.69,31.07-1.03,45.97-1,1.33,0,2.66,0,4,0,.18,0,1.54,1.07,3.38,1.07,21.86.04,43.73-.18,65.57-.07v-119.87h-32.48c-9.29,11.19-27.47,31.74-43.8,26.8-4.19-1.27-.32-3.89.33-4.82.86,1.16.16,3.09,2.41,2.99,2.41-.1,11.03-4.09,13.6-5.47,21.26-11.42,37.72-41.68,46.43-63.46,1.97-4.92,2.74-15.91,8.51-15.97-.63,3.65-.67,6.57-2,10.99-.77,2.56-2.03,7.01-3.07,9.21-.41.86-6.99,6.34.33,4.54,24.15-5.93,64.86-39.47,82.19-57.69,12.14-12.77,19.59-24.96,29.46-38.97,1.5-2.13,3.07-4.46,6-4-.07.65.04,1.34,0,1.99,7.91,1.56,14.28.92,22.09-.43,1.33-.23,2.42-1.46,2.89-1.56.88-.19,2.15.21,3,0,15.02-3.64,23.71-9.66,36.97-14.98,4.11-1.65,8.55-2.37,12.99-2-.13,1.11,4.82,9.31,5.76,11.73,2.37,6.15,7.53,27.32,3.7,32.19-4.4,5.59-3.4-10.68-3.59-12.32-.6-5.08-4.69-24.97-8.88-27.15-1.82-.94-20.47,7.31-21.71,8.8-.93,1.13-2.47,13.87-3.33,17.15-2.61,9.91-6.22,22.11-13.91,29.05,10.88,1.37,22.07-.14,32.97.49,2.16.13,4.19.97,6.99,1v4c-.33.02-.67-.01-1,0-27.26.92-55.56,0-82.94,0h-17.99c.09-1.44.15-2.77,1-4,6.22-.57,8.42-1.06,14.99,0,.14.02.88,1.4,1.99.99.11-.57-.15-1.86,0-1.99,1.21-.95,7.65.83,9.49.8,6.12-.11,12.01.28,17.98.28,19.37,0,26.65-28.04,28.43-43.6.24-2.1-.65-1.6-2.24-1.24-5.06,1.15-10.87,4.2-16.48,5.51-10.88,2.54-20.13,2.2-31.18,2.79-29.19,43.27-70.78,83.11-121.28,99.52-2.21,1.7-3.71,6.12-4.63,8.85-2.42.92-4.38,6.16-2,6.99,49.28.01,98.61-.01,147.89,0,1,0,2,0,3,0,13.93,0,27.99-.03,41.97,0,3.47,0,7.92-1,9.99-1,.33,0,.67,0,1,0,10.33.02,21.52,1.6,32.04,1.43,1.36.94,2.45,12.55-1.56,12.55h-30.48v115.87l-1,3.99c.66.05,1.33-.03,1.99,0,1.33.06,2.67-.04,4,0v4c-12.98.05-26-.09-38.97,0v-4c9.98.04,20-.04,29.98,0-.11-28.95.13-57.96,0-86.91-.05-10.97.03-21.99,0-32.97-15.3.18-30.67-.22-45.97,0-1.12.02-.61-.51-3,0-.92.2-2.74-.62-3.05.55-.98,38.2,1.5,77.22.06,115.32-.05,1.37-1.93,4.02,0,6.99-4.06,1.2-2.48-2.38-3.99-2.99l.05-119.31c-.32-1.21-2.17-.3-3.05-.55-2.33-.65-5.63-2.48-7.99,0-7.95-.51-17.95-.32-25.98,0-4.4-1.96-11.28-1.31-15.99,0-.88.25-2.73-.66-3.05.55l.03,118.73c.16,1.14,2.1.51,3.02.59.12,3.49.62,2.76-2.45,3-11.84.93-25.93.96-37.52,1-1.33,0-2.66,0-4,0-35.23.07-72.06-.91-107.38-.95-27.65-.04-55.29-.12-82.94.02-1.21-.33-.25-2.57-.54-3.06.63.09,1.52-.16,2,0,1.02.34,1.22,1.04,3.47,1.08,2.41.04,4.29-1.08,4.53-1.08,4.65-.13,9.34.07,13.99,0,.39,0,2.53,0,3,0,3.65-.05,7.34.03,11,0,.02-5.65-.05-11.34,0-16.99,2.98.88,3.18-3.77,0-3,.04-8.98-.04-18,0-26.98-3.14-.53-11.67,1.19-13.51-.98-.75-.89-4.99-20.23-5.28-22.76-1.04-9.16,17.98-1.49,20.85-3.63,1.28-.95,1.25-7.11,2.51-9.5,4.14-7.89,19.54-10.97,27.42-17.54,16.25-13.56,36.16-41.09,29-62.98-7.47-22.87-21.99-22.11-40.27-29.67-22.42-9.26-19.78-25.99-10.28-44.76,1.26-2.48,7.21-10.26,7.33-11.59.25-2.64-11.81-24.41-9.78-26.31,8.02-.59,15.02,4.75,21.97,7.99,1.42-2.02-5.14-17.39,4.43-15.99l37.56,27.47c18.61,7.5,36.26-14.04,45.38-27.55,21.45-31.78,28.96-58.1,64.86-79,29.48-17.16,60.82-13.32,73.13-51.76,12.46-38.92-5.43-80.58-23.44-114.45-1.04-6.56,2.69-14.21,8.94-16.91,10.55-4.56,17.65,5.41,23.38,12.58,40.31,50.43,45.66,130.69-13.39,168.71ZM446.55,531.46c1.97-2.7-14.29-10.61-16.98-10.97-.78.82,4.93,14.88,5.96,15.54,2.97,1.91,7.47-4.8,11.02-4.57ZM704.36,667.33c16.31-.04,32.66.02,48.97,0v-5h-237.83c-.27,0-2.19,4.81-1.99,4.99,24.96.03,49.98-.02,74.94,0,1,1.2,2,1.2,3,0,36.62.04,73.3.08,109.92,0,1,1.2,2,1.2,3,0ZM546.47,687.3c0,.64,0,1.43,0,2-.17,33.11.13,66.26,0,99.39.33,3.38,3.48,2.35,6,2.49,16.68.95,34.2-.71,50.97,0,.68-13.17,1.12-26.29,1.04-39.51-.09-16.75-.24-33.4-.05-50.4.05-4.24-1.06-7.67-1.09-11.48-.03-3.37,2.97-16.08.15-18.05-2.09-1.46-44.82-.66-51.03-.44-1.99.07-4.01-.06-6,0-.03,5.31.06,10.67,0,15.99ZM486.51,720.27l-84.46.99c-1.77-.2-1.51-.06-1.5,1.51.01,5.66,3.84,11.53,3.03,17.48l79.01-.44,3.92-19.54Z"/>
    <path class="cls-6" d="M607.43,427.59c-.87,2.94,3.05,4.49,3.04,6.49,0,2.42-5.34,4.42-3.57,8.45,2.44,5.55,11.22,1.47,14.54,3.51,1.4.86,1.31,3.5,2.22,4.27,2.3,1.93,5.86-1.15,4.83,5.75-.34,2.25-2.09,1.62-2.96,3.07-2.76,4.6-3.61,9.04-10.08,10.94-2.77.81-10.4-.32-9.05,3.96.49,1.57,9.3,2.96,11.31,3.71,2.99,1.11,5.2,4.22,8.66,3.77-.46-3.18,3.38-5.96,3.87-7.7.59-2.09-.58-3.77-.47-5.6.62-9.98,3.84-4.89,11.02-5.73,3.01-.35,5.8-2.71,8.18-2.92s4.53,1.29,6.82.99c.77-.1,7.83-3.53,8.12-3.97,1.59-2.41-3.62-4.37-4.33-6.73s.38-9.26,2.05-11.03,8.73-2.84,8.74-6.24c1.63,1.97,4.04,4.47,6,6.99-3.48-1.08-2.8,1.88-3,2-.96.58-3.05-1.35-3.01,1.48.09,5.85,3.98,8.58,4.81,12.22s-1.59,8.39.1,10.66c.43.58,5.02,1.62,5.52,1.5,2.69-.67-.07-5.72,3.57-4.88,1.12,2.47,1.83,6.29,3,8.99-5.96,5.61-3.05,16.7,6,14.99-.19-1.55.3-3.59,0-5,3.17,1.75,5.63,4.52,8.99,5.99l-6.99,2c-3.14,3.08,9.3,8.55,11.73,8.78,4.26.4,15.97-5.7,18.98.96,1.07,2.35.69,6.63,1.78,8.25.75,1.12,3.13.37,2.45,2.45-1.55,4.79-15.22,3.34-14.97,10.52-13.26,5.32-21.95,11.34-36.97,14.98l1.49-6.01c-4.74.18-4.99,1.62-4.48,6.01-.47.1-1.56,1.33-2.89,1.56-7.81,1.35-14.18,2-22.09.43.04-.65-.07-1.34,0-1.99.02-.21,1.32-.62.58-1.93-1.68-2.97-4.82-2.12-7.49-.97l.91,5.89c-3.5-.61-7.55-4.4-9.99-6.99-.73-.78-1.29-2.09-2-3,.87-1.2,3.12-.2,3.07-2.47-.07-3.75-7.79-18.74-6.07-20.5,7.32-.93,5.66,10.54,10.53,11.01,4.03.39,5.24-3.41,7.5-4.48,2.51-1.19,20.35-4.47,16.91-9.49-.18-.26-3.77-.69-5.44-3.06s-.96-4.33-1.73-6.3c-.56-1.44-2.1-1.41-2.86-2.38-.64-.83-.61-2.9-1.01-3.21-.91-.68-10.9,1.89-13.28,1.64-1.33-.14-2.57-1.71-4.12-1.68-2.99.07-9.59,5.21-13.97,5.03-5-.2-10.59-9.13-15.57-5.62-3.61,2.54.97,4.91,1.04,5.23.58,2.43-.34,5.95.07,8.76s2.88,5.23,1.94,8.55c-3.54,4.33-4.52,12.05-6.71,16.73-.5,1.06-1.27,1.07-2.29,3.25-6.93-1.16-4.97,2.22-6.92,5.32-1.28,2.03-5.85,2.61-6.12-.84-.09-1.08,4.91-14.02,5.83-16.19.86-2.04,3.14-2.96,3.96-5.03.89-2.23,3.61-13.55,2.77-15.23-2.97-5.93-10.09,2.49-11.5,1,.71-4.33-1.11-9.26-5.07-11.41-1.8-.98-3.95-.62-5.88-2.12-.93-.72-6.57-8.14-8.01-9.93-9.07-11.23,6.95-7.75,9.45-12.52.5-.96,2.7-11.36,2.61-12.51-.18-2.24-1.92-1.22-3.09-2.46,2.22-2.08,4.63-4.08,6.99-5.99,2.44,4.92,11.69-4.8,10.99-7.99,4.15-2.63,6.62-3.84,10.99-5.99ZM595.44,471.55c-1.35,3.67,4.99,7.05,5.98,3.48s-3.54-3.83-5.98-3.48Z"/>
    <path class="cls-10" d="M164.76,580.42c1.53-1.39,1.83-3.55,2-5.5,2.24-25.59-3.89-50.48,6.23-75.67,5.77-14.35,19.02-28.91,35.8-20.27,9.78,5.03,15.93,21.66,15.93,32.02v58.43c-5.39-1.45-10.79-3.39-16.49-3.01-6.43.44,1.21,4.5,4.06,4.94,2.29.35,11.99-.38,12.43.06.73.72-1.29,8.46.99,9.99-8.92,15.93-16.11,33.07-26.98,47.95-.07-41.12.01-82.27.05-123.41.03-3.4-2.5-5.01-4.04-1.45l-1.14,127.22c-.34,1.28-1.24,1.47-2.38,1.67-7.28,1.28-18.95-10.76-24.46-15.02.5-11.35,1.07-27.29-2-37.96Z"/>
    <path class="cls-3" d="M665.39,425.6c1.52,2.17,3.38,5.04,5,6.99-.01,3.4-7.1,4.5-8.74,6.24s-2.79,8.59-2.05,11.03,5.92,4.32,4.33,6.73c-.29.44-7.34,3.87-8.12,3.97-2.28.29-4.4-1.2-6.82-.99s-5.17,2.56-8.18,2.92c-7.18.84-10.4-4.24-11.02,5.73-.11,1.82,1.06,3.51.47,5.6-.49,1.74-4.34,4.51-3.87,7.7-3.47.45-5.68-2.66-8.66-3.77-2.02-.75-10.82-2.14-11.31-3.71-1.35-4.28,6.28-3.14,9.05-3.96,6.47-1.9,7.32-6.35,10.08-10.94.87-1.45,2.62-.82,2.96-3.07,1.04-6.9-2.53-3.83-4.83-5.75-.91-.76-.83-3.41-2.22-4.27-3.32-2.04-12.1,2.04-14.54-3.51-1.77-4.03,3.57-6.04,3.57-8.45,0-2-3.91-3.55-3.04-6.49,29.83-14.71,54.01-12.76,66.66-49.74,13.94-40.76-5.02-82.58-22.73-118.57-.94-7.36,7.13-14.31,13.98-9.95s19.48,23.84,23.55,31.39c22.56,41.93,23.07,98.01-13.47,132.41-1.99,1.88-11.01,7.55-11.57,8.43-1.76,2.81.92,3.13,1.53,4.01Z"/>
    <path class="cls-10" d="M225.71,581.42c8.52-15.22,16.46-28.18,32.06-37.37,23.99-14.14,40.33,4.61,37.73,28.73-12.48,7.21-24.87,14.63-35.79,24.13,0,1.64,7.54,2.96,9.26,2.53.93-.23,1.47-2.59,2.64-3.57,4.28-3.58,23.94-20.32,22.95-7.1s-6.02,21.73-11.89,32.61c-12.41,10.88-27.5,26.36-44.73,28.71-4.41.6-8.83,0-13.23.26l46.48-95.9-3.47-.96-47.01,92.86-15.71-5.77c-1.56-.92-2.78-2.22-4.28-3.22-.61-.41-1.37-.63-2-1,0-2.33,0-4.66,0-6.99,10.87-14.88,18.06-32.02,26.98-47.95ZM250.69,576.42c3.39-3.21-6.83-5.2-8.98-3.99-.78,3.45,8.37,4.57,8.98,3.99ZM249.7,621.38c-2.14,1.92,11.11,8.17,12.97,7.5-1.06-2.4-11.38-8.93-12.97-7.5Z"/>
    <path class="cls-10" d="M129.78,643.35c-.08-.35-1.06-.81-.99-2.34.19-4.4,4.62-11.49,3.98-16.64-4.26,2.25-5.61,5.99-7.76,9.72-.48.84.28,1.66-1.7,1.26-7.75-9.65-18.21-20.62-19.49-33.46-3.53-35.32,21.22-60.57,52.52-34.45l-3.56,12.99c2.2-.35,5.88-7.93,6.53-8.04,4.13-.71,4.68,5.36,5.45,8.04,3.07,10.67,2.5,26.61,2,37.96-.02.49-1.84,1.27-.52,3.96,2.27,4.63,17.64,15.79,23.51,16.02,1.56,1.72-11.5,15.48-14.99,14.97-11.67-20.54-25.02-40.21-36.52-60.88-3.98-4.08-5.6-2.57-3.5,2.5,8.19,19.83,28.19,40.52,36.03,61.38-3.99,0-6.93,3.13-10.73,3.75-12.17,2-22.08-9.48-30.24-16.74Z"/>
    <path class="cls-16" d="M622.42,317.72v23.97h-127.41c-2.9,0-1.22-20.92-.5-23.97h127.9Z"/>
    <path class="cls-16" d="M557.47,389.64h-101.92v-25.97h100.43c.11,0,1.5,1.39,1.5,1.5v24.47Z"/>
    <path class="cls-2" d="M301.66,413.61c1.22.32,6.1,5.39,6.58,6.95.88,2.89-.83,5.97-.16,7.04.61.97,3.55,1.66,5,3.06,4.81,4.66,3.21,15.14-4.01,15.89-4.08.43-5.96-3.43-4.42-4.98.81-.81,8.1,2.36,7.02-4.45-1.19-7.49-14-5.55-14.99-6.57-.14-.14-.16-3.82-.02-3.96.33-.35,5.64.24,7,0,.77-1.75-.85-3.18-1-3.99-.23-1.2.7-3.21-.58-4.11-1.11-.78-6.49-1.32-7.79-.94-.69.2-2.07,4.9-2.62,6.05-1.2-.09-3.11.27-4,0-.15-.05-.57-1.87-2.49-2.03-4.93-.42-9.02,6.46-7.5,11.02,2.03,6.09,9.58,5.53,10,7.51.29,1.34-1.81,2.5-2.01,3.47-10.66-1.08-9.13,6.52-2,10.99-4.77,4.16-4.28.52-8.55.05-4.41-.49-9.87-.07-14.44-.05-.67,0-1.33,0-2,0-3.99.05-8.01-.04-12,0,1.39,11.85-4.03,25.44,4,35.46,6.2,7.74,15.15,5.32,23.98,5.5,11.31.23,31.16,2.46,39.37-6.09,1.25-1.3,5.59-9.09,5.59-10.39v-14.48c1.3.17,3.22-.63,4.1.59,2.69,3.73-.19,15.81-1.93,20.06-1.65,4.05-4.4,6.75-6.68,10.29,6.38-1.4,10.64-2.94,14.33-8.64,1.02-1.57,4.16-8.43,4.16-9.82v-20.98c0-.11-1.39-1.5-1.5-1.5h-18.49c-.3,0,.12,4.26-.45,6.05-2.32,7.35-12.47,6.21-15.54-.06,2.07.36,2.24,0,2-2,.65.2,1.33.72,2,1,1.08.44,1.97,1.9,3.55,2.02,3.7.28,4.72-2.82,4.44-6.02-.21-2.46-2.4-4.35-1.99-6.99,4.21.53,7.42,2.99,11.97,1.98-.1-3.23.94-6.19,1.06-9.42.17-4.98-1.64-11.68-1.04-15.53,5.54,1.11,4.44,6.51,5.02,6.99,3.06,2.56,6.17-5.68,1.94-9.44-3.15-2.79-6.33-1.57-6.95,2.45-2.05-.41-5.73,1.1-5.99-2.48,1.99-2.31,3.85-4.07,6.99-4.51,7.5-1.05,13.13,3.67,11.96,11.42-.26,1.72-2.15,3.98-1.91,4.97.23.93,2.81,1.93,3.79,3.23,6.15,8.11,4.95,40.1.32,48.99-3.13,6-8.84,11.28-15.76,12.22-18.7,2.55-42.54-1.66-61.8.02-3.98-.61-9.28-5.26-11.39-8.59-6.38-10.02-3.11-28.48-3.12-39.83,0-2.73-1.48-4.64-.63-7.48,1.19-4,7.31-6.81,9.61-9.45,2.09-2.4,2.23-5.68,5.02-7.97,3.3-2.71,10.28-3.62,13.95-1.54.39.22,2.17,3.62,2.99,2.99-.14-5.6,7.35-5.57,6.01-10.99,1.55.29,3.63-.27,5.41.05,1.98.36,4.33,2.3,5.99,2.01,1.21-.21.64-3.12,2.24-4.14,1.46-.93,6.7-1.34,8.33-.91ZM269.68,429.59c-.58-.28-.37-1.74-3.43-2.07-4.43-.47-9.41,1.73-9.62,6.53-.17,3.78.95,4.53,4.06,4.53-.1,1.32.07,2.67,0,4-4.78.9-2.94.42-6.99-1-3.25-1.13-5.42-1.98-7.25,2.28-2.67,6.23,6.74,7.85,11.24,6.71,1.84-.46,2.11-3.44,3.65-3.9.62-.18,10.45.66,9.84,2.9,2.39-1.87,2.91-4.9,4.51-7.27.67-1,2.64-.24,1.95-2.17-3.72-1.3-4.51-9.71-5.12-10.41-.51-.59-2.36.11-2.84-.12ZM333.63,447.57c-.54-5-2.3-9.19-7.99-8.98v9.98s7.99-1,7.99-1Z"/>
    <path class="cls-1" d="M198.73,629.37c0,2.33,0,4.66,0,6.99.04,16.3-.02,32.65,0,48.95,6.3.19,12.7-.27,18.99,0,8.1.34,12.98.32,20.98,0,3.45-.14,11.34-1.36,11.99,2.5v73.93c-2.17,13.05-9.67,21.06-19.99,28.46-.43.31-1.76-.61-2,.51-.68,3.12,1.82.51,2,.49,4.73-.63,11.35-.12,15.99,1-4.05,1.51-7.06,1.78-10.99,3-1.3-.09-2.75.17-4,0-3.38-.46-3.12-.01-5,0-3.65.03-7.34.06-10.99,0-4.98-.09-10.82-.07-15.99,0-2.98.04-6.02.08-8.99,0-4.07-.11-8.77-.06-12.99,0-5.64.08-11.34.04-16.99,0-37.67-.26-75.96-.76-113.46-2-1.93-.06-4.01,1.02-3.45-2,33.88-3.44,73.44,2.58,107.92,0,4.58,3.08,10.16-1.39,14.98,1,.78-3.1-3.36-2.11-4.99-2.99-7.14-4.23-12.77-10.93-15.84-18.63-2.8-7.02-1.92-10.15-2.15-17.33h4c.11,6.24-1.13,9.37,1.5,15.98,3.05,7.68,8.62,10.53,13.49,15.98.95,1.06-2.03,1.3,3,2,1.66.23,3.43-.21,5,1v4c2.47,1.03,5.74-.91,6.99-1,12.54-.93,26.58,1.16,38.97,0-.47,3.64,2.9,2.14,3-1,5.64-1.19,5.8-2.63,9.99-4,.69-.22,2.27.43,2.89-.13.45-.41-.04-1.69.11-1.87,5-5.62,13.99-13.84,13.99-22.47v-71.42l-77.47.08c-1.27.33-2.04-2.08-2.47-2.08v-3c4.8-.06,9.23-.06,13.99,0,1.33.02,2.66,0,4,0,3.32.02,6.68-.02,10,0,.02-15.64-.04-31.32,0-46.95.11-44.6-.08-89.25,0-133.85,1.54-3.56,4.07-1.95,4.04,1.45-.03,41.14-.12,82.29-.05,123.41Z"/>
    <path class="cls-2" d="M747.32,692.3l24.58,84.8c3.54,6.91,14.21,11.81,21.55,13.44,1.46.32,3.88,1.53,4.83-.35,5.71,1.72,31.92,1.83,38.23.76s13.81-6.17,17.72-10.75c1.57-1.84,2.46-1.36,3.74-4.76,7.52-19.94,13.52-48.81,19.24-70.16h4c-5.84,24.47-12.37,48.8-19.47,72.93-2.87,6.03-7.75,8.83-12.5,12.97h109.92c1.12,6.93-4.03,3.93-8.45,3.94-61.12.23-121.68.2-182.41-.95v-3c3.94-.03,8.13.44,11.99-.49-6.39-3.66-10.71-7.56-13.46-14.51-8.21-20.75-16.49-54.35-22.22-76.68-.8-3.12-.95-5.11-1.29-8.21,1.6-.79,3.35.91,4,1Z"/>
    <path class="cls-9" d="M358.61,667.33c-10.55-1.42-21.65-1.11-29.98,5.99-8.23,7.02-9.42,11.85-10.04,22.43-.41,7,.68,13.83,1.05,20.53.21,3.96-.16,8.02,0,11.99h-31.98c-1.33,0-2.66-.01-4,0-2.66.02-5.34-.07-7.99,0s-5.34-.05-8,0v52.37c.16,1.13,6.41.46,8,.57,2.15.16,4.83-.54,4.99,2.48-1.28,2.01-3.09,1.35-4.99,1.51-.33.03-.67-.02-1,0-5.96.29-12.03-.21-17.99,0-.8,2.06.95,4.68,1,5.99.02.46-1.34,1.94-1,2.99,1.42,1.18,11.55-1.09,13.41-.76,1.06.19,1.41,1.71,1.58,1.77-1.04,1.66-3.79,1-5.48,1.02-10.39.13-20.38-.31-30.49-1.02,3.93-1.22,6.95-1.49,10.99-3,.69-.26,1.67-1.21,2.8-1.7.95-.42,2.91-.11,3.15-.34,1.39-1.36-3.25-12.19,11.05-8.94-.12-16.15.12-32.33.04-48.49-.03-6.26-3.69-15.3,6.43-16.46,11.03-1.27,26.86.02,38.49.02.15,2.22.04,3.52-2.5,4-6.09,1.15-14.42-1.62-20.49.99-3.76-.62-5.81-1.12-9.99-1-3.21.09-8.49-1.33-8,3.49.13.94,6.49.47,8,.5,12.97.28,26.01-.21,38.98,0,.05-.66-.04-1.33,0-2,.1-1.99-.04-4,0-5.99.17-8.12,1.53-23.53-2.57-29.91-1.06-1.64-2.43-2.04-3.43-3.05-.14-.14.16-1.3-.29-1.68-6.11-5.12-22.88-5.11-30.68-4.32v-4c7.47-1.17,16.85-1.52,24.23.25,4.9,1.17,7.48,3.79,11.74,5.74-.04-4.56.81-9.05-1.99-12.98.52-.22,3.82-1.86,4-2,2.34,3.87,3.64,7.33,3.01,11.99,5.39-4.22,11.64-12.32,18.7-13.76,3.98-.81,21.98-2.16,21.26,4.77ZM254.69,793.2c-1.4-.72-2.67.63-1.99.98,1.4.72,2.67-.63,1.99-.98Z"/>
    <path class="cls-2" d="M275.68,414.61c1.71-4.86,11.99-29.78,11.99-31.46v-207.77c0-1.02,3.14-2.06,3.99-1.49.27.18,1.09,4.47,1.06,5.44l-.07,204.84,9.02,20.45v1c-.3.54-.18,1.55-1,2-.21-.23-2.52-.24-2.87-1.58l-9.11-17.39c-2.71,6.48-4.91,17.54-8.2,23.28-.91,1.59-2.22,2.08-3.81,2.69h-1Z"/>
    <path class="cls-9" d="M328.64,716.27c2.61-3.07,13.71-2.55,17.43-1.94,6.46,1.06,5.54,7.85,6.66,8.82,1.28,1.11,9.31-2.29,7.9,4.48-.15.73-1.84.16-2.09,2.06-1.92,14.79,13.6,38,17.07,54.51-1.42.85-1.4,4.89-1.01,6.33.29,1.06,1.95.57,2,.66.29.49-.67,2.74.54,3.06,27.64-.14,55.29-.06,82.94-.02,35.32.05,72.15,1.02,107.38.95h-292.78c18.68-2.01,37.82.47,56.51-1,3.07-.24,2.57.49,2.45-3h10.99c-1.33.18-7.02,1.28-4.49,3l15.48-.02-2.99-2.99c1.66-.06,3.33.01,5,0-.04,2.77-.81,3.27,2.47,2.99,4.08-.35,8.16-1.71,12.53-1,.05-.66-.04-1.33,0-2,.56-9.89-8.99-27.18-12.99-36.96-4.51-11.02-8.02-19.47-11.65-30.81-2.7-8.41-10.55-3.98-16.85-5.17-2.03-.38-2.32-1.94-2.47-1.98Z"/>
    <path class="cls-1" d="M676.38,439.58c1.91,2.47,4.04,3.71,6.16,7.32,9.41,15.99,6.54,33.39,28.76,38.18,9.01,1.94,27.84,1.75,34.96,6.01,5.17,3.09,8.13,15.66,9.06,21.41.31,1.93.79,4.12,1,5.99,1.04,9.08,1.44,21.32.99,30.46-.49,9.8-1.89,20.03-6,28.97,0,1.13,4.45-.09,6.03.99,5.58,3.83-5.42,4.04-5.91,4.62-.89,1.04.98,8.68-1.1,10.89-.38-.29-1.59-.92-2-1-.25-2.33-3.14-5.3-3.07-7.44.03-.79,3.15.08,2.07-2.54h-6.99c-.03-.33-.89-3.82-1-4,11.1-.19,12.38-16.75,12.98-25.48,1.23-17.92,1.1-35.32-5.99-51.43-1.22-2.76.9-5.86-4.42-8.07-10.77-4.47-27.63-1.68-39.55-6.91-3.36-1.48-5.82-4.24-8.99-5.99-.44-2.08-4.67-6.93-6-9.99-1.17-2.7-1.87-6.52-3-8.99-3.27-7.2-6.12-14.65-10.99-20.98.19-.12-.49-3.08,3-2Z"/>
    <path class="cls-10" d="M405.58,396.63c.09.06-.3,1.89.53,2.05,2.53.47,3.27-1.98,3.47-2.05,1.56-.54,7.27.77,8.99,1.5,6.53,2.78,9.53,9.72,8.99,16.48-4.91,2.27-6.8,6.03-12.32,8.16-11.03,4.27-20.86,1.52-27.65-8.16-.15-7.13,3.85-15.12,11.16-17.31,1.38-.41,6.02-1.22,6.83-.67Z"/>
    <path class="cls-1" d="M405.58,396.63l.5-191.79,3.51.58v191.21c-.22.07-.96,2.52-3.49,2.05-.82-.15-.44-1.99-.53-2.05Z"/>
    <path class="cls-10" d="M316.65,657.34c.48,0,1.64,1.46,2.98.56s3.03-5.33,4.97-7.1c2.05-1.87,4-1.73,5.04-2.45.48,1.3,1.9.96,3,1l-9.99,10.99c-5.47-1.42-5.78,3.09-6.99,4-.18.13-3.48,1.77-4,2-1.04.45-9.56,2.99-10.5,3.06-9.38.68-22.24-13.6-24.47-22.04,9.1.38,14.7,6.25,21.63,9.84,4.11,2.14,6.41,1.31,2.7-2.69s-11.13-7.9-16.32-9.16c.09-1.53,4.51-1.98,5.53-2,5.57-.12,12.21,1.81,16.39,5.57,2.49,2.24,4.79,7.86,7.1,8.97,1.57.75,2.42-.54,2.95-.54Z"/>
    <path class="cls-16" d="M600.43,262.76c-.22.34-4.43.99-5.45,1.06-37.79,2.75-78.87-2.2-117.01,0-2.35.75-4.66-2.74-3.45-4.04.26-.28,6.29-.97,7.46-1.04,37.38-2.44,77.35,1.95,115-.01,2.33-.54,4.58,2.24,3.44,4.03Z"/>
    <path class="cls-6" d="M174.75,653.34c.51.9.31,3.13,1.25,3.8.82.6,2.45,0,2.75.19.6.39,6.62,12.01,6.77,12.71.99,4.77.06,10.51-.77,15.26-1.33,0-2.67.02-4,0,.78-6.94,2.97-13.46-2.17-19.31-.89-1.01-.94-2.11-2.82-1.66-.68.76,3.31,13.34-.51,14.97s-2.33-4.4-2.49-6.98c1.58-.66,1.58-4.34,0-4.99,0-1.9.22-4.2,0-5.99-.08-.68-1.45-3.54-2-4.99-7.84-20.85-27.83-41.55-36.03-61.38-2.1-5.07-.48-6.59,3.5-2.5,11.5,20.67,24.85,40.34,36.52,60.88ZM176.74,660.34h-1.99v2.99h1.99v-2.99Z"/>
    <path class="cls-8" d="M709.35,395.63c-.14-.14-.2-4,0-4h111.42c1.72,0,1.72,4,0,4h-111.42Z"/>
    <path class="cls-16" d="M262.68,304.74c3.73,5.29-18.57,4.07-20.52,4.03-2.36-.06-4.55-1.04-6.91-1.08-25.52-.49-51.08.94-76.49-1.47.12-5.24,17.07-3.63,21.54-3.53,24.68.57,52.88-.73,76.95.99,1.03.07,5.21.72,5.45,1.06Z"/>
    <path class="cls-10" d="M358.61,667.33c4.09.55,13.13,9.25,12.77,13.33-.46,5.25-9.04,5.43-12.77,5.65.65-6.19-7.31-3.56-11.37-4.12-3.55-.49-8.27-1.62-11.61-2.87-4.33-1.63-4.45-1.8-6.99-5.99,8.33-7.1,19.43-7.41,29.98-5.99ZM341.63,670.33c-3.62,3.41,11.64,6.67,13.23,7.24,2.84,1.02,6.81,3.78,8.69,4.32,3.19.92,4.37-2.23,1.44-4.46-2.88-2.19-21.24-9.1-23.35-7.11Z"/>
    <path class="cls-10" d="M277.67,677.32c7.8-.79,24.57-.8,30.68,4.32.45.38.16,1.54.29,1.68-1.78.53-5.66,2.04-6.99,3-2.04-4.36-8.34,1.48-11.73,2.76-5.08,1.91-15.29,1.43-15.25,7.23-2.99,0-9.01,1.21-7.99-2,.23-.11,1-1.57,2.26-2.19,2.93-1.45,19.01-8.03,19.56-8.96s.03-2.65.17-3.83c-2.31-.32-4.37.29-6.55.94-2.72.81-15.1,6.54-17.44,8.04-7.88-1.85-4.64-3.91-1-7.99,5.08.45,9.04-2.49,13.99-3Z"/>
    <path class="cls-9" d="M668.38,787.19c1.55.51.63,3.5,1.05,3.95.29.32,2.95-.01,3.95.05,5.47.34,11.44-.02,16.99,0v4c-37.72.26-75.6,1.77-113.46,1.03-1.9-.04-3.89.47-5.46-1.03,11.59-.03,25.68-.07,37.52-1,3.07-.24,2.57.49,2.45-3,4.4.37,9.47-.03,13.99,0-.12,3.49-.62,2.76,2.45,3,10.84.85,20.29-2.07,31.29-.25,3.25.54,2.16-.12,2.23-2.75.88.06,2.47-.21,3,0,1.51.61-.07,4.19,3.99,2.99-1.93-2.97-.05-5.61,0-6.99Z"/>
    <path class="cls-16" d="M505.01,239.8c-.77-.22-2.03-2.24-1.49-2.99,2.16-3.04,64.94-.74,74.48-.96,4.47-.1,11.63-3.69,10.45,3.95h-83.44Z"/>
    <path class="cls-8" d="M203.23,280.76h78.94c.84,0,1.86,2.26,1.48,3.48-1.04,3.31-9.98.56-12.43.48-22.28-.72-44.69.63-66.99.03-2.84-.51-3.39-2.28-1.01-3.99Z"/>
    <path class="cls-9" d="M151.77,685.31c-.61,2.97,2.55,3.13,2,0,4.32-.09,8.67.05,12.99,0v3c-.13,0-.87,1.02-2.41,1.03-2.53.02-5.07-.06-7.59-.04-.09,3.49.14,7.04,0,10.54-.08,1.92,1.03,4.01-2,3.45-.05-4.65.03-9.34,0-13.99h-7.01c.08,15.64-.1,31.32,0,46.95h-4c-.08-8.16-.09-16.22.04-24.43.12-7.68-1.02-16.74-.69-23.89.19-4.21,5.16-2.51,8.64-2.62Z"/>
    <path class="cls-9" d="M316.65,657.34c-.53,0-1.39,1.29-2.95.54-2.31-1.11-4.61-6.73-7.1-8.97-4.18-3.76-10.82-5.69-16.39-5.57-1.01.02-5.44.47-5.53,2,5.19,1.26,12.7,5.25,16.32,9.16s1.42,4.83-2.7,2.69c-6.92-3.59-12.52-9.46-21.63-9.84-1.17-4.44,1.76-6.03,6.17-7.31,14.52-4.24,29.67,2.19,33.8,17.3Z"/>
    <path class="cls-10" d="M222.72,653.34c.17-.5-.11-1.38,0-2,.56-.05,1.48-.97,2-1,4.4-.26,8.82.34,13.23-.26,17.23-2.35,32.32-17.83,44.73-28.71-1.03,1.92-.95,4.16-3.17,7.32-9.71,13.8-39.74,32.97-56.78,24.65Z"/>
    <path class="cls-16" d="M241.7,330.7h-73.45c-1.72,0-1.72-4,0-4h71.95c1.06,0,1.9,2.83,1.5,4Z"/>
    <path class="cls-16" d="M297.66,623.38h60.46c1.27,0,3.13,4.24-1,4.99-9.31,1.69-24.05-.92-34.02-1.04-6.38-.07-11.01.38-17.98,0-4.14-.23-7.97,3.84-7.45-3.95Z"/>
    <path class="cls-10" d="M427.56,414.61c-1.76,22.03-39.44,25.11-39.97,0,6.79,9.68,16.62,12.43,27.65,8.16,5.51-2.14,7.41-5.89,12.32-8.16Z"/>
    <path class="cls-9" d="M43.85,791.19c-.56,3.02,1.53,1.93,3.45,2,37.5,1.24,75.79,1.74,113.46,2-1.57,1.49-3.56.99-5.46,1.03-31.82.63-64.4.19-95.93-1.07-3-.12-18.85.74-19.53.04-2.12-2.2,2.08-3.8,4-3.99Z"/>
    <path class="cls-16" d="M727.34,372.66c-.13-.14-.1-2.69.12-3.37,1.08-3.25,5.25-.77,7.37-.81,9.65-.21,19.18.05,28.94.23,3.46.07,22.68-.85,23.52-.04.6.58-.44,3.99-1.49,3.99h-58.46Z"/>
    <path class="cls-16" d="M321.64,575.43h51.46c1.26,0,4.02,4.49-2.95,5.04-14.8,1.19-31.17-.71-46.02-1.05-2.47-.43-2.77-1.62-2.49-4Z"/>
    <path class="cls-1" d="M272.68,791.19c-.61,2.97,2.55,3.13,2,0h58.96c.12,3.49.62,2.76-2.45,3-18.69,1.47-37.82-1.02-56.51,1-.7.08-2.53.16-3,0-.17-.06-.52-1.58-1.58-1.77-1.85-.33-11.98,1.95-13.41.76-.35-1.05,1.02-2.53,1-2.99h14.99Z"/>
    <path class="cls-10" d="M170.75,656.34c.55,1.46,1.91,4.31,2,4.99-4.05-.04-7.82,3.35-11.55,3.93-12.59,1.95-28.78-9.88-31.42-21.91,8.16,7.26,18.08,18.74,30.24,16.74,3.8-.63,6.74-3.74,10.73-3.75Z"/>
    <path class="cls-16" d="M266.68,353.67c-14.98.33-33.75,2.7-48.51,1.05-4.81-.54-4.66-3.58,0-4.09,9.37-1.02,21.27.37,31.07.09,4.85-.14,17.98-4.43,17.45,2.95Z"/>
    <path class="cls-9" d="M344.62,655.34l10.99-9.98c-2.76-.11-5.46-.08-8.21.27-4.73.6-8.31,3-11.77,3.72-.76.16-2.11.03-3,0-1.1-.04-2.51.3-3-1,.13-.09-.13-1.62,1.66-2.8,5.87-3.9,17.92-4.88,24.81-4.18,2.44.25,8.41.69,7.39,4.34-.82,2.94-14.96,9.88-18.87,9.63Z"/>
    <path class="cls-10" d="M335.63,649.35c3.46-.72,7.04-3.11,11.77-3.72,2.75-.35,5.46-.38,8.21-.27l-10.99,9.98c-5,3.42-10.66,6.89-16.99,5.99,2.57-3.66,5.12-8.3,7.99-11.99Z"/>
    <path class="cls-3" d="M222.72,651.34c-.11.62.17,1.5,0,2-.46,1.38-1.63,2.2-1.92,4.57-1.01,8.52,1.37,18.15-1.08,26.39,1.67,1.22,15.9-1.63,18.99,1.01-8.01.32-12.88.34-20.98,0-1.02-5.23-2.28-31.13,0-33.96.62-.16,1.54-1,2-1,.16,0,1.29,1.16,3,1Z"/>
    <path class="cls-10" d="M264.68,688.3c2.34-1.5,14.72-7.23,17.44-8.04,2.18-.65,4.23-1.27,6.55-.94-.14,1.18.39,2.88-.17,3.83s-16.62,7.51-19.56,8.96c-1.26.62-2.02,2.08-2.26,2.19-1.6.77-6.47,1.84-6.99-.51-.15-.68,4.45-5.13,4.99-5.48Z"/>
    <path class="cls-9" d="M301.66,686.31c-.09.06.19,1.41-.7,2.02-8.79,6.03-15.58,8-26.28,7.97-.04-5.81,10.17-5.32,15.25-7.23,3.39-1.28,9.69-7.12,11.73-2.76Z"/>
    <path class="cls-16" d="M344.62,604.4c-.55-.57.23-4.99,1.5-4.99h18.99c1.88,0,1.88,4.99,0,4.99-2.91,0-19.77.74-20.48,0Z"/>
    <path class="cls-9" d="M358.61,686.31c-6.57.39-22.59,2.01-22.98-6.99,3.34,1.25,8.06,2.38,11.61,2.87,4.06.56,12.01-2.07,11.37,4.12Z"/>
    <path class="cls-10" d="M317.64,405.62c.06.09,1.33-.35,1.97.72.87,1.44.85,4.5,1.03,6.27-2.56.97-2.43-2.68-3-3-.16-.9.23-3.78,0-4-.19-.18-4.54-.21-5.3-.02-1.14.28-1.17,2.72-2.24,3-1.76.47-5-3.18-6.45-3.98l3.15-5.82c2.9-.5,7.21-.57,9.31,1.86,1.56,1.8,1.13,4.34,1.53,4.96Z"/>
    <path class="cls-1" d="M303.66,404.62c1.44.8,4.68,4.45,6.45,3.98,1.08-.28,1.1-2.73,2.24-3,.76-.19,5.1-.16,5.3.02.23.22-.16,3.1,0,4-.34-.19-2.18.04-3,0-3.51-.16-3.78-.88-4,2-.05.65.14,1.47,0,2-.09.35.13.82,0,1-2.75,3.67-4.41-1-5.44-2.02-1.15-1.14-2.68-2.06-3.55-2.97-.66-.68-.76-1.73-1-2,.82-.45.7-1.46,1-2,.18-.33.75-.62,1-1,.33.08.78-.12,1,0Z"/>
    <path class="cls-10" d="M335.63,649.35c-2.87,3.68-5.42,8.33-7.99,11.99-1.25,1.78-2.78,3.17-4.99,2.99v-3.99s9.99-10.99,9.99-10.99c.89.03,2.24.16,3,0Z"/>
    <path class="cls-10" d="M279.67,416.61c1.35,5.42-6.15,5.39-6.01,10.99-.82.63-2.59-2.77-2.99-2.99,1.57-3.42,3.73-6.39,5-9.99h1c.78.81,1.9,1.79,3,2Z"/>
    <path class="cls-10" d="M277.67,673.32v4c-4.95.5-8.91,3.45-13.99,3,4.93-5.53,6.76-5.86,13.99-6.99Z"/>
    <path class="cls-2" d="M760.32,791.19c-.64,2.38,1.54,1.82,3,3-3.12,0-8.6,1.01-12.99,1v-4c3.32.02,6.67.02,9.99,0Z"/>
    <path class="cls-1" d="M147.77,736.25c.02,3.65-.04,7.33,0,10.99h-4c-.14-3.64.03-7.34,0-10.99h4Z"/>
    <path class="cls-9" d="M740.33,791.19v4c-3.66,0-7.34-.01-10.99,0v-4c3.64.12,7.34-.03,10.99,0Z"/>
    <path class="cls-1" d="M750.32,791.19v4c-3.32,0-6.67,0-9.99,0v-4c3.32.02,6.67-.02,9.99,0Z"/>
    <path class="cls-9" d="M215.72,795.18c-4.29,1.68-11.63,1.69-15.99,0,5.17-.07,11.01-.09,15.99,0Z"/>
    <path class="cls-9" d="M161.76,789.19c1.63.88,5.77-.1,4.99,2.99-4.82-2.38-10.4,2.09-14.98-1l9.99-2Z"/>
    <path class="cls-9" d="M147.77,747.24c.02,2-.03,4,0,5.99h-4c-.06-2,.08-3.96,0-5.99h4Z"/>
    <path class="cls-9" d="M190.74,795.18c-3.43,1.69-9.62,1.68-12.99,0,4.22-.06,8.92-.11,12.99,0Z"/>
    <path class="cls-1" d="M768.31,791.19v3c-1.66-.03-3.33,0-5,0-1.46-1.17-3.64-.62-3-3,2.66-.02,5.33.02,7.99,0Z"/>
    <path class="cls-3" d="M386.59,791.19c-.23,0-2.11,1.13-4.53,1.08-2.24-.04-2.45-.74-3.47-1.08,2.12-1.65,5.83-1.64,7.99,0Z"/>
    <path class="cls-3" d="M376.6,791.19c-.05-.09-1.71.4-2-.66-.4-1.44-.42-5.48,1.01-6.33.42,2.02,1.84,4.18,1,6.99Z"/>
    <path class="cls-9" d="M231.71,795.18c-1.45,1.47-3.54,1.47-5,0,1.88-.01,1.62-.46,5,0Z"/>
    <path class="cls-10" d="M172.75,672.32c-.16-2.53,0-3.13,0-4.99,1.58.66,1.58,4.34,0,4.99Z"/>
    <path class="cls-9" d="M414.57,771.21c3.18-.77,2.98,3.87,0,3,0-1,0-2,0-3Z"/>
    <path class="cls-3" d="M403.58,791.19c-.47,0-2.61,0-3,0,1-1.2,2-1.2,3,0Z"/>
    <path class="cls-9" d="M230.71,790.19v1c-.18.02-2.68,2.63-2-.49.24-1.12,1.57-.2,2-.51Z"/>
    <path class="cls-1" d="M153.77,685.31c.55,3.13-2.61,2.97-2,0,.66-.02,1.33.01,2,0Z"/>
    <path class="cls-10" d="M320.64,416.61l-.99-.51.99-1.49c.01.67,0,1.33,0,2Z"/>
    <path class="cls-10" d="M301.66,405.62v-1h1c-.25.38-.82.67-1,1Z"/>
    <path class="cls-3" d="M520.49,528.48c3.89,1.62.58,5.77,2.98,8.51.59.67,13.87,7.08,15.97,8.01,1.57.69,4.63.06,5.6,1.4,3.58,4.94-5.54,17.25.95,20.04,1.22.52,2.49-3.67,5.48-1.99-10.24,12.46-11.36,31.59-13.99,46.95-5.77.06-6.54,11.05-8.51,15.97-8.71,21.79-25.17,52.05-46.43,63.46-2.57,1.38-11.18,5.37-13.6,5.47-2.25.1-1.55-1.84-2.41-2.99,7.23-10.38,6.43-11.57,9.99-22.97,4.06-.35,2.43-.06,3.01,2.44.34,1.45,1.23,8.31,3.38,7.47,4.9-1.93,7.08-6.02,10.2-9.8,1.02-1.24,2.84-1.72,3.88-3.11,2.28-3.04,4.26-12.39-.16-13.83-3.19-1.04-6.78,2.48-8.32-1.14,5.81-17.51-7.53-36.15-.51-52.95,3.8-9.09,16.52-20.64,7.52-31.2-7.2-8.44-22.49,2.54-30.02,5.75-1.05.45-2.33.23-2.97.48,1.88-2.17,3.85-12.42,5.57-12.95,3.32-1.02,3.88,3.35,4.59,3.78,2.77,1.65,5.04-2.12,7.24-2.89s15.1-3.27,15.57-3.92c-1.58-2.99-1.65-10.59-3.44-12.1-.99-.84-11.62.66-14.04-2.88-.63-.93-.48-2.7-1.07-3.92-.96-2-5.33-3.76.57-5.06,15.14,10.56,30.05,5.23,42.97-5.99Z"/>
    <path class="cls-8" d="M604.43,701.29c-.2,17-.05,33.64.05,50.4.07,13.22-.36,26.34-1.04,39.51-16.77-.71-34.29.94-50.97,0-.83-36.89,1.12-74,0-110.88,3.42-.16,6.63,1.53,9.67,2.82,11.81,5.03,25.02,13.17,36.59,17.38,1.94.71,3.64,1.04,5.71.78Z"/>
    <path class="cls-8" d="M720.34,704.29c.14,28.95-.1,57.96,0,86.91-9.98-.04-20,.04-29.98,0-5.55-.02-11.51.34-16.99,0,.45-29.78-.59-59.65-.04-89.44.09-5.06.93-10.72,1.04-15.44l45.97,17.98Z"/>
    <path class="cls-15" d="M632.41,528.48c.71.91,1.27,2.22,2,3-23.19,29.17-46.93,57.12-77.63,78.73-6.33,4.46-13.87,10.34-21.3,12.17,1.33-4.42,1.37-7.34,2-10.99,2.63-15.35,3.75-34.48,13.99-46.95.78-.95,5.43-5.67,6-5.99,4.86-2.76,15.2-3.72,20.98-5.5,15.12-4.65,15.89-10.47,21.99-23.47,1.02-2.18,1.79-2.19,2.29-3.25,2.19-4.68,3.16-12.41,6.71-16.73,3.95-4.82,10.09-4.06,13.4,1.09,3.79,5.91,4.3,11.16,9.58,17.89Z"/>
    <path class="cls-11" d="M739.33,579.42c-.7-1.17-6.4,4.71-7,2.02-1.08-.19-7.29,0-2.99-6.01-1.55-.43-3.8,1.4-4-1.46-.28-3.99.67-7.65.51-11.52-4.22,4.2-7.17,9.83-6.5,15.98-10.9-.64-22.09.88-32.97-.49,7.69-6.94,11.3-19.14,13.91-29.05.86-3.28,2.4-16.02,3.33-17.15,1.24-1.5,19.9-9.75,21.71-8.8,4.19,2.18,8.28,22.07,8.88,27.15.19,1.64-.81,17.91,3.59,12.32,3.83-4.87-1.33-26.04-3.7-32.19-.93-2.42-5.89-10.61-5.76-11.73.2-1.75,3.82-3.8,5-4.99,2.46-2.48,3.34-4.11,5-5.99,2.36-2.69,4.59-3.89,7.99-4.99,7.09,16.11,7.22,33.52,5.99,51.43-.6,8.73-1.88,25.29-12.98,25.48Z"/>
    <path class="cls-6" d="M552.47,480.54c10.82-.47,6.72,1.69,8.23,8.26.5,2.15,2.31,7.87,3.7,9.28,2.92,2.99,7.31.25,10.06,1.93.94.58,1.35,2.59,2.46,3.54s3.18.84,4.02,1.97c4.72,6.31-3.97,10.65-5.26,16.69-1.42,6.66-1.72,13.37-2.22,19.73-.19,2.35-4.83,6.31-3,10.52l-9.96-1.98c.77,3.66-2.41,4.86-3.03,7.96-.57.32-5.22,5.05-6,5.99-2.99-1.69-4.26,2.51-5.48,1.99-6.49-2.79,2.63-15.1-.95-20.04-.97-1.34-4.03-.71-5.6-1.4-2.1-.93-15.38-7.33-15.97-8.01-2.4-2.74.91-6.88-2.98-8.51,1.07-.93,3.98-3.87,5-4.99-.87,3.51,4.83,2.09,5.56,1.06,1.24-1.75,1.34-6.43-2.56-5.06,2.54-3.14,5.75-7.61,7.99-10.99,1.75,2.84,4.47,3.25,6.53,4.96,1.03.86,3.95,7.2,5.39,2.41,1.25-4.16-3.75-6.37-3.88-8.82-.35-6.84,7.08-9.51,7.79-13.27.51-2.73-.5-4.89-2.84-6.25.93-1.48,1.68-4.88,3-6.99Z"/>
    <path class="cls-8" d="M644.4,538.47v1c-9.87,14.01-17.32,26.21-29.46,38.97-17.32,18.22-58.04,51.76-82.19,57.69-7.33,1.8-.74-3.67-.33-4.54,1.04-2.2,2.29-6.65,3.07-9.21,7.43-1.83,14.97-7.71,21.3-12.17,30.7-21.61,54.44-49.55,77.63-78.73,2.44,2.59,6.49,6.38,9.99,6.99Z"/>
    <path class="cls-3" d="M578.45,447.57c1.18,1.24,2.91.22,3.09,2.46.09,1.15-2.11,11.55-2.61,12.51-2.5,4.77-18.52,1.29-9.45,12.52,1.44,1.79,7.09,9.21,8.01,9.93,1.92,1.5,4.08,1.14,5.88,2.12,3.96,2.15,5.78,7.09,5.07,11.41,1.41,1.49,8.53-6.93,11.5-1,.84,1.68-1.88,13-2.77,15.23-.82,2.07-3.1,2.98-3.96,5.03-.92,2.17-5.92,15.11-5.83,16.19.28,3.45,4.85,2.86,6.12.84,1.95-3.1,0-6.48,6.92-5.32-6.1,13-6.87,18.81-21.99,23.47-5.77,1.78-16.12,2.74-20.98,5.5.62-3.11,3.8-4.3,3.03-7.96l9.96,1.98c-1.83-4.22,2.81-8.17,3-10.52.51-6.36.8-13.07,2.22-19.73,1.29-6.04,9.98-10.38,5.26-16.69-.84-1.13-2.93-1.04-4.02-1.97s-1.52-2.96-2.46-3.54c-2.75-1.69-7.14,1.05-10.06-1.93-1.39-1.42-3.2-7.13-3.7-9.28-1.51-6.57,2.59-8.73-8.23-8.26,8.01-12.81,14.87-22.56,25.98-32.96Z"/>
    <path class="cls-8" d="M486.51,720.27l-3.92,19.54-79.01.44c.81-5.95-3.01-11.83-3.03-17.48,0-1.57-.26-1.71,1.5-1.51l84.46-.99Z"/>
    <path class="cls-16" d="M469.53,768.21c0,5.98,0,12,0,17.98v4c-14.9-.03-30.65,1.69-45.97,1,.43-13.27-.58-26.7,0-39.96,5.04.15,10.53,1.59,15.27,3.22,10.5,3.6,20.2,10.15,30.7,13.76Z"/>
    <path class="cls-4" d="M725.34,583.42l2.99,17.97c-13.49-.02-27.01.02-40.51.05-4.29,0-8.62.02-12.91,0-9.84-.05-19.84.31-29.58-.48l-2.93-17.54c27.38,0,55.67.92,82.94,0Z"/>
    <path class="cls-6" d="M477.53,534.47c-5.9,1.3-1.53,3.06-.57,5.06.59,1.22.44,2.99,1.07,3.92,2.42,3.54,13.04,2.04,14.04,2.88,1.79,1.51,1.85,9.1,3.44,12.1-.47.65-13.34,3.15-15.57,3.92s-4.47,4.55-7.24,2.89c-.72-.43-1.28-4.8-4.59-3.78-1.71.53-3.68,10.79-5.57,12.95-4.02,1.58-3,2.18-8.99,3-2.74-1.86-7.05-2.8-9.99-1-4.02-1.64-4.2-1.27-6.99-4.99,2.48-1.1,2-4.12,3.15-6.34,1.64-3.15,7.05-10.89,10.58-11.5,2.57-.45,4.59,2,6.26-.66-7.11-10.74,14.4-13.78,13.99-24.45,2.57,1.85,5.25,4.78,6.99,5.99ZM474.52,550.46h-2.99s0,3.99,0,3.99h1.48c1.57-1.06,1.74-2.14,1.51-3.99Z"/>
    <path class="cls-6" d="M588.44,667.33c-24.96-.03-49.98.03-74.94,0-.2-.18,1.72-4.99,1.99-4.99h237.82v5c-16.3.02-32.66-.04-48.96,0-.43,0-2.55,0-3,0-36.62.08-73.3.04-109.92,0-.44,0-2.56,0-3,0Z"/>
    <path class="cls-11" d="M750.32,607.39h-125.9c.39-7.93-.52-16.05,0-23.97h19.88l3.24,17.54c10.77.79,21.82.43,32.69.48,4.74.02,9.52,0,14.27,0,14.92-.03,16.08-.06,30.98-.05l-2.9-19.54c.37-.01,14.1,1.59,14.47,1.57.73-.04,1.55.1,2.21,0,.28-.04.73-.76,1.1-1l8.85-.98c2.25,7.68-1.72,18.16,1.09,25.95Z"/>
    <path class="cls-4" d="M674.38,671.32c15.3-.23,30.67.17,45.97,0,.03,10.97-.06,21.99,0,32.97l-45.97-17.98c.11-4.64-.08-9.34,0-13.98v-1Z"/>
    <path class="cls-4" d="M604.43,701.29c-2.07.26-3.77-.07-5.71-.78-11.57-4.2-24.77-12.34-36.59-17.38-3.04-1.29-6.25-2.98-9.67-2.82-.1-3.2-1.52-5.91,0-8.99,6.2-.22,48.93-1.02,51.03.44,2.82,1.96-.18,14.68-.15,18.05.03,3.81,1.13,7.25,1.09,11.48Z"/>
    <path class="cls-9" d="M625.42,579.42c-.85,1.23-.91,2.56-1,4-.47,7.92.35,16.04,0,23.98h113.92c.21.63,1.36,2.11,2,3.99h-15.99s0,45.95,0,45.95c-.33,0-.67,0-1,0-5.97-1.32-3.01-10.69-3-13.98.04-8.54,1-20.46.05-28.52-.12-1.01-.46-3.45-1.55-3.45h-47.46c-.03,4.32.05,8.67,0,12.99-.12,10.97.09,21.99,0,32.96h-3c-3.52-12.88,1.3-30.88-1-43.45-.15-.83-.8-2.5-1.5-2.5h-45.47c-.15-6.49.19-13.02.04-19.52-.08-3.56-3.4-11.76,1.71-13.33,2.01-.62,3.08.9,3.25.89Z"/>
    <path class="cls-8" d="M720.34,643.35c-.01,3.29-2.97,12.66,3,13.98-2.08,0-6.52,1.01-9.99,1,.56-3.02-1.53-1.93-3.45-2-11.48-.38-23.05.28-34.52,0l1-30.97c9.94,3.34,23.46,10.5,33.01,15.45,4.41,2.28,4.58,4.94,10.95,2.53Z"/>
    <path class="cls-15" d="M552.47,671.32c-1.52,3.08-.1,5.79,0,8.99,1.12,36.87-.83,73.98,0,110.88-2.52-.14-5.66.88-6-2.49.13-33.13-.17-66.28,0-99.39l.99-1.49-.99-.51c.05-5.31-.04-10.67,0-15.99,1.99-.05,4.01.08,6,0Z"/>
    <path class="cls-3" d="M470.53,528.48c.41,10.67-21.1,13.71-13.99,24.45-1.67,2.66-3.69.22-6.26.66-3.52.61-8.94,8.35-10.58,11.5-1.15,2.22-.67,5.24-3.15,6.34-7.12-9.51-2.49-17.89,1-27.97,3.77-2.7,2.97-3.29,5.34-5.65,3.4-3.37,4.94-1.63,8.65-1.34,1.6.12,4.6,1.88,7.07-.58-.63-6.97-5.04-12.85-7.07-19.4,8.87,4.43,11.07,6.28,18.99,11.99Z"/>
    <path class="cls-4" d="M424.57,744.24c14.93-.61,30.03.46,44.97,0v23.98c-10.51-3.61-20.21-10.16-30.71-13.76-4.74-1.62-10.23-3.07-15.27-3.22.04-.95-.2-3.72,0-4,.14-.19,3.8.76,1-3Z"/>
    <path class="cls-15" d="M671.38,671.32l3,1c-.08,4.65.11,9.34,0,13.98s-.95,10.38-1.04,15.44c-.55,29.79.49,59.66.04,89.44-.99-.06-3.66.27-3.95-.05-.41-.45.5-3.44-1.05-3.95,1.44-38.1-1.03-77.12-.06-115.32.32-1.17,2.13-.35,3.05-.55Z"/>
    <path class="cls-3" d="M746.33,502.51c-3.4,1.1-5.63,2.31-7.99,4.99l-6,1.01,1.01,4.98c-1.18,1.19-4.79,3.24-5,4.99-4.44-.38-8.88.35-12.99,2-.25-7.18,13.42-5.72,14.97-10.52.68-2.08-1.7-1.33-2.45-2.45-1.09-1.62-.72-5.9-1.78-8.25-3.02-6.66-14.72-.56-18.98-.96-2.43-.23-14.87-5.7-11.73-8.78l6.99-2c11.91,5.24,28.78,2.44,39.55,6.91,5.32,2.21,3.2,5.31,4.42,8.07Z"/>
    <path class="cls-15" d="M418.57,745.24c2.69.25,5.72-1.23,5,2-.2.27.04,3.05,0,4-.58,13.25.43,26.69,0,39.96-1.66-.08-3.34.07-5,0v-45.95Z"/>
    <path class="cls-15" d="M676.38,625.37l-1,30.97c11.48.27,23.04-.39,34.52,0,1.93.06,4.01-1.02,3.45,2-13.97-.03-28.04,0-41.97,0v-1c.09-10.97-.12-21.99,0-32.96,1.94-.39,3.32.43,5,1Z"/>
    <path class="cls-3" d="M549.47,487.53c2.34,1.37,3.35,3.53,2.84,6.25-.71,3.76-8.14,6.43-7.79,13.27.13,2.45,5.12,4.66,3.88,8.82-1.44,4.79-4.36-1.55-5.39-2.41-2.05-1.71-4.78-2.12-6.53-4.96,4.44-6.68,8.76-14.25,12.99-20.98Z"/>
    <path class="cls-8" d="M446.55,531.46c-3.55-.22-8.06,6.48-11.02,4.57-1.03-.66-6.74-14.72-5.96-15.54,2.69.36,18.95,8.27,16.98,10.97Z"/>
    <path class="cls-8" d="M451.54,516.49c2.02,6.55,6.43,12.43,7.07,19.4-2.46,2.46-5.47.7-7.07.58-.24-7.73-2.12-15.03-4.01-22.46,1.79-1.93,2.8,1.88,4.01,2.48Z"/>
    <path class="cls-4" d="M719.35,578.43c-.67-6.14,2.28-11.78,6.5-15.98.16,3.86-.79,7.53-.51,11.52.2,2.87,2.45,1.03,4,1.46-.18.46-.09,3.19,0,4-1,0-2,0-3,0-2.8-.03-4.83-.87-6.99-1Z"/>
    <path class="cls-3" d="M596.44,433.59c.7,3.19-8.55,12.91-10.99,7.99,4.08-3.3,6.6-5.21,10.99-7.99Z"/>
    <path class="cls-3" d="M650.4,535.47c-2.92-.46-4.49,1.86-6,4v-1l-.91-5.89c2.66-1.15,5.8-2.01,7.49.97.74,1.31-.56,1.72-.58,1.93Z"/>
    <path class="cls-9" d="M627.41,671.32c-.18,0-1.63.98-3.38,1.07-3.73.19-9.6.53-12.61-1.07,4.71-1.31,11.58-1.96,15.99,0Z"/>
    <path class="cls-3" d="M528.49,519.49c3.9-1.37,3.8,3.3,2.56,5.06-.73,1.03-6.43,2.45-5.56-1.06.93-1.03,1.97-2.72,3-4Z"/>
    <path class="cls-3" d="M675.38,535.47c-.5-4.39-.25-5.83,4.48-6.01l-1.49,6.01c-.85.21-2.11-.19-3,0Z"/>
    <path class="cls-3" d="M473.53,786.19v4c-1.33,0-2.66,0-4,0v-4h4Z"/>
    <path class="cls-9" d="M661.39,671.32c-2.13,2.85-6.51.1-7.99,0,2.37-2.48,5.66-.65,7.99,0Z"/>
    <path class="cls-9" d="M729.34,579.42c.07.57.75,2.05,1,3h-1l-1,1c-.59.1-1.34-.04-2,0v-4c1,0,2,0,3,0Z"/>
    <path class="cls-8" d="M520.49,658.34c-2.38-.83-.43-6.07,2-6.99-.69,2.03-.99,4.85-2,6.99Z"/>
    <path class="cls-16" d="M424.57,744.24c2.8,3.76-.86,2.8-1,3,.73-3.22-2.31-1.75-5-2,.6-1.65,4.45-.94,6-1Z"/>
    <path class="cls-9" d="M725.34,791.19c-.66-.03-1.33.05-1.99,0l1-3.99,1,4Z"/>
    <path class="cls-9" d="M591.44,667.33c-1,1.2-2,1.2-3,0,.44,0,2.56,0,3,0Z"/>
    <path class="cls-3" d="M488.52,716.27c.88,2.98-3.77,3.17-3,0,1,.04,2-.06,3,0Z"/>
    <path class="cls-9" d="M704.36,667.33c-1,1.2-2,1.2-3,0,.44,0,2.57,0,3,0Z"/>
    <path class="cls-9" d="M674.38,671.32v1l-3-1c2.39-.51,1.87.02,3,0Z"/>
    <path class="cls-9" d="M642.4,578.43c-.16.13.1,1.42,0,1.99-1.11.41-1.85-.97-1.99-.99l2-1Z"/>
    <path class="cls-4" d="M546.47,689.3c0-.57,0-1.36,0-2l.99.51-.99,1.49Z"/>
    <path class="cls-8" d="M671.38,657.34v1c-1,0-2,0-3,0v-1h3Z"/>
    <path class="cls-3" d="M609.43,509.5c.94-3.32-1.55-5.87-1.94-8.55-.41-2.81.51-6.32-.07-8.76-.07-.31-4.65-2.68-1.04-5.23,4.98-3.51,10.57,5.42,15.57,5.62,4.38.18,10.98-4.96,13.97-5.03,1.55-.04,2.8,1.54,4.12,1.68,2.38.25,12.37-2.31,13.28-1.64.41.3.37,2.38,1.01,3.21.75.97,2.29.94,2.86,2.38.77,1.97.02,3.88,1.73,6.3s5.27,2.8,5.44,3.06c3.44,5.02-14.4,8.3-16.91,9.49-2.26,1.07-3.46,4.86-7.5,4.48-4.86-.47-3.21-11.94-10.53-11.01-1.72,1.76,6,16.75,6.07,20.5.04,2.27-2.2,1.27-3.07,2.47-5.28-6.73-5.79-11.98-9.58-17.89-3.31-5.15-9.45-5.91-13.4-1.09Z"/>
    <path class="cls-3" d="M673.38,441.58c4.87,6.32,7.72,13.78,10.99,20.98-3.64-.84-.88,4.21-3.57,4.88-.5.12-5.09-.92-5.52-1.5-1.7-2.26.71-7.08-.1-10.66s-4.72-6.37-4.81-12.22c-.04-2.83,2.05-.9,3.01-1.48Z"/>
    <path class="cls-3" d="M693.37,481.53c.3,1.41-.19,3.45,0,5-9.05,1.71-11.95-9.38-6-14.99,1.33,3.05,5.56,7.91,6,9.99Z"/>
    <path class="cls-3" d="M595.44,471.55c2.44-.35,7.01-.22,5.98,3.48s-7.34.19-5.98-3.48Z"/>
    <path class="cls-10" d="M194.74,638.36c-4.64.38-4.14,5.58-5.82,8.67-2.9,5.36-5.94,6.44-10.17,10.31-.3-.19-1.92.4-2.75-.19-.94-.68-.74-2.9-1.25-3.8,3.49.51,16.55-13.25,14.99-14.97-5.87-.23-21.23-11.39-23.51-16.02-1.32-2.69.5-3.47.52-3.96,5.51,4.25,17.18,16.3,24.46,15.02,1.15-.2,2.04-.4,2.38-1.67l1.14-127.22c-.08,44.6.11,89.25,0,133.85Z"/>
    <path class="cls-6" d="M224.71,650.35c-.52.03-1.44.95-2,1-1.71.16-2.84-1-3-1l1-4,47.01-92.86,3.47.96-46.48,95.9Z"/>
    <path class="cls-10" d="M220.72,646.35l-1,4c-.46,0-1.38.84-2,1-5.61-4.6-15.8-5.31-16.99-13.98,1.5,1,2.72,2.29,4.28,3.22l15.71,5.77Z"/>
    <path class="cls-4" d="M249.7,621.38c1.59-1.43,11.91,5.09,12.97,7.5-1.85.67-15.1-5.57-12.97-7.5Z"/>
    <path class="cls-4" d="M250.69,576.42c-.61.58-9.76-.54-8.98-3.99,2.15-1.21,12.37.77,8.98,3.99Z"/>
    <path class="cls-11" d="M275.68,728.26v52.94c-1.59-.11-7.84.56-8.01-.57v-52.37c2.67-.05,5.35.07,8.01,0Z"/>
    <path class="cls-16" d="M287.67,728.26v52.94h-3c0-.18-1.02-1.63-1.07-3.38-.51-16.48.53-33.08.07-49.56,1.33,0,2.66,0,4,0Z"/>
    <path class="cls-16" d="M274.68,785.2l1,2v4h-17.99c-.06-1.32-1.81-3.93-1-5.99,5.96-.22,12.03.29,17.99,0Z"/>
    <path class="cls-9" d="M287.67,781.2c4.57,0,16.99-.88,20.33.16,3.95,1.23,1.06,3.58-2.79,3.89-6.9.55-14.54-.5-21.53-.05-.54-1.35,1.02-3.36,1-3.99h3Z"/>
    <path class="cls-2" d="M343.63,724.26c.14.14.2,4,0,4h-15.99c-.4-1.16.44-4,1.5-4,2.1,0,13.99-.52,14.49,0Z"/>
    <path class="cls-1" d="M352.62,791.19l2.99,2.99-15.48.02c-2.52-1.72,3.17-2.82,4.49-3,2.4-.33,5.44.1,7.99,0Z"/>
    <path class="cls-1" d="M372.6,791.19c-.04.66.06,1.34,0,2-4.37-.72-8.45.65-12.53,1-3.27.28-2.51-.22-2.47-2.99.33,0,.67,0,1,0h13.99Z"/>
    <path class="cls-9" d="M339.24,781.29c3.71-1.14,6.03,2.61,3.42,4.44-3.91,2.74-7.3-3.24-3.42-4.44Z"/>
    <path class="cls-4" d="M275.68,787.19l-1-2c.33-.02.67.03,1,0v2Z"/>
    <path class="cls-11" d="M258.69,454.56c-.73,1.45.97,2.84,1,3,.46,2.87.21,8.85,0,11.99-.08,1.18-3.31,5.68,1,4.99.03.66-.05,1.34,0,2l-.98.5.98.5c.07.65-.11,1.39,0,2,.19,1.04.54,3.2,1.22,3.8.53.47,1.4.06,1.77.19,1.29,6.34,6.87,8.09,10.99,11.99-8.83-.18-17.78,2.24-23.98-5.5-8.04-10.03-2.61-23.62-4-35.46,3.99-.03,8.01.06,12,0Z"/>
    <path class="cls-11" d="M300.66,407.62c.24.27.34,1.31,1,2v4c-1.63-.43-6.87-.01-8.33.91-1.61,1.02-1.04,3.93-2.24,4.14-1.67.29-4.01-1.65-5.99-2.01-1.79-.32-3.86.24-5.41-.05-1.1-.2-2.22-1.19-3-2,1.59-.61,2.9-1.1,3.81-2.69,3.29-5.74,5.48-16.8,8.2-23.28l9.11,17.39c.35,1.34,2.67,1.35,2.87,1.58Z"/>
    <path class="cls-16" d="M260.69,479.54c2.47.56,2.69-1.89,2.9-3.57.42-3.4-.63-19.71.11-20.41.14-.14,3.99-.19,3.99,0v22.97l9.98,3.48c-4.09,2.66-9.5,3.14-13.98,1.51-.37-.14-1.24.28-1.77-.19-.68-.61-1.03-2.76-1.22-3.8Z"/>
    <path class="cls-9" d="M290.66,468.55c-.13.09.55,2.75-1.48,1.99-3.84-1.32-7.47-13.85-.52-13.98-1.17,5.71,4.87,1.41,8.73,1.31,1.2-.03,1.51.46,2.27.69.25,2,.07,2.35-2,2-.16-.03-.2-1.26-.99-1-.07.99.05,2-.01,3l-7,1.01,1,4.99Z"/>
    <path class="cls-8" d="M285.67,443.58c-1.06,5.27,5.84,4.15-2,10.99-7.13-4.46-8.66-12.07,2-10.99Z"/>
    <path class="cls-4" d="M287.67,423.6l-9.99,8.99c-1.52-4.56,2.57-11.45,7.5-11.02,1.93.17,2.34,1.99,2.49,2.03Z"/>
    <path class="cls-4" d="M291.66,423.6c.55-1.16,1.93-5.85,2.62-6.05,1.3-.37,6.68.17,7.79.94,1.29.9.36,2.91.58,4.11-3.12,1.45-7.53,1.25-10.99,1Z"/>
    <path class="cls-4" d="M301.66,459.56c-1.21-5.41,4.39-1.52,7.99-4,.28,3.19-.74,6.3-4.44,6.02-1.58-.12-2.47-1.58-3.55-2.02Z"/>
    <path class="cls-4" d="M296.66,462.56c-.62,9.89-3.2,4.17-6,5.99l-1-4.99,7-1.01Z"/>
    <path class="cls-16" d="M260.69,474.54c-4.3.68-1.08-3.81-1-4.99,1.46,1.46.93,3.23,1,4.99Z"/>
    <path class="cls-10" d="M314.65,409.61c.62,3-1.48,1.87-4,2,.22-2.88.48-2.16,4-2Z"/>
    <path class="cls-16" d="M260.69,454.56l-1,3c-.02-.16-1.73-1.54-1-3,.67,0,1.33,0,2,0Z"/>
    <path class="cls-10" d="M310.65,414.61c.13-.17-.09-.65,0-1l.98.5-.98.5Z"/>
    <path class="cls-16" d="M260.69,477.54l-.98-.5.98-.5c.02.33-.04.67,0,1Z"/>
    <path class="cls-11" d="M755.32,692.3c.54,3.7,1.46,7.4,2.5,10.99,5.82,20.05,12.53,45.91,20.03,64.89,1.87,4.72,3.4,7.08,6.45,11.03,3.28,4.24,8.61,9.36,13.99,10.99-.95,1.88-3.38.67-4.83.35-7.34-1.63-18.01-6.53-21.55-13.44l-24.58-84.8c2.39.32,5.44-.07,7.99,0Z"/>
    <path class="cls-9" d="M800.29,687.3c.38.85,2.22.39-.37,1.11-8.8,2.45-41.44,1.51-52.14.92-1.89-.1-3.67-.47-5.45-1.04.51-2.85,52.51.11,57.96-1Z"/>
    <path class="cls-5" d="M817.27,687.3c-1.07-.96-.69-.98-1-2l1,2Z"/>
    <path class="cls-10" d="M269.68,429.59c.47.23,2.32-.46,2.84.12.61.7,1.4,9.11,5.12,10.41.69,1.93-1.28,1.17-1.95,2.17-1.6,2.37-2.12,5.4-4.51,7.27.61-2.23-9.22-3.08-9.84-2.9-1.54.46-1.81,3.44-3.65,3.9-2.44-2.1-5.58-4.8-4.86-8.29l.86-.7c4.06,1.41,2.22,1.9,6.99,1,2.86-.54,8.91-1.26,6.48-5.01-2.25.36-4.14,1.01-6.48,1.01.53-6.76,1.62-9.1,8.99-8.99Z"/>
    <path class="cls-8" d="M253.69,441.58l-.86.7c-.72,3.49,2.42,6.19,4.86,8.29-4.51,1.13-13.91-.48-11.24-6.71,1.82-4.26,3.99-3.41,7.25-2.28Z"/>
    <path class="cls-8" d="M333.63,447.57l-7.98,1v-9.98c5.68-.21,7.44,3.98,7.98,8.98Z"/>
    <path class="cls-8" d="M269.68,429.59c-7.37-.11-8.46,2.23-8.99,8.99-3.12,0-4.23-.75-4.06-4.53.22-4.8,5.2-7,9.62-6.53,3.07.33,2.85,1.78,3.43,2.07Z"/>
    <path class="cls-4" d="M319.64,425.6c.63-4.02,3.8-5.24,6.95-2.45,4.23,3.76,1.12,12-1.94,9.44-.57-.48.52-5.88-5.02-6.99Z"/>
    <path class="cls-3" d="M260.69,438.58c2.34,0,4.23-.65,6.48-1.01,2.43,3.75-3.62,4.47-6.48,5.01.07-1.32-.1-2.68,0-4Z"/>
    <path class="cls-10" d="M301.66,409.61c.87.91,2.41,1.83,3.55,2.97,1.03,1.02,2.69,5.7,5.44,2.02l.98-.5-.98-.5c.14-.52-.05-1.35,0-2,2.52-.12,4.62,1,4-2,.81.04,2.65-.19,3,0,.57.32.44,3.97,3,3,.06.65-.01,1.34,0,2l-.99,1.49.99.51v2c-3.14.44-5,2.2-6.99,4.51.26,3.58,3.94,2.07,5.99,2.48-.6,3.85,1.22,10.55,1.04,15.53-.11,3.23-1.16,6.2-1.06,9.42-4.56,1.01-7.76-1.45-11.97-1.98-.4,2.64,1.78,4.53,1.99,6.99-3.61,2.47-9.21-1.41-7.99,4-.67-.28-1.34-.8-2-1-.76-.23-1.07-.72-2.27-.69-3.85.09-9.9,4.4-8.73-1.31-6.95.13-3.32,12.66.52,13.98,2.03.76,1.35-1.9,1.48-1.99,2.8-1.82,5.37,3.9,6-5.99.06-.99-.06-2.01.01-3,.78-.26.82.97.99,1,3.07,6.27,13.22,7.41,15.54.06.56-1.79.14-6.05.45-6.05h18.49c.11,0,1.5,1.39,1.5,1.5v20.98c0,1.39-3.15,8.25-4.16,9.82-3.7,5.69-7.95,7.24-14.33,8.64,2.28-3.54,5.03-6.24,6.68-10.29,1.74-4.26,4.61-16.33,1.93-20.06-.88-1.22-2.8-.41-4.1-.59v14.48c0,1.3-4.34,9.09-5.59,10.39-8.21,8.55-28.06,6.32-39.37,6.09-4.12-3.9-9.7-5.65-10.99-11.99,4.48,1.63,9.89,1.15,13.98-1.51l-9.98-3.48v-22.97c0-.2-3.85-.14-3.99,0-.74.7.32,17.01-.11,20.41-.21,1.68-.43,4.12-2.9,3.57-.11-.61.07-1.35,0-2-.04-.33.02-.67,0-1-.05-.66.03-1.34,0-2-.07-1.76.46-3.54-1-4.99.21-3.13.46-9.11,0-11.99l1-3c4.57-.02,10.02-.43,14.44.05,4.27.47,3.77,4.11,8.55-.05,7.84-6.83.93-5.71,2-10.99.2-.98,2.29-2.13,2.01-3.47-.42-1.98-7.97-1.43-10-7.51l9.99-8.99c.89.27,2.8-.09,4,0,3.46.25,7.87.46,10.99-1,.15.81,1.78,2.24,1,3.99-1.36.25-6.67-.34-7,0-.14.14-.12,3.82.02,3.96.99,1.01,13.8-.93,14.99,6.57,1.08,6.82-6.21,3.65-7.02,4.45-1.55,1.55.34,5.41,4.42,4.98,7.21-.76,8.82-11.23,4.01-15.89-1.45-1.41-4.39-2.09-5-3.06-.67-1.07,1.04-4.16.16-7.04-.48-1.56-5.36-6.63-6.58-6.95v-4Z"/>
    <path class="cls-6" d="M166.76,688.3c.43,0,1.2,2.41,2.47,2.08l77.47-.08v71.42c0,8.63-8.99,16.86-13.99,22.47-1.46.01-2.56.57-3,2-4.19,1.36-4.36,2.81-9.99,4-1.04.22-2.51.95-3,1-12.39,1.16-26.43-.93-38.97,0l-6.99-4c-22.46-15.3-15.91-48.64-15.99-72.92,3.23.91,2.97-5.08,0-4-.01-2.33.03-4.66,0-6.99,3.03.56,1.92-1.53,2-3.45.14-3.5-.1-7.05,0-10.54,2.52-.02,5.06.06,7.59.04,1.54-.01,2.28-1.03,2.41-1.03Z"/>
    <path class="cls-16" d="M147.77,736.25c-.1-15.64.08-31.32,0-46.95h7.01c.03,4.65-.06,9.34,0,13.99.03,2.33-.01,4.66,0,6.99,0,1.33,0,2.66,0,4,.08,24.28-6.47,57.62,15.99,72.92v1c-1.56-1.21-3.33-.77-5-1-.43-1.43-1.54-1.98-3-2-4.87-5.45-10.44-8.3-13.49-15.98-2.62-6.62-1.39-9.74-1.5-15.98-.03-2,.02-4,0-5.99-.04-3.65.02-7.33,0-10.99Z"/>
    <path class="cls-9" d="M170.75,787.19l6.99,4c-1.25.09-4.52,2.04-7,1v-4s0-1,0-1Z"/>
    <path class="cls-9" d="M219.72,790.19c-.09,3.14-3.46,4.64-3,1,.49-.05,1.95-.78,3-1Z"/>
    <path class="cls-9" d="M165.76,787.19c-5.03-.7-2.05-.94-3-2,1.46.01,2.56.57,3,2Z"/>
    <path class="cls-9" d="M232.71,784.2c-.15.17.34,1.46-.11,1.87-.61.56-2.2-.09-2.89.13.43-1.43,1.54-1.98,3-2Z"/>
    <path class="cls-4" d="M275.68,720.27v4c-1.5-.03-7.87.44-8-.5-.49-4.82,4.79-3.4,8-3.49Z"/>
    <path class="cls-1" d="M254.69,793.2c.68.35-.58,1.7-1.99.98-.68-.35.58-1.7,1.99-.98Z"/>
    <rect class="cls-10" x="174.76" y="660.34" width="1.99" height="2.99"/>
    <path class="cls-10" d="M341.63,670.33c2.11-1.99,20.47,4.92,23.35,7.11,2.93,2.23,1.75,5.38-1.44,4.46-1.88-.54-5.84-3.3-8.69-4.32-1.58-.57-16.85-3.83-13.23-7.24Z"/>
    <path class="cls-1" d="M661.39,791.19c-.08,2.63,1.01,3.28-2.23,2.75-11-1.82-20.45,1.1-31.29.25-3.07-.24-2.57.49-2.45-3,11.69.07,24.47-.74,35.97,0Z"/>
    <path class="cls-9" d="M274.68,791.19c.55,3.13-2.61,2.97-2,0h2Z"/>
    <path class="cls-6" d="M488.52,652.34c1.54,3.62,5.14.11,8.32,1.14,4.42,1.44,2.43,10.78.16,13.83-1.04,1.39-2.86,1.88-3.88,3.11-3.11,3.78-5.3,7.87-10.2,9.8-2.15.85-3.04-6.02-3.38-7.47-.58-2.5,1.05-2.78-3.01-2.44,2.71-8.69,10.42-13.23,11.99-17.98Z"/>
    <path class="cls-3" d="M453.54,577.43c-1.01.14-1.8,1.19-4.42,1.05-2.87-.15-3.59-1.24-5.57-2.05,2.94-1.8,7.25-.86,9.99,1Z"/>
    <path class="cls-6" d="M738.33,507.51c-1.65,1.88-2.54,3.51-5,5.99l-1.01-4.98,6-1.01Z"/>
    <path class="cls-3" d="M474.52,550.46c.23,1.84.06,2.93-1.51,3.98h-1.48s0-3.98,0-3.98h2.99Z"/>
    <path class="cls-14" d="M728.34,583.42l1-1c-.34.24-.74.95-1,1Z"/>
    <path class="cls-4" d="M720.34,643.35c-6.37,2.41-6.55-.25-10.95-2.53-9.55-4.95-23.08-12.1-33.01-15.45-1.68-.56-3.06-1.39-5-1,.05-4.32-.03-8.67,0-12.99h47.46c1.09,0,1.43,2.44,1.55,3.45.95,8.06-.02,19.98-.05,28.52Z"/>
    <path class="cls-9" d="M154.77,710.28c2.97-1.09,3.23,4.91,0,4,0-1.33,0-2.66,0-4Z"/>
    <path class="cls-15" d="M466.2,698.12c-4.19-1.27-.32-3.89.33-4.82,7.23-10.38,6.43-11.57,9.99-22.97,2.71-8.69,10.42-13.23,11.99-17.98,5.81-17.51-7.53-36.15-.5-52.95,3.8-9.09,16.52-20.64,7.52-31.2-7.2-8.44-22.49,2.54-30.02,5.75-1.05.45-2.33.23-2.97.48-4.02,1.58-3,2.18-8.99,3-1.01.14-1.8,1.19-4.42,1.05-2.87-.15-3.59-1.24-5.57-2.05-4.02-1.64-4.2-1.27-6.99-4.99-7.12-9.51-2.49-17.89,1-27.97-4.98,3.56-9.81,13.89-12.01,20.46-2.08,6.24-4.35,11.18-1.72,17.73,4.58,11.4,23.95,13.04,34.07,17.89,18.55,8.89,29.03,31.5,22.68,51.35-4.16,13.01-24.64,39.42-36.11,46.81-8.3,5.34-22.6,5.93-21.9,18.57,9.02.27,18.07.15,27.13,0,5.82-4.22,16.5-18.15,16.5-18.15Z"/>
    <polyline class="cls-13" points="789.76 688.52 883.28 688.52 876.56 716.62"/>
    <polygon class="cls-12" points="713.44 609.35 749.23 609.35 749.23 581.44 714.73 581.44 749.23 581.44 749.23 609.35 713.44 609.35"/>
  </g>
</svg>