<?xml version="1.0" encoding="UTF-8"?>
<svg xmlns="http://www.w3.org/2000/svg" viewBox="0 0 1024 1024">
  <defs>
    <style>
      .cls-1 {
        fill: #eaeaea;
      }

      .cls-2 {
        fill: #4c4d4d;
      }

      .cls-3 {
        fill: #7f7373;
      }

      .cls-4 {
        fill: #f1f2f2;
      }

      .cls-5 {
        fill: #f0f0f0;
      }

      .cls-6 {
        fill: #3b3c3b;
      }

      .cls-7 {
        fill: #4a4a4a;
      }

      .cls-8 {
        fill: #efeff0;
      }

      .cls-9 {
        fill: #f0f1f1;
      }

      .cls-10 {
        fill: #ecc56e;
      }

      .cls-11 {
        fill: #cfcfcf;
      }
    </style>
  </defs>
  <g id="_검은색_배경" data-name="검은색 배경">
    <rect class="cls-3" x="0" y="0" width="1024" height="1024"/>
  </g>
  <g id="_레이어_1" data-name="레이어 1">
    <path class="cls-6" d="M814.28,512.5c3.32,1.01,4.35,1.06,7.99,1,1.65-.03,3.35.12,5,0,.69,1.5,2.68.97,4,1,2.9.07,6.14.2,8.99,0,.46,1.35,1.93.89,3,1,2.23.22,2.92.39,5,1l3.02,6.47c-2.71,32.29,3.53,70.33,0,101.93-1.18,10.58-10.52,7.96-17.96,11.52.66,4.2,3.25,5.74,3.83,10.55.69,5.65.03,12.52.12,18.36.32,21.99.6,44.98,0,66.93-.07,2.53-.27,4.56-1,6.99.99.06,2-.06,2.99,0,29.55,2.01,64.91-3.37,93.45-.02,3.16.37,7.22,2.42,7.47,6.02.13,1.87-.99,3.96-1,5.99-1.33,1.28-3.73,1.99-5,3l-118.45-.04c-7.98.73-15.68,3.52-23.45,5.03-72.93,14.2-144.97,34.22-217.84,47.95-.91.17-2.08-.16-3,0-1.65.29-1.89.98-2,1-21.54,3.38-69.19-5.61-92.93-8.99-1.3-.19-3.08-.72-5-1-4.3-.61-8.65-1.37-12.99-2-80.67-11.68-161.07-25.72-241.82-36.96-10.21-1.42-20.93-3.86-31.44-5.03l-100.46.04c-2.04-.7-3.87-2.18-5-4-.26-.41-.88-.74-1-1-.4-.9.3-3.71-1-4.99,1.64-1.07,6.09-4.99,6.5-4.99h73.45v-93.4c0-.22,2.32-3.17,2.76-3.51,5.24-4.11,31.91-5.14,33.09-8.6l.08-42.27c-7.27-2.17-22.26,1.6-23.87-8.6l.03-101.74c.85-4,1.87-7.74,6.36-8.63l54.41-11.03.05-87.35c-.23-5.03,2.54-6.78,6.82-8.16l202.84-48.95,361.5-.32c4.84-.22,7.72,2.65,7.49,7.49l-.1,183.9c-.13,3.61,2.43,3.64,5.05,4.44ZM729.34,331.7h-287.29l-105.24,25.65-22.16,6.31h288.29c39.76-11.06,80.34-19.04,120.21-29.66,1.68-.45,5.64-.62,6.19-2.3ZM632.41,371.66c-1.34.3-3.39-.14-5.21.25-11.71,2.53-12.03,1.39-12.83,14.18-1.19,19.21-1.31,47.87,0,67.01.15,2.19.73,4.25,1.12,6.37,2.09,1.79,14.28-3.33,16.91-3.91,53.4-11.87,107.05-22.73,160.38-34.96l2.5-1.5v-25.47l-128.87,29.52c-8.9.71-11.15-10.91-3.05-14.06l130.94-30.93c1.61-1.35,1.83-15.81-.59-16.4l-71.01,16.82c-10.34,1.44-12.09-12.29-2.16-14.22l74.16-17.56c.95-.65,1.49-14.4-1-15l-161.3,39.86ZM244.7,443.58v15.48c0,.52,3.09,4.49,3.5,4.49h345.74c.11,0,1.5-1.39,1.5-1.5v-81.91c0-.11-1.39-1.5-1.5-1.5H244.7v16.48c0,.11,1.39,1.5,1.5,1.5h65.95c5.04,0,8.96,11.9.78,13.77l-64.79.16c-1.02-.22-3.45.72-3.45,1.55v14.98c0,.83,2.42,1.77,3.45,1.55l234.9-.07c11.57,1.34,7.22,15.01,1.98,15.01h-240.32ZM795.29,438.58l-12.89,3.09-.18,1.39,1.09,79.43,11.99-2.99v-80.91ZM752.32,450.57c-9.75,2.58-22,3.34-32.22,6.25-8.85,2.53-12.92,3.23-21.97,5.01-16.81,3.29-33.6,7.93-49.99,11.96-58.82,14.48-117,31.65-175.61,46.7v72.92c9.35-3.39,22.02-4.05,31.02-7.45,2.51-.95,2.89-3.48,3.64-3.61,1.49-.25,3.1.98,4.65.77,12.62-1.69,29.1-7.1,42.24-9.58,65.61-12.37,134.41-23.7,198.25-43.06,1.11-.34,3.23.14,5.03-.44s11.16-4,11.5-4.51c1.19-25.99-1.38-52.19-.69-78.3-1.19-3.62-10.4.44-13.44,1.29-1.62.46-2.25,2.01-2.4,2.05ZM568.46,478.54H245.7l14.63,2.85,200.7,27.19c34.2-10.31,70.81-17.36,104.64-28.35,1.06-.34,3.01-.25,2.79-1.7ZM434.56,520.49c-1.16-.16-2.93-2.05-4.55-1.94l-245.27-33.02v35.46c0,.56,1.68,1.53,2.5,1.5l136.81,11.07c11.64,1.69,9.09,14.87.1,15l-139.41-12.09v38.96c23.47,1.79,46.98,4.23,70.46,5.98,59.33,4.42,118.98,8.71,178.36,12,7.65.42,15.31,1.1,22.98,1v-71.92c-7.03-1.71-15.29-1.05-21.98-2ZM555.47,608.39v75.92c3.41.14,6.71-.81,10-1.49,86.57-17.93,172.11-41.79,258.62-60.12,4.13-.56,8.17-1.97,8.17-6.81v-18.48l-6.05.45-120.61,31.29c-11.89-.82-10.49-14.16.76-15.25l123.93-31.95.99-2.01c.2-11.66-.28-23.35-.05-35.01.08-4.16,2.07-7.81-.04-12.36l-1.4-.16-274.32,75.99ZM561.46,591.42c-4.03-.84-23.53,1.86-11.59,3.94l11.59-3.94ZM541.48,608.39l-38.47-5.08c-13.94,2.77-27.58,8.09-42.01,7.12l-253.28-18.03c.85,4.67-2.78,11.88,3.78,11.68l165.36,21.53c9.02,2.1,8.45,13.24-.71,14.59l-168.42-21.83v23.47c0,2.97,3.68,5.46,6.59,5.4l323.81,38c1.06.48,3.35-.69,3.35-1.45v-75.42ZM584.45,695.3c-3.17.65-22.67,3.15-23.02,4.66l1.02,92.65c.41,2.73,21.56-2.92,24-3.42,78.81-16.09,156.87-36.09,235.73-52.04l1.1-41.86c-46.72,7.36-93.1,16.71-139.45,26-10.36.51-11.79-12.6-1.68-14.74l140.02-26.34,1.11-27.87c-79.69,13.62-159.65,26.77-238.83,42.96ZM540.48,792.19v-90.4l-367.73-45.45-.05,80.3.7.66,63.83,9.93c37.65,3.55,75.21,10.95,112.8,17.09,57.28,9.36,116.54,19.65,174.1,26.75,5.23.65,11.07.88,16.36,1.12Z"/>
    <path class="cls-6" d="M611.43,201.85c3.2,3.78,5.03,16.04,9.03,19.44,2.42,2.06,10.42,2.35,12.96.53,3.21,1.08,12.04.22,12.99,4,2.43,9.7-13.86,14.2-15.78,20.68-2.59,8.73,10.61,26.34-2.49,26.95-4.4.21-6.11-2.97-8.71-2.68.06-2.34-2.67-3.22-4.34-4.15-10.3-5.76-11.26-3.68-20.63,1.71-1.11.64-1.74,2.29-2.01,2.44-2.92,1.61-11.38,3.62-13.5.01-3.32-5.66,5.35-16.9,3.06-24.04-1.51-4.73-13.01-10.81-16.55-14.93.69-1.92-1.09-6.92,2.23-8.33,5.99-2.54,17.78,1.14,24.52-1.89,3.69-5.54,9.11-31.69,19.22-19.75ZM607.41,225.83c-1.67-1.39-4.23,5.33-6.61,6.85-1.97,1.27-5.02,1.93-7.37,2.14-.77,3.06,2.47,3.87,2.98,6.5.38,1.92-.41,9,.02,9.47,7.69-4.24,12.01-2.13,19.98-1-1.88-5.84-.31-8.77,3-13.46-2.44-2.24-5.95-2.24-8.5-4.5-1.75-1.55-3.24-5.77-3.51-6Z"/>
    <path class="cls-6" d="M172.75,312.72h16.49c.45,0,4.15,2.75,4.56,3.42,2.12,3.52.46,11.56-3.56,11.56h-16.99c-3.3,0-.5,11.56-.57,13.41-.42,10.89-14.92,8-14.92,3.08v-16.48h-18.49c-1.4,0-4.52-5.28-4.45-7.39.08-2.5,2.98-7.6,5.45-7.6h17.49v-14.48c0-.69,4.34-4.3,5.55-4.51,13.58-2.27,8.2,18.99,9.44,18.99Z"/>
    <path class="cls-6" d="M249.43,279.97c11.52-1.13,13.75,17.91.74,17.8-10.74-.09-11.5-16.75-.74-17.8Z"/>
    <path class="cls-7" d="M678.12,171.04c8.59-1.55,11.77,11.82,3.53,13.63-11.54,2.54-11.71-12.15-3.53-13.63Z"/>
    <path class="cls-7" d="M540.48,792.19c-5.29-.25-11.13-.48-16.36-1.12-57.56-7.1-116.82-17.39-174.1-26.75-37.59-6.14-75.15-13.55-112.8-17.09l-63.83-9.93-.7-.66.05-80.3,367.73,45.45v90.4Z"/>
    <path class="cls-9" d="M244.7,443.58h240.32c5.24,0,9.6-13.66-1.98-15.01l-234.9.07c-1.02.22-3.45-.72-3.45-1.55v-14.98c0-.83,2.42-1.77,3.45-1.55l64.79-.16c8.18-1.87,4.25-13.77-.78-13.77h-65.95c-.11,0-1.5-1.39-1.5-1.5v-16.48h349.24c.11,0,1.5,1.39,1.5,1.5v81.91c0,.11-1.39,1.5-1.5,1.5H248.2c-.41,0-3.5-3.97-3.5-4.49v-15.48Z"/>
    <path class="cls-7" d="M752.32,450.57v79.91c-63.84,19.36-132.64,30.69-198.25,43.06-13.14,2.48-29.62,7.88-42.24,9.58-1.55.21-3.15-1.02-4.65-.77-.75.13-1.14,2.66-3.64,3.61-9,3.41-21.66,4.06-31.02,7.45v-72.92c58.62-15.05,116.79-32.23,175.61-46.7,16.38-4.03,33.18-8.67,49.99-11.96,9.05-1.77,13.12-2.48,21.97-5.01,10.22-2.92,22.47-3.67,32.22-6.25Z"/>
    <path class="cls-9" d="M555.47,608.39l274.32-75.99,1.4.16c2.11,4.55.12,8.2.04,12.36-.23,11.66.25,23.35.05,35.01l-.99,2.01-123.93,31.95c-11.25,1.09-12.65,14.43-.76,15.25l120.61-31.29,6.05-.45v18.48c0,4.85-4.04,6.25-8.17,6.81-86.51,18.33-172.05,42.19-258.62,60.12-3.3.68-6.59,1.62-10,1.49v-75.92Z"/>
    <path class="cls-9" d="M584.45,695.3c79.18-16.19,159.13-29.34,238.83-42.96l-1.11,27.87-140.02,26.34c-10.1,2.14-8.68,15.24,1.68,14.74,46.35-9.29,92.73-18.64,139.45-26l-1.1,41.86c-78.85,15.95-156.92,35.95-235.73,52.04l-2.05-6.44.05-87.45Z"/>
    <path class="cls-5" d="M541.48,608.39v75.42c0,.76-2.29,1.93-3.35,1.45l-323.81-38c-2.92.06-6.59-2.43-6.59-5.4v-23.47l168.42,21.83c9.15-1.35,9.73-12.5.71-14.59l-165.36-21.53c-6.55.19-2.93-7.01-3.78-11.68l253.28,18.03c14.42.97,28.07-4.35,42.01-7.12l38.47,5.08Z"/>
    <path class="cls-9" d="M434.56,520.49l-1,72.92c-59.38-3.29-119.03-7.58-178.36-12-23.48-1.75-46.99-4.2-70.46-5.98v-38.96l139.41,12.09c8.99-.12,11.53-13.31-.1-15l-136.81-11.07c-.82.03-2.5-.94-2.5-1.5v-35.46l245.27,33.02c1.62-.11,3.39,1.77,4.55,1.94Z"/>
    <path class="cls-8" d="M632.41,371.66l161.3-39.86c2.49.6,1.95,14.35,1,15l-74.16,17.56c-9.92,1.93-8.17,15.66,2.16,14.22l71.01-16.82c2.43.59,2.21,15.05.59,16.4l-130.94,30.93c-8.09,3.15-5.85,14.77,3.05,14.06l128.87-29.52v25.47l-2.5,1.5c-53.33,12.23-106.98,23.1-160.38,34.96v-83.91Z"/>
    <path class="cls-4" d="M729.34,331.7c-.55,1.68-4.51,1.85-6.19,2.3-39.87,10.62-80.46,18.6-120.21,29.66h-288.29l22.16-6.31,105.24-25.65h287.29Z"/>
    <path class="cls-2" d="M584.45,695.3l-.05,87.45,2.05,6.44c-2.45.5-23.6,6.15-24,3.42l-1.02-92.65c.35-1.51,19.85-4.01,23.02-4.66Z"/>
    <path class="cls-2" d="M434.56,520.49c6.69.95,14.96.28,21.98,2v71.92c-7.67.11-15.34-.58-22.98-1l1-72.92Z"/>
    <path class="cls-7" d="M632.41,371.66v83.91c-2.63.58-14.82,5.7-16.91,3.91-.38-2.13-.97-4.18-1.12-6.37-1.31-19.14-1.2-47.8,0-67.01.79-12.79,1.12-11.65,12.83-14.18,1.82-.39,3.87.05,5.21-.25Z"/>
    <path class="cls-8" d="M752.32,530.48v-79.91c.15-.04.78-1.59,2.4-2.05,3.04-.86,12.25-4.92,13.44-1.29-.69,26.11,1.88,52.31.69,78.3-.34.52-9.79,3.96-11.5,4.51s-3.92.1-5.03.44Z"/>
    <polygon class="cls-1" points="795.29 438.58 795.29 519.49 783.3 522.48 782.21 443.06 782.4 441.67 795.29 438.58"/>
    <path class="cls-11" d="M561.46,591.42l-11.59,3.94c-11.94-2.08,7.56-4.77,11.59-3.94Z"/>
    <path class="cls-10" d="M607.41,225.83c.27.22,1.76,4.45,3.51,6,2.56,2.26,6.06,2.26,8.5,4.5-3.31,4.69-4.89,7.62-3,13.46-7.96-1.13-12.29-3.24-19.98,1-.43-.47.35-7.55-.02-9.47-.51-2.63-3.76-3.44-2.98-6.5,2.35-.21,5.39-.87,7.37-2.14,2.38-1.52,4.93-8.25,6.61-6.85Z"/>
  </g>
</svg>