<?xml version="1.0" encoding="UTF-8"?>
<svg xmlns="http://www.w3.org/2000/svg" viewBox="0 0 1024 1024">
  <defs>
    <style>
      .cls-1, .cls-2 {
        fill: #fafafb;
      }

      .cls-3 {
        fill: #7f7373;
      }

      .cls-4 {
        fill: #f1f2f2;
      }

      .cls-5 {
        fill: #e7e7e7;
      }

      .cls-6 {
        fill: #eceded;
      }

      .cls-7 {
        fill: #2f3333;
      }

      .cls-2 {
        opacity: .5;
      }
    </style>
  </defs>
  <g id="_검은색_배경" data-name="검은색 배경">
    <rect class="cls-3" x="0" y="0" width="1024" height="1024"/>
  </g>
  <g id="_레이어_1" data-name="레이어 1">
    <path class="cls-7" d="M710.59,639.18c8.72,9.63-2.4,23.99-8.18,32.07-18.24,25.5-50.87,58.91-75.56,78.29-10.6,8.32-35.76,29.53-46.53,11.39-8.52-14.35,4.68-30.24,4.02-33.98-.93-5.27-30.16-31-35.72-37.32-16.55-18.81-27.75-43.13-31.95-67.8l-8,21.32c-14.91,31.04-39.34,56.05-61.79,81.71-1.62,3.56,1.63,10.57,1.96,14.97,2.24,29.88-10.05,32.2-33.46,19.1-30.2-16.9-78.52-64.8-95.37-94.99-4.16-7.46-7.2-15.17-.95-22.59,9.38-11.14,25.02-.73,33.78-5.35,2.2-1.16,8.02-8.67,9.72-11.13,26.14-37.84,15.85-107.41,24.28-151.72l81.33-198.97c8.42-20.5,34.24-24.99,47.84-6.95,12.48-15.25,34.95-14.03,44.76,3.51l85.71,207.63c6.92,38.49.31,117.73,20.38,149.09,6.54,10.22,5.22,6.32,14.71,6.04,8.3-.25,22.93-1.01,28.99,5.68ZM508.86,292.01c-1.9-7.67.49-13.78-5.81-19.6-7.21-6.66-15.27-4.88-20.83,2.74l-83.61,203.21c-7.5,49.29,3.01,119.49-30.62,159.72-5.22,6.25-27.15,24.9-28.47,30.35-.6,2.49,3.35,6.47,5.07,8.77,18.52,24.72,44.66,50.03,71.13,65.92l1.66-.24c28.85-41.96,77.34-78.17,88.27-130.13,8.29-39.42,4.65-84.45,4.47-124.48-.15-32.43,2.08-68.34-1.41-100.27-.65-5.93-2.28-17.81-10.71-14.98-5.53,1.86-10.18,38.03-11.94,45.47-8.93,37.72-22.66,73.99-35.58,110.44-2.67,5.49-11.95,3.86-11.7-2.69,9.3-28.62,20.83-56.6,29-85.61,4.56-16.18,11.8-64.78,19.54-74.33,6.61-8.16,12.38-7.8,21.54-3.89-3.75-12.54,3.12-52.3-7.31-59.8-7.33-5.27-13.18-.61-16.81,6.36l-27.02,94.22c-3.82,7.24-13.51,3.25-11.18-4.58,10.21-28.58,15.1-61.1,25.45-89.36,6.85-18.7,17.13-26.4,36.88-17.23ZM557.11,299.83c-2.92-13.02-8.25-38.21-27-28.94-7.43,3.67-8.68,14.96-8.19,22.43,8.16-5.06,16.95-6.37,25.69-1.57l9.5,8.09ZM524.52,313.53c-2.12,15.04,1.57,34.63,0,50.19,7.28-4.72,16.46-5.5,22.88,1.24,9.49,9.97,14.37,53.76,17.95,69.4,7.34,32.1,18.7,61.21,30.71,91.69-4.71,12.14-10.7,4.33-14.4-3.71-20.91-45.46-30.79-94.78-40.12-143.71-2.02-6.03-9.76-8.79-12.78-2.19-5.53,12.05-2.53,47.3-2.89,62.29-1.4,58.14-10.46,169.58,16.22,219.63,11.43,21.45,28.53,33.48,44.39,50.79,3.87,4.23,25.36,31.99,27.56,32.4,2.48.47,18.93-13.92,22.01-16.71,10.86-9.81,24.05-23.05,33.89-33.91,2.39-2.63,17.53-20.21,17.66-21.6.51-5.45-22.54-23.87-27.43-29.94-27.84-34.53-18.04-118.34-26.76-160.97-23.72-57.58-47.39-115.45-73.05-172.06-4.27-.48-.29,4.03.33,6.19,8.11,28.5,16.13,56.98,25.84,84.99,1.41,9.78-9.56,10.56-12.53,2.08l-28.83-93.72c-7.91-10.5-19.02-4.07-20.67,7.62ZM688.84,647.92c3.49,10.49,9.71,13.05,13.03.68-3.31-3.9-8.87-1.64-13.03-.68ZM338.03,647.91c-8.56-.65-12.73-.36-9.1,9.11,3.56,2.39,10.16-8.17,9.1-9.11ZM437.14,739.16c-1.49-1.71-11.7,11.24-10.42,13,13.75,6.87,10.1-2.62,10.42-13ZM596.03,739.41c-5.94-3.54-9.96,16.51-1.77,16.66,1.68.03,9.55-4.82,9.8-5.89-1.15-1.61-7.45-10.43-8.03-10.77Z"/>
    <path class="cls-2" d="M726.32,656.05c3.85,3.85-4.49,15.06-6.95,19.12-14.81,24.35-45.08,58.43-67.74,75.68-5.9,4.49-16.05,10.66-12.44-2.01,23.87-19.94,48.98-43.26,66.35-69.24,3.72-5.57,9.48-18.93,12.7-22.49,2.04-2.26,5.69-3.44,8.08-1.05Z"/>
    <path class="cls-2" d="M299.83,653.31c1.85-.53,3.66-.51,4.96,1.1,17.31,35.05,42.33,65.71,70.45,92.59,2,4.4-2.75,7.92-7.19,5.85-1.82-.85-14.49-14.23-17.01-16.92-15.33-16.37-32.62-38.4-44.05-57.64-2.39-4.02-11.83-19.14-10.09-22.54.49-.97,1.89-2.13,2.94-2.43Z"/>
    <path class="cls-1" d="M508.86,292.01c-19.75-9.17-30.03-1.47-36.88,17.23-10.34,28.25-15.24,60.77-25.45,89.36-2.33,7.83,7.36,11.82,11.18,4.58l27.02-94.22c3.63-6.97,9.48-11.63,16.81-6.36,10.43,7.51,3.56,47.26,7.31,59.8-9.16-3.91-14.93-4.27-21.54,3.89-7.74,9.55-14.98,58.15-19.54,74.33-8.17,29.01-19.7,56.98-29,85.61-.25,6.54,9.02,8.18,11.7,2.69,12.92-36.45,26.65-72.72,35.58-110.44,1.76-7.44,6.41-43.61,11.94-45.47,8.43-2.83,10.06,9.04,10.71,14.98,3.49,31.93,1.26,67.84,1.41,100.27.18,40.04,3.83,85.06-4.47,124.48-10.93,51.96-59.43,88.16-88.27,130.13l-1.66.24c-26.47-15.89-52.61-41.2-71.13-65.92-1.72-2.29-5.67-6.27-5.07-8.77,1.32-5.45,23.24-24.1,28.47-30.35,33.63-40.22,23.12-110.42,30.62-159.72l83.61-203.21c5.56-7.63,13.62-9.4,20.83-2.74,6.3,5.82,3.91,11.92,5.81,19.6Z"/>
    <path class="cls-1" d="M524.52,313.53c1.65-11.69,12.76-18.12,20.67-7.62l28.83,93.72c2.97,8.48,13.93,7.7,12.53-2.08-9.72-28-17.74-56.49-25.84-84.99-.62-2.17-4.6-6.67-.33-6.19,25.66,56.61,49.33,114.48,73.05,172.06,8.72,42.63-1.08,126.44,26.76,160.97,4.89,6.07,27.94,24.49,27.43,29.94-.13,1.39-15.27,18.96-17.66,21.6-9.84,10.86-23.03,24.1-33.89,33.91-3.08,2.78-19.53,17.17-22.01,16.71-2.2-.41-23.68-28.17-27.56-32.4-15.86-17.31-32.95-29.34-44.39-50.79-26.68-50.05-17.62-161.49-16.22-219.63.36-14.99-2.64-50.24,2.89-62.29,3.02-6.59,10.76-3.83,12.78,2.19,9.32,48.93,19.21,98.24,40.12,143.71,3.7,8.04,9.69,15.85,14.4,3.71-12.01-30.48-23.37-59.6-30.71-91.69-3.58-15.64-8.45-59.43-17.95-69.4-6.42-6.74-15.6-5.97-22.88-1.24,1.57-15.55-2.12-35.15,0-50.19Z"/>
    <path class="cls-4" d="M557.11,299.83l-9.5-8.09c-8.74-4.79-17.52-3.49-25.69,1.57-.49-7.47.76-18.76,8.19-22.43,18.75-9.27,24.08,15.92,27,28.94Z"/>
    <path class="cls-6" d="M596.03,739.41c.58.34,6.88,9.16,8.03,10.77-.26,1.07-8.12,5.92-9.8,5.89-8.19-.15-4.17-20.2,1.77-16.66Z"/>
    <path class="cls-5" d="M437.14,739.16c-.32,10.38,3.33,19.87-10.42,13-1.28-1.76,8.92-14.71,10.42-13Z"/>
    <path class="cls-5" d="M688.84,647.92c4.16-.97,9.72-3.22,13.03.68-3.32,12.38-9.54,9.81-13.03-.68Z"/>
  </g>
</svg>