<?xml version="1.0" encoding="UTF-8"?>
<svg xmlns="http://www.w3.org/2000/svg" viewBox="0 0 1024 1024">
  <defs>
    <style>
      .cls-1 {
        fill: #393939;
      }

      .cls-2 {
        fill: #363636;
      }

      .cls-3 {
        fill: #363736;
      }

      .cls-4 {
        fill: #7f7373;
      }

      .cls-5 {
        fill: #d8d9d7;
      }

      .cls-6 {
        fill: #f8f9f9;
      }

      .cls-7 {
        fill: #353534;
      }

      .cls-8 {
        fill: #fcfdfc;
      }

      .cls-9 {
        fill: #353535;
      }

      .cls-10 {
        fill: #333;
      }
    </style>
  </defs>
  <g id="_검은색_배경" data-name="검은색 배경">
    <rect class="cls-4" x="0" y="0" width="1024" height="1024"/>
  </g>
  <g id="_레이어_1" data-name="레이어 1">
    <path class="cls-5" d="M254.07,279s30.72-13.54,99.34,10.49,89.6,10.52,89.6,10.52l-50.51,62.49,50.68,66.45s-56.99-4.37-93.16-15.48-95.95,12.53-95.95,12.53v-147Z"/>
    <path class="cls-9" d="M687,282.5c1.29,6.04,11.46,7.78,14.25,1.25,3.21-7.51-.78-32.1.81-42.19,1.63-10.34,17.42-9.5,19.7-.81.45,1.7-.23,6.12.82,6.27,5.7-1.32,44.84,1.67,46.44-.01.21-.22-.08-4.22.45-6.05,2.22-7.58,13.81-9.9,17.97-2.88,4.43,7.46-.31,34.21,1.6,44.4,1.37,7.29,13.8,7.6,14.8-2.25.25-2.47-.87-4.36-.87-6.69,0-8.76-.63-18.06,1.05-26.54h20.5c2.03,0,8.44,5.31,7.52,8.48l-.47,157.58-5.81,6.19c-52.61,1.26-105.88,1.26-158.49,0-2.41-1.56-4.73-3.57-5.59-6.41-1.55-51.98-.2-104.27-.69-156.36-.44-3.37,4.68-9.48,7.52-9.48h18.5c1.48,10.1-1.99,26.17,0,35.5ZM776.74,315.21c-1.65.16-3.51,1.18-4.78,2.25l-38.96,38.06c-3.51,1.96-3.79-2.36-6.01-4-6.21-4.62-16.41.81-13.26,8.2.84,1.97,12.86,15.26,14.72,16.33,2.35,1.37,4.85,1.61,7.11,0l48.49-48.49c3.21-5.55-.64-13-7.31-12.35Z"/>
    <path class="cls-9" d="M634.86,632.85c12.42-30.26,57.1-23.4,59.23,9.65.13,2.05-1.15,4.95-.92,5.91.2.86,10.02,8.37,12.23,12.69,19.86,38.67-56.48,49.71-79.03,52.77-63.82,8.66-128.73,11.87-192.83,18.17-2.97.64-3.59,4.27-5.56,6.44-33.33,36.63-79.4-8.44-53.98-40.98,17.32-22.17,53.72-14.1,59.04,13.46,30.46-1.59,61.04-4.13,91.45-6.96,36.46-3.4,75.85-6.48,111.84-12.16,10.63-1.68,45.45-7.75,50.17-17.85,1.37-2.92-1.15-6.89-3.98-6.95-1.97-.05-10.3,5.4-16.15,5.85-15.92,1.24-24.31-8.05-33.06-19.69-43.7-4.37-89.38-11.01-131.1-24.9-20.02-6.66-68.18-25.1-71.1-48.9-3.95-32.12,28.59-43.08,53.45-50.33-1.61-23.43,20.18-41.92,42.49-30.61,29.12,14.75,14.21,63.45-21.26,54.26-4.99-1.29-8.62-5-13.26-4.75s-22.37,7.31-27.21,9.87c-31.14,16.44-3.39,31.26,15.32,40.04,46.8,21.96,103.24,29.15,154.22,34.99ZM511.72,516.19c-9.91,2.18-7.49,17.8,2.68,16.8,11.76-1.16,9.53-19.48-2.68-16.8ZM670.65,649.65c8.71-8.71-5.89-21.79-13.68-13.18-8.49,9.39,5.34,21.52,13.68,13.18ZM397.73,705.22c-18.55,3.77-8.03,35.01,9.62,24.63,13.25-7.79,5.11-27.62-9.62-24.63Z"/>
    <path class="cls-7" d="M245,276c11.88-1.83-.44,10.55,6.45,16.11,2.35,1.9,4.45-1.11,6.91-.87,3.23.32,2.76,4.02,5.65,3.76-.25,8.23,1,16.77,1,24.5v88.5c3.67.92,8.44-2.54,11-3,45.84-8.2,92.05,4.21,137,11,1.23,3.55-2.8,5.24-3.04,7.53-.34,3.18,3.06,5.05,3.03,6.96-.03,1.57-2.6,3.33-1.99,5.51-48.52-6.56-96.95-21.97-145.9-6.9-1.41,1.64.88,9.16.9,10.9.85,72.39-1.82,145.62-2,218-3.31-1.15-2.97,8.54,0,7,0,1.33,0,2.67,0,4-3.11-.83-2.29,3.36-3.09,3.91-1.81,1.25-7.66-1.93-8.37-3.86-.85-2.34,2.99-6.05-2.54-5.05,2.57,3.93-2.31,11.44,1.99,13.5,7.95,3.81,9.41-5.06,10,11.04.07,1.92-1.01,4.01,2,3.45.01,3.66-.02,7.34,0,11-.93.09-1.75-.54-2.02.63-.47,2.01-.82,10.95,2.02,9.37.01,1.33-.01,2.67,0,4l-12.39,12.07c-2.43,3.56-.24,10.47-6.61,8.93.21-58.31-.03-116.68,0-175,5.74.81,5.89-2.78,0-2,.03-74.96.73-150.26,1-225,2.8-.82,8.55,1.45,8.01-3.49-1.19-1.84-2.55,1.16-3.48,1.16-.83,0-2.77-2.33-4.53-1.66.06-17.84-2.83-37.95-1-56ZM260.99,324c-1.9-2.18-6.28,7.16-1.48,9,3.78.87,1.82-8.62,1.48-9ZM260.99,344.01c-1-1.02-4.01,1.95-2.99,2.99s4.01-1.95,2.99-2.99ZM406.99,417.01c-1.84-.23-2.93-.06-3.98,1.51v1.48s3.99,0,3.99,0v-2.99ZM253.99,644c.62-.66-.22-3.5-1.51-3.99-3.47-1.32-.38,6.02,1.51,3.99Z"/>
    <path class="cls-10" d="M913,766c2.44,3.71,2.3,5.43,2,10-.31.05-1.82.8-2,1-2.51-2.41-4.9,2.5-7.52,2.98-4.27.78-10.51-.02-14.97-.02-1.91,0-4.09-.92-3.52,2.03-1.33.02-2.67-.01-4,0,.78-3.18-3.88-2.98-3,0-.67,0-1.33,0-2,0-.09-.93.54-1.75-.63-2.02-2.01-.47-10.95-.82-9.37,2.02-8.32.04-16.68-.02-25,0,1.15-3.31-8.54-2.97-7,0-3.33,0-6.67,0-10,0,.56-3.02-1.53-1.94-3.45-2-24.89-.83-53.24-.98-78.09,0-1.93.08-4.01-1.03-3.45,2-3.66,0-7.34,0-11,0,.56-3.02-1.53-1.94-3.45-2-30.61-1.02-65.54-1.21-96.09,0-1.93.08-4.01-1.03-3.45,2-1.33,0-2.67,0-4,0-.09-.92.54-1.75-.63-2.02-2.04-.48-9.87-.78-8.37,2.02-2.66,0-5.34,0-8,0-.09-.93.54-1.75-.63-2.02-2.01-.47-10.95-.82-9.37,2.02-.67,0-1.33,0-2,0,.91-3.23-5.09-2.97-4,0-1,0-2,0-3,0,.56-3.02-1.53-1.94-3.45-2-3.32-.11-6.77-.13-10.09,0-1.92.08-4.01-1.03-3.45,2-1.33,0-2.67,0-4,0,.55-3.13-2.61-2.97-2,0-1.33,0-2.67,0-4,0,.56-3.02-1.53-1.94-3.45-2-6.14-.21-12.96-.24-19.09,0-1.93.08-4.01-1.03-3.45,2-4.66,0-9.34,0-14,0,.56-3.02-1.53-1.94-3.45-2-10.28-.34-21.83-.41-32.09,0-1.93.08-4.01-1.03-3.45,2-1.33,0-2.67,0-4,0,.56-3.02-1.53-1.94-3.45-2-3.65-.12-7.44-.14-11.09,0-1.92.08-4.01-1.03-3.45,2-1,0-2,0-3,0,.55-3.13-2.61-2.97-2,0-1.67,0-3.33,0-5,0,.56-3.02-1.53-1.94-3.45-2-4.28-.14-8.81-.17-13.09,0-1.92.08-4.01-1.03-3.45,2-2,0-4,0-6,0,.55-3.13-2.61-2.97-2,0-12.32,0-24.68,0-37,0,.56-3.02-1.53-1.93-3.45-2s-4.09-.08-6.09,0-4.01-1.03-3.45,2c-2.66,0-5.34,0-8,0,1-3.27-6.27-2.95-5,0-2.33,0-4.67,0-7,0,.56-3.02-1.53-1.93-3.45-2s-4.09-.08-6.09,0-4.01-1.03-3.45,2c-.67,0-1.33,0-2,0,.56-3.02-1.53-1.94-3.45-2-11.87-.4-25.24-.47-37.09,0-1.93.08-4.01-1.03-3.45,2-1.67,0-3.33,0-5,0,.55-3.12-1.56-1.83-3.47-1.98-2.24-.18-5.24-.63-7.2-.64-3.77-.02-10.01,1.59-13.62.64-.89-.23-1-1.8-1.79-2.38-2.32-1.72-5.27-.71-3.73-5.92,1.7-5.77,8.24-3.45,11.11-3.89,1.7-.26,2.9-2.15,4.44-2.58,6.18-1.72,18.54,1.42,24.77,1.75,20.62,1.08,37.6,1.18,57.22-2.75,3.78-.76,29.61.26,34.76.77,4.62.45,9.44,2.98,14.01,3.07,5.62.12,10.36-3.05,15.98-3.15,7.95-.14,17.53,3.14,25.01,3.16,6.13.01,14.73-1.91,21.01-2.07,38.92-.99,78.11.39,117.01.07,25.57-.21,51.96,2.01,77.06,0,38.64-3.09,79.77-.03,118.97-.03,24.59,0,49.36-1.42,73.91-1.1,13.59.18,29.72-.08,43.05,1.04,2.87.24,5.55,2.12,8.03,2.08,3.49-.06,4.56-4.58,9.46-2.07Z"/>
    <path class="cls-10" d="M297,266c-1.08,3.01,4.24,2.69,6,1,2.93.31,5,.44,8,1,.03.56-.24,1.69.06,1.92.48.38,11.13,2.71,11.94,1.08,1.03.29,2.01.72,3,1-.91,3.76,4.73,1.87,6,2,.33.03.67-.04,1,0v5.01c3.03.04,6.62.28,9-2.01,2.97.72,6.02,1.24,9,2-.71,3.33,3.68,6.46,6.4,6.06.63-.09.54-1.98,1.24-2.11.38-.07,6.37.03,7.36.05.66.01,1.34-.04,2,0-.49,2.17,1.05,2.45,2.71,2.74,3.44.6,7.35.08,10.29.26.99.06,2.01-.07,3,0-.61,2.97,2.55,3.13,2,0,.66.06,1.34-.05,2,0-.36,2.28.41,2.81,2,1,.98.09,2.04-.13,3,0-.36,2.28.41,2.82,2,1,.95.14,2.03-.11,3,0-.73,4.34,4.55,1.1,6,1,1.98-.13,4.01.04,6,0-.9,2.91,2.88,2.25,5.51,1.97,1.64-.17,1.4-.96,1.49-.97,2.2-.15,4.78-.09,7,0,3.47.15,4.77.08,8,0,1.33-.03,2.67.03,4,0,1.7-.03,9.11,3.22,9-2,1.25-.07,2.78-.12,4,0l3.17,5.83c.57.56,2.76.1,3.83.17.33.02.67-.01,1,0-.07,1.33.1,2.68,0,4-10.52.57-4.99,5.53-6,7-.1.15-2.78-.43-2,2-10.16,5.85-12.83,13.24-20,22-2.74-1.15-4.95,3.71-5,6-.34.32-.62.71-1,1-.21.15-1.43-.35-1.86.13-.58.64.1,2.34-.14,2.87-2.17,4.84-5.56,6.03-7,8-4.27-3.48-4.89,1.78-6.56,3.94s-7.5,3.82.56,5.06c-.56.77-3.89,5.96-3.86,6.32,2.22,3.8,5.19,7.19,7.86,10.68-.08,2.01-1.82,3.64-1.98,5.56-.59,7.02,6.53,3.03,10.98,6.44,2.04,2.61,4.09,5.54,6,8-2.77,6.48-1.96,7.95,1.02,14,2.62.84,1.8-1.36,2.51-1.97,1.79-1.53,3.4-1.11,5.48-1.03,2.9,3.77,6.75,5.7,8,11,.02.08-.94.63-.81,1.34.44,2.28,4.44,4.35,6.81,3.66,2.61,2.7,3.01,2.01,5,6l-9,13c-1.63.12-3.36.03-5,0,1.07-3.28-5.73-2.49-8-1-1.32-.09-2.68.11-4,0,1.39-3.94-9.39-3.46-10.01-3-.16.12.1,1.44,0,2-2.7-.31-5.32-.64-8-1-.61-2.18,1.97-3.94,1.99-5.51.03-1.91-3.37-3.79-3.03-6.96.24-2.29,4.27-3.98,3.04-7.53,2.32.35,4.7.49,7,1,.7.95,5.05,6.04,5.99,5,1.29-1.42-1.8-5.15-2-6.57-.88-6.4,5.76-15.51-8.99-7.42-.35-.46-1.28-1.06-2-2,.4-3.31-.27-5.46-4-5-1.9-2.45-3.32-4.81-5-7l.99-4.99-4.99.99c-1.83-2.45-3.29-4.4-5-7l1-4.99c-1.28-.16-2.79.2-4,0-.68-1.4-.03-3.19-3-3-3.26-3.64-4.1-4.39-6-9,2.83-1.84.06-5.88,0-7-.02-.32-.02-.68,0-1,3.69.19,2.4-2.6,3-4,.76-1.79,2.85-5.83,5-6,.51-.04,2.52,3.1,1.99-1.49l-.99-.51c1.62-3.45,3.05-4.21,5-7,4.16-.31,5.41-6.56,8.07-8.43,3.75-2.64,12.95-1.59,15.18-6.82,1.19-2.8,1.08-7.14,1.78-10.24-5.39.32-2.01-5.51-3.02-6.51-.28-.28-6.44.1-8.01,0-.33-.02-.67.02-1,0-3.8-.19-8.71-1.98-11,1-1.31-.12-2.68.06-4,0,.49-4.17-2.6-1.16-4-1-.65.08-1.34-.04-2,0,.5-4.17-2.59-1.16-4-1-.93.11-2.05.03-3,0,.49-4.06-2.11-1.07-3-1-1.25.1-7.65-.63-8-1-.23-.24.22-1.77,0-1.99-.64-.63-1.88.98-1.99.99-2.56.29-5.43-.57-8-1,1.02-2.5-5.66-3.86-7.68-3.98-1.5-.09-2.19.99-2.32.98-.33-.04-.67.03-1,0,.48-2.74-7.96-5.2-10-3-1.82-.51-11.26-2.03-12-3-.23-.31.22-1.78,0-1.99-.75-.71-1.88.98-1.99.99-.31.05-.68,0-1,0-2.8-1.08-2.78-4.77-3.01-4.98-1.59-1.48-4.12.81-2.99,2.98-.32-.06-.68.07-1,0-1.59-2.74,1.64-6.52-2.71-7.8-1.14-.34-7.96-.45-8.25-.16-.31.31.08,3.94-1.04,4.96-2.26-.4-5.49-.67-8-1,.56-3.18-1.61-1.76-3.49-1.97s-3.72-.4-5.51-.55-3.45-1.8-3.01,1.52c-1.33-.06-2.67.04-4,0-.09-.93.54-1.75-.63-2.02-2.01-.47-10.95-.82-9.37,2.02-1.22-.06-2.86-.16-4,0,.97-3.11-2.92-5.73-3.98-2.44-.61,1.89.97,3.19.98,3.44.16,3.63-.93,6.8-1,9-2.88.26-2.42-3.44-5.65-3.76-2.46-.24-4.56,2.77-6.91.87-6.89-5.56,5.43-17.94-6.45-16.11.11-1.08.61-2.95,1-4,3.6-.95,9.19-4.37,12.56-4.94,7.32-1.24,26.13-.95,34.44-1.06,1.33-.02,2.67.01,4,0ZM387,300.01c-.75-.69-11.44-3.84-9,1.98,3.03-.31,4.58-.8,7.72-.27,2.12.36,1.83-1.2,1.28-1.72ZM443.01,300.01c-.73.73.37,4.45,2.48,3.99,3.7-.81-.55-5.92-2.48-3.99Z"/>
    <path class="cls-3" d="M715.7,433.21c9.16-2.72,16.37,4.45,13.51,13.51-9.83,31.16-92.18,53.46-121.2,59.79-7.27,1.59-21.82,5.73-28.48,5.53-10.92-.34-13.21-15.03-4.61-19.62,37.87-9.68,101.02-17.9,129.61-46.39,2.95-2.94,8.13-11.91,11.17-12.82Z"/>
    <path class="cls-7" d="M265,752c.02,2.5-.33,5.69,0,8-2.46-.07-4.25.54-6.52.76-.91.09-2.18-.77-2.89-.61-3.29.75-.92,8.31,3.76,6.74,2.29-.77.91-4.19,6.65-4.89,2.73-.33,6.12.06,9,0,1.67-.04,3.33.03,5,0,208.73-3.43,417.79,2.62,626.56-.06,3.42-.37,4.78,1.54,6.44,4.06-4.9-2.51-5.97,2.01-9.46,2.07-2.49.04-5.16-1.84-8.03-2.08-13.33-1.12-29.47-.86-43.05-1.04-24.55-.32-49.31,1.09-73.91,1.1-39.2,0-80.33-3.05-118.97.03-25.11,2.01-51.49-.22-77.06,0-38.9.33-78.09-1.05-117.01-.07-6.28.16-14.88,2.08-21.01,2.07-7.48-.01-17.06-3.29-25.01-3.16-5.63.1-10.36,3.27-15.98,3.15-4.58-.09-9.39-2.62-14.01-3.07-5.15-.51-30.98-1.53-34.76-.77-19.62,3.93-36.6,3.83-57.22,2.75-6.23-.33-18.59-3.47-24.77-1.75-1.54.43-2.74,2.32-4.44,2.58-2.87.44-9.4-1.88-11.11,3.89-1.54,5.21,1.41,4.2,3.73,5.92.79.59.9,2.15,1.79,2.38,3.61.95,9.85-.66,13.62-.64,1.96.01,4.96.47,7.2.64,1.91.15,4.02-1.14,3.47,1.98-30.98-.03-62.02.07-93,0-.56-3.03,1.53-1.92,3.45-2,12.49-.49,34.02,2.15,45.03-.02,2.33-.46,3.24-3.05,4.99-3.01,1.89.04,4.64,3.84,8.48.96-.11-10.88-8.43-7.93-15.97-9.43-4.41-.87-10.38-4.27-13.46-4.58-12.22-1.23-25.91,2.43-38.03,2.15-3.97-.09-6.3-2.09-8.97-2.12-2.95-.03-5.75,2.37-9.03,2.14-2.2-.16-3.52-1.79-5.93-2.14-4.87-.7-13.83.26-20.06-.04-2.82-.14-7.15,3.25-7.5-1.91,35.97-.55,72.03.41,108.01,0,.04-2.66-.07-5.35,0-8.01,4.52-2.66,9.65,4.83,10.49,4.83,2.1,0,7.05-6.39,9.51-6.83Z"/>
    <path class="cls-10" d="M137,762c.36,5.16,4.68,1.77,7.5,1.91,6.23.3,15.19-.66,20.06.04,2.41.35,3.73,1.99,5.93,2.14,3.29.23,6.09-2.18,9.03-2.14,2.67.03,5,2.03,8.97,2.12,12.13.29,25.82-3.38,38.03-2.15,3.08.31,9.05,3.71,13.46,4.58,7.55,1.49,15.86-1.45,15.97,9.43-3.84,2.88-6.59-.92-8.48-.96-1.75-.04-2.66,2.55-4.99,3.01-11.01,2.16-32.54-.48-45.03.02-1.92.08-4.01-1.03-3.45,2-2.66,0-5.34,0-8,0,.91-3.23-5.09-2.97-4,0-2.33,0-4.67,0-7,0,1.67-3.02-7.63-2.28-8.01-2-.16.12.1,1.44,0,2-2.33,0-4.67.01-7,0,.56-3.02-1.53-1.94-3.45-2-3.32-.11-6.77-.13-10.09,0-1.92.08-4.01-1.03-3.45,2-1.33-.01-2.67.01-4,0,.52-3.73-5.91-1.52-8.28-2.04-.25-.06-2.53-3.06-4.25-2.9-.98-1.45-.03-4.18-.95-6.09-.68-1.42-3.28-1.75-3.54-2.47-.71-1.97.53-3.49,2.52-2.5,1.52.75.84,3.76,2.99,2.99l4.51-6.99c1.66-.05,3.33.03,5,0Z"/>
    <path class="cls-10" d="M264,717c.12,11.58.91,23.3,1,35-2.46.43-7.41,6.83-9.51,6.83-.84,0-5.97-7.49-10.49-4.83.12-5.31-.02-10.68,0-16,6.37,1.54,4.18-5.37,6.61-8.93l12.39-12.07Z"/>
    <path class="cls-3" d="M337.73,615.23c16.9-3.47,20.88,21.99,3.54,23.56-14.96,1.35-17.78-20.63-3.54-23.56Z"/>
    <path class="cls-1" d="M798.76,672.22c13.54-1.96,18.63,16.8,7.14,22.17-17.55,8.2-24.01-19.73-7.14-22.17Z"/>
    <path class="cls-7" d="M132,762l-4.51,6.99c-2.14.77-1.46-2.24-2.99-2.99-1.99-.99-3.23.53-2.52,2.5.26.72,2.87,1.05,3.54,2.47.91,1.91-.04,4.64.95,6.09,1.72-.16,4,2.85,4.25,2.9,2.38.52,8.81-1.7,8.28,2.04-5.09-.06-15.92.96-20,0-2.86-.67-6.19-7.22-6.04-10.47.52-11.6,10.94-9.31,19.04-9.53Z"/>
    <path class="cls-7" d="M293,266c-8.31.11-27.13-.18-34.44,1.06-3.36.57-8.96,3.99-12.56,4.94,1.62-4.4,4.83-6.26,9.59-6.91,8.75-1.19,22.59-.2,31.93-.11,1.69.02,4.45-.64,5.49,1.02Z"/>
    <path class="cls-7" d="M366,283c-.99-.02-6.98-.12-7.36-.05-.7.13-.61,2.01-1.24,2.11-2.72.4-7.11-2.73-6.4-6.06,4.84,1.24,10.67,1.36,15,4Z"/>
    <path class="cls-7" d="M342,277c-2.38,2.29-5.97,2.05-9,2.01v-5.01c4.3.52,6.58,2.41,9,3Z"/>
    <path class="cls-7" d="M381,286c-2.94-.17-6.84.35-10.29-.26-1.67-.29-3.2-.58-2.71-2.74,4.03.25,9.73.79,13,3Z"/>
    <path class="cls-2" d="M246,332c1.76-.67,3.69,1.66,4.53,1.66.93,0,2.29-2.99,3.48-1.16.54,4.95-5.2,2.67-8.01,3.49,0-1.33,0-2.67,0-4Z"/>
    <path class="cls-7" d="M456,294c-1.07-.07-3.26.4-3.83-.17l-3.17-5.83c4.23.42,6.89,1,7,6Z"/>
    <path class="cls-7" d="M323,271c-.82,1.63-11.46-.69-11.94-1.08-.29-.23-.03-1.36-.06-1.92,4.72.88,7.52,1.72,12,3Z"/>
    <path class="cls-7" d="M445,288c.11,5.22-7.3,1.97-9,2,2.4-1.58,6.18-1.85,9-2Z"/>
    <path class="cls-7" d="M432,290c-3.23.08-4.53.15-8,0,2.14-1.63,5.82-1.65,8,0Z"/>
    <path class="cls-7" d="M417,290c-.09,0,.15.79-1.49.97-2.63.28-6.41.94-5.51-1.97,2.36-.05,5.12-.59,7,1Z"/>
    <path class="cls-7" d="M303,267c-1.76,1.69-7.08,2.01-6-1,2.97-.02,4.29.82,6,1Z"/>
    <path class="cls-7" d="M332,274c-1.27-.13-6.91,1.76-6-2,1.77.5,4.67-.53,6,2Z"/>
    <path class="cls-7" d="M404,289c-1.45.1-6.73,3.34-6-1,2,.22,4.25-.7,6,1Z"/>
    <path class="cls-2" d="M245,561c5.89-.78,5.74,2.81,0,2,0-.67,0-1.33,0-2Z"/>
    <path class="cls-7" d="M395,288c-1.59,1.82-2.36,1.28-2-1,1.72.23,1.89.98,2,1Z"/>
    <path class="cls-7" d="M390,287c-1.59,1.81-2.36,1.28-2-1,1.75.14,1.89.99,2,1Z"/>
    <path class="cls-7" d="M386,286c.55,3.13-2.61,2.97-2,0,.66.05,1.34-.06,2,0Z"/>
    <path class="cls-6" d="M776.74,315.21c6.67-.65,10.52,6.8,7.31,12.35l-48.49,48.49c-2.27,1.61-4.76,1.37-7.11,0-1.86-1.08-13.88-14.37-14.72-16.33-3.15-7.39,7.05-12.82,13.26-8.2,2.21,1.65,2.5,5.97,6.01,4l38.96-38.06c1.27-1.08,3.13-2.09,4.78-2.25Z"/>
    <path class="cls-10" d="M264,692c-3.02.56-1.93-1.53-2-3.45-.59-16.1-2.06-7.23-10-11.04-4.3-2.06.58-9.57-1.99-13.5,5.53-1,1.69,2.71,2.54,5.05.7,1.93,6.55,5.11,8.37,3.86.8-.55-.02-4.74,3.09-3.91-.02,7.68-.02,15.4,0,23Z"/>
    <path class="cls-2" d="M260.99,324c.33.38,2.3,9.87-1.48,9-4.8-1.84-.42-11.18,1.48-9Z"/>
    <path class="cls-10" d="M264,703c.02,3.33-.04,6.68,0,10-2.84,1.58-2.49-7.36-2.02-9.37.27-1.17,1.09-.54,2.02-.63Z"/>
    <path class="cls-10" d="M264,658c0,2.33,0,4.67,0,7-2.97,1.54-3.31-8.15,0-7Z"/>
    <path class="cls-2" d="M406.99,417.01v2.99s-3.99,0-3.99,0v-1.48c1.06-1.57,2.15-1.74,3.99-1.51Z"/>
    <path class="cls-2" d="M253.99,644c-1.89,2.03-4.98-5.3-1.51-3.99,1.29.49,2.13,3.32,1.51,3.99Z"/>
    <path class="cls-2" d="M260.99,344.01c1.02,1.04-1.99,4.01-2.99,2.99s1.99-4.01,2.99-2.99Z"/>
    <path class="cls-7" d="M627,782c-.56-3.03,1.53-1.92,3.45-2,30.56-1.21,65.48-1.02,96.09,0,1.93.06,4.01-1.02,3.45,2-34.32.03-68.68-.02-103,0Z"/>
    <path class="cls-7" d="M741,782c-.56-3.03,1.53-1.92,3.45-2,24.85-.98,53.2-.83,78.09,0,1.93.06,4.01-1.02,3.45,2-28.32.06-56.68-.02-85,0Z"/>
    <path class="cls-7" d="M292,782c-.56-3.03,1.53-1.92,3.45-2,11.85-.47,25.22-.4,37.09,0,1.93.06,4.01-1.02,3.45,2-14.65,0-29.35.01-44,0Z"/>
    <path class="cls-7" d="M481,782c-.56-3.03,1.53-1.92,3.45-2,10.26-.41,21.81-.34,32.09,0,1.93.06,4.01-1.02,3.45,2-12.98,0-26.02,0-39,0Z"/>
    <path class="cls-7" d="M913,777c-.26.28-.24,1.89-1.43,3.03-3.44,3.31-18.97,1.89-24.57,1.97-.58-2.96,1.6-2.03,3.52-2.03,4.46,0,10.7.8,14.97.02,2.62-.48,5-5.39,7.52-2.98Z"/>
    <path class="cls-7" d="M534,782c-.56-3.03,1.53-1.92,3.45-2,6.13-.24,12.95-.21,19.09,0,1.93.06,4.01-1.02,3.45,2-8.65,0-17.35,0-26,0Z"/>
    <path class="cls-7" d="M429,782c-.56-3.03,1.53-1.92,3.45-2,4.28-.17,8.81-.14,13.09,0,1.92.06,4.01-1.02,3.45,2-6.65,0-13.35,0-20,0Z"/>
    <path class="cls-7" d="M459,782c-.56-3.03,1.53-1.92,3.45-2,3.65-.14,7.44-.12,11.09,0,1.92.06,4.01-1.02,3.45,2-5.99,0-12.01,0-18,0Z"/>
    <path class="cls-7" d="M143,782c-.56-3.03,1.53-1.92,3.45-2,3.32-.13,6.77-.11,10.09,0,1.92.06,4.01-1.02,3.45,2-5.65-.03-11.35.06-17,0Z"/>
    <path class="cls-7" d="M570,782c-.56-3.03,1.53-1.92,3.45-2,3.32-.13,6.77-.11,10.09,0,1.92.06,4.01-1.02,3.45,2-5.65,0-11.35,0-17,0Z"/>
    <path class="cls-7" d="M371,782c-.56-3.03,1.53-1.92,3.45-2s4.09-.07,6.09,0,4.01-1.02,3.45,2c-4.32,0-8.68,0-13,0Z"/>
    <path class="cls-7" d="M338,782c-.56-3.03,1.53-1.92,3.45-2s4.09-.07,6.09,0,4.01-1.02,3.45,2c-4.32,0-8.68,0-13,0Z"/>
    <path class="cls-7" d="M596,782c-1.58-2.84,7.36-2.49,9.37-2.02,1.17.27.54,1.09.63,2.02-3.33,0-6.67,0-10,0Z"/>
    <path class="cls-7" d="M868,782c-1.58-2.84,7.36-2.49,9.37-2.02,1.17.27.54,1.09.63,2.02-3.33.03-6.67-.02-10,0Z"/>
    <path class="cls-7" d="M614,782c-1.5-2.8,6.33-2.5,8.37-2.02,1.16.27.53,1.1.63,2.02-2.99,0-6.01,0-9,0Z"/>
    <path class="cls-7" d="M167,782c.09-.56-.17-1.88,0-2,.38-.28,9.68-1.02,8.01,2-2.66,0-5.34.01-8,0Z"/>
    <path class="cls-7" d="M836,782c-1.54-2.97,8.15-3.31,7,0-2.33,0-4.67,0-7,0Z"/>
    <path class="cls-7" d="M358,782c-1.27-2.95,6-3.27,5,0-1.67,0-3.33,0-5,0Z"/>
    <path class="cls-7" d="M182,782c-1.09-2.97,4.91-3.23,4,0-1.33,0-2.67,0-4,0Z"/>
    <path class="cls-7" d="M590,782c-1.09-2.97,4.91-3.23,4,0-1.33,0-2.67,0-4,0Z"/>
    <path class="cls-7" d="M880,782c-.88-2.98,3.78-3.18,3,0-1,0-2,0-3,0Z"/>
    <path class="cls-7" d="M421,782c-.61-2.97,2.55-3.13,2,0-.67,0-1.33,0-2,0Z"/>
    <path class="cls-7" d="M454,782c-.61-2.97,2.55-3.13,2,0-.67,0-1.33,0-2,0Z"/>
    <path class="cls-7" d="M564,782c-.61-2.97,2.55-3.13,2,0-.67,0-1.33,0-2,0Z"/>
    <path class="cls-7" d="M410,307l.5.98.5-.98c1.57.09,7.72-.29,8.01,0,1.01,1.01-2.37,6.83,3.02,6.51-.7,3.1-.59,7.43-1.78,10.24-2.23,5.23-11.43,4.18-15.18,6.82-2.66,1.87-3.91,8.13-8.07,8.43,6.69-9.57,13.36-19.44,20.99-28.51-5.38-1.79-11.13-.97-16.58-1.45-1.29-.12-2.24-1.03-2.42-1.04,2.29-2.98,7.2-1.19,11-1Z"/>
    <path class="cls-7" d="M415,408c14.75-8.09,8.11,1.02,8.99,7.42.2,1.42,3.29,5.15,2,6.57-.95,1.04-5.29-4.04-5.99-5-1.43-1.94-3.42-6.92-5-9Z"/>
    <path class="cls-7" d="M436,404c-2.08-.08-3.69-.5-5.48,1.03-.71.61.11,2.81-2.51,1.97-2.97-6.04-3.79-7.52-1.02-14,2.77,3.57,6.08,7.2,9,11Z"/>
    <path class="cls-7" d="M318,290c-3.97-.83-8.67-2.41-12-3,1.13-1.01.74-4.64,1.04-4.96.29-.3,7.11-.18,8.25.16,4.35,1.28,1.11,5.05,2.71,7.8Z"/>
    <path class="cls-7" d="M457,432c0,1.34-3.37,5.18-4.59,5.9-2.36,1.38-4.02.92-6.41,1.1l9-13c1.13,2.27,2,3.06,2,6Z"/>
    <path class="cls-7" d="M418,380c1.24,1.6,2.25,4.04,3,5-4.45-3.4-11.57.58-10.98-6.44.16-1.93,1.9-3.55,1.98-5.56,1.59,2.08,4.39,4.92,6,7Z"/>
    <path class="cls-7" d="M414,347c-1.62,2.23-3.76,5.91-6,9-8.07-1.24-2.16-3.01-.56-5.06s2.29-7.42,6.56-3.94Z"/>
    <path class="cls-7" d="M457,298c-.05.65.13,1.45,0,2-1.23,5.2-4.29,3.86-6,5-.15.1.67.46-2,2-.78-2.43,1.9-1.85,2-2,1.01-1.47-4.52-6.43,6-7Z"/>
    <path class="cls-7" d="M272,285c-1.58-2.84,7.36-2.49,9.37-2.02,1.17.27.54,1.09.63,2.02-.82-.02-3.72.97-6,1-.48,0-2.41-.93-4-1Z"/>
    <path class="cls-7" d="M429,438c-3.33-.28-6.68-.62-10-1,.09-.56-.17-1.87,0-2,.61-.46,11.4-.94,10.01,3Z"/>
    <path class="cls-7" d="M387,300.01c.56.51.84,2.08-1.28,1.72-3.14-.53-4.69-.04-7.72.27-2.45-5.83,8.25-2.68,9-1.98Z"/>
    <path class="cls-7" d="M286,285c-.44-3.32,1.19-1.67,3.01-1.52s3.71.35,5.51.55,4.04-1.22,3.49,1.97c-3.39-.44-8.52-.83-12-1Z"/>
    <path class="cls-7" d="M340,296c2.04-2.2,10.48.26,10,3-4.32-.39-6.57-2.03-10-3Z"/>
    <path class="cls-7" d="M351,299c.13.01.82-1.06,2.32-.98,2.02.12,8.7,1.47,7.68,3.98-3.12-.52-7.22-1.49-10-3Z"/>
    <path class="cls-7" d="M450,420c-2.37.68-6.37-1.38-6.81-3.66-.14-.7.82-1.26.81-1.34,3.06.1,4.23,3.17,6,5Z"/>
    <path class="cls-7" d="M268,285c-.77.11-1.95,1.06-3,1-.01-.25-1.6-1.55-.98-3.44,1.06-3.29,4.96-.67,3.98,2.44Z"/>
    <path class="cls-7" d="M433,438c2.27-1.49,9.07-2.28,8,1-3.19-.06-6.03-.87-8-1Z"/>
    <path class="cls-7" d="M383,366c-1.03-2.5-3.5-4.39,0-7,.06,1.12,2.83,5.16,0,7Z"/>
    <path class="cls-7" d="M319,290c-1.13-2.17,1.39-4.46,2.99-2.98.23.21.21,3.9,3.01,4.98-3.06-.01-4.18-1.65-6-2Z"/>
    <path class="cls-7" d="M400,390l4.99-.99-.99,4.99c-.18-.24-2.42-1.88-4-4Z"/>
    <path class="cls-7" d="M392,378c1.21.2,2.71-.15,4,0l-1,4.99c-1.42-2.16-1.68-2.31-3-5-3.74-.63-2.22-2.13-3-3,2.97-.19,2.32,1.6,3,3Z"/>
    <path class="cls-7" d="M443.01,300.01c1.93-1.93,6.18,3.18,2.48,3.99-2.11.46-3.21-3.26-2.48-3.99Z"/>
    <path class="cls-7" d="M413,406c-1.27-1.65-2.68-3.3-4-5,3.73-.46,4.4,1.69,4,5Z"/>
    <path class="cls-7" d="M391,307c1.4-.16,4.49-3.17,4,1-1.31-.06-3.3.52-4-1Z"/>
    <path class="cls-7" d="M385,306c1.41-.16,4.5-3.17,4,1-1.28.08-3.34.42-4-1Z"/>
    <path class="cls-7" d="M383,358c.15-2.06,1.15-3.15,3-4-.6,1.4.69,4.19-3,4Z"/>
    <path class="cls-7" d="M429,329c-1.77,2.16-2.84,4-5,6,.05-2.29,2.26-7.15,5-6Z"/>
    <path class="cls-7" d="M392,346l.99.51c.53,4.59-1.48,1.45-1.99,1.49-.03-.87.73-1.43,1-2Z"/>
    <path class="cls-7" d="M379,305c.89-.07,3.49-3.06,3,1-1.1-.04-2.52.3-3-1Z"/>
    <path class="cls-7" d="M423,336c-.01,1.46-.57,2.57-2,3,.24-.53-.44-2.23.14-2.87.44-.48,1.66.03,1.86-.13Z"/>
    <path class="cls-7" d="M369,303c.11-.01,1.35-1.62,1.99-.99.23.22-.22,1.75,0,1.99l-2-1Z"/>
    <path class="cls-7" d="M326,292c.11-.02,1.24-1.7,1.99-.99.23.21-.22,1.69,0,1.99l-2-1Z"/>
    <path class="cls-8" d="M410,307c.33.02.67-.02,1,0l-.5.98-.5-.98Z"/>
    <path class="cls-10" d="M265,760c.07.47.52.89,1,1v1c-5.74.7-4.36,4.12-6.65,4.89-4.67,1.57-7.04-5.98-3.76-6.74.71-.16,1.98.69,2.89.61,2.27-.22,4.06-.83,6.52-.76Z"/>
  </g>
</svg>