<?xml version="1.0" encoding="UTF-8"?>
<svg xmlns="http://www.w3.org/2000/svg" viewBox="0 0 1024 1024">
  <defs>
    <style>
      .cls-1 {
        fill: #292a2b;
      }

      .cls-2 {
        fill: #28292a;
      }

      .cls-3 {
        fill: #7f7373;
      }

      .cls-4 {
        fill: #aeafb0;
      }

      .cls-5 {
        fill: #f8f9f9;
      }

      .cls-6 {
        fill: #f2f3f3;
      }

      .cls-7 {
        fill: #d2d4d4;
      }

      .cls-8 {
        fill: #2e2e2f;
      }

      .cls-9 {
        fill: #dadcdd;
      }

      .cls-10 {
        fill: #fcfcfc;
      }

      .cls-11 {
        fill: #53b575;
      }

      .cls-12 {
        fill: #272729;
      }

      .cls-13 {
        fill: #252527;
      }

      .cls-14 {
        fill: #fafbfb;
      }

      .cls-15 {
        fill: #838486;
      }
    </style>
  </defs>
  <g id="_검은색_배경" data-name="검은색 배경">
    <rect class="cls-3" x="0" y="0" width="1024" height="1024"/>
  </g>
  <g id="_레이어_1" data-name="레이어 1">
    <path class="cls-13" d="M448.55,472.54c-.17,10.37-.51,20.62-1,30.97-1.5.14-1.5,2.86,0,3-.09,2.31.2,4.7,0,6.99,0,.09-.79-.15-.97,1.49-.28,2.63-.94,6.4,1.97,5.51.08,4.98-.14,10.01,0,14.98-1.5.14-1.5,2.86,0,3,.27,9.98.69,19.96,1,29.97-1.7.58-1.21,3,0,4,.11,3.29.91,6.15,1,8.99-2.98-.88-3.18,3.77,0,3,.14,4.31-.15,8.68,0,12.99-1.5.14-1.5,2.86,0,3,.29,8.64.69,17.31,1,25.97-1.56.41-1.49,3.67,0,4,.33,9.03.38,19.13,1,27.97-2.71,1.24-.04,4.68,0,4.99.32,2.72.82,6.42,1,8.99-2.83-1.58-2.49,7.35-2.02,9.36.27,1.16,1.09.54,2.02.63.08,2.31.03,4.67,0,6.99-1.5.14-1.5,2.86,0,3-.08,2.97.2,6.03,0,8.99,0,.09-.79-.15-.97,1.49-.28,2.63-.94,6.4,1.97,5.51.07,4.31.05,8.67,0,12.99-1.56.41-1.49,3.67,0,4-.09,2.64.19,5.36,0,7.99-.07.93-3.26,4.6,1,4,.24,5.63-.19,11.35,0,16.98-1.7.58-1.21,3,0,4,.17,7.94.85,15.94,1,23.97.03,1.55-.2,2.4,0,4.99,1.15,14.62,1.77,30.27,2,44.95-4.71,2.4-7.05,3.6-12.43,2.01l-8.55,2.99c-7.32-.15-14.01.34-20.98,1-1.01.1-5.76.18-6,0-.16-.12.1-1.42,0-1.99-1.01-.39-1.85.98-1.99.99-1.85.14-1.76-.11-3-1-.11-4.16.16-8.36,0-12.53-.08-1.92,1.03-4.01-2-3.45-3.74-94.94-13.71-189.68-15.99-284.68.99-6.28-3.21-4.65-6-5.99-4.46-2.15-21.24-10.21-25.33-8.88-2.49.81-2.17,4.51-.18,5.91l25.51,16.95c.07,91.78-3.6,184.58-9.98,276.2-.27,3.94.57,8.85-.01,12.48-5.47.93-8.35,4.41-13.99,4.99-9.32.97-19.41-1.76-27.98-1,.45-6.1-9.71-5.37-13.99-6.99-.03-.66,0-1.33,0-2l.99-1.49-.99-.51c0-.67,0-1.33,0-2,2.97.61,3.13-2.55,0-2,.02-1-.02-2,0-3,3.14,1.15,2.19-6.61,1.97-9.51-.12-1.6-.96-1.39-.97-1.48-.18-1.96.08-4.02,0-5.99,1.56-.41,1.49-3.67,0-4-.02-1.33-.02-2.67,0-4,.56-.09,1.87.17,2,0,.35-.46.14-9.82.04-11.57-.11-2.15-1.03-2.29-1.04-2.43-.12-2.32.06-4.67,0-6.99,1.5-.14,1.5-2.86,0-3-.06-2.64-.08-5.35,0-7.99,3.19,1.11,2.13-6.53,1.97-9.51-.09-1.59-.96-1.39-.97-1.48-.21-2.62.09-5.35,0-7.99,1.58-.66,1.58-4.34,0-4.99-.05-2.98-.07-6.01,0-8.99,3.03.56,1.92-1.53,2-3.45.19-4.72-.88-8.98-1-12.53-.27-7.61.02-15.35,0-22.97,2.83,1.58,2.49-7.35,2.02-9.36-.27-1.16-1.09-.54-2.02-.63-.06-12.35-.06-24.66,0-36.96,2.97.61,3.13-2.55,0-2,.05-10.63-.18-21.33,0-31.96l.99-1.49-.99-.51c.05-2.32-.07-4.67,0-6.99.18-5.84,1.21-12.14,1-18.52-.06-1.92,1.02-4.01-2-3.45-.02-2,.05-4,0-5.99,1.5-.14,1.5-2.86,0-3-.11-4.24-.92-8.13-1-11.99,2.97.61,3.13-2.55,0-2-.08-3.64-.08-7.35,0-10.99,1.5-.14,1.5-2.86,0-3,.04-1.66-.05-3.33,0-4.99,0-.13.94-.27,1.04-2.43.28-5.91.97-14.51-2.04-19.55-.26-5.6-.57-11.39-1-16.98,2.2-.59,6.22-2.26,6-4.99h2c-.56,3.03,1.53,1.92,3.45,2,33.38,1.32,71.57,1.12,105.01,0,1.93-.06,4.01,1.02,3.45-2,2.33-.07,4.68.05,7,0,.02-6.31-.04-12.67,0-18.98h6Z"/>
    <path class="cls-13" d="M310.65,451.57c-14.01-3.87-22.3-19.74-22.97-33.48-.81-16.82,3.16-45.22,4.98-62.91,1.95-18.89.75-40.45,18.29-51.64,12.9-8.23,28.73-14.1,41.7-22.45.41-1.69.24-19.99-.24-21.61-.65-2.17-14.01-16.88-16.96-22.01-14.7-25.53-16.88-66.01,14.16-80.08,20.48-9.28,30.14,2.5,46.38.41,12.92-1.66,19.46-6.61,33.22.92,23.71,12.97,19.5,48.59-7.62,53.15l-1.04,34.42c-1.25,11.76-11.59,14.83-21.99,14.48v20.98c6.69,2.18,13.83,5.9,20.34,9.13,7.45,3.7,16.29,7.5,23.3,11.67,13.44,8,27.1,25.84,39.3,37.13.36.33,2.94,3.66,4.06,4.44.94.66,1.85.7,2.94.55,0,1.33.02,2.67,0,4,0,.13-1.59.84-.57,2.02,1.2,1.37,2.96.65,3.56.98,11.81,6.33,22.25,24.63,33.48,32.96.93-6.89.46-14.02.49-20.97,3.26-.51,28.58.88,28.98-.51.66-2.32-2.15-1.43-3.49-1.49-8.47-.34-17.03.25-25.49,0,.05-13.3-.04-26.66,0-39.96,13.31-.02,26.67.05,39.98,0,.43,3.08-.79,26.6.51,26.98,2.32.66,1.43-2.14,1.49-3.49.31-7.8-.23-15.69,0-23.48,13.98.02,28,0,41.97,0,.21,10.48-.29,21.02-.05,31.51.15,6.4,4.34,16.03-3.96,19.44-4.1,1.68-8.41-.61-10.94.49-6.31,2.75-23.63,22.41-29.03,28.47-.17.19.16.81,0,1-.9,1.03-1.89,2.17-3,3-.57.42-2.72-1.07-1.99,1.99,1.1.22,4.7-.3,5,0,1.19,1.18-.2,28.69,0,33.51.08,1.93-1.03,4.01,2,3.45v3c-13.67.04-28.1,2.18-41.97,1v-16.99c-15.74,1.93-26.08-9.85-35.97-19.97-.05-4.56-2.04-9.25-6.99-5.99l-33.97-29.97c-.38-3.41-2.84-4.41-6-4-.86-5.05-8.82-8.81-11.99-11.99-12.34-12.36-20.27-27.2-10.8-44.26,3.52-6.33,5.47-6.47,11.1-9.69,1.17-.67.85-.69.69-1.98l-35.94-17.52c-2.16-.56-37.44.17-40.28.75-4.15.84-37.07,19.26-42.22,22.72-7.31,4.91-7.77,6.71-7.51,15.55.99,33.03,7.87,67.94,9.02,100.85.11,3.06.2,6.46.01,9.48-.11,1.73-3.36,6.68,1,5.99.09.98-.09,2.01,0,3-1.04.62-4.87,6.58-5,6.99ZM358.61,260.78v19.98l33.97-1v-24.97c4.96-1.79,16.58,1.32,20.02-3.72,3.24-4.74,1.61-14.99,1.92-20.8.4-7.38,1.83-14.89,1.05-22.44-3.51.23-21.35-.58-22.93,1.05-1,1.03,1.93,13.12-2.67,13.87-4.29.7-2.84-7.44-3.83-8.97-3.26-5.02-19.67.79-14.77,12.77,2.85,6.99,12.99,4.4,12.06,11.47-1.53,11.53-12.69,23.17-24.81,22.75ZM586.15,335.8c-3.72.97-17.01,19.3-21.48,22.5,1.08,6.81,7.84,17.96,15.38,18.36,3.03.16,8.15-6.49,11.7-8.2,11.15-5.38,20.78-.74,8.11-18.69-1.84-2.61-8.27-10.88-10.34-12.64-1.09-.93-1.71-1.76-3.37-1.33Z"/>
    <path class="cls-1" d="M701.36,747.24c-1.68,1.86-1.68,7.13,0,8.99-1.68,17.8-6.31,31.59-18.02,45.42-1.92,2.27-10.88,9.46-11.03,10.2-1.14,5.48,16.33,28.1,13.06,31.28-1.39-.19-3.79.48-4.84-.16-1.64-1.01-11.07-22.69-13.75-25.89-6.76,2.33-11.53,6.18-18.63,8.33s-13.75,2.72-20.74,3.74v36.96h187.36c3.94,0,2.71,6.99,1,6.99H194.24c-.94,0-4.85-6.26,2.99-6.99h119.43c-.38-6.1,1.27-12.01,1.99-17.98,3.1.19,4.63,3.21,5,5.99.58,4.45-1.38,8.57-1,12.99h43.97c.13-2.64-1.28-12.06-3.63-12.85-3.38-1.13-20.25-.14-25.34-.14-.26-4.13,5.65-2.53,5-5.99,4.99-.04,10.01.03,14.99,0v-10.99c5.64-.59,8.52-4.07,13.98-4.99-1.2,7.56-11.23,1.44-8.97,12.47.82,4.01,4.58,2.82,6.44,5.54,1.96,2.88,3.15,16.13,6.12,16.78,1.01.22,3.26-1,4.91-.92,9.05.43,18.34,2.28,27.54.66,1.18-.83,3.69-27.31,2.93-28.53-.08-.13-1.85.12-2-1,.14-.01.98-1.38,1.99-.99.11.57-.15,1.87,0,1.99.24.18,4.98.1,6,0v11.99s30.98,0,30.98,0c.04.35,1.66,1.49.99,2.99-3.65.14-5.74-1.32-4.99,3-9.31-.09-18.67.07-27.98,0l-1,10.99h43.97c-.71-1.62-2.72-10.49-3.12-10.88-.45-.43-2.04-.05-2.87-.11-1.02-3.7,3.4-3.16,3-5.99,1.56.1,3.28-.5,4.5.98,1.61,1.96,3.6,11.91,4.49,15h155.88v-36.46c0-2.11-6.64-1.31-8.39-1.6-6.02-.99-13.57-3.44-19.27-5.71-3.02-1.2-9.15-5.77-11.65-5.24l-13.14,24.05c-1.73,2.19-5.94.62-6.35-1.65-.58-3.18,12.93-22.65,13.7-27.7-47.07-37.36-33.4-113.12,22.6-133.5,50.76-18.48,98.81,17.4,103.45,68.95ZM612.18,680.57c-26.53,3.32-50.52,27.44-57.2,52.7-17.02,64.34,58.13,114.33,111.74,75.74,59.28-42.68,22.33-138.06-54.53-128.43Z"/>
    <path class="cls-2" d="M651.4,172.88c1.24,5.9-.42,9.19-1,14.98,5.98.04,12.01-.03,17.99,0,32.77.2,65.58-.2,98.36.06,6.78,1.71,9.99,5.79,12.55,11.92l.04,378.12c-.9,10.12-7.42,15.96-17.49,16.48-85.04-1.61-170.34,2.03-255.35-.04-11.25-.27-20.1.54-23.89-12.58-.76-54.06.7-108.19-.09-162.23-.07-4.65.05-9.34,0-13.98,4.95-3.26,6.95,1.44,6.99,5.99.04,4.17-1,10.73-1,15.98.03,50.44,0,100.9-.02,151.35.03,3.45,2.63,5.88,5.04,7.95l271.3.54c7.71-.48,7.96-8.31,8.52-14.46V205.3c-.2-6.56-3.87-10.89-10.49-11.5-37.43-3.43-80.02,2.7-118.01,0-10.71,6.49-18.24,4.08-28.88,0-37.98,2.71-80.59-3.43-118.01,0-6.5.6-9.2,3.98-9.48,10.5.29,46.79-.26,93.61.04,140.38-1.09.14-2,.11-2.94-.55-1.11-.78-3.7-4.11-4.06-4.44,1.68-2.27,1.18-6.78,1.05-9.54-2.02-42.74,1.42-86.72-.07-129.83-.61-4.02,7.43-12.46,10.51-12.46h119.41c-1.52-7.74-3.33-12.37.49-19.99,8.54-17,34.53-13.76,38.48,5ZM629.17,163.11c-15.98,2.3-16.01,26.34-1.2,28.68,24.16,3.82,22.11-31.7,1.2-28.68Z"/>
    <path class="cls-13" d="M448.55,376.65v45.95l-6,1c-.05-12.96.24-26,0-38.96-.04-2.32.09-4.67,0-6.99l6-1Z"/>
    <path class="cls-13" d="M448.55,442.58c-.01,3.32.03,6.67,0,9.99-3.14-.25-4.91,5.33,0,4-.03,3.65.05,7.34,0,10.99l-6,2c.04-9.31-.02-18.66,0-27.97l6,1Z"/>
    <path class="cls-13" d="M325.64,841.13c-.25,2.22.17,4.73,0,7,5.65-.04,11.34.04,16.99,0,.65,3.46-5.26,1.86-5,5.99h-4c1.21-4.64-5.31-4.43-4,0h-6c-.36-2.79-1.9-5.8-5-5.99.08-.65-.07-1.35,0-2,2.76-2.61,1.89-5.43,6.99-4.99Z"/>
    <path class="cls-13" d="M317.64,458.56c.68,7.71,1.13,15.27,2,22.97-3.1-.09-2.37,4.14-6,3-.44-4.93-.8-10.03-1-14.98l.99-1.49-.99-.51c.08-1.26-.23-2.91,0-4,.84-3.94.59-5.91,5-4.99Z"/>
    <path class="cls-1" d="M329.64,836.14c-3.42.3-3.46.36-4,4.99-5.1-.44-4.23,2.38-6.99,4.99.27-2.5,1.59-6.05,1.04-8.29-.24-.96-4.26-1.51-4.75-6.39-.11-1.14.72-2.02.71-2.3,4.28,1.63,14.44.89,13.99,6.99Z"/>
    <path class="cls-13" d="M452.54,841.13c.02,1.13.74,8.63,1,9,.09.12,1.41-.04,2,0,.4,2.84-4.01,2.29-3,5.99-2.94-.22-6.03.03-8.99,0-.74-4.33,1.34-2.86,4.99-3,.66-1.5-.95-2.64-.99-2.99-.23-1.89.29-4.17,0-5.99,2.11-1.35,1.8-3.9,5-3Z"/>
    <path class="cls-1" d="M458.54,832.14c0,.1,1.48.74.59,1.95-1.83,2.48-6.67,1.97-6.58,7.04-3.2-.91-2.89,1.64-5,3-.28-1.77-1.92-4.27-.99-7-2.99-.04-6.01.07-9,0l8.55-2.99c5.38,1.6,7.72.4,12.43-2.01Z"/>
    <path class="cls-1" d="M319.64,481.53c.39,3.47,1.82,7.72,2,9.99.22,2.73-3.79,4.41-6,4.99-.25-3.27-1.62-7.73-2-11.99,3.63,1.15,2.89-3.09,6-3Z"/>
    <path class="cls-1" d="M317.64,458.56c-4.4-.92-4.16,1.05-5,4.99-1.44-2.57-2.77-9.41-2-11.99.12-.41,3.96-6.37,5-6.99.36,4.11,1.61,9.54,2,13.98Z"/>
    <path class="cls-13" d="M448.55,425.6c0,3.32,0,6.67,0,9.99l-6,2c0-3.99.02-8,0-11.99h6Z"/>
    <path class="cls-1" d="M317.64,535.47l-1.96-19.67c-.45-.95.96-2.17.96-2.31,3.01,5.04,2.32,13.64,2.04,19.55-.1,2.16-1.04,2.29-1.04,2.43Z"/>
    <path class="cls-1" d="M318.64,577.43c3.02-.56,1.93,1.53,2,3.45.21,6.39-.82,12.69-1,18.52-1.91-6.75-.92-14.86-1-21.98Z"/>
    <path class="cls-1" d="M319.64,712.28c.12,3.55,1.19,7.81,1,12.53-.08,1.92,1.03,4.01-2,3.45.11-5.18-.92-11.4,1-15.98Z"/>
    <path class="cls-1" d="M448.55,435.59c0,2.33,0,4.66,0,6.99l-6-1c0-1.33,0-2.66,0-4l6-2Z"/>
    <path class="cls-1" d="M317.64,779.2c0,.13.93.28,1.04,2.43.09,1.75.3,11.1-.04,11.57-.12.16-1.44-.1-2,0,.08-4.53-.89-10.06,1-13.98Z"/>
    <path class="cls-1" d="M448.55,467.55c-.02,1.66.03,3.33,0,4.99h-6c0-1,0-2,0-3l6-2Z"/>
    <path class="cls-1" d="M316.65,807.17c0,.09.85-.12.97,1.48.22,2.9,1.17,10.66-1.97,9.51.09-3.6-.86-7.99,1-10.99Z"/>
    <path class="cls-1" d="M318.64,750.23c0,.09.88-.11.97,1.48.16,2.97,1.22,10.62-1.97,9.51.1-3.6-.88-7.98,1-10.99Z"/>
    <path class="cls-1" d="M453.54,672.32c.22,3.29-.11,6.68,0,9.99-.92-.09-1.74.54-2.02-.63-.47-2.01-.82-10.94,2.02-9.36Z"/>
    <path class="cls-1" d="M319.64,679.31c.92.09,1.74-.54,2.02.63.47,2.01.82,10.94-2.02,9.36,0-3.32.02-6.67,0-9.99Z"/>
    <path class="cls-8" d="M701.36,756.23c-1.68-1.86-1.68-7.13,0-8.99.07.75,1.11,2.13,1.11,4.49s-1.04,3.72-1.11,4.5Z"/>
    <path class="cls-1" d="M448.55,422.6c0,1,0,2,0,3h-6c0-.67,0-1.33,0-2l6-1Z"/>
    <path class="cls-1" d="M448.55,520.49c-2.9.89-2.25-2.88-1.97-5.51.17-1.64.96-1.4.97-1.49,1.65,1.91.96,4.62,1,6.99Z"/>
    <path class="cls-1" d="M454.54,708.28c-2.9.89-2.25-2.88-1.97-5.51.17-1.64.96-1.4.97-1.49,1.65,1.91.96,4.62,1,6.99Z"/>
    <path class="cls-1" d="M448.55,452.57c-.01,1.33.01,2.66,0,4-4.91,1.33-3.14-4.24,0-4Z"/>
    <path class="cls-1" d="M452.54,663.33c-.04-.32-2.71-3.76,0-4.99.06.81,2.49,3.05,0,4.99Z"/>
    <path class="cls-1" d="M318.64,742.24c-.07-2,.02-3.51,0-4.99,1.58.66,1.58,4.34,0,4.99Z"/>
    <path class="cls-1" d="M456.54,787.19c-.2-2.6.03-3.44,0-4.99,1.27,1.2,1.79,4.07,0,4.99Z"/>
    <path class="cls-1" d="M454.54,725.26c-1.49-.32-1.56-3.58,0-4-.01,1.25.06,2.27,0,4Z"/>
    <path class="cls-1" d="M455.54,737.25c-4.26.6-1.07-3.07-1-4,1.26,1.16.94,2.52,1,4Z"/>
    <path class="cls-1" d="M451.54,630.37c-1.49-.32-1.56-3.58,0-4,.06,1.57-.03,3.13,0,4Z"/>
    <path class="cls-1" d="M455.54,758.23c-1.21-.99-1.7-3.42,0-4,.04,1.31-.02,3.09,0,4Z"/>
    <path class="cls-1" d="M316.65,801.18c-.07-1.75.02-2.82,0-4,1.49.32,1.56,3.58,0,4Z"/>
    <path class="cls-1" d="M449.55,572.43c-1.21-.99-1.7-3.41,0-4,.04,1.24-.03,3.22,0,4Z"/>
    <path class="cls-1" d="M317.64,772.21c-.03-1.19.02-2.22,0-3,1.5.14,1.5,2.86,0,3Z"/>
    <path class="cls-1" d="M453.54,692.3c-1.5-.14-1.5-2.86,0-3-.01.91.03,1.82,0,3Z"/>
    <path class="cls-1" d="M450.55,581.42c.03,1-.03,2,0,3-3.18.77-2.98-3.87,0-3Z"/>
    <path class="cls-1" d="M318.64,571.43c-.02-.87.02-2.26,0-3,1.5.14,1.5,2.86,0,3Z"/>
    <path class="cls-1" d="M317.64,543.46c.02-.76-.02-2.12,0-3,1.5.14,1.5,2.86,0,3Z"/>
    <path class="cls-1" d="M448.55,538.47c-1.5-.14-1.5-2.86,0-3,.03,1.16-.02,2.28,0,3Z"/>
    <path class="cls-1" d="M447.55,506.51c-1.5-.14-1.5-2.86,0-3-.02.52.05,1.79,0,3Z"/>
    <path class="cls-1" d="M450.55,600.4c-1.5-.14-1.5-2.86,0-3,.04,1.2-.02,2.34,0,3Z"/>
    <path class="cls-1" d="M319.64,640.36c3.13-.55,2.97,2.61,0,2,0-.67,0-1.33,0-2Z"/>
    <path class="cls-1" d="M319.64,608.39c0-.51-.01-1.39,0-2l.99.51-.99,1.49Z"/>
    <path class="cls-1" d="M315.65,821.15c3.13-.55,2.97,2.61,0,2,0-.67-.02-1.33,0-2Z"/>
    <path class="cls-1" d="M315.65,827.15c0-.62,0-1.45,0-2l.99.51-.99,1.49Z"/>
    <path class="cls-1" d="M317.64,554.45c3.13-.55,2.97,2.61,0,2-.01-.67.02-1.33,0-2Z"/>
    <path class="cls-1" d="M312.65,469.55c-.04-1.07-.07-.81,0-2l.99.51-.99,1.49Z"/>
    <path class="cls-4" d="M314.65,435.59c.19-3.03.1-6.43-.01-9.48-1.15-32.91-8.03-67.82-9.02-100.85-.27-8.84.2-10.64,7.51-15.55,5.15-3.46,38.07-21.88,42.22-22.72,2.84-.58,38.12-1.31,40.28-.75l35.94,17.52c.16,1.29.48,1.31-.69,1.98-5.64,3.22-7.59,3.36-11.1,9.69-9.47,17.05-1.54,31.89,10.8,44.26-.94,10.45.69,21.56,11.99,24.97.24,12.96-.05,25.99,0,38.96,0,.67,0,1.33,0,2,.02,3.99,0,8,0,11.99,0,1.33,0,2.66,0,4-.02,9.31.04,18.66,0,27.97,0,1,0,2,0,3-.04,6.31.02,12.67,0,18.98-2.32.05-4.68-.07-7,0-36.93,1.05-74.87,0-111.92,0h-2c-.18-2.27-1.61-6.51-2-9.99-.87-7.71-1.32-15.27-2-22.97-.39-4.45-1.64-9.88-2-13.98-.09-.99.09-2.01,0-3-.17-1.88.79-4.87-1-5.99Z"/>
    <path class="cls-6" d="M437.56,837.14c2.99.06,6.01-.04,9,0-.92,2.72.71,5.22.99,7s-.23,4.1,0,5.99h-30.98s0-11.99,0-11.99c6.97-.66,13.67-1.15,20.98-1Z"/>
    <path class="cls-6" d="M329.64,836.14c8.57-.76,18.66,1.97,27.98,1v10.99c-4.98.03-10-.05-14.99,0-5.65.05-11.34-.04-16.99,0,.18-2.27-.25-4.78,0-7,.53-4.64.58-4.69,4-4.99Z"/>
    <path class="cls-4" d="M381.6,529.48v4.99c0,2.99,0,6,0,8.99l-25.51-16.95c-1.98-1.41-2.31-5.1.18-5.91,4.08-1.33,20.87,6.72,25.33,8.88Z"/>
    <path class="cls-1" d="M435.56,491.52c.56,3.02-1.53,1.93-3.45,2-33.44,1.12-71.63,1.32-105.01,0-1.93-.08-4.01,1.03-3.45-2,37.04,0,74.98,1.05,111.92,0Z"/>
    <path class="cls-1" d="M403.58,820.16c3.03-.56,1.92,1.53,2,3.45.16,4.17-.12,8.37,0,12.53-3.5-2.51-1.82-11.5-2-15.98Z"/>
    <path class="cls-14" d="M488.52,427.59c7.78,4.86,14.12,11.83,22.31,16.15,4.86,2.56,9.14,4.36,14.66,4.83,13.87,1.18,28.3-.96,41.97-1,.18,0,1.57,1.08,3.38,1.07,12.87-.04,25.74-.12,38.59-.07-.19-13.63.24-27.33,0-40.96-.07-3.66.34-8.29,0-12.48-.59-7.12-2.14-15.64-3.99-22.48,8.3-3.41,4.1-13.04,3.96-19.44-.24-10.49.26-21.03.05-31.51-13.98,0-28,.02-41.97,0-.67,0-1.33,0-2,0-13.31.04-26.67-.03-39.98,0-.03,13.3.06,26.66,0,39.96,0,.67,0,1.33,0,2-.04,6.95.44,14.08-.49,20.97-11.23-8.33-21.67-26.63-33.48-32.96l-3-3c.02-1.33,0-2.66,0-4-.3-46.78.25-93.59-.04-140.38.28-6.51,2.98-9.9,9.48-10.5,37.42-3.44,80.03,2.71,118.01,0,10.64,4.08,18.17,6.49,28.88,0,37.98,2.7,80.58-3.43,118.01,0,6.62.61,10.29,4.93,10.48,11.5v367.67c-.55,6.15-.8,13.98-8.51,14.46l-271.3-.54c-2.41-2.06-5.01-4.49-5.04-7.95.02-50.45.05-100.92.02-151.35ZM592.69,205.09c-2.58,2.48-.17,6,3.2,5.79,20.52-2.11,46.17,2.64,66.05,0,5.02-.67,6.73-5.41,1-6.09-11.57-1.36-27.83.23-40.06.09-7.72-.09-16.19-1.36-23.98-1.09-1.83.06-4.86,0-6.2,1.29ZM555.2,240.04c-12.68,2.3-11.66,23.7,1.74,24.76h146.94c14.41-1.74,14.11-23.4,0-25.02l-148.68.26ZM565.46,277.76c-11.03.04-26.11-1.27-36.52-.05-1.01.12-3.45.46-3.45,1.55v39.46c13.31.03,26.66-.05,39.97,0,.67,0,1.33,0,2,0,13.97-.01,27.99.01,41.97,0v-40.95c-12.85.04-25.72-.02-38.59-.07-1.81,0-3.2,1.07-3.38,1.07-.52,0-1.54-1-2-1ZM655.39,277.76h-41.97v40.95h41.97v-40.95ZM658.39,318.72h40.47c.11,0,1.5-1.39,1.5-1.5v-37.96c0-.11-1.39-1.5-1.5-1.5h-40.47v40.95ZM740.33,277.76h-37.97v40.95h37.97v-40.95ZM655.39,361.67c-.05-13.3.03-26.65,0-39.96h-41.97c.3,12.14-.41,24.36,0,36.5.06,1.93-1.02,4.01,2,3.45-.56.68-1.58,1.29-2,2-.54.9-.87.76-1.06,2.39-1.28,10.9-.11,28.02.06,39.57.01.89,1,1.81,1,2,.28,13.63-.21,27.33,0,40.96,12.44.59,25.62-.82,37.98,0,.47.03,2.37,1.83,3.99.99.05-.66-.02-1.33,0-1.99.56-13.06-.04-26.81,0-39.96,0-.67,0-1.33,0-2,.03-13.97.04-27.99,0-41.95,0-.67,0-1.33,0-2ZM658.39,361.67c0,.67,0,1.33,0,2,.01,13.97-.01,27.98,0,41.95h41.97c-.5-13.99-.86-27.94-1-41.95,0-.54,0-1.45,0-2-.14-13.3.1-26.65,0-39.96h-40.97c-.03,13.3.05,26.65,0,39.96ZM702.36,361.67c0,.69,0,1.33,0,2,.05,13.64-.03,27.32,0,40.96,5.43-1.07,11.59,1.07,16.5,1.08,6.63.01,14.43-2.18,21.48-1.08.02-13.64-.05-27.32,0-40.96,0-.67,0-1.33,0-2-.05-13.3.03-26.65,0-39.96h-37.97c-.04,13.3.05,26.65,0,39.96ZM700.36,407.62h-41.97v40.95h40.47c.11,0,1.5-1.39,1.5-1.5v-39.46ZM740.33,407.62h-37.97v40.95h36.47c.11,0,1.5-1.39,1.5-1.5v-39.46ZM565.46,451.57h-39.97v38.96c13.31.03,26.66-.05,39.97,0,.67,0,1.33,0,2,0,13.97-.01,27.99.01,41.97,0v-38.96h-41.98c-.05.66.04,1.33,0,2l-2-2ZM655.39,451.57h-41.97v38.96h41.97v-38.96ZM700.36,451.57h-41.97v38.96h40.47c.11,0,1.5-1.39,1.5-1.5v-37.46ZM740.33,451.57h-37.97v38.96h37.97v-38.96ZM740.33,519.99c1.13-6.7,0-19.46,0-26.97,0-1.89-5.12-1.74-6.04.17l-.96,24.3h-201.85v-11.99h104.42c2.6,0,2.22-5.99,1.5-5.99h-105.42c-1.67,0-3.4-1.62-5.57,1.43-1.8,2.52-1.67,22.54,1.58,22.54h208.84c1.13,0,3.3-2.33,3.5-3.5Z"/>
    <path class="cls-5" d="M358.61,260.78c12.11.43,23.28-11.21,24.81-22.75.94-7.07-9.2-4.48-12.06-11.47-4.89-11.99,11.52-17.79,14.77-12.77,1,1.54-.46,9.67,3.83,8.97,4.6-.75,1.67-12.85,2.67-13.87,1.59-1.63,19.42-.82,22.93-1.05.78,7.55-.65,15.06-1.05,22.44-.31,5.8,1.32,16.05-1.92,20.8-3.44,5.04-15.06,1.93-20.02,3.72v24.97l-33.97,1v-19.98Z"/>
    <path class="cls-12" d="M609.43,407.62c.24,13.63-.19,27.33,0,40.96-12.85-.05-25.73.02-38.59.07-1.81,0-3.2-1.07-3.38-1.07v-39.96c2.23,1.46,36.25-1.11,41.97,0Z"/>
    <path class="cls-5" d="M586.15,335.8c1.65-.43,2.27.4,3.37,1.33,2.07,1.75,8.5,10.03,10.34,12.64,12.67,17.96,3.05,13.32-8.11,18.69-3.55,1.71-8.66,8.36-11.7,8.2-7.54-.4-14.31-11.54-15.38-18.36,4.48-3.2,17.76-21.53,21.48-22.5Z"/>
    <path class="cls-7" d="M489.52,411.61c9.89,10.12,20.23,21.9,35.98,19.97v16.99c-5.53-.47-9.8-2.26-14.66-4.83-8.2-4.33-14.54-11.29-22.31-16.15,0-5.25,1.04-11.81,1-15.98Z"/>
    <path class="cls-15" d="M442.55,371.66c.29,1.7-.07,4.11,0,5.99.09,2.32-.04,4.67,0,6.99-11.3-3.42-12.93-14.52-11.99-24.97,3.17,3.17,11.13,6.94,11.99,11.99Z"/>
    <path class="cls-9" d="M562.46,405.62c5.14-1.47,4.73,1.82,5,2v36.96c-3.03.56-1.92-1.53-2-3.45-.19-4.82,1.2-32.33,0-33.51-.3-.3-3.89.22-5,0-.73-3.06,1.43-1.57,1.99-1.99Z"/>
    <path class="cls-9" d="M525.49,361.67c8.46.25,17.02-.34,25.49,0,1.35.05,4.16-.83,3.49,1.49-.4,1.39-25.72,0-28.98.51,0-.67,0-1.33,0-2Z"/>
    <path class="cls-9" d="M567.46,321.71c-.23,7.8.31,15.68,0,23.48-.05,1.35.83,4.16-1.49,3.49-1.3-.37-.08-23.89-.51-26.98.67,0,1.33,0,2,0Z"/>
    <path class="cls-1" d="M448.55,375.65v1l-6,1c-.07-1.89.29-4.29,0-5.99,3.16-.41,5.62.58,6,4Z"/>
    <path class="cls-1" d="M315.65,441.58c-4.36.69-1.11-4.27-1-5.99,1.79,1.12.83,4.12,1,5.99Z"/>
    <path class="cls-2" d="M491.52,351.68c-.6-.32-2.37.4-3.56-.98-1.03-1.18.56-1.89.57-2.02l3,3Z"/>
    <path class="cls-9" d="M565.46,401.62c1.3-.07,1.53,1.89.5,1.99l-.5-.99c.16-.19-.17-.81,0-1Z"/>
    <path class="cls-10" d="M612.18,680.57c76.86-9.63,113.82,85.75,54.53,128.43-53.61,38.59-128.75-11.39-111.74-75.74,6.68-25.26,30.68-49.37,57.2-52.7ZM627.41,745.24v-42.45c0-1.84-6.04-2.89-6.97,2.03.62,6.29-1.35,48.67,1.07,50.32,1.24.85,3.92-.44,5.25-1.07,8.92-4.22,18.4-13.82,27.62-18.33,1.51-1.29,1.56-4.94.06-6.06l-3.09-.02-23.94,15.57Z"/>
    <path class="cls-6" d="M329.64,854.12c1.33,0,2.66,0,4,0h4c5.1,0,21.97-1,25.34.14,2.36.79,3.76,10.21,3.63,12.85h-43.97c-.38-4.41,1.58-8.54,1-12.99h6Z"/>
    <path class="cls-6" d="M443.55,856.12c2.96.03,6.05-.22,8.99,0,.83.06,2.43-.32,2.87.11.41.39,2.41,9.26,3.12,10.88h-43.97l1-10.99c9.31.07,18.67-.08,27.98,0Z"/>
    <path class="cls-5" d="M629.17,163.11c20.91-3.01,22.97,32.51-1.2,28.68-14.81-2.34-14.78-26.38,1.2-28.68Z"/>
    <path class="cls-1" d="M329.64,854.12c-1.31-4.43,5.21-4.64,4,0-1.33,0-2.66,0-4,0Z"/>
    <path class="cls-8" d="M740.33,519.99c-.2,1.17-2.37,3.5-3.5,3.5h-208.84c-3.25,0-3.37-20.03-1.58-22.54,2.18-3.05,3.9-1.43,5.57-1.43h105.42c.72,0,1.1,5.99-1.5,5.99h-104.42v11.99h201.85l.96-24.3c.91-1.91,6.04-2.06,6.04-.17,0,7.51,1.13,20.27,0,26.97Z"/>
    <path class="cls-1" d="M555.2,240.04l148.68-.26c14.11,1.62,14.41,23.28,0,25.02h-146.94c-13.4-1.06-14.42-22.46-1.74-24.76ZM707.12,257.55c3.45-3.46.97-12.48-5.24-11.77h-142.94c-7.31.27-9.03,8.47-3.45,12.49l146.41.56c1.55-.13,4.11-.17,5.22-1.28Z"/>
    <path class="cls-12" d="M699.36,363.67c.14,14.01.5,27.96,1,41.95h-41.97c-.01-13.97.01-27.98,0-41.95h40.97Z"/>
    <rect class="cls-13" x="613.42" y="277.76" width="41.97" height="40.95"/>
    <path class="cls-13" d="M567.46,278.76c.18,0,1.57-1.08,3.38-1.07,12.86.05,25.74.11,38.59.07v40.95c-13.97.01-27.99-.01-41.97,0v-39.96Z"/>
    <path class="cls-2" d="M700.36,407.62v39.46c0,.11-1.39,1.5-1.5,1.5h-40.47v-40.95h41.97Z"/>
    <path class="cls-12" d="M658.39,318.72v-40.95h40.47c.11,0,1.5,1.39,1.5,1.5v37.96c0,.11-1.39,1.5-1.5,1.5h-40.47Z"/>
    <path class="cls-12" d="M655.39,407.62c-.04,13.15.56,26.9,0,39.96l-4,1c-12.35-.81-25.53.6-37.98,0-.2-13.63.29-27.33,0-40.96h41.97Z"/>
    <path class="cls-13" d="M615.42,361.67c-3.02.56-1.93-1.53-2-3.45-.41-12.14.3-24.37,0-36.5h41.97c.03,13.3-.05,26.65,0,39.96h-39.97Z"/>
    <path class="cls-13" d="M658.39,361.67c.05-13.3-.03-26.65,0-39.96h40.97c.1,13.3-.14,26.66,0,39.96h-40.97Z"/>
    <path class="cls-12" d="M565.46,277.76v40.95c-13.31-.05-26.66.03-39.97,0v-39.46c0-1.09,2.44-1.43,3.45-1.55,10.42-1.22,25.49.09,36.52.05Z"/>
    <rect class="cls-13" x="613.42" y="451.57" width="41.97" height="38.96"/>
    <path class="cls-13" d="M567.46,453.57c.03-.66-.05-1.34,0-2h41.98s0,38.95,0,38.95c-13.97.01-27.99-.01-41.97,0,.44-12.26-.6-24.71,0-36.96Z"/>
    <path class="cls-12" d="M700.36,451.57v37.46c0,.11-1.39,1.5-1.5,1.5h-40.47v-38.96h41.97Z"/>
    <path class="cls-12" d="M740.33,363.67c-.04,13.64.03,27.32,0,40.96-7.05-1.1-14.86,1.09-21.48,1.08-4.91,0-11.07-2.15-16.5-1.08-.03-13.64.05-27.32,0-40.96h37.97Z"/>
    <path class="cls-11" d="M655.39,363.67c.04,13.97.03,27.99,0,41.95h-42.97c-.17-11.55-1.34-28.67-.06-39.57.19-1.62.52-1.49,1.06-2.39h41.97ZM646.1,383.36c2.67-3.28,1.71-7.48-3.15-6.72-3.2.5-8.94,8.88-12.07,10.99l-1.45.02c-.53-5.38-9.75-8.47-9.06-1.54.1.97,4.53,6.52,5.53,7.55,3.36,3.43,3.79,4.01,8.01.98,1.43-1.03,11.2-10.05,12.19-11.27Z"/>
    <path class="cls-12" d="M565.46,451.57v38.96c-13.31-.05-26.66.03-39.97,0v-38.96h39.97Z"/>
    <rect class="cls-12" x="702.36" y="277.76" width="37.97" height="40.95"/>
    <path class="cls-2" d="M740.33,407.62v39.46c0,.11-1.39,1.5-1.5,1.5h-36.47v-40.95h37.97Z"/>
    <path class="cls-12" d="M702.36,361.67c.05-13.3-.04-26.65,0-39.96h37.97c.03,13.3-.05,26.65,0,39.96h-37.97Z"/>
    <rect class="cls-12" x="702.36" y="451.57" width="37.97" height="38.96"/>
    <path class="cls-8" d="M592.69,205.09c1.34-1.29,4.37-1.23,6.2-1.29,7.79-.27,16.26,1,23.98,1.09,12.23.14,28.49-1.46,40.06-.09,5.73.68,4.02,5.42-1,6.09-19.88,2.64-45.53-2.11-66.05,0-3.36.21-5.77-3.31-3.2-5.79Z"/>
    <path class="cls-7" d="M655.39,405.62c0,.67,0,1.33,0,2h-41.97c0-.18-.99-1.11-1-2h42.97Z"/>
    <path class="cls-4" d="M699.36,361.67c0,.55,0,1.46,0,2h-40.97c0-.67,0-1.33,0-2h40.97Z"/>
    <path class="cls-7" d="M655.39,361.67c0,.67,0,1.33,0,2h-41.97c.42-.71,1.44-1.32,2-2h39.97Z"/>
    <path class="cls-9" d="M567.46,278.76v39.96c-.67,0-1.33,0-2,0v-40.95c.46,0,1.48,1,2,1Z"/>
    <path class="cls-4" d="M740.33,361.67c0,.67,0,1.33,0,2h-37.97c0-.67,0-1.31,0-2h37.97Z"/>
    <path class="cls-9" d="M567.46,453.57c-.6,12.25.44,24.7,0,36.96-.67,0-1.33,0-2,0v-38.96l2,2Z"/>
    <path class="cls-7" d="M655.39,447.57c-.03.66.05,1.33,0,1.99-1.62.83-3.52-.96-3.99-.99l4-1Z"/>
    <path class="cls-5" d="M585.28,391.51c1.28-.73,9.17-16.01,12.69-10.89.73,1.06.54,2.15.3,3.3-.21,1-10.24,14.14-11.27,14.76-5.99,3.57-11.39-6.78-6.92-7.97,1.55-.41,3.93,1.53,5.21.8Z"/>
    <path class="cls-8" d="M627.41,745.24l23.94-15.57,3.09.02c1.5,1.11,1.45,4.77-.06,6.06-9.22,4.5-18.7,14.11-27.62,18.33-1.33.63-4.01,1.91-5.25,1.07-2.42-1.66-.45-44.03-1.07-50.32.93-4.92,6.97-3.86,6.97-2.03v42.45Z"/>
    <path class="cls-5" d="M707.12,257.55c-1.1,1.1-3.67,1.15-5.22,1.28l-146.41-.56c-5.58-4.02-3.86-12.21,3.45-12.49h142.94c6.21-.71,8.69,8.32,5.24,11.77Z"/>
    <path class="cls-6" d="M646.1,383.36c-.99,1.22-10.76,10.24-12.19,11.27-4.22,3.03-4.64,2.45-8.01-.98-1.01-1.03-5.44-6.58-5.53-7.55-.68-6.93,8.53-3.84,9.06,1.54l1.45-.02c3.12-2.11,8.86-10.49,12.07-10.99,4.86-.75,5.81,3.44,3.15,6.72Z"/>
  </g>
</svg>