<?xml version="1.0" encoding="UTF-8"?>
<svg xmlns="http://www.w3.org/2000/svg" viewBox="0 0 1024 1024">
  <defs>
    <style>
      .cls-1 {
        fill: #d6d6d6;
      }

      .cls-2 {
        fill: #676867;
      }

      .cls-3 {
        fill: #7f7373;
      }

      .cls-4 {
        fill: #343534;
      }

      .cls-5 {
        fill: #f9f9f9;
      }

      .cls-6 {
        fill: #666;
      }

      .cls-7 {
        fill: #fefefe;
      }

      .cls-8 {
        fill: #232322;
      }

      .cls-9 {
        fill: #e4e5e4;
      }

      .cls-10 {
        fill: #f3f3f3;
      }

      .cls-11 {
        fill: #fcfcfc;
      }

      .cls-12 {
        fill: #fafbfb;
      }

      .cls-13 {
        fill: #222221;
      }
    </style>
  </defs>
  <g id="_검은색_배경" data-name="검은색 배경">
    <rect class="cls-3" x="0" y="0" width="1024" height="1024"/>
  </g>
  <g id="_레이어_1" data-name="레이어 1">
    <path class="cls-8" d="M742,673c-5.65,6.52-10.41,2.09-8,13,2.07,9.39,5.38,19.62,8,29-6.35-4.14-14.25-2.94-21.23-5.85-34,10.45-68.34,19.71-102.48,29.66-1.61.47-2.49.35-3.29,2.2-4.56-14.31-9.33-28.71-14-43-1.37-4.19-3.39-14.42-5.17-17.33-.62-1.02-.93-1.67-2.32-1.68l-141.99.03c-9.32,6.19-16.46,14.87-24.51,22.49-1.89,1.79-6.23,3.87-7.44,5.56-1.52,2.13-2.57,8.07-3.57,10.93-2.57,7.34-4.25,15.11-8,22l-111.41-32.06c-2.64,6.23-10.02,5.79-15.59,8.06,2.74-9.62,5.28-19.37,8-29,.58-2.05,2.6-6.61,1.58-8.03-.66-.93-8.21-3.69-9.58-5.97-.85-2.92-3.49-5.85-3.04-9.46-1.21-60.77,1.76-121.81.04-182.54-.07-2.33.05-4.68,0-7.01l-59.55.05c-3.99-.2-4.19-2.16-4.51-5.49-1.91-19.51-.86-51.42.06-71.56.09-1.95-.28-3.93.14-5.86,1.35-.67,2.85-1,4.35-1.14,18.85-1.8,40.37,1.34,59.51,0v-15.5c0-2.79,5.87-10.99,8.62-12.38s5.12-.66,7.36-1.64c3.15-1.38,8.18-8.93,14.48-7.52h406.08c6.6-.47,10.8,4.95,15.52,7.48,1.62.87,4.02.66,6.29,1.71,5.47,2.54,9.42,9.25,9.69,15.31v285.08c-.16,3.83-1.54,7.57-4.04,10.46ZM508,394c.05-6.23-1.18-22.6.2-27.3s7.8-2.58,7.8.8v288.5h72l-21.74-68.76c-2.66-5.04,4.49-17.25,3.6-20.52-.59-2.14-7.29-6.77-9.06-10.02-3.3-6.06-12.67-30.03-14.32-36.7-.81-3.26-.94-6.06,2.98-6.95,6.43.75,30.51,11.76,34.94,11.03.7-.12,1.53-3.32,2.6-4.59,12.57-14.87,31.36-2.16,39.6,10.59,2.3.33,7.37-4.61,10.38-5.6,7.58-2.49,16.55-.58,22.94,4.1l55.33,54.67,2.03,17.97,7.71,40.77c-.77-5.61.85-11.08,1.06-16.45,3.19-83.28-2.52-168.59,0-252.09-.69-7.76-3.44-10.96-10.98-13.02l-403.6-.48c-19.92.1-12.59,23.66-12.41,36.49.38,26.69-.97,53.48-1.1,80-.28,58.51.3,117.04.06,175.54l17.53-55.95c2.27-7.6,7.4-12.4,12.46-18.04,2.33-.51,3.59-2.81,4-3,.77-.35,1.53-.79,2-1,2.31-1,5.51-1.47,8-2,3.32-.71,8.93-.6,10.98-1.52s7.29-7.62,11.02-9.48c.57-.29,2.21-.76,3-1,1.2-.36,2.81-.87,4-1,2.32-.25,9-.43,11,0,1.18.25,5.76,3.97,7.51,3.98,1.26,0,6.16-3.7,8.5-4.47,8.55-2.84,13.79-.51,21.98,1.49l8.01-24c3.59-8.1,6.59-12.9,13-19,.56-.53,1.85-.83,3-2l5-2c2.09.05,4.33-1.02,5-1s1.33-.02,2,0c1.25.04,6.05.68,7,1,6.16,2.11,13.03,10,13.91,16.58,1.28,9.64-7.58,27.01-10.93,36.9-5.89,17.42-11.59,34.93-16.97,52.51,2.62-1.9,4.81-5.19,7.64-6.85,8.52-5,19-.96,23.17,7.53,6.77,13.8-4.76,24.34-9.82,36.32h38c.04-12.32-.05-24.68,0-37,0-1.33,0-2.67,0-4,0-.67,0-1.33,0-2,.01-3.66,0-7.34,0-11,0-2.66,0-5.34,0-8,0-3.99,0-8.01,0-12,0-1,0-2,0-3,0-9.99,0-20.01,0-30,0-1,0-2,0-3,.01-11.65,0-23.35,0-35,0-6.32,0-12.68,0-19,0-1,0-2,0-3,0-3.66,0-7.34,0-11,0-.67,0-1.33,0-2,0-3.33,0-6.67,0-10,0-3.99,0-8.01,0-12,0-1.67,0-3.33,0-5,0-2.66,0-5.34,0-8,.03-14.65-.1-29.35,0-44,0-1,0-2,0-3ZM291,368c-.62.08-1.76-.16-1.98,0-.34.26-4.02,7.07-4.02,7.49v15.5h6v-23ZM733,369v291.5c0,3-4.8,3.25-5,3.51-.21.27,1.51,5.57,1.92,6.58s-.56,1.79,1.6,1.44c3.64-.59,8.15-7.7,7.52-11.49v-279.08c-.31-4.26-.83-11.8-6.04-12.46ZM292,398h-71v69h71v-69ZM291,474h-6v190.5c0,1.99,4.69,8.28,7.42,7.47,6.79-6.25-1.42-9.83-1.42-10.47v-187.5ZM403.94,730.96c18.01-53.09,34.78-106.63,52.79-159.73,3.26-9.61,11.67-27.21,13.03-35.97,2.79-17.85-21.36-20.57-30.62-5.61l-33.37,87.63c-1.13,4.08-7.64,3.33-7.57-.58l18.68-48.38c.27-2.83-8.92-4.12-11.11-4.04-15.61.57-24.83,24.91-32.72,35.99-2.37,3.25-7.41,1.29-6.83-2.59.7-4.61,15.11-21.74,17.4-27.64,1.34-4.91-9.56-4.5-12.89-3.81-10.98,2.29-21.73,24.55-25.43,25.64-2.16.64-5.38-.86-5.16-3.2.14-1.45,6.4-9.25,5.85-9.66-16.14.52-21.76,14.33-26.27,27.22-10.3,29.45-16.89,60.78-26.5,90.51l-.23,3.26,110.95,30.96ZM685.75,594.74c-1.03,1.04-3.17,1.57-4.26.35-24.14-24.2-48.22-48.57-72.55-72.52-4.48-3.4-10.43-3.62-14.89-.02-4.98,4.02-2,6.6,1.56,10.36,33.16,35.01,73.19,67.17,107.92,101.08,4.24,4.14,12.58,10.97,13.38,16.61,2.65,18.72-22.96,41.34-34.25,17.75l-54.16-49.33c-2.03,3.71,7.13,18.07,1.85,19.85-.92.31-3.5.47-4.22.01-2.05-1.31-11.82-40.43-13.86-46.63-4.39-13.35-7-31.1-25.53-27.99-9.74,1.64-14.12,13.05-13.51,21.97l45.74,144.38,110.96-32.21c-10.45-36.72-17.02-74.46-21.45-112.36l-52.54-51.46c-6.64-4.73-18.01-6.07-22.9,1.87l51.96,52.07c1.65,1.56,2.57,4.41.75,6.24ZM581,531.99c.41-.6-1.09-1.46-1.71-1.78-6.26-3.22-16.43-4.74-23.29-7.2l10.5,27.99c2.75-7.65,5.86-16.36,14.49-19.01ZM587.69,536.16c-2.67,1.28-9.11,3.49-5.24,6.89,5.87,3.73,9.92,9.46,15.05,13.95,9.13,8,16.11,14.7,24.97,23.03,21.51,20.22,44.3,43.62,66.51,62.49,5.21,4.42,6.02,5.94,11.58.51l-112.88-106.87ZM587,557.99c.97-.93-7.28-9.29-8.44-10.04-.93-.6-2.64-1.56-3.53-.94-.45.32-2.95,9.55-2.99,10.63-.34,8.86,10.84-.87,14.97.36ZM617,586.01c-.73.68,6.39,16.36,6.56,18.93l52.42,48.58,9.02,7.02c.88-.39,6.23-7.97,4.07-9.05l-68.53-64.52c-.63-.84-3.12-1.34-3.54-.95ZM425.01,691.99l10.01-7.48c7.1-8.74,18.12-15.54,24.4-24.6,3.09-4.46,14.45-24.28,15.36-28.64,1.38-6.63-3.06-14.36-10.3-14.31-6.79.05-16.49,15.86-21.9,20.11-5.94,18.25-12.66,36.4-17.57,54.92ZM708.87,648.13c-4.44-2.78-16.59,11.78-17.63,15.61-3.11,11.38,8.23,8.68,13.6,2.61,2.73-3.08,7.96-15.75,4.03-18.21ZM593,672c-.94-2.88-1.32-8.4-4.49-9.01l-119.07-.05c-5.39-.28-7.44,5.68-10.44,9.06h134ZM424.5,693v1c.65-.33.65-.67,0-1Z"/>
    <path class="cls-4" d="M615,741c.8-1.85,1.68-1.73,3.29-2.2,34.14-9.95,68.48-19.21,102.48-29.66,6.98,2.92,14.88,1.71,21.23,5.85,9.89,35.45,21.86,70.33,31,106-44.24-.11-89.42,1.02-134,1,.27-2.02-.18-3.86-.7-5.79-6.65-24.73-15.49-50.68-23.3-75.21Z"/>
    <path class="cls-4" d="M408,740l-24,82c-44.98.03-90.02-.15-135,0,10.15-35.44,21.91-70.55,32-106,5.57-2.26,12.95-1.83,15.59-8.06l111.41,32.06Z"/>
    <path class="cls-13" d="M504.5,244h272c1.27,0,2.37,3.13,2.55,4.45,2.15,16,0,42.86-.1,60.09,0,1.45,1.94,9.46-1.45,9.46h-273c-4.68,0-1.53-14.59-1.46-17.46.33-14.28.24-28.81,0-43.09-.08-4.8-2.99-9.51,1.45-13.45ZM532,252c-.78-.78-18.98.58-22,0v59h12v-19.5c0-3.21,8-4.13,8-1v20.5h13v-19.5c0-2.53,8-3.59,8-1v20.5h13v-19.5c0-4.05,8-2.73,8-1v20.5h15v-20.5c0-2.04,7-2.04,7,0v20.5h13v-19.5c0-4.05,8-2.73,8-1v20.5h13v-19.5c0-2.53,8-3.59,8-1v20.5h14v-20.5c0-2.04,7-2.04,7,0v20.5h13v-18.5c0-4.08,8-4.49,8-2v20.5h14v-20.5c0-2.04,7-2.04,7,0v20.5h14v-19.5c0-4.05,8-2.73,8-1v20.5h13v-20.5c0-2.04,7-2.04,7,0v20.5h15v-20.5c0-2.12,7-3.19,7,0v20.5h9v-59h-22c-.76,0,3.03,13.7-5.37,10.88-3.29-1.1-.79-10.06-1.63-10.89-.46-.46-12.55-.46-13.01,0-.82.82,2.22,10.53-3.55,11.05-6.86.62-3.6-10.21-4.44-11.05-.5-.49-13.51-.49-14.01,0-1.33,1.32,2.99,11.1-3.49,11.1-6.48,0-2.17-9.77-3.49-11.1-.5-.49-13.51-.49-14.01,0-1.33,1.32,2.99,11.1-3.49,11.1-6.48,0-2.17-9.77-3.49-11.1-.5-.49-13.51-.49-14.01,0-1.01,1,2.2,10.73-2.5,11.05-8.16.55-2.94-9.5-4.49-11.05-.5-.49-13.51-.49-14.01,0-1.33,1.32,2.99,11.1-3.49,11.1-6.48,0-2.17-9.77-3.49-11.1-.5-.49-13.51-.49-14.01,0-1.33,1.32,2.99,11.1-3.49,11.1s-2.17-9.77-3.49-11.1c-.48-.47-11.37.37-13.43-.01-2.23.33,2.51,11.11-4.08,11.11-6.48,0-2.17-9.77-3.49-11.1-.5-.49-13.51-.49-14.01,0-.85.84,2.26,10.45-3.53,11.02-8.02.78-2.97-9.53-4.46-11.02-.46-.46-12.55-.46-13.01,0-.85.84,2.26,10.45-3.53,11.02-8.02.78-2.97-9.53-4.46-11.02-.5-.49-13.51-.49-14.01,0-1.33,1.32,2.99,11.1-3.49,11.1-6.48,0-2.17-9.77-3.5-11.09Z"/>
    <path class="cls-8" d="M249,822c44.98-.15,90.02.03,135,0,84.98-.06,170.02-.04,255,0,44.58.02,89.76-1.11,134-1,.7,0,2.58,1.03,4.43,1.04l47.87.16c4.55,2.22,3.34,7.95-1.25,9.35-208.81.55-418.05,1.16-626.79-.31-5.31-2.24-3.7-7.78,1.27-9.21,16.82-.09,33.66.03,50.47-.03Z"/>
    <path class="cls-13" d="M844,571c.79,17.36.27,36.51,0,54-.02,1.33.02,2.67,0,4-.08,4.59,1.9,14.95-3.53,15.97l-79.47.03c-1.26-3.04-2.62-2.85-3.05-7.45-1.9-20.46.84-42.74,1.14-63.05.03-1.78-2.15-12.5,1.41-12.5h81c2.91,0,2.41,7.12,2.5,9ZM837,569h-71v69h71v-69Z"/>
    <path class="cls-13" d="M264,614c-10.11-1.27-77.39,2.26-81.03-1.47-.85-.87-1.08-1.78-1.03-2.97,1.84-23.92-2.28-51.04.06-74.56.79-7.91,8.12-4.04,13.45-3.95,20.63.35,41.45.21,62.09,0,3.88-.04,8.75-2.99,9.52,3.4,2.76,23.01-2.22,51.49,0,75.1.84,2.56-2.85,4.01-3.05,4.45ZM260,538h-71v69h69.5c.11,0,1.5-1.39,1.5-1.5v-67.5Z"/>
    <path class="cls-8" d="M435,286c-1.66,1.13-3.55.98-5.45,1.04-22.58.68-49.12,1.1-71.55-.04-1.57-.08-6.63.08-7.04-1.66v-77.89c-.23-1.02.71-3.45,1.54-3.45h82c1.1,0,1.43,2.44,1.55,3.45,2.77,23.62-1.36,54.53-1.05,78.55ZM429,211h-71v67.5c0,.11,1.39,1.5,1.5,1.5h69.5v-69Z"/>
    <path class="cls-4" d="M797.72,347.19c13.21-2.91,16.76,16.49,4.52,18.62-13.26,2.3-15.06-16.3-4.52-18.62ZM795.26,360.75c5.7,6.02,15.07-1.85,9.2-8.71-5.59-6.52-14.26,3.37-9.2,8.71Z"/>
    <path class="cls-4" d="M591.71,193.21c15.68-3.53,17.34,21.77-1,17.57-8.47-1.94-7.25-15.71,1-17.57ZM590.29,197.3c-4.07,3.3-2.24,10.27,3.19,10.78,13.01,1.2,5.58-17.9-3.19-10.78Z"/>
    <path class="cls-4" d="M293.72,297.28c7.79,7.8-3.08,22.07-12.76,13.26s4.44-21.59,12.76-13.26ZM285.74,298.16c-5.31.97-6.49,8.75-1.51,11.1,10.27,4.85,11.9-12.99,1.51-11.1Z"/>
    <path class="cls-4" d="M775.7,516.21c15.88-4.67,17.48,18.73,3.25,17.36-10.33-.99-11.12-15.05-3.25-17.36ZM776.7,519.2c-3.94,1.18-4.22,9.82.84,10.78,11.54,2.19,10.27-14.11-.84-10.78Z"/>
    <path class="cls-11" d="M328,578c-5.06,5.65-10.19,10.44-12.46,18.04l-17.53,55.95c.24-58.5-.34-117.03-.06-175.54.13-26.52,1.48-53.31,1.1-80-.18-12.83-7.51-36.39,12.41-36.49l403.6.48c7.54,2.06,10.3,5.26,10.98,13.02-2.52,83.5,3.2,168.8,0,252.09-.21,5.37-1.83,10.84-1.06,16.45l-7.71-40.77-2.03-17.97-55.33-54.67c-6.38-4.68-15.35-6.59-22.94-4.1-3.02.99-8.09,5.93-10.38,5.6-8.25-12.75-27.03-25.46-39.6-10.59-1.07,1.26-1.9,4.47-2.6,4.59-4.43.73-28.51-10.27-34.94-11.03-3.92.89-3.78,3.7-2.98,6.95,1.65,6.67,11.02,30.64,14.32,36.7,1.77,3.25,8.48,7.88,9.06,10.02.9,3.27-6.25,15.48-3.6,20.52l21.74,68.76h-72v-288.5c0-3.38-6.43-5.42-7.8-.8s-.15,21.07-.2,27.3c-5.21-.33-2.07-4.95-2.29-7.37-4.06-9.69-1.99-18.85-15.16-20.67-6.12-.85-11.4,2.22-13.96,2.08-1.81-.1-3.43-2.06-5.09-2-2.86.1-5.65,2.62-11.92,1.88-5.5-.65-6.33-.79-12.04-.87-39.46-.52-78.81-.06-118.03.86-1.76.04-9.18.87-10.94,1.15-1.2.19-6.67,2.24-7.1,2.89-2.89,4.35,1.72,5.18,2.79,7.27,1.86,3.64,4.87,13.56,5.58,17.52.61,3.44-2.12,5.9-1.82,8.69.22,2.03,3.34,5.95,2.75,8.95-.33,1.67-3.45,2.54-3.79,5.16-.27,2.06.99,4,1.07,6,.15,3.66-1.03,6.16.95,10.44-.55.59-5.14-3.39-6.99-.99-.93,1.21,2.57,3.45,2.97,5.51.85,4.38-1.01,8.12-1.06,11.98-.05,4.1,1.96,6.48.61,11.54-3.9,14.7-3.22,25.48-1.59,40.52,1.36,12.52-2.59,24.49-.86,37.86,1,7.71,6.19,16.86,2.38,24.53-1.04,2.08-4.28,2.78-4.51,3.75-.55,2.37,1.41,5.3,1.08,7.74-.3,2.27-3.2,3.54-3.82,6.26-.79,3.45.11,7.71-.2,11.29l3.48-1.01c2.37-2.75,8.95-14.62,10.93-16.06,2.35-1.71,4.56-.47,6.58-.92ZM688.66,416.66c6.36-6.39,2.05-18.24-7.14-18.69h-120.05c-13.55,1.61-12.82,20.38,1,22.05,37.62-2.68,80.01,3.49,117.06.02,3.03-.28,6.92-1.16,9.13-3.37ZM561.74,445.24c-13.31,2.24-12.66,20.05-2.18,21.7,42.02-.36,84.34,1.01,126.19-.7,11.21-7.19,6.18-19.92-6.24-21.25l-117.76.24Z"/>
    <path class="cls-7" d="M508,394c0,1,0,2,0,3-4.98.31-4.54,6.94-3.95,10.45,1.43,8.51-.14,7.51-.13,15.07,0,3.24.24,12.38,1.01,15.05.57,1.97.12,3.53,3.07,3.43,0,2.66,0,5.34,0,8-2.95-1.27-3.27,6,0,5,0,3.99,0,8.01,0,12-5.8.48-5.19,9.28,0,10,0,.67,0,1.33,0,2-5.45.67-5.45,10.33,0,11,0,1,0,2,0,3-6.12,1.18-2.95,6.31-2.99,9.5-.04,3.68-3.51,8.33,2.99,9.5,0,11.65.01,23.35,0,35-2.98-.88-3.18,3.78,0,3,0,9.99,0,20.01,0,30-2.98-.88-3.18,3.78,0,3,0,3.99,0,8.01,0,12-5.48.73-5.43,7.3,0,8,0,3.66.01,7.34,0,11-2.97-.61-3.13,2.55,0,2,0,1.33,0,2.67,0,4-7.21.36-2.64,9.83-12.33,6.82-5.01-1.55,1.27-3.68,1.86-4.79,2.82-5.25-5.03-3.36-6.61-4.46-1.4-.98-.3-4.7-2.56-5.49-2.09-.73-6.85,2.13-7.37-.6-.21-1.08,1.67-2.82,1.71-4.76.13-5.97-3.91-7.09-4.57-9.44-.81-2.9,1.8-5.39,1.77-7.81s-2.76-3.97-2.94-6.05c-.21-2.44,2.75-4.4,3.08-7.92.41-4.33-2.24-7.53-1.9-9.78.36-2.41,3.34-3.92,3.7-5.43.45-1.87-1.68-3.98-.4-6.32.76-1.4,3.31-1.57,3.58-2.68.58-2.4-.62-5.83.19-8.59.87-2.98,4.94-2.95,4.9-5.2-.07-3.74-3.75-4.19-4.15-7.08-.44-3.14,2.57-4.92,2.01-6.84-.3-1.04-2.28-1.3-2.99-2.33-.37-.53-4.93-11.13-4.99-11.78-.47-4.71,1.83-11.47,2.05-15.96.3-6.03-.75-23.16-4.11-27.95-1.49-2.12-5.89-1.77-5.91-5.06,0-.44,2.3-8.11,2.5-8.51.96-1.9,4.55-2.3,5.3-4.7,1.05-3.36-.81-5.98-.82-8.81,0-2.07,2.3-8.84-.14-10.36-3.2-2-7.48,3.83-7.91-6.11l-6.95,1.97c-.58-.42-1.38-.62-2-1-.05-3.64-5.77-4.56-8.49-4.81-.89-.08-7.54,2.1-6.03-1.19.5-1.1,5.29-4.38-.15-5.85-6.3-1.7-.93,7.47-1.34,7.84h-6.99c-.64-2.27,2.68-3.22,2.92-4.63.69-4-9.78-3.98-12.22-3.39-1.16.29-1.18,2.55-2.21,3.02-1.91.87-1.55-2-2.9-3.07-3.79-3.02-4.87,2.3-7.32,2.94s-5.09-1.81-7.29-.42c-2.57,1.62.14,6.01-6.2,4.28-1.28-.35-5.92-3.6-6.77-2.73-.47.48.51,4.72-4.61,5-6.84.37-.74-6.35-1.41-6.99-1.33.59-7.71.71-7.99,1s.34,3.88-.15,5.38-3.52,1.17-2.85,3.62c-1.67,0-3.33-.01-5,0-2.01-6.72-11.18-2.2-15.61-2.1-2.61.05-5.51-1.53-8.39-.9-1.35-1.22,4.84-6.55-.51-7.07-.86-.08-5.97,3.31-6.96,4.06-1.85,1.39-5.22,3.59-5.53,6.01-6.47,1.2-6.54,8.45-8,10-.13.14-1.44-.28-1.8.15-.46.54,2.25,10.86,2.77,11.39.78.79,19.27,8.05,20.66,8.14,8.24.56,19.69-1.75,27.87-1.76,12.06-.02,24.8,1.92,37,1.88s27.79-2.83,40.04-1.83c2.16.18,8.45,1.11,9.54,2.71,3.47,5.11-3.28,5.83-3.98,7.99-.93,2.82,3.17,5,.91,8.34-3.73-.86-12.03.19-16.54.05-7.9-.25-16.04-.42-23.92-1.09-25.39,2.58-57.35-3.33-81.95.14-8.14,1.15-8.75,6.86-8.59,13.91.1,4.57,1.08,8.47,5.08,11.43,2.95,2.18,4.93.38,7.19.8,3.02.55,6.06,3.52,10.43,3.45,2.33-.04,4.29-1.58,6.8-1.68,8.96-.35,18.87,1.89,27.06,1.06,6.8-.69,17.11-2.51,23.95-2.14,2.98.16,5.19,3.07,8.98,3.09,3.22.02,7.7-1.84,11.07-2.04,2.64-.15,4.75,1.07,6.87.98,2.24-.1,4.92-2.29,6.94-1.99.65.1.51,1.85,1.3,2.04,1.64.39,3.73-.3,5.61.23,1.04.29,8.23,3.62,8.49,4.01.49.73.18,2.47.76,3.69,1.73,3.61,3.85,2.35.46,8.09-.95-.32-5.75-.96-7-1,.61-2.97-2.55-3.13-2,0-.67-.02-2.91,1.05-5,1-.18,0-.81-1.75-3.41-.93-1.65.52-1.32,2.66-1.59,2.93-1.15,1.17-2.44,1.47-3,2-3.25.48-6.29-.86-9.46-1.04-24.42-1.42-64.04-2.09-88.02.06-6.84.61-8.21.94-11.04,7.01-.61,1.3-.3,3.68-.48,3.98-.06.09-1.76-.4-2.04.67-1.13,4.36,3.35,11.61,7.32,13.55,6.43,3.14,21.99,5.01,29.21,4.86,2.98-.06,6.8-2.06,8.89-1.82.75.09,12.71,5.57,13.33,6.01,1.36.95,5.86,6.13,4.28,7.73-.7.7-6.1-.86-7.54-.98-1.89-.16-4.03-.91-3.45,1.99-2-.43-8.68-.25-11,0,.71-3.63-4.1-2.51-4,1-.79.24-2.43.71-3,1,.37-2.93-.83-2.27-2.72-1.22-3.76,2.09-6.52,5.04-11.06,6.94-3.47,1.45-8.9.21-8.22,5.28-2.49.53-5.69,1-8,2-1.73-1.71-2.31-1.36-2,1-.41.19-1.67,2.49-4,3-2.02.45-4.23-.79-6.58.92-1.98,1.44-8.57,13.31-10.93,16.06l-3.48,1.01c.31-3.57-.59-7.84.2-11.29.62-2.72,3.52-3.99,3.82-6.26.33-2.44-1.63-5.37-1.08-7.74.23-.97,3.47-1.67,4.51-3.75,3.81-7.67-1.38-16.82-2.38-24.53-1.73-13.37,2.23-25.34.86-37.86-1.64-15.04-2.32-25.82,1.59-40.52,1.34-5.05-.67-7.43-.61-11.54.05-3.86,1.91-7.61,1.06-11.98-.4-2.06-3.9-4.3-2.97-5.51,1.85-2.4,6.43,1.58,6.99.99-1.98-4.29-.81-6.79-.95-10.44-.08-2-1.34-3.94-1.07-6,.34-2.63,3.46-3.49,3.79-5.16.6-3-2.53-6.91-2.75-8.95-.3-2.79,2.43-5.25,1.82-8.69-.71-3.97-3.72-13.88-5.58-17.52-1.07-2.09-5.68-2.92-2.79-7.27.44-.66,5.9-2.7,7.1-2.89,1.76-.28,9.18-1.11,10.94-1.15,39.22-.92,78.57-1.39,118.03-.86,5.71.08,6.54.22,12.04.87,6.27.74,9.05-1.78,11.92-1.88,1.66-.06,3.29,1.9,5.09,2,2.56.15,7.84-2.92,13.96-2.08,13.17,1.82,11.1,10.98,15.16,20.67.22,2.43-2.92,7.04,2.29,7.37ZM381.99,411.01h-2.99v1.99h2.99v-1.99Z"/>
    <path class="cls-11" d="M403.94,730.96l-110.95-30.96.23-3.26c9.61-29.73,16.21-61.06,26.5-90.51,4.51-12.89,10.13-26.71,26.27-27.22.55.41-5.71,8.21-5.85,9.66-.23,2.34,3,3.84,5.16,3.2,3.69-1.09,14.44-23.35,25.43-25.64,3.33-.69,14.22-1.1,12.89,3.81-2.29,5.9-16.7,23.03-17.4,27.64-.59,3.87,4.46,5.83,6.83,2.59,7.89-11.09,17.11-35.42,32.72-35.99,2.19-.08,11.39,1.21,11.11,4.04l-18.68,48.38c-.07,3.91,6.44,4.66,7.57.58l33.37-87.63c9.26-14.96,33.41-12.24,30.62,5.61-1.37,8.76-9.78,26.37-13.03,35.97-18.01,53.1-34.77,106.64-52.79,159.73Z"/>
    <path class="cls-12" d="M685.75,594.74c1.82-1.83.9-4.67-.75-6.24l-51.96-52.07c4.9-7.94,16.27-6.6,22.9-1.87l52.54,51.46c4.43,37.91,11,75.65,21.45,112.36l-110.96,32.21-45.74-144.38c-.61-8.93,3.77-20.34,13.51-21.97,18.53-3.12,21.14,14.64,25.53,27.99,2.04,6.2,11.81,45.32,13.86,46.63.72.46,3.3.3,4.22-.01,5.27-1.78-3.88-16.14-1.85-19.85l54.16,49.33c11.29,23.59,36.9.97,34.25-17.75-.8-5.65-9.14-12.47-13.38-16.61-34.73-33.91-74.77-66.07-107.92-101.08-3.56-3.76-6.54-6.33-1.56-10.36,4.46-3.6,10.42-3.38,14.89.02,24.33,23.95,48.4,48.32,72.55,72.52,1.09,1.21,3.23.69,4.26-.35Z"/>
    <path class="cls-11" d="M464,423l6.95-1.97c.42,9.94,4.71,4.12,7.91,6.11,2.44,1.52.14,8.29.14,10.36,0,2.83,1.87,5.45.82,8.81-.75,2.41-4.34,2.81-5.3,4.7-.2.4-2.5,8.07-2.5,8.51.02,3.28,4.42,2.94,5.91,5.06,3.36,4.79,4.42,21.92,4.11,27.95-.23,4.5-2.52,11.25-2.05,15.96.06.64,4.62,11.24,4.99,11.78.71,1.03,2.69,1.29,2.99,2.33.56,1.92-2.45,3.7-2.01,6.84.4,2.88,4.08,3.34,4.15,7.08.04,2.25-4.02,2.22-4.9,5.2-.81,2.76.4,6.19-.19,8.59-.27,1.11-2.81,1.28-3.58,2.68-1.27,2.34.85,4.45.4,6.32-.36,1.51-3.34,3.02-3.7,5.43-.34,2.25,2.3,5.44,1.9,9.78-.33,3.53-3.29,5.48-3.08,7.92.18,2.07,2.91,3.55,2.94,6.05s-2.58,4.91-1.77,7.81c.65,2.35,4.7,3.47,4.57,9.44-.04,1.94-1.92,3.68-1.71,4.76.52,2.74,5.28-.13,7.37.6,2.26.79,1.16,4.51,2.56,5.49,1.57,1.1,9.42-.79,6.61,4.46-.59,1.11-6.87,3.23-1.86,4.79,9.7,3.01,5.12-6.46,12.33-6.82-.05,12.32.04,24.68,0,37h-38c5.06-11.98,16.59-22.52,9.82-36.32-4.17-8.5-14.65-12.54-23.17-7.53-2.82,1.66-5.01,4.95-7.64,6.85,5.39-17.58,11.08-35.09,16.97-52.51,3.34-9.89,12.21-27.26,10.93-36.9-.88-6.59-7.74-14.48-13.91-16.58,3.39-5.74,1.27-4.47-.46-8.09-.58-1.21-.28-2.95-.76-3.69-.26-.39-7.45-3.72-8.49-4.01-1.87-.53-3.97.16-5.61-.23-.79-.19-.64-1.94-1.3-2.04-2.03-.3-4.7,1.9-6.94,1.99-2.12.09-4.24-1.13-6.87-.98-3.37.19-7.85,2.06-11.07,2.04-3.79-.02-6-2.93-8.98-3.09-6.84-.37-17.15,1.45-23.95,2.14-8.19.83-18.1-1.42-27.06-1.06-2.51.1-4.47,1.64-6.8,1.68-4.36.07-7.4-2.9-10.43-3.45-2.27-.41-4.24,1.39-7.19-.8-3.99-2.96-4.97-6.86-5.08-11.43,3.47,4.61,6.8,5.55,12.46,6.04l116.98-.09c10.45-1.65,9.01-17.23,1.56-18.94,2.26-3.34-1.84-5.52-.91-8.34.71-2.16,7.46-2.88,3.98-7.99-1.08-1.59-7.38-2.53-9.54-2.71-12.25-1-27.45,1.8-40.04,1.83s-24.94-1.9-37-1.88c-8.18.01-19.63,2.32-27.87,1.76-1.39-.09-19.89-7.35-20.66-8.14-.52-.53-3.22-10.85-2.77-11.39.36-.42,1.67,0,1.8-.15.24,3.75,3.49,8.77,7.45,9.05l126.53-.57c6.59-4.6,6.46-12.86.02-17.48Z"/>
    <path class="cls-9" d="M441,517c-6.41,6.1-9.41,10.9-13,19l-86.52.02c-5.43-.65-8.55-3.68-9.48-9.02.18-.29-.13-2.68.48-3.98,2.83-6.07,4.2-6.39,11.04-7.01,23.98-2.15,63.6-1.48,88.02-.06,3.17.18,6.21,1.53,9.46,1.04Z"/>
    <path class="cls-1" d="M733,369c5.21.66,5.73,8.2,6.04,12.46v279.08c.63,3.79-3.89,10.9-7.53,11.49-2.17.35-1.22-.49-1.6-1.44-.41-1-2.13-6.31-1.92-6.58s5-.51,5-3.51v-291.5Z"/>
    <path class="cls-5" d="M425.01,691.99c4.91-18.52,11.63-36.67,17.57-54.92,5.41-4.25,15.12-20.06,21.9-20.11,7.24-.06,11.68,7.68,10.3,14.31-.91,4.37-12.27,24.18-15.36,28.64-6.28,9.06-17.3,15.86-24.4,24.6l-10.01,7.48Z"/>
    <path class="cls-11" d="M332,527c.93,5.35,4.05,8.38,9.48,9.02l86.52-.02-8.01,24c-8.2-2-13.44-4.33-21.98-1.49-2.34.78-7.24,4.48-8.5,4.47-1.75-.01-6.33-3.73-7.51-3.98-.57-2.9,1.56-2.15,3.45-1.99,1.45.12,6.85,1.69,7.54.98,1.58-1.6-2.92-6.78-4.28-7.73-.62-.43-12.58-5.92-13.33-6.01-2.09-.24-5.91,1.76-8.89,1.82-7.22.14-22.78-1.72-29.21-4.86-3.97-1.94-8.45-9.19-7.32-13.55.28-1.07,1.98-.58,2.04-.67Z"/>
    <path class="cls-10" d="M587.69,536.16l112.88,106.87c-5.56,5.42-6.37,3.91-11.58-.51-22.22-18.87-45-42.27-66.51-62.49-8.86-8.33-15.85-15.03-24.97-23.03-5.13-4.49-9.19-10.22-15.05-13.95-3.87-3.4,2.57-5.61,5.24-6.89Z"/>
    <path class="cls-1" d="M291,474v187.5c0,.64,8.22,4.22,1.42,10.47-2.74.8-7.42-5.49-7.42-7.47v-190.5h6Z"/>
    <path class="cls-9" d="M593,672h-134c3-3.38,5.05-9.34,10.44-9.06l119.07.05c3.17.61,3.55,6.13,4.49,9.01Z"/>
    <path class="cls-10" d="M617,586.01c.42-.39,2.91.1,3.54.95l68.53,64.52c2.16,1.09-3.19,8.66-4.07,9.05l-9.02-7.02-52.42-48.58c-.17-2.56-7.29-18.24-6.56-18.93Z"/>
    <path class="cls-10" d="M581,531.99c-8.63,2.65-11.74,11.36-14.49,19.01l-10.5-27.99c6.86,2.47,17.02,3.98,23.29,7.2.61.32,2.12,1.18,1.71,1.78Z"/>
    <path class="cls-10" d="M708.87,648.13c3.94,2.47-1.3,15.13-4.03,18.21-5.37,6.08-16.71,8.77-13.6-2.61,1.04-3.82,13.19-18.39,17.63-15.61Z"/>
    <path class="cls-11" d="M508,397c-.1,14.65.03,29.35,0,44-2.95.1-2.5-1.46-3.07-3.43-.77-2.67-1-11.81-1.01-15.05-.02-7.55,1.56-6.56.13-15.07-.59-3.51-1.02-10.14,3.95-10.45Z"/>
    <path class="cls-10" d="M587,557.99c-4.13-1.22-15.3,8.5-14.97-.36.04-1.08,2.54-10.31,2.99-10.63.89-.62,2.6.34,3.53.94,1.17.76,9.42,9.12,8.44,10.04Z"/>
    <path class="cls-1" d="M291,368v23h-6v-15.5c0-.43,3.68-7.23,4.02-7.49.22-.17,1.37.07,1.98,0Z"/>
    <path class="cls-11" d="M342,572c-.69-5.07,4.74-3.83,8.22-5.28,4.55-1.9,7.3-4.85,11.06-6.94,1.89-1.05,3.09-1.71,2.72,1.22-3.73,1.86-8.87,8.53-11.02,9.48s-7.66.81-10.98,1.52Z"/>
    <path class="cls-11" d="M508,492c0,6.32,0,12.68,0,19-6.5-1.17-3.03-5.82-2.99-9.5.04-3.19-3.13-8.32,2.99-9.5Z"/>
    <path class="cls-11" d="M508,478c0,3.66,0,7.34,0,11-5.45-.67-5.45-10.33,0-11Z"/>
    <path class="cls-11" d="M508,466c0,3.33,0,6.67,0,10-5.19-.72-5.8-9.52,0-10Z"/>
    <path class="cls-11" d="M508,594c0,2.66,0,5.34,0,8-5.43-.7-5.48-7.27,0-8Z"/>
    <path class="cls-11" d="M449,513l-5,2c.27-.27-.06-2.42,1.59-2.93,2.6-.82,3.24.93,3.41.93Z"/>
    <path class="cls-11" d="M508,449c0,1.67,0,3.33,0,5-3.27,1-2.95-6.27,0-5Z"/>
    <path class="cls-11" d="M367,560c-.1-3.51,4.71-4.63,4-1-1.19.13-2.8.64-4,1Z"/>
    <path class="cls-11" d="M508,546c0,1,0,2,0,3-3.18.78-2.98-3.88,0-3Z"/>
    <path class="cls-11" d="M508,579c0,1,0,2,0,3-3.18.78-2.98-3.88,0-3Z"/>
    <path class="cls-11" d="M334,574c-.47.21-1.23.65-2,1-.31-2.36.27-2.71,2-1Z"/>
    <path class="cls-11" d="M508,613c0,.67,0,1.33,0,2-3.13.55-2.97-2.61,0-2Z"/>
    <path class="cls-11" d="M454,512c-.55-3.13,2.61-2.97,2,0-.67-.02-1.33.02-2,0Z"/>
    <path class="cls-5" d="M424.5,693c.65.33.65.67,0,1v-1Z"/>
    <path class="cls-5" d="M532,252c1.33,1.32-2.98,11.09,3.5,11.09,6.48,0,2.17-9.77,3.49-11.1.5-.49,13.51-.49,14.01,0,1.49,1.48-3.56,11.79,4.46,11.02,5.79-.56,2.68-10.17,3.53-11.02.46-.46,12.55-.46,13.01,0,1.49,1.48-3.56,11.79,4.46,11.02,5.79-.56,2.68-10.17,3.53-11.02.5-.49,13.51-.49,14.01,0,1.33,1.32-2.99,11.1,3.49,11.1,6.59,0,1.84-10.78,4.08-11.11,2.05.38,12.95-.46,13.43.01,1.33,1.32-2.99,11.1,3.49,11.1s2.17-9.77,3.49-11.1c.5-.49,13.51-.49,14.01,0,1.33,1.32-2.99,11.1,3.49,11.1,6.48,0,2.17-9.77,3.49-11.1.5-.49,13.51-.49,14.01,0,1.55,1.55-3.67,11.59,4.49,11.05,4.7-.32,1.49-10.04,2.5-11.05.5-.49,13.51-.49,14.01,0,1.33,1.32-2.99,11.1,3.49,11.1,6.48,0,2.17-9.77,3.49-11.1.5-.49,13.51-.49,14.01,0,1.33,1.32-2.99,11.1,3.49,11.1,6.48,0,2.17-9.77,3.49-11.1.5-.49,13.51-.49,14.01,0,.84.83-2.42,11.66,4.44,11.05,5.77-.52,2.72-10.23,3.55-11.05.46-.46,12.55-.46,13.01,0,.83.83-1.66,9.78,1.63,10.89,8.4,2.82,4.61-10.88,5.37-10.88h22v59h-9v-20.5c0-3.19-7-2.12-7,0v20.5h-15v-20.5c0-2.04-7-2.04-7,0v20.5h-13v-20.5c0-1.73-8-3.05-8,1v19.5h-14v-20.5c0-2.04-7-2.04-7,0v20.5h-14v-20.5c0-2.49-8-2.08-8,2v18.5h-13v-20.5c0-2.04-7-2.04-7,0v20.5h-14v-20.5c0-2.59-8-1.53-8,1v19.5h-13v-20.5c0-1.73-8-3.05-8,1v19.5h-13v-20.5c0-2.04-7-2.04-7,0v20.5h-15v-20.5c0-1.73-8-3.05-8,1v19.5h-13v-20.5c0-2.59-8-1.53-8,1v19.5h-13v-20.5c0-3.13-8-2.21-8,1v19.5h-12v-59c3.02.58,21.22-.78,22,0Z"/>
    <path class="cls-6" d="M260,538v67.5c0,.11-1.39,1.5-1.5,1.5h-69.5v-69h71Z"/>
    <path class="cls-2" d="M429,211v69h-69.5c-.11,0-1.5-1.39-1.5-1.5v-67.5h71Z"/>
    <path class="cls-10" d="M795.26,360.75c-5.06-5.34,3.61-15.23,9.2-8.71,5.87,6.86-3.5,14.73-9.2,8.71Z"/>
    <path class="cls-10" d="M590.29,197.3c8.78-7.12,16.2,11.98,3.19,10.78-5.44-.5-7.26-7.48-3.19-10.78Z"/>
    <path class="cls-10" d="M285.74,298.16c10.4-1.89,8.77,15.95-1.51,11.1-4.98-2.35-3.8-10.13,1.51-11.1Z"/>
    <path class="cls-10" d="M776.7,519.2c11.1-3.33,12.38,12.96.84,10.78-5.06-.96-4.78-9.6-.84-10.78Z"/>
    <path class="cls-4" d="M504.72,739.19c11.91-2.62,15.41,14.5,6.33,17.35-14.04,4.41-17.48-14.9-6.33-17.35ZM505.74,742.16c-7.58,1.38-5.46,14.31,3.54,11.64,6.37-1.89,4.17-13.04-3.54-11.64Z"/>
    <path class="cls-9" d="M463,469c7.45,1.72,8.89,17.29-1.56,18.94l-116.98.09c-5.67-.48-9-1.42-12.46-6.04-.16-7.05.45-12.76,8.59-13.91,24.6-3.47,56.56,2.44,81.95-.14,7.88.67,16.02.85,23.92,1.09,4.51.14,12.81-.91,16.54-.05Z"/>
    <path class="cls-9" d="M375,422c1.67-.01,3.33,0,5,0,27.32-.13,54.68.1,82,0,.62.38,1.42.58,2,1,6.44,4.61,6.56,12.87-.02,17.48l-126.53.57c-3.96-.28-7.21-5.3-7.45-9.05,1.46-1.55,1.53-8.8,8-10,8.59-1.6,27.12.06,37,0Z"/>
    <path class="cls-11" d="M380,422c-.67-2.45,2.34-2.08,2.85-3.62s-.14-5.08.15-5.38,6.66-.4,7.99-1c.67.64-5.43,7.37,1.41,6.99,5.12-.28,4.13-4.52,4.61-5,.85-.86,5.49,2.38,6.77,2.73,6.35,1.72,3.64-2.66,6.2-4.28,2.2-1.4,4.88,1.05,7.29.42s3.53-5.96,7.32-2.94c1.35,1.07.99,3.94,2.9,3.07,1.03-.47,1.05-2.73,2.21-3.02,2.44-.6,12.91-.62,12.22,3.39-.24,1.41-3.56,2.36-2.92,4.63h6.99c.41-.37-4.96-9.54,1.34-7.84,5.44,1.47.65,4.75.15,5.85-1.51,3.29,5.14,1.11,6.03,1.19,2.72.25,8.44,1.17,8.49,4.81-27.32.1-54.68-.13-82,0Z"/>
    <path class="cls-11" d="M338,422c.31-2.42,3.68-4.62,5.53-6.01.99-.75,6.09-4.14,6.96-4.06,5.36.51-.83,5.85.51,7.07,2.87-.63,5.77.95,8.39.9,4.43-.09,13.6-4.61,15.61,2.1-9.88.06-28.41-1.6-37,0Z"/>
    <rect class="cls-11" x="379.01" y="411.01" width="2.99" height="1.99"/>
    <path class="cls-10" d="M505.74,742.16c7.71-1.4,9.92,9.75,3.54,11.64-9,2.67-11.12-10.26-3.54-11.64Z"/>
  </g>
</svg>