<?xml version="1.0" encoding="UTF-8"?>
<svg xmlns="http://www.w3.org/2000/svg" viewBox="0 0 1024 1024">
  <defs>
    <style>
      .cls-1 {
        fill: #f3f4f5;
      }

      .cls-2 {
        fill: #404142;
      }

      .cls-3 {
        fill: #abacad;
      }

      .cls-4 {
        fill: #7f7373;
      }

      .cls-5 {
        fill: #fcfcfd;
      }

      .cls-6 {
        fill: #fff;
        opacity: .5;
      }

      .cls-7 {
        fill: #313232;
      }

      .cls-8 {
        fill: #ddd;
      }

      .cls-9 {
        fill: #e2e9dc;
      }

      .cls-10 {
        fill: #f8f9fa;
      }

      .cls-11 {
        fill: #323332;
      }

      .cls-12 {
        fill: #fefefe;
      }

      .cls-13 {
        fill: #58595a;
      }

      .cls-14 {
        fill: #2a2b2b;
      }

      .cls-15 {
        fill: #b5b6b8;
      }

      .cls-16 {
        fill: #b1b2b3;
      }

      .cls-17 {
        fill: #7b7b7b;
      }
    </style>
  </defs>
  <g id="_검은색_배경" data-name="검은색 배경">
    <rect class="cls-4" x="0" y="0" width="1024" height="1024"/>
  </g>
  <g id="_레이어_1" data-name="레이어 1">
    <path class="cls-6" d="M618.95,225.18c-18.91-.14-37.86-.06-56.78.2-5.01.91-11.04,7.04-11.95,11.98-.05.28.06.59,0,.87-2.73,2.05-4.63,5.85-6.45,8.77-21.95,35.27-42.57,71.38-65.03,106.34-3.08,5.09-4.71,11.13-.72,16.24-4.41,1.25-4.82,7.08-2.13,10.39,4.98,6.12,11.4,9.31,19.06,11.38,8.18,2.22,19.93,1.75,28.69,1.75s16.96-.87,25.23-.95c14.69-.14,35.98,1.9,49.66.08,2.2-.29,3.4-1.93,5.61-1.78.09,18.25-.02,36.55,0,54.8-4.4-.44-6.25,4.37-8.49,6.11-16.54,12.83-29.51,19.44-49.61,24.96-2.61.72-7.81,3.53-9.39,3.73-1.85.23-5.16-.86-7.77-.9-1.65-.02-3.54-.77-3.03,1.77-22.88-.8-46.61.05-69.59,0,.48-2.65-1.34-1.65-3.01-1.74-37.9-1.94-77.85-39.38-96.9-70.16-20.14-32.54-19.58-59-21.01-95.99-.02-.58.03-1.16,0-1.74,2.62.94,2.34-3.69.87-5.22,15.05-83.56,84.56-143.15,170.97-138.35,38.57,2.14,85.22,23.57,110.04,53.5,1.07,1.29,2.03,1.97,1.71,3.95Z"/>
    <path class="cls-11" d="M618.95,225.18c9.53.07,21.82-1.02,30.9-.03,1.34.15,4.74,1.18,5.86,1.79.99.54.57,1.66.64,1.71l-3.49,13.43c2.17,2.48,1.23,5.32,1.93,7.7.44,1.49,2.61,2.46,3.12,4.71.58,2.54-.12,5.1.75,7.95s6.92,8.95,8.85,12.03c2.97,4.72,5.31,12.62,9.68,16.42,2.37,2.05,6.32.57,6.95,2.66.69,2.26-2.59,4.33-2.59,6.02s2.39,2.39,2.66,4.37c.32,2.34-2.06,6.12-.52,8.28,1.63,2.29,13.88,1.37,18.08,8.89.45.8,2.79,5.69,3.09,6.48.83,2.22-.38,7.81,4.12,7.22.22-.03.77-2.92,3.04-1.76,1.74,6.23-3.43,4.26-4.31,5.26-.55.63,1.08,5.55.92,7.37-.24,2.82-2.4,3.26-2.72,5.25-.37,2.33,1.09,4.37.75,6.69-.91,6.1-4.55,3.58-8.9,4.23-2.07.31-4.39,1.52-6.26,1.57-1.03.03-9.76-.74-10.25-.91-1.22-.41-3.21-5.77-3.15-7.21.23-5,4.87-3.67,5.21-3.99.09-.09.09-2.51,0-2.6-.21-.21-2.81.22-3.87-.03-1.3-.31-2.49-1.72-3.38-1.58-.67.1-3.76,2.54-5.01,3.02,1.1,3.39,1.39,6.73,2.05,10.09.32,1.61,2.86,3.01.39,5.66-2.93,3.15-7.26,1-10.63,1.01-9.54.02-18.91-1.03-27.91-2.46-4.32-.69-22.77-4.03-24.7.39-.87,2.39,1.56,1.96,1.71,2.74.24,1.2-.24,4.39,0,4.65.86.9,13.73-.69,16.1-.7,14.69-.06,34.6,2.59,48.76.74,2.99-.39,3.62-2.7,5.17-2.67l2.18,2.62c-.97-3.23,2.11-3.17,4.75-2.67,1.05.2-.09,2.52.95,2.73,5.36,1.05,16.32-.31,22.62-.06,1.67.07,3.49-.89,3.01,1.74-22.6,0-45.25-.07-67.85,0-11.88.04-23.79-.02-35.67,0-.04,2.6.06,5.23,0,7.83-.07,3.18.02,6.39,0,9.57-.07,13.9.02,27.85,0,41.75-.1,82.34.07,164.71,0,247.05h42.19c1.32,0,1.12,3.48,1.3,3.48h14.79l-8.27-6.95c-20.68-24.74,3.3-61.85,34.61-51.14,21.38,7.31,28.49,34.42,13.65,51.55l-7.81,6.55h56.98c1.67,0,2.94,3.99,3.1,5.6.91,9.13,1.03,31.99-.03,40.96-.17,1.45-1.72,5.63-3.06,5.63h-37.84c.36,38.54-.49,77.16,0,115.7l-6.08-1.74c-.07,1.88.08,3.8,0,5.69-.07,1.67.9,3.49-1.74,3,.46-7.55-.04-15.83,0-23.49.09-17.67.03-35.39,0-53.06-.03-15.35.02-30.75,0-46.1h-27.84c-.02,15.06.03,30.17,0,45.23-.04,21.44-.1,42.93,0,64.37.01,2.37-.88,4.91-.87,6.09-3.54,1.15-3.36-1.51-4.38-2.14-1.12-.68-2.16-.28-2.57-.47-.16-.08-.85-.77-.87-.87-.89-4.02.8-8.69.91-12.58.47-17.78,0-35.75-.04-53.53-.03-15.35.02-30.75,0-46.1h-316.21c-4.15,0-9.3-1.34-14.35-.87-.19-1.95-.42-2.49,1.68-3.07,6.02-1.68,14.35-.78,20.55-1.27,2.67-.21,2.24.43,2.13-2.61,127.4.08,254.83-.07,382.23.02.95.1.43-1.13.52-1.76.15-1.04-.03-2.36,0-3.48.19-6.05.05-12.22,0-18.27,0-.29,0-.58,0-.87-.04-4.05.03-8.13,0-12.18h-487.14c-.03,3.76.04,7.55,0,11.31-.08,7.01-.42,14.83,0,21.75.07,1.15-.06,2.33,0,3.48,9.56.02,19.16-.04,28.71,0,.41,2.16,1.06,4.91,1.74,6.96-1.45.99-3.09.85-4.74.91-8.35.29-19.77.68-27.92,0-4.86-.4-5.25-.83-5.65-5.65s-.69-42.92.47-44.84c.24-.39,2.36-1.74,2.61-1.74h24.79c.23-.64-.87-1.04-.87-1.3v-27.84c0-.57,5.12-3.91,5.65-3.91h23.92c-1.33-1.99-4.35-6.95-4.35-9.13v-21.75c0-2.24,2.4-6.94,3.48-9.13,1.78-.08,4.08.93,3.49-1.74-3.7,1.1-3.33-1.48-4.34-2.15-.69-.46-13.86.24-16.13.4-2.48.17-.91,2.15-1.28,3.49-3.18-.2-9.09-.08-10.26-4.1-.74-2.55-.81-15.04,2.86-15.04h251.83v-29.14c0-.09-1.21-1.3-1.3-1.3h-250.53c-3.83,0-4.04-13.8-1.81-16.6.4-.5,3.24-2.54,3.55-2.54h34.36v-17.4c0-.23-3.32.12-4.58-.2-11.2-2.84-11.05-18-10.19-27.19.89-9.48,5.34-15.17,15.17-16.14,34.08.05,68.18.06,102.25.04,9.27,0,18.57-.02,27.84,0,22.98.05,46.71-.8,69.59,0,5.24.18,12.56-.03,16.53,4.35,5.93,6.55,2.6,22.96,3.48,31.32h17.83c1.02,0,4.83,3.74,5.52,4.92,2.43,4.12,2.74,16.55,1.07,20.81-.63,1.59-5.23,6.46-6.59,6.46h-14.35v57.85c0,.97-4.14,2.44-4.35,3.91h30.45c.32,0-1.35-4.45,3.05-4.43,2.79.01,4.31,2.36,4.73,4.92,1.3,7.97.96,35.79.1,44.36-.29,2.85-1.26,5.44-4.71,5.38-3.94-.06-2.8-5.87-3.17-5.87h-24.79c-.32,0-.72-1.41-1.29-.44.2.37.85.66.85.88v26.1c0,.27-1.19,1.24-.87,2.17h13.92c.19,0-.01-3.48,1.3-3.48h39.58c-.07-76.54.1-153.12,0-229.65,0-1.74,0-3.48,0-5.22-.02-18.25.09-36.55,0-54.8-.01-2.89.05-5.81,0-8.7-.05-2.89.04-5.81,0-8.7-2.6-.03-5.23.05-7.83,0-6.65-.13-13.36-.02-20.01,0-18.83.06-38.08-.06-56.54,0-.48-2.64,1.33-1.67,3.01-1.74,24.17-.95,48.6,1.32,72.67-.87.37-1.68-.51-1.67-1.53-2.37-2.86-1.96-16.27-9.03-19.1-9.6-6.62-1.35-15.75,4.41-17.84,3.98-1.77-.37-5.48-3.22-7.6-3.78-3.08-.82-8.69-.31-11.34-2.57-1.63-1.39-.53-4.45-.87-4.79-.15-.15-3.97-.14-4.25.1-1.09.92.95,5.88-4.69,4.07-2.64-.85-2.5-3.6-2.36-5.92-4.3.76-6.19,2.26-10.37-.5-5.68-3.75-1.02-6.78.61-9.69.66-1.17.89-4.26,1.17-4.49.7-.57,4.89.39,6.06-1.55.81-1.34.5-3.41,1.01-4.86.46-1.29,2.03-2.02,2.19-2.92.23-1.26-1.54-3.11.17-4.3.59-.41,8.59.32,9.99.52,2.07.3,3.56,2.23,5.94,1.57,4.54-1.26.63-7.27,1.54-8.52,1.85-.83,3.29-.61,5.17-.06.48-5.61-6.59-5.34-7.66-6.24-.34-.29-3.53-7.71-3.61-8.15-.71-3.93,1.53-11.04,4.29-13.9,1.34-1.39,3.2-1.59,4.31-2.65,6.18-5.83,3.89-15.2,8.35-19.49,1.86-1.79,6.12-1.33,6.99-2.58,1.16-1.68-.58-5.76,1.69-8.74,1.88-2.47,4.67-1.74,6.48-3.09,1.58-1.18,1.71-4.68,4.09-5.5,2.69-.93,1.94,1.45,2.88,2.09,2.17,1.47,4.83-1.45,6.78-1.97,7.86-2.1,12.68-.05,7.58-11.54-1.63-.32-5.55,6.01-9.56,6.15-2.38.09-1.08-2.6-2.74-3.63-3.35-2.07-7.92-.32-10.11-.91-1.42-.38-2.11-2.36-3.25-2.91-4.34-2.06-4.63,1.7-7.91,3.36-2,1.02-5.44,1.86-7.74,2.27.91-4.94,6.94-11.06,11.95-11.98,18.91-.26,37.87-.35,56.78-.2ZM608.28,231.55c-2.39-1.11-8.64.14-9.15,2.86-.06.33.52,6.15.64,6.71.07.32,4.88,2.97,5.64,3.24,10.41,3.71,16.44-10.37,11.2-12.12-2.09-.7-4.65.94-6.83.86-1.52-.06-1.22-1.43-1.5-1.56ZM631.12,240.84c-.4-.53-3.79-.76-4.68-.07-4.79,3.71,7.1,3.29,4.68.07ZM589.37,284.33c-.29-.28-3.75.19-4.78,0-2.03,6.44,7.46,2.6,4.78,0ZM599.8,293.9c-2.28,1.57-3.55-2.56-4.32-3.08-2.33-1.55-3.22,1.37-5,2.02-1.35.49-8.97,1.78-9.74,2.87.48,5.47,4.63,13.28,11.57,11.3.87-.25.67-4.49,3.57-4.45s1.38,4.53,3.47,3.52c1.09-.53,7.43-8.31,7.38-10.01-.02-.55-2.83-5.6-3.14-5.69-4.2-1.17-3.19,3.09-3.8,3.52ZM626.46,295.69c-3.04.91-2.31,7.81.74,7.82,4.6.02,3.69-9.15-.74-7.82ZM669.4,319.99c.89-.87-1.7-3.49-2.6-2.6s1.7,3.49,2.6,2.6ZM678.1,317.39c-7.71-.58-4.8,2.48-5.67,6.06-.6,2.45-4.38,3.54-4.65,4.92-.22,1.1,3.45,12.9,7.49,8.8,2.7-2.74-.63-4.78-.67-6.32-.04-1.61,2.17-2.35,2.52-3.65.4-1.49-.69-2.92-.51-4.05.27-1.7,2.2-3.48,1.49-5.76ZM542.54,331.46c-.21.13-1.85,3.97-1.75,4.51,1.03,5.92,12.59-1,7.74-4.27-.85-.57-5.18-.74-5.99-.24ZM551.09,340.88c-1.49-1.31-3.91,1.13-2.6,2.6.83.93,3.53-1.78,2.6-2.6ZM618.63,341.79c-1.38.41-1.85,3.67-3.77,4.2-2.74.75-5.88-3.25-6.88,2.7-1.19,7.06,15,2.17,15.37-2.2.18-2.13-2.63-5.32-4.72-4.69ZM679.84,342.62c-1.38-1.38-3.98,1.22-2.6,2.6s3.98-1.22,2.6-2.6ZM648.52,349.58h-2.6s0,3.47,0,3.47h1.29c1.37-.92,1.52-1.87,1.31-3.47ZM665.05,352.17c1.68-2.33-4.83-3.22-6.08-2.6-1.53,4.25,5.17,3.86,6.08,2.6ZM513.69,515.72c1.26-.01,2.99.93,4.74.91,5.14-.06,18.34,1.86,19.59-4.84.67-3.59.56-18.33-1.7-20.88-3.11-3.5-15.03-2.09-20.03-2.16-64.2-.86-128.82.1-192.89.66-6.6,2.2-5.67,22.33-2.44,25.47.94.92,2.27,1.45,3.57,1.65,63.03.51,126.32-.12,189.15-.82ZM471.07,524.42c-44.79-.06-89.6.04-134.4,0-4.22.78-5.29,16.74.93,16.47l220.06.09c7.54-.16,4.67-3.51,4.75-7.86.05-2.57,2.8-3.29-.87-6.96-.82-.82-.94-2.09-2.99-1.79-29.16.06-58.34.08-87.48.05ZM541.53,549.65h-247.92v4.35h247.92v-4.35ZM541.53,598.36h-247.92v5.22h247.92v-5.22ZM538.92,617.5c2.06-8.33-2.36-5.09-6.52-5.39-5.51-.4-12.19-4.02-14.83-4.15-1.65-.09-3.2,1.18-4.98.73-2.14-.54-2.82-3.69-3.42-4.04-1.41-.81-29.28-.68-32.5-.26-1.61.21-1.14,1.63-1.84,1.79-3.42.83-4.89-1.39-7.62-1.77-18.7-2.6-51.09.27-70.47.87-16.74.52-34.95,2.53-51.37,2.73-4.07.05-13.93-3.69-15.22,1.66h33.06c-.1,1.77-2.73.31-4.34,1.32-1.05.66-4.57,4.84-4.36,6.51-7.53.03-15.09-.02-22.62,0-.15,1.98.22,4.14,0,6.09-.46,4.2-2.55,14.13,3,14.83,11.57,1.47,25.03-.82,36.54-.95,68.28-.78,136.63.67,204.91.05v-6.09h-210.52c-.47-1.2-1.06-4.86.58-5.26l209.43.05c.97-.15.44-2.5.51-3.5.11-1.72-.07-3.5,0-5.22-12.46-.02-24.95.04-37.41,0ZM328.84,649.68h247.48v-5.22h-246.61c-2.3,0-4.54-4.24-4.8-6.51-.5-4.3-.6-17.63.06-21.72.43-2.63,2.87-3.81,2.56-6.56-2.01-.23-4.49,1-5.72,2.54-2.92,3.66-2.76,23.88-1.72,28.82.87,4.16,4.56,7.95,8.75,8.65ZM684.85,631.65c-30.72,1.27-30.44,51.88,5.77,47.52,27.79-3.35,25.03-48.79-5.77-47.52ZM441.49,658.38c-47.96-.07-95.95-.02-143.92.08-6.25.13-5.98,19.82.88,19.87l240.05.07c6.35-.15,4.83-5.65,4.77-10.45-.05-4.21,1.46-8.92-3.97-9.51-32.6-.14-65.22-.01-97.8-.06Z"/>
    <path class="cls-14" d="M371.9,727.98c.11,3.04.54,2.4-2.13,2.61-6.2.49-14.52-.4-20.55,1.27-2.1.58-1.86,1.12-1.68,3.07-.29.03-.59-.04-.87,0-1.5-1.66-4.21-1.46-3.48.87-.03,15.35.04,30.75,0,46.1-.07,26.66.05,53.37,0,80.03,10,.07,20.04-.09,30.05-.04,42.48.22,85.27.88,127.4.91-3.88,5.77-8.7,1.29-13.25,1.91-1.27.17-5.86,1.28-5.02,3.31h109.61c.46-2.5-.68-1.4-1.9-1.97-1.15-.54-3.32-1.61-4.39-1.82-2.55-.51-7.93,2.02-7.63-1.43,10.27-.04,21.34-.81,31.76-.9,1.66-.01,3.54-.78,3.03,1.77-1.32.19-3.01,1.45-4.85,1.67-3.62.44-7.47.27-11.23.97-1.43.27-1.49-.57-1.31,1.71h41.75c.45-4.29-9.24-1.05-7.83-6.09,16.22-.11,32.49.08,48.72,0v-13.05c.41.19,1.45-.21,2.57.47,1.03.63.84,3.29,4.38,2.14.01,1.69.72,5.38.87,7.83.05.87-.06,1.75,0,2.61.57.07,1.17-.07,1.74,0,8.12.93,17.79-.69,26.1,0,.06-1.15-.07-2.33,0-3.48,2.64.48,1.67-1.33,1.74-3,.08-1.89-.07-3.81,0-5.69l6.08,1.74c.04,3.47-.03,6.97,0,10.44,2.02-.06,4.08.08,6.09,0,.57,1.37,3.78,1.37,4.35,0,1.74,0,3.48,0,5.22,0,.12,1.31,2.49,1.31,2.61,0,2.89.02,5.81-.02,8.7,0,.36,1.35,3.2,1.3,3.48,0,9.84.06,19.73-.1,29.58,0l-8.43,4.15-1.14,1.93,11.3.87c-.81.33-1.59,1.33-2.94.93l-520.74-.49c-2.77-1.35-1.97-7.4-.43-7.4h40.45c.03-4.34-.04-8.71,0-13.05.19-22.59.11-45.26,0-67.85-.06-12.68,1.59-31.31.05-43.13-.34-2.63-1.73-2.8-1.79-2.98-.67-2.05-1.33-4.8-1.74-6.96,25.21.1,50.47-.02,75.68,0ZM307.53,781.04c-.05,23.46-.29,47.01,0,70.46.04,3.47-.03,6.97,0,10.44,7.27-1.23,20.51,1.64,26.97,0,1.15-.29.79-.89.87-1.74.14-1.4-.05-2.92,0-4.35.79-24.59.05-50.12,0-74.81-.03-15.06.02-30.17,0-45.23h-27.84c-.02,15.06.03,30.17,0,45.23ZM371.03,868.03h40.02c.4-2.5-.52-1.44-2.01-1.86-9.2-2.55-16.89-.8-25.39-.68-4.43.06-6.67-2.11-11.49.6-.99.56-1.47-.06-1.11,1.94ZM424.09,866.3c-1.29-1.35-6.63-.8-8.56-.26-1.53.43-2.26-.29-1.88,1.98,2.92-.25,6.31.37,9.14,0,1.21-.15,2.51-.46,1.29-1.73ZM464.98,868.03c-.56-4.89-8.09-1.81-11.7-1.7-6.24.19-12.46-.82-18.23-.83-1.12,0-4.84.43-4,2.53h33.93ZM479.76,866.3c-.92-.96-11.21-2.15-10.43,1.72,2.92-.25,6.31.37,9.14,0,1.21-.15,2.5-.46,1.29-1.73ZM662.44,866.3c-.57-.54-9.65-2.35-8.7,1.73.51-.07,11.38.82,8.7-1.73ZM742.47,868.02c.74-3.99-7.82-2.63-8.69-1.72-2.52,2.62,8,1.59,8.69,1.72ZM365.81,866.29h-5.21v1.73h5.21v-1.73ZM667.66,866.29c-.95-.95-2.68.78-1.73,1.73s2.68-.78,1.73-1.73ZM698.1,866.29h-4.34v1.73h4.34v-1.73Z"/>
    <path class="cls-7" d="M738.99,366.1c-.07.33-2.23,3.97-2.61,4.35-1.13,1.13-2.58,1.17-3.48,1.74.54-3.36-2.33-3.89-4.87-4.26-1.72-.25-15.37.3-16.01.79-3.02,2.3,7.48,2.54,8.29,2.61,2.64.23,2.26-.52,2.14,2.6h-6.96c.48-2.63-1.33-1.67-3.01-1.74-6.3-.25-17.26,1.11-22.62.06-1.05-.2.09-2.53-.95-2.73-2.63-.5-5.72-.56-4.75,2.67l-2.18-2.62c-1.55-.03-2.18,2.28-5.17,2.67-14.16,1.85-34.07-.8-48.76-.74-2.37,0-15.24,1.6-16.1.7-.24-.25.24-3.44,0-4.65-.16-.77-2.58-.34-1.71-2.74,1.93-4.42,20.38-1.07,24.7-.39,9,1.43,18.37,2.47,27.91,2.46,3.37,0,7.7,2.14,10.63-1.01,2.47-2.65-.08-4.05-.39-5.66-.66-3.37-.95-6.71-2.05-10.09,1.25-.48,4.33-2.92,5.01-3.02.89-.14,2.08,1.27,3.38,1.58,1.06.25,3.66-.18,3.87.03.09.09.09,2.51,0,2.6-.34.32-4.98-1.01-5.21,3.99-.07,1.43,1.93,6.79,3.15,7.21.49.17,9.22.94,10.25.91,1.87-.06,4.18-1.26,6.26-1.57,4.34-.65,7.98,1.87,8.9-4.23.35-2.32-1.12-4.36-.75-6.69.32-1.99,2.48-2.43,2.72-5.25.15-1.81-1.48-6.74-.92-7.37.88-1,6.05.97,4.31-5.26-2.27-1.15-2.82,1.74-3.04,1.76-4.49.59-3.29-5-4.12-7.22-.29-.79-2.64-5.68-3.09-6.48-4.2-7.52-16.44-6.59-18.08-8.89-1.54-2.16.84-5.94.52-8.28-.27-1.98-2.66-2.72-2.66-4.37s3.28-3.76,2.59-6.02c-.64-2.1-4.59-.61-6.95-2.66-4.37-3.8-6.71-11.7-9.68-16.42-1.93-3.08-7.98-9.17-8.85-12.03s-.18-5.41-.75-7.95c-.51-2.24-2.68-3.21-3.12-4.71-.7-2.38.23-5.22-1.93-7.7l3.49-13.43c4.25,3.22,4.21,3.38,7.32,7.9,25.82,37.62,47.11,80.58,72.87,118.51,1.72,3.11,3.18,7.48,2.45,11.03Z"/>
    <path class="cls-2" d="M313.18,579.22h220.08c2.65,0,2.65,6.96,0,6.96h-220.08c-2.19,0-3.2-5.9,0-6.96Z"/>
    <path class="cls-7" d="M313.18,567.04h220.08c2.53,0,2.53,6.09,0,6.09h-220.08c-2.02,0-3.11-5.03,0-6.09Z"/>
    <path class="cls-1" d="M335.36,313.04c1.43,37,.87,63.45,21.01,95.99,19.05,30.78,59,68.21,96.9,70.16,1.67.09,3.49-.91,3.01,1.74-9.27-.02-18.57,0-27.84,0l-15.97-8.82c-51.17-31.39-83.8-85.8-79.75-146.49.26-3.89,1.77-8.7,2.64-12.58Z"/>
    <path class="cls-9" d="M736.38,370.45c6.7,9.41-2.59,14.08-11.27,15.26-23.73,3.24-52.55-1.76-76.84.58-8.62,3.4-9.01,9.44-12.79,16.35-3.41,6.23-7.73,13.4-11.8,19.08-2.08,2.91-5.64,7.7-7.9,10.31-1.38,1.59-1.83,1.18-3.78,1.06.02-13.9-.07-27.85,0-41.75,7.75-1,21.11,1.78,28.06-1.08,2.99-1.23,3.76-6.75,8.96-7.57,24.76-1.34,50.69,2.34,74.85-1.7,4.21-.7,6.96,1.78,8.06-4.27.34-1.9-.73-2.48-.75-2.78-.07-.9,1.11-1.34,1.74-1.74.9-.57,2.35-.61,3.48-1.74Z"/>
    <path class="cls-7" d="M297.09,610.54c.37-1.34-1.2-3.32,1.28-3.49,2.27-.16,15.44-.86,16.13-.4,1.01.67.64,3.25,4.34,2.15.59,2.66-1.7,1.65-3.49,1.74-5.63.27-12.68.34-18.27,0Z"/>
    <path class="cls-11" d="M808.47,875.3c7.56-2.16,9.09,7.95,2.99,9.42-6.27,1.51-8.86-7.74-2.99-9.42Z"/>
    <path class="cls-2" d="M235.99,862.15c4.16,4.16-2.42,11.54-7.17,6.73-4.23-4.28,3.06-10.83,7.17-6.73Z"/>
    <path class="cls-2" d="M214.21,861.22c7.27-2.13,9.43,10.37-.19,8.55-4.09-.78-3.91-7.35.19-8.55Z"/>
    <path class="cls-11" d="M795.13,883.29l-11.77-.91,1.18-2.01,8.77-4.32c.09,0,.47-.91,1.78-.56,3.73,1.03,4.45,6.03.04,7.8Z"/>
    <path class="cls-1" d="M336.23,306.08c1.47,1.53,1.75,6.15-.87,5.22-.13-2.79.55-3.43.87-5.22Z"/>
    <path class="cls-11" d="M732.03,861.94c-.57,1.37-3.78,1.37-4.35,0,1.92-.08,2.8,0,4.35,0Z"/>
    <path class="cls-11" d="M752.04,861.94c-.28,1.3-3.12,1.35-3.48,0,.91,0,2.5,0,3.48,0Z"/>
    <path class="cls-11" d="M739.86,861.94c-.12,1.31-2.49,1.31-2.61,0,.75,0,1.85,0,2.61,0Z"/>
    <path class="cls-7" d="M550.23,237.36c2.3-.41,5.73-1.25,7.74-2.27,3.28-1.67,3.57-5.42,7.91-3.36,1.14.54,1.82,2.52,3.25,2.91,2.18.59,6.76-1.16,10.11.91,1.67,1.03.36,3.71,2.74,3.63,4.01-.14,7.93-6.47,9.56-6.15,5.1,11.48.28,9.44-7.58,11.54-1.95.52-4.62,3.44-6.78,1.97-.94-.64-.19-3.02-2.88-2.09-2.38.83-2.51,4.33-4.09,5.5-1.81,1.35-4.6.62-6.48,3.09-2.27,2.99-.53,7.06-1.69,8.74-.87,1.25-5.13.78-6.99,2.58-4.46,4.29-2.17,13.66-8.35,19.49-1.11,1.05-2.97,1.26-4.31,2.65-2.76,2.86-5,9.97-4.29,13.9.08.44,3.27,7.86,3.61,8.15,1.07.91,8.15.64,7.66,6.24-1.88-.55-3.32-.78-5.17.06-.91,1.25,3,7.27-1.54,8.52-2.38.66-3.87-1.27-5.94-1.57-1.4-.2-9.41-.93-9.99-.52-1.7,1.19.06,3.03-.17,4.3-.16.9-1.74,1.64-2.19,2.92-.51,1.45-.2,3.52-1.01,4.86-1.16,1.94-5.36.98-6.06,1.55-.28.23-.51,3.31-1.17,4.49-1.63,2.91-6.29,5.93-.61,9.69,4.18,2.76,6.07,1.26,10.37.5-.13,2.31-.27,5.07,2.36,5.92,5.65,1.81,3.6-3.15,4.69-4.07.28-.24,4.1-.25,4.25-.1.34.34-.77,3.4.87,4.79,2.66,2.26,8.26,1.76,11.34,2.57,2.11.56,5.83,3.41,7.6,3.78,2.09.43,11.22-5.33,17.84-3.98,2.83.58,16.25,7.64,19.1,9.6,1.02.7,1.9.69,1.53,2.37-24.07,2.19-48.5-.08-72.67.87-1.67.07-3.49-.9-3.01,1.74-3.74.01-7.28.85-11.31.87.11-3.04.54-2.4-2.13-2.61-12.28-.97-10.58-1.04-21.32-4.81-2.62-.92-6.28.82-5.95-3.24.47-5.83,7.99,1.89,8.23-3.8.22-5.24-.02-8.74,2.73-13.99.93-1.77,2.97-2.87,3.46-4.36,2.24-6.79,3.78-11.29,9.38-16.72,1-.97,2.95-.99,3.47-1.75.75-1.1.25-3.64.79-5.3.67-2.08,2.95-3.05,3.51-4.32,1.77-4.05,2.11-9.18,5.31-13.83,1.91-2.78,4.46-2.34,6.33-4.98,2.81-3.95,3.57-11.57,6.45-16.17,2.38-3.81,7.18-7.43,9.2-11.68,1.01-2.12.74-4.17,1.82-6.01,1.47-2.49,8.38-7.73,9.22-9.09.35-.56.85-10.99,1.27-13.04.06-.28-.05-.59,0-.87Z"/>
    <path class="cls-8" d="M491.07,373.93c-2.66,8.25,9.03,5.99,13.45,6.05,13.71.18,26.73.85,40.01.87,19.87.03,39.86-.52,59.63.91.05,2.89-.01,5.81,0,8.7-2.21-.15-3.41,1.49-5.61,1.78-13.68,1.81-34.98-.22-49.66-.08-8.28.08-16.78.96-25.23.95s-20.52.46-28.69-1.75c-7.66-2.08-14.09-5.26-19.06-11.38-2.69-3.31-2.28-9.14,2.13-10.39,2.73,3.5,8.82,4.06,13.05,4.35Z"/>
    <path class="cls-11" d="M550.23,238.23c-.41,2.05-.92,12.48-1.27,13.04-.84,1.36-7.75,6.61-9.22,9.09-1.08,1.83-.81,3.88-1.82,6.01-2.02,4.25-6.82,7.87-9.2,11.68-2.87,4.6-3.64,12.22-6.45,16.17-1.88,2.64-4.42,2.2-6.33,4.98-3.2,4.65-3.54,9.78-5.31,13.83-.56,1.27-2.84,2.24-3.51,4.32-.54,1.66-.04,4.21-.79,5.3-.52.76-2.47.78-3.47,1.75-5.59,5.43-7.14,9.93-9.38,16.72-.49,1.5-2.54,2.59-3.46,4.36-2.75,5.25-2.51,8.75-2.73,13.99-.24,5.68-7.76-2.03-8.23,3.8-.33,4.06,3.33,2.32,5.95,3.24,10.75,3.77,9.04,3.84,21.32,4.81,2.67.21,2.24-.43,2.13,2.61-5.61.03-11.89.38-17.4,0-4.23-.29-10.32-.85-13.05-4.35-3.98-5.11-2.35-11.15.72-16.24,22.46-34.96,43.07-71.07,65.03-106.34,1.82-2.92,3.72-6.72,6.45-8.77Z"/>
    <path class="cls-1" d="M604.16,445.26c0,1.74,0,3.48,0,5.22-7.88,2.48-13.98,9.81-20.95,14.28-5.83,3.73-16.26,9.46-22.54,12.25-5.96,2.66-14.48,3.17-18.27,8.26-3.97-4.38-11.29-4.17-16.53-4.35-.5-2.54,1.38-1.79,3.03-1.77,2.61.03,5.92,1.13,7.77.9,1.58-.2,6.79-3.01,9.39-3.73,20.1-5.52,33.07-12.13,49.61-24.96,2.24-1.74,4.08-6.55,8.49-6.11Z"/>
    <path class="cls-1" d="M678.1,781.91c.03,17.78.51,35.76.04,53.53-.1,3.89-1.8,8.56-.91,12.58l-44.14,11.1c-2.41,1.31-10.02-2.2-8.93,2.82-1.67.03-9.19-.29-9.58,0-.14.11.08,1.25,0,1.74-.33-.1-1.31-.06-1.74,0,.5-2.54-1.37-1.78-3.03-1.77-10.42.09-21.5.86-31.76.9-2.6,0-5.23,0-7.83,0-21.39.03-42.11,0-63.5,0-2.03,0-4.06,0-6.09,0-42.13-.03-84.92-.68-127.4-.91-10.02-.05-20.05.11-30.05.04.06-26.66-.06-53.37,0-80.03h334.91Z"/>
    <path class="cls-12" d="M347.54,734.93c5.05-.47,10.21.87,14.35.87h316.21c.02,15.35-.03,30.75,0,46.1h-334.91c.04-15.35-.03-30.75,0-46.1,1.4.63,2.79-.76,3.48-.87.28-.04.58.03.87,0Z"/>
    <path class="cls-15" d="M753.78,704.49h.87c.05,6.05.19,12.22,0,18.27-2.61-.54-1.63,1.29-1.74,3.48-14.86,1.59-33.79.89-49.11.9-136.76.16-274.34-1.52-410.59,0-7.67.09-18.73,1.38-24.83-2.65-.27-6.63.38-13.39,0-20.01l7.36.91c159.33-.67,318.82,1.14,478.04-.91Z"/>
    <path class="cls-3" d="M267.51,702.75c.04-3.76-.03-7.55,0-11.31h487.14c.03,4.05-.04,8.13,0,12.18l-.87.87c-159.22,2.05-318.72.24-478.04.91l-7.36-.91c-.04-.74-.03-1.51-.87-1.74Z"/>
    <path class="cls-10" d="M516.3,488.75c.9,3.89,1.03,7.79.91,11.79-.14,4.65-.38,11.97-3.52,15.18-62.83.7-126.12,1.33-189.15.82-1.3-.2-2.63-.73-3.57-1.65-3.23-3.15-4.16-23.27,2.44-25.47,64.07-.57,128.69-1.52,192.89-.66ZM363.2,499.19c-.6,2.75-2.59,5.91,2.13,6.13h122.6c1.87-1.53.58-3.99.54-5.26-.06-1.79,2.08-3.71-1.49-5.04l-120.78-.22c-3.87-.13-2.53,2.24-3,4.39Z"/>
    <path class="cls-16" d="M441.49,658.38c-.53,3.41-2.59,8.63,2.2,9.54l99.58.02c.06,4.8,1.58,10.3-4.77,10.45l-240.05-.07c-6.85-.05-7.12-19.74-.88-19.87,47.97-.1,95.96-.15,143.92-.08Z"/>
    <path class="cls-17" d="M471.07,524.42c-.12.81.18,1.9,0,2.61-.82,3.28-1.95,5.38,3,6.13l88.33-.04c-.08,4.35,2.79,7.7-4.75,7.86l-220.06-.09c-6.21.27-5.15-15.69-.93-16.47,44.8.04,89.61-.06,134.4,0Z"/>
    <path class="cls-10" d="M576.32,622.72c-.07,1,.47,3.34-.51,3.5l-209.43-.05c-1.64.4-1.05,4.06-.58,5.26h210.51v6.09c-68.27.62-136.62-.83-204.9-.05-11.51.13-24.97,2.43-36.54.95-5.55-.71-3.46-10.63-3-14.83l244.44-.87Z"/>
    <path class="cls-7" d="M354.5,617.5c-.2-1.67,3.32-5.85,4.36-6.51,1.6-1.01,4.24.45,4.34-1.32h-33.06c1.29-5.35,11.15-1.62,15.22-1.66,16.42-.2,34.62-2.21,51.37-2.73,19.38-.6,51.76-3.47,70.47-.87,2.73.38,4.21,2.6,7.62,1.77.7-.17.23-1.58,1.84-1.79,3.22-.42,31.09-.56,32.5.26.61.35,1.29,3.5,3.42,4.04,1.78.45,3.33-.81,4.98-.73,2.64.14,9.32,3.75,14.83,4.15,4.16.31,8.58-2.93,6.52,5.39-61.45-.18-122.97-.2-184.42,0ZM393.65,611.41c-.57-4.54-12.64-2.65-16.15-1.76-1.46.37-2.53-.88-2.12,1.76h18.27ZM371.02,609.67c-1.84.49-6.8-1.5-6.08,1.73,1.84-.49,6.8,1.5,6.08-1.73Z"/>
    <path class="cls-1" d="M713.77,781.91c.03,17.67.09,35.39,0,53.06-4.97.99-9.3,3.78-13.89,5.68-1.43.59-3.23.15-4.6.62-2.71.92-5.03,5.55-9.34,4.14-.1-21.44-.04-42.93,0-64.37l27.84.87Z"/>
    <path class="cls-10" d="M684.85,631.65c30.8-1.27,33.55,44.17,5.77,47.52-36.2,4.36-36.49-46.25-5.77-47.52ZM682.45,639.68c-.77,2.49,0,14.5,0,18.27,0,.09,1.21,1.3,1.3,1.3h18.27c.24,0,1.92-1.77,2.07-2.35,1.66-6.23-12.37-2.46-14.74-4.12-2.18-1.52.38-11.34-1.2-13.59-1.03-1.47-5.21-1.11-5.71.49Z"/>
    <path class="cls-8" d="M354.5,617.5c61.45-.2,122.97-.18,184.42,0,12.46.04,24.95-.02,37.41,0-.08,1.73.11,3.5,0,5.22l-244.44.87c.22-1.96-.16-4.11,0-6.09,7.53-.01,15.09.03,22.62,0Z"/>
    <path class="cls-12" d="M685.93,781.04c.03-15.06-.02-30.17,0-45.23h27.84c.02,15.35-.03,30.75,0,46.1l-27.84-.87Z"/>
    <path class="cls-8" d="M715.51,373.93h15.66c.02.29,1.09.88.75,2.78-1.1,6.05-3.84,3.57-8.06,4.27-24.16,4.04-50.08.36-74.85,1.7-5.2.82-5.97,6.34-8.96,7.57-6.95,2.86-20.31.08-28.06,1.08.02-3.18-.07-6.39,0-9.57l29.6.54c3.87-1.2,6.88-4.05,6.06-8.37,22.6-.07,45.25,0,67.85,0Z"/>
    <path class="cls-10" d="M543.27,667.95l-99.58-.02c-4.78-.91-2.73-6.14-2.2-9.54,32.59.05,65.21-.08,97.8.06,5.43.59,3.92,5.3,3.97,9.51Z"/>
    <path class="cls-15" d="M519.78,373.06c18.47-.06,37.71.06,56.54,0-.48,2.63,1.33,1.67,3.01,1.74,4.51.18,9.48.15,14,0,1.67-.06,3.49.89,3.01-1.74,2.6.05,5.23-.04,7.83,0,.03,2.89-.06,5.81,0,8.7-19.77-1.44-39.76-.88-59.63-.91-13.28-.02-26.3-.68-40.01-.87-4.42-.06-16.11,2.2-13.45-6.05,5.51.38,11.79.03,17.4,0,4.03-.02,7.57-.86,11.31-.87Z"/>
    <path class="cls-10" d="M752.91,726.24c.57-.06,1.17.04,1.74,0-.09.63.43,1.85-.52,1.76-127.41-.09-254.84.06-382.23-.02-25.21-.02-50.47.1-75.68,0-9.56-.04-19.16.03-28.71,0-.06-1.15.07-2.33,0-3.48h.87c6.1,4.02,17.15,2.73,24.83,2.65,136.25-1.52,273.83.15,410.59,0,15.32-.02,34.25.69,49.11-.9Z"/>
    <path class="cls-5" d="M713.77,834.97c-.04,7.66.46,15.93,0,23.49-.07,1.15.06,2.33,0,3.48-8.31-.69-17.98.92-26.1,0,.04-2.06.59-3.02-1.74-2.61-.15-2.45-.86-6.14-.87-7.83,0-1.18.88-3.72.87-6.09,4.31,1.41,6.63-3.22,9.34-4.14,1.38-.47,3.18-.03,4.6-.62,4.59-1.9,8.93-4.69,13.89-5.68Z"/>
    <path class="cls-17" d="M513.69,515.72c3.14-3.21,3.38-10.53,3.52-15.18.12-4,0-7.89-.91-11.79,4.99.07,16.92-1.34,20.03,2.16,2.26,2.54,2.37,17.29,1.7,20.88-1.26,6.7-14.45,4.78-19.59,4.84-1.75.02-3.48-.92-4.74-.91Z"/>
    <path class="cls-10" d="M562.41,533.12l-88.33.04c-4.96-.75-3.82-2.85-3-6.13l90.47-.87c3.67,3.67.92,4.39.87,6.96Z"/>
    <path class="cls-5" d="M677.23,848.02c.02.1.71.79.87.87v13.05c-16.22.07-32.49-.11-48.71,0-.87,0-1.74,0-2.61,0s-1.74-.01-2.61,0c-1.09-5.02,6.52-1.5,8.93-2.82l44.14-11.1Z"/>
    <path class="cls-7" d="M599.8,293.9c.61-.42-.4-4.68,3.8-3.52.31.09,3.13,5.14,3.14,5.69.05,1.69-6.29,9.48-7.38,10.01-2.1,1.01-.56-3.47-3.47-3.52s-2.71,4.21-3.57,4.45c-6.94,1.98-11.09-5.83-11.57-11.3.77-1.09,8.39-2.38,9.74-2.87,1.78-.65,2.67-3.57,5-2.02.77.51,2.04,4.64,4.32,3.08Z"/>
    <path class="cls-15" d="M647.65,373.93c.82,4.32-2.2,7.16-6.06,8.37l-29.6-.54c.05-2.6-.04-5.23,0-7.83,11.88-.02,23.79.04,35.67,0Z"/>
    <path class="cls-9" d="M561.54,526.16l-90.47.87c.18-.71-.12-1.8,0-2.61,29.15.04,58.32.01,87.48-.05,2.04-.3,2.17.97,2.99,1.79Z"/>
    <path class="cls-7" d="M608.28,231.55c.29.13-.02,1.5,1.5,1.56,2.19.08,4.74-1.56,6.83-.86,5.25,1.75-.79,15.83-11.2,12.12-.76-.27-5.57-2.92-5.64-3.24-.13-.56-.71-6.38-.64-6.71.5-2.72,6.76-3.96,9.15-2.86Z"/>
    <path class="cls-7" d="M678.1,317.39c.71,2.28-1.21,4.06-1.49,5.76-.18,1.14.91,2.56.51,4.05-.35,1.3-2.56,2.04-2.52,3.65s3.36,3.58.67,6.32c-4.04,4.11-7.71-7.7-7.49-8.8.28-1.38,4.05-2.48,4.65-4.92.88-3.58-2.03-6.64,5.67-6.06Z"/>
    <path class="cls-7" d="M618.63,341.79c2.09-.63,4.9,2.56,4.72,4.69-.37,4.37-16.56,9.26-15.37,2.2,1-5.94,4.14-1.95,6.88-2.7,1.92-.53,2.39-3.78,3.77-4.2Z"/>
    <path class="cls-7" d="M542.54,331.46c.8-.5,5.14-.34,5.99.24,4.85,3.27-6.71,10.2-7.74,4.27-.09-.54,1.55-4.38,1.75-4.51Z"/>
    <path class="cls-7" d="M626.46,295.69c4.43-1.33,5.34,7.84.74,7.82-3.05-.01-3.78-6.91-.74-7.82Z"/>
    <path class="cls-8" d="M596.33,373.06c.49,2.63-1.33,1.68-3.01,1.74-4.51.15-9.49.18-14,0-1.67-.07-3.49.89-3.01-1.74,6.65-.02,13.36-.13,20.01,0Z"/>
    <path class="cls-8" d="M268.38,704.49c.38,6.62-.27,13.38,0,20.01h-.87c-.42-6.91-.08-14.74,0-21.75.84.23.83,1,.87,1.74Z"/>
    <path class="cls-7" d="M665.05,352.17c-.91,1.27-7.61,1.66-6.08-2.6,1.25-.63,7.76.27,6.08,2.6Z"/>
    <path class="cls-7" d="M589.37,284.33c2.69,2.59-6.81,6.43-4.78,0,1.03.2,4.48-.27,4.78,0Z"/>
    <path class="cls-7" d="M631.12,240.84c2.42,3.22-9.47,3.64-4.68-.07.89-.69,4.28-.45,4.68.07Z"/>
    <path class="cls-7" d="M648.52,349.58c.2,1.6.05,2.55-1.31,3.47h-1.29s0-3.47,0-3.47h2.6Z"/>
    <path class="cls-7" d="M679.84,342.62c1.38,1.38-1.22,3.98-2.6,2.6s1.22-3.98,2.6-2.6Z"/>
    <path class="cls-8" d="M754.65,722.76c-.03,1.12.15,2.44,0,3.48-.57.04-1.17-.06-1.74,0,.11-2.19-.87-4.02,1.74-3.48Z"/>
    <path class="cls-7" d="M551.09,340.88c.93.82-1.77,3.53-2.6,2.6-1.31-1.47,1.11-3.91,2.6-2.6Z"/>
    <path class="cls-7" d="M669.4,319.99c-.9.89-3.49-1.73-2.6-2.6s3.49,1.73,2.6,2.6Z"/>
    <path class="cls-8" d="M754.65,704.49h-.87l.87-.87c0,.29,0,.58,0,.87Z"/>
    <path class="cls-1" d="M335.36,781.04c.05,24.69.79,50.22,0,74.81-9.79.44-18.16-5.45-27.84-4.35-.29-23.45-.05-47,0-70.46,9.26,1.17,18.56,1.18,27.84,0Z"/>
    <path class="cls-12" d="M307.53,781.04c.03-15.06-.02-30.17,0-45.23h27.84c.02,15.06-.03,30.17,0,45.23-9.27,1.18-18.58,1.17-27.84,0Z"/>
    <path class="cls-11" d="M506.73,862.81c-.49,2.63,1.33,1.68,3,1.74,15.58.57,30.72.73,46.11,1.77,4.24.29,8.01.12,12.04-1.13,1.41-.44,2.79-.38,2.35-2.39,2.6,0,5.23,0,7.83,0-.31,3.45,5.07.92,7.63,1.43,1.07.21,3.24,1.28,4.39,1.82,1.22.57,2.37-.53,1.9,1.97h-109.61c-.84-2.03,3.75-3.14,5.02-3.31,4.55-.62,9.37,3.86,13.25-1.91,2.03,0,4.06,0,6.09,0Z"/>
    <path class="cls-5" d="M335.36,855.85c-.05,1.43.14,2.95,0,4.35l-.87,1.74c-6.46,1.65-19.71-1.23-26.97,0-.03-3.47.05-6.97,0-10.44,9.67-1.1,18.05,4.78,27.84,4.35Z"/>
    <path class="cls-11" d="M629.39,861.94c-1.41,5.04,8.28,1.8,7.83,6.09h-41.75c-.18-2.28-.12-1.45,1.31-1.71,3.76-.7,7.61-.53,11.23-.97,1.84-.22,3.53-1.48,4.85-1.67.43-.06,1.41-.1,1.74,0,.28.08,1.01,1.29,2.31,1.57,2.67.56,9.55.63,9.87-3.3.87,0,1.74,0,2.61,0Z"/>
    <path class="cls-11" d="M371.03,868.03c-.36-2,.12-1.39,1.11-1.94,4.82-2.7,7.06-.53,11.49-.6,8.51-.12,16.2-1.87,25.39.68,1.49.41,2.41-.64,2.01,1.86h-40.02Z"/>
    <path class="cls-11" d="M464.98,868.03h-33.93c-.84-2.09,2.88-2.53,4-2.53,5.76.01,11.99,1.01,18.23.83,3.61-.11,11.14-3.19,11.7,1.7Z"/>
    <path class="cls-11" d="M479.76,866.3c1.22,1.27-.07,1.57-1.29,1.73-2.84.36-6.22-.26-9.14,0-.78-3.87,9.51-2.68,10.43-1.72Z"/>
    <path class="cls-11" d="M424.09,866.3c1.22,1.27-.07,1.57-1.29,1.73-2.84.36-6.22-.26-9.14,0-.38-2.27.35-1.55,1.88-1.98,1.92-.54,7.26-1.09,8.56.26Z"/>
    <path class="cls-11" d="M742.47,868.02c-.69-.13-11.21.9-8.69-1.72.87-.91,9.43-2.27,8.69,1.72Z"/>
    <path class="cls-11" d="M662.44,866.3c2.68,2.54-8.19,1.65-8.7,1.73-.95-4.08,8.12-2.27,8.7-1.73Z"/>
    <rect class="cls-11" x="360.59" y="866.29" width="5.21" height="1.73"/>
    <rect class="cls-11" x="693.76" y="866.29" width="4.34" height="1.73"/>
    <path class="cls-11" d="M346.67,734.93c-.69.11-2.08,1.5-3.48.87-.73-2.33,1.98-2.53,3.48-.87Z"/>
    <path class="cls-1" d="M685.93,859.33c2.33-.41,1.78.55,1.74,2.61-.57-.06-1.17.07-1.74,0-.07-.86.05-1.75,0-2.61Z"/>
    <path class="cls-11" d="M667.66,866.29c.95.95-.78,2.68-1.73,1.73s.78-2.68,1.73-1.73Z"/>
    <path class="cls-1" d="M334.49,861.94l.87-1.74c-.08.85.28,1.45-.87,1.74Z"/>
    <path class="cls-11" d="M732.9,372.19c-.63.4-1.81.84-1.74,1.74h-8.7c.12-3.12.5-2.37-2.14-2.6-.81-.07-11.32-.31-8.29-2.61.64-.49,14.29-1.04,16.01-.79,2.54.37,5.4.9,4.87,4.26Z"/>
    <path class="cls-14" d="M570.23,862.81c.44,2.01-.94,1.95-2.35,2.39-4.03,1.24-7.8,1.41-12.04,1.13-15.39-1.04-30.53-1.2-46.11-1.77-1.67-.06-3.49.88-3-1.74,21.4,0,42.11.03,63.5,0Z"/>
    <path class="cls-14" d="M624.17,861.94c.87-.01,1.74,0,2.61,0-.32,3.94-7.2,3.87-9.87,3.3-1.3-.27-2.03-1.48-2.31-1.57.08-.49-.15-1.63,0-1.74.38-.29,7.9.03,9.58,0Z"/>
    <path class="cls-13" d="M488.46,500.06l-125.26-.87c.47-2.15-.87-4.52,3-4.39l120.78.22c3.57,1.33,1.43,3.25,1.49,5.04Z"/>
    <path class="cls-11" d="M393.65,611.41h-18.27c-.41-2.64.65-1.39,2.12-1.76,3.51-.89,15.58-2.78,16.15,1.76Z"/>
    <path class="cls-11" d="M371.02,609.67c.72,3.23-4.24,1.24-6.08,1.73-.72-3.23,4.24-1.24,6.08-1.73Z"/>
    <path class="cls-11" d="M682.45,639.68c.49-1.6,4.68-1.96,5.71-.49,1.57,2.25-.98,12.07,1.2,13.59,2.38,1.65,16.4-2.11,14.74,4.12-.15.58-1.84,2.35-2.07,2.35h-18.27c-.09,0-1.3-1.21-1.3-1.3,0-3.77-.77-15.77,0-18.27Z"/>
  </g>
</svg>