<?xml version="1.0" encoding="UTF-8"?>
<svg xmlns="http://www.w3.org/2000/svg" viewBox="0 0 1024 1024">
  <defs>
    <style>
      .cls-1 {
        fill: #323232;
      }

      .cls-2 {
        fill: #f7f7f8;
      }

      .cls-3 {
        fill: #353635;
      }

      .cls-4 {
        fill: #7f7373;
      }

      .cls-5 {
        fill: #eff0f0;
      }

      .cls-6 {
        fill: #505050;
      }

      .cls-7 {
        fill: #f3f5f3;
      }

      .cls-8 {
        fill: #f2f2f2;
      }

      .cls-9 {
        fill: #dbdbdc;
      }

      .cls-10 {
        fill: #29302a;
      }

      .cls-11 {
        fill: #313130;
      }

      .cls-12 {
        fill: #686868;
      }
    </style>
  </defs>
  <g id="_검은색_배경" data-name="검은색 배경">
    <rect class="cls-4" x="0" y="0" width="1024" height="1024"/>
  </g>
  <g id="_레이어_1" data-name="레이어 1">
    <path class="cls-11" d="M685.37,568.44c25.09-52.63,98.16-66.75,145.27-35.79,59.63,39.2,61.07,109.96,20.61,164.64-.71.96-2.65,3.2-4,4.99-1.7,2.26-3.99,4.36-6,6.99-1.02,1.34-1.99,2.67-3,4-.8,1.06-1.35,2.14-2,3-2.6,3.45-5.49,6.4-7.99,9.99-.41.59-.63,1.37-1,2-.58.98-1.64,1.28-3,4-4.53,1.14-5.4,6.8-7.99,9.99-2.94,3.62-6.43,4.94-8.99,10.99-.57,1.34-.62,1.71-1,3-2.09-.22-3.5-.41-3,2-.82.27-.91,1.93-1,2-2.51,1.85-2.62.7-4,4.99-2.57-.1-3.4,2.64-4,4.99-.38.23-.7.87-1,1-5.1,2.22-3.86,4.57-7.5,7.98-2.26,2.12-6.42,4.27-9.49,5-1.24.29-3.48-.07-5,0l-4-2c-14.56-15.51-29.66-34.12-42.97-50.94-1.91-2.42-4.42-6.2-7-9.45-3.46-4.36-4.95-10.48-10.99-12.53.05-.84-.81-1.48-1-2-1.64-4.41-2.23-3.48-4-5.99-8.57-12.23-21.72-30.9-25.55-44.89-.46-1.68-.25-5.81-.43-6.05l-1-2c-.21-2.52-.78-5.11-1-7.99-.19-2.49,1.06-4.62-2-4-.11-2.32.04-4.67,0-6.99,1.5-.14,1.5-2.86,0-3-.06-2.99-.01-6,0-8.99,1.58-.66,1.58-4.34,0-4.99.04-1.99-.08-4,0-5.99,4.19.54,1.15-2.76,1-4-.08-.65.05-1.34,0-2,3.17.62,1.7-1.57,2-4s.58-4.66,1-6.99c2.67.47,2.04-.63,2-3,.23-.26-.15-2.19,0-3,2.13.24,2.24.12,2-2,.33-.52,3.36-9.23,4-10.99,2.99.58,1.6-1.17,2-2ZM822.27,616.38c-.22-14.56-10.14-32.29-22.67-39.77-15.45-9.22-33.52-7.75-49.62-1.21-1.11.45-.32,2.08-1.31,3.08-5.97,6.09-7.52,5.5-13.34,13.92-.13.19-3.05-.51-2,3-.86.14-2.74.75-3.01,1.7-2.95,15.4-5.17,26.12,1.83,40.93,20.26,42.89,87.34,30.13,90.12-18.66,3.18.77,2.98-3.87,0-3ZM829.26,615.39h-1.99v5.98h1.99v-5.98Z"/>
    <path class="cls-11" d="M536.48,305.73c.53-.01,3.57-.01,4,0,2.9.1,6.22-.32,8.99,0-.33,2.32.34,2.76,2,1,2.87.57,4.33,1.09,6.99,2-.81,2.5,2.78,2.55,5,3,.61.12,1.38-.12,2,0-.75,2.55,1.8,1.78,2,2,.53.57.15,3.44,3,3,3.31,3.36,6.92,5.99,9.66,10.83,1.25,2.21,1.18,4.94,1.33,5.15-.24,2.12-.13,2.24,2,2,.87,9.24.85,17.74,1,26.97-1.58.66-1.58,4.34,0,4.99.3,30.74,2.06,66.69,0,96.89-.06.84-3.07,3.5,1,3,.15,4.38.42,8.66,1,12.99-1.8,1.61-1.29,2.35,1,2,.09.64-.1,1.36,0,2-1.67.57-1.3,3.07,0,4,.21,1.34.8,2.65,1,4l-.99.51c-.21,2.34-.38,2.82,1.99,2.49.11.62-.1,1.37,0,2-1.84,1.55-1.26,2.37,1,2,.01.66-.04,1.34,0,2,0,.13-1.13,1.12-1.09,2.45.03,1.08.86,8.17,1.11,8.53.15.21,1.41-.05,1.97.01.04.99-.07,2.01,0,3,.39,5.45.72,6.49,2,11.99.39,1.69.74,3.27,1,4.99-1.5.14-1.5,2.86,0,3-.06.47-.08,1.93,0,2l1,2c-.28,3.05,1.44,7.63,2,10.99-1.91,1.72-1.67,4.83,1,4,.43,2.42.5,5.2,1,7.99-1.7,1.73-1.37,2.3,1,2,.48,2.68.5,6.19,1,8.99-1.79,1.63-1.3,2.34,1,2,.21,1.22-.21,2.77,0,4-1.8,1.61-1.29,2.35,1,2,.43,2.43.5,5.18,1,7.99-1.58.33-1.16,2.29,0,3,.24,1.34.76,2.65,1,4l-.97.6.97,1.4c.29,1.34.73,2.65,1,4-1.23,3.46.07,10.29,2,13.98,0,.66.04,1.34,0,2-.06,1.08-.23,2.53,1,3-.03,1.06.71,9.58,1,9.99-.04,2.36-.67,3.46,2,3,.51,4.72,1.32,9.3,2,13.98-2.09,1.51-.53,5.41,1,6.99.04.66.01,1.34,0,2l-.99,1.49.99.51c-.03.52-.08,1.93,0,2-.24,2.12-.13,2.24,2,2,.17,1.61-.21,3.41,0,4.99-1.8,1.61-1.29,2.35,1,2,.12,1.31-.12,2.68,0,4l-.99,1.49.99.51c.06.95-.2,3.74,0,4-.04,2.36-.67,3.46,2,3,.24,2.87.76,5.42,1,7.99l-.99,1.49.99.51c.06.65-.01,1.34,0,2,.04,2.52-.92,4.63,2,4,.13.96-.14,2.04,0,3-1.81,1.59-1.28,2.36,1,2,.21,1.58-.14,3.38,0,4.99-1.8,1.61-1.29,2.35,1,2,.04.94.12,2.11,0,3-.14,1.07-3.01,3.46,1,3,.16,3.27.47,5.79,1,8.99-1.76,1.67-1.33,2.33,1,2,.42,3.29.77,6.67,1,9.99,0,.1-.87.65-.86,1.46.02,2.02.57,6.62,2.86,5.54.11.6-.07,1.35,0,2-1.64,1.01-1.61,5.05,0,5.99,0,.66-.03,1.34,0,2-2.88-.46-1.85.71-2,3-.08,1.31-.03,2.68,0,4l-.88.63.88,1.37c.13,1.24.77,7.66,1,7.99-.24,2.12-.13,2.24,2,2,.13.55-.05,1.34,0,2l-.99,1.49.99.51c.06.95-.2,3.74,0,4-.24,2.12-.13,2.24,2,2,.13.56-.09,1.35,0,2-1.57.33-1.17,2.3,0,3,.48,2.53,1.99,6.52,3,8.99.2.5-.61,1.74.62,2.04,2.9.71,5.44-.98,6.37-1.04,5.02-.3,10.93-.18,15.99,0-.61,4.26,3.08,1.06,4,1,3.3-.23,11.79-.53,14.29.94,1,.59,11.51,17.16,12.76,19.5.82,1.52.57,2.39.92,3.53l-.99.5c-.47,4.67,1.36,1.58,1.99,1.49,21.17-2.89,56.64-.05,79.48-.05,42.2.01,85.39-.76,127.91,0,5.47.1,10.45,1.43,16.44,1.05l.69.8c5.92-.34,4.22,1.08,4.31,6.19-2.65,1.66-6.71,1.13-9.99,1-55.69-2.19-113.17-1.59-168.87,0-1.33.04-2.67-.04-4,0-.84-1.6-3.39-.97-5-1,.44-3.33-1.2-1.64-3.01-1.52-14.47,1.04-28.98.32-43.47.5-1.69.02-4.44-.64-5.48,1.02-2.33,0-4.67,0-6.99,0v-1c.16-.02,4.19-1.3,2.5-2l-8.49,2c-7.94.13-16.03.05-23.98,0,1.09-3.36-7.57-2.45-9.99-1-3.1.02-6.89,1.58-10.33,1.19l-.67.81c-.67,0-1.33,0-2,0-.69-1.5-2.68-.96-4-1,.58-3.26-7.5-4.46-6.99,0-2.3-.12-4.76-.96-6-1-.14-1.5-2.86-1.5-3,0-1.48.21-3.63,1.18-3,3-.67,0-1.33,0-2,0,1.58-2.83-7.35-2.49-9.36-2.02-1.17.27-.54,1.09-.63,2.02-4.65-.03-9.34,0-13.99,0-29.47.03-60.37-.01-89.93,0-.67,0-1.33,0-2,0-18.49,0-38.37,0-56.96,0-12.31,0-24.66,0-36.97,0-40.23-.01-81.68.04-121.91,0-1.66,0-3.33,0-5,0-30.94-.03-63,0-93.93,0-2.33,0-4.67,0-6.99,0-23.53,0-47.33-1.83-70.95,0-.66.05-1.34-.02-2,0-.56-3.03,1.53-1.92,3.45-2,5.69-.22,12.67.69,18.05,0,1.46-.19,3.1-.76,1.48-1.99-8.02-.28-15.95.1-23.95.57-2.07.12-.55-1.5-2.03-2.58.2-.51-.62-1.73.64-2.04,1.33-.33,3.71.11,5.35.04l1.49.99.51-.99c32.06-2.07,64.72,1.41,96.93,0,.7,1.45,3.12,1.1,4.5,1.07,2.23-.05,4.27-1.06,4.5-1.07,1.99-.07,4,.02,6,0,.34,0,4.31,1.94,5.99-.02,2.24-2.6-3.02-1.72-3.99-1.98-2.83-.77-7.63-3.37-8.99-5.99s2.66-2.55-4-3c-.33-.02-.68.04-1,0,.72-2.54-1.75-1.76-2-2-.23-.22.51-2.65-2-2-2.13-2.06-4.74-4.02-6.99-5.99.07-2.05-1-3.05-3-3-.16-.14-1.68-.85-3-2,.34-1.91-.1-2.32-2-2-1.97-1.7-4.01-3.26-6-4.99.34-1.91-.1-2.32-2-2-1.23-1.05-2.68-2.04-4-3,.24-3.01-1.76-2.32-3-3-.15-.64.26-2.79,0-2.99-.39-.3-2.3.32-3.21,0-1.06-.37-.8-1.83-3.78-3.01-.44-1.16,1.13-2.48-2-2-.09-.16-.72.14-1,0-1.61-3.58-1.18-7.2-6-5.99-.14-.26.14-.74,0-1-1.15-2.1-2.16-6.23-5-5.99-1.73-3.23-2.92-5.37-4-8.99l.99-.51c.35-1.85-.29-1.59-1.99-1.49-.07-.64-.01-1.35,0-2,.13-6.53.72-9.56,0-16.98-.06-.66.06-1.34,0-2,4.03.47,1.12-1.99,1-3-.08-.63,0-1.35,0-2,3.27.66,2.33-3.15,3-4.99,1.47-4.09,2.33-4.23,4-6.99,2.53.52,2.16-.79,2-3,1.22-1.15,1.28-1.73,2-3,1.91.34,2.32-.1,2-2,1.3-1.36,6.63-6.42,6.99-6.99,2.51.52,2.16-.81,2-3,.52-.48,1.47-1.45,2-2,2.12.24,2.24.12,2-2,.65-.67,1.51-1.45,2-2,2.51.52,2.16-.81,2-3,.5-.58,1.16-.88,2-2,3.14.53,1.55-1.01,2-2,2.31-.88,3.33-.42,3-4,2.87-3.41,6.07-6.6,8.99-9.99,1.91.34,2.32-.1,2-2,1.89-2.25,4.29-4.84,6-6.99,2.12.24,2.24.12,2-2,.16-.1-.15-.76,0-1,2.54.72,1.76-1.75,2-2,.21-.22,2.62.48,2-2,1.47-1.23,2.55-2.71,4-4,.14-.12,1.18.38,1.78-.24.18-.19,1.84-3.97,2.21-4.76,1.17-.52.91-.98,3-1,.88,3.24,1.7,3.62,1.99,0-.66-.03-1.33,0-1.99,0-.13-.49.02-1.36,0-2,2.4-.29,4.65,1.02,6.99,1-.13.59.18,1.84,0,2-.4.35-2.69-.91-1.99,1.49.2.7.98.46.99.51.61,2.54-1.08,1.67-2,2l-.5-.99c-4.66-.53-1.51,1.59-1.49,1.99.22,4.77-9.15,10.12-11.01,15.18-1.75,2.56-6.47,5.24-7.98,6.79v-2.99s-1.99,0-1.99,0c-.31,1.38.54,2.66,1.99,2.99-.91.94-3.88,3.72-4,4-.56-6.65-8.9,4.89-4,5.99-.84.91-1.68,1.65-2,2-2.65-4.86-8.49.71-2,2-1.92,2.13-4.53,6.24-6.99,8.99-2.75-.31-5.35,1.81-6,4.48l1.01.52c-2.12,2.31-4.48,7.37-7.99,8.99-1.87.87-3.74-2.09-3,4-.62.69-1.35,1.32-2,2l-2.99-1c-.22,1.22.28,2.94,0,4-1.02,3.76-4.48,6.53-4.93,7.76-3.83,10.5-2.41,28.06,3.95,37.45,5.01,7.39,43.47,39.67,52.55,46.53,2.71,2.05,10.99,7.45,13.93,8.1,6.2,1.38,24.51.98,30.42-.94.63,1.45,1.34,2.34,3,1.99l-1-2.99c2.98-1.35,8.87-5.84,11.99-7.99l2.99,3.99c-2.51-4.29,1.06-4.04,1.09-4.58.04-.71-1.08-1.26-1.09-1.41-.1-4.83,2.96-3.71,5-5.99,5.03,2.15,6.08-.5,1-2,12.23-14.61,28.2-35.03,42.02-47.41,5.14-4.61,12.61-13.43,17.93-19.51,3.89,1.92,6.12.61,2-2,4.3-4.96,8.79-11.13,12.99-15.98l3-3c3.32-.89,1.5,2.58,2,3,2.44,2.05,7.49-5.1.99-4.01,1.08-1.19,1.35-2.69,2-3.99,1.41-.03,3.29,1.41,4.99.99l-1.99-4.99c7.44-10.33,14.52-18.14,7.99-31.96h-1c.09-.97-.15-2.1,0-3,.02-.11,1.7-1.27.99-1.98-.3-.3-1.74.19-1.99-.02-3.33-2.74-5.43-7.34-8.48-10.01-3.67-3.22-12.7-8.58-14.51-12.96-1.49-3.63-.49-.99-3-2-.69-.28-2.44-1.47-3-2-.72-.68-2.15-2.17-3-3-1.34-1.31-2.68-2.66-4-4-.92-.93.75-.96-3-3-.65-.35-1.35-.63-2-1-.44-2.85-3.21-5.5-6-5.99-1.02-.98-2.01-2.06-3-3l-1-7.99-3.99,3.99c-2.15-1.96-8.99-8.15-10.99-8.99-.67-.28-2.46.29-3,0-.09-.05.04-.66,0-1-.1-.85.4-2.16-.17-2.81-1-1.16-12.2-3.83-14.44-4.06-3.52-.37-10.58-.63-13.93-.2-1,.13-1.47,1.37-4.44,2.07l-.51-.99c-2.47-.59-1.09,1.44-1.49,1.99-1.57,2.14-7.65,5.94-10.04,8.43-3.61,3.76-6.46,9.21-10.94,12.55.09-.44.3-5.43-1.98-3.97-1.43.91-3.76,6.99-2.02,8.97-.75.92-1.42,1.36-2,2-3.12.08-4.54-1.08-3.99,2.49.1.67.98.45.99.5.17,1.62-4.52,6.46-6,7.99l-1.38.03c-1.09-.9-.05-2.4-1.61-2.02v4.99c-1.51,1.14-.57,1.97-4.01,2,1.06-4.65,1.21-2.1,1.94-3.04,1.17-1.51-2.78-2.91-2.94-4.95,1.92-1.98,4.52-6.23,6.99-8.99,2.02.1,2.97-1,3-3,1.36-1.55,2.6-3.48,4-4.99,2.12.24,2.24.12,2-2,1.39-1.54,3.02-4.55,3.25-4.75.83-.73,2.57-.08,2.75-.25-1.06,1.06.88,3.11,1.99,1.99s-.93-3.05-1.99-1.99c.16-.15,1.89-2.8,2-3l6-1-1.01-5.99c9.71-9.78,13.09-11.02,26.98-12.99,1.86,1.68,7.13,1.68,8.99,0,6.13,1.09,13.4,2.89,18.99,5.99-.38,3.06,1,4.37,4,4,.24.36.81.64,1,1,.29.54-.6,1.67.5,2.01,3.43,1.06,2.14-1.39,2.5-2.01,1.04-1.78,2.69-3.25,4-4.99,3.25.88,5.04-3.34,6-5.99.7-.67,1.03-1.2,2-2,1.98.08,3.08-.97,3-3,.71-.44,1.15-.73,2-1-.75,3.92,3.1.41,6,1,.58.42,3,.51,4,1-.21,2.02,2.1,4.46,3,2,2.05,1.29,3.53,3.03,5,4-1,7.84,8.61,3.15,9,11.48l2-1.49c1.05.96,4.67,4.02,6,4.99-.5,2.45.86,2.2,3,2,.26.13.73-.13,1,0,1.03,7.34-2.98,15.03-10.99,14.98.47-2.91-.73-1.83-3-2-.79-.06-2.48.35-2.87-.09-.33-.37-.28-3.72-.13-3.91.27-.32,2.96,1.25,1.99-2.99-3.28-.98-1.47,2.42-1.99,2.99-1.37,1.5-6.32-4.39-9.35-4.04-.46.05-5.8,6.44-6.09,7.09-2.41,5.32,1.72,3.51,4.03,5.88,1.22,1.25,1.01,3.01,1.74,3.8.99,1.07,7.65,4.88,9.73,6.71,1.44,1.27,1.81,3.41,1.97,3.52,2.12,1.49,6.02-4.77,6.96-5.98,2.58.11,3.27-1.66,3-4,.28-.38.72-.65,1-1,5.18,2.69,5.27-.73,4-4.99,2.14-2,2.21-3.14,3-4,.82-.9,1.97-1.89,3-3,.32-.34.68-.66,1-1,2.34-2.47,7.28-6.49,8.99-8.99.22-.32.91-.62,1-1,1.14.65,2.7,1.24,4,1,.34,1.33.66,2.67,1,4-7.95,9.05-15.24,19.54-23.46,28.99-4.04,4.65-8.62,4.42-.53,10.96-.75,4.77,1.33,2.24,3,3,3.37,1.54,8.92,9.96,10.03,13.45,4.51,14.15.98,26.32-8.03,37.5-1.28,1.59-4.7,5.62-6,6.99-.28.29-.78.91-1,1-2.6,1.1-1.61-1.7-3,2-1.2,3.2-1.35,3-4,4.99-.2.15-1.36-.33-1.84.16s0,1.64-.16,1.84c-3.73,4.88-8.11,10.57-11.99,14.98-.07.08-1.23-.19-2,.72-1.46,1.73-3.43,4.07-3.99,6.27-3.8,1.89-2.99,2.53-5,4.99-1.1,1.36-3.66,2.34-4,4.99-.6.13-1.33.75-2,1-3.51,1.34-1.15.88-2,2-2.45,3.2-5.63,6-7.99,8.99l-2.51-1.98c-.34,1.21.61,2.47.51,3.98-.02.35.08.73,0,1-3.04-.39-4.29.96-4,4-4.06,4.49-8.53,10.05-12.99,13.98-.81.72-.8-1.54-2,2-1.79,5.27-26.15,30.08-32.28,33.16-1.92.96-3.93,1.11-5.7,1.8-.46.18-1.55-.31-2.26.04l-3.73,3.96c2.57-.4,7.49,1.56,6.99-1.99,54.77-.59,110.07.88,164.34-.04,3.07-.05,20.68.71,21.52.04,1.44-1.16-.21-1.77-1.26-2.23-3.02-1.32-16.18-6.15-17.72-7.75-.16-.17.31-1.44-.13-1.92-.67-.72-1.76.92-1.86.92-3.46.02-3.39-2.23-4.82-2.89-5.74-2.63-12.31-4.08-17.17-8.1-.8-2.59-1.29-5.26-1-7.99.06-.59-.14-1.87,0-2,.86-.78,1.07,1.76,2-2s1.74-4.18,3-6.99c5.39.57,2.11-1.52,2-3-.21-2.77,8.61-20.74,10.99-22.97.16-.15,1.51.34,1.87-.1.56-.68-.08-2.86.13-3.9.15-.79.5-2.6,1-3,.28-.23,1.77.26,1.99,0,.3-.35-.21-2.22,0-2.99.28-1,.26-2.16,1-3,.13-.15,1.71.57,2.05-.65s-.31-3.07-.05-4.34c.01-.07.87-.93,1-1,.14-.07,2.84-.99,3-1,1.57-.1,3.43.7,5,1-.76,5.17,5.02,3.86,8.99,4.99,1.06.3,1.97.62,3,1-.63,2.82,2.1,2.25,4,3,1.04.41,5.8,1.75,6,2,.66.82-1.57,1.79,2,2,.99.06,2-.04,3,0-.15.58.16,1.44,0,2s.16,1.44,0,2c-.14.47-1.99,1.85-2,3-5.18,1.48-3,2.1-4,3s-2.52,2.63-3,3c-.28.21-1.68-.28-2,.02-.64.61,1,1.87,1,1.98,0,2.4-1.23,2.66-2,4-2.96-.36-6.04,2.41-2,2-1.8,3.18-3.67,9.17-6,11.99-.26.31-1.76-.61-2,.51-.55,2.48,1.47,1.1,2,1.49,3.69,2.71,14.37,6.42,14.99,6.99.7.65-1.77,1.41,2,2,.59.09,1.86-.16,2,0,.38.43-.96,2.61,1.49,1.99.7-.18.45-.98.51-.99,1.2-.11,7.69,4.13,8.99,4.99l1,4c-.61,5.4-1.08,10.61-2,15.98-.02.14-.98.5-.95,1.39l.95.61,141.9,1c1.12-6.17-1.58-12.25-2-17.99,0-.12,1.35-1.09.99-1.99-.58-.12-1.83.17-1.99,0-.1-.11-.07-2.37,0-3,.01-.11,1.4-.92.99-1.99-.57-.11-1.88.15-1.99,0-.27-.36-.88-7.58-1-8.99,0-.12,1.35-1.09.99-1.99-.57-.11-1.87.15-1.99,0-.15-.2-.06-4.13,0-4.99,0-.11,1.39-.94.99-1.99-.58-.11-1.86.16-1.99,0-.13-.15-.1-3.31,0-4,.02-.16,1.4-.91.99-1.99-.58-.12-1.83.17-1.99,0-.1-.11-.07-2.37,0-3,.01-.11,1.4-.92.99-1.99-.57-.11-1.88.15-1.99,0-.23-.33-.99-7.16-1-7.99,0-.16,1.77-2.06,1-2.99-.2-.24-1.48.18-2,0-1.2-.43-3.86-.84-4-1-.29-.34.31-2.63,0-3-.21-.25-1.7.23-2,0-.28-.21-.63-3.1-1-4,4.43,1.28,3.77-1.85,4-2,1.57-1.02,14,1.11,17.03-.46,1.35-.85,0-4.11.34-6.55.19-1.35.93-3.32,1.34-4.81.47-1.72-.64-3.76,2.27-3.17.9,4.95,2.36,9.86,2,14.99l10.98-1.02c-.92-12.72-4.03-25.31-5.98-37.95,1.91-1.72,1.67-4.83-1-4-.69-4.87-1.72-11.26-2-15.98-.03-.53,3.09-3.58-1-3-3.51-22.3-7.35-44.64-10.99-66.93l.99-1.99c-.57-.11-1.88.15-1.99,0-.45-.61-1.59-12.56-2-14.98-.02-.13.38.09,0-2-5.31-29.24-10.19-58.53-14.99-87.9,1.91-1.72,1.67-4.83-1-4-.6-3.74-2.38-9.7-2-12.99.07-.57,2.94-2.37-1-2-1.1-11.71-4.25-23.14-5.06-34.91-.96-.27-1.97.03-2.93-.06l-1-8.99c1.31-.08,2.64.2,3.94-.05,2.59-8.24.07-16.49-.04-24.42-.28-20.31.07-41.53.05-61.88-.02-12.5,2.89-26.79-5.42-37.54-15.72-20.34-50.26-17.38-66.48,1.03-3.1-.41-3.34-.05-3,3l-2.98-1c-.16,1.63.19,3.38,0,4.99-1.19,9.51-4.2,14.43-6,21.98l-.51-.99c-2.53-.4-2.31,2.66.51,1.99-1.79,7.44-2.94,15.3-5,22.97-3.96-1.18-4.55,3.52-1,3-.67,2.38-3.33,15.5-4,15.98-.32.23-1.76-.22-1.99,0-.6.6.99,1.88.99,1.99.41,7.29-6.94,24.14-8.99,31.96-3.01-5.95-5.69,3.25,0,2-1.73,6.62-3.25,13.35-5,19.98-2.64-.52-2.69,1.08-1,3-.74,2.69-3.33,16.42-4,16.98-.43.36-3.69-.91-1,2-.28,5.71-5.87,18.59-5.03,23.45.58,3.38,4.22,2.71,7.03,2.52l2,9.99c-1.63.08-4.66-.46-5.79.21-.48.28-1.19,2.65-1.87,3.56s-2.16,1.27-2.3,1.93c-3.35,14.92,13.64,25.67,24.47,14.3,3.23-3.39,3.87-5.88,3.54-10.55-.8-11.42-5.04-9.34-14.05-9.44-.39-6.79,6.09-2.15,10.47-3,2.54-.49,3.91-4.09,7.52-2.99.04.18,1.23.96,1.5,1.96,1,3.76,5.46,17.37,3.49,20.02-.59.79-1.07-1.85-2,2-1.21,4.99-3.93,7.77-7.99,10.99-2.15,1.7-1.02.96-2,2s-6.24,1.71-7.99,2c-.66-1.57-4.34-1.57-5,0-6.79-1.03-9.37-4-13.99-4.99.77-2.69-1.79-1.78-2-2-.4-.42-1.96-2.65-2-3-.03-.27,2.69-3.91-1.49-4.01-.86-.02-1.14,3.1-1.51,4.01-.5.16-2.59,1.58-3,2l-2.51-.98c-.56.77.42,1.9.51,2.97-3.4,1.26-1.33,1.31-2,2-1.29,1.33-.73-1.76-2,3-.25.95-.8,1.74-1,3-2.66-.75-2.09,2.02-3,3-.32.34-.68.65-1,1-.69.75-2.41,1.31-3,2-3.89-1.92-6.12-.61-2,2-.19.23-2.77,4.51-3,4.99-.27.56-.99,1.62-1,2-.92.55-1.93.86-3,1,.38-1.63.65-3.35,1-4.99-3.17-.81-10.64,8.5-8.99,9.98,3.11,2.76,3.55-4.43,4.15-4.86.75-.54,2.75,0,3.84-.13-.31,1.34-.8,2.63-1,4-4.72.41-1.96.86-3.36,2.58-1.91,2.36-4.07,5.55-5.63,7.41-.46.55-1.29,1.18-2,2-3.29,3.82-6.69,6.47-9.99,9.99-5.04-.03,1.31-3.27,1.01-6.48-.08-.87-1.8-.66-1.99-.5-.35.29-4.82,7.19-4.94,7.63-.43,1.64,3.19,1.42,1.92,4.35-.41.36-.7,1.88-1,2-.64.25-2.36-.4-2.92.09-.41.35.09,1.55-.08,1.9-.66,1.41-1.29,1.93-2,3-1.36.56-5.65-1.35-5.98-1-.28.28.39,3.56-2.01,4-.25-1-.99-2.84-1-3-.1-2.21.67-3.39,2-4.99.63-.13,1.52-.98,2-1,.93-.03,3.51,1.45,3.99,1,.27-.24,1.43-6.14,0-7,.7-.69,1.02-1.22,2-2,2.44-1.96,1.61.12,4-4,.81-1.4,1.47-2.12,2-3,3.4-.46,5.55-3.86,6-6.99.33-.35.67-.66,1-1,1.9.34,2.32-.11,2-2,.95-1.1,2-2.72,3-4,3.44.1,3.05-2.54,4-4,1.99-3.03,3.17-3.72,5-5.99,1.76.3,2.33-.24,2-2,.36-.33.61-1.44,1-2,3.39-.54,4.88-3.07,6-5.99.1-.27-.08-.66,0-1,2.43.79,1.85-1.9,2-2,.27-.17,2.17,0,3,0,1.1,4.46,4.25,1.24,3,0-1-.04-2-.01-3,0-.2-.82.14-2.06,0-3,2.23-2.57,3.98-4.81,6-6.99,2.6.71,1.76-1.76,2-2s2.7.57,2-2c2.38-2.72,4.97-7.27,6-10.99,3.16.64,1.57-1.42,2-2,.37-.5,4.86-1.03,6-1.01.92-4.03-3.76-.73-3.99-.99-.14-.16.26-2.26,0-3.99-.13-.81.21-2.76,0-3,.24-2.12.13-2.24-2-2-1.02-3.11-1.4-5.73-1-8.99,2.36.3,2.71-.27,1-2,.45-2.01,1.21-5.21,2-6.99.39-.88,2.05-4.65,2.26-4.81.64-.48,2.58.22,2.78-.69.64-2.94.23-4.06-3.04-3.49.1-.58-.03-1.34,0-2,4.03.47,1.13-1.98,1-3-.07-.59-.06-1.4,0-2,2.37.3,2.7-.26,1-2,.29-1.66.69-3.32,1-4.99,4.25.36,1-2.72,1-3-.02-.9.77-3.6,1-4.99,2.95.83,2.03-3.02,2.76-5.41l-.76-.58c.99-4.01,2.18-7.93,3-11.99,3.81.7,1.91-3.91,2-4.99.08-.98-.14-2.07,0-3,3.05.06,2.51-1.42,3.02-3.48,1-4.06,2.89-10.65,1.98-14.5,1.03-3.95,1.94-8.05,3-11.99,2.52,1.21,3.57-5.65,2-6.99.48-1.77,1.53-3.22,2-4.99l.97-1.39-.97-.61c1.4-5.34,2.76-10.58,4-15.98.56-.03,1.7.23,1.93-.05.24-.32,1.84-7.09,1.92-7.75.17-1.51-.84-2.06-.85-2.19-.03-.66-.02-1.34,0-2,2.13.24,2.23.12,2-2,.07-.07.05-1.51,0-2l1-3c.37-1.19-.27-3.55,0-4.99,3.79.67,1.93-3.79,2-4.99.04-.66-.05-1.34,0-2,3.05.62,1.82-1.5,2-4,.09-1.29-.2-2.81,0-4h5s-1-4.99-1-4.99c1.15-1.79.84-2.43,3-4.99,1.91.34,2.32-.1,2-2,1.85-2.08,3.13-3.18,5-4.99,3.97.33,3.56-2.53,4-3,.32-.34.69-.64,1-1,2.14-.27,5.63-.12,5-3,1.3-.4,2.66-.75,4-1,.08-.01.7.8,1.32.68,2.64-.5,9.66-1.24,8.67-3.68,2.88-.25,6.05.08,8.99,0ZM532.48,310.73h-4.99v1.99h4.99v-1.99ZM497.51,329.7c1.13-1.16-.43-3.21-1.99-.49-.13.87,1.92.56,1.99.49ZM582.44,344.69h-1.99v4.98h1.99v-4.98ZM472.03,422.6v1c.65-.33.65-.67,0-1ZM445.05,533.48v1c.65-.33.65-.67,0-1ZM469.53,541.47c-1.09-1.09-3.08.9-1.99,1.99s3.08-.9,1.99-1.99ZM428.56,549.46c-1.09-1.09-3.08.9-1.99,1.99s3.08-.9,1.99-1.99ZM409.57,572.44c-1.09-1.09-3.08.9-1.99,1.99s3.08-.9,1.99-1.99ZM406.57,575.43c-2.21-.82-4.65,4.18-3.99,4.98,1.36,1.65,4.57-4.37,3.99-4.98ZM342.63,604.4c-.13-.12-1.12.2-1.68-.31-3.25-2.93-12.61-12.15-15.96-13.53-4.61-1.9-.85,3.91.72,5.28,1.22,1.06,3.09,1.4,4.43,2.56,2.92,2.52,13.81,12.9,16.13,13.84,5.82,2.37-1.71-5.91-2.65-6.84,2.78-3.4-1.4-4.87-1-1ZM264.68,594.42h-4.99v.98h4.99v-.98ZM603.43,596.41c-1.77-2.01-2.32,2.6-2.99,3.98,3.17,1.66,4.01-2.83,2.99-3.98ZM317.64,615.38c.33.35-.62,1.76.51,2,2.49.54,1.09-1.43,1.49-2,.29-.41.82-.71,1-1l.51.99c2.54-.41,3.76-2.54.49-1.99.61-.99,3.96-6.94,3.89-7.35-.22-1.3-8.57-7.94-10.18-7.53-1.29.33-6.79,7.3-6.63,8.24.26,1.51,7.41,7,8.92,8.63ZM330.63,601.41h-3.99v.98h3.99v-.98ZM351.61,604.4h-3.99c-1.21.55,3.44,2.53,3.99,1.99v-1.99ZM220.22,631.37v1c.65-.33.65-.67,0-1ZM352.61,637.37c-1.09-1.09-3.08.9-1.99,1.99s3.08-.9,1.99-1.99ZM351.12,641.36v1c.65-.33.65-.67,0-1ZM198.73,653.35h-1.99v2.99h1.99v-2.99ZM614.41,656.33c.72-1.4-.63-2.67-.98-1.99-.72,1.4.63,2.67.98,1.99ZM615.42,664.33h-1.48c-1.57,1.06-1.74,2.14-1.51,3.99h2.99s0-3.99,0-3.99ZM366.6,686.3c-.05-2.48.12-5.01,0-7.5-.05-1.21.76-3.71-.99-3.48.05,2.48-.12,5.01,0,7.5.05,1.21-.76,3.71.99,3.48ZM620.41,703.29c-1.09-1.09-3.08.9-1.99,1.99s3.08-.9,1.99-1.99ZM141.76,722.26c.42-.45,1.07-3.96,1-4.99-2.3.64-2.12,3.17-1.98,4.99.32-.05.85.14.98,0ZM322.64,741.25c-2.5-.73-2.56,1.77-2.98,3.98,1.15-.63,3.93-3.04,2.98-3.98ZM426.56,744.25c-1.4-.72-2.67.63-1.99.98,1.4.72,2.67-.63,1.99-.98ZM415.57,762.22l-1.38.03c-1.1-.89-.04-2.4-1.61-2.02-.06,2.14-1.75,4.23.99,4.99-1.74,3.44-6.78,16.93-9.02,18.5-.68.48-1.17.51-1.97.48-.44-.02-2.98-2.38-2,.49.34,1,1.25.39,2,.51,1.27,3.6-5.75,11.3-3.92,13.91.37.53,10.24,3.25,12.15,4.13,3.52,1.62,27.47,12.66,28.74,13.92.18.18-.61,3.78,2,1,1.52.62,11.55,4.45,11.98,4l.88-15.87c-4.3-1.57-32.41-12.99-32.91-14.72-1.48-5.12,6.81-17.2,9.78-22.15.83-1.39,2.48-1.82,3.2-3.04,1.3-2.2,4.72-9.41,4.13-11.55-.22-.81-14.6-6.74-15.4-6.5-2.15.64-6.31,11.26-7.66,13.9ZM601.43,761.22c-1.56,1.74-1.71,2.21,1,2l10,57.93h69.94c1.16,1.52,2.45,1.51,2-.48-.25-1.12-1.75-.2-2-.51-2.22-2.66-4.46-7.69-5-10.99-.1-.6.19-1.8,0-2-.17-.17-1.4.06-2,0-11.29-1.11-25.87.44-36.39-1.08-3.03-.44-5.44-2.35-8.3-3.17l-8.7-43.76c-1.5-2.22-18.38-.36-20.55,2.06ZM145.77,764.22c-1.09-1.09-3.08.9-1.99,1.99s3.08-.9,1.99-1.99ZM406.57,772.21c-1.09-1.09-3.08.9-1.99,1.99s3.08-.9,1.99-1.99ZM432.55,777.21c-1.09-1.09-3.08.9-1.99,1.99s3.08-.9,1.99-1.99ZM634.4,792.19c-1.09-1.09-3.08.9-1.99,1.99s3.08-.9,1.99-1.99ZM608.42,811.16c.5-4.15-1.48-4.15-.98,0h.98ZM682.37,824.15h-62.95v1h62.95v-1ZM118.79,830.16h-5.99v.98h5.99v-.98ZM141.78,830.14h-15.99l13.46,2.04,2.53-2.04ZM191.74,830.14h-39.97v2h39.97v-2ZM204.72,830.15c-1.09-1.09-3.08.9-1.99,1.99s3.08-.9,1.99-1.99ZM246.7,830.14h-14.99c-1.07,3.18,6.55,2.16,8.54,2.04,1.74-.1,5.96.18,6.45-2.04ZM250.69,830.15c-1.09-1.09-3.08.9-1.99,1.99s3.08-.9,1.99-1.99ZM278.67,830.14h-16.99c-.6,2.97,1.39,1.91,3.53,2.04l13.45-2.04ZM304.65,830.16h-3.99v.98h3.99v-.98ZM383.6,830.14h-63.95v1h63.95v-1ZM409.57,830.15h-2.99v1.99h2.99v-1.99ZM434.55,830.16h-4.99v.98h4.99v-.98ZM577.45,830.16h-4.99v.98h4.99v-.98ZM754.31,830.16h-4.99v.98h4.99v-.98ZM864.23,830.16h-5.99v.98h5.99v-.98ZM224.71,831.15c-3.15.07-6.34-.14-9.5-.01-1.21.05-3.72-.75-3.48.99,3.15-.07,6.34.14,9.5.01,1.21-.05,3.72.75,3.48-.99Z"/>
    <path class="cls-11" d="M590.77,234.19c-2.04,2.32-2.59,2.43-4.27,4.16-8.08,8.31-1.83,17.71-4.07,26.75-.19.77-1.9.58-1.96,1.28-.7,8.6-3.93,14.17-10.98,19.91-22.5,18.33-52.96,8.76-61.47-18.55-2.06-6.62-2.68-32.21-.89-38.83.58-2.16,2-2.15,2.28-2.87,2.72-7.02,2.94-9.96,8.5-15.81,2.28-2.4,7.99-7.1,11.67-8.78,12.54-5.71,33.43-2.37,47.23-.48,2.93.4,17.23,2.42,18.61,3.37,5.88,4.05,1.72,21.28-1.32,26.66-.97,1.73-2.36,2.06-3.36,3.19ZM550.47,238.81h-2.99v1.99h2.99v-1.99ZM527.49,280.76c.32,2.85,3.99,3.5,6,4,12.66,3.12,21.57,1.95,31.5-6.97,9.27-8.33,10.65-21.07,8.53-32.55-10.64.56-23.64-6.44-32.52,1.58-7.38,6.66-4.34,17.4-7.77,25.2-1.07,2.44-6.05,5.95-5.74,8.75ZM532.48,264.78h-1.99s0,3.98,0,3.98c.55,1.21,2.53-3.43,1.98-3.98Z"/>
    <path class="cls-3" d="M245.45,490.77c6.86-1.74,15.95.44,17.17,8.3,3.82,24.56-29.58,19.36-24.67.18.66-2.58,4.75-7.79,7.5-8.48Z"/>
    <path class="cls-11" d="M667.76,331.07c7.07-11.32,28.62-3.48,22.3,12.81s-32.35,3.28-22.3-12.81Z"/>
    <path class="cls-3" d="M913.2,834.14h-168.87c55.7-1.59,113.19-2.19,168.87,0Z"/>
    <path class="cls-3" d="M623.42,833.14c.67,0,1.33,0,2,0,16.97-.02,33.99,0,50.96,0,2.33,0,4.67,0,6.99,0,17.28,0,34.68-.34,51.96,0,1.6.03,4.16-.6,5,1-43.33,1.23-87.81,1.89-131.44,1.03-1.9-.04-3.89.47-5.46-1.03,6.01,0,13.39-.99,19.99-1Z"/>
    <path class="cls-3" d="M388.59,834.14h-121.91c40.23.04,81.68-.01,121.91,0Z"/>
    <path class="cls-3" d="M261.69,834.14h-93.93c30.93,0,62.99-.03,93.93,0Z"/>
    <path class="cls-3" d="M574.45,834.14h-89.93c29.57-.01,60.47.03,89.93,0Z"/>
    <path class="cls-3" d="M160.76,834.14h-70.95c23.62-1.83,47.41,0,70.95,0Z"/>
    <path class="cls-3" d="M482.52,834.14h-56.96c18.59,0,38.46,0,56.96,0Z"/>
    <path class="cls-3" d="M84.82,828.15c1.47,1.08-.05,2.7,2.03,2.58,8-.48,15.93-.85,23.95-.57,1.62,1.23-.02,1.81-1.48,1.99-5.38.69-12.35-.23-18.05,0-1.92.08-4.01-1.03-3.45,2-4.59.11-4.4-2.46-3-5.99Z"/>
    <path class="cls-3" d="M210.72,635.36c.16,2.04,4.11,3.44,2.94,4.95-.73.94-.88-1.61-1.94,3.04-2.34.02-4.6-1.29-6.99-1,0-.23-1.62-.34-.1-2.49,1.84-2.59,5.27-3.66,6.09-4.5Z"/>
    <path class="cls-3" d="M463.54,432.59c.9-6.1,3.46-12.06,5-17.98.91,3.86-.98,10.44-1.98,14.5-.51,2.05.03,3.53-3.02,3.48Z"/>
    <path class="cls-3" d="M132.78,751.23c-1.69-4.78-1.68-12.27,0-16.98.72,7.42.13,10.45,0,16.98Z"/>
    <path class="cls-10" d="M606.43,831.14c1.24.04,3.69.88,6,1s4.67-.06,6.99,0c1.31.03,3.3-.5,4,1-6.59,0-13.97,1-19.99,1-1,0-2,0-3,0-.64-1.81,1.52-2.78,3-3,.87-.13,2.06-.03,3,0Z"/>
    <path class="cls-3" d="M239.7,601.4l1.01,5.99-6,1c.62-1.11.32-3.33,2.13-5.41,1.25-1.43,2.69-1.41,2.87-1.58Z"/>
    <path class="cls-3" d="M609.43,615.38c-1.93-3.69-3.23-10.52-2-13.98,1.21,6.1,2.04,7.42,2,13.98Z"/>
    <path class="cls-3" d="M592.44,511.5c-.56-.06-1.83.2-1.97-.01-.25-.35-1.08-7.44-1.11-8.53-.04-1.33,1.09-2.32,1.09-2.45,1.98,3.17,1.85,7.41,2,10.99Z"/>
    <path class="cls-3" d="M918.2,826.15c.13,0,1.23-.9,2.48-1.05,5.43-.63,6.09,5.8,2.52,8.04-.09-5.11,1.62-6.53-4.31-6.19l-.69-.8Z"/>
    <path class="cls-3" d="M451.54,480.54c3.27-.57,3.68.55,3.04,3.49-.2.9-2.14.2-2.78.69-.21.16-1.87,3.93-2.26,4.81l-.75-.58c0-4,2.13-4.95,2.75-8.41Z"/>
    <path class="cls-3" d="M594.44,526.48c-1.28-5.49-1.6-6.53-2-11.99,1.48,3.04,3.59,9.1,2,11.99Z"/>
    <path class="cls-3" d="M337.63,590.41c.33.22,2.01-.45,2.8.16.53.41,6.94,8.69,8.19,9.83l-2,1.49c-.39-8.33-9.99-3.64-9-11.48Z"/>
    <path class="cls-10" d="M588.44,834.14c.09-.92-.54-1.74.63-2.02,2.01-.47,10.95-.82,9.36,2.02-3.32.03-6.67.02-9.99,0Z"/>
    <path class="cls-3" d="M386.59,591.41c1.42.85.26,6.75,0,7-.48.44-3.06-1.04-3.99-1,.99-2.69,1.97-4.01,4-5.99Z"/>
    <path class="cls-3" d="M493.51,328.7l1,4.99h-5c.75-4.52,3.81-4.7,4-4.99Z"/>
    <path class="cls-3" d="M198.73,826.15c-.23,0-2.26,1.02-4.5,1.07-1.37.03-3.79.38-4.5-1.07,1.92-.08,6.23-2.78,8.99,0Z"/>
    <path class="cls-3" d="M482.52,362.67c0,.12,1.02.68.85,2.19-.07.66-1.67,7.43-1.92,7.75-.22.29-1.37.02-1.93.05.75-3.26,1.14-7.12,3-9.99Z"/>
    <path class="cls-3" d="M275.68,588.41c-1.86,1.68-7.13,1.68-8.99,0,4.87-.69,3.83-.92,8.99,0Z"/>
    <path class="cls-3" d="M449.55,512.5c.27,1.74-.13,3.83,0,3.99.23.27,4.91-3.04,3.99.99-1.14-.02-5.63.51-6,1.01-.43.58,1.16,2.63-2,2,1.05-3.79,1.25-1.23,2-2,.33-.34.12-5.1,2-5.99Z"/>
    <path class="cls-3" d="M400.58,575.43c-.44,3.13-2.6,6.53-6,6.99,3.14-5.23,2.8-3.59,6-6.99Z"/>
    <path class="cls-3" d="M527.49,305.73c.99,2.44-6.03,3.17-8.67,3.68-.62.12-1.24-.69-1.32-.68,2.63-1.9,6.82-2.72,9.99-3Z"/>
    <path class="cls-3" d="M142.77,771.21c4.81-1.2,4.38,2.41,6,5.99-3.4-1.72-4.32-2.89-6-5.99Z"/>
    <path class="cls-3" d="M312.65,588.41c-.95,2.65-2.75,6.87-6,5.99,3.07-4.1,3.4-3.48,6-5.99Z"/>
    <path class="cls-3" d="M424.57,548.46c-1.11,2.92-2.61,5.45-6,5.99,1.45-2.09,2.08-5.77,6-5.99Z"/>
    <path class="cls-3" d="M137.78,764.22c2.83-.24,3.85,3.9,5,5.99-4.05-.12-3.8-3.76-5-5.99Z"/>
    <path class="cls-3" d="M206.73,824.15c.97.26,6.23-.62,3.99,1.98-1.68,1.96-5.65.01-5.99.02l2-2Z"/>
    <path class="cls-3" d="M319.64,582.42c1.76-.55,2.82-1.71,5.35-1.03,1.1.29.54,1.95.65,2.03-2.89-.59-6.74,2.92-6-1Z"/>
    <path class="cls-3" d="M645.4,798.18c-.94.06-3.48,1.75-6.37,1.04-1.23-.3-.42-1.54-.62-2.04,2.34.07,5.05-.68,6.99,1Z"/>
    <path class="cls-3" d="M616.42,654.34c-1.53-1.58-3.09-5.49-1-6.99.4,2.77.81,3.83,1,6.99Z"/>
    <path class="cls-3" d="M632.41,744.24c-2.29,1.08-2.83-3.52-2.86-5.54,0-.8.86-1.35.86-1.46,1.7,1.85,1.57,4.69,2,6.99Z"/>
    <path class="cls-3" d="M473.53,395.63c1.57,1.34.53,8.2-2,6.99.63-2.36,1.38-4.69,2-6.99Z"/>
    <path class="cls-3" d="M632.41,752.23c-1.61-.95-1.64-4.99,0-5.99.38,3.52,0,3.66,0,5.99Z"/>
    <path class="cls-3" d="M458.54,452.57l.76.58c-.73,2.39.19,6.25-2.76,5.41.49-2.95,1.57-4.27,2-5.99Z"/>
    <path class="cls-3" d="M136.78,722.27c-.66,1.84.27,5.65-3,4.99-.01-2.03.37-5.71,3-4.99Z"/>
    <path class="cls-3" d="M463.54,435.59c-.09,1.09,1.81,5.7-2,4.99.36-1.76-.72-4.22,2-4.99Z"/>
    <path class="cls-3" d="M387.59,603.4c-3.18,4.78-5.04,4.76-6.99,6.99-.34-1.33-.66-2.66-1-4-1.3.24-2.86-.34-4-1,.08-.31-.08-.69,0-1l3-1c0,.16.75,2,1,3,2.41-.44,1.73-3.72,2.01-4,.34-.34,4.62,1.57,5.98,1Z"/>
    <path class="cls-3" d="M294.66,594.41c3.36,1.86,2.53,1.79,4,4-3,.38-4.38-.94-4-4Z"/>
    <path class="cls-3" d="M584.45,366.66c-1.58-.66-1.58-4.34,0-4.99.02,1.47-.01,3.61,0,4.99Z"/>
    <path class="cls-6" d="M671.38,617.38c0-1.44-.03-3.47,0-4.99,1.58.66,1.58,4.34,0,4.99Z"/>
    <path class="cls-3" d="M392.59,585.42c-2.39,4.12-1.55,2.04-4,4,.26-2.34,1.59-3.91,4-4Z"/>
    <path class="cls-3" d="M410.58,564.44c-.95,1.45-.56,4.1-4,4,.87-1.11.55-4.23,4-4Z"/>
    <path class="cls-3" d="M193.74,815.16c6.65.45,2.57.26,4,3-2.04-.56-4.62-.38-4-3Z"/>
    <path class="cls-3" d="M513.5,309.73c.63,2.88-2.85,2.73-5,3,2.05-2.41,2.07-2.11,5-3Z"/>
    <path class="cls-3" d="M487.52,343.69c-.07,1.2,1.79,5.66-2,4.99.34-1.76.57-3.73,2-4.99Z"/>
    <path class="cls-3" d="M632.41,754.23c.06,1.26,3.45,3.62-2,3,.15-2.28-.88-3.46,2-3Z"/>
    <path class="cls-3" d="M149.77,777.2c3.13-.48,1.55.84,2,2,2.99,1.18,2.73,2.65,3.78,3.01.9.31,2.81-.31,3.21,0,.26.2-.15,2.35,0,2.99,1.24.68,3.23-.02,3,3-1.35-.98-2.1.79-3-3-3.39-1.86-5.47-2.02-6.99-5.99-.47-.19-1.7.27-1.98-.01s.2-1.61-.02-1.98Z"/>
    <path class="cls-3" d="M558.47,308.73c2.26.77,5.75.2,5,3-2.21-.44-5.81-.49-5-3Z"/>
    <path class="cls-3" d="M540.48,305.73c-.43-.01-3.47-.01-4,0,.32-1.49,3.58-1.56,4,0Z"/>
    <path class="cls-6" d="M674.38,596.41c-.3,2.43,1.17,4.62-2,4-.19-2.47-.71-4.68,2-4Z"/>
    <path class="cls-3" d="M587.44,487.53c-1.3-.93-1.67-3.43,0-4,.42,2.72-.04,3.77,0,4Z"/>
    <path class="cls-3" d="M167.76,684.31c-.45.99,1.14,2.52-2,2,1-1.33-1.53-.65,2-2,1.41-3.13,1.48-2.19,3-4,.33,3.58-.69,3.12-3,4Z"/>
    <path class="cls-3" d="M665.39,799.18c-.92.06-4.6,3.26-4-1,1.48.05,2.83-.25,4,1Z"/>
    <path class="cls-3" d="M507.5,313.72c-.44.47-.03,3.32-4,3,.34-.33.15-3.41,4-3Z"/>
    <path class="cls-3" d="M622.42,694.3c3.18-.63,1.68,1.59,2,4-2.92.63-1.96-1.47-2-4Z"/>
    <path class="cls-3" d="M429.56,542.47c.14.94-.2,2.17,0,3,1,0,2-.04,3,0,1.25,1.24-1.9,4.45-3,0-.83,0-2.73-.17-3,0-.15.1.43,2.79-2,2,.82-3.44,1.46-1.42,2-2,.91-.98,2.74-2.7,3-3Z"/>
    <path class="cls-6" d="M671.38,636.36c3.06-.62,1.81,1.51,2,4-3,.62-1.88-1.48-2-4Z"/>
    <path class="cls-3" d="M599.43,553.45c-2.67.84-2.91-2.28-1-4,.15.89.72,2.38,1,4Z"/>
    <path class="cls-6" d="M672.38,602.4c.15,1.23,3.19,4.53-1,4,.06-1.48-.27-2.84,1-4Z"/>
    <path class="cls-3" d="M489.52,337.69c-.17,2.49,1.05,4.62-2,4,.14-1.81-.12-3.36,2-4Z"/>
    <path class="cls-3" d="M565.46,311.72c3.38.63,1.45,1.51,2,2,.22.19,1.55.12,2.5.99.66.61.35,1.86.5,2-2.84.44-2.47-2.43-3-3-.2-.21-2.75.55-2-2Z"/>
    <path class="cls-3" d="M220.72,623.38c-.03,2-.98,3.1-3,3,1.17-1.31,2.63-2.58,3-3Z"/>
    <path class="cls-3" d="M317.64,583.42c.08,2.02-1.02,3.08-3,3,.53-.43-.14-1.04,3-3Z"/>
    <path class="cls-3" d="M181.75,805.17c-1.46-1.28-2.55-2.61-3-3,2-.05,3.07.95,3,3Z"/>
    <path class="cls-3" d="M302.66,599.4c-.36.61.93,3.07-2.5,2.01-1.1-.34-.22-1.47-.5-2.01h3Z"/>
    <path class="cls-3" d="M133.78,729.26c.12,1,3.03,3.47-1,3-.1-1.06-.2-2.56,1-3Z"/>
    <path class="cls-3" d="M605.43,591.41c-1.16-.7-1.58-2.66,0-3,.46,2.57-.03,2.82,0,3Z"/>
    <path class="cls-3" d="M619.42,679.31c.66.84,1.56-2.22,2,3-2.67.47-2.04-.63-2-3Z"/>
    <path class="cls-6" d="M677.38,586.42c.04,2.36.67,3.46-2,3,.94-5.24,1.09-1.96,2-3Z"/>
    <path class="cls-3" d="M455.54,463.55c0,.28,3.25,3.36-1,3,.2-1.06-.14-2.17,1-3Z"/>
    <path class="cls-3" d="M329.64,584.42c2.08,1.02,1.83,1.26,3,2-.9,2.46-3.21.02-3-2Z"/>
    <path class="cls-3" d="M585.45,466.55c-4.07.5-1.06-2.16-1-3,1.3.48.96,1.9,1,3Z"/>
    <path class="cls-3" d="M452.54,475.54c.13,1.02,3.03,3.46-1,3,.05-1.1-.31-2.51,1-3Z"/>
    <path class="cls-3" d="M589.44,494.52c-2.36.32-2.2-.15-1.99-2.49l.99-.51c.04.27.75,1.59,1,3Z"/>
    <path class="cls-3" d="M155.77,697.29c.17,2.19.52,3.52-2,3,1.05-1.64-.88-.38,2-3Z"/>
    <path class="cls-3" d="M694.36,825.15c-.62.09-2.46,3.18-1.99-1.49l.99-.5c.15.48,1.03,1.19,1,2Z"/>
    <path class="cls-3" d="M595.44,534.47c-1.5-.14-1.5-2.86,0-3,.03.18.87.6.94,1.49.06.76-.91,1.28-.94,1.51Z"/>
    <path class="cls-3" d="M635.41,788.19c-1.17-.69-1.57-2.66,0-3,.29,2.15-.03,2.82,0,3Z"/>
    <path class="cls-3" d="M609.43,617.38c4.09-.53,1.02,2.27,1,3-1.22-.47-1.06-1.92-1-3Z"/>
    <path class="cls-3" d="M627.41,716.27c-4.01.46-1.14-1.93-1-3,1.31.48.94,1.91,1,3Z"/>
    <path class="cls-3" d="M611.43,630.37c.62.89,1.43-2.28,2,3-2.67.47-2.04-.63-2-3Z"/>
    <path class="cls-6" d="M671.38,629.37c-.01-.84.01-2.25,0-3,1.5.14,1.5,2.86,0,3Z"/>
    <path class="cls-3" d="M142.77,712.28c.16,2.21.53,3.51-2,3,1.25-2.07-.64-.5,2-3Z"/>
    <path class="cls-3" d="M163.76,688.3c.17,2.19.52,3.52-2,3,.19-.21.87-1.68,2-3Z"/>
    <path class="cls-3" d="M201.73,645.35c-.37.79-2.03,4.57-2.21,4.76-.6.62-1.64.11-1.78.24.77-3.39,1.35-3.82,4-4.99Z"/>
    <path class="cls-3" d="M357.61,607.39c-2.14.2-3.5.45-3-2,.3.22,2.83,1.91,3,2Z"/>
    <path class="cls-3" d="M484.52,356.67c-.4-3.77.6-1.7,1-3l-1,3Z"/>
    <path class="cls-3" d="M616.42,658.34l-.99-.51.99-1.49c-.01.6.05.98,0,2Z"/>
    <path class="cls-3" d="M189.74,659.34c.24,2.12.13,2.24-2,2,1.2-1.5-.91-.26,2-2Z"/>
    <path class="cls-3" d="M616.42,660.33c.72.66,1.61-1.66,2,2-2.13.24-2.23.12-2-2Z"/>
    <path class="cls-3" d="M606.43,597.4l-.97-1.4.97-.6c.4,2.23-.03,1.86,0,2Z"/>
    <path class="cls-3" d="M629.41,727.26c-2.32.33-2.76-.33-1-2,.02.11.78.25,1,2Z"/>
    <path class="cls-3" d="M226.71,616.38c.24,2.12.12,2.24-2,2,.8-.86,1.81-1.79,2-2Z"/>
    <path class="cls-3" d="M132.78,753.23c1.7-.1,2.34-.36,1.99,1.49l-.99.51c-.12-.42-.89-.93-1-2Z"/>
    <path class="cls-6" d="M679.38,581.42c.24,2.12.13,2.24-2,2,.71-3.82,1.54-1.27,2-2Z"/>
    <path class="cls-3" d="M604.43,580.42c-2.29.35-2.8-.39-1-2,.02.11.71.33,1,2Z"/>
    <path class="cls-3" d="M603.43,574.43c-2.3.35-2.79-.37-1-2,.02.11.71.35,1,2Z"/>
    <path class="cls-3" d="M626.41,710.28c-2.29.35-2.8-.39-1-2,0,.11.93.23,1,2Z"/>
    <path class="cls-3" d="M403.58,572.43c.32,1.89-.1,2.34-2,2,.46-.47,1.88-1.86,2-2Z"/>
    <path class="cls-3" d="M551.47,306.73c-1.66,1.76-2.33,1.32-2-1,1.73.2,1.89.98,2,1Z"/>
    <path class="cls-6" d="M685.37,568.44c-.39.83.99,2.58-2,2,.42-1.17-1.08-2.48,2-2Z"/>
    <path class="cls-3" d="M630.41,763.22l-.88-1.37.88-.63c.01.55-.01,1.86,0,2Z"/>
    <path class="cls-3" d="M601.43,563.44c-2.37.3-2.7-.27-1-2,.02.11.7.33,1,2Z"/>
    <path class="cls-3" d="M417.57,556.45c.33,1.76-.24,2.29-2,2,1.7-2.13.78-.89,2-2Z"/>
    <path class="cls-3" d="M193.74,654.34c.62,2.48-1.78,1.78-2,2-.24.25.54,2.72-2,2,1.74-2.72,1.38-1.36,2-2,.9-.93.36-.63,2-2Z"/>
    <path class="cls-3" d="M146.77,707.28c.32,1.9-.09,2.34-2,2,1.82-3.23,1.25-1.22,2-2Z"/>
    <path class="cls-3" d="M498.51,321.71c.32,1.9-.09,2.34-2,2,1.22-1.44,1.75-1.72,2-2Z"/>
    <path class="cls-3" d="M631.41,771.21c.54.77,1.12-1.84,2,2-2.13.24-2.24.12-2-2Z"/>
    <path class="cls-3" d="M633.41,777.2l-.99-.51.99-1.49c.09,1.17-.02,1.7,0,2Z"/>
    <path class="cls-3" d="M633.41,781.2c.62.79,1.07-1.85,2,2-2.13.24-2.24.12-2-2Z"/>
    <path class="cls-3" d="M625.42,703.29c-2.28.36-2.81-.41-1-2,.02.11.77.27,1,2Z"/>
    <path class="cls-3" d="M165.76,791.19c1.9-.32,2.34.09,2,2-1.12-.98-1.86-1.88-2-2Z"/>
    <path class="cls-3" d="M595.44,536.47c.26.23,1.77-.22,1.99,0,.62.63-.98,1.88-.99,1.99l-1-2Z"/>
    <path class="cls-3" d="M173.75,798.18c1.89-.32,2.34.09,2,2-1.15-1-1.86-1.88-2-2Z"/>
    <path class="cls-3" d="M581.45,332.7c.46.64,1.65-1.72,2,2-2.13.24-2.24.12-2-2Z"/>
    <path class="cls-3" d="M439.55,531.48c.7,2.57-1.77,1.77-2,2s.6,2.71-2,2c.74-.81,1.82-1.79,2-2,.89-1,1.88-1.86,2-2Z"/>
    <path class="cls-3" d="M188.74,811.17c2.51-.65,1.77,1.77,2,2,.24.24,2.72-.54,2,2-3.3-.46-1.5-1.52-2-2-.15-.15-1.31.21-1.75-.24-.6-.61-.15-1.67-.25-1.76Z"/>
    <path class="cls-3" d="M447.55,507.51c2.13-.24,2.24-.12,2,2-.68-.77-.77,1.73-2-2Z"/>
    <path class="cls-3" d="M590.44,498.52c-2.26.37-2.84-.45-1-2,.02.11.97.27,1,2Z"/>
    <path class="cls-3" d="M447.55,496.52c1.71,1.73,1.36,2.3-1,2,.21-1.71.97-1.89,1-2Z"/>
    <path class="cls-3" d="M92.81,826.15l-.51.99-1.49-.99c.78-.03,1.85,0,2,0Z"/>
    <path class="cls-3" d="M587.44,481.53c-2.29.35-2.8-.39-1-2,.01.11.75.3,1,2Z"/>
    <path class="cls-3" d="M159.76,693.3c.24,2.12.12,2.24-2,2,.59-.62,1.49-1.47,2-2Z"/>
    <path class="cls-3" d="M453.54,471.55c1.7,1.73,1.37,2.3-1,2,.17-1.72.98-1.89,1-2Z"/>
    <path class="cls-3" d="M622.42,692.3l-.99-.51.99-1.49c.12,1.23-.01,1.87,0,2Z"/>
    <path class="cls-3" d="M484.52,358.67c.24,2.12.13,2.24-2,2,.08-3.55,1.34-1.39,2-2Z"/>
    <path class="cls-3" d="M619.42,669.32c-2.29.35-2.8-.39-1-2,.02.11.83.24,1,2Z"/>
    <path class="cls-6" d="M675.38,650.35c-.11-.15-1.42.1-1.99,0-.35-.9,1-1.87.99-1.99l1,2Z"/>
    <path class="cls-3" d="M619.42,675.32l-.99-.51.99-1.49c.12,1.3-.02,1.71,0,2Z"/>
    <path class="cls-3" d="M181.75,668.33c.32,1.89-.09,2.34-2,2,1.07-1.24,1.88-1.85,2-2Z"/>
    <path class="cls-3" d="M475.53,390.64c.04-.14-.74.84,0-2l.97.61-.97,1.39Z"/>
    <rect class="cls-1" x="827.27" y="615.39" width="1.99" height="5.98"/>
    <path class="cls-1" d="M822.27,616.38c2.98-.88,3.18,3.77,0,3,.06-.99.02-2.01,0-3Z"/>
    <path class="cls-12" d="M289.67,603.4c.04.34-.09.95,0,1,.07,1.54,2.93,1.54,3,0,2,.84,8.84,7.03,10.99,8.99,1.74,1.58,4.13,3.17,5,4,.99.93,1.98,2.02,3,3,2.29,2.2.76,3.03,6,5.99.65.37,1.35.64,2,1-.13,2.02,1.03,2.92,3,3,1.32,1.34,2.66,2.68,4,4-.1,2.02,1,2.97,3,3,.56.53,2.31,1.72,3,2-.47,2.67.63,2.04,3,2,1.81,4.39,10.84,9.74,14.51,12.96,3.04,2.67,5.15,7.27,8.48,10.01l1,2c-.15.9.09,2.02,0,3-.03.33.05.68,0,1-2.06,13.61-14.82,23.21-23.36,33.09-24.95,28.88-51.57,61.72-78.19,88.65-19.23,19.46-38.94,19.13-59.52,2.1-11.8-9.76-22.7-20.66-34.31-30.92-4.76-4.21-11.95-6.76-12.45-13.52-.67-9.07,2.51-14.41,7.56-21.39,27.07-37.37,66.65-71.28,94.7-108.61,10.19-10.62,19.7-18.2,35.62-16.33Z"/>
    <path class="cls-1" d="M565.46,464.55c1.14,6.35,1.29,12.84,2.25,19.23,12.4,83.22,27.63,168.53,42.72,251.47-2.92-.6-1.8,1.45-2.27,3.17-.41,1.49-1.15,3.45-1.34,4.81-.34,2.44,1.01,5.69-.34,6.55-3.04,1.58-15.47-.55-17.03.46,2.14-4.71-2.98-7.13-3.03-7.57-.17-1.7,1.99-7.25,2.02-9.91.03-2.31-1.52-4.93-1-7.49-4.68-1.64-3.65,5.02-4.5,5.01-3.46-.05-2.02-5.58-5.49-5-6.69-22.95-13.55-45.89-19.99-68.92-.83-2.96-1.13-10.08-4-9.99.17-.46-.13-1.38,0-2,.99-4.84-6.72-28.25-8.76-34.73-.86-2.73,1.25-4.35-2.23-4.23-.15-1.66.4-3.93.03-5.33-.31-1.16-1.9-.54-2.03-.67-1.05-1.12-2.53-14.29-3.31-17.17-1.86-6.82-5.37-14.65-7.4-21.57-1.47-5.02-1.57-11.35-3.6-16.4-.96-2.4-3.6-4.22-3.66-4.5-.46-2.31.36-4.97-.25-7.56s-5.48-16.31-6.69-18.03c-.96-1.35-2.65-1.33-4.07-1.68,2.49-6.22-.66-11.73-1-17.98-.22-4.19-.29-11.84.01-16.47.44-6.93-.08-10.74,7.49-11.49s23.34-1.57,30.96-.99c1.62.12,9.16,1.32,9.92,1.87,1.12.81.4,6.78,4.58,6.1.51-.57-.46-6.66-.04-8.36.29-1.15,1.89-.47,2.05-.62Z"/>
    <path class="cls-6" d="M511.5,512.5c1.42.35,3.11.33,4.07,1.68,1.22,1.71,6.08,15.43,6.69,18.03s-.21,5.26.25,7.56c.06.28,2.69,2.1,3.66,4.5,2.03,5.04,2.12,11.37,3.6,16.4,2.03,6.92,5.54,14.75,7.4,21.57.79,2.88,2.26,16.05,3.31,17.17-1.39,1.79-2.39,3.81-3,5.99-.27.97-.89,2.34-1,3-3.81,1.43-3.82,5.74-5,7.99-2.25,4.31-4.65,8.72-6.99,12.99-1.35,2.46-2.47,3.52-4,6.99-.13.3.16.87,0,1-1.34,1.11-.23-1.19-2,2-6.83,12.32-14.29,24.66-20.96,36.7-1.96,3.54-11.04,18.97-11.02,21.24-.33.32-.75.61-1,1-.98,1.55-.73,1.31-1,3-4.74,1.39-5.96,9.46-7.99,12.99-.53.92-1.34,1.79-2,3-2.81,5.12-4.64,6.59-6.99,12.99-3.64.66-2.03,1.5-3,3-1.48,2.28-2.67,4.64-4,6.99-2.13,3.75-3.48,3.56-5,8.99-1.97.22-2.38.66-3,3-1-.04-2,.06-3,0,.29-2.05.05-2.29-2-2-.2-.25-4.96-1.59-6-2,.63-2.78-2.05-2.28-4-3-1.02-.38-1.94-.7-3-1-.36-3.97-5.94-4.41-8.99-4.99-1.57-.3-3.42-1.1-5-1-1.1-1.7-2.4-.67-3,1-.13.07-.99.93-1,1h-3c-.17-6.9,9.31-26.34,12.52-33.93,26.57-62.65,54.28-124.34,81.02-186.71.87-2.03,3.91-5.92,4.38-7.11Z"/>
    <path class="cls-8" d="M256.69,598.4c2.97-.7,3.44-1.94,4.44-2.07,3.35-.44,10.41-.17,13.93.2,2.24.23,13.44,2.9,14.44,4.06.57.66.07,1.97.17,2.81-15.93-1.86-25.43,5.71-35.62,16.33-28.05,37.32-67.63,71.24-94.7,108.61-5.05,6.97-8.23,12.32-7.56,21.39.5,6.76,7.69,9.31,12.45,13.52,11.6,10.25,22.5,21.15,34.31,30.92,20.59,17.03,40.29,17.36,59.52-2.1,26.62-26.93,53.25-59.77,78.19-88.65,8.53-9.88,21.29-19.48,23.36-33.09l1-1c6.53,13.83-.56,21.63-7.99,31.96-1.1,1.52-1.54,1.12-3,4-2.9.06-5.94,5.62-7.99,7.99-4.2,4.85-8.69,11.03-12.99,15.98-.16.19-1.08.95-2,2-5.32,6.08-12.79,14.9-17.93,19.51-13.82,12.39-29.79,32.8-42.02,47.41-.71.85-.88,1.86-1,2-2.03,2.29-5.1,1.16-5,5.99-1.92-.35-2.33,1.54-3,2-3.12,2.15-9.02,6.64-11.99,7.99-.63.29-1.69.9-2,1-5.92,1.92-24.22,2.32-30.42.94-2.94-.65-11.22-6.05-13.93-8.1-9.08-6.86-47.54-39.14-52.55-46.53-6.37-9.39-7.79-26.95-3.95-37.45.45-1.23,3.91-4,4.93-7.76,1.67-.45,2.1-2.05,3-3,.65-.68,1.38-1.3,2-2,1.08-1.2,2.66-1.88,3-4,3.51-1.62,5.87-6.68,7.99-8.99,1.09-1.19,3.22-3.02,5-4.99,2.46-2.75,5.07-6.86,6.99-8.99.31-.34,1.17-1.09,2-2,.32-.35,1.16-1.08,2-2s3.36-1.55,3.78-2.24c.71-1.15-.08-3.09.21-3.76.12-.28,3.09-3.06,4-4,1.5-1.55,6.22-4.23,7.98-6.79,1.86-5.06,11.24-10.41,11.01-15.18.82.02,1.48-.81,2-1,.92-.33,2.61.55,2-2l1-2c.18-.16-.13-1.41,0-2,3.43-.03,2.49-.85,4-2,1.6-1.22,1.85-1.8,3-3,1.47-1.53,6.17-6.37,6-7.99,2.56.47,2.2-2.11,3-3,.58-.64,1.24-1.08,2-2,1.46-1.78,3.21-1.32,4-4.99,4.48-3.34,7.33-8.78,10.94-12.55,2.39-2.49,8.47-6.29,10.04-8.43.78.05,1.57-.9,2-1Z"/>
    <path class="cls-7" d="M503.51,328.7c16.21-18.4,50.75-21.36,66.48-1.03,8.31,10.75,5.4,25.04,5.42,37.54.03,20.35-.32,41.58-.05,61.88.11,7.93,2.63,16.17.04,24.42-1.3.25-2.63-.03-3.94.05-1.98.12-4.01-.03-6,0,1.1-4.82,0-9.11-.05-13.45-.35-28.76,2.66-58.5.03-86.93-.29-3.12-1.12-7.49-1.98-10.5-1.47-5.16-2.22-6.57-7.11-9.38-12.95-7.44-27.3-2.11-37.37,7.41-11.29,10.68-13.13,26.42-17.24,40.67-10.23,35.45-20.69,73.49-32.71,109.13-1.54,4.57-2.62,10.2-3.5,14.99-.47,0-1.87.92-3,1-2.81.19-6.45.86-7.03-2.52-.84-4.86,4.76-17.73,5.03-23.45l1-2c.67-.56,3.26-14.29,4-16.98.19-.69.66-1.71,1-3,1.75-6.63,3.27-13.35,5-19.98.15-.58-.15-1.42,0-2,2.05-7.83,9.4-24.67,8.99-31.96l1-2c.67-.48,3.33-13.6,4-15.98.24-.84.67-1.77,1-3,2.06-7.67,3.21-15.53,5-22.97.08-.31-.08-.68,0-1,1.8-7.54,4.8-12.46,6-21.98,2.74-1.52,4-4.73,6-6.99Z"/>
    <path class="cls-5" d="M572.46,460.56c.96.09,1.97-.22,2.93.06.82,11.77,3.97,23.19,5.06,34.91.08.84.01,1.75,1,2-.38,3.29,1.39,9.24,2,12.99.27,1.7.85,3.09,1,4,4.8,29.37,9.68,58.66,14.99,87.9l-.98.59.98,1.4c.41,2.42,1.55,14.37,2,14.98l1,2c3.64,22.29,7.48,44.62,10.99,66.93.16,1.03-.39,2.51,1,3,.28,4.73,1.31,11.11,2,15.98.26,1.81.87,3.13,1,4,1.96,12.64,5.06,25.23,5.98,37.95l-10.98,1.02c.37-5.13-1.09-10.04-2-14.99-15.1-82.94-30.32-168.24-42.72-251.47-.95-6.39-1.1-12.88-2.25-19.23,2.34-2.36-1.94-4.82,6.99-4Z"/>
    <path class="cls-10" d="M527.49,363.67c2.91,1.01,6.58-.77,5.82,5.22-9.69,27.49-18.37,55.69-28.8,82.67,20.3-.19,40.66.29,60.95.01,1.99-.03,4.02.12,6,0l1,8.99c-8.94-.82-4.65,1.64-6.99,4-.15.15-1.76-.53-2.05.62-.42,1.7.56,7.79.04,8.36-4.18.67-3.46-5.29-4.58-6.1-.76-.54-8.3-1.74-9.92-1.87-7.62-.58-23.17.21-30.96.99s-7.04,4.56-7.49,11.49c-.3,4.63-.23,12.29-.01,16.47.26-2.59-1.82-3.08-2.06-4.45-1.64-9.35-.71-19.97-1.93-29.52l-4.87.13c-1.09,8.84-16.54,41.48-15.12,47.82-3.6-1.1-4.97,2.49-7.52,2.99-4.38.85-10.86-3.79-10.47,3-1.32-.01-2.68-.06-4,0l-2-9.99c1.12-.08,2.52-1,3-1,3.35-.01,11.2,2.53,12.99-.75,5.05-15.53,9.67-31.28,14.96-46.72,9.28-27.09,18.59-58.49,29.35-84.53,1.19-2.87,2.66-5.46,4.65-7.84Z"/>
    <path class="cls-7" d="M601.43,761.22c2.17-2.43,19.05-4.28,20.55-2.06l8.7,43.76c2.87.82,5.28,2.73,8.3,3.17,10.52,1.53,25.1-.03,36.39,1.08-.24,2.12-.12,2.24,2,2,.54,3.3,2.77,8.32,5,10.99v1h-69.94s-10-57.94-10-57.94l-1-2Z"/>
    <path class="cls-8" d="M415.57,762.22c1.34-2.64,5.5-13.26,7.66-13.9.8-.24,15.18,5.7,15.4,6.5.59,2.15-2.83,9.35-4.13,11.55-.72,1.22-2.37,1.65-3.2,3.04-2.97,4.96-11.27,17.03-9.78,22.15.5,1.73,28.62,13.15,32.91,14.72l-.88,15.87c-.44.45-10.47-3.38-11.98-4-.26-.1-.93-1.36-2-1-1.27-1.26-25.23-12.3-28.74-13.92-1.91-.88-11.78-3.61-12.15-4.13-1.83-2.61,5.19-10.3,3.92-13.91v-1c.8.03,1.29,0,1.97-.48,2.23-1.56,7.27-15.06,9.02-18.5.22-.43,1.2-1.42,2-3Z"/>
    <path class="cls-7" d="M464.54,514.5c1.32-.06,2.67-.01,4,0,9,.1,13.25-1.98,14.05,9.44.33,4.67-.31,7.17-3.54,10.55-10.83,11.37-27.81.62-24.47-14.3.15-.66,1.62-1.01,2.3-1.93s1.38-3.27,1.87-3.56c1.13-.67,4.16-.13,5.79-.21Z"/>
    <path class="cls-3" d="M577.45,725.26c3.47-.58,2.03,4.96,5.49,5,.85.01-.18-6.65,4.5-5.01-.52,2.56,1.02,5.18,1,7.49-.03,2.66-2.19,8.21-2.02,9.91.05.45,5.17,2.86,3.03,7.57-.23.15.44,3.28-4,2-3.82-9.26-5.28-17.65-7.99-26.97Z"/>
    <path class="cls-5" d="M321.64,613.39c-.21.35-.77.62-1,1-.18.29-.71.59-1,1h-2c-1.51-1.63-8.66-7.12-8.92-8.63-.16-.95,5.33-7.92,6.63-8.24,1.61-.41,9.97,6.22,10.18,7.53.07.41-3.28,6.36-3.89,7.35Z"/>
    <path class="cls-9" d="M343.63,605.4c.94.93,8.47,9.21,2.65,6.84-2.32-.95-13.21-11.32-16.13-13.84-1.34-1.16-3.21-1.5-4.43-2.56-1.57-1.36-5.32-7.18-.72-5.28,3.35,1.38,12.71,10.6,15.96,13.53.56.51,1.55.19,1.68.31.34.32.67.67,1,1Z"/>
    <rect class="cls-3" x="151.77" y="830.14" width="39.97" height="2"/>
    <rect class="cls-3" x="319.64" y="830.14" width="63.95" height="1"/>
    <rect class="cls-3" x="619.42" y="824.15" width="62.95" height="1"/>
    <path class="cls-10" d="M636.41,831.14c3.52-.02,6.45.98,9.99,1,7.95.05,16.04.13,23.98,0,1.92-.03,4.18.23,6,0v1c-16.97,0-33.99-.02-50.96,0l.67-.81c3.44.39,7.22-1.17,10.33-1.19Z"/>
    <path class="cls-10" d="M683.37,833.14c1.04-1.66,3.79-1,5.48-1.02,14.49-.18,29,.54,43.47-.5,1.8-.13,3.45-1.82,3.01,1.52-17.28-.34-34.68,0-51.96,0Z"/>
    <path class="cls-3" d="M393.59,596.41c1.27-2.93-2.35-2.71-1.92-4.35.11-.44,4.59-7.34,4.94-7.63.19-.16,1.9-.38,1.99.5.31,3.22-6.05,6.46-1.01,6.48-1.37,1.46-1.51,2.8-4,4.99Z"/>
    <path class="cls-3" d="M419.57,565.44c-1.09.14-3.09-.41-3.84.13-.6.43-1.04,7.62-4.15,4.86-1.66-1.47,5.81-10.79,8.99-9.98-.34,1.64-.61,3.36-1,4.99Z"/>
    <path class="cls-3" d="M179.75,682.31c-4.91-1.1,3.44-12.65,4-5.99-.29.66.5,2.61-.21,3.76-.43.68-2.95,1.32-3.78,2.24Z"/>
    <path class="cls-3" d="M246.7,830.14c-.49,2.22-4.71,1.94-6.45,2.04-1.99.11-9.6,1.14-8.54-2.04h14.99Z"/>
    <path class="cls-3" d="M434.56,744.24c-3.97-1.13-9.75.18-8.99-4.99,3.05.59,8.63,1.03,8.99,4.99Z"/>
    <path class="cls-3" d="M352.62,701.29l1.99,4.99c-1.7.41-3.58-1.02-4.99-.99-.65,1.29-.92,2.8-2,3.99,6.5-1.09,1.45,6.06-.99,4.01-.5-.42,1.32-3.88-2-3l-3,3c2.05-2.37,5.09-7.93,7.99-7.99,1.46-2.88,1.9-2.47,3-4Z"/>
    <path class="cls-3" d="M229.71,625.37c-1.75-1.97.59-8.05,2.02-8.97,2.27-1.46,2.07,3.54,1.98,3.97-.79,3.67-2.54,3.22-4,4.99Z"/>
    <path class="cls-3" d="M278.67,830.14l-13.45,2.04c-2.14-.13-4.13.93-3.53-2.04h16.99Z"/>
    <polygon class="cls-3" points="141.78 830.14 139.25 832.19 125.79 830.14 141.78 830.14"/>
    <path class="cls-3" d="M247.7,823.15l1,2c.5,3.55-4.42,1.59-6.99,1.99l3.73-3.96c.71-.35,1.8.14,2.26-.04Z"/>
    <path class="cls-3" d="M354.62,628.37c2.01-2.52.7-1.92,4-4.99,1.27,4.27,1.18,7.69-4,4.99Z"/>
    <path class="cls-3" d="M303.66,613.39l3.99-3.99,1,7.99c-.87-.82-3.26-2.41-5-4Z"/>
    <path class="cls-3" d="M390.59,795.18c-.29,2.73.2,5.41,1,7.99-.67-.55-2.46.5-3.01-2.48-.43-2.38-.7-6.53,2.01-5.51Z"/>
    <path class="cls-3" d="M612.43,832.14c-.51-4.46,7.58-3.26,6.99,0-2.32-.06-4.68.12-6.99,0Z"/>
    <path class="cls-3" d="M177.75,684.31c-.83.91-1.69,1.66-2,2-6.49-1.29-.65-6.86,2-2Z"/>
    <path class="cls-3" d="M317.64,626.37c-5.23-2.97-3.71-3.79-6-5.99,2.79.49,5.56,3.14,6,5.99Z"/>
    <path class="cls-3" d="M636.41,831.14c2.42-1.45,11.08-2.36,9.99,1-3.54-.02-6.48-1.02-9.99-1Z"/>
    <path class="cls-3" d="M670.38,832.14l8.49-2c1.69.7-2.34,1.98-2.5,2-1.81.23-4.07-.03-6,0Z"/>
    <path class="cls-3" d="M168.76,695.3c-1.77,1.98-3.9,3.8-5,4.99l-1.01-.52c.66-2.67,3.25-4.79,6-4.48Z"/>
    <path class="cls-3" d="M260.69,806.17c0,.14,1.12.7,1.09,1.41-.03.54-3.6.29-1.09,4.58l-2.99-3.99c.67-.46,1.08-2.35,3-2Z"/>
    <path class="cls-3" d="M448.55,537.47c-.9.16-2.27-.24-3,0,.37-.91.65-4.03,1.51-4.01,4.18.09,1.46,3.74,1.49,4.01Z"/>
    <path class="cls-3" d="M224.71,831.15c.23,1.74-2.27.94-3.48.99-3.16.13-6.35-.08-9.5-.01-.23-1.74,2.27-.94,3.48-.99,3.16-.13,6.35.08,9.5.01Z"/>
    <path class="cls-3" d="M416.57,740.25c-.26,1.27.38,3.11.05,4.34s-1.91.5-2.05.65c.19-1.66-.96-3.57-1-4.99h3Z"/>
    <path class="cls-3" d="M615.42,664.33v3.99s-2.99,0-2.99,0c-.23-1.84-.06-2.93,1.51-3.98h1.48Z"/>
    <path class="cls-3" d="M366.6,686.3c-1.75.23-.94-2.27-.99-3.48-.11-2.49.06-5.02,0-7.5,1.75-.23.94,2.27.99,3.48.11,2.49-.06,5.02,0,7.5Z"/>
    <path class="cls-3" d="M413.57,765.22c-2.74-.76-1.05-2.85-.99-4.99,1.57-.38.51,1.13,1.61,2.02l1.38-.03c-.8,1.57-1.78,2.56-2,3Z"/>
    <path class="cls-3" d="M406.57,575.43c.58.61-2.63,6.63-3.99,4.98-.66-.8,1.78-5.81,3.99-4.98Z"/>
    <rect class="cls-3" x="527.49" y="310.73" width="4.99" height="1.99"/>
    <path class="cls-3" d="M503.51,328.7c-2,2.27-3.25,5.47-6,6.99.2-1.62-.15-3.36,0-4.99l2.98,1c-.34-3.05-.09-3.41,3-3Z"/>
    <path class="cls-3" d="M471.53,547.46c-.3.05-1.01,1.11-2.49,1.1s-2.2-1.05-2.5-1.1c.66-1.57,4.34-1.57,5,0Z"/>
    <rect class="cls-3" x="580.45" y="344.69" width="1.99" height="4.98"/>
    <path class="cls-3" d="M471.53,436.58c-5.69,1.25-3.01-7.95,0-2-.15.58.15,1.42,0,2Z"/>
    <path class="cls-3" d="M227.71,627.37c-.8.88-.44,3.47-3,3,0-.06-.89.17-.99-.5-.55-3.57.87-2.41,3.99-2.49Z"/>
    <path class="cls-3" d="M304.65,768.21c-.58,2.06-2.96,2.84-4,4-.3-3.04.96-4.39,4-4Z"/>
    <path class="cls-3" d="M397.59,781.2c.11,1.47,3.39,3.57-2,3,.53-1.19-1.32-3.69,2-3Z"/>
    <path class="cls-3" d="M486.52,381.65c-.33,1.23-.76,2.16-1,3-3.55.53-2.96-4.18,1-3Z"/>
    <path class="cls-3" d="M328.64,729.26c4.12,2.6,1.89,3.91-2,2,.92-1.05,1.83-1.81,2-2Z"/>
    <path class="cls-3" d="M603.43,596.41c1.02,1.15.18,5.64-2.99,3.98.68-1.38,1.23-5.99,2.99-3.98Z"/>
    <path class="cls-3" d="M437.56,745.24c1.95.71,4.62.21,4,3-1.9-.75-4.63-.17-4-3Z"/>
    <path class="cls-3" d="M462.54,802.18c.31.21,1.8-.55,2.07.58.42,1.79-1.02,2.93-1.08,3.42l-1-4Z"/>
    <path class="cls-3" d="M583.45,510.5c2.67-.84,2.91,2.28,1,4-.15-.9-.72-2.3-1-4Z"/>
    <path class="cls-3" d="M155.77,709.28c-.33,2.12-1.92,2.8-3,4-.74-6.09,1.12-3.13,3-4Z"/>
    <path class="cls-3" d="M266.68,798.18c5.08,1.5,4.03,4.15-1,2,.12-.13.29-1.15,1-2Z"/>
    <path class="cls-3" d="M350.62,633.36c.85-1.08,2.18-2.87,3-4,.27,2.33-.42,4.1-3,4Z"/>
    <path class="cls-3" d="M616.42,707.28c2.67-.84,2.91,2.28,1,4-.13-.86-.74-2.19-1-4Z"/>
    <path class="cls-3" d="M215.72,641.36v-4.99c1.57-.38.53,1.12,1.62,2.02l1.38-.03c-1.15,1.19-1.4,1.78-3,3Z"/>
    <path class="cls-3" d="M329.64,637.36c-1.99-.03-3.1-.98-3-3,.85.83,2.28,2.32,3,3Z"/>
    <path class="cls-3" d="M322.64,630.37c-1.96-.08-3.12-.97-3-3,3.74,2.04,2.08,2.06,3,3Z"/>
    <path class="cls-3" d="M410.58,754.23c-.2,1.04.44,3.22-.13,3.9-.36.44-1.71-.06-1.87.1-.17-1.74.16-3.48,2-4Z"/>
    <path class="cls-3" d="M150.77,715.27c-.89.95-1.33,2.54-3,3,.28-1.05-.21-2.78,0-4l2.99,1Z"/>
    <path class="cls-3" d="M141.76,722.26c-.13.14-.65-.05-.98,0-.14-1.82-.32-4.35,1.98-4.99.07,1.02-.59,4.54-1,4.99Z"/>
    <path class="cls-3" d="M208.73,649.35c-.52.19-1.18,1.02-2,1-.02-.4-3.17-2.52,1.49-1.99l.5.99Z"/>
    <rect class="cls-3" x="858.25" y="830.16" width="5.99" height=".98"/>
    <path class="cls-3" d="M351.61,604.4v1.99c-.55.54-5.2-1.44-3.99-1.98h3.99Z"/>
    <rect class="cls-3" x="196.74" y="653.35" width="1.99" height="2.99"/>
    <path class="cls-3" d="M341.63,616.38c.52-.57-1.29-3.98,1.99-2.99.96,4.24-1.73,2.67-1.99,2.99Z"/>
    <path class="cls-3" d="M359.61,653.34c-1.67-.76-3.75,1.77-3-3,1.12.9,2.47,1.36,3,3Z"/>
    <rect class="cls-3" x="406.58" y="830.15" width="2.99" height="1.99"/>
    <path class="cls-3" d="M466.53,456.56c-.34,1.28-.81,2.3-1,3-1.69-1.92-1.64-3.51,1-3Z"/>
    <path class="cls-3" d="M613.42,688.3c4.09-.58.97,2.47,1,3-1.39-.49-.84-1.96-1-3Z"/>
    <rect class="cls-3" x="112.8" y="830.16" width="5.99" height=".98"/>
    <path class="cls-3" d="M245.7,816.16l1,2.99c-1.66.35-2.36-.54-3-1.99.31-.1,1.36-.71,2-1Z"/>
    <path class="cls-3" d="M332.63,639.36c2.51,1.01,1.5-1.63,3,2-2.36.04-3.46.67-3-2Z"/>
    <path class="cls-3" d="M440.55,771.21c-.64,1.11-1.85,1.74-2,2-4.04.41-.96-2.36,2-2Z"/>
    <path class="cls-3" d="M592.44,760.22c.52.19,1.8-.23,2,0,.77.93-1,2.84-1,2.99l-1-3Z"/>
    <path class="cls-3" d="M344.62,620.38c2.27.17,3.46-.91,3,2-1.96-.01-3.26.57-3-2Z"/>
    <path class="cls-3" d="M354.62,712.28c-.49,1.4-1.52,2.01-3,2,1.38-3.7.4-.9,3-2Z"/>
    <path class="cls-3" d="M306.65,765.22c-.31.39.87,2.71-2,2,.1-1.5-.85-2.77-.51-3.98l2.51,1.98Z"/>
    <path class="cls-3" d="M586.44,756.23c.3.23,1.79-.25,2,0,.32.37-.29,2.66,0,3-1.46-.41-1.97-1.53-2-3Z"/>
    <path class="cls-3" d="M442.55,539.47c-.95.97,1.5.71-2,2,.24,3-1.73,1.69-2,2-.4.46-.2,2.74-2,3,1.26-4.76.71-1.67,2-3,.66-.68-1.41-.74,2-2-.09-1.08-1.07-2.2-.51-2.97l2.51.98Z"/>
    <path class="cls-3" d="M413.57,748.24c-.22.77.29,2.64,0,2.99-.22.26-1.71-.22-1.99,0,.08-1.43.57-2.57,2-3Z"/>
    <rect class="cls-3" x="429.57" y="830.16" width="4.99" height=".98"/>
    <rect class="cls-3" x="572.46" y="830.16" width="4.99" height=".98"/>
    <path class="cls-3" d="M321.64,613.39c3.27-.55,2.05,1.58-.49,1.99l-.51-.99c.23-.38.79-.65,1-1Z"/>
    <path class="cls-3" d="M187.74,672.32c-1.45-.33-2.3-1.61-1.99-2.99h1.99s0,2.99,0,2.99Z"/>
    <rect class="cls-3" x="259.69" y="594.42" width="4.99" height=".98"/>
    <rect class="cls-3" x="749.33" y="830.16" width="4.99" height=".98"/>
    <path class="cls-3" d="M392.59,598.4c-.46,1.43-1.52,2-3,2,.17-.36-.33-1.55.08-1.9.56-.49,2.28.16,2.92-.09Z"/>
    <path class="cls-3" d="M420.57,738.25c-.16.01-2.86.93-3,1,.6-1.67,1.9-2.7,3-1Z"/>
    <path class="cls-3" d="M342.63,604.4c-.4-3.87,3.77-2.4,1,1-.33-.33-.66-.68-1-1Z"/>
    <rect class="cls-3" x="326.64" y="601.41" width="3.99" height=".98"/>
    <path class="cls-3" d="M599.43,604.4l-.98-1.4.98-.59c.38,2.09-.02,1.86,0,2Z"/>
    <path class="cls-3" d="M322.64,741.25c.94.94-1.84,3.35-2.98,3.98.42-2.21.48-4.71,2.98-3.98Z"/>
    <path class="cls-3" d="M256.69,598.4c-.42.1-1.22,1.05-2,1,.4-.54-.99-2.58,1.49-1.99l.51.99Z"/>
    <path class="cls-3" d="M232.71,611.39c1.06-1.06,3.11.88,1.99,1.99s-3.06-.93-1.99-1.99Z"/>
    <path class="cls-3" d="M319.64,615.38c-.4.58,1,2.55-1.49,2-1.13-.25-.18-1.65-.51-2h2Z"/>
    <path class="cls-3" d="M347.62,719.27c.24,2.12.12,2.24-2,2,.15-.2-.33-1.36.16-1.84s1.64,0,1.84-.16Z"/>
    <path class="cls-3" d="M447.55,750.23c2.05-.29,2.28-.05,2,2-3.57-.21-1.34-1.17-2-2Z"/>
    <path class="cls-3" d="M316.65,754.23c.24,2.12.12,2.24-2,2,.85-1.11-1.51-.66,2-2Z"/>
    <path class="cls-3" d="M601.43,619.38c.12.16,1.42-.1,1.99,0l-.99,1.99-1-2Z"/>
    <path class="cls-3" d="M409.57,572.44c1.09,1.09-.9,3.08-1.99,1.99s.9-3.08,1.99-1.99Z"/>
    <path class="cls-3" d="M602.43,763.22c-2.7.21-2.56-.26-1-2l1,2Z"/>
    <path class="cls-3" d="M443.55,765.22v2h-1c0-.11-1.64-1.36-1-1.98.31-.3,1.72.19,2-.02Z"/>
    <path class="cls-3" d="M428.56,549.46c1.09,1.09-.9,3.08-1.99,1.99s.9-3.08,1.99-1.99Z"/>
    <path class="cls-3" d="M352.61,637.37c1.09,1.09-.9,3.08-1.99,1.99s.9-3.08,1.99-1.99Z"/>
    <path class="cls-3" d="M620.41,703.29c1.09,1.09-.9,3.08-1.99,1.99s.9-3.08,1.99-1.99Z"/>
    <path class="cls-3" d="M594.44,771.21c.11.15,1.42-.1,1.99,0,.41,1.07-.98,1.88-.99,1.99l-1-2Z"/>
    <path class="cls-3" d="M406.57,772.21c1.09,1.09-.9,3.08-1.99,1.99s.9-3.08,1.99-1.99Z"/>
    <path class="cls-3" d="M595.44,776.21c.16.18,1.41-.11,1.99,0,.4,1.08-.97,1.84-.99,1.99l-1-2Z"/>
    <path class="cls-3" d="M432.55,777.21c1.09,1.09-.9,3.08-1.99,1.99s.9-3.08,1.99-1.99Z"/>
    <path class="cls-3" d="M481.52,543.46c.34,1.91-.09,2.32-2,2,.98-1.04-.15-.3,2-2Z"/>
    <path class="cls-3" d="M469.53,541.47c1.09,1.09-.9,3.08-1.99,1.99s.9-3.08,1.99-1.99Z"/>
    <path class="cls-3" d="M596.44,782.2c.14.17,1.42-.11,1.99,0,.4,1.05-.99,1.88-.99,1.99l-1-2Z"/>
    <path class="cls-3" d="M358.61,664.33c.25.21,1.69-.28,1.99.02.7.71-.97,1.87-.99,1.98l-1-2Z"/>
    <path class="cls-3" d="M432.56,785.2v2c-.53-.39-2.56,1-2-1.49.25-1.12,1.75-.2,2-.51Z"/>
    <path class="cls-3" d="M287.67,786.19c.24,2.12.12,2.24-2,2,1.2-3.53,1.18-1.28,2-2Z"/>
    <path class="cls-3" d="M597.44,789.19c.12.16,1.42-.1,1.99,0,.35.9-1,1.87-.99,1.99l-1-2Z"/>
    <path class="cls-3" d="M392.59,791.19c-.93,3.76-1.14,1.21-2,2-.24-2.12-.13-2.24,2-2Z"/>
    <path class="cls-3" d="M634.4,792.19c1.09,1.09-.9,3.08-1.99,1.99s.9-3.08,1.99-1.99Z"/>
    <path class="cls-3" d="M447.55,794.19c2.11-.25,2.24-.12,2,2-3.77-.58-1.3-1.35-2-2Z"/>
    <path class="cls-3" d="M145.77,764.22c1.09,1.09-.9,3.08-1.99,1.99s.9-3.08,1.99-1.99Z"/>
    <path class="cls-3" d="M453.54,797.18c-.06,0,.19.81-.51.99-2.45.62-1.11-1.56-1.49-1.99l2,1Z"/>
    <path class="cls-3" d="M599.43,800.18c.12.16,1.42-.1,1.99,0,.41,1.07-.98,1.88-.99,1.99l-1-2Z"/>
    <path class="cls-3" d="M600.43,805.17c.16.18,1.41-.11,1.99,0,.36.9-1,1.87-.99,1.99l-1-2Z"/>
    <path class="cls-3" d="M491.52,530.48c.24,2.12.13,2.24-2,2,.93-3.84,1.41-1.21,2-2Z"/>
    <path class="cls-3" d="M675.38,807.17c.6.06,1.83-.17,2,0,.19.19-.1,1.4,0,2-2.12.24-2.24.12-2-2Z"/>
    <path class="cls-3" d="M491.52,357.67c-.08.32.08.68,0,1-2.82.67-3.04-2.39-.51-1.99l.51.99Z"/>
    <path class="cls-3" d="M413.57,814.16c.1,0,1.19-1.64,1.86-.92.45.48-.03,1.75.13,1.92l-2-1Z"/>
    <path class="cls-3" d="M204.73,644.35c.67,0,1.33-.03,1.99,0-.29,3.62-1.12,3.24-1.99,0Z"/>
    <path class="cls-3" d="M441.55,818.16c-2.6,2.78-1.82-.82-2-1,1.07-.36,1.74.89,2,1Z"/>
    <path class="cls-3" d="M682.37,820.16c.26.31,1.75-.61,2,.51.45,1.99-.85,2.01-2,.49v-1Z"/>
    <path class="cls-3" d="M461.54,824.15l-.95-.61c-.03-.88.93-1.24.95-1.39l.99.51-.99,1.49Z"/>
    <path class="cls-3" d="M580.45,495.52c3.94-.38,1.07,1.43,1,2-.99-.24-.92-1.16-1-2Z"/>
    <path class="cls-3" d="M461.54,476.54l-1,2c-2.69-2.9.57-1.63,1-2Z"/>
    <path class="cls-3" d="M211.72,645.35l-1,2c-.01-.05-.79.19-.99-.51-.7-2.4,1.59-1.14,1.99-1.49Z"/>
    <path class="cls-3" d="M204.72,830.15c1.09,1.09-.9,3.08-1.99,1.99s.9-3.08,1.99-1.99Z"/>
    <path class="cls-3" d="M250.69,830.15c1.09,1.09-.9,3.08-1.99,1.99s.9-3.08,1.99-1.99Z"/>
    <rect class="cls-3" x="300.66" y="830.16" width="3.99" height=".98"/>
    <path class="cls-3" d="M481.52,400.62l-1,2c0-.11-1.59-1.39-.99-1.99.23-.23,1.67.22,1.99,0Z"/>
    <path class="cls-3" d="M606.43,831.14c-.94-.03-2.13-.13-3,0,.14-1.5,2.86-1.5,3,0Z"/>
    <path class="cls-3" d="M608.42,811.16h-.98c-.5-4.15,1.48-4.15.98,0Z"/>
    <path class="cls-3" d="M402.58,784.2v1c-.75-.12-1.66.49-2-.51-.98-2.87,1.56-.51,2-.49Z"/>
    <path class="cls-3" d="M497.51,329.7c-.07.07-2.11.38-1.99-.49,1.56-2.72,3.12-.67,1.99.49Z"/>
    <path class="cls-3" d="M292.66,604.4c-.07,1.54-2.93,1.54-3,0,.54.29,2.33-.28,3,0Z"/>
    <path class="cls-3" d="M614.41,656.33c-.35.68-1.7-.58-.98-1.99.35-.68,1.7.58.98,1.99Z"/>
    <path class="cls-3" d="M426.56,744.25c.68.35-.58,1.7-1.99.98-.68-.35.58-1.7,1.99-.98Z"/>
    <path class="cls-3" d="M359.61,670.32c.05-.32-.03-.67,0-1h1l-1,1Z"/>
    <path class="cls-3" d="M472.03,422.6c.65.33.65.67,0,1v-1Z"/>
    <path class="cls-3" d="M351.12,641.36c.65.33.65.67,0,1v-1Z"/>
    <path class="cls-3" d="M445.05,533.48c.65.33.65.67,0,1v-1Z"/>
    <path class="cls-3" d="M220.22,631.37c.65.33.65.67,0,1v-1Z"/>
    <path class="cls-2" d="M533.48,284.75c.39-2.66-3.74-3.92-6-4-.32-2.8,4.67-6.31,5.74-8.75,3.43-7.8.38-18.54,7.77-25.2,8.88-8.01,21.88-1.01,32.52-1.58,2.12,11.48.74,24.22-8.53,32.55-9.93,8.92-18.84,10.09-31.5,6.97ZM536.48,271.77h-1.99s0,3.98,0,3.98c.55,1.21,2.53-3.43,1.98-3.98ZM537.48,281.75l-2.99-2.99c-.33,3.24-.26,3.32,2.99,2.99Z"/>
    <path class="cls-9" d="M527.49,280.76c2.26.07,6.39,1.33,6,4-2.01-.49-5.67-1.14-6-4Z"/>
    <rect class="cls-1" x="547.48" y="238.81" width="2.99" height="1.99"/>
    <path class="cls-1" d="M532.48,264.78c.54.55-1.44,5.19-1.98,3.98v-3.99s1.98,0,1.98,0Z"/>
    <path class="cls-9" d="M536.48,271.77c.54.55-1.44,5.19-1.98,3.98v-3.99s1.98,0,1.98,0Z"/>
    <path class="cls-9" d="M537.48,281.75c-3.24.33-3.32.26-2.99-2.99l2.99,2.99Z"/>
  </g>
</svg>