<?xml version="1.0" encoding="UTF-8"?>
<svg xmlns="http://www.w3.org/2000/svg" viewBox="0 0 1024 1024">
  <defs>
    <style>
      .cls-1 {
        fill: #f1f1f1;
      }

      .cls-2 {
        fill: #dfdfdf;
      }

      .cls-3 {
        fill: #7f7373;
      }

      .cls-4 {
        fill: #212121;
      }

      .cls-5 {
        fill: #fcfdfc;
      }

      .cls-6 {
        fill: #d5d6d5;
      }

      .cls-7 {
        fill: #242524;
      }

      .cls-8 {
        fill: #1f1f1f;
      }

      .cls-9 {
        fill: #b8b9b9;
      }

      .cls-10 {
        fill: #d6d7d6;
      }
    </style>
  </defs>
  <g id="_검은색_배경" data-name="검은색 배경">
    <rect class="cls-3" x="0" y="0" width="1024" height="1024"/>
  </g>
  <g id="_레이어_1" data-name="레이어 1">
    <polygon class="cls-5" points="320.99 381.88 314 351.88 347.84 355.5 387.28 392.44 406.43 396 456.98 386.5 477.85 386.5 477.85 413.67 450.41 454 418.68 468.43 368.13 471.11 320.99 381.88"/>
    <path class="cls-4" d="M100.74,762.24l694.8-.27c11.81-.25,14.65,14.54,4.51,19.59H98.95c-9.77-4.66-8.55-16.54,1.79-19.32Z"/>
    <path class="cls-4" d="M835,781c-4.28-2.8-5.33-8.16-5-13,2.5-1.83,4.67-6.38,9.48-6.02,20.95,1.5,44.43-1.92,65.07-.02,13.34,1.22,13.4,18.33,2.9,19.99-19.56,3.09-46.61-2.23-66.99.1-1.88.18-3.74-.9-5.45-1.04Z"/>
    <path class="cls-7" d="M668.21,267.78c3.74,2.19,20.94-3.99,17.37,9.29-.88,3.26-10.78,3.95-13.79,3.72-.95-.07-11.33-2.42-11.73-2.87s.25-2.28-.05-3.13c-.46-1.27-3.92-1.74-3.02-4.81-3.1.89-4.14,2.96-4.93,5.91,2.12,1.81,7.76,1.85,9.06,3.49,1.53,1.93,2.12,16.86,1.45,19.68-1.37,5.8-7.64,7.81-11.02,2.89-3.63-5.27,1.39-11.4-6-18-6.39-5.71-17.99-1.32-18.53-9.53-.68-10.22,14.65-4.27,18.47-7.44,7.36-6.12,2.73-12.57,5.44-19.56,2.34-6.04,9.02-5.91,11.31-.17,1.85,4.63-.26,9.94.96,14.04.12.39,4.65,6.28,5,6.49Z"/>
    <path class="cls-4" d="M179.29,535.3c3.72-3.01,14.84-2.38,15.69,4.29,2.13,16.87-27.99,5.66-15.69-4.29Z"/>
    <path class="cls-4" d="M145.69,534.19c4.9-1.47,14.08-.3,14.2,6.28.18,9.8-16.58,9.83-17.89,2.99-.55-2.84.48-8.31,3.69-9.27Z"/>
    <path class="cls-7" d="M802.72,658.19c10.57-3.17,13.89,13.65,3.34,15.39-9.17,1.51-11.01-13.09-3.34-15.39Z"/>
    <path class="cls-7" d="M803.73,636.17c10.86-2.25,11.76,15.24,1.59,15.57-8.4.28-10.7-13.69-1.59-15.57Z"/>
    <path class="cls-7" d="M167.63,516.25c8.66-.95,10.48,14.29,2.83,15.73-11.88,2.25-11.01-14.83-2.83-15.73Z"/>
    <path class="cls-7" d="M165.71,549.21c11.96-3.54,13.13,15.64,2.03,14.58-8.31-.8-7.28-13.02-2.03-14.58Z"/>
    <path class="cls-4" d="M256,347c19.19-.91,38.77.68,58,0,.53,3.6,6.41,10.33,7,15,.08.65-.06,1.34,0,2-18.61,0-37.28-.09-55.89.11-.46,2.1-1,4.17-1.15,6.35-1.46,21.28-.96,50.56,0,72.08.21,4.76,1.92,9.75.98,14.85.29,1.01,4.61.13,5.03,5.19.48,5.84-4.96,5.01-4.96,5.42v242h124v-136h-15.5c-4.93,0-4.58-12,1-12h14.5c-1.19-35.35,1.59-71.77,0-107,1.93.24,3.62,1.77,5,3,.8.71,2.06,2.08,3,3,2.37,2.33,7.67,7.56,8.05,10.45l-.06,91.56c17.45-3.22,18.64,15.73,0,11.99v135l129.57.04c1.62.45,3.3-.88,4.43-1.04,1.53-.22,3.41.28,5.02-.45l75.85-21.68.13-30.87c3.95.57,11.77.26,16,0,.65,4.54-1.26,30.09.93,31.57l89.07,17.43v-185c0-.75-11.95,1.31-11.03-7.46.66-6.26,11.03-5.28,11.03-7.04v-141.5h-90v126.5c0,1.23,6.83,1.6,7.06,6.97.31,6.95-6.89,4.77-7.12,6.11l.06,64.42c-4.76-.35-11.31.1-16,1v-204c-22.41,6.76-44.16,16.77-66.48,24.02-4.89,1.59-9.29,3.53-14.52,3.98-18.48,1.58-39.7-1.83-58,0-.25-4.69,9.72-12.08,9-16,15.28-1.41,34.23,2.09,49.06-.44,24.73-4.23,56.04-23.84,81.53-29.47,23.13-.07,46.29-.2,69.42-.08,5.32.03,10.68-.04,16,0,11.84.1,24.51-1.04,36,1v3c0,121.32,3.71,246.11,0,367-.29,9.51-.84,4.26-3,6l-110.51-21.81-91.98,24.82c-93.62-3.29-190.24,4.37-283.51,0-.99-.05-2.02.1-3,0-.33-.04-.68.06-1,0v-379c3.13-.95,3.72-.84,7-1Z"/>
    <path class="cls-8" d="M486,371c-4.53,7.13-14.34,17.51-20,25-5.88,7.77-45.86,61.66-49.7,62.8-2.38.7-5.13-.2-7.3.2-1.55-1.83-4.52-3.35-6-5-18.98-21.11-45.32-55.59-61.22-79.28-7.15-10.64-14.43-24.01-16.78-36.72-.65-3.54-1.02-10.27-1-14,.13-26.7,13.5-56.76,35-73,7.01-5.3,21.47-11.82,30-14,1.24-.32,2.81-.76,4-1,77.04-15.8,135.03,68.9,93,135ZM404.76,283.26c-46.21,6.29-40.18,82.26,10.62,77.61,50.34-4.61,46.09-85.33-10.62-77.61Z"/>
    <path class="cls-5" d="M321,364h2c2.54,3.53,6.12,3.41,8.43,6.07,1.77,2.03,3.08,6.15,5.16,8.84,14.79,19.14,30.4,38.31,44.42,57.84,4.43,6.17,7.66,10.83,7.99,18.24,1.59,35.23-1.19,71.65,0,107h-14.5c-5.58,0-5.93,12-1,12h15.5v136h-124v-242c0-.42,5.44.41,4.96-5.42-.41-5.06-4.73-4.18-5.03-5.19.95-5.09-.76-10.09-.98-14.85-.96-21.52-1.46-50.8,0-72.08.15-2.18.69-4.25,1.15-6.35,18.61-.2,37.28-.11,55.89-.11ZM283.73,466.16c-3.33.51-5.7,4.67-4.24,7.81.65,1.4,8.33,9.4,9.94,10.1,3.84,1.67,7.7.83,8.42-3.8.59-3.77-10.29-14.69-14.11-14.11ZM302.74,495.16c-9.53,1.74-2.34,26.57,7.22,18.3,3.01-2.61,1-10.17-.22-13.69-1.15-3.32-3.21-5.3-6.99-4.61ZM305.24,544.76c2.6,2.59,8.46,1.2,9.55-2.47.54-1.81-.43-10.63-1-12.58-1.19-4.03-9.36-3.67-10.37.22-.55,2.09.55,13.57,1.82,14.83ZM318.73,555.17c-10.95,3.14,3.45,17.78,10.87,11.92,6.41-5.06-5.13-13.57-10.87-11.92ZM345.69,562.19c-4.83,1.46-4.65,9.7,1.87,10.74,3.66.58,9.24.97,11.31-2.57,4.71-8.04-7.38-9.93-13.19-8.17ZM336.74,614.23c-19.78,3.43-9.44,34,9.32,23.32,12.45-7.09,4.97-25.8-9.32-23.32Z"/>
    <path class="cls-10" d="M539,393l-.07,100.62c-.58,1.29,1.02,2.95,1.07,3.38.08.65-.11,1.39,0,2l-1,210c-1.13.16-2.8,1.49-4.43,1.04l-129.57-.04v-135c18.64,3.74,17.45-15.21,0-11.99l.06-91.56c-.38-2.89-5.68-8.12-8.05-10.45,1.99-1.77,5.18.39,8.46-.02,2.07-.26,3.33-1.94,3.54-1.98,2.17-.4,4.92.5,7.3-.2,3.84-1.13,43.83-55.02,49.7-62.8,4.54,1,10.07-2.51,15-3,18.3-1.83,39.52,1.58,58,0ZM475.71,451.21c-6.61,1.51-9.98,10.78-7.21,16.79,5.64,12.27,24.23,7.73,24.59-4.5.28-9.64-8.42-14.35-17.38-12.29ZM526.76,504.76c1.08-1.08,1.53-4.71,1.27-6.24-1-5.87-22.11-5.69-17.52,4.45,1.86,4.12,14,4.04,16.25,1.78ZM493.72,504.18c-3.48,1.03-9,9.84-7.21,13.8,4.33,9.55,15.45-5.48,14.1-9.99-.91-3.04-3.67-4.76-6.89-3.81ZM483.66,530.21c-7.39.65-8.69,20.23,1.78,18.81,5.67-.77,5.61-19.46-1.78-18.81ZM473.73,558.15c-5.68,1.12-13.56,11.93-5.77,14.43,4.47,1.44,13.54-5.42,12.87-9.86-.47-3.13-4-5.19-7.1-4.58ZM434.71,564.21c-1.65.48-4.29,3.86-4.55,5.52-1.46,9.31,19.62,8.33,22.11,3.03,4.64-9.87-11.73-10.25-17.56-8.54Z"/>
    <path class="cls-6" d="M636,568l-.06-64.42c.23-1.34,7.43.84,7.12-6.11-.24-5.37-7.06-5.75-7.06-6.97v-126.5h90v141.5c0,1.76-10.37.78-11.03,7.04-.93,8.77,11.03,6.71,11.03,7.46v185l-89.07-17.43c-2.19-1.48-.28-27.03-.93-31.57,56.54-3.47,54.83-83.96,0-88ZM660.74,493.16c-1.65.33-5.2,2.96-5.6,4.55-1.62,6.41,14.78,10.97,17.92,5.85,4.64-7.56-6.42-11.57-12.32-10.4ZM690.63,499.27c-3.6.38-5.18,3.95-4.63,7.18.99,5.85,19.64,9.38,18.8.2-.41-4.48-10.68-7.75-14.16-7.39Z"/>
    <path class="cls-5" d="M539,393c5.22-.45,9.63-2.39,14.52-3.98,22.32-7.25,44.07-17.26,66.48-24.02v204c-25.59,4.91-43.24,32.83-34.47,57.98,4.55,13.05,20.79,27.06,34.48,29.02l-.13,30.87-75.85,21.68c-1.61.73-3.49.23-5.02.45l1-210c.68,3.79-1.16,6.29,4.45,7.05,24.65,3.31,13.99-18.96-4.45-9.05-.05-.43-1.66-2.09-1.07-3.38l.07-100.62ZM573.71,495.21c-4.06,1.16-5.39,8.5-1.72,10.29,2.48,1.21,14.14,1.27,15.51-1.5,4.25-8.65-7.63-10.56-13.79-8.8ZM603.71,495.21c-4.06,1.16-5.39,8.5-1.72,10.29,3.06,1.49,14.73,1.37,16.49-2.53,3.82-8.45-9.33-9.32-14.77-7.77Z"/>
    <path class="cls-4" d="M636,568c54.83,4.04,56.54,84.53,0,88-4.23.26-12.05.57-16,0-13.69-1.97-29.93-15.98-34.48-29.02-8.77-25.15,8.88-53.06,34.48-57.98,4.69-.9,11.24-1.35,16-1ZM657.69,645.69c2.03-1.48,10.34-16.01,11.51-18.99,12.27-31.34-16.61-61.6-48.02-53.02-10.92,2.98-27.46,16.23-29.13,27.89-.4,2.76-.26,14.93.06,17.83,2.36,21.3,17.24,30.43,37.49,32.5,5.75.59,23.59-2.91,28.09-6.2Z"/>
    <path class="cls-2" d="M403,454c1.48,1.65,4.45,3.17,6,5-.21.04-1.48,1.72-3.54,1.98-3.28.41-6.47-1.76-8.46.02-.94-.92-2.2-2.29-3-3-.8-2.75,6.32-3.08,9-4Z"/>
    <path class="cls-9" d="M321,362c2.85-.68,1.68,1.55,2,2h-2c-.06-.66.08-1.35,0-2Z"/>
    <path class="cls-1" d="M404.76,283.26c56.71-7.72,60.96,73.01,10.62,77.61-50.8,4.65-56.83-71.32-10.62-77.61ZM406.74,293.24c-1.44.24-9.15,2.85-10.44,3.56-3.61,1.98-10.18,14.85-11.01,18.99-2.65,13.15,4.47,32.96,19.28,35.16,2.76.41,15.21,1.2,17.68.85,7.58-1.08,14.27-7.93,17.59-14.46,11.54-22.73-7.39-48.38-33.09-44.09Z"/>
    <path class="cls-4" d="M336.74,614.23c14.28-2.48,21.77,16.24,9.32,23.32-18.76,10.68-29.1-19.89-9.32-23.32Z"/>
    <path class="cls-7" d="M283.73,466.16c3.82-.58,14.7,10.34,14.11,14.11-.72,4.63-4.58,5.47-8.42,3.8-1.61-.7-9.29-8.7-9.94-10.1-1.46-3.14.91-7.31,4.24-7.81Z"/>
    <path class="cls-7" d="M302.74,495.16c3.78-.69,5.84,1.28,6.99,4.61,1.22,3.53,3.24,11.09.22,13.69-9.56,8.27-16.74-16.56-7.22-18.3Z"/>
    <path class="cls-4" d="M305.24,544.76c-1.27-1.26-2.37-12.74-1.82-14.83,1.02-3.88,9.19-4.24,10.37-.22.57,1.94,1.54,10.77,1,12.58-1.09,3.68-6.96,5.06-9.55,2.47Z"/>
    <path class="cls-7" d="M345.69,562.19c5.8-1.76,17.89.13,13.19,8.17-2.07,3.54-7.65,3.15-11.31,2.57-6.52-1.04-6.7-9.28-1.87-10.74Z"/>
    <path class="cls-7" d="M318.73,555.17c5.74-1.65,17.28,6.86,10.87,11.92-7.42,5.86-21.82-8.78-10.87-11.92Z"/>
    <path class="cls-4" d="M475.71,451.21c8.96-2.05,17.65,2.65,17.38,12.29-.35,12.23-18.94,16.77-24.59,4.5-2.77-6.01.6-15.28,7.21-16.79Z"/>
    <path class="cls-4" d="M434.71,564.21c5.84-1.71,22.2-1.32,17.56,8.54-2.5,5.31-23.57,6.28-22.11-3.03.26-1.65,2.9-5.03,4.55-5.52Z"/>
    <path class="cls-7" d="M540,499c-.11-.61.08-1.35,0-2,18.44-9.92,29.11,12.36,4.45,9.05-5.61-.75-3.77-3.25-4.45-7.05Z"/>
    <path class="cls-7" d="M526.76,504.76c-2.25,2.25-14.38,2.33-16.25-1.78-4.59-10.14,16.52-10.32,17.52-4.45.26,1.52-.2,5.16-1.27,6.24Z"/>
    <path class="cls-7" d="M483.66,530.21c7.4-.65,7.45,18.04,1.78,18.81-10.47,1.42-9.17-18.16-1.78-18.81Z"/>
    <path class="cls-7" d="M493.72,504.18c3.22-.95,5.98.77,6.89,3.81,1.36,4.51-9.77,19.54-14.1,9.99-1.79-3.95,3.73-12.77,7.21-13.8Z"/>
    <path class="cls-4" d="M473.73,558.15c3.1-.61,6.63,1.45,7.1,4.58.67,4.44-8.4,11.29-12.87,9.86-7.79-2.5.09-13.31,5.77-14.43Z"/>
    <path class="cls-4" d="M660.74,493.16c5.9-1.17,16.96,2.84,12.32,10.4-3.14,5.12-19.54.56-17.92-5.85.4-1.59,3.96-4.22,5.6-4.55Z"/>
    <path class="cls-7" d="M690.63,499.27c3.48-.37,13.75,2.91,14.16,7.39.84,9.18-17.81,5.65-18.8-.2-.55-3.23,1.03-6.8,4.63-7.18Z"/>
    <path class="cls-7" d="M603.71,495.21c5.44-1.56,18.59-.68,14.77,7.77-1.76,3.9-13.43,4.02-16.49,2.53-3.67-1.79-2.35-9.13,1.72-10.29Z"/>
    <path class="cls-7" d="M573.71,495.21c6.15-1.76,18.04.15,13.79,8.8-1.36,2.77-13.03,2.71-15.51,1.5-3.67-1.79-2.35-9.13,1.72-10.29Z"/>
    <path class="cls-5" d="M406.74,293.24c25.7-4.29,44.62,21.36,33.09,44.09-3.32,6.53-10.01,13.38-17.59,14.46-2.47.35-14.91-.44-17.68-.85-14.81-2.2-21.94-22.01-19.28-35.16.84-4.14,7.41-17,11.01-18.99,1.29-.71,9-3.32,10.44-3.56Z"/>
    <polygon class="cls-4" points="314 347 335.7 347 338.04 363.98 321 364 314 347"/>
    <path class="cls-4" d="M490,377s-13.04.53-26.35,5.08l2.35,13.92s4.41-1.91,15-3,9-16,9-16Z"/>
    <polyline class="cls-8" points="405.05 471.45 405.05 433.72 387.08 426.97 389 455"/>
  </g>
</svg>