<?xml version="1.0" encoding="UTF-8"?>
<svg xmlns="http://www.w3.org/2000/svg" viewBox="0 0 1024 1024">
  <defs>
    <style>
      .cls-1 {
        fill: #292929;
      }

      .cls-2 {
        fill: #f6f6f6;
      }

      .cls-3 {
        fill: #7f7373;
      }

      .cls-4 {
        fill: #fff;
        opacity: .5;
      }

      .cls-5 {
        fill: #fbfcfc;
      }

      .cls-6 {
        fill: #2e2e2d;
      }

      .cls-7 {
        fill: #f3f4f4;
      }

      .cls-8 {
        fill: #fafafa;
      }

      .cls-9 {
        fill: #f8f7f8;
      }

      .cls-10 {
        fill: #585857;
      }

      .cls-11 {
        fill: #fafbfb;
      }

      .cls-12 {
        fill: #2c2e2b;
      }

      .cls-13 {
        fill: #313131;
      }

      .cls-14 {
        fill: #eee;
      }

      .cls-15 {
        fill: #dadbdc;
      }
    </style>
  </defs>
  <g id="_검은색_배경" data-name="검은색 배경">
    <rect class="cls-3" x="0" y="0" width="1024" height="1024"/>
  </g>
  <g id="_레이어_1" data-name="레이어 1">
    <path class="cls-1" d="M434.56,418.6c4.29-1.63,5.58,3.67,6,6.99.54,4.29.15,10.96.05,15.53-.05,2.27-1.7,4.53-.1,5.99,9,.9,18.02,1.7,27.03,2.46-.56,3.22,1.63,1.71,3.5,1.95,5.84.75,15.81.74,20.76,2.26,2.19.68,5.25,5.04,8.71,4.78.36,4.65,2.94,11.61,3.71,16.77,4.33,29.22,3.19,54.4,2.25,83.57-2.38,73.76-9.46,147.23-14.96,220.79-.38,3.68-6,2.58-8.99,2.5-5.67-.14-4.9.28-9.99,1s-9.98,1.2-14.99,1c-.93-.04-2.45-1.54-5.5-1-2.02.35-2.34,1.95-2.49,2-2.24.72-8.93-.17-11.99,1l1.99-68.92-4.81,6.67c-7.02,14.62-14.63,28.93-22.16,43.27-1.89-.98-8.66,1.33-8.98,1-.13-.13-.02-2.21-.98-3.51-3.63-4.95-5.72-2.69-10.3-3.72-3.86-.86-7.89-1.8-11.72-2.77-.33-.08-.72.1-1,0,.08-2.01-.98-3.02-3-3-1.24-.89-3.09-1.56-5-3,.08-2.01-.98-3.02-3-3-1.13-.91-6.12-1.65-5.88-4.31,19.01-37.78,37.8-77.52,45.37-119.53,9.47-52.55-.68-102.11,17.45-154.37,8.14-23.47,11.99-25.14,9.01-52.43Z"/>
    <path class="cls-6" d="M696.36,223.82c18.44-5.33,38.85-2.69,51.93,12.52,24.4,28.37,3.61,73.25.09,105.72l62.09,314.59c.95,2.52,10.52,2.02,13.83,3.15,10.64,3.63,11.39,17.12,13.1,26.36,11.88-.43,22.37-.96,21.85,14.12,6.94.57,15.7-2.48,19.54,4.94-.18,36.73,1.72,73.77.48,110.49-.08,2.23-1.02,4.23-1.05,6.45h79.44c1.98,0,1.98,5.99,0,5.99H68.33c-2.15,0-4.69-5.12,2.98-6.01l121.29-.12c2.18-5.11.65-10.82,1.26-16.22,2.96-26.15,23.27-51.17,50.84-51.56v-262.71h-57.46c-4.63,0-10.1-4.67-10.45-9.61-.68-9.51,6.91-10.29,7.79-13.02.79-2.43-.76-5.34,1.08-7.91,3.07-4.28,19.65-5.55,25.04-6.43,1.62-55.75,81.8-55.77,83.08-.12.61.93,16.95,3.1,20.25,5.23,3.84,2.48,2.08,8.24,2.65,8.84.37.39,7.06.29,9.98,3.5,3.79,4.16,3.76,12.72-.5,16.56-.71.64-5.51,2.96-6.03,2.96h-57.46v262.71c19.65.76,37.23,16.06,44.82,33.61,1.35,3.13,5.14,14.06,5.14,16.84v17.48h55.96c-1.03-5.38-2.82-9.84-.72-15.22,3.87-9.89,11.3-11.71,16.55-19.41,2.09-3.08,8.38-17.59,6.68-20.3s-9.98-4.83-10.52-9c3.83.97,7.86,1.91,11.72,2.77,4.59,1.02,6.67-1.24,10.3,3.72.95,1.3.85,3.38.98,3.51.32.32,7.09-1.98,8.98-1-1.05,2-3.58,10.44-5.59,10.92-2.83.18-8.98-8.01-11.39-5.93-.64.55-3.7,12.52-5.56,15.92-6.11,11.14-18.62,13.99-17.47,27.58.18,2.11.38,5.52,2.71,6.28.34.11,6.48,1.17,6.83,1.17h68.45c-7.84-11.45,3.88-25.28-1-37.96.15-.05.47-1.65,2.49-2,3.06-.53,4.57.97,5.5,1-3.66,1.96-1.63,7.74-2.01,11.48-.71,6.95-6.81,23.44,1.72,25.27,10.3,2.21,36.88,2.19,47.76,1.21,1.1-.1,4.29-.49,4.55-1.66.06-3.66-.73-6.89-3.55-9.35-5.75-5.01-29.63-9.08-32.96-13-3.21-3.77.24-10.48-.53-14.96,5.1-.72,4.32-1.14,9.99-1-.64,1.83-4.57.6-5,1s-.27,11.43.12,11.87c.84.96,20.47,6.69,24.13,8.34,9.23,4.16,13.18,7.65,12.72,18.75,6.5-1.26,20.11,3.16,23.04-3.44,38.3-182.9,72.3-366.81,110.67-549.64,2.72-5.06,4.98-10.52,8.19-15.29,8.96-13.32,24.45-25.48,39.97-29.97ZM705.13,227.09c-24.24,2.78-46.86,25.72-53.23,48.68l-76.18,381.34c-5.22,26.78-4.83,74.79,30.47,79.88,36.84,5.31,63.38-28.62,71.7-60.66,12.57-48.43,20.43-103.97,30.15-153.65,14.49-74.07,30.28-148.38,42.97-222.75,2.17-12.74,5.13-24.41,3.04-37.37-4.18-25.95-23.17-38.41-48.91-35.46ZM743.33,720.27v-25.47c0-.34,2.8-4.93,3.46-5.53,6.33-5.72,26.02-1.77,34.5-2.97.62-14.12,6.51-28.51,22.98-27.97l.05-2.48-28.31-147.55-30.67-151.62-39.07,203.27,2.37,13.69,34.68,146.63ZM288.67,454.56c-.74-47.47-69.7-49.93-72.96-1.49-.15,2.17.1,1.24,1.51,1.48,16.43,2.71,33.64.24,49.97.02,2.6-.03,5.6,1.14,9.03,1.06,4.16-.1,8.19-1.7,12.46-1.06ZM189.74,468.55h120.41c1.66,0,1.83-3.9-.25-5-3.19-1.68-17.48-3.77-21.69-4.04-21.73-1.41-56.42-1.66-77.97.06-3.02.24-16.42,2.44-18.47,3.51-1.68.88-2.86,4.6-2.03,5.47ZM188.48,473.78c-7.1.31-8.55,10.9-1.28,11.8h131.99c8.5-1.12,4.89-13.4-4.06-12.02l-126.65.22ZM256.69,491.52c-1.53-.7-6.99-1.77-6.99.5v260.71c0,1.76,5.58,1.67,6.99,1.5v-262.71ZM704.35,576.43l-49.95,246.72,91.93-1c-1.46-2.7-2.65-5.35-3-8.48-2.33-20.8,1.85-45.57-.12-66.81-12.63-56.87-26.95-113.5-38.85-170.43ZM795.29,687.3h14.99c-.2-6.72-1.52-13.99-2.97-20.55-.31-1.42.85-2.82-1.54-2.44-6.41,1.01-12.08,17.06-10.48,22.99ZM820.28,686.31c.26-7.82-.65-17.53-7.99-21.98l2.98,21.98h5ZM831.27,686.31c.36-8.11-.95-20.75-10.99-21.97,1.14,3.35,2.91,6.17,3.74,9.74.5,2.17.82,11.79,1.25,12.24.29.3,4.77-.2,6,0ZM794.8,666.35c-5.35.89-11.45,20.01-6.99,20.95,3.49-1.2,3.05-8.34,3.97-11.99.78-3.06,2.33-5.91,3.02-8.96ZM853.25,816.66v-122.86c0-.7-1.67-1.34-2.5-1.5-4.89-.9-13.8-.28-18.94.04-22.01-.27-44.03.2-66.04,0-6.57-.06-16.25-4.11-17.46,6.42-2.34,20.3-.26,51.56-.03,72.99.05,5.01,1.05,10.93,1.11,15.89.09,7.71-2.72,23.5.53,29.43.61,1.11,1.9,2.51,3.13,2.87,4.95,1.43,18.57-.04,24.81.17,20.33.7,45.87,2.97,65.95,1.08,2.73-.26,8.64-1.59,9.45-4.53ZM552.47,775.21h105.42l13.48-67.92c-17.13,22.44-42.26,42.86-72.47,33-19.83-6.47-25.71-23.81-30.94-42l-15.49,76.92ZM873.23,705.28h-14.99v112.37c0,.51-1.59,2.1-.99,3.49,5.11-.58,15.66,2.45,16.96-4.52l.08-105.9-1.05-5.45ZM307.65,823.15v-14.48c0-45.53-63.35-66.87-93.47-35.5-6.72,7-15.45,24.91-15.45,34.5v15.48c1.87.05,4.17.45,4.85-1.64,1.1-3.37.39-14.4,1.4-19.58,2.27-11.69,9.34-21.84,21.47-24.49,8.79-1.92,40.9-1.22,50.71-.23,13.37,1.35,25.49,15.04,25.49,28.46v17.48h5ZM657.39,780.2h-105.92l-8.99,42.95c6.89-1.71,13.01.07,19.48.07,21.14-.02,42.57-2.25,63.95-.26,6.42-2.64,19.99,2.33,23.71-4.07,1.57-2.69,9.17-37.28,7.77-38.68ZM210.22,823.15h85.94c.11,0,1.5-1.39,1.5-1.5v-14.98c0-6.54-5.57-17.16-11.06-20.91-8.39-5.74-27.88-3.48-38.45-3.52-2.59-.01-5.08-1.07-7.92-1.1-21.53-.21-30.16,9.55-31.5,30.54-.14,2.23-.77,10.78,1.49,11.47Z"/>
    <path class="cls-12" d="M474.53,172.88c.09-.06-.45-1.67.69-1.99,1.61-.45,12.35-1.47,13.17-.88.64.46.57,3.42,1.43,4.58,2.65,3.56,9.7,5.14,14.49,12.97,1.78,2.9,13.56,26.06,13.96,28,1.77,8.54-5.09,9.85-4.69,11.61l45.39,83.54c4.38,7.16,3.49,12.96-4.14,16.88-12.88,6.62-31.59,9.01-45.35,14.12,3.9,11.27,6.69,20.23,2.48,31.92-1.01,2.82-4,6.29-4.43,8.56-2.44,13.13.46,35.82-1.06,50.89-.62,6.11-6.16,23.21-5.98,25.48-3.47.27-6.52-4.1-8.71-4.78-4.96-1.53-14.92-1.52-20.76-2.26-1.87-.24-4.06,1.27-3.5-1.95,5.3.45,15.94,0,20.32,1.01.78.18.62,1.9,1.09,1.88,1.13-.05,8.43-1.1,8.68-1.46,1.44-2.11,3.64-17.5,3.87-20.91,1.03-14.77-1.11-36.3,1.06-49.88.63-3.9,5.11-7.7,5.86-13.13,1.21-8.77-1.45-16.21-3.92-24.39-4.13.59-23.91,8.11-25.91,4.92-.22-.35-.21-2.37.07-2.8,22.22-8.46,50.09-11.1,71.5-20.92,3.95-1.81,8.13-2.85,5.77-8.12-13.8-24.53-27.9-49-40.94-73.95-1.59-3.03-3.61-10.19-5.03-11.95-3.01-3.75-12.11-3.05-16.44-3.05-1.54,1.58,3.2,11.17,4.56,12.93,2.53,3.28,6.48,4.27,8.98,7,2.86,3.13,18.78,48.69,19.98,54.93,1.69,8.76-1.9,9.66-9.52,11.55-12.91,3.21-28.13,1.25-41.29,4.67-2.71.83-1.3,3.93-1.69,5.81-7.41,35.53-19.19,64.73-40.97,93.9-8.3,11.12-21.91,25.98-32.45,34.99-2.08,1.78-6.67,6.04-9,6.05l-35.5-14.56c-4.26-4.85,2.77-7.07,3.01-8.02,1.01-4.01-21.98-16.51-25.49-19.46-1.9-1.59-3.66-3.23-1.57-5.56,36.3-21.99,62.69-56.55,80-94.84-3.7-1.02-8.62-.72-10.99-4.49,9.31-.19,18.52,2.27,27.47,2.08,4.02-.08,6.82-2.16,10.5-3.08.04.66-.06,1.33,0,1.99,11.09-.48,22.46.65,33.52.04,3.03-.16,18.83-1.55,19.35-3.61,1.44-5.65-10.19-11.17-4.9-18.4l-45.97,1.99c.28-1.96-.87-5.84,1.51-6.98s1.19,2.71,1.49,2.99c.41.38,4.58-.94,5.99-1,2.98-.12,6.01.02,8.99,0,1.86-.01,1.72,1.8,5-1,3.02.56,15.41.48,16.51-.98,1.53-2.03,2.38-25.98,1.48-27-.13-.15-2.22.05-3,0,.32-2.64,3.17-2.37,2-6l4.99,3c.2,9.85,2.33,19.83,0,29.96,9.58-1.53,4.41,6.13,4.97,10.44.38,2.94,7.74,8.74,5.04,14.54,4.17-1.02,23.65-1.31,25.56-3.94.53-.73.53-1.6.41-2.45l-18.95-54.07c-6.87-3.75-12.95-10.53-14.57-18.4-.44-2.14-.25-8.61-.54-8.95-.56-.65-13.81-4.11-16.41-5.07-3.39-1.25-22.45-9.3-23.83-9.09-.5.08-4.4,5.95-6.7,7.51-2,1.36-8.5,3.33-8.77,3.73-.83,1.25-.63,8.1-1.21,10.11-.23.81-3.85,1.86-.96,6.7-.17.22.38,1.67-.3,2.67l-6.69,8.32c1.68-9.94,2.86-20.01,4.49-29.97,6.73-4.63,15.93-5.87,16.49-15.97-5.02,1.21-13.72.01-18.04,1.43-5.57,1.83-6.23,13.34-7.89,18.09-7.2,20.58-17.22,40.31-23.88,61.15-.51,3.25,4.02,4.31,6.35,6.25,1.16.97,1.81,2.4,2.49,2.97-1.36,1.4.14,2.88-1,4.99-1.61-.55-2.1-1.83-3-3l.99-.51c.07-3.36-1.79-.47-1.99-.49-2.47-.2-10.92-7.68-8.79-11.23,6.18-19.15,14.68-37.4,21.8-56.18,3.1-8.18,3.83-16.73,9.12-23.84,1.22-1.64,3.61-2.28,4.34-3.66,2.24-4.24-.15-7.6,6-11.98,4.81-3.42,7.8-2.13,12.53-3.46,4.18-1.17,4.29-1.74,8.96-2.53-.28,12.17-22.08,3.6-21.98,16.98,6.87,1.63,22.14-5.49,19.13,6.43,13.17,5.98,27.73,12,41.83,16.05,4.36,1.25,24,7.32,21.57-2.5-5.77-8.27-9.71-23.73-16.13-30.9-1.34-1.49-11.06-8.66-12.71-9.27-3.72-1.38-9.35.89-9.71-3.77ZM438.56,317.72l-21.89-.89c-10.62,29.65-31.09,57.81-54.53,78.83-6.66,5.97-15.14,10.93-21.46,16.51-1.4,1.24-1.07.7-.06,1.96,4.02,5.07,19.02,11.02,23.64,17.36,3.24.57,26.81-25.21,30.31-29.39,14.41-17.16,28.06-38.61,36.48-59.42,1.36-3.37,8.99-23.45,7.51-24.96ZM469.53,317.72h-24.98c-12.55,49.16-43.77,91-81.92,123.36-.02,1.54,26.94,11.58,28.48,11.57,2.24-.02,6.47-3.87,8.49-5.57,10.41-8.76,22.22-22.6,30.38-33.56,20.61-27.68,36.6-61.08,39.56-95.81Z"/>
    <path class="cls-13" d="M940.68,841.13c3.35.96,1.16,5.55-3.1,5.97-7.07.71-15.96-.87-22.77-.88-270.01-.43-542.04-.33-812.54-.15-3.46,0-6.54,1.81-10.4-.01-.5-1.29.2-4.94,1.44-4.94h847.37Z"/>
    <path class="cls-4" d="M696.36,223.82c-15.52,4.48-31.02,16.65-39.97,29.97-5.77-3.09-11.41-3.61-17.29-7.19-12.63-7.68-19.43-21.12-19.68-35.76,11.6.8,19.53-15.5,9.99-23.97,29.71-31.4,76.97-4.61,66.95,36.96Z"/>
    <path class="cls-1" d="M486.52,255.79l-4.99-3c1.17,3.62-1.68,3.36-2,6-.66-.04-1.34.07-2,0,.43-3.92-1.61-.97-2-1-2.92-.24-5.01-2.72-6.54,1.95-2.07,6.31,2.51,7.54,2.5,11.38-.01,5.26-2.9,12.18-6.95,15.64-3.28,2.8-3.14.99-5,1,1.5-2.8-6.33-2.49-8.36-2.02-1.16.27-.53,1.09-.63,2.02-1.41.06-5.59,1.38-5.99,1-.3-.28.83-4.1-1.49-2.99s-1.23,5.02-1.51,6.98c-.79,5.55-2.34,12.13-2,17.98-3.67.92-6.48,3-10.5,3.08-8.95.18-18.17-2.27-27.47-2.08-3.33.07-9.93-4.36-9.07-8.38.17-.78,8.32-3.35,10.07-6.61,1.14-2.12-.36-3.59,1-4.99,4.57,3.85,6.76-.91,9.41-5.08,7.49-11.74,8.31-25.53,10.57-38.88l6.69-8.32c.68-1,.14-2.45.3-2.67,3.26-4.28,7.67-8.85,12.96-10.52,9.87-3.12,28.78-1.77,37.03,5,10.34,8.5,5.76,13.78,5.97,24.5Z"/>
    <path class="cls-14" d="M836.26,586.42c10.27-2.36,20.66-1.68,27.98,6.49.9,1.01.95,2.87,2.03,3.96,1.57,1.58,4.35,1.61,6.42,4.57,6.45,9.2.55,25.59-10.95,26.93-8.25.96-19.18-.36-23.36-8.61-.52-1.03-2.12-7.08-2.12-7.87v-25.47Z"/>
    <path class="cls-14" d="M138.51,716.51c14.34-2.61,26.61,6.19,25.29,21.29-1.28,14.6-18.69,18.53-29.52,10.43-10.16-7.6-9.15-29.28,4.23-31.72Z"/>
    <path class="cls-15" d="M440.55,425.6c-.42-3.33-1.7-8.63-6-6.99-.03-.26-.74-.69-1-1,21.78-29.17,33.56-58.37,40.97-93.9,2.15,4.33-.54,10.78-.99,15.49-.56,5.82-.27,12.1-1.03,17.95-3.24,25.01-14.3,50.49-31.96,68.44Z"/>
    <path class="cls-13" d="M830.97,377.86c3.03-.87,24.81-.74,28.82-.27s4.16,2.84,4.49,6.5c.51,5.77.73,19.55,0,25.07-.44,3.31-1.23,4.06-4.5,4.49-5.56.73-22.42.67-28.08.01-3.6-.42-4.07-2.14-4.46-5.53-.6-5.27-.71-19.89-.03-25.04.28-2.17,1.48-4.58,3.76-5.23ZM859.24,408.62v-24.47c0-.11-1.39-1.5-1.5-1.5h-23.98c-.11,0-1.5,1.39-1.5,1.5v22.97c0,.11,1.39,1.5,1.5,1.5h25.48Z"/>
    <path class="cls-14" d="M238.7,213.33c.65-2.28,5-3.23,5-1v78.91c0,1.88-5,1.88-5,0v-77.91Z"/>
    <path class="cls-13" d="M335.37,611.62c21.11-3.64,22.19,30.14-.18,26.67-14.3-2.22-13.52-24.31.18-26.67ZM334.34,617.6c-8.04,2.38-4.29,18.68,6.33,15.34,10.03-3.16,6.36-19.09-6.33-15.34Z"/>
    <path class="cls-13" d="M173.46,305.95c22.41-5.17,23.71,29.91,1.86,26.69-13.69-2.01-14.05-23.88-1.86-26.69ZM183.46,313c-7.94-7.94-20.13,5.59-10.23,12.72,8.92,6.42,16.82-6.14,10.23-12.72Z"/>
    <path class="cls-12" d="M629.41,186.86c9.54,8.47,1.61,24.77-9.99,23.97-2.92-.2-8.9-4.37-10.41-7.07-7.44-13.33,9.51-26.57,20.4-16.9ZM614.74,202.53c7.29,7.97,19.41-4.4,11.19-11.7-7.73-6.87-18.02,4.24-11.19,11.7Z"/>
    <path class="cls-14" d="M135.28,339.69h62.95c1.88,0,1.88,4.99,0,4.99h-64.95c-2.76,0-.83-4.62,2-4.99Z"/>
    <path class="cls-14" d="M157.26,240.8h54.96c1.88,0,1.88,4.99,0,4.99h-53.96c-1.02,0-4.02-3.88-1-4.99Z"/>
    <path class="cls-14" d="M212.22,218.83c1.21.34,2.06,3.13,1.5,3.98-.13.19-3.77.95-4.48,1.02-11.68,1.09-36.45,1.21-48.04.05-2.49-.25-3.89-.2-5.43-2.57-.38-.85,1.19-2.48,1.49-2.48h54.96Z"/>
    <path class="cls-14" d="M158.26,265.77h53.96c1.88,0,1.88,4.99,0,4.99h-53.96c-1.53,0-2.32-4.1,0-4.99Z"/>
    <path class="cls-6" d="M371.6,752.23c-2.23-1.68-2.72-2.77-3-3,2.02-.02,3.08.99,3,3Z"/>
    <path class="cls-6" d="M379.6,758.23c-4.02-1.37-2.62-2.73-3-3,2.02-.02,3.08.99,3,3Z"/>
    <path class="cls-1" d="M398.58,292.74c.2.02,2.05-2.87,1.99.49l-.99.51c-.27-.36-.73-.62-1-1Z"/>
    <path class="cls-11" d="M474.53,323.71c.39-1.87-1.02-4.98,1.69-5.81,13.16-3.41,28.38-1.46,41.29-4.67,7.62-1.89,11.21-2.79,9.52-11.55-1.2-6.24-17.13-51.8-19.98-54.93-2.5-2.74-6.45-3.72-8.98-7-1.36-1.76-6.09-11.35-4.56-12.93,4.33,0,13.43-.71,16.44,3.05,1.42,1.77,3.44,8.92,5.03,11.95,13.04,24.95,27.14,49.42,40.94,73.95,2.36,5.27-1.82,6.31-5.77,8.12-21.41,9.82-49.28,12.45-71.5,20.92-.27.44-.29,2.45-.07,2.8,2,3.18,21.78-4.33,25.91-4.92,2.47,8.18,5.13,15.61,3.92,24.39-.75,5.42-5.23,9.22-5.86,13.13-2.18,13.58-.04,35.11-1.06,49.88-.24,3.4-2.43,18.8-3.87,20.91-.25.36-7.55,1.41-8.68,1.46-.47.02-.32-1.7-1.09-1.88-4.39-1.01-15.02-.56-20.32-1.01-9-.76-18.03-1.56-27.03-2.46-1.61-1.45.05-3.72.1-5.99.1-4.57.49-11.23-.05-15.53,17.66-17.95,28.72-43.43,31.96-68.44.76-5.85.47-12.13,1.03-17.95.45-4.71,3.13-11.17.99-15.49Z"/>
    <path class="cls-8" d="M412.57,767.22c7.53-14.34,15.15-28.65,22.16-43.27l4.81-6.67-1.99,68.92c3.06-1.17,9.75-.28,11.99-1,4.88,12.68-6.84,26.51,1,37.96h-68.45c-.35,0-6.49-1.05-6.83-1.17-2.33-.76-2.53-4.16-2.71-6.28-1.14-13.59,11.37-16.44,17.47-27.58,1.87-3.4,4.93-15.37,5.56-15.92,2.41-2.09,8.55,6.1,11.39,5.93,2.02-.48,4.55-8.92,5.59-10.92Z"/>
    <path class="cls-2" d="M472.53,783.2c.77,4.48-2.68,11.19.53,14.96,3.34,3.92,27.21,7.99,32.96,13,2.82,2.45,3.61,5.69,3.55,9.35-.26,1.16-3.45,1.56-4.55,1.66-10.88.98-37.47,1-47.76-1.21-8.53-1.83-2.43-18.33-1.72-25.27.38-3.74-1.65-9.52,2.01-11.48,5.01.2,10.05-.3,14.99-1Z"/>
    <path class="cls-5" d="M853.25,816.66c-.82,2.95-6.73,4.28-9.45,4.53-20.08,1.89-45.62-.38-65.95-1.08-6.25-.21-19.86,1.26-24.81-.17-1.23-.35-2.52-1.75-3.13-2.87-3.25-5.93-.44-21.72-.53-29.43-.06-4.96-1.05-10.88-1.11-15.89-.22-21.43-2.31-52.69.03-72.99,1.22-10.54,10.89-6.48,17.46-6.42,22.01.19,44.03-.28,66.04,0,5.14-.33,14.06-.94,18.94-.04.83.15,2.5.79,2.5,1.5v122.86Z"/>
    <path class="cls-2" d="M705.13,227.09c25.74-2.95,44.73,9.51,48.91,35.46,2.09,12.97-.86,24.63-3.04,37.37-12.69,74.37-28.48,148.68-42.97,222.75-9.72,49.69-17.58,105.23-30.15,153.65-8.31,32.04-34.86,65.97-71.7,60.66-35.3-5.09-35.69-53.1-30.47-79.88l76.18-381.34c6.37-22.95,28.99-45.9,53.23-48.68ZM709.16,235.1c-30.45,1.66-47.95,29.82-54.46,56.46-12.17,49.81-20.36,105.04-29.98,155.83-14.97,79.04-29.22,158.23-43.28,237.44,3.09,72.49,81.23,41.62,85.63-12.32l77.24-400.25c2.25-22.23-12.84-38.38-35.15-37.16Z"/>
    <path class="cls-4" d="M288.67,454.56c-4.26-.64-8.29.96-12.46,1.06-3.42.08-6.43-1.09-9.03-1.06-16.33.22-33.54,2.69-49.97-.02-1.41-.23-1.65.7-1.51-1.48,3.26-48.44,72.22-45.98,72.96,1.49Z"/>
    <path class="cls-7" d="M873.23,705.28l1.05,5.45-.08,105.9c-1.3,6.96-11.85,3.93-16.96,4.52-.59-1.4.99-2.98.99-3.49v-112.37h14.99Z"/>
    <path class="cls-9" d="M256.69,491.52v262.71c-1.41.17-6.99.27-6.99-1.5v-260.71c0-2.27,5.46-1.2,6.99-.5Z"/>
    <path class="cls-14" d="M188.48,473.78l126.65-.22c8.95-1.38,12.56,10.9,4.06,12.02h-131.99c-7.27-.9-5.82-11.49,1.28-11.8Z"/>
    <path class="cls-7" d="M307.65,823.15h-5v-17.48c0-13.42-12.13-27.11-25.49-28.46-9.81-.99-41.92-1.69-50.71.23-12.13,2.65-19.2,12.8-21.47,24.49-1,5.18-.3,16.21-1.4,19.58-.68,2.09-2.99,1.69-4.85,1.64v-15.48c0-9.59,8.73-27.5,15.45-34.5,30.12-31.37,93.47-10.03,93.47,35.5v14.48Z"/>
    <path class="cls-4" d="M189.74,468.55c-.84-.86.34-4.59,2.03-5.47,2.05-1.07,15.46-3.27,18.47-3.51,21.56-1.72,56.24-1.47,77.97-.06,4.21.27,18.5,2.36,21.69,4.04,2.08,1.1,1.91,5,.25,5h-120.41Z"/>
    <path class="cls-14" d="M795.29,687.3c-1.6-5.93,4.07-21.98,10.48-22.99,2.39-.38,1.22,1.02,1.54,2.44,1.45,6.56,2.77,13.83,2.97,20.55h-14.99Z"/>
    <path class="cls-14" d="M831.27,686.31c-1.23-.2-5.72.3-6,0-.43-.44-.75-10.07-1.25-12.24-.83-3.57-2.59-6.39-3.74-9.74,10.05,1.23,11.35,13.87,10.99,21.97Z"/>
    <path class="cls-14" d="M820.28,686.31h-5s-2.98-21.98-2.98-21.98c7.34,4.45,8.25,14.16,7.99,21.98Z"/>
    <path class="cls-14" d="M794.8,666.35c-.68,3.05-2.24,5.9-3.02,8.96-.93,3.65-.48,10.79-3.97,11.99-4.46-.94,1.64-20.06,6.99-20.95Z"/>
    <path class="cls-9" d="M430.56,236.81c-2.89-4.85.73-5.89.96-6.7.57-2.01.38-8.86,1.21-10.11.26-.4,6.76-2.37,8.77-3.73,2.3-1.56,6.2-7.44,6.7-7.51,1.38-.21,20.44,7.85,23.83,9.09,2.6.96,15.84,4.42,16.41,5.07.29.34.1,6.81.54,8.95,1.62,7.86,7.7,14.65,14.57,18.4l18.95,54.07c.12.85.12,1.72-.41,2.45-1.91,2.62-21.39,2.92-25.56,3.94,2.7-5.8-4.65-11.59-5.04-14.54-.56-4.31,4.62-11.97-4.97-10.44,2.34-10.13.2-20.11,0-29.96-.22-10.72,4.37-15.99-5.97-24.5-8.24-6.77-27.16-8.13-37.03-5-5.29,1.67-9.7,6.24-12.96,10.52Z"/>
    <path class="cls-9" d="M403.58,291.75c-.68-.57-1.32-2.01-2.49-2.97-2.34-1.94-6.86-3-6.35-6.25,6.65-20.84,16.68-40.57,23.88-61.15,1.66-4.74,2.32-16.26,7.89-18.09,4.32-1.42,13.02-.23,18.04-1.43-.56,10.1-9.76,11.34-16.49,15.97-1.63,9.96-2.81,20.03-4.49,29.97-2.26,13.34-3.09,27.14-10.57,38.88-2.66,4.16-4.84,8.92-9.41,5.08Z"/>
    <path class="cls-7" d="M475.53,257.78c.29.98,1.15.91,2,1,.65.07,1.34-.04,2,0,.78.04,2.87-.16,3,0,.9,1.02.05,24.96-1.48,27-1.1,1.46-13.49,1.53-16.51.98,4.04-3.46,6.93-10.37,6.95-15.64,0-3.84-4.57-5.07-2.5-11.38,1.54-4.67,3.63-2.19,6.54-1.95Z"/>
    <path class="cls-10" d="M450.55,287.75c.09-.92-.53-1.75.63-2.02,2.03-.48,9.87-.78,8.36,2.02-2.98.02-6.02-.12-8.99,0Z"/>
    <path class="cls-12" d="M475.53,257.78c.38.03,2.43-2.92,2,1-.85-.08-1.71-.02-2-1Z"/>
    <path class="cls-9" d="M859.24,408.62h-25.48c-.11,0-1.5-1.39-1.5-1.5v-22.97c0-.11,1.39-1.5,1.5-1.5h23.98c.11,0,1.5,1.39,1.5,1.5v24.47Z"/>
    <path class="cls-7" d="M334.34,617.6c12.69-3.75,16.36,12.17,6.33,15.34-10.62,3.35-14.38-12.96-6.33-15.34Z"/>
    <path class="cls-7" d="M183.46,313c6.59,6.58-1.31,19.14-10.23,12.72-9.9-7.13,2.29-20.66,10.23-12.72Z"/>
    <path class="cls-7" d="M614.74,202.53c-6.82-7.46,3.46-18.56,11.19-11.7,8.21,7.3-3.9,19.66-11.19,11.7Z"/>
    <path class="cls-10" d="M709.16,235.1c22.31-1.22,37.4,14.93,35.15,37.16l-77.24,400.25c-4.4,53.94-82.53,84.81-85.63,12.32,14.07-79.22,28.32-158.4,43.28-237.44,9.62-50.79,17.8-106.02,29.98-155.83,6.51-26.64,24-54.8,54.46-56.46Z"/>
  </g>
</svg>