<svg width="164" height="55" viewBox="0 0 164 55" fill="none" xmlns="http://www.w3.org/2000/svg">
<circle cx="158.974" cy="3.97357" r="3.97357" fill="#FF6666"/>
<path d="M2.44681 41.3695H17.557V34.2007C15.4536 34.029 13.5648 33.5998 11.9336 32.9129C10.2595 32.269 8.84288 31.4105 7.72678 30.3373C6.52484 29.3071 5.66631 28.0622 5.06534 26.6027C4.42144 25.2291 4.12095 23.6837 4.12095 22.0525C4.12095 20.2925 4.46436 18.6613 5.23704 17.1589C5.92387 15.6994 6.95411 14.4116 8.32776 13.2955C9.65848 12.2223 11.2897 11.3638 13.2214 10.7199C15.1102 10.1189 17.2994 9.81844 19.7033 9.81844C21.9784 9.81844 24.0818 10.1189 26.0135 10.7199C27.9023 11.3638 29.5764 12.2223 30.9501 13.2955C32.3237 14.4116 33.3969 15.6994 34.1696 17.1589C34.9422 18.6613 35.3286 20.2925 35.3286 22.0525C35.3286 23.6837 34.9852 25.2291 34.3842 26.6027C33.7403 28.0622 32.8388 29.3071 31.7227 30.3373C30.5208 31.4105 29.1042 32.269 27.473 32.9129C25.7989 33.5998 23.9101 34.029 21.8496 34.2007V41.3695H37.0027V44.8895H2.44681V41.3695ZM19.7033 30.7666C21.5062 30.7666 23.1374 30.552 24.554 30.0369C25.9277 29.6076 27.1296 28.9637 28.1169 28.1481C29.0613 27.3754 29.791 26.4739 30.3062 25.4008C30.7784 24.3705 31.0359 23.2545 31.0359 22.0525C31.0359 20.8935 30.7784 19.7774 30.3062 18.7042C29.791 17.674 29.0613 16.7296 28.1169 15.914C27.1296 15.1413 25.9277 14.5404 24.554 14.0252C23.1374 13.596 21.5062 13.3384 19.7033 13.3384C17.8575 13.3384 16.2262 13.596 14.8526 14.0252C13.436 14.5404 12.277 15.1413 11.3326 15.914C10.3453 16.7296 9.61555 17.674 9.14336 18.7042C8.62824 19.7774 8.41361 20.8935 8.41361 22.0525C8.41361 23.2545 8.62824 24.3705 9.14336 25.4008C9.61555 26.4739 10.3453 27.3754 11.3326 28.1481C12.277 28.9637 13.436 29.6076 14.8526 30.0369C16.2262 30.552 17.8575 30.7666 19.7033 30.7666ZM38.5018 23.8554H73.0577V27.3754H38.5018V23.8554ZM66.6616 36.3041V33.8573H40.6052V30.3373H70.9543V39.8241H44.8978V42.228H71.3835V45.748H40.6052V36.3041H66.6616ZM45.3271 9.86136V17.073H70.525V20.593H41.0345V9.86136H45.3271ZM81.4351 27.8905H115.991V31.4105H81.4351V27.8905ZM87.8311 34.3724V42.228H114.317V45.748H83.5385V34.3724H87.8311ZM98.6915 24.2418C93.6262 24.2418 89.8487 23.6408 87.3589 22.3959C84.7833 21.194 83.5385 19.2623 83.5385 16.6438C83.5385 14.0682 84.7833 12.1365 87.3589 10.8487C89.8487 9.64673 93.6262 9.00283 98.6915 9.00283C103.714 9.00283 107.491 9.64673 110.067 10.8487C112.6 12.1365 113.888 14.0682 113.888 16.6438C113.888 19.2623 112.6 21.194 110.067 22.3959C107.491 23.6408 103.714 24.2418 98.6915 24.2418ZM98.6915 20.7218C105.946 20.7218 109.595 19.3911 109.595 16.6438C109.595 13.8965 105.946 12.5228 98.6915 12.5228C91.437 12.5228 87.8311 13.8965 87.8311 16.6438C87.8311 19.3911 91.437 20.7218 98.6915 20.7218ZM142.645 44.8895V36.9051L137.022 38.8368C136.12 40.9831 134.832 42.5285 133.201 43.4729C131.527 44.4173 129.767 44.8895 127.878 44.8895C126.505 44.8895 125.217 44.6748 124.015 44.2456C122.77 43.7734 121.697 43.0436 120.795 42.0992C119.851 41.069 119.078 39.8241 118.563 38.1929C117.962 36.6475 117.705 34.7159 117.705 32.4407C117.705 30.2086 117.962 28.2769 118.563 26.6886C119.078 25.1432 119.851 23.8554 120.795 22.8252C121.697 21.8808 122.77 21.1511 124.015 20.6789C125.217 20.2496 126.505 19.992 127.878 19.992C129.595 19.992 131.227 20.3784 132.772 21.1511C134.274 21.9237 135.519 23.1686 136.464 24.8857L142.645 22.7393V9.4321H146.938V44.8895H142.645ZM121.997 32.4407C121.997 35.4027 122.512 37.6349 123.586 39.0944C124.616 40.5968 126.075 41.3695 127.878 41.3695C129.552 41.3695 130.969 40.5968 132.128 39.0944C133.244 37.6349 133.802 35.4027 133.802 32.3978C133.802 30.9383 133.63 29.6505 133.373 28.5344C133.029 27.4613 132.643 26.5169 132.128 25.7442C131.57 25.0144 130.926 24.4564 130.239 24.0701C129.509 23.7266 128.737 23.512 127.878 23.512C126.075 23.512 124.616 24.2847 123.586 25.7442C122.512 27.2896 121.997 29.5217 121.997 32.4407ZM155.652 44.8895H151.359V9.4321H155.652V44.8895ZM116.631 12.8662H125.732V8.23015H130.025V12.8662H139.168V16.3862H116.631V12.8662ZM138.138 32.4407C138.138 32.9129 138.095 33.3422 138.095 33.7285C138.052 34.1578 138.009 34.5871 137.966 34.9734L142.645 33.3422V26.3022L137.666 28.0193C137.966 29.393 138.138 30.8525 138.138 32.4407Z" fill="#412A2A"/>
</svg>
