<svg width="176" height="24" viewBox="0 0 176 24" fill="none" xmlns="http://www.w3.org/2000/svg">
<path d="M2.59993 1.76802V20.332H13.7539V22.464H-6.83516e-05V1.76802H2.59993ZM19.0319 9.77602H22.0739V11.908H19.0319V22.724H16.4319V1.24802H19.0319V9.77602ZM26.1671 1.50802V7.28002H41.4291V9.41202H23.5671V1.50802H26.1671ZM22.0331 12.038H42.9631V14.17H22.0331V12.038ZM25.9071 16.094V21.112H41.9491V23.244H23.3071V16.094H25.9071ZM43.8711 20.592H53.0231V16.25C51.7491 16.146 50.6051 15.886 49.6171 15.47C48.6031 15.08 47.7451 14.56 47.0691 13.91C46.3411 13.286 45.8211 12.532 45.4571 11.648C45.0671 10.816 44.8851 9.88002 44.8851 8.89202C44.8851 7.82602 45.0931 6.83802 45.5611 5.92802C45.9771 5.04402 46.6011 4.26402 47.4331 3.58802C48.2391 2.93802 49.2271 2.41802 50.3971 2.02802C51.5411 1.66402 52.8671 1.48202 54.3231 1.48202C55.7011 1.48202 56.9751 1.66402 58.1451 2.02802C59.2891 2.41802 60.3031 2.93802 61.1351 3.58802C61.9671 4.26402 62.6171 5.04402 63.0851 5.92802C63.5531 6.83802 63.7871 7.82602 63.7871 8.89202C63.7871 9.88002 63.5791 10.816 63.2151 11.648C62.8251 12.532 62.2791 13.286 61.6031 13.91C60.8751 14.56 60.0171 15.08 59.0291 15.47C58.0151 15.886 56.8711 16.146 55.6231 16.25V20.592H64.8011V22.724H43.8711V20.592ZM54.3231 14.17C55.4151 14.17 56.4031 14.04 57.2611 13.728C58.0931 13.468 58.8211 13.078 59.4191 12.584C59.9911 12.116 60.4331 11.57 60.7451 10.92C61.0311 10.296 61.1871 9.62002 61.1871 8.89202C61.1871 8.19002 61.0311 7.51402 60.7451 6.86402C60.4331 6.24002 59.9911 5.66802 59.4191 5.17402C58.8211 4.70602 58.0931 4.34202 57.2611 4.03002C56.4031 3.77002 55.4151 3.61402 54.3231 3.61402C53.2051 3.61402 52.2171 3.77002 51.3851 4.03002C50.5271 4.34202 49.8251 4.70602 49.2531 5.17402C48.6551 5.66802 48.2131 6.24002 47.9271 6.86402C47.6151 7.51402 47.4851 8.19002 47.4851 8.89202C47.4851 9.62002 47.6151 10.296 47.9271 10.92C48.2131 11.57 48.6551 12.116 49.2531 12.584C49.8251 13.078 50.5271 13.468 51.3851 13.728C52.2171 14.04 53.2051 14.17 54.3231 14.17ZM65.709 9.98402H86.639V12.116H65.709V9.98402ZM82.765 17.524V16.042H66.983V13.91H85.365V19.656H69.583V21.112H85.625V23.244H66.983V17.524H82.765ZM69.843 1.50802V5.87602H85.105V8.00802H67.243V1.50802H69.843ZM97.999 10.218C94.931 10.218 92.643 9.85402 91.135 9.10002C89.575 8.37202 88.821 7.20202 88.821 5.61602C88.821 4.05602 89.575 2.88602 91.135 2.10602C92.643 1.37802 94.931 0.988017 97.999 0.988017C101.041 0.988017 103.329 1.37802 104.889 2.10602C106.423 2.88602 107.203 4.05602 107.203 5.61602C107.203 7.20202 106.423 8.37202 104.889 9.10002C103.329 9.85402 101.041 10.218 97.999 10.218ZM87.547 12.168H108.477V14.3H99.299V18.72H96.699V14.3H87.547V12.168ZM97.999 8.08602C102.393 8.08602 104.603 7.28002 104.603 5.61602C104.603 3.95202 102.393 3.12002 97.999 3.12002C93.605 3.12002 91.421 3.95202 91.421 5.61602C91.421 7.28002 93.605 8.08602 97.999 8.08602ZM91.421 16.094V21.112H107.463V23.244H88.821V16.094H91.421ZM109.385 11.414H118.537V9.17802H110.919V1.50802H128.781V3.64002H113.519V7.04602H129.041V9.17802H121.137V11.414H130.315V13.546H109.385V11.414ZM119.863 23.764C118.407 23.764 117.081 23.686 115.937 23.556C114.767 23.4 113.779 23.14 112.973 22.828C112.141 22.464 111.491 22.022 111.075 21.502C110.607 20.956 110.399 20.306 110.399 19.526C110.399 18.746 110.607 18.096 111.075 17.55C111.491 17.03 112.141 16.588 112.973 16.25C113.779 15.938 114.767 15.678 115.937 15.522C117.081 15.392 118.407 15.314 119.863 15.314C121.319 15.314 122.619 15.392 123.789 15.522C124.933 15.678 125.947 15.938 126.779 16.25C127.585 16.588 128.209 17.03 128.677 17.55C129.093 18.096 129.327 18.746 129.327 19.526C129.327 20.306 129.093 20.956 128.677 21.502C128.209 22.022 127.585 22.464 126.779 22.828C125.947 23.14 124.933 23.4 123.789 23.556C122.619 23.686 121.319 23.764 119.863 23.764ZM119.863 21.632C120.903 21.632 121.839 21.58 122.697 21.528C123.529 21.45 124.231 21.346 124.855 21.19C125.427 21.034 125.895 20.826 126.233 20.566C126.545 20.28 126.727 19.942 126.727 19.526C126.727 19.11 126.545 18.772 126.233 18.486C125.895 18.226 125.427 18.018 124.855 17.862C124.231 17.706 123.529 17.602 122.697 17.524C121.839 17.472 120.903 17.446 119.863 17.446C118.823 17.446 117.861 17.472 117.029 17.524C116.171 17.602 115.443 17.706 114.871 17.862C114.247 18.018 113.805 18.226 113.493 18.486C113.155 18.772 112.999 19.11 112.999 19.526C112.999 19.942 113.155 20.28 113.493 20.566C113.805 20.826 114.247 21.034 114.871 21.19C115.443 21.346 116.171 21.45 117.029 21.528C117.861 21.58 118.823 21.632 119.863 21.632ZM137.905 5.59002C138.893 5.59002 139.777 5.69402 140.609 5.90202C141.415 6.11002 142.117 6.42202 142.715 6.81202C143.287 7.22802 143.729 7.74802 144.041 8.32002C144.353 8.91802 144.509 9.59402 144.509 10.348C144.509 11.128 144.353 11.83 144.041 12.402C143.729 13 143.287 13.494 142.715 13.884C142.117 14.3 141.415 14.586 140.609 14.768C139.777 14.976 138.893 15.08 137.905 15.08C136.917 15.08 136.007 14.976 135.227 14.768C134.395 14.586 133.719 14.3 133.147 13.884C132.575 13.494 132.133 13 131.821 12.402C131.509 11.83 131.353 11.128 131.353 10.348C131.353 9.59402 131.509 8.91802 131.821 8.32002C132.133 7.74802 132.575 7.22802 133.147 6.81202C133.719 6.42202 134.395 6.11002 135.227 5.90202C136.007 5.69402 136.917 5.59002 137.905 5.59002ZM135.253 16.614V21.112H150.853V23.244H132.653V16.614H135.253ZM150.593 9.41202V17.29H147.993V1.24802H150.593V7.28002H153.635V9.41202H150.593ZM130.703 2.02802H136.605V1.74046e-05H139.205V2.02802H145.133V4.16002H130.703V2.02802ZM137.905 7.72202C136.709 7.72202 135.773 7.93002 135.045 8.34602C134.317 8.78802 133.953 9.46402 133.953 10.348C133.953 11.232 134.317 11.882 135.045 12.298C135.773 12.74 136.709 12.948 137.905 12.948C139.049 12.948 140.011 12.74 140.791 12.298C141.519 11.882 141.909 11.232 141.909 10.348C141.909 9.90602 141.805 9.51602 141.597 9.17802C141.389 8.86602 141.103 8.58002 140.739 8.34602C140.375 8.13802 139.933 7.98202 139.465 7.87802C138.971 7.77402 138.451 7.72202 137.905 7.72202ZM167.946 22.464H153.932V1.76802H167.686V3.90002H156.532V20.332H167.946V22.464ZM172.964 9.77602H176.006V11.908H172.964V22.724H170.364V1.24802H172.964V9.77602Z" fill="#FFFFFF"/>
</svg>
